<?xml version="1.0" encoding="UTF-8" standalone="no"?>
<!-- Created with Inkscape (http://www.inkscape.org/) -->
<svg
   xmlns:dc="http://purl.org/dc/elements/1.1/"
   xmlns:cc="http://creativecommons.org/ns#"
   xmlns:rdf="http://www.w3.org/1999/02/22-rdf-syntax-ns#"
   xmlns:svg="http://www.w3.org/2000/svg"
   xmlns="http://www.w3.org/2000/svg"
   xmlns:sodipodi="http://sodipodi.sourceforge.net/DTD/sodipodi-0.dtd"
   xmlns:inkscape="http://www.inkscape.org/namespaces/inkscape"
   width="1000"
   height="1000"
   id="svg2"
   sodipodi:version="0.32"
   inkscape:version="0.46"
   version="1.0"
   sodipodi:docname="AE.svg"
   inkscape:output_extension="org.inkscape.output.svg.inkscape"
   style="display:inline">
  <defs
     id="defs4">
    <inkscape:perspective
       sodipodi:type="inkscape:persp3d"
       inkscape:vp_x="0 : 526.18109 : 1"
       inkscape:vp_y="0 : 1000 : 0"
       inkscape:vp_z="744.09448 : 526.18109 : 1"
       inkscape:persp3d-origin="372.04724 : 350.78739 : 1"
       id="perspective10" />
    <inkscape:perspective
       id="perspective8089"
       inkscape:persp3d-origin="0.5 : 0.33333333 : 1"
       inkscape:vp_z="1 : 0.5 : 1"
       inkscape:vp_y="0 : 1000 : 0"
       inkscape:vp_x="0 : 0.5 : 1"
       sodipodi:type="inkscape:persp3d" />
    <inkscape:perspective
       id="perspective8102"
       inkscape:persp3d-origin="0.5 : 0.33333333 : 1"
       inkscape:vp_z="1 : 0.5 : 1"
       inkscape:vp_y="0 : 1000 : 0"
       inkscape:vp_x="0 : 0.5 : 1"
       sodipodi:type="inkscape:persp3d" />
    <inkscape:perspective
       id="perspective9638"
       inkscape:persp3d-origin="372.04724 : 350.78739 : 1"
       inkscape:vp_z="744.09448 : 526.18109 : 1"
       inkscape:vp_y="0 : 1000 : 0"
       inkscape:vp_x="0 : 526.18109 : 1"
       sodipodi:type="inkscape:persp3d" />
    <inkscape:perspective
       id="perspective9700"
       inkscape:persp3d-origin="0.5 : 0.33333333 : 1"
       inkscape:vp_z="1 : 0.5 : 1"
       inkscape:vp_y="0 : 1000 : 0"
       inkscape:vp_x="0 : 0.5 : 1"
       sodipodi:type="inkscape:persp3d" />
  </defs>
  <sodipodi:namedview
     id="base"
     pagecolor="#ffffff"
     bordercolor="#666666"
     borderopacity="1.0"
     gridtolerance="10000"
     guidetolerance="10"
     objecttolerance="10"
     inkscape:pageopacity="0.0"
     inkscape:pageshadow="2"
     inkscape:zoom="0.5"
     inkscape:cx="942.72938"
     inkscape:cy="299.19726"
     inkscape:document-units="px"
     inkscape:current-layer="layer1"
     showgrid="false"
     borderlayer="true"
     inkscape:showpageshadow="false"
     inkscape:snap-bbox="true"
     inkscape:snap-nodes="true"
     showguides="false"
     inkscape:guide-bbox="true"
     inkscape:window-width="1239"
     inkscape:window-height="904"
     inkscape:window-x="295"
     inkscape:window-y="136">
    <sodipodi:guide
       orientation="0,1"
       position="880,800"
       id="guide8080" />
    <inkscape:grid
       type="xygrid"
       id="grid8979"
       visible="true"
       enabled="true" />
    <sodipodi:guide
       orientation="0,1"
       position="1357.645,620"
       id="guide8993" />
    <sodipodi:guide
       orientation="0,1"
       position="870,510"
       id="guide8997" />
    <sodipodi:guide
       orientation="0,1"
       position="597,310"
       id="guide8999" />
    <sodipodi:guide
       orientation="-0.37460659,0.92718385"
       position="460,186"
       id="guide9513" />
    <sodipodi:guide
       orientation="0.37460659,0.92718385"
       position="658,384"
       id="guide9515" />
    <sodipodi:guide
       orientation="1,0"
       position="515,375"
       id="guide9625" />
    <sodipodi:guide
       orientation="0,1"
       position="737.66546,14.440433"
       id="guide10011" />
    <sodipodi:guide
       orientation="0,1"
       position="325.09234,200"
       id="guide9923" />
  </sodipodi:namedview>
  <metadata
     id="metadata7">
    <rdf:RDF>
      <cc:Work
         rdf:about="">
        <dc:format>image/svg+xml</dc:format>
        <dc:type
           rdf:resource="http://purl.org/dc/dcmitype/StillImage" />
      </cc:Work>
    </rdf:RDF>
  </metadata>
  <g
     inkscape:label="Layer 1"
     inkscape:groupmode="layer"
     id="layer1"
     style="display:inline">
    <g
       id="g9629"
       transform="matrix(0.8901714,0,0,-0.8901714,-42.22279,801.94124)" />
    <path
       style="opacity:1;fill:#000000;fill-opacity:1;fill-rule:nonzero;stroke:none;stroke-width:1;stroke-linecap:butt;stroke-linejoin:miter;marker:none;marker-start:none;marker-mid:none;marker-end:none;stroke-miterlimit:4;stroke-dasharray:none;stroke-dashoffset:0;stroke-opacity:1;visibility:visible;display:inline;overflow:visible;enable-background:accumulate"
       d="M 477,200 C 477,200 477,201.80158 477,201.8125 C 441.22692,208.46095 398.80424,232.7672 380.5625,260.4375 L 104.71875,714.84375 C 60.946642,801.00272 183.45066,838.19403 222.96875,767.34375 L 281.03125,670.53125 L 477,670.53125 C 477,714.34858 477,800 477,800 C 477,800 822,800 822,800 C 852.42932,798.42607 877,775.47 877,745 C 877,714.53 852.33275,692.88883 822,690 C 822,690 587,690 587,690 C 587,690 587,562 587,562 C 587,562 782,562 782,562 C 812.25635,558.39805 837,537.47 837,507 C 837,476.53 812.33275,454.88883 782,452 C 782,452 587,452 587,452 C 587,452 587,310 587,310 C 587,310 804,310 804,310 C 834.47,310 859,285.47 859,255 C 859,255 859,200 859,200 C 859,200 655.15618,200 555.84375,200 C 535.93213,200 500.53868,200 495.0625,200 C 493.43513,200 477,200 477,200 z M 477,328.75 C 477,374.19188 477,397.15064 477,463.5625 L 472.375,560.53125 L 341,560.53125 L 477,328.75 z"
       id="path15906"
       sodipodi:nodetypes="cccccccccsccccsccccccsscccccc" />
  </g>
</svg>
