<?xml version="1.0" encoding="UTF-8" standalone="no"?>
<!-- Created with Inkscape (http://www.inkscape.org/) -->
<svg
   xmlns:dc="http://purl.org/dc/elements/1.1/"
   xmlns:cc="http://web.resource.org/cc/"
   xmlns:rdf="http://www.w3.org/1999/02/22-rdf-syntax-ns#"
   xmlns:svg="http://www.w3.org/2000/svg"
   xmlns="http://www.w3.org/2000/svg"
   xmlns:sodipodi="http://sodipodi.sourceforge.net/DTD/sodipodi-0.dtd"
   xmlns:inkscape="http://www.inkscape.org/namespaces/inkscape"
   width="600"
   height="200"
   id="svg2"
   sodipodi:version="0.32"
   inkscape:version="0.45+devel"
   version="1.0"
   sodipodi:docbase="/home/jimmac/gfx/novell/pdes.local/trunk/palettes"
   sodipodi:docname="openSUSE.svg"
   inkscape:output_extension="org.inkscape.output.svg.inkscape"
   inkscape:export-filename="/home/jimmac/gfx/novell/pdes.local/trunk/palettes/openSUSE.png"
   inkscape:export-xdpi="90"
   inkscape:export-ydpi="90">
  <defs
     id="defs4" />
  <sodipodi:namedview
     id="base"
     pagecolor="#ffffff"
     bordercolor="#666666"
     borderopacity="1.0"
     gridtolerance="10000"
     guidetolerance="10"
     objecttolerance="10"
     inkscape:pageopacity="0.0"
     inkscape:pageshadow="2"
     inkscape:zoom="1"
     inkscape:cx="242.67301"
     inkscape:cy="228.61261"
     inkscape:document-units="px"
     inkscape:current-layer="layer1"
     width="600px"
     height="200px"
     borderlayer="true"
     inkscape:showpageshadow="false"
     inkscape:window-width="1210"
     inkscape:window-height="1042"
     inkscape:window-x="145"
     inkscape:window-y="75" />
  <metadata
     id="metadata7">
    <rdf:RDF>
      <cc:Work
         rdf:about="">
        <dc:format>image/svg+xml</dc:format>
        <dc:type
           rdf:resource="http://purl.org/dc/dcmitype/StillImage" />
        <cc:license
           rdf:resource="http://web.resource.org/cc/PublicDomain" />
        <dc:title>openSUSE Color Palette</dc:title>
        <dc:creator>
          <cc:Agent>
            <dc:title>Jakub Steiner</dc:title>
          </cc:Agent>
        </dc:creator>
      </cc:Work>
      <cc:License
         rdf:about="http://web.resource.org/cc/PublicDomain">
        <cc:permits
           rdf:resource="http://web.resource.org/cc/Reproduction" />
        <cc:permits
           rdf:resource="http://web.resource.org/cc/Distribution" />
        <cc:permits
           rdf:resource="http://web.resource.org/cc/DerivativeWorks" />
      </cc:License>
    </rdf:RDF>
  </metadata>
  <g
     inkscape:label="Layer 1"
     inkscape:groupmode="layer"
     id="layer1">
    <path
       style="font-size:30.09381676px;font-style:normal;font-variant:normal;font-weight:bold;font-stretch:normal;text-align:start;line-height:125%;writing-mode:lr-tb;text-anchor:start;fill:#000000;fill-opacity:1;stroke:none;stroke-width:1px;stroke-linecap:butt;stroke-linejoin:miter;stroke-opacity:1;font-family:ChollaWideBold"
       d="M 47.148747,39.523975 L 47.148747,32.78296 C 47.148733,32.261345 47.04842,31.779844 46.847809,31.338456 C 46.647169,30.87703 46.376325,30.47578 46.035276,30.134704 C 45.6942,29.793654 45.292949,29.52281 44.831523,29.322171 C 44.390135,29.121559 43.908635,29.021247 43.38702,29.021233 L 38.481728,29.021233 C 37.960096,29.021247 37.468565,29.121559 37.007131,29.322171 C 36.565751,29.52281 36.174532,29.793654 35.833472,30.134704 C 35.492406,30.47578 35.221562,30.87703 35.020939,31.338456 C 34.820311,31.779844 34.719999,32.261345 34.72,32.78296 L 34.72,39.523975 C 34.719999,40.045604 34.820311,40.537136 35.020939,40.998572 C 35.221562,41.43995 35.492406,41.831169 35.833472,42.172231 C 36.174532,42.513295 36.565751,42.784139 37.007131,42.984764 C 37.468565,43.185389 37.960096,43.285702 38.481728,43.285702 L 43.38702,43.285702 C 43.908635,43.285702 44.390135,43.185389 44.831523,42.984764 C 45.292949,42.784139 45.6942,42.513295 46.035276,42.172231 C 46.376325,41.831169 46.647169,41.43995 46.847809,40.998572 C 47.04842,40.537136 47.148733,40.045604 47.148747,39.523975 M 44.049084,39.162849 C 44.049073,39.544041 43.918666,39.865041 43.657864,40.125851 C 43.397041,40.386667 43.07604,40.517073 42.694862,40.517071 L 39.173885,40.517071 C 38.792691,40.517073 38.471691,40.386667 38.210883,40.125851 C 37.950065,39.865041 37.819659,39.544041 37.819664,39.162849 L 37.819664,33.144086 C 37.819659,32.762908 37.950065,32.441907 38.210883,32.181083 C 38.471691,31.920282 38.792691,31.789875 39.173885,31.789864 L 42.694862,31.789864 C 43.07604,31.789875 43.397041,31.920282 43.657864,32.181083 C 43.918666,32.441907 44.049073,32.762908 44.049084,33.144086 L 44.049084,39.162849 M 63.224958,39.343412 L 63.224958,32.963523 C 63.224944,31.799907 62.87385,30.836905 62.171675,30.074516 C 61.489536,29.312153 60.406159,28.930966 58.921543,28.930951 L 58.470135,28.930951 C 57.968563,28.930966 57.487062,29.011216 57.025632,29.171702 C 56.584249,29.312153 56.182998,29.482685 55.821879,29.683297 C 55.460747,29.863873 55.129716,30.034404 54.828784,30.194891 C 54.547902,30.335342 54.317183,30.405561 54.136626,30.405548 C 53.935995,30.405561 53.785526,30.325311 53.685219,30.164798 L 52.872685,29.021233 L 51.849496,29.021233 C 51.448242,29.021247 51.167367,29.151653 51.006869,29.412452 C 50.846367,29.673279 50.766116,29.914029 50.766118,30.134704 L 50.766118,48.702589 C 50.766116,49.043646 50.87646,49.324522 51.09715,49.545216 C 51.337898,49.78596 51.628805,49.906335 51.969871,49.906341 L 52.662029,49.906341 C 53.003088,49.906335 53.283963,49.78596 53.504656,49.545216 C 53.745401,49.324522 53.865776,49.043646 53.865781,48.702589 L 53.865781,42.352793 C 53.865776,42.091982 53.956058,41.961575 54.136626,41.961574 C 54.317183,41.961575 54.547902,42.041825 54.828784,42.202324 C 55.109653,42.342763 55.430653,42.503263 55.791786,42.683825 C 56.172967,42.844326 56.584249,43.004826 57.025632,43.165326 C 57.487062,43.305764 57.968563,43.375983 58.470135,43.375983 L 58.921543,43.375983 C 60.406159,43.375983 61.489536,42.994795 62.171675,42.232418 C 62.87385,41.470043 63.224944,40.507042 63.224958,39.343412 M 60.125295,39.162849 C 60.125284,39.544041 59.994878,39.865041 59.734076,40.125851 C 59.473252,40.386667 59.152252,40.517073 58.771074,40.517071 L 55.220003,40.517071 C 54.838809,40.517073 54.517809,40.386667 54.257001,40.125851 C 53.996183,39.865041 53.865776,39.544041 53.865781,39.162849 L 53.865781,33.144086 C 53.865776,32.762908 53.996183,32.441907 54.257001,32.181083 C 54.517809,31.920282 54.838809,31.789875 55.220003,31.789864 L 58.771074,31.789864 C 59.152252,31.789875 59.473252,31.920282 59.734076,32.181083 C 59.994878,32.441907 60.125284,32.762908 60.125295,33.144086 L 60.125295,39.162849 M 79.09475,35.461309 L 79.09475,32.78296 C 79.09473,32.261345 78.99442,31.779844 78.79381,31.338456 C 78.59317,30.87703 78.32232,30.47578 77.98127,30.134704 C 77.6402,29.793654 77.23895,29.52281 76.77752,29.322171 C 76.33613,29.121559 75.85463,29.021247 75.33302,29.021233 L 70.397633,29.021233 C 69.876001,29.021247 69.38447,29.121559 68.923036,29.322171 C 68.481656,29.502747 68.090437,29.76356 67.749377,30.10461 C 67.408311,30.445686 67.137467,30.846937 66.936844,31.308363 C 66.736216,31.769813 66.635904,32.261345 66.635905,32.78296 L 66.635905,39.523975 C 66.635904,40.045604 66.736216,40.537136 66.936844,40.998572 C 67.137467,41.460012 67.408311,41.861263 67.749377,42.202324 C 68.090437,42.543388 68.481656,42.814232 68.923036,43.014857 C 69.38447,43.19542 69.876001,43.285702 70.397633,43.285702 L 75.81452,43.285702 C 76.15557,43.285702 76.43645,43.19542 76.65715,43.014857 C 76.89789,42.814232 77.01826,42.543388 77.01827,42.202324 L 77.01827,40.517071 L 70.969415,40.517071 C 70.628346,40.517073 70.337439,40.406729 70.096694,40.186039 C 69.855939,39.965354 69.735564,39.664416 69.735569,39.283224 L 69.735569,37.327126 L 77.22893,37.327126 C 77.75054,37.327132 78.19192,37.146569 78.55306,36.785437 C 78.91417,36.424318 79.09473,35.982943 79.09475,35.461309 M 75.99508,34.829339 L 69.735569,34.829339 L 69.735569,32.993616 C 69.735564,32.652564 69.845908,32.371688 70.066601,32.15099 C 70.307346,31.91025 70.598252,31.789875 70.939321,31.789864 L 74.79133,31.789864 C 75.13238,31.789875 75.41326,31.91025 75.63396,32.15099 C 75.8747,32.371688 75.99507,32.652564 75.99508,32.993616 L 75.99508,34.829339 M 94.49432,42.081949 L 94.49432,32.963523 C 94.4943,31.799907 94.14321,30.836905 93.44103,30.074516 C 92.75889,29.312153 91.67552,28.930966 90.1909,28.930951 L 89.73949,28.930951 C 89.23792,28.930966 88.75642,29.011216 88.29499,29.171702 C 87.85361,29.312153 87.44232,29.482685 87.06114,29.683297 C 86.67995,29.863873 86.34892,30.034404 86.06805,30.194891 C 85.78717,30.335342 85.55645,30.405561 85.37589,30.405548 C 85.19532,30.405561 85.03482,30.305248 84.89439,30.10461 L 84.14204,29.021233 L 83.11885,29.021233 C 82.7176,29.021247 82.43672,29.151653 82.27623,29.412452 C 82.11572,29.673279 82.03547,29.914029 82.03548,30.134704 L 82.03548,42.081949 C 82.03547,42.423013 82.14582,42.71392 82.36651,42.95467 C 82.60726,43.175358 82.89816,43.285702 83.23923,43.285702 L 83.93139,43.285702 C 84.27245,43.285702 84.55332,43.175358 84.77401,42.95467 C 85.01476,42.71392 85.13513,42.423013 85.13514,42.081949 L 85.13514,33.144086 C 85.13513,32.762908 85.26554,32.441907 85.52636,32.181083 C 85.78717,31.920282 86.10817,31.789875 86.48936,31.789864 L 90.04043,31.789864 C 90.42161,31.789875 90.74261,31.920282 91.00343,32.181083 C 91.26423,32.441907 91.39464,32.762908 91.39465,33.144086 L 91.39465,42.081949 C 91.39464,42.423013 91.50499,42.71392 91.72568,42.95467 C 91.96642,43.175358 92.25733,43.285702 92.59841,43.285702 L 93.29056,43.285702 C 93.63161,43.285702 93.91249,43.175358 94.13319,42.95467 C 94.37393,42.71392 94.4943,42.423013 94.49432,42.081949 M 109.7279,39.523975 L 109.7279,35.491403 C 109.72789,34.969785 109.62757,34.488285 109.42696,34.0469 C 109.22632,33.585471 108.95548,33.184221 108.61443,32.843147 C 108.27335,32.502095 107.8721,32.231251 107.41068,32.030614 C 106.96929,31.83 106.48779,31.729688 105.96617,31.729676 L 102.11416,31.729676 C 101.73297,31.729688 101.41197,31.599281 101.15116,31.338456 C 100.89034,31.077656 100.75994,30.756655 100.75994,30.375454 L 100.75994,27.065135 C 100.75994,26.683963 100.89034,26.362962 101.15116,26.102132 C 101.41197,25.841337 101.73297,25.71093 102.11416,25.710913 L 108.85518,25.710913 L 108.85518,24.025659 C 108.85517,23.684615 108.73479,23.423803 108.49405,23.24322 C 108.27335,23.042615 107.99248,22.942302 107.65143,22.942282 L 101.422,22.942282 C 100.90037,22.942302 100.40884,23.042615 99.94741,23.24322 C 99.50603,23.443865 99.11481,23.714709 98.77375,24.055753 C 98.43268,24.396835 98.16184,24.798085 97.96122,25.259506 C 97.76059,25.700899 97.66028,26.1824 97.66028,26.704009 L 97.66028,30.73658 C 97.66028,31.258218 97.76059,31.74975 97.96122,32.211177 C 98.16184,32.652564 98.43268,33.043783 98.77375,33.384836 C 99.11481,33.725909 99.50603,33.996753 99.94741,34.197369 C 100.40884,34.398003 100.90037,34.498316 101.422,34.498307 L 105.27401,34.498307 C 105.65519,34.498316 105.97619,34.628722 106.23702,34.889527 C 106.49782,35.150348 106.62823,35.471348 106.62824,35.852529 L 106.62824,39.162849 C 106.62823,39.544041 106.49782,39.865041 106.23702,40.125851 C 105.97619,40.386667 105.65519,40.517073 105.27401,40.517071 L 97.41953,40.517071 L 97.41953,42.202324 C 97.41953,42.543388 97.52987,42.814232 97.75056,43.014857 C 97.99131,43.19542 98.28221,43.285702 98.62328,43.285702 L 105.96617,43.285702 C 106.48779,43.285702 106.96929,43.185389 107.41068,42.984764 C 107.8721,42.784139 108.27335,42.513295 108.61443,42.172231 C 108.95548,41.831169 109.22632,41.43995 109.42696,40.998572 C 109.62757,40.537136 109.72789,40.045604 109.7279,39.523975 M 126.46571,42.172231 L 126.46571,24.146034 C 126.46569,23.804991 126.34531,23.524115 126.10458,23.303407 C 125.88388,23.062677 125.603,22.942302 125.26195,22.942282 L 124.56979,22.942282 C 124.22872,22.942302 123.93781,23.062677 123.69707,23.303407 C 123.47637,23.524115 123.36603,23.804991 123.36604,24.146034 L 123.36604,39.162849 C 123.36603,39.544041 123.23562,39.865041 122.97482,40.125851 C 122.714,40.386667 122.393,40.517073 122.01182,40.517071 L 117.79869,40.517071 C 117.41749,40.517073 117.09649,40.386667 116.83568,40.125851 C 116.57487,39.865041 116.44446,39.544041 116.44446,39.162849 L 116.44446,24.146034 C 116.44446,23.804991 116.32408,23.524115 116.08334,23.303407 C 115.86265,23.062677 115.58177,22.942302 115.24071,22.942282 L 114.54855,22.942282 C 114.20749,22.942302 113.91658,23.062677 113.67583,23.303407 C 113.45514,23.524115 113.3448,23.804991 113.3448,24.146034 L 113.3448,39.373506 C 113.3448,40.537136 113.68586,41.500137 114.36799,42.262512 C 115.07018,43.004826 116.16358,43.375983 117.64822,43.375983 L 118.76169,43.375983 C 119.28331,43.375983 119.76481,43.305764 120.20619,43.165326 C 120.64756,43.004826 121.05884,42.834295 121.44004,42.653732 C 121.82122,42.453107 122.15225,42.282576 122.43313,42.142137 C 122.714,41.981638 122.94472,41.901388 123.12529,41.901386 C 123.30584,41.901388 123.44628,41.981638 123.5466,42.142137 L 124.32904,43.285702 L 125.38233,43.285702 C 125.78356,43.285702 126.06444,43.155295 126.22495,42.894482 C 126.38544,42.63367 126.46569,42.392919 126.46571,42.172231 M 142.1728,39.523975 L 142.1728,35.491403 C 142.17278,34.969785 142.07247,34.488285 141.87186,34.0469 C 141.67122,33.585471 141.40037,33.184221 141.05932,32.843147 C 140.71825,32.502095 140.317,32.231251 139.85557,32.030614 C 139.41419,31.83 138.93268,31.729688 138.41107,31.729676 L 134.55906,31.729676 C 134.17787,31.729688 133.85687,31.599281 133.59606,31.338456 C 133.33524,31.077656 133.20483,30.756655 133.20484,30.375454 L 133.20484,27.065135 C 133.20483,26.683963 133.33524,26.362962 133.59606,26.102132 C 133.85687,25.841337 134.17787,25.71093 134.55906,25.710913 L 141.30007,25.710913 L 141.30007,24.025659 C 141.30006,23.684615 141.17969,23.423803 140.93895,23.24322 C 140.71825,23.042615 140.43737,22.942302 140.09632,22.942282 L 133.8669,22.942282 C 133.34527,22.942302 132.85374,23.042615 132.39231,23.24322 C 131.95093,23.443865 131.55971,23.714709 131.21865,24.055753 C 130.87758,24.396835 130.60674,24.798085 130.40611,25.259506 C 130.20549,25.700899 130.10517,26.1824 130.10518,26.704009 L 130.10518,30.73658 C 130.10517,31.258218 130.20549,31.74975 130.40611,32.211177 C 130.60674,32.652564 130.87758,33.043783 131.21865,33.384836 C 131.55971,33.725909 131.95093,33.996753 132.39231,34.197369 C 132.85374,34.398003 133.34527,34.498316 133.8669,34.498307 L 137.71891,34.498307 C 138.10009,34.498316 138.42109,34.628722 138.68191,34.889527 C 138.94272,35.150348 139.07312,35.471348 139.07313,35.852529 L 139.07313,39.162849 C 139.07312,39.544041 138.94272,39.865041 138.68191,40.125851 C 138.42109,40.386667 138.10009,40.517073 137.71891,40.517071 L 129.86442,40.517071 L 129.86442,42.202324 C 129.86442,42.543388 129.97477,42.814232 130.19546,43.014857 C 130.43621,43.19542 130.72711,43.285702 131.06818,43.285702 L 138.41107,43.285702 C 138.93268,43.285702 139.41419,43.185389 139.85557,42.984764 C 140.317,42.784139 140.71825,42.513295 141.05932,42.172231 C 141.40037,41.831169 141.67122,41.43995 141.87186,40.998572 C 142.07247,40.537136 142.17278,40.045604 142.1728,39.523975 M 157.64666,42.202324 L 157.64666,41.600448 C 157.64664,41.259387 157.5363,40.998574 157.31563,40.818009 C 157.09492,40.617386 156.81405,40.517073 156.473,40.517071 L 148.88936,40.517071 L 148.88936,34.498307 L 155.23915,34.498307 C 155.5802,34.498316 155.86108,34.408035 156.08178,34.227463 C 156.32252,34.026847 156.44289,33.756003 156.44291,33.41493 L 156.44291,32.813054 C 156.44289,32.472001 156.32252,32.211188 156.08178,32.030614 C 155.86108,31.83 155.5802,31.729688 155.23915,31.729676 L 148.88936,31.729676 L 148.88936,25.710913 L 156.05169,25.710913 C 156.39274,25.71093 156.67361,25.620649 156.89431,25.440068 C 157.13505,25.239461 157.25542,24.968617 157.25544,24.627535 L 157.25544,22.942282 L 145.78969,22.942282 L 145.78969,43.285702 L 156.473,43.285702 C 156.81405,43.285702 157.09492,43.19542 157.31563,43.014857 C 157.5363,42.814232 157.64664,42.543388 157.64666,42.202324 M 180.012,42.202324 L 180.012,40.517071 L 172.57883,40.517071 C 172.19763,40.517073 171.87663,40.386667 171.61583,40.125851 C 171.35501,39.865041 171.2246,39.544041 171.22461,39.162849 L 171.22461,27.065135 C 171.2246,26.683963 171.35501,26.362962 171.61583,26.102132 C 171.87663,25.841337 172.19763,25.71093 172.57883,25.710913 L 179.28975,25.710913 L 179.28975,24.025659 C 179.28974,23.684615 179.16936,23.423803 178.92862,23.24322 C 178.70792,23.042615 178.42705,22.942302 178.086,22.942282 L 171.88667,22.942282 C 171.36504,22.942302 170.87351,23.042615 170.41207,23.24322 C 169.97069,23.443865 169.57948,23.714709 169.23842,24.055753 C 168.89735,24.396835 168.62651,24.798085 168.42588,25.259506 C 168.22526,25.700899 168.12494,26.1824 168.12494,26.704009 L 168.12494,39.523975 C 168.12494,40.045604 168.22526,40.537136 168.42588,40.998572 C 168.62651,41.43995 168.89735,41.831169 169.23842,42.172231 C 169.57948,42.513295 169.97069,42.784139 170.41207,42.984764 C 170.87351,43.185389 171.36504,43.285702 171.88667,43.285702 L 178.80825,43.285702 C 179.1493,43.285702 179.43018,43.19542 179.65088,43.014857 C 179.89161,42.814232 180.01199,42.543388 180.012,42.202324 M 194.56144,39.523975 L 194.56144,32.78296 C 194.56142,32.261345 194.46111,31.779844 194.2605,31.338456 C 194.05986,30.87703 193.78901,30.47578 193.44796,30.134704 C 193.10689,29.793654 192.70564,29.52281 192.24421,29.322171 C 191.80282,29.121559 191.32132,29.021247 190.79971,29.021233 L 185.89442,29.021233 C 185.37279,29.021247 184.88125,29.121559 184.41982,29.322171 C 183.97844,29.52281 183.58722,29.793654 183.24616,30.134704 C 182.9051,30.47578 182.63425,30.87703 182.43363,31.338456 C 182.233,31.779844 182.13269,32.261345 182.13269,32.78296 L 182.13269,39.523975 C 182.13269,40.045604 182.233,40.537136 182.43363,40.998572 C 182.63425,41.43995 182.9051,41.831169 183.24616,42.172231 C 183.58722,42.513295 183.97844,42.784139 184.41982,42.984764 C 184.88125,43.185389 185.37279,43.285702 185.89442,43.285702 L 190.79971,43.285702 C 191.32132,43.285702 191.80282,43.185389 192.24421,42.984764 C 192.70564,42.784139 193.10689,42.513295 193.44796,42.172231 C 193.78901,41.831169 194.05986,41.43995 194.2605,40.998572 C 194.46111,40.537136 194.56142,40.045604 194.56144,39.523975 M 191.46177,39.162849 C 191.46176,39.544041 191.33136,39.865041 191.07055,40.125851 C 190.80973,40.386667 190.48873,40.517073 190.10755,40.517071 L 186.58657,40.517071 C 186.20538,40.517073 185.88438,40.386667 185.62357,40.125851 C 185.36275,39.865041 185.23235,39.544041 185.23235,39.162849 L 185.23235,33.144086 C 185.23235,32.762908 185.36275,32.441907 185.62357,32.181083 C 185.88438,31.920282 186.20538,31.789875 186.58657,31.789864 L 190.10755,31.789864 C 190.48873,31.789875 190.80973,31.920282 191.07055,32.181083 C 191.33136,32.441907 191.46176,32.762908 191.46177,33.144086 L 191.46177,39.162849 M 201.54931,43.285702 L 201.54931,24.146034 C 201.5493,23.804991 201.42893,23.524115 201.18818,23.303407 C 200.96749,23.062677 200.68662,22.942302 200.34556,22.942282 L 199.6534,22.942282 C 199.31233,22.942302 199.02143,23.062677 198.78068,23.303407 C 198.55999,23.524115 198.44964,23.804991 198.44965,24.146034 L 198.44965,42.081949 C 198.44964,42.423013 198.55999,42.71392 198.78068,42.95467 C 199.02143,43.175358 199.31233,43.285702 199.6534,43.285702 L 201.54931,43.285702 M 217.83712,39.523975 L 217.83712,32.78296 C 217.8371,32.261345 217.73679,31.779844 217.53618,31.338456 C 217.33554,30.87703 217.0647,30.47578 216.72365,30.134704 C 216.38257,29.793654 215.98132,29.52281 215.51989,29.322171 C 215.07851,29.121559 214.597,29.021247 214.07539,29.021233 L 209.1701,29.021233 C 208.64847,29.021247 208.15693,29.121559 207.6955,29.322171 C 207.25412,29.52281 206.8629,29.793654 206.52184,30.134704 C 206.18078,30.47578 205.90993,30.87703 205.70931,31.338456 C 205.50868,31.779844 205.40837,32.261345 205.40837,32.78296 L 205.40837,39.523975 C 205.40837,40.045604 205.50868,40.537136 205.70931,40.998572 C 205.90993,41.43995 206.18078,41.831169 206.52184,42.172231 C 206.8629,42.513295 207.25412,42.784139 207.6955,42.984764 C 208.15693,43.185389 208.64847,43.285702 209.1701,43.285702 L 214.07539,43.285702 C 214.597,43.285702 215.07851,43.185389 215.51989,42.984764 C 215.98132,42.784139 216.38257,42.513295 216.72365,42.172231 C 217.0647,41.831169 217.33554,41.43995 217.53618,40.998572 C 217.73679,40.537136 217.8371,40.045604 217.83712,39.523975 M 214.73745,39.162849 C 214.73744,39.544041 214.60704,39.865041 214.34623,40.125851 C 214.08541,40.386667 213.76441,40.517073 213.38323,40.517071 L 209.86226,40.517071 C 209.48106,40.517073 209.16006,40.386667 208.89925,40.125851 C 208.63843,39.865041 208.50803,39.544041 208.50803,39.162849 L 208.50803,33.144086 C 208.50803,32.762908 208.63843,32.441907 208.89925,32.181083 C 209.16006,31.920282 209.48106,31.789875 209.86226,31.789864 L 213.38323,31.789864 C 213.76441,31.789875 214.08541,31.920282 214.34623,32.181083 C 214.60704,32.441907 214.73744,32.762908 214.73745,33.144086 L 214.73745,39.162849 M 231.41554,31.789864 L 231.41554,30.10461 C 231.41552,29.76356 231.30518,29.502747 231.0845,29.322171 C 230.8638,29.121559 230.58293,29.021247 230.24188,29.021233 L 227.62371,29.021233 C 227.18233,29.021247 226.81117,29.091466 226.51024,29.231889 C 226.22936,29.372341 225.98861,29.532841 225.78799,29.71339 C 225.58736,29.893967 225.4068,30.054467 225.2463,30.194891 C 225.10586,30.335342 224.95539,30.405561 224.7949,30.405548 C 224.61433,30.405561 224.45383,30.305248 224.31339,30.10461 L 223.56105,29.021233 L 222.53786,29.021233 C 222.13661,29.021247 221.85573,29.151653 221.69523,29.412452 C 221.53473,29.673279 221.45448,29.914029 221.45448,30.134704 L 221.45448,42.081949 C 221.45448,42.423013 221.56482,42.71392 221.78551,42.95467 C 222.02626,43.175358 222.31717,43.285702 222.65823,43.285702 L 223.35039,43.285702 C 223.69145,43.285702 223.97233,43.175358 224.19302,42.95467 C 224.43377,42.71392 224.55414,42.423013 224.55415,42.081949 L 224.55415,33.083898 C 224.55414,32.70272 224.68455,32.391751 224.94537,32.15099 C 225.20617,31.91025 225.47702,31.789875 225.7579,31.789864 L 231.41554,31.789864 M 252.96836,30.766674 L 252.96836,26.884572 C 252.96834,25.720962 252.62728,24.75796 251.94517,23.995565 C 251.26303,23.233209 250.17965,22.852021 248.69503,22.852 L 248.15334,22.852 C 247.65177,22.852021 247.17027,22.932271 246.70884,23.092751 C 246.26746,23.233209 245.86621,23.40374 245.50509,23.604346 C 245.14396,23.784928 244.82296,23.955459 244.54209,24.11594 C 244.26121,24.256397 244.03049,24.326616 243.84993,24.326597 C 243.6493,24.326616 243.49883,24.246366 243.39852,24.085847 L 242.58599,22.942282 L 241.59289,22.942282 C 241.25183,22.942302 240.98098,23.052646 240.78036,23.273314 C 240.57973,23.494021 240.47942,23.774897 240.47942,24.11594 L 240.47942,42.081949 C 240.47942,42.423013 240.58976,42.71392 240.81045,42.95467 C 241.0512,43.175358 241.34211,43.285702 241.68317,43.285702 L 242.37533,43.285702 C 242.71639,43.285702 242.99727,43.175358 243.21796,42.95467 C 243.4587,42.71392 243.57908,42.423013 243.57908,42.081949 L 243.57908,34.498307 L 249.02607,34.498307 C 249.56774,34.498316 250.06931,34.398003 250.53076,34.197369 C 251.01224,33.996753 251.43356,33.725909 251.7947,33.384836 C 252.15581,33.043783 252.43668,32.652564 252.63732,32.211177 C 252.858,31.74975 252.96834,31.26825 252.96836,30.766674 M 249.86869,30.224985 C 249.86868,30.646311 249.71821,31.007437 249.41729,31.308363 C 249.11634,31.58925 248.74518,31.729688 248.30381,31.729676 L 243.57908,31.729676 L 243.57908,27.065135 C 243.57908,26.683963 243.70949,26.362962 243.9703,26.102132 C 244.23111,25.841337 244.55211,25.71093 244.93331,25.710913 L 248.66494,25.710913 C 249.04612,25.71093 249.33702,25.841337 249.53766,26.102132 C 249.75834,26.362962 249.86868,26.683963 249.86869,27.065135 L 249.86869,30.224985 M 266.49317,42.172231 L 266.49317,32.512115 C 266.49316,32.050688 266.42294,31.609313 266.28252,31.187987 C 266.14207,30.766686 265.91135,30.39553 265.59036,30.074516 C 265.28941,29.753529 264.88816,29.502747 264.38661,29.322171 C 263.90509,29.121559 263.32328,29.021247 262.64116,29.021233 L 256.71268,29.021233 C 256.39168,29.021247 256.1108,29.101497 255.87006,29.261983 C 255.64937,29.422497 255.53902,29.653216 255.53902,29.954141 L 255.53902,31.789864 L 262.21985,31.789864 C 262.5609,31.789875 262.84178,31.920282 263.06248,32.181083 C 263.28316,32.421845 263.3935,32.682658 263.39351,32.963523 L 263.39351,35.190465 C 263.3935,35.431223 263.30322,35.551599 263.12267,35.551591 C 262.94209,35.551599 262.71137,35.48138 262.43051,35.340934 C 262.14962,35.180442 261.81859,35.00991 261.43741,34.829339 C 261.07628,34.628722 260.67503,34.458191 260.23366,34.317744 C 259.79228,34.157253 259.31078,34.077003 258.78916,34.076994 L 258.33775,34.076994 C 256.85312,34.077003 255.75971,34.458191 255.05752,35.220559 C 254.37539,35.982943 254.03433,36.945944 254.03433,38.109565 L 254.03433,39.343412 C 254.03433,40.507042 254.37539,41.470043 255.05752,42.232418 C 255.75971,42.994795 256.85312,43.375983 258.33775,43.375983 L 258.78916,43.375983 C 259.31078,43.375983 259.79228,43.305764 260.23366,43.165326 C 260.67503,43.004826 261.07628,42.844326 261.43741,42.683825 C 261.81859,42.503263 262.14962,42.342763 262.43051,42.202324 C 262.71137,42.041825 262.94209,41.961575 263.12267,41.961574 C 263.22297,41.961575 263.31325,41.981638 263.39351,42.021761 C 263.49381,42.041825 263.58409,42.112044 263.66435,42.232418 L 264.38661,43.285702 L 265.4098,43.285702 C 265.81103,43.285702 266.09191,43.155295 266.25242,42.894482 C 266.41291,42.63367 266.49316,42.392919 266.49317,42.172231 M 263.39351,39.162849 C 263.3935,39.544041 263.26309,39.865041 263.00229,40.125851 C 262.74147,40.386667 262.42047,40.517073 262.03929,40.517071 L 258.48822,40.517071 C 258.10702,40.517073 257.78602,40.386667 257.52522,40.125851 C 257.2644,39.865041 257.13399,39.544041 257.134,39.162849 L 257.134,38.290128 C 257.13399,37.908945 257.2644,37.587945 257.52522,37.327126 C 257.78602,37.066319 258.10702,36.935913 258.48822,36.935906 L 262.03929,36.935906 C 262.42047,36.935913 262.74147,37.066319 263.00229,37.327126 C 263.26309,37.587945 263.3935,37.908945 263.39351,38.290128 L 263.39351,39.162849 M 273.49233,43.285702 L 273.49233,24.146034 C 273.49233,23.804991 273.37195,23.524115 273.13121,23.303407 C 272.91051,23.062677 272.62964,22.942302 272.28858,22.942282 L 271.59642,22.942282 C 271.25536,22.942302 270.96445,23.062677 270.7237,23.303407 C 270.50301,23.524115 270.39267,23.804991 270.39267,24.146034 L 270.39267,42.081949 C 270.39267,42.423013 270.50301,42.71392 270.7237,42.95467 C 270.96445,43.175358 271.25536,43.285702 271.59642,43.285702 L 273.49233,43.285702 M 289.81025,35.461309 L 289.81025,32.78296 C 289.81024,32.261345 289.70992,31.779844 289.50931,31.338456 C 289.30867,30.87703 289.03783,30.47578 288.69678,30.134704 C 288.3557,29.793654 287.95445,29.52281 287.49303,29.322171 C 287.05164,29.121559 286.57014,29.021247 286.04852,29.021233 L 281.11314,29.021233 C 280.59151,29.021247 280.09997,29.121559 279.63854,29.322171 C 279.19716,29.502747 278.80594,29.76356 278.46488,30.10461 C 278.12381,30.445686 277.85297,30.846937 277.65235,31.308363 C 277.45172,31.769813 277.35141,32.261345 277.35141,32.78296 L 277.35141,39.523975 C 277.35141,40.045604 277.45172,40.537136 277.65235,40.998572 C 277.85297,41.460012 278.12381,41.861263 278.46488,42.202324 C 278.80594,42.543388 279.19716,42.814232 279.63854,43.014857 C 280.09997,43.19542 280.59151,43.285702 281.11314,43.285702 L 286.53002,43.285702 C 286.87108,43.285702 287.15195,43.19542 287.37265,43.014857 C 287.61339,42.814232 287.73376,42.543388 287.73378,42.202324 L 287.73378,40.517071 L 281.68492,40.517071 C 281.34385,40.517073 281.05294,40.406729 280.8122,40.186039 C 280.57144,39.965354 280.45107,39.664416 280.45107,39.283224 L 280.45107,37.327126 L 287.94443,37.327126 C 288.46605,37.327132 288.90742,37.146569 289.26856,36.785437 C 289.62967,36.424318 289.81024,35.982943 289.81025,35.461309 M 286.71059,34.829339 L 280.45107,34.829339 L 280.45107,32.993616 C 280.45107,32.652564 280.56141,32.371688 280.7821,32.15099 C 281.02285,31.91025 281.31376,31.789875 281.65482,31.789864 L 285.50683,31.789864 C 285.84789,31.789875 286.12876,31.91025 286.34946,32.15099 C 286.5902,32.371688 286.71058,32.652564 286.71059,32.993616 L 286.71059,34.829339 M 301.3879,31.789864 L 301.3879,30.10461 C 301.38789,29.76356 301.26752,29.502747 301.02678,29.322171 C 300.80608,29.121559 300.5252,29.021247 300.18415,29.021233 L 297.77664,29.021233 L 297.77664,24.146034 C 297.77664,23.804991 297.65626,23.524115 297.41552,23.303407 C 297.19482,23.062677 296.91395,22.942302 296.57289,22.942282 L 295.88073,22.942282 C 295.53966,22.942302 295.24876,23.062677 295.00801,23.303407 C 294.78732,23.524115 294.67698,23.804991 294.67698,24.146034 L 294.67698,29.021233 L 292.78107,29.021233 C 292.44,29.021247 292.1491,29.121559 291.90835,29.322171 C 291.68766,29.502747 291.57732,29.76356 291.57732,30.10461 L 291.57732,30.706486 C 291.57732,31.047562 291.68766,31.318406 291.90835,31.519019 C 292.1491,31.699594 292.44,31.789875 292.78107,31.789864 L 294.67698,31.789864 L 294.67698,42.081949 C 294.67698,42.423013 294.78732,42.71392 295.00801,42.95467 C 295.24876,43.175358 295.53966,43.285702 295.88073,43.285702 L 296.57289,43.285702 C 296.91395,43.285702 297.19482,43.175358 297.41552,42.95467 C 297.65626,42.71392 297.77664,42.423013 297.77664,42.081949 L 297.77664,31.789864 L 301.3879,31.789864 M 311.67388,31.789864 L 311.67388,30.10461 C 311.67387,29.76356 311.5535,29.502747 311.31276,29.322171 C 311.09206,29.121559 310.81118,29.021247 310.47013,29.021233 L 308.06262,29.021233 L 308.06262,24.146034 C 308.06262,23.804991 307.94224,23.524115 307.7015,23.303407 C 307.4808,23.062677 307.19993,22.942302 306.85887,22.942282 L 306.16671,22.942282 C 305.82565,22.942302 305.53474,23.062677 305.29399,23.303407 C 305.0733,23.524115 304.96296,23.804991 304.96296,24.146034 L 304.96296,29.021233 L 303.06705,29.021233 C 302.72599,29.021247 302.43508,29.121559 302.19433,29.322171 C 301.97364,29.502747 301.8633,29.76356 301.8633,30.10461 L 301.8633,30.706486 C 301.8633,31.047562 301.97364,31.318406 302.19433,31.519019 C 302.43508,31.699594 302.72599,31.789875 303.06705,31.789864 L 304.96296,31.789864 L 304.96296,42.081949 C 304.96296,42.423013 305.0733,42.71392 305.29399,42.95467 C 305.53474,43.175358 305.82565,43.285702 306.16671,43.285702 L 306.85887,43.285702 C 307.19993,43.285702 307.4808,43.175358 307.7015,42.95467 C 307.94224,42.71392 308.06262,42.423013 308.06262,42.081949 L 308.06262,31.789864 L 311.67388,31.789864 M 325.78175,35.461309 L 325.78175,32.78296 C 325.78173,32.261345 325.68142,31.779844 325.48081,31.338456 C 325.28017,30.87703 325.00932,30.47578 324.66827,30.134704 C 324.3272,29.793654 323.92595,29.52281 323.46452,29.322171 C 323.02313,29.121559 322.54163,29.021247 322.02002,29.021233 L 317.08463,29.021233 C 316.563,29.021247 316.07147,29.121559 315.61004,29.322171 C 315.16866,29.502747 314.77744,29.76356 314.43638,30.10461 C 314.09531,30.445686 313.82447,30.846937 313.62384,31.308363 C 313.42322,31.769813 313.3229,32.261345 313.32291,32.78296 L 313.32291,39.523975 C 313.3229,40.045604 313.42322,40.537136 313.62384,40.998572 C 313.82447,41.460012 314.09531,41.861263 314.43638,42.202324 C 314.77744,42.543388 315.16866,42.814232 315.61004,43.014857 C 316.07147,43.19542 316.563,43.285702 317.08463,43.285702 L 322.50152,43.285702 C 322.84257,43.285702 323.12345,43.19542 323.34415,43.014857 C 323.58489,42.814232 323.70526,42.543388 323.70527,42.202324 L 323.70527,40.517071 L 317.65642,40.517071 C 317.31535,40.517073 317.02444,40.406729 316.78369,40.186039 C 316.54294,39.965354 316.42256,39.664416 316.42257,39.283224 L 316.42257,37.327126 L 323.91593,37.327126 C 324.43754,37.327132 324.87892,37.146569 325.24006,36.785437 C 325.60117,36.424318 325.78173,35.982943 325.78175,35.461309 M 322.68208,34.829339 L 316.42257,34.829339 L 316.42257,32.993616 C 316.42256,32.652564 316.53291,32.371688 316.7536,32.15099 C 316.99435,31.91025 317.28525,31.789875 317.62632,31.789864 L 321.47833,31.789864 C 321.81938,31.789875 322.10026,31.91025 322.32096,32.15099 C 322.5617,32.371688 322.68207,32.652564 322.68208,32.993616 L 322.68208,34.829339"
       id="text4560" />
    <path
       sodipodi:type="arc"
       style="opacity:1;color:#000000;fill:#fcb11c;fill-opacity:1;fill-rule:nonzero;stroke:none;stroke-width:1.28260875;stroke-linecap:round;stroke-linejoin:miter;marker:none;marker-start:none;marker-mid:none;marker-end:none;stroke-miterlimit:4;stroke-dasharray:none;stroke-dashoffset:0;stroke-opacity:1;visibility:visible;display:inline;overflow:visible;enable-background:accumulate"
       id="path4565"
       sodipodi:cx="73.5"
       sodipodi:cy="123.5"
       sodipodi:rx="29.5"
       sodipodi:ry="29.5"
       d="M 103,123.5 A 29.5,29.5 0 1 1 44,123.5 A 29.5,29.5 0 1 1 103,123.5 z"
       transform="matrix(1.0822567,0,0,1.0822567,-17.619296,-15.732133)" />
    <text
       xml:space="preserve"
       style="font-size:16.65734291px;font-style:normal;font-variant:normal;font-weight:bold;font-stretch:normal;text-align:start;line-height:125%;writing-mode:lr-tb;text-anchor:start;fill:#000000;fill-opacity:1;stroke:none;stroke-width:1px;stroke-linecap:butt;stroke-linejoin:miter;stroke-opacity:1;font-family:ChollaWideBold"
       x="35.552448"
       y="174.06995"
       id="text5144"
       sodipodi:linespacing="125%"><tspan
         sodipodi:role="line"
         id="tspan5146"
         x="35.552448"
         y="174.06995">Orange</tspan></text>
    <path
       sodipodi:type="arc"
       style="opacity:1;color:#000000;fill:#e35302;fill-opacity:1;fill-rule:nonzero;stroke:none;stroke-width:1.28260875;stroke-linecap:round;stroke-linejoin:miter;marker:none;marker-start:none;marker-mid:none;marker-end:none;stroke-miterlimit:4;stroke-dasharray:none;stroke-dashoffset:0;stroke-opacity:1;visibility:visible;display:inline;overflow:visible;enable-background:accumulate"
       id="path5166"
       sodipodi:cx="73.5"
       sodipodi:cy="123.5"
       sodipodi:rx="29.5"
       sodipodi:ry="29.5"
       d="M 103,123.5 A 29.5,29.5 0 1 1 44,123.5 L 73.5,123.5 z"
       transform="matrix(0.6523305,-0.8635649,0.8635649,0.6523305,-92.84677,100.61184)"
       sodipodi:start="0"
       sodipodi:end="3.1415927"
       inkscape:transform-center-y="3.2243454"
       inkscape:transform-center-x="-6.3400521" />
    <text
       sodipodi:linespacing="125%"
       id="text5186"
       y="173.06995"
       x="198.83916"
       style="font-size:16.65734291px;font-style:normal;font-variant:normal;font-weight:bold;font-stretch:normal;text-align:start;line-height:125%;writing-mode:lr-tb;text-anchor:start;fill:#000000;fill-opacity:1;stroke:none;stroke-width:1px;stroke-linecap:butt;stroke-linejoin:miter;stroke-opacity:1;font-family:ChollaWideBold"
       xml:space="preserve"><tspan
         y="173.06995"
         x="198.83916"
         id="tspan5188"
         sodipodi:role="line">Lemon</tspan></text>
    <text
       xml:space="preserve"
       style="font-size:16.65734291px;font-style:normal;font-variant:normal;font-weight:bold;font-stretch:normal;text-align:start;line-height:125%;writing-mode:lr-tb;text-anchor:start;fill:#000000;fill-opacity:1;stroke:none;stroke-width:1px;stroke-linecap:butt;stroke-linejoin:miter;stroke-opacity:1;font-family:ChollaWideBold"
       x="285.45453"
       y="174.06995"
       id="text5190"
       sodipodi:linespacing="125%"><tspan
         sodipodi:role="line"
         id="tspan5192"
         x="285.45453"
         y="174.06995">Plum</tspan></text>
    <text
       sodipodi:linespacing="125%"
       id="text5194"
       y="174.06995"
       x="445.74127"
       style="font-size:16.65734291px;font-style:normal;font-variant:normal;font-weight:bold;font-stretch:normal;text-align:start;line-height:125%;writing-mode:lr-tb;text-anchor:start;fill:#000000;fill-opacity:1;stroke:none;stroke-width:1px;stroke-linecap:butt;stroke-linejoin:miter;stroke-opacity:1;font-family:ChollaWideBold"
       xml:space="preserve"><tspan
         y="174.06995"
         x="445.74127"
         id="tspan5196"
         sodipodi:role="line">Dust</tspan></text>
    <text
       xml:space="preserve"
       style="font-size:16.65734291px;font-style:normal;font-variant:normal;font-weight:bold;font-stretch:normal;text-align:start;line-height:125%;writing-mode:lr-tb;text-anchor:start;fill:#000000;fill-opacity:1;stroke:none;stroke-width:1px;stroke-linecap:butt;stroke-linejoin:miter;stroke-opacity:1;font-family:ChollaWideBold"
       x="524.02795"
       y="174.06995"
       id="text5198"
       sodipodi:linespacing="125%"><tspan
         sodipodi:role="line"
         id="tspan5200"
         x="524.02795"
         y="174.06995">Blood</tspan></text>
    <text
       sodipodi:linespacing="125%"
       id="text4623"
       y="175.06995"
       x="370.45453"
       style="font-size:16.65734291px;font-style:normal;font-variant:normal;font-weight:bold;font-stretch:normal;text-align:start;line-height:125%;writing-mode:lr-tb;text-anchor:start;fill:#000000;fill-opacity:1;stroke:none;stroke-width:1px;stroke-linecap:butt;stroke-linejoin:miter;stroke-opacity:1;font-family:ChollaWideBold"
       xml:space="preserve"><tspan
         y="175.06995"
         x="370.45453"
         id="tspan4625"
         sodipodi:role="line">Sky</tspan></text>
    <text
       sodipodi:linespacing="125%"
       id="text4629"
       y="174.06995"
       x="122.55244"
       style="font-size:16.65734291px;font-style:normal;font-variant:normal;font-weight:bold;font-stretch:normal;text-align:start;line-height:125%;writing-mode:lr-tb;text-anchor:start;fill:#000000;fill-opacity:1;stroke:none;stroke-width:1px;stroke-linecap:butt;stroke-linejoin:miter;stroke-opacity:1;font-family:ChollaWideBold"
       xml:space="preserve"><tspan
         y="174.06995"
         x="122.55244"
         id="tspan4631"
         sodipodi:role="line">Butter</tspan></text>
    <path
       transform="matrix(1.0822567,0,0,1.0822567,62.380704,-15.732133)"
       d="M 103,123.5 A 29.5,29.5 0 1 1 44,123.5 A 29.5,29.5 0 1 1 103,123.5 z"
       sodipodi:ry="29.5"
       sodipodi:rx="29.5"
       sodipodi:cy="123.5"
       sodipodi:cx="73.5"
       id="path4641"
       style="opacity:1;color:#000000;fill:#ffff66;fill-opacity:1;fill-rule:nonzero;stroke:none;stroke-width:1.28260875;stroke-linecap:round;stroke-linejoin:miter;marker:none;marker-start:none;marker-mid:none;marker-end:none;stroke-miterlimit:4;stroke-dasharray:none;stroke-dashoffset:0;stroke-opacity:1;visibility:visible;display:inline;overflow:visible;enable-background:accumulate"
       sodipodi:type="arc" />
    <path
       inkscape:transform-center-x="-6.3400521"
       inkscape:transform-center-y="3.2243454"
       sodipodi:end="3.1415927"
       sodipodi:start="0"
       transform="matrix(0.6523305,-0.8635649,0.8635649,0.6523305,-12.84677,100.61184)"
       d="M 103,123.5 A 29.5,29.5 0 1 1 44,123.5 L 73.5,123.5 z"
       sodipodi:ry="29.5"
       sodipodi:rx="29.5"
       sodipodi:cy="123.5"
       sodipodi:cx="73.5"
       id="path4643"
       style="opacity:1;color:#000000;fill:#b2b247;fill-opacity:1;fill-rule:nonzero;stroke:none;stroke-width:1.28260875;stroke-linecap:round;stroke-linejoin:miter;marker:none;marker-start:none;marker-mid:none;marker-end:none;stroke-miterlimit:4;stroke-dasharray:none;stroke-dashoffset:0;stroke-opacity:1;visibility:visible;display:inline;overflow:visible;enable-background:accumulate"
       sodipodi:type="arc" />
    <path
       sodipodi:type="arc"
       style="opacity:1;color:#000000;fill:#91d007;fill-opacity:1;fill-rule:nonzero;stroke:none;stroke-width:1.28260875;stroke-linecap:round;stroke-linejoin:miter;marker:none;marker-start:none;marker-mid:none;marker-end:none;stroke-miterlimit:4;stroke-dasharray:none;stroke-dashoffset:0;stroke-opacity:1;visibility:visible;display:inline;overflow:visible;enable-background:accumulate"
       id="path4645"
       sodipodi:cx="73.5"
       sodipodi:cy="123.5"
       sodipodi:rx="29.5"
       sodipodi:ry="29.5"
       d="M 103,123.5 A 29.5,29.5 0 1 1 44,123.5 A 29.5,29.5 0 1 1 103,123.5 z"
       transform="matrix(1.0822567,0,0,1.0822567,142.3807,-15.732133)" />
    <path
       sodipodi:type="arc"
       style="opacity:1;color:#000000;fill:#217808;fill-opacity:1;fill-rule:nonzero;stroke:none;stroke-width:1.28260875;stroke-linecap:round;stroke-linejoin:miter;marker:none;marker-start:none;marker-mid:none;marker-end:none;stroke-miterlimit:4;stroke-dasharray:none;stroke-dashoffset:0;stroke-opacity:1;visibility:visible;display:inline;overflow:visible;enable-background:accumulate"
       id="path4647"
       sodipodi:cx="73.5"
       sodipodi:cy="123.5"
       sodipodi:rx="29.5"
       sodipodi:ry="29.5"
       d="M 103,123.5 A 29.5,29.5 0 1 1 44,123.5 L 73.5,123.5 z"
       transform="matrix(0.6523305,-0.8635649,0.8635649,0.6523305,67.15323,100.61184)"
       sodipodi:start="0"
       sodipodi:end="3.1415927"
       inkscape:transform-center-y="3.2243454"
       inkscape:transform-center-x="-6.3400521" />
    <path
       transform="matrix(1.0822567,0,0,1.0822567,222.3807,-15.732133)"
       d="M 103,123.5 A 29.5,29.5 0 1 1 44,123.5 A 29.5,29.5 0 1 1 103,123.5 z"
       sodipodi:ry="29.5"
       sodipodi:rx="29.5"
       sodipodi:cy="123.5"
       sodipodi:cx="73.5"
       id="path4649"
       style="opacity:1;color:#000000;fill:#d4c4ff;fill-opacity:1;fill-rule:nonzero;stroke:none;stroke-width:1.28260875;stroke-linecap:round;stroke-linejoin:miter;marker:none;marker-start:none;marker-mid:none;marker-end:none;stroke-miterlimit:4;stroke-dasharray:none;stroke-dashoffset:0;stroke-opacity:1;visibility:visible;display:inline;overflow:visible;enable-background:accumulate"
       sodipodi:type="arc" />
    <path
       inkscape:transform-center-x="-6.3400521"
       inkscape:transform-center-y="3.2243454"
       sodipodi:end="3.1415927"
       sodipodi:start="0"
       transform="matrix(0.6523305,-0.8635649,0.8635649,0.6523305,147.15323,100.61184)"
       d="M 103,123.5 A 29.5,29.5 0 1 1 44,123.5 L 73.5,123.5 z"
       sodipodi:ry="29.5"
       sodipodi:rx="29.5"
       sodipodi:cy="123.5"
       sodipodi:cx="73.5"
       id="path4651"
       style="opacity:1;color:#000000;fill:#4d4466;fill-opacity:1;fill-rule:nonzero;stroke:none;stroke-width:1.28260875;stroke-linecap:round;stroke-linejoin:miter;marker:none;marker-start:none;marker-mid:none;marker-end:none;stroke-miterlimit:4;stroke-dasharray:none;stroke-dashoffset:0;stroke-opacity:1;visibility:visible;display:inline;overflow:visible;enable-background:accumulate"
       sodipodi:type="arc" />
    <path
       sodipodi:type="arc"
       style="opacity:1;color:#000000;fill:#5080ff;fill-opacity:1;fill-rule:nonzero;stroke:none;stroke-width:1.28260875;stroke-linecap:round;stroke-linejoin:miter;marker:none;marker-start:none;marker-mid:none;marker-end:none;stroke-miterlimit:4;stroke-dasharray:none;stroke-dashoffset:0;stroke-opacity:1;visibility:visible;display:inline;overflow:visible;enable-background:accumulate"
       id="path4653"
       sodipodi:cx="73.5"
       sodipodi:cy="123.5"
       sodipodi:rx="29.5"
       sodipodi:ry="29.5"
       d="M 103,123.5 A 29.5,29.5 0 1 1 44,123.5 A 29.5,29.5 0 1 1 103,123.5 z"
       transform="matrix(1.0822567,0,0,1.0822567,302.3807,-15.732133)" />
    <path
       sodipodi:type="arc"
       style="opacity:1;color:#000000;fill:#000074;fill-opacity:1;fill-rule:nonzero;stroke:none;stroke-width:1.28260875;stroke-linecap:round;stroke-linejoin:miter;marker:none;marker-start:none;marker-mid:none;marker-end:none;stroke-miterlimit:4;stroke-dasharray:none;stroke-dashoffset:0;stroke-opacity:1;visibility:visible;display:inline;overflow:visible;enable-background:accumulate"
       id="path4655"
       sodipodi:cx="73.5"
       sodipodi:cy="123.5"
       sodipodi:rx="29.5"
       sodipodi:ry="29.5"
       d="M 103,123.5 A 29.5,29.5 0 1 1 44,123.5 L 73.5,123.5 z"
       transform="matrix(0.6523305,-0.8635649,0.8635649,0.6523305,227.15323,100.61184)"
       sodipodi:start="0"
       sodipodi:end="3.1415927"
       inkscape:transform-center-y="3.2243454"
       inkscape:transform-center-x="-6.3400521" />
    <path
       transform="matrix(1.0822567,0,0,1.0822567,382.3807,-15.732133)"
       d="M 103,123.5 A 29.5,29.5 0 1 1 44,123.5 A 29.5,29.5 0 1 1 103,123.5 z"
       sodipodi:ry="29.5"
       sodipodi:rx="29.5"
       sodipodi:cy="123.5"
       sodipodi:cx="73.5"
       id="path4657"
       style="opacity:1;color:#000000;fill:#babdb6;fill-opacity:1;fill-rule:nonzero;stroke:none;stroke-width:1.28260875;stroke-linecap:round;stroke-linejoin:miter;marker:none;marker-start:none;marker-mid:none;marker-end:none;stroke-miterlimit:4;stroke-dasharray:none;stroke-dashoffset:0;stroke-opacity:1;visibility:visible;display:inline;overflow:visible;enable-background:accumulate"
       sodipodi:type="arc" />
    <path
       inkscape:transform-center-x="-6.3400521"
       inkscape:transform-center-y="3.2243454"
       sodipodi:end="3.1415927"
       sodipodi:start="0"
       transform="matrix(0.6523305,-0.8635649,0.8635649,0.6523305,307.15323,100.61184)"
       d="M 103,123.5 A 29.5,29.5 0 1 1 44,123.5 L 73.5,123.5 z"
       sodipodi:ry="29.5"
       sodipodi:rx="29.5"
       sodipodi:cy="123.5"
       sodipodi:cx="73.5"
       id="path4659"
       style="opacity:1;color:#000000;fill:#2e3436;fill-opacity:1;fill-rule:nonzero;stroke:none;stroke-width:1.28260875;stroke-linecap:round;stroke-linejoin:miter;marker:none;marker-start:none;marker-mid:none;marker-end:none;stroke-miterlimit:4;stroke-dasharray:none;stroke-dashoffset:0;stroke-opacity:1;visibility:visible;display:inline;overflow:visible;enable-background:accumulate"
       sodipodi:type="arc" />
    <path
       sodipodi:type="arc"
       style="opacity:1;color:#000000;fill:#ff4d4d;fill-opacity:1;fill-rule:nonzero;stroke:none;stroke-width:1.28260875;stroke-linecap:round;stroke-linejoin:miter;marker:none;marker-start:none;marker-mid:none;marker-end:none;stroke-miterlimit:4;stroke-dasharray:none;stroke-dashoffset:0;stroke-opacity:1;visibility:visible;display:inline;overflow:visible;enable-background:accumulate"
       id="path4661"
       sodipodi:cx="73.5"
       sodipodi:cy="123.5"
       sodipodi:rx="29.5"
       sodipodi:ry="29.5"
       d="M 103,123.5 A 29.5,29.5 0 1 1 44,123.5 A 29.5,29.5 0 1 1 103,123.5 z"
       transform="matrix(1.0822567,0,0,1.0822567,462.3807,-15.732133)" />
    <path
       sodipodi:type="arc"
       style="opacity:1;color:#000000;fill:#8c0000;fill-opacity:1;fill-rule:nonzero;stroke:none;stroke-width:1.28260875;stroke-linecap:round;stroke-linejoin:miter;marker:none;marker-start:none;marker-mid:none;marker-end:none;stroke-miterlimit:4;stroke-dasharray:none;stroke-dashoffset:0;stroke-opacity:1;visibility:visible;display:inline;overflow:visible;enable-background:accumulate"
       id="path4663"
       sodipodi:cx="73.5"
       sodipodi:cy="123.5"
       sodipodi:rx="29.5"
       sodipodi:ry="29.5"
       d="M 103,123.5 A 29.5,29.5 0 1 1 44,123.5 L 73.5,123.5 z"
       transform="matrix(0.6523305,-0.8635649,0.8635649,0.6523305,387.15323,100.61184)"
       sodipodi:start="0"
       sodipodi:end="3.1415927"
       inkscape:transform-center-y="3.2243454"
       inkscape:transform-center-x="-6.3400521" />
  </g>
</svg>
