<?xml version="1.0" encoding="UTF-8" standalone="no"?>
<svg
   xmlns:ooo="http://xml.openoffice.org/svg/export"
   xmlns:dc="http://purl.org/dc/elements/1.1/"
   xmlns:cc="http://creativecommons.org/ns#"
   xmlns:rdf="http://www.w3.org/1999/02/22-rdf-syntax-ns#"
   xmlns:svg="http://www.w3.org/2000/svg"
   xmlns="http://www.w3.org/2000/svg"
   xmlns:xlink="http://www.w3.org/1999/xlink"
   version="1.2"
   width="500"
   height="128"
   viewBox="0 0 500 128"
   preserveAspectRatio="xMidYMid"
   xml:space="preserve"
   id="svg4042"
   style="fill-rule:evenodd;stroke-width:28.22200012;stroke-linejoin:round"><metadata
   id="metadata4046"><rdf:RDF><cc:Work
       rdf:about=""><dc:format>image/svg+xml</dc:format><dc:type
         rdf:resource="http://purl.org/dc/dcmitype/StillImage" /><dc:title></dc:title></cc:Work></rdf:RDF></metadata>
 <defs
   class="ClipPathGroup"
   id="defs8">
  <clipPath
   id="presentation_clip_path"
   clipPathUnits="userSpaceOnUse">
   <rect
   x="0"
   y="0"
   width="21431"
   height="3528"
   id="rect2" />
  </clipPath>
  <clipPath
   id="presentation_clip_path_shrink"
   clipPathUnits="userSpaceOnUse">
   <rect
   x="21"
   y="3"
   width="21389"
   height="3521"
   id="rect5" />
  </clipPath>
 <linearGradient
   id="lG5-3"
   y2="150"
   x2="125"
   y1="0"
   x1="125"
   gradientUnits="userSpaceOnUse"
   spreadMethod="pad"><stop
     offset="0"
     style="stop-color:#43c330;stop-opacity:1"
     id="stop990" /><stop
     offset="1"
     style="stop-color:#18a303;stop-opacity:1"
     id="stop992" /></linearGradient><linearGradient
   id="linearGradient986"
   y2="150"
   x2="125"
   y1="0"
   x1="125"
   gradientUnits="userSpaceOnUse"
   spreadMethod="pad"><stop
     offset="0"
     style="stop-color:#43c330;stop-opacity:1"
     id="stop982" /><stop
     offset="1"
     style="stop-color:#43c330"
     id="stop984" /></linearGradient><linearGradient
   x1="16"
   y1="140"
   x2="28"
   y2="152"
   id="lG1"><stop
     id="stop2"
     style="stop-color:#000000;stop-opacity:0.2"
     offset="0" /><stop
     id="stop4"
     style="stop-color:#000000;stop-opacity:0"
     offset="1" /></linearGradient><linearGradient
   xlink:href="#lG3"
   x1="500"
   y1="0"
   x2="500"
   y2="152"
   id="lG2"
   gradientTransform="matrix(0.03779527,0,0,0.03779527,-150.36415,-64.384078)"><stop
     id="stop7"
     style="stop-color:#c254d2"
     offset="0" /><stop
     id="stop9"
     style="stop-color:#8e03a3"
     offset="1" /></linearGradient><linearGradient
   gradientUnits="userSpaceOnUse"
   gradientTransform="scale(1.3078709,0.76460147)"
   xlink:href="#lG1"
   x1="305.84058"
   y1="0"
   x2="305.84058"
   y2="196.18063"
   id="lG3"><stop
     id="stop12"
     style="stop-color:#d36118"
     offset="0" /><stop
     id="stop14"
     style="stop-color:#a33e03"
     offset="1" /></linearGradient><linearGradient
   xlink:href="#lG5"
   x1="280"
   y1="0"
   x2="280"
   y2="150"
   id="lG4"
   gradientTransform="matrix(0.03779527,0,0,0.03779527,-150.36415,-64.384078)"><stop
     id="stop17"
     style="stop-color:#e9b913"
     offset="0" /><stop
     id="stop19"
     style="stop-color:#c99c00"
     offset="1" /></linearGradient><linearGradient
   xlink:href="#linearGradient986"
   spreadMethod="pad"
   gradientUnits="userSpaceOnUse"
   x1="125"
   y1="0"
   x2="125"
   y2="150"
   id="lG5"><stop
     id="stop22"
     style="stop-color:#18a303"
     offset="0" /><stop
     id="stop24"
     style="stop-color:#43c330"
     offset="1" /></linearGradient><linearGradient
   gradientUnits="userSpaceOnUse"
   gradientTransform="matrix(0.03973473,0,0,0.03595047,-150.36415,-64.384078)"
   x1="0"
   y1="0"
   x2="0"
   y2="159.79988"
   id="lG6"><stop
     id="stop27"
     style="stop-color:#1c99e0"
     offset="0" /><stop
     id="stop29"
     style="stop-color:#0369a3"
     offset="1" /></linearGradient><linearGradient
   gradientUnits="userSpaceOnUse"
   gradientTransform="matrix(0.04291842,0,0,0.03328367,-150.36415,-64.384078)"
   y2="79.488495"
   x2="101.27252"
   y1="68.132996"
   x1="88.063065"
   id="linearGradient931"
   xlink:href="#lG1" /><linearGradient
   gradientUnits="userSpaceOnUse"
   gradientTransform="matrix(0.04291842,0,0,0.03328367,-150.36415,-64.384078)"
   y2="85.166245"
   x2="202.54504"
   y1="73.810745"
   x1="189.33559"
   id="linearGradient937"
   xlink:href="#lG1" /><linearGradient
   gradientUnits="userSpaceOnUse"
   gradientTransform="matrix(0.04291842,0,0,0.03328367,-150.36415,-64.384078)"
   y2="90.843994"
   x2="303.81757"
   y1="79.488495"
   x1="290.60809"
   id="linearGradient939"
   xlink:href="#lG1" /><linearGradient
   gradientUnits="userSpaceOnUse"
   gradientTransform="matrix(0.03968255,0,0,0.03599774,-150.36415,-64.384078)"
   y2="98.693832"
   x2="424.78845"
   y1="89.244423"
   x1="414.31158"
   id="linearGradient943"
   xlink:href="#lG1" /><linearGradient
   spreadMethod="pad"
   y2="150"
   x2="130"
   y1="0"
   x1="130"
   gradientUnits="userSpaceOnUse"
   id="linearGradient988"
   xlink:href="#lG5-3"
   gradientTransform="matrix(0.03779527,0,0,0.03779527,-150.36415,-64.384078)" /><linearGradient
   xlink:href="#lG3"
   id="linearGradient5014"
   gradientUnits="userSpaceOnUse"
   gradientTransform="matrix(0.04943133,0,0,0.02889832,-150.36415,-64.384078)"
   x1="305.84058"
   y1="0"
   x2="305.84058"
   y2="196.18063" /><linearGradient
   xlink:href="#lG5"
   x1="280"
   y1="0"
   x2="280"
   y2="150"
   id="lG4-5"
   gradientTransform="translate(-104.44502,-116.0635)"><stop
     id="stop17-3"
     style="stop-color:#e9b913"
     offset="0" /><stop
     id="stop19-5"
     style="stop-color:#c99c00"
     offset="1" /></linearGradient></defs>
 <defs
   class="TextShapeIndex"
   id="defs12">
  <g
   ooo:slide="id1"
   ooo:id-list="id3 id4 id5 id6 id7 id8 id9 id10 id11 id12 id13 id14 id15 id16 id17 id18 id19 id20 id21 id22 id23 id24 id25 id26 id27 id28 id29 id30 id31 id32 id33 id34 id35 id36 id37 id38 id39 id40 id41 id42 id43 id44 id45 id46 id47 id48 id49 id50 id51 id52 id53 id54 id55 id56 id57 id58 id59 id60 id61 id62 id63 id64 id65 id66 id67 id68 id69 id70 id71 id72 id73 id74 id75 id76 id77 id78 id79 id80 id81 id82 id83 id84 id85 id86 id87 id88 id89 id90 id91 id92 id93 id94 id95 id96 id97 id98 id99 id100 id101 id102 id103 id104 id105 id106 id107 id108 id109 id110 id111 id112 id113 id114 id115 id116 id117 id118 id119 id120 id121 id122 id123 id124 id125 id126 id127 id128 id129 id130 id131 id132 id133 id134 id135 id136 id137 id138 id139 id140 id141 id142 id143 id144 id145 id146 id147 id148 id149 id150 id151 id152 id153 id154 id155 id156 id157 id158 id159 id160 id161 id162 id163 id164 id165 id166 id167 id168 id169 id170 id171 id172 id173 id174 id175 id176 id177 id178 id179 id180 id181 id182 id183 id184 id185 id186 id187 id188 id189 id190 id191 id192 id193 id194 id195 id196 id197 id198 id199 id200 id201 id202 id203 id204 id205 id206 id207 id208 id209 id210 id211 id212 id213 id214 id215 id216 id217 id218 id219 id220 id221 id222 id223 id224 id225 id226 id227 id228 id229 id230 id231 id232 id233 id234 id235 id236 id237 id238 id239 id240 id241 id242 id243 id244 id245 id246 id247 id248 id249 id250 id251 id252 id253 id254 id255 id256 id257 id258 id259 id260 id261 id262 id263 id264 id265 id266 id267 id268 id269 id270 id271 id272 id273 id274 id275 id276 id277 id278 id279 id280 id281 id282 id283 id284 id285 id286 id287 id288 id289 id290 id291 id292 id293 id294 id295 id296 id297 id298 id299 id300 id301 id302 id303 id304 id305 id306 id307 id308 id309 id310 id311 id312 id313 id314 id315 id316 id317 id318 id319 id320 id321 id322 id323 id324 id325 id326 id327 id328 id329 id330 id331 id332 id333 id334 id335 id336 id337 id338 id339 id340 id341 id342 id343 id344 id345 id346 id347 id348 id349 id350 id351 id352 id353 id354 id355 id356 id357 id358 id359 id360 id361 id362 id363 id364 id365 id366 id367 id368 id369 id370 id371 id372 id373 id374 id375 id376 id377 id378 id379 id380 id381 id382 id383 id384 id385 id386 id387 id388 id389 id390 id391 id392 id393 id394 id395 id396 id397 id398 id399 id400 id401 id402 id403 id404 id405 id406 id407 id408 id409 id410 id411 id412 id413 id414 id415 id416 id417 id418 id419 id420 id421 id422 id423 id424 id425 id426 id427 id428 id429 id430 id431 id432 id433 id434 id435 id436 id437 id438 id439 id440 id441 id442 id443 id444 id445 id446 id447 id448 id449 id450 id451 id452 id453 id454 id455 id456 id457 id458 id459 id460 id461 id462 id463 id464 id465 id466 id467 id468 id469 id470 id471 id472 id473 id474 id475 id476 id477 id478 id479 id480 id481 id482 id483 id484 id485 id486 id487 id488 id489 id490 id491 id492 id493 id494 id495 id496 id497 id498 id499 id500 id501 id502 id503 id504 id505 id506 id507 id508 id509 id510 id511 id512 id513 id514 id515 id516 id517 id518 id519 id520 id521 id522 id523 id524 id525 id526 id527 id528 id529 id530 id531 id532 id533 id534 id535 id536 id537 id538 id539 id540 id541 id542 id543 id544 id545 id546 id547 id548 id549 id550 id551 id552 id553 id554 id555 id556 id557 id558 id559 id560 id561 id562 id563 id564 id565 id566 id567 id568 id569 id570 id571 id572 id573 id574 id575 id576 id577 id578 id579 id580 id581 id582 id583 id584 id585 id586 id587 id588 id589 id590 id591 id592 id593 id594 id595 id596 id597 id598 id599 id600 id601 id602 id603 id604 id605 id606 id607 id608 id609 id610 id611 id612 id613 id614 id615 id616 id617 id618 id619 id620 id621 id622 id623 id624 id625 id626 id627 id628 id629 id630 id631 id632 id633 id634 id635 id636 id637 id638 id639 id640 id641 id642 id643 id644 id645 id646 id647 id648 id649 id650 id651 id652 id653 id654 id655 id656 id657 id658 id659 id660 id661 id662 id663 id664 id665 id666 id667 id668 id669"
   id="g10" />
 </defs>
 <defs
   class="EmbeddedBulletChars"
   id="defs44">
  <g
   id="bullet-char-template-57356"
   transform="matrix(4.8828125e-4,0,0,-4.8828125e-4,0,0)">
   <path
   d="M 580,1141 1163,571 580,0 -4,571 Z"
   id="path14" />
  </g>
  <g
   id="bullet-char-template-57354"
   transform="matrix(4.8828125e-4,0,0,-4.8828125e-4,0,0)">
   <path
   d="M 8,1128 H 1137 V 0 H 8 Z"
   id="path17" />
  </g>
  <g
   id="bullet-char-template-10146"
   transform="matrix(4.8828125e-4,0,0,-4.8828125e-4,0,0)">
   <path
   d="M 174,0 602,739 174,1481 1456,739 Z M 1358,739 309,1346 659,739 Z"
   id="path20" />
  </g>
  <g
   id="bullet-char-template-10132"
   transform="matrix(4.8828125e-4,0,0,-4.8828125e-4,0,0)">
   <path
   d="M 2015,739 1276,0 H 717 l 543,543 H 174 v 393 h 1086 l -543,545 h 557 z"
   id="path23" />
  </g>
  <g
   id="bullet-char-template-10007"
   transform="matrix(4.8828125e-4,0,0,-4.8828125e-4,0,0)">
   <path
   d="m 0,-2 c -7,16 -16,29 -25,39 l 381,530 c -94,256 -141,385 -141,387 0,25 13,38 40,38 9,0 21,-2 34,-5 21,4 42,12 65,25 l 27,-13 111,-251 280,301 64,-25 24,25 c 21,-10 41,-24 62,-43 C 886,937 835,863 770,784 769,783 710,716 594,584 L 774,223 c 0,-27 -21,-55 -63,-84 l 16,-20 C 717,90 699,76 672,76 641,76 570,178 457,381 L 164,-76 c -22,-34 -53,-51 -92,-51 -42,0 -63,17 -64,51 -7,9 -10,24 -10,44 0,9 1,19 2,30 z"
   id="path26" />
  </g>
  <g
   id="bullet-char-template-10004"
   transform="matrix(4.8828125e-4,0,0,-4.8828125e-4,0,0)">
   <path
   d="M 285,-33 C 182,-33 111,30 74,156 52,228 41,333 41,471 c 0,78 14,145 41,201 34,71 87,106 158,106 53,0 88,-31 106,-94 l 23,-176 c 8,-64 28,-97 59,-98 l 735,706 c 11,11 33,17 66,17 42,0 63,-15 63,-46 V 965 c 0,-36 -10,-64 -30,-84 L 442,47 C 390,-6 338,-33 285,-33 Z"
   id="path29" />
  </g>
  <g
   id="bullet-char-template-9679"
   transform="matrix(4.8828125e-4,0,0,-4.8828125e-4,0,0)">
   <path
   d="M 813,0 C 632,0 489,54 383,161 276,268 223,411 223,592 c 0,181 53,324 160,431 106,107 249,161 430,161 179,0 323,-54 432,-161 108,-107 162,-251 162,-431 0,-180 -54,-324 -162,-431 C 1136,54 992,0 813,0 Z"
   id="path32" />
  </g>
  <g
   id="bullet-char-template-8226"
   transform="matrix(4.8828125e-4,0,0,-4.8828125e-4,0,0)">
   <path
   d="m 346,457 c -73,0 -137,26 -191,78 -54,51 -81,114 -81,188 0,73 27,136 81,188 54,52 118,78 191,78 73,0 134,-26 185,-79 51,-51 77,-114 77,-187 0,-75 -25,-137 -76,-188 -50,-52 -112,-78 -186,-78 z"
   id="path35" />
  </g>
  <g
   id="bullet-char-template-8211"
   transform="matrix(4.8828125e-4,0,0,-4.8828125e-4,0,0)">
   <path
   d="M -4,459 H 1135 V 606 H -4 Z"
   id="path38" />
  </g>
  <g
   id="bullet-char-template-61548"
   transform="matrix(4.8828125e-4,0,0,-4.8828125e-4,0,0)">
   <path
   d="m 173,740 c 0,163 58,303 173,419 116,115 255,173 419,173 163,0 302,-58 418,-173 116,-116 174,-256 174,-419 0,-163 -58,-303 -174,-418 C 1067,206 928,148 765,148 601,148 462,206 346,322 231,437 173,577 173,740 Z"
   id="path41" />
  </g>
 </defs>
 <defs
   class="TextEmbeddedBitmaps"
   id="defs46" />
 <g
   id="g51"
   transform="translate(0,-141.33303)">
  <g
   id="id2"
   class="Master_Slide">
   <g
   id="bg-id2"
   class="Background" />
   <g
   id="bo-id2"
   class="BackgroundObjects" />
  </g>
 </g>
 
<g
   id="g5012"
   transform="matrix(26.458335,0,0,26.458335,3978.385,1691.4955)"><path
     style="fill:url(#lG2);fill-opacity:1;stroke-width:1.06665826"
     d="m -135.44498,-63.930535 -5.347,4.837795 h 9.32547 v -4.837795 z"
     id="path34" /><path
     style="fill:url(#linearGradient5014);fill-opacity:1;stroke-width:1.06665826"
     d="m -139.98042,-63.930535 -5.34699,4.837795 h 9.06953 l 4.79137,-4.346456 v -0.491339 z"
     id="path36" /><path
     style="fill:url(#lG4);fill-opacity:1;stroke-width:1.06665826"
     d="m -144.51585,-63.930535 -5.347,4.837795 h 9.07087 l 5.347,-4.837795 z"
     id="path38-3" /><path
     style="fill:url(#linearGradient988);fill-opacity:1;stroke-width:1.06665826"
     d="m -150.36415,-63.930535 v 4.837795 h 5.03674 l 5.34699,-4.837795 z"
     id="path40" /><path
     style="fill:url(#lG6);stroke-width:1.06665826"
     d="m -150.36415,-63.930535 v 4.837795 h 0.5013 l 5.347,-4.837795 z"
     id="path42" /><path
     style="fill:url(#linearGradient931);fill-opacity:1;stroke-width:1.06665826"
     d="m -144.51585,-63.930535 -5.347,4.837795 h 1.05827 l 5.347,-4.837795 z"
     id="path46" /><path
     style="fill:url(#linearGradient937);fill-opacity:1;stroke-width:1.06665826"
     d="m -139.98042,-63.930535 -5.34699,4.837795 h 1.05826 l 5.347,-4.837795 z"
     id="path48" /><path
     style="fill:url(#linearGradient939);fill-opacity:1;stroke-width:1.06665826"
     d="m -135.44498,-63.930535 -5.347,4.837795 h 1.05827 l 5.347,-4.837795 z"
     id="path50" /><path
     style="fill:url(#linearGradient943);fill-opacity:1;stroke-width:1.06665826"
     d="m -131.46651,-63.439196 -4.79137,4.346456 h 1.04676 l 3.74461,-3.477165 z"
     id="path52" /><path
     id="path54"
     d="m -148.51218,-62.94786 c -0.0824,0 -0.15118,0.06873 -0.15118,0.151174 v 2.57008 c 0,0.08245 0.0687,0.151177 0.15118,0.151188 h 2.11653 c 0.0824,8e-6 0.1509,-0.06853 0.15118,-0.150667 v -1.625714 l -1.09606,-1.096061 z m 1.39842,0 0.86929,0.869291 v -0.71811 c 0,-0.08245 -0.0687,-0.151181 -0.15118,-0.151181 z m -1.39842,0.151174 1.10868,2.27e-4 1.01383,1.013901 -0.006,1.555884 v 0 c -0.6993,4.53e-4 -1.4123,0 -2.11653,0 z"
     style="fill:#ffffff;stroke-width:1.06665826" /><path
     id="path56"
     d="m -145.09133,-62.891965 v 1.734871 h 1.11869 v -0.263557 h -0.77722 v -1.471314 h -0.34147"
     style="fill:#ffffff;stroke-width:1.06665826" /><path
     id="path58"
     d="m -143.76626,-61.157094 h 0.34147 v -1.248695 h -0.34147 v 1.248695 m 0.17073,-1.356166 c 0.10703,0 0.19622,-0.087 0.19622,-0.19703 0,-0.107467 -0.0892,-0.197027 -0.19622,-0.197027 -0.10958,0 -0.19622,0.08956 -0.19622,0.197027 0,0.110029 0.0866,0.19703 0.19622,0.19703"
     style="fill:#ffffff;stroke-width:1.06665826" /><path
     id="path60"
     d="m -142.83015,-62.259941 h -0.005 v -0.739491 h -0.34147 v 1.842338 h 0.33382 l 0.008,-0.145855 h 0.005 c 0.10703,0.120268 0.21406,0.171443 0.38989,0.171443 0.33128,0 0.55043,-0.29938 0.55043,-0.672968 0,-0.36079 -0.19622,-0.626906 -0.53514,-0.626906 -0.18093,0 -0.28796,0.05374 -0.40518,0.171439 m -0.005,0.450354 c 0,-0.214938 0.0968,-0.358232 0.28031,-0.358232 0.20386,0 0.30579,0.145849 0.30579,0.383815 0,0.235412 -0.0994,0.38894 -0.3007,0.38894 -0.17583,0 -0.2854,-0.138176 -0.2854,-0.358231 v -0.05629"
     style="fill:#ffffff;stroke-width:1.06665826" /><path
     id="path62"
     d="m -140.97358,-62.43138 c -0.16309,0.01024 -0.31854,0.110029 -0.38989,0.248205 h -0.005 l -0.008,-0.222614 h -0.33382 v 1.248695 h 0.34147 v -0.470823 c 0,-0.25076 0.0459,-0.34032 0.12486,-0.396612 0.0688,-0.04862 0.15035,-0.06909 0.26248,-0.07421 l 0.008,-0.332644"
     style="fill:#ffffff;stroke-width:1.06665826" /><path
     id="path64"
     d="m -139.7172,-61.855649 c 0,-0.309615 -0.18857,-0.575731 -0.51475,-0.575731 -0.39244,0 -0.64472,0.271238 -0.64472,0.683202 0,0.401734 0.25993,0.616672 0.64472,0.616672 0.18092,0 0.30834,-0.02815 0.42811,-0.08188 l -0.0357,-0.255877 c -0.11212,0.04606 -0.2268,0.0742 -0.34911,0.0742 -0.20641,0 -0.33893,-0.09467 -0.35167,-0.289145 h 0.80781 c 0.0102,-0.04606 0.0153,-0.117702 0.0153,-0.17144 m -0.55043,-0.31217 c 0.1478,0 0.2166,0.120261 0.2217,0.248202 h -0.48163 c 0.0255,-0.143293 0.12487,-0.248202 0.25993,-0.248202"
     style="fill:#ffffff;stroke-width:1.06665826" /><path
     id="path66"
     d="m -138.68056,-62.917548 c -0.4587,0 -0.83584,0.335202 -0.83584,0.893019 0,0.557817 0.37714,0.893023 0.83584,0.893023 0.45869,0 0.83583,-0.335206 0.83583,-0.893023 0,-0.557817 -0.37714,-0.893019 -0.83583,-0.893019 m 0,0.173994 c 0.34146,0 0.60139,0.255882 0.60139,0.719025 0,0.463143 -0.25993,0.719025 -0.60139,0.719025 -0.34147,0 -0.6014,-0.255882 -0.6014,-0.719025 0,-0.463143 0.25993,-0.719025 0.6014,-0.719025"
     style="fill:#ffffff;stroke-width:1.06665826" /><path
     id="path68"
     d="m -137.51837,-62.474879 v 0.07933 h -0.20131 v 0.163763 h 0.20131 v 1.074697 h 0.21406 v -1.074697 h 0.31598 v -0.163763 h -0.31598 v -0.112588 c 0,-0.222614 0.0943,-0.353114 0.26502,-0.353114 0.079,0 0.12996,0.01279 0.17838,0.0307 l 0.0204,-0.158642 c -0.0459,-0.01792 -0.13251,-0.03583 -0.20131,-0.03583 -0.30325,0 -0.47653,0.197027 -0.47653,0.55014"
     style="fill:#ffffff;stroke-width:1.06665826" /><path
     id="path70"
     d="m -136.80674,-62.474879 v 0.07933 h -0.20131 v 0.163763 h 0.20131 v 1.074697 h 0.21406 v -1.074697 h 0.31599 v -0.163763 h -0.31599 v -0.112588 c 0,-0.222614 0.0943,-0.353114 0.26502,-0.353114 0.079,0 0.12996,0.01279 0.17838,0.0307 l 0.0204,-0.158642 c -0.0459,-0.01792 -0.13251,-0.03583 -0.20132,-0.03583 -0.30324,0 -0.47653,0.197027 -0.47653,0.55014"
     style="fill:#ffffff;stroke-width:1.06665826" /><path
     id="path72"
     d="m -136.02876,-61.157094 h 0.21406 v -1.23846 h -0.21406 v 1.23846 m 0.10703,-1.420134 c 0.0739,0 0.13251,-0.05885 0.13251,-0.133062 0,-0.0742 -0.0586,-0.133055 -0.13251,-0.133055 -0.0739,0 -0.13251,0.05885 -0.13251,0.133055 0,0.07421 0.0586,0.133062 0.13251,0.133062"
     style="fill:#ffffff;stroke-width:1.06665826" /><path
     id="path74"
     d="m -135.36961,-61.781441 c 0,-0.312174 0.18602,-0.475937 0.42811,-0.475937 0.12742,0 0.23954,0.0307 0.33128,0.0742 l 0.0204,-0.163763 c -0.0764,-0.03838 -0.19876,-0.0742 -0.33382,-0.0742 -0.38224,0 -0.6702,0.232849 -0.6702,0.667846 0,0.409406 0.25993,0.621789 0.60394,0.621789 0.1529,0 0.26248,-0.01791 0.38734,-0.07164 l -0.0204,-0.163767 c -0.10703,0.04862 -0.2217,0.07164 -0.32873,0.07164 -0.24718,0 -0.41792,-0.156083 -0.41792,-0.486168"
     style="fill:#ffffff;stroke-width:1.06665826" /><path
     id="path76"
     d="m -133.38244,-61.727708 c 0.005,-0.04606 0.008,-0.08444 0.008,-0.122823 0,-0.317288 -0.16564,-0.57061 -0.48417,-0.57061 -0.34402,0 -0.5963,0.286586 -0.5963,0.667846 0,0.419645 0.25228,0.621789 0.5963,0.621789 0.15289,0 0.26757,-0.02303 0.38734,-0.07164 l -0.0204,-0.163767 c -0.0943,0.04606 -0.22935,0.07164 -0.33637,0.07164 -0.24719,0 -0.40773,-0.15097 -0.41283,-0.432435 h 0.85878 m -0.49437,-0.52967 c 0.18857,0 0.2905,0.156087 0.2905,0.36079 h -0.64471 c 0.0306,-0.217497 0.15035,-0.36079 0.35421,-0.36079"
     style="fill:#ffffff;stroke-width:1.06665826" /><path
     id="path78"
     d="m -144.58011,-60.726798 h -0.51123 v 0.07345 h 0.21093 v 0.658928 h 0.0873 v -0.658928 h 0.21301 v -0.07345"
     style="fill:#ffffff;stroke-width:1.06665826" /><path
     id="path80"
     d="m -144.41168,-60.43082 v -0.341346 h -0.0873 v 0.777749 h 0.0873 v -0.287335 c 0,-0.108019 0.0634,-0.172833 0.14132,-0.172833 0.0811,0 0.10079,0.04753 0.10079,0.147989 v 0.312179 h 0.0873 v -0.340267 c 0,-0.127462 -0.0561,-0.193354 -0.16313,-0.193354 -0.0748,0 -0.12885,0.04321 -0.16418,0.09722 h -0.002"
     style="fill:#ffffff;stroke-width:1.06665826" /><path
     id="path82-6"
     d="m -143.52759,-60.235305 c 0.002,-0.01944 0.003,-0.03565 0.003,-0.05185 0,-0.133942 -0.0675,-0.240883 -0.19743,-0.240883 -0.14028,0 -0.24315,0.120983 -0.24315,0.281932 0,0.177153 0.10287,0.262491 0.24315,0.262491 0.0623,0 0.1091,-0.0097 0.15794,-0.03025 l -0.008,-0.06913 c -0.0384,0.01944 -0.0935,0.03025 -0.13716,0.03025 -0.10079,0 -0.16626,-0.06373 -0.16834,-0.182556 h 0.35018 m -0.20159,-0.2236 c 0.0769,0 0.11846,0.06589 0.11846,0.152309 h -0.26289 c 0.0125,-0.09182 0.0613,-0.152309 0.14443,-0.152309"
     style="fill:#ffffff;stroke-width:1.06665826" /><path
     id="path84"
     d="m -143.1656,-60.717075 v 0.716176 c 0.0509,0.0076 0.12573,0.01188 0.18184,0.01188 0.21301,0 0.41356,-0.128544 0.41356,-0.394276 0,-0.233322 -0.15379,-0.348903 -0.41148,-0.348903 -0.0571,0 -0.12365,0.0043 -0.18392,0.01512 m 0.0873,0.06481 c 0.0322,-0.0054 0.0675,-0.0065 0.10599,-0.0065 0.19847,0 0.30653,0.110182 0.30653,0.286256 0,0.208478 -0.13924,0.310016 -0.30757,0.310016 -0.0322,0 -0.0686,-0.0011 -0.10495,-0.0043 v -0.58547"
     style="fill:#ffffff;stroke-width:1.06665826" /><path
     id="path86"
     d="m -142.24549,-60.528038 c -0.1517,0 -0.2421,0.118821 -0.2421,0.272209 0,0.153392 0.0904,0.272214 0.2421,0.272214 0.15171,0 0.24211,-0.118822 0.24211,-0.272214 0,-0.153388 -0.0904,-0.272209 -0.24211,-0.272209 m 0,0.475289 c -0.10495,0 -0.15066,-0.09398 -0.15066,-0.20308 0,-0.109098 0.0457,-0.203076 0.15066,-0.203076 0.10495,0 0.15067,0.09398 0.15067,0.203076 0,0.109103 -0.0457,0.20308 -0.15067,0.20308"
     style="fill:#ffffff;stroke-width:1.06665826" /><path
     id="path88"
     d="m -141.82587,-60.257987 c 0,-0.131784 0.0759,-0.200918 0.17456,-0.200918 0.052,0 0.0977,0.01296 0.13508,0.03133 l 0.008,-0.06913 c -0.0312,-0.0162 -0.081,-0.03133 -0.13612,-0.03133 -0.15587,0 -0.27328,0.0983 -0.27328,0.281932 0,0.172833 0.10598,0.262491 0.24626,0.262491 0.0624,0 0.10703,-0.0076 0.15794,-0.03025 l -0.008,-0.06913 c -0.0436,0.02052 -0.0904,0.03025 -0.13404,0.03025 -0.10079,0 -0.17041,-0.06589 -0.17041,-0.205238"
     style="fill:#ffffff;stroke-width:1.06665826" /><path
     id="path90"
     d="m -141.07374,-60.080834 0.003,0.08642 h 0.0842 v -0.522819 h -0.0873 v 0.287334 c 0,0.10802 -0.0634,0.172833 -0.14131,0.172833 -0.0811,0 -0.10079,-0.04753 -0.10079,-0.147989 v -0.312178 h -0.0873 v 0.340263 c 0,0.127465 0.0561,0.193358 0.16314,0.193358 0.0748,0 0.12885,-0.04321 0.16418,-0.09722 h 0.002"
     style="fill:#ffffff;stroke-width:1.06665826" /><path
     id="path92"
     d="m -140.21459,-60.317401 v 0.322984 h 0.0873 v -0.351069 c 0,-0.11666 -0.052,-0.182552 -0.1517,-0.182552 -0.0717,0 -0.12885,0.04753 -0.1621,0.117742 h -0.003 c -0.0197,-0.07346 -0.0613,-0.117742 -0.14131,-0.117742 -0.0717,0 -0.11742,0.03997 -0.15275,0.09722 h -0.002 l -0.003,-0.08642 h -0.0842 v 0.522819 h 0.0873 v -0.26573 c 0,-0.117742 0.0499,-0.194436 0.12781,-0.194436 0.0655,0 0.0914,0.04753 0.0914,0.137184 v 0.322984 h 0.0873 v -0.265732 c 0,-0.119904 0.0499,-0.194436 0.12781,-0.194436 0.0655,0 0.0914,0.04753 0.0914,0.137184"
     style="fill:#ffffff;stroke-width:1.06665826" /><path
     id="path94-7"
     d="m -139.57419,-60.235305 c 0.002,-0.01944 0.003,-0.03565 0.003,-0.05185 0,-0.133942 -0.0675,-0.240883 -0.19742,-0.240883 -0.14028,0 -0.24315,0.120983 -0.24315,0.281932 0,0.177153 0.10287,0.262491 0.24315,0.262491 0.0623,0 0.1091,-0.0097 0.15794,-0.03025 l -0.008,-0.06913 c -0.0384,0.01944 -0.0935,0.03025 -0.13716,0.03025 -0.10079,0 -0.16625,-0.06373 -0.16833,-0.182556 h 0.35018 m -0.20159,-0.2236 c 0.0769,0 0.11846,0.06589 0.11846,0.152309 H -139.92 c 0.0125,-0.09182 0.0613,-0.152309 0.14443,-0.152309"
     style="fill:#ffffff;stroke-width:1.06665826" /><path
     id="path96"
     d="m -139.36033,-60.43082 -0.003,-0.08642 h -0.0842 v 0.522819 h 0.0873 v -0.287335 c 0,-0.108019 0.0634,-0.172833 0.14132,-0.172833 0.0811,0 0.10079,0.04753 0.10079,0.147989 v 0.312179 h 0.0873 v -0.340267 c 0,-0.127462 -0.0561,-0.193354 -0.16313,-0.193354 -0.0748,0 -0.12885,0.04321 -0.16418,0.09722 h -0.002"
     style="fill:#ffffff;stroke-width:1.06665826" /><path
     id="path98"
     d="m -138.64146,-60.517236 h -0.12053 v -0.115585 h -0.0873 v 0.115585 h -0.08 v 0.06913 h 0.08 v 0.325142 c 0,0.09506 0.0499,0.139346 0.13093,0.139346 0.0426,0 0.0707,-0.0043 0.0925,-0.01404 l -0.009,-0.06589 c -0.0177,0.0076 -0.0364,0.0108 -0.0561,0.0108 -0.0509,0 -0.0707,-0.03025 -0.0707,-0.0929 v -0.302456 h 0.12053 v -0.06913"
     style="fill:#ffffff;stroke-width:1.06665826" /><path
     id="path100"
     d="m -138.19135,-59.994417 v -0.330545 h 0.2525 v -0.07345 h -0.2525 v -0.25493 h 0.28782 v -0.07345 h -0.37511 v 0.732381 h 0.0873"
     style="fill:#ffffff;stroke-width:1.06665826" /><path
     id="path102"
     d="m -137.58785,-60.528038 c -0.15171,0 -0.24211,0.118821 -0.24211,0.272209 0,0.153392 0.0904,0.272214 0.24211,0.272214 0.1517,0 0.2421,-0.118822 0.2421,-0.272214 0,-0.153388 -0.0904,-0.272209 -0.2421,-0.272209 m 0,0.475289 c -0.10495,0 -0.15067,-0.09398 -0.15067,-0.20308 0,-0.109098 0.0457,-0.203076 0.15067,-0.203076 0.10494,0 0.15066,0.09398 0.15066,0.203076 0,0.109103 -0.0457,0.20308 -0.15066,0.20308"
     style="fill:#ffffff;stroke-width:1.06665826" /><path
     id="path104"
     d="m -136.89912,-60.080834 0.003,0.08642 h 0.0842 v -0.522819 h -0.0873 v 0.287334 c 0,0.10802 -0.0634,0.172833 -0.14131,0.172833 -0.0811,0 -0.10079,-0.04753 -0.10079,-0.147989 v -0.312178 h -0.0873 v 0.340263 c 0,0.127465 0.0561,0.193358 0.16314,0.193358 0.0748,0 0.12885,-0.04321 0.16418,-0.09722 h 0.002"
     style="fill:#ffffff;stroke-width:1.06665826" /><path
     id="path106-5"
     d="m -136.56575,-60.43082 -0.003,-0.08642 h -0.0842 v 0.522819 h 0.0873 v -0.287335 c 0,-0.108019 0.0634,-0.172833 0.14132,-0.172833 0.0811,0 0.10079,0.04753 0.10079,0.147989 v 0.312179 h 0.0873 v -0.340267 c 0,-0.127462 -0.0561,-0.193354 -0.16314,-0.193354 -0.0748,0 -0.12884,0.04321 -0.16417,0.09722 h -0.002"
     style="fill:#ffffff;stroke-width:1.06665826" /><path
     id="path108"
     d="m -135.7305,-60.436223 c -0.0374,-0.06373 -0.0914,-0.09182 -0.1621,-0.09182 -0.13508,0 -0.22652,0.116659 -0.22652,0.281932 0,0.157711 0.0821,0.262491 0.22029,0.262491 0.0727,0 0.12884,-0.03457 0.16833,-0.09182 h 0.002 l 0.003,0.08102 h 0.0842 v -0.777749 h -0.0873 v 0.335943 h -0.002 m 0.002,0.21172 c 0,0.09074 -0.054,0.171754 -0.14339,0.171754 -0.1008,0 -0.15587,-0.0821 -0.15587,-0.201997 0,-0.123145 0.053,-0.204159 0.15379,-0.204159 0.08,0 0.14547,0.07129 0.14547,0.17175 v 0.06265"
     style="fill:#ffffff;stroke-width:1.06665826" /><path
     id="path110"
     d="m -135.30741,-60.528038 c -0.0509,0 -0.10183,0.0086 -0.15586,0.03024 l 0.008,0.06913 c 0.0509,-0.02052 0.0925,-0.03024 0.13508,-0.03024 0.0769,0 0.1091,0.04645 0.1091,0.119901 v 0.01512 c -0.0239,-0.0043 -0.0468,-0.0065 -0.0831,-0.0065 -0.12781,0 -0.22445,0.06589 -0.22445,0.180394 0,0.106941 0.0759,0.166352 0.15691,0.166352 0.0665,0 0.12157,-0.03565 0.14859,-0.09182 h 0.002 l 0.003,0.08102 h 0.0842 v -0.35431 c 0,-0.117742 -0.0675,-0.179311 -0.18392,-0.179311 m 0.0966,0.308938 c 0,0.1037 -0.0509,0.166351 -0.12469,0.166351 -0.053,0 -0.0894,-0.03997 -0.0894,-0.1037 0,-0.06913 0.0426,-0.114501 0.14444,-0.114501 0.026,0 0.0488,0.0032 0.0696,0.0065 v 0.04537"
     style="fill:#ffffff;stroke-width:1.06665826" /><path
     id="path112"
     d="m -134.73473,-60.517236 h -0.12053 v -0.115585 h -0.0873 v 0.115585 h -0.08 v 0.06913 h 0.08 v 0.325142 c 0,0.09506 0.0499,0.139346 0.13093,0.139346 0.0426,0 0.0707,-0.0043 0.0925,-0.01404 l -0.009,-0.06589 c -0.0177,0.0076 -0.0364,0.0108 -0.0561,0.0108 -0.0509,0 -0.0707,-0.03025 -0.0707,-0.0929 v -0.302456 h 0.12053 v -0.06913"
     style="fill:#ffffff;stroke-width:1.06665826" /><path
     id="path114"
     d="m -134.60733,-59.994417 h 0.0873 v -0.522819 h -0.0873 v 0.522819 m 0.0436,-0.599513 c 0.0301,0 0.054,-0.02485 0.054,-0.05617 0,-0.03133 -0.0239,-0.05617 -0.054,-0.05617 -0.0301,0 -0.054,0.02484 -0.054,0.05617 0,0.03133 0.0239,0.05617 0.054,0.05617"
     style="fill:#ffffff;stroke-width:1.06665826" /><path
     id="path116"
     d="m -134.15602,-60.528038 c -0.15171,0 -0.24211,0.118821 -0.24211,0.272209 0,0.153392 0.0904,0.272214 0.24211,0.272214 0.15171,0 0.24211,-0.118822 0.24211,-0.272214 0,-0.153388 -0.0904,-0.272209 -0.24211,-0.272209 m 0,0.475289 c -0.10495,0 -0.15067,-0.09398 -0.15067,-0.20308 0,-0.109098 0.0457,-0.203076 0.15067,-0.203076 0.10495,0 0.15067,0.09398 0.15067,0.203076 0,0.109103 -0.0457,0.20308 -0.15067,0.20308"
     style="fill:#ffffff;stroke-width:1.06665826" /><path
     id="path118-3"
     d="m -133.7042,-60.43082 -0.003,-0.08642 h -0.0842 v 0.522819 h 0.0873 v -0.287335 c 0,-0.108019 0.0634,-0.172833 0.14132,-0.172833 0.0811,0 0.10079,0.04753 0.10079,0.147989 v 0.312179 h 0.0873 v -0.340267 c 0,-0.127462 -0.0561,-0.193354 -0.16313,-0.193354 -0.0748,0 -0.12885,0.04321 -0.16418,0.09722 h -0.002"
     style="fill:#ffffff;stroke-width:1.06665826" /></g></svg>