<?xml version="1.0" encoding="UTF-8" standalone="no"?>
<svg
   xmlns:dc="http://purl.org/dc/elements/1.1/"
   xmlns:cc="http://creativecommons.org/ns#"
   xmlns:rdf="http://www.w3.org/1999/02/22-rdf-syntax-ns#"
   xmlns:svg="http://www.w3.org/2000/svg"
   xmlns="http://www.w3.org/2000/svg"
   xmlns:xlink="http://www.w3.org/1999/xlink"
   width="500"
   height="200"
   version="1.1"
   id="svg120">
  <metadata
     id="metadata124">
    <rdf:RDF>
      <cc:Work
         rdf:about="">
        <dc:format>image/svg+xml</dc:format>
        <dc:type
           rdf:resource="http://purl.org/dc/dcmitype/StillImage" />
        <dc:title></dc:title>
      </cc:Work>
    </rdf:RDF>
  </metadata>
  <defs
     id="defs32">
    <linearGradient
       spreadMethod="pad"
       gradientUnits="userSpaceOnUse"
       x1="125"
       y1="0"
       x2="125"
       y2="150"
       id="lG5-3">
      <stop
         id="stop990"
         style="stop-color:#43c330;stop-opacity:1"
         offset="0" />
      <stop
         id="stop992"
         style="stop-color:#18a303;stop-opacity:1"
         offset="1" />
    </linearGradient>
    <linearGradient
       spreadMethod="pad"
       gradientUnits="userSpaceOnUse"
       x1="125"
       y1="0"
       x2="125"
       y2="150"
       id="linearGradient986">
      <stop
         id="stop982"
         style="stop-color:#43c330;stop-opacity:1"
         offset="0" />
      <stop
         id="stop984"
         style="stop-color:#43c330"
         offset="1" />
    </linearGradient>
    <linearGradient
       id="lG1"
       y2="152"
       x2="28"
       y1="140"
       x1="16">
      <stop
         offset="0"
         style="stop-color:#000000;stop-opacity:0.2"
         id="stop2" />
      <stop
         offset="1"
         style="stop-color:#000000;stop-opacity:0"
         id="stop4" />
    </linearGradient>
    <linearGradient
       id="lG2"
       y2="152"
       x2="500"
       y1="0"
       x1="500"
       xlink:href="#lG3">
      <stop
         offset="0"
         style="stop-color:#c254d2"
         id="stop7" />
      <stop
         offset="1"
         style="stop-color:#8e03a3"
         id="stop9" />
    </linearGradient>
    <linearGradient
       id="lG3"
       y2="196.18063"
       x2="305.84058"
       y1="0"
       x1="305.84058"
       xlink:href="#lG1"
       gradientTransform="scale(1.3078709,0.76460147)"
       gradientUnits="userSpaceOnUse">
      <stop
         offset="0"
         style="stop-color:#d36118"
         id="stop12" />
      <stop
         offset="1"
         style="stop-color:#a33e03"
         id="stop14" />
    </linearGradient>
    <linearGradient
       id="lG4"
       y2="150"
       x2="280"
       y1="0"
       x1="280"
       xlink:href="#lG5">
      <stop
         offset="0"
         style="stop-color:#e9b913"
         id="stop17" />
      <stop
         offset="1"
         style="stop-color:#c99c00"
         id="stop19" />
    </linearGradient>
    <linearGradient
       id="lG5"
       y2="150"
       x2="125"
       y1="0"
       x1="125"
       gradientUnits="userSpaceOnUse"
       spreadMethod="pad"
       xlink:href="#linearGradient986">
      <stop
         offset="0"
         style="stop-color:#18a303"
         id="stop22" />
      <stop
         offset="1"
         style="stop-color:#43c330"
         id="stop24" />
    </linearGradient>
    <linearGradient
       id="lG6"
       y2="159.79988"
       x2="0"
       y1="0"
       x1="0"
       gradientTransform="scale(1.051315,0.95118973)"
       gradientUnits="userSpaceOnUse">
      <stop
         offset="0"
         style="stop-color:#1c99e0"
         id="stop27" />
      <stop
         offset="1"
         style="stop-color:#0369a3"
         id="stop29" />
    </linearGradient>
    <linearGradient
       xlink:href="#lG1"
       id="linearGradient931"
       x1="88.063065"
       y1="68.132996"
       x2="101.27252"
       y2="79.488495"
       gradientTransform="scale(1.1355499,0.88063057)"
       gradientUnits="userSpaceOnUse" />
    <linearGradient
       xlink:href="#lG1"
       id="linearGradient937"
       x1="189.33559"
       y1="73.810745"
       x2="202.54504"
       y2="85.166245"
       gradientTransform="scale(1.1355499,0.88063057)"
       gradientUnits="userSpaceOnUse" />
    <linearGradient
       xlink:href="#lG1"
       id="linearGradient939"
       x1="290.60809"
       y1="79.488495"
       x2="303.81757"
       y2="90.843994"
       gradientTransform="scale(1.1355499,0.88063057)"
       gradientUnits="userSpaceOnUse" />
    <linearGradient
       xlink:href="#lG1"
       id="linearGradient943"
       x1="414.31158"
       y1="89.244423"
       x2="424.78845"
       y2="98.693832"
       gradientTransform="scale(1.0499344,0.95244047)"
       gradientUnits="userSpaceOnUse" />
    <linearGradient
       xlink:href="#lG5-3"
       id="linearGradient988"
       gradientUnits="userSpaceOnUse"
       x1="130"
       y1="0"
       x2="130"
       y2="150"
       spreadMethod="pad" />
  </defs>
  <rect
     y="0"
     x="0"
     height="200"
     width="500"
     id="rect930"
     style="opacity:1;fill:#000000;fill-opacity:1;stroke:none;stroke-width:2;stroke-linecap:round;stroke-linejoin:round;stroke-miterlimit:4;stroke-dasharray:none;stroke-opacity:1" />
  <path
     d="M 500,0 H 408 L 240,152 h 120 140 z"
     id="path34"
     style="fill:url(#lG2);fill-opacity:1" />
  <path
     d="M 288,0 120.00001,152 360,152 500,25 499.99999,-5.0000008e-6 Z"
     id="path36"
     style="fill:url(#lG3);fill-opacity:1" />
  <path
     d="M 168,0 0,152 H 240 L 408,0 Z"
     id="path38"
     style="fill:url(#lG4);fill-opacity:1" />
  <path
     d="M 0,0 V 152 H 120 L 288,0 Z"
     id="path40"
     style="fill:url(#linearGradient988);fill-opacity:1" />
  <path
     d="M 0,0 V 152 L 168,0 Z"
     fill="url(#lG6)"
     id="path42"
     style="fill:url(#lG6)" />
  <rect
     fill="#173f4f"
     y="152"
     x="0"
     height="48"
     width="500"
     id="rect44" />
  <path
     d="M 0,152 H 28 L 196,0 h -28 z"
     fill="url(#lG1)"
     id="path46"
     style="fill-opacity:1;fill:url(#linearGradient931)" />
  <path
     d="m 120,152 h 28 L 316,0 h -28 z"
     fill="url(#lG1)"
     id="path48"
     style="fill-opacity:1;fill:url(#linearGradient937)" />
  <path
     d="m 240,152 h 28 L 436,0 h -28 z"
     fill="url(#lG1)"
     id="path50"
     style="fill-opacity:1;fill:url(#linearGradient939)" />
  <path
     d="m 360,152 h 28 L 500,48 V 25 Z"
     fill="url(#lG1)"
     id="path52"
     style="fill-opacity:1;fill:url(#linearGradient943)" />
  <path
     style="fill:#ffffff;stroke-width:0.99999702"
     d="m 49,38.000488 c -2.181408,0 -4,1.818389 -4,3.999786 v 67.999636 c 0,2.18139 1.818592,3.99987 4,4.00017 h 56 c 2.18075,2e-4 3.99235,-1.81318 4,-3.98637 V 67.000265 L 80,38.000488 Z m 37,0 23,22.999863 V 42.000464 c 0,-2.181397 -1.81859,-3.999976 -4,-3.999976 z m -37,3.999786 29.33399,0.006 26.82421,26.82598 L 105,109.99811 v 0 c -18.502535,0.012 -37.367186,0 -56,0 z"
     id="path54" />
  <path
     style="fill:#ffffff;stroke-width:0.99999702"
     d="m 139.50992,39.479379 v 45.901526 h 29.59884 V 78.407647 H 148.54464 V 39.479379 h -9.03472"
     id="path56" />
  <path
     style="fill:#ffffff;stroke-width:0.99999702"
     d="m 174.56907,85.380905 h 9.03473 V 52.342702 h -9.03473 v 33.038203 m 4.51736,-35.881686 c 2.83178,0 5.1916,-2.301886 5.1916,-5.213069 0,-2.843383 -2.35982,-5.212969 -5.1916,-5.212969 -2.89921,0 -5.1916,2.369586 -5.1916,5.212969 0,2.911183 2.29239,5.213069 5.1916,5.213069"
     id="path58" />
  <path
     style="fill:#ffffff;stroke-width:0.99999702"
     d="m 199.33716,56.201579 h -0.13485 V 36.635996 h -9.03472 v 48.744909 h 8.83246 l 0.20226,-3.859077 h 0.13485 c 2.83178,3.182081 5.66357,4.536073 10.31577,4.536073 8.76503,0 14.56345,-7.921053 14.56345,-17.805494 0,-9.545843 -5.19161,-16.586801 -14.1589,-16.586801 -4.78706,0 -7.61885,1.421792 -10.72032,4.535973 m -0.13485,11.915529 c 0,-5.686866 2.5621,-9.478143 7.41657,-9.478143 5.39387,0 8.09081,3.858877 8.09081,10.155039 0,6.228563 -2.62952,10.290639 -7.95596,10.290639 -4.6522,0 -7.55142,-3.655878 -7.55142,-9.478144 v -1.489391"
     id="path60" />
  <path
     style="fill:#ffffff;stroke-width:0.99999702"
     d="m 248.45885,51.665606 c -4.3151,0.270899 -8.42793,2.911183 -10.31578,6.567061 h -0.13484 l -0.20227,-5.889965 h -8.83246 v 33.038203 h 9.03473 V 72.92378 c 0,-6.634661 1.21362,-9.004247 3.30374,-10.493638 1.82043,-1.286292 3.97798,-1.827889 6.94461,-1.963388 l 0.20227,-8.801148"
     id="path62" />
  <path
     style="fill:#ffffff;stroke-width:0.99999702"
     d="m 281.70055,66.898415 c 0,-8.191851 -4.98934,-15.232809 -13.61952,-15.232809 -10.38318,0 -17.05811,7.176458 -17.05811,18.076292 0,10.629137 6.8772,16.316003 17.05811,16.316003 4.78706,0 8.15824,-0.744795 11.32712,-2.166487 l -0.94392,-6.77006 c -2.96662,1.218593 -6.00068,1.963289 -9.237,1.963289 -5.46128,0 -8.96731,-2.504885 -9.30442,-7.650255 h 21.3732 c 0.2697,-1.218592 0.40454,-3.114181 0.40454,-4.535973 m -14.56344,-8.25945 c 3.91055,0 5.73099,3.181881 5.86583,6.566961 h -12.74302 c 0.67423,-3.791278 3.30375,-6.566961 6.87719,-6.566961"
     id="path64" />
  <path
     style="fill:#ffffff;stroke-width:0.99999702"
     d="m 309.12821,38.802483 c -12.13619,0 -22.11485,8.868847 -22.11485,23.627659 0,14.758812 9.97866,23.627759 22.11485,23.627759 12.1362,0 22.11486,-8.868947 22.11486,-23.627759 0,-14.758812 -9.97866,-23.627659 -22.11486,-23.627659 m 0,4.603573 c 9.03472,0 15.91191,6.770159 15.91191,19.024086 0,12.253927 -6.87719,19.024087 -15.91191,19.024087 -9.03471,0 -15.91191,-6.77016 -15.91191,-19.024087 0,-12.253927 6.8772,-19.024086 15.91191,-19.024086"
     id="path66" />
  <path
     style="fill:#ffffff;stroke-width:0.99999702"
     d="m 339.87798,50.514713 v 2.098788 h -5.32645 v 4.332874 h 5.32645 v 28.43453 h 5.66355 v -28.43453 h 8.3605 v -4.332874 h -8.3605 v -2.978883 c 0,-5.889964 2.49467,-9.342744 7.01203,-9.342744 2.09012,0 3.43859,0.338498 4.71964,0.812395 l 0.53938,-4.197375 C 356.59896,36.432897 354.30657,35.959 352.48614,35.959 c -8.02337,0 -12.60816,5.212969 -12.60816,14.555713"
     id="path68" />
  <path
     style="fill:#ffffff;stroke-width:0.99999702"
     d="m 358.7066,50.514713 v 2.098788 h -5.32645 v 4.332874 h 5.32645 v 28.43453 h 5.66355 v -28.43453 h 8.3605 v -4.332874 h -8.3605 v -2.978883 c 0,-5.889964 2.49467,-9.342744 7.01204,-9.342744 2.09011,0 3.43858,0.338498 4.71963,0.812395 l 0.53939,-4.197375 C 375.42759,36.432897 373.13518,35.959 371.31476,35.959 c -8.02337,0 -12.60816,5.212969 -12.60816,14.555713"
     id="path70" />
  <path
     style="fill:#ffffff;stroke-width:0.99999702"
     d="m 379.29066,85.380905 h 5.66356 V 52.613501 h -5.66356 v 32.767404 m 2.83178,-37.574176 c 1.95528,0 3.50601,-1.55709 3.50601,-3.520579 0,-1.963288 -1.55073,-3.520379 -3.50601,-3.520379 -1.95528,0 -3.50601,1.557091 -3.50601,3.520379 0,1.963489 1.55073,3.520579 3.50601,3.520579"
     id="path72" />
  <path
     style="fill:#ffffff;stroke-width:0.99999702"
     d="m 396.73057,68.861804 c 0,-8.259551 4.9219,-12.592425 11.32712,-12.592425 3.37116,0 6.3378,0.812395 8.76503,1.963288 l 0.53939,-4.332874 c -2.0227,-1.015494 -5.25903,-1.963288 -8.83246,-1.963288 -10.1135,0 -17.73234,6.160763 -17.73234,17.669994 0,10.832136 6.87719,16.451402 15.97933,16.451402 4.0454,0 6.9446,-0.473897 10.24835,-1.895589 l -0.53938,-4.332974 c -2.83179,1.286393 -5.86584,1.895589 -8.69761,1.895589 -6.54006,0 -11.05743,-4.129675 -11.05743,-12.863123"
     id="path74" />
  <path
     style="fill:#ffffff;stroke-width:0.99999702"
     d="m 449.30765,70.283495 c 0.13484,-1.218592 0.20227,-2.234186 0.20227,-3.24968 0,-8.39485 -4.38252,-15.09731 -12.81043,-15.09731 -9.10215,0 -15.77707,7.582554 -15.77707,17.669994 0,11.103034 6.67492,16.451402 15.77707,16.451402 4.04539,0 7.07945,-0.609396 10.24834,-1.895589 l -0.53938,-4.332974 c -2.49466,1.218693 -6.06811,1.895589 -8.89989,1.895589 -6.54006,0 -10.78773,-3.994376 -10.92257,-11.441432 h 22.72166 M 436.22752,56.269379 c 4.98933,0 7.68626,4.129775 7.68626,9.545843 h -17.0581 c 0.80907,-5.754566 3.97798,-9.545843 9.37184,-9.545843"
     id="path76" />
  <path
     style="fill:#ffffff;stroke-width:0.99999702"
     d="m 153.03612,96.765747 h -13.52635 v 1.943429 h 5.58099 V 116.1432 h 2.30938 V 98.709176 h 5.63598 v -1.943429"
     id="path78" />
  <path
     style="fill:#ffffff;stroke-width:0.99999702"
     d="m 157.49248,104.59679 v -9.031406 h -2.30937 V 116.1432 h 2.30937 v -7.60234 c 0,-2.85801 1.67705,-4.57286 3.73899,-4.57286 2.14441,0 2.66678,1.25757 2.66678,3.91553 v 8.25967 h 2.30937 v -9.00284 c 0,-3.37239 -1.4846,-5.11578 -4.31633,-5.11578 -1.97946,0 -3.40907,1.14315 -4.34382,2.57221 h -0.055"
     id="path80" />
  <path
     style="fill:#ffffff;stroke-width:0.99999702"
     d="m 180.88392,109.76976 c 0.055,-0.51438 0.0825,-0.94311 0.0825,-1.37185 0,-3.54388 -1.78702,-6.37333 -5.22359,-6.37333 -3.71149,0 -6.43326,3.20099 -6.43326,7.45939 0,4.68715 2.72177,6.94503 6.43326,6.94503 1.64955,0 2.88672,-0.25725 4.17887,-0.80028 l -0.21994,-1.82913 c -1.01722,0.51447 -2.47433,0.80026 -3.62902,0.80026 -2.66677,0 -4.3988,-1.68619 -4.4538,-4.83009 h 9.265 m -5.33356,-5.91604 c 2.03445,0 3.13416,1.74338 3.13416,4.02981 h -6.95562 c 0.32991,-2.42937 1.62206,-4.02981 3.82146,-4.02981"
     id="path82" />
  <path
     style="fill:#ffffff;stroke-width:0.99999702"
     d="m 190.46163,97.022986 v 18.948724 c 1.34714,0.20004 3.3266,0.31434 4.8112,0.31434 5.63597,0 10.94204,-3.40104 10.94204,-10.43181 0,-6.17329 -4.0689,-9.231342 -10.88705,-9.231342 -1.51209,0 -3.27162,0.114299 -4.86619,0.400088 m 2.30938,1.71484 c 0.85227,-0.14294 1.78702,-0.171489 2.80424,-0.171489 5.25107,0 8.1103,2.915203 8.1103,7.573793 0,5.51597 -3.684,8.20248 -8.13779,8.20248 -0.85227,0 -1.81451,-0.0285 -2.77675,-0.1143 V 98.737826"
     id="path84" />
  <path
     style="fill:#ffffff;stroke-width:0.99999702"
     d="m 214.8063,102.02458 c -4.01392,0 -6.40577,3.14379 -6.40577,7.20215 0,4.05847 2.39185,7.20227 6.40577,7.20227 4.0139,0 6.40576,-3.1438 6.40576,-7.20227 0,-4.05836 -2.39186,-7.20215 -6.40576,-7.20215 m 0,12.57527 c -2.77675,0 -3.98642,-2.48646 -3.98642,-5.37312 0,-2.88655 1.20967,-5.37301 3.98642,-5.37301 2.77674,0 3.98641,2.48646 3.98641,5.37301 0,2.88666 -1.20967,5.37312 -3.98641,5.37312"
     id="path86" />
  <path
     style="fill:#ffffff;stroke-width:0.99999702"
     d="m 225.90856,109.16963 c 0,-3.48678 2.00695,-5.31591 4.61875,-5.31591 1.37463,0 2.58429,0.34288 3.57403,0.82881 l 0.21994,-1.82914 c -0.82478,-0.42874 -2.14442,-0.82881 -3.60152,-0.82881 -4.12388,0 -7.23055,2.60075 -7.23055,7.45939 0,4.57285 2.80425,6.94503 6.51573,6.94503 1.64956,0 2.83174,-0.20005 4.17888,-0.80028 l -0.21994,-1.82913 c -1.15469,0.54302 -2.39186,0.80026 -3.54655,0.80026 -2.66676,0 -4.50877,-1.74339 -4.50877,-5.43022"
     id="path88" />
  <path
     style="fill:#ffffff;stroke-width:0.99999702"
     d="m 245.80887,113.85678 0.0825,2.28642 h 2.22689 v -13.83284 h -2.30938 v 7.60235 c 0,2.858 -1.67704,4.57285 -3.73898,4.57285 -2.14442,0 -2.66678,-1.25756 -2.66678,-3.91553 v -8.25967 h -2.30938 v 9.00275 c 0,3.37249 1.4846,5.11589 4.31634,5.11589 1.97946,0 3.40907,-1.14326 4.34382,-2.57222 h 0.055"
     id="path90" />
  <path
     style="fill:#ffffff;stroke-width:0.99999702"
     d="m 268.54049,107.59763 v 8.54557 h 2.30937 v -9.28864 c 0,-3.08659 -1.37462,-4.82998 -4.01391,-4.82998 -1.89698,0 -3.40907,1.25745 -4.28884,3.11524 h -0.0825 c -0.52237,-1.94354 -1.62207,-3.11524 -3.73899,-3.11524 -1.89698,0 -3.10666,1.05741 -4.04141,2.57221 h -0.055 l -0.0825,-2.28643 h -2.2269 v 13.83284 h 2.30938 v -7.03077 c 0,-3.11524 1.31965,-5.14443 3.38159,-5.14443 1.73202,0 2.41934,1.25757 2.41934,3.62963 v 8.54557 h 2.30937 v -7.03077 c 0,-3.17244 1.31965,-5.14443 3.38159,-5.14443 1.73202,0 2.41934,1.25757 2.41934,3.62963"
     id="path92" />
  <path
     style="fill:#ffffff;stroke-width:0.99999702"
     d="m 285.48449,109.76976 c 0.055,-0.51438 0.0825,-0.94311 0.0825,-1.37185 0,-3.54388 -1.78702,-6.37333 -5.22359,-6.37333 -3.71149,0 -6.43326,3.20099 -6.43326,7.45939 0,4.68715 2.72177,6.94503 6.43326,6.94503 1.64955,0 2.88672,-0.25725 4.17888,-0.80028 l -0.21995,-1.82913 c -1.01722,0.51447 -2.47433,0.80026 -3.62902,0.80026 -2.66677,0 -4.3988,-1.68619 -4.45379,-4.83009 h 9.26499 m -5.33356,-5.91604 c 2.03445,0 3.13416,1.74338 3.13416,4.02981 h -6.95562 c 0.32992,-2.42937 1.62207,-4.02981 3.82146,-4.02981"
     id="path94" />
  <path
     style="fill:#ffffff;stroke-width:0.99999702"
     d="m 291.1428,104.59679 -0.0825,-2.28643 h -2.22689 v 13.83284 h 2.30937 v -7.60234 c 0,-2.85801 1.67705,-4.57286 3.73899,-4.57286 2.14441,0 2.66678,1.25757 2.66678,3.91553 v 8.25967 h 2.30937 v -9.00284 c 0,-3.37239 -1.4846,-5.11578 -4.31633,-5.11578 -1.97947,0 -3.40908,1.14315 -4.34382,2.57221 h -0.055"
     id="path96" />
  <path
     style="fill:#ffffff;stroke-width:0.99999702"
     d="m 310.16292,102.31036 h -3.18914 v -3.058148 h -2.30937 v 3.058148 h -2.11693 v 1.82914 h 2.11693 v 8.60267 c 0,2.51502 1.31965,3.68683 3.46406,3.68683 1.12719,0 1.86949,-0.1143 2.44684,-0.37154 l -0.24743,-1.7434 c -0.46738,0.20005 -0.96225,0.28579 -1.48461,0.28579 -1.34713,0 -1.86949,-0.80026 -1.86949,-2.45791 v -8.00244 h 3.18914 v -1.82914"
     id="path98" />
  <path
     style="fill:#ffffff;stroke-width:0.99999702"
     d="m 322.07193,116.1432 v -8.74561 h 6.68069 v -1.94343 h -6.68069 v -6.744984 h 7.61544 v -1.943429 h -9.92481 V 116.1432 h 2.30937"
     id="path100" />
  <path
     style="fill:#ffffff;stroke-width:0.99999702"
     d="m 338.03952,102.02458 c -4.01391,0 -6.40577,3.14379 -6.40577,7.20215 0,4.05847 2.39186,7.20227 6.40577,7.20227 4.0139,0 6.40576,-3.1438 6.40576,-7.20227 0,-4.05836 -2.39186,-7.20215 -6.40576,-7.20215 m 0,12.57527 c -2.77674,0 -3.98642,-2.48646 -3.98642,-5.37312 0,-2.88655 1.20968,-5.37301 3.98642,-5.37301 2.77674,0 3.98642,2.48646 3.98642,5.37301 0,2.88666 -1.20968,5.37312 -3.98642,5.37312"
     id="path102" />
  <path
     style="fill:#ffffff;stroke-width:0.99999702"
     d="m 356.26235,113.85678 0.0825,2.28642 h 2.2269 v -13.83284 h -2.30938 v 7.60235 c 0,2.858 -1.67705,4.57285 -3.73899,4.57285 -2.14441,0 -2.66677,-1.25756 -2.66677,-3.91553 v -8.25967 h -2.30938 v 9.00275 c 0,3.37249 1.4846,5.11589 4.31633,5.11589 1.97947,0 3.40909,-1.14326 4.34383,-2.57222 h 0.055"
     id="path104" />
  <path
     style="fill:#ffffff;stroke-width:0.99999702"
     d="m 365.08273,104.59679 -0.0825,-2.28643 h -2.2269 v 13.83284 h 2.30937 v -7.60234 c 0,-2.85801 1.67705,-4.57286 3.73899,-4.57286 2.14442,0 2.66678,1.25757 2.66678,3.91553 v 8.25967 h 2.30937 v -9.00284 c 0,-3.37239 -1.4846,-5.11578 -4.31632,-5.11578 -1.97947,0 -3.40908,1.14315 -4.34382,2.57221 h -0.055"
     id="path106" />
  <path
     style="fill:#ffffff;stroke-width:0.99999702"
     d="m 387.18202,104.45384 c -0.98973,-1.68619 -2.41934,-2.42926 -4.28883,-2.42926 -3.57404,0 -5.99338,3.08659 -5.99338,7.45939 0,4.17277 2.17191,6.94503 5.82842,6.94503 1.92448,0 3.40907,-0.91457 4.45379,-2.42938 h 0.055 l 0.0825,2.14358 h 2.2269 V 95.565384 h -2.30939 v 8.888456 h -0.055 m 0.055,5.60172 c 0,2.40081 -1.4296,4.54429 -3.79397,4.54429 -2.66677,0 -4.12388,-2.17213 -4.12388,-5.34447 0,-3.25819 1.40212,-5.40166 4.0689,-5.40166 2.11692,0 3.84895,1.88622 3.84895,4.54419 v 1.65765"
     id="path108" />
  <path
     style="fill:#ffffff;stroke-width:0.99999702"
     d="m 398.37623,102.02458 c -1.34714,0 -2.69427,0.22858 -4.12388,0.80016 l 0.21994,1.82914 c 1.34714,-0.54303 2.44684,-0.80016 3.57403,-0.80016 2.03444,0 2.88671,1.2289 2.88671,3.17234 v 0.40018 c -0.63232,-0.1144 -1.23716,-0.1715 -2.19939,-0.1715 -3.38159,0 -5.9384,1.7434 -5.9384,4.7729 0,2.82946 2.00696,4.40136 4.15138,4.40136 1.75952,0 3.21663,-0.94312 3.93143,-2.42938 h 0.055 l 0.0825,2.14358 h 2.22689 v -9.37438 c 0,-3.11525 -1.78702,-4.74424 -4.86618,-4.74424 m 2.5568,8.17392 c 0,2.74371 -1.34713,4.40135 -3.2991,4.40135 -1.40211,0 -2.36436,-1.05751 -2.36436,-2.7437 0,-1.82914 1.1272,-3.0295 3.82146,-3.0295 0.68732,0 1.29216,0.0856 1.842,0.17149 v 1.20036"
     id="path110" />
  <path
     style="fill:#ffffff;stroke-width:0.99999702"
     d="m 413.52848,102.31036 h -3.18914 v -3.058148 h -2.30938 v 3.058148 h -2.11692 v 1.82914 h 2.11692 v 8.60267 c 0,2.51502 1.31965,3.68683 3.46407,3.68683 1.12719,0 1.86949,-0.1143 2.44684,-0.37154 l -0.24744,-1.7434 c -0.46737,0.20005 -0.96224,0.28579 -1.4846,0.28579 -1.34713,0 -1.86949,-0.80026 -1.86949,-2.45791 v -8.00244 h 3.18914 v -1.82914"
     id="path112" />
  <path
     style="fill:#ffffff;stroke-width:0.99999702"
     d="m 416.89933,116.1432 h 2.30937 v -13.83284 h -2.30937 v 13.83284 m 1.15469,-15.86202 c 0.79728,0 1.4296,-0.65743 1.4296,-1.486255 0,-0.828825 -0.63232,-1.486151 -1.4296,-1.486151 -0.79728,0 -1.42961,0.657326 -1.42961,1.486151 0,0.828825 0.63233,1.486255 1.42961,1.486255"
     id="path114" />
  <path
     style="fill:#ffffff;stroke-width:0.99999702"
     d="m 428.84012,102.02458 c -4.01391,0 -6.40576,3.14379 -6.40576,7.20215 0,4.05847 2.39185,7.20227 6.40576,7.20227 4.01391,0 6.40577,-3.1438 6.40577,-7.20227 0,-4.05836 -2.39186,-7.20215 -6.40577,-7.20215 m 0,12.57527 c -2.77675,0 -3.98641,-2.48646 -3.98641,-5.37312 0,-2.88655 1.20966,-5.37301 3.98641,-5.37301 2.77675,0 3.98642,2.48646 3.98642,5.37301 0,2.88666 -1.20967,5.37312 -3.98642,5.37312"
     id="path116" />
  <path
     style="fill:#ffffff;stroke-width:0.99999702"
     d="m 440.79464,104.59679 -0.0825,-2.28643 h -2.2269 v 13.83284 h 2.30937 v -7.60234 c 0,-2.85801 1.67705,-4.57286 3.73899,-4.57286 2.14441,0 2.66678,1.25757 2.66678,3.91553 v 8.25967 h 2.30937 v -9.00284 c 0,-3.37239 -1.4846,-5.11578 -4.31633,-5.11578 -1.97946,0 -3.40907,1.14315 -4.34382,2.57221 h -0.055"
     id="path118" />
  <g
     style="fill:#ffffff"
     transform="matrix(0.14975964,0,0,0.14975964,0.62499981,152.625)"
     id="g898">
    <path
       style="fill:#ffffff"
       d="m 343.43742,88.308462 c -3.31131,-0.119261 -6.45072,1.050602 -8.84992,3.300807 -2.39931,2.250205 -3.81471,5.298411 -3.91471,8.599211 -0.2297,6.82082 5.11081,12.55903 11.91603,12.81003 3.3095,0.1 6.46471,-1.0698 8.87802,-3.32001 2.4098,-2.2607 3.7953,-5.31071 3.9006,-8.59921 0.22971,-6.819015 -5.10901,-12.549028 -11.93002,-12.791028 z m 2.0205,13.512028 c -3.0307,0 -5.47911,-1.63981 -5.47911,-3.649807 0,-2.029204 2.44841,-3.660308 5.47911,-3.660308 3.03061,0 5.48601,1.631104 5.48601,3.660308 0,2.009897 -2.4571,3.649807 -5.48601,3.649807 z m 28.79807,14.72903 c 0.0887,-0.0692 0.29521,-0.25105 0.2683,-0.41918 -0.68471,-4.27871 -7.05922,-25.029052 -11.88403,-30.019063 -1.3294,-1.359203 -2.394,-2.699206 -4.54951,-3.960209 -17.45404,-10.171022 -58.86313,-16.309036 -60.80313,-16.590037 0,0 -0.19473,-0.0406 -0.3297,0.0912 -0.1048,0.10237 -0.1246,0.29991 -0.1246,0.29991 0,0 -0.1596,8.579919 -0.1841,9.539221 C 292.42061,74.07076 261.67714,64.140338 232.85807,63.140336 208.41802,62.280945 172.82494,59.120528 125.65784,88.120391 l -1.39431,0.868152 c -22.19005,13.841027 -37.51008,30.910067 -45.518096,50.739107 -2.511606,6.24021 -5.889514,20.32003 -2.541407,33.56906 1.441703,5.79122 4.13041,11.61103 7.755617,16.81904 8.194018,11.77003 21.944046,19.58004 36.749086,20.89905 20.90404,1.8696 36.73308,-7.51882 42.36309,-25.09906 3.87081,-12.13003 0,-29.92807 -14.83903,-39.00808 -12.07003,-7.39081 -25.04906,-5.71061 -32.57808,-0.7296 -6.53131,4.33031 -10.23002,11.06002 -10.16502,18.45103 0.1508,13.11003 11.44403,20.07805 19.56405,20.09905 2.3589,0 4.72841,-0.41041 7.39951,-1.2803 0.9506,-0.2894 1.84501,-0.64894 2.83071,-1.25931 l 0.3087,-0.18065 0.1947,-0.12978 -0.065,0.0386 c 1.8503,-1.261 2.96401,-3.31131 2.96401,-5.51061 0,-0.59981 -0.084,-1.2084 -0.25611,-1.8205 -0.9593,-3.32001 -4.239,-5.32822 -7.63801,-4.70911 l -0.4595,0.10874 -0.6209,0.18942 -0.90151,0.31043 c -1.8696,0.45951 -3.2692,0.49985 -3.5691,0.51038 -0.95061,-0.0614 -5.62462,-1.46101 -5.62462,-6.58052 v -0.0702 c 0,-1.8801 0.7542,-3.199 1.16981,-3.91991 1.454,-2.28 5.43521,-4.51791 10.81402,-4.0497 7.05931,0.61034 12.14903,4.2303 15.52003,11.06002 3.12891,6.34901 2.30981,14.15903 -2.1099,19.88004 -4.38991,5.66852 -12.20503,8.07832 -22.59805,6.95932 -10.48102,-1.1593 -19.34004,-7.19082 -24.303054,-16.57904 -4.856511,-9.17792 -5.121311,-20.05904 -0.685801,-28.41805 10.609025,-20.02904 30.649065,-19.82004 41.637095,-17.92104 16.26003,2.82021 34.75807,17.81904 41.31909,35.13907 1.0593,2.7606 1.5995,4.94941 2.0713,6.95051 l 0.70851,2.99031 18.37004,8.96922 c 0.39458,0.19266 0.52796,0.25778 0.6858,0.14034 0.18941,-0.14093 0.081,-0.52966 0.081,-0.52966 -0.114,-0.4104 -0.3806,-0.78924 -0.805,-5.92981 -0.3491,-4.56181 -1.05941,-17.05104 5.22821,-23.24006 2.4414,-2.4186 6.16131,-4.5776 9.09902,-5.2686 12.04002,-2.94121 26.15905,-0.912 39.50708,14.53902 6.91022,7.98002 10.27903,11.61903 11.97003,13.24903 0,0 0.38494,0.36349 0.5893,0.53143 0.22331,0.1835 0.36878,0.33789 0.6945,0.51914 0.55786,0.31042 22.95405,10.62102 22.95405,10.62102 0,0 0.26534,0.13182 0.46121,-0.11049 0.19362,-0.23953 0.01,-0.4788 0.01,-0.4788 -0.14911,-0.17013 -14.19904,-18.32804 -11.69803,-33.27908 1.9696,-11.90902 11.44702,-10.83001 24.55805,-9.34981 4.27941,0.49984 9.15162,1.0593 14.19603,1.1716 14.08404,0.0895 29.25407,-2.5115 38.60409,-6.60151 6.04901,-2.629 9.90932,-4.37941 12.32803,-6.57871 0.8699,-0.72084 1.3207,-1.8907 1.7907,-3.14991 l 0.3297,-0.83133 c 0.3911,-1.0207 0.9664,-3.17101 1.219,-4.34961 0.1017,-0.51914 0.2208,-1.0274 -0.2087,-1.3592 -0.39265,-0.30337 -1.2944,0.24027 -1.2944,0.24027 -4.10581,2.4712 -14.36903,7.15051 -23.96505,7.35041 -11.91403,0.24029 -36.05408,-12.06102 -38.55509,-13.36002 -1.6739,-3.98571 -3.3458,-7.97242 -5.04381,-11.94803 17.27004,11.37902 31.59407,17.66804 42.5591,18.63804 12.20702,1.0874 21.72304,-5.57241 25.85305,-8.34332 0.54064,-0.35944 1.07991,-0.76184 1.57561,-1.1486 z m -48.99211,-16.36904 c 0.1753,-4.730203 2.1554,-9.120112 5.61411,-12.340019 3.46031,-3.230608 7.97472,-4.900311 12.70803,-4.749411 9.76022,0.349021 17.43004,8.588619 17.09504,18.33804 -0.1841,4.73021 -2.16421,9.12012 -5.61412,12.33002 -3.4603,3.24991 -7.96421,4.91961 -12.71902,4.76001 -9.74973,-0.35954 -17.41104,-8.57992 -17.08404,-18.33804 z"
       id="Geeko" />
    <path
       style="fill:#ffffff"
       d="m 336.32747,202.61256 v 0.006 c -2.3098,0 -4.05469,1.71292 -4.05469,3.98243 v 39.35751 c 0,2.25901 1.7039,3.95899 3.9629,3.95899 h 31.3653 c 2.41511,0 4.16017,-1.66848 4.16017,-3.95899 v -1.04297 c 0,-2.2993 -1.74506,-3.97853 -4.16017,-3.97853 h -25.68756 v -10.01955 h 18.82232 c 2.4098,0 4.16016,-1.69182 4.16016,-3.98243 v -1.03906 c 0,-2.30111 -1.75036,-3.97072 -4.16016,-3.97072 h -18.82232 v -10.32033 h 24.38092 c 2.4063,0 4.16017,-1.65911 4.16017,-3.97071 v -1.04102 c 0,-2.30111 -1.75387,-3.98048 -4.16017,-3.98048 z m -139.76007,0.006 c -7.78361,0 -12.06447,6.58137 -12.06447,11.13088 v 5.83986 c 0,6.69972 5.47263,10.85159 10.54884,10.85159 h 17.8184 c 2.24491,0 2.71681,1.46898 2.71681,2.70898 v 3.76954 c 0,0.39988 -0.0829,4.01955 -2.71681,4.01954 h -24.30278 c -2.41511,0 -4.16017,1.67923 -4.16017,3.97853 v 1.04297 c 0,2.29051 1.74506,3.95899 4.16017,3.95899 h 25.62505 c 6.69802,0 11.01956,-4.65991 11.01956,-11.87892 v -6.3008 c 0,-6.77861 -4.86979,-9.80862 -9.7051,-9.80862 h -17.53324 c -2.63951,0 -3.83595,-1.98126 -3.83595,-3.38087 v -3.47852 c 0,-2.1906 1.46469,-3.46094 4.0254,-3.46094 h 19.40825 c 2.38,0 4.16993,-1.71001 4.16993,-3.97071 v -1.04102 c 0,-2.26951 -1.82116,-3.98048 -4.25197,-3.98048 z m 41.06065,0 c -2.33441,0 -4.16994,1.84278 -4.16994,4.17189 v 30.96685 c 0,7.21012 5.673,12.43949 13.48832,12.43949 h 14.4844 c 7.80471,0 13.47659,-5.22767 13.47659,-12.43949 v -30.96685 c 0,-2.32911 -1.82926,-4.17189 -4.16016,-4.17189 h -1.32032 c -2.30101,0 -4.1543,1.87078 -4.1543,4.17189 v 29.83795 c 0,2.39051 -1.94986,4.31055 -4.31056,4.31055 h -13.54495 c -2.36941,0 -4.31056,-1.92004 -4.31056,-4.31055 v -29.83795 c 0,-2.30111 -1.86868,-4.17189 -4.16798,-4.17189 z m 57.72863,0 c -7.78011,0 -12.07424,6.58137 -12.07424,11.13088 v 5.83986 c 0,6.69972 5.48477,10.85159 10.56448,10.85159 h 17.81449 c 2.2485,0 2.7207,1.46898 2.7207,2.70898 v 3.76954 c 0,0.39988 -0.0814,4.01955 -2.7207,4.01954 H 287.3469 c -2.4045,0 -4.16016,1.67923 -4.16016,3.97853 v 1.04297 c 0,2.29051 1.75566,3.95899 4.16016,3.95899 h 25.63287 c 6.69982,0 11.04104,-4.65991 11.04104,-11.87892 v -6.3008 c 0,-6.77861 -4.88337,-9.80862 -9.71878,-9.80862 H 296.7688 c -2.64661,0 -3.83985,-1.98126 -3.83985,-3.38087 v -3.47852 c 0,-2.1906 1.46479,-3.46094 4.0254,-3.46094 h 19.41996 c 2.3747,0 4.15821,-1.71001 4.15821,-3.97071 v -1.04102 c 0,-2.26951 -1.82043,-3.98048 -4.26173,-3.98048 h -20.91216 z m -187.63713,18.56045 c -2.76765,0 -4.85433,0.99048 -6.52931,1.80078 -1.02077,0.48934 -1.904072,0.91211 -2.589849,0.91211 -0.310439,0 -0.576486,-0.14133 -0.716797,-0.37109 L 97.24492,222.3001 c -0.159605,-0.32096 -0.798837,-0.94922 -1.589847,-0.94922 h -0.94922 c -0.912029,0 -1.642583,0.8206 -1.642583,1.82032 v 37.63876 c 0,1.18037 0.932711,2.11133 2.111334,2.11133 h 0.820314 c 1.169852,0 2.121098,-0.94148 2.121098,-2.11133 v -12.48831 c 0,-0.37007 0.240585,-0.76953 0.484375,-0.76953 0.685777,0 1.569079,0.40085 2.589849,0.86914 1.67498,0.76996 3.76166,1.71875 6.52931,1.71875 h 0.88672 c 4.9004,0 7.94729,-2.80008 7.94729,-7.29884 v -14.36918 c 0,-4.43035 -3.11178,-7.29103 -7.94729,-7.29103 h -0.88672 z m 59.79115,0 c -2.75889,0 -4.84127,0.98949 -6.5215,1.79102 -1.04534,0.49109 -1.93836,0.92187 -2.66797,0.92187 -0.32098,0 -0.45017,-0.0412 -0.69922,-0.47266 l -0.58008,-1.05859 c -0.33324,-0.66999 -0.90132,-1.00977 -1.66603,-1.00977 h -0.81445 c -0.98569,0 -1.70508,0.76974 -1.70508,1.82032 v 24.68951 c 0,1.16985 0.92435,2.10938 2.11524,2.10938 h 0.81641 c 1.16985,0 2.12305,-0.95005 2.12305,-2.10938 v -18.67973 c 0,-1.7504 1.4293,-3.18946 3.1797,-3.18946 h 7.01368 c 1.75566,0 3.18556,1.43906 3.18555,3.18946 v 18.67973 c 0,1.16985 0.92901,2.10938 2.10938,2.10938 h 0.82423 c 1.16985,0 2.12109,-0.95005 2.12109,-2.10938 v -19.39067 c 0,-4.43036 -3.11413,-7.29103 -7.95314,-7.29103 z m -36.7618,0.17187 v 0.004 c -3.93049,0 -7.12111,3.05921 -7.12111,6.83009 v 14.72855 c 0,3.81999 3.10114,7.06056 6.75978,7.06056 h 9.90432 c 1.22422,0 2.10938,-0.84964 2.10938,-2.00195 v -0.64844 c 0,-1.15933 -0.88516,-1.99024 -2.10938,-1.99024 h -8.13674 c -2.28007,0 -3.48243,-1.12097 -3.48243,-3.25197 v -4.31064 h 14.67777 c 2.36075,0 3.75587,-1.43924 3.75587,-3.87891 v -5.71096 c 0,-3.76913 -3.19469,-6.83009 -7.10939,-6.83009 z m -61.017712,0.004 c -3.930493,0 -7.130876,3.05921 -7.130876,6.83009 v 14.83988 c 0,3.83051 3.0952,6.95118 6.890641,6.95118 h 9.59963 c 3.795442,0 6.890639,-3.12067 6.890639,-6.95118 v -14.83988 c 0,-3.76913 -3.200184,-6.83009 -7.12892,-6.83009 z m 31.574292,4.63673 h 7.00978 c 1.79073,0 3.18946,1.40047 3.18946,3.18946 v 12.96096 c 0,1.75917 -1.43556,3.18946 -3.18946,3.18946 h -7.00978 c -1.755659,0 -3.187511,-1.43029 -3.187511,-3.18946 v -12.96096 c 0,-1.79074 1.398528,-3.18946 3.187511,-3.18946 z m -30.750072,0.004 h 7.478532 c 1.560971,0 2.890631,1.32946 2.890631,2.88868 v 13.5508 c 0,1.59956 -1.294582,2.9004 -2.890631,2.9004 h -7.535173 c -1.599558,0 -2.845709,-1.27277 -2.845709,-2.9004 v -13.5508 c 0,-1.58904 1.3063,-2.88868 2.90235,-2.88868 z m 60.961072,0 h 7.71095 c 1.58904,0 2.82814,1.24906 2.82814,2.83984 v 4.59963 h -13.38285 c 0.002,-0.59984 0,-4.59963 0,-4.59963 0,-1.59078 1.25122,-2.83984 2.84376,-2.83984 z"
       id="Text" />
    <path
       style="fill:#ffffff"
       d="m 378.78556,240.40067 c 2.13627,0 3.83757,1.73638 3.83757,3.90949 0,2.20468 -1.70305,3.92353 -3.85511,3.92353 -2.13628,0 -3.87266,-1.71885 -3.87266,-3.92353 0,-2.17136 1.73638,-3.90949 3.87266,-3.90949 z m -0.0175,0.60686 c -1.71885,0 -3.12549,1.47681 -3.12549,3.30088 0,1.85915 1.40664,3.31667 3.14303,3.31667 1.73638,0.0193 3.12548,-1.45752 3.12548,-3.29913 0,-1.84161 -1.3891,-3.31842 -3.12548,-3.31842 z m -0.72964,5.57571 h -0.69455 v -4.35849 c 0.36482,-0.0526 0.71209,-0.10524 1.23301,-0.10524 0.66123,0 1.09445,0.13856 1.35403,0.32974 0.26133,0.18943 0.40165,0.48409 0.40165,0.90327 0,0.57178 -0.38236,0.91906 -0.85065,1.05937 v 0.0368 c 0.38235,0.0684 0.64193,0.41568 0.72963,1.05937 0.10523,0.67877 0.20696,0.93835 0.27712,1.07691 h -0.72963 c -0.10524,-0.13856 -0.20872,-0.53846 -0.29466,-1.11199 -0.10524,-0.55424 -0.38236,-0.76471 -0.93835,-0.76471 h -0.48584 v 1.87494 z m 0,-2.41514 h 0.50339 c 0.57353,0 1.05936,-0.20697 1.05936,-0.74717 0,-0.38236 -0.27712,-0.76471 -1.05936,-0.76471 -0.22626,0 -0.38237,0.0175 -0.50339,0.0368 z"
       id="Trademark" />
  </g>
</svg>
