<?xml version="1.0" encoding="UTF-8" standalone="no"?>
<!-- Generator: Adobe Illustrator 15.0.2, SVG Export Plug-In . SVG Version: 6.00 Build 0)  -->

<svg
   xmlns:dc="http://purl.org/dc/elements/1.1/"
   xmlns:cc="http://creativecommons.org/ns#"
   xmlns:rdf="http://www.w3.org/1999/02/22-rdf-syntax-ns#"
   xmlns:svg="http://www.w3.org/2000/svg"
   xmlns="http://www.w3.org/2000/svg"
   xmlns:xlink="http://www.w3.org/1999/xlink"
   xmlns:sodipodi="http://sodipodi.sourceforge.net/DTD/sodipodi-0.dtd"
   xmlns:inkscape="http://www.inkscape.org/namespaces/inkscape"
   version="1.1"
   x="0px"
   y="0px"
   width="400"
   height="250"
   viewBox="0 0 400 250"
   enable-background="new 0 0 1920 1200"
   xml:space="preserve"
   id="svg2"
   inkscape:version="0.48.2 r9819"
   sodipodi:docname="background-169.svg"><metadata
   id="metadata43"><rdf:RDF><cc:Work
       rdf:about=""><dc:format>image/svg+xml</dc:format><dc:type
         rdf:resource="http://purl.org/dc/dcmitype/StillImage" /><dc:title /></cc:Work></rdf:RDF></metadata><defs
   id="defs41"><linearGradient
   xlink:href="#linearGradient3623"
   y2="0.00048828119"
   x2="960.00043"
   y1="1200"
   x1="960.00049"
   gradientUnits="userSpaceOnUse"
   id="linearGradient3629"
   spreadMethod="pad">
		<stop
   id="stop3631"
   style="stop-color:#669900;stop-opacity:1;"
   offset="0" />
		<stop
   id="stop3633"
   style="stop-color:#99cc33;stop-opacity:1;"
   offset="1" />
	</linearGradient><linearGradient
   y2="0.00048828119"
   x2="960.00043"
   y1="1200"
   x1="960.00049"
   gradientUnits="userSpaceOnUse"
   id="linearGradient3623">
		<stop
   id="stop3625"
   style="stop-color:#006699"
   offset="0" />
		<stop
   id="stop3627"
   style="stop-color:#3399CC"
   offset="1" />
	</linearGradient><inkscape:perspective
   sodipodi:type="inkscape:persp3d"
   inkscape:vp_x="0 : 600 : 1"
   inkscape:vp_y="0 : 1000 : 0"
   inkscape:vp_z="1920 : 600 : 1"
   inkscape:persp3d-origin="960 : 400 : 1"
   id="perspective45" />
	

		
		
		
		
		
		
		
	</defs><sodipodi:namedview
   pagecolor="#ffffff"
   bordercolor="#666666"
   borderopacity="1"
   objecttolerance="10"
   gridtolerance="10"
   guidetolerance="10"
   inkscape:pageopacity="0"
   inkscape:pageshadow="2"
   inkscape:window-width="1434"
   inkscape:window-height="826"
   id="namedview39"
   showgrid="false"
   inkscape:zoom="2.4004022"
   inkscape:cx="199.99998"
   inkscape:cy="141.42064"
   inkscape:window-x="0"
   inkscape:window-y="0"
   inkscape:window-maximized="0"
   inkscape:current-layer="svg2" />

<rect
   style="opacity:1;fill:none;fill-opacity:1"
   id="rect3027"
   width="421.17941"
   height="259.12323"
   x="-8.7485342"
   y="-1.2079008" /><path
   clip-rule="evenodd"
   d="m 351.07202,31.759994 c -4.13908,-0.149077 -8.06332,1.313193 -11.0624,4.125926 -2.99908,2.812733 -4.76827,6.622967 -4.89323,10.748893 -0.28719,8.525891 6.38839,15.699128 14.89455,16.012628 4.13689,0.124962 8.08085,-1.339501 11.09747,-4.150042 3.01223,-2.825887 4.74416,-6.638313 4.8757,-10.748893 0.285,-8.525891 -6.38839,-15.685973 -14.91209,-15.988512 z m 2.52334,16.887359 c -3.78831,0 -6.84877,-2.049809 -6.84877,-4.562196 0,-2.536502 3.06046,-4.575349 6.84877,-4.575349 3.78832,0 6.85755,2.038847 6.85755,4.575349 0,2.514579 -3.06923,4.562196 -6.85755,4.562196 z m 33.94134,19.748323 c 1.00627,-0.66427 1.74508,-1.214539 2.05639,-1.337309 l 0.33542,-0.523961 c -0.85062,-5.349235 -8.82405,-31.286448 -14.85509,-37.521376 -1.66177,-1.69904 -2.9925,-3.373964 -5.68685,-4.950234 C 347.56871,11.349593 295.80828,3.6765104 293.38359,3.3257409 l -0.41216,0.1140001 -0.15565,0.3748849 c 0,0 -0.1995,10.7247781 -0.23019,11.9239711 C 287.29993,13.962826 248.87094,1.5499703 212.84691,0.30035396 182.29708,-0.77387765 137.80635,-4.7244192 78.852959,31.525417 L 77.110073,32.61061 C 49.372974,49.912316 30.223152,71.245678 20.213067,96.031929 17.07368,103.83217 12.851292,121.43203 17.03641,137.99273 c 1.802079,7.23901 5.162889,14.51309 9.694393,21.02425 10.242469,14.71259 27.430175,24.47494 45.935458,26.12356 26.130136,2.337 45.915729,-9.39843 52.953039,-31.37414 4.83843,-15.16202 0,-37.40957 -18.54913,-48.75916 -15.08747,-9.238389 -31.31056,-7.138156 -40.722144,-0.912 -8.16416,5.41281 -12.787741,13.82471 -12.706625,23.0631 0.188538,16.38751 14.304818,25.09756 24.455211,25.12386 2.948656,0 5.910466,-0.513 9.249353,-1.60038 1.188232,-0.36173 2.30631,-0.81116 3.538388,-1.57408 l 0.385846,-0.22581 0.243346,-0.16223 -0.08111,0.0482 c 2.312886,-1.57627 3.705003,-4.13908 3.705003,-6.88823 0,-0.74977 -0.105231,-1.51051 -0.320077,-2.27562 -1.199194,-4.15004 -5.298812,-6.66024 -9.547508,-5.88635 l -0.574385,0.13592 -0.776077,0.23677 -1.126847,0.38804 c -2.337002,0.57438 -4.086465,0.62481 -4.46135,0.63796 -1.188232,-0.0767 -7.030736,-1.82619 -7.030736,-8.22554 v -0.0877 c 0,-2.35015 0.942693,-3.99877 1.46227,-4.89981 1.817425,-2.85 6.793967,-5.64739 13.51778,-5.06204 8.824045,0.76292 15.186127,5.28785 19.399747,13.8247 3.91108,7.93616 2.88727,17.69852 -2.63735,24.84983 -5.48735,7.08554 -15.256281,10.09778 -28.247906,8.69908 C 61.693753,162.76583 50.620398,155.22647 44.416163,143.49104 38.345658,132.01869 38.014619,118.4176 43.55897,107.96905 56.820249,82.93288 81.869576,83.193765 95.604395,85.568036 115.9293,89.093269 139.05158,107.8419 147.25301,129.49095 c 1.32416,3.4507 1.99939,6.1867 2.58912,8.68813 l 0.88569,3.73788 22.96225,11.21147 0.30035,0.22581 0.55684,-0.0504 0.10085,-0.66208 c -0.1425,-0.513 -0.47573,-0.98654 -1.00627,-7.4122 -0.43627,-5.70219 -1.32415,-21.31363 6.53527,-29.05029 3.0517,-3.02319 7.70159,-5.72193 11.37371,-6.5857 15.0502,-3.6765 32.69829,-1.14 49.38396,18.17425 8.6377,9.97501 12.84912,14.52405 14.96251,16.5607 l 0.73661,0.66427 0.86816,0.64893 c 0.69277,0.37708 28.69294,13.27662 28.69294,13.27662 l 0.57658,-0.13811 0,-0.5985 c -0.18634,-0.21266 -17.74893,-22.90964 -14.6227,-41.59907 2.46196,-14.88578 14.3092,-13.53751 30.69671,-11.6872 5.34924,0.6248 11.43948,1.32415 17.74456,1.46446 17.60424,0.11181 36.56772,-3.13939 48.25492,-8.251854 7.56127,-3.286272 12.38655,-5.474197 15.40974,-8.223353 1.08739,-0.901039 1.65081,-2.36331 2.23835,-3.937388 l 0.41215,-1.039154 c 0.48889,-1.275924 1.20797,-3.963696 1.52366,-5.436928 0.12715,-0.648923 0.20169,-1.335116 -0.26089,-1.699039 l -1.61792,0.300346 c -5.1322,3.088964 -17.96159,8.938045 -29.95572,9.187969 -14.89235,0.300346 -44.87218,-14.975666 -47.99842,-16.600167 l -0.30034,-0.348577 c -0.73662,-1.799886 -5.23743,-12.434779 -6.19986,-14.684089 21.58768,14.221511 39.49227,22.083133 53.19858,23.29548 15.25848,1.359232 27.15176,-6.967159 32.23134,-10.52747 z m -59.18359,-21.79594 c 0.21924,-5.912658 2.69435,-11.400009 7.01759,-15.425089 4.32542,-4.038234 9.96843,-6.125312 15.88547,-5.936774 12.2002,0.43627 21.78717,10.73574 21.36844,22.922787 -0.23019,5.912659 -2.70531,11.400009 -7.01758,15.411936 -4.32543,4.060157 -9.95528,6.147235 -15.89863,5.947735 -12.18705,-0.449423 -21.76086,-10.722585 -21.35529,-22.920595 z"
   id="path15"
   inkscape:connector-curvature="0"
   style="opacity:0.2;fill:#ffffff;fill-rule:evenodd" />
</svg>