<?xml version="1.0" encoding="UTF-8" standalone="no"?>
<!-- Generator: Adobe Illustrator 15.0.2, SVG Export Plug-In . SVG Version: 6.00 Build 0)  -->

<svg
   xmlns:dc="http://purl.org/dc/elements/1.1/"
   xmlns:cc="http://creativecommons.org/ns#"
   xmlns:rdf="http://www.w3.org/1999/02/22-rdf-syntax-ns#"
   xmlns:svg="http://www.w3.org/2000/svg"
   xmlns="http://www.w3.org/2000/svg"
   xmlns:xlink="http://www.w3.org/1999/xlink"
   xmlns:sodipodi="http://sodipodi.sourceforge.net/DTD/sodipodi-0.dtd"
   xmlns:inkscape="http://www.inkscape.org/namespaces/inkscape"
   version="1.1"
   x="0px"
   y="0px"
   width="400"
   height="250"
   viewBox="0 0 400 250"
   enable-background="new 0 0 1920 1200"
   xml:space="preserve"
   id="svg2"
   inkscape:version="0.48.1 r9760"
   sodipodi:docname="logo.svg"><metadata
   id="metadata43"><rdf:RDF><cc:Work
       rdf:about=""><dc:format>image/svg+xml</dc:format><dc:type
         rdf:resource="http://purl.org/dc/dcmitype/StillImage" /><dc:title /></cc:Work></rdf:RDF></metadata><defs
   id="defs41"><linearGradient
   xlink:href="#linearGradient3623"
   y2="0.00048828119"
   x2="960.00043"
   y1="1200"
   x1="960.00049"
   gradientUnits="userSpaceOnUse"
   id="linearGradient3629"
   spreadMethod="pad">
		<stop
   id="stop3631"
   style="stop-color:#669900;stop-opacity:1;"
   offset="0" />
		<stop
   id="stop3633"
   style="stop-color:#99cc33;stop-opacity:1;"
   offset="1" />
	</linearGradient><linearGradient
   y2="0.00048828119"
   x2="960.00043"
   y1="1200"
   x1="960.00049"
   gradientUnits="userSpaceOnUse"
   id="linearGradient3623">
		<stop
   id="stop3625"
   style="stop-color:#006699"
   offset="0" />
		<stop
   id="stop3627"
   style="stop-color:#3399CC"
   offset="1" />
	</linearGradient><inkscape:perspective
   sodipodi:type="inkscape:persp3d"
   inkscape:vp_x="0 : 600 : 1"
   inkscape:vp_y="0 : 1000 : 0"
   inkscape:vp_z="1920 : 600 : 1"
   inkscape:persp3d-origin="960 : 400 : 1"
   id="perspective45" />
	

		
		
		
		
		
		
		
	</defs><sodipodi:namedview
   pagecolor="#ffffff"
   bordercolor="#666666"
   borderopacity="1"
   objecttolerance="10"
   gridtolerance="10"
   guidetolerance="10"
   inkscape:pageopacity="0"
   inkscape:pageshadow="2"
   inkscape:window-width="1918"
   inkscape:window-height="1140"
   id="namedview39"
   showgrid="false"
   inkscape:zoom="2.4004022"
   inkscape:cx="125.01255"
   inkscape:cy="141.42064"
   inkscape:window-x="0"
   inkscape:window-y="26"
   inkscape:window-maximized="0"
   inkscape:current-layer="svg2" />

<rect
   style="opacity:1;fill:none;fill-opacity:1"
   id="rect3027"
   width="421.17941"
   height="259.12323"
   x="-8.7485342"
   y="-1.2079008" /><path
   clip-rule="evenodd"
   d="m 329.41716,40.623686 c -3.53536,-0.127333 -6.88722,1.121654 -9.44886,3.524129 -2.56165,2.402475 -4.07279,5.656959 -4.17952,9.181088 -0.2453,7.282327 5.4566,13.409294 12.72207,13.677068 3.53349,0.106735 6.9022,-1.144125 9.47882,-3.544728 2.57288,-2.41371 4.05219,-5.670066 4.16454,-9.181088 0.24343,-7.282326 -5.45659,-13.398058 -12.73705,-13.656469 z m 2.15529,14.424213 c -3.23575,0 -5.84982,-1.750829 -5.84982,-3.896766 0,-2.166535 2.61407,-3.908001 5.84982,-3.908001 3.23577,0 5.85733,1.741466 5.85733,3.908001 0,2.147809 -2.62156,3.896766 -5.85733,3.896766 z m 28.99075,16.867884 c 0.8595,-0.567381 1.49055,-1.037389 1.75645,-1.142252 l 0.2865,-0.447538 C 361.8796,65.756984 355.06915,43.602905 349.91778,38.277387 348.49839,36.826164 347.36176,35.39554 345.0604,34.049181 326.42484,23.190292 282.21405,16.636386 280.14302,16.336778 l -0.35205,0.09737 -0.13295,0.320205 c 0,0 -0.1704,9.16049 -0.19661,10.184772 C 274.9467,25.422366 242.12286,14.820017 211.3532,13.752666 185.25929,12.835119 147.25786,9.4607935 96.90326,40.423324 l -1.488674,0.926909 C 71.723148,56.128358 55.366469,74.350092 46.816428,95.521085 44.134944,102.1836 40.528423,117.21639 44.10311,131.36159 c 1.539233,6.18315 4.409844,12.39625 8.280395,17.95771 8.748529,12.56665 23.429281,20.90509 39.235432,22.31325 22.318863,1.99613 39.218583,-8.0276 45.229443,-26.79799 4.13271,-12.95053 0,-31.95311 -15.8436,-41.64728 -12.88685,-7.890901 -26.743682,-6.097003 -34.782517,-0.77898 -6.973357,4.62331 -10.922554,11.80828 -10.85327,19.69918 0.161039,13.99727 12.218355,21.4369 20.888238,21.45936 2.518573,0 5.048379,-0.43818 7.900269,-1.36695 1.01492,-0.30897 1.96992,-0.69285 3.02229,-1.34449 l 0.32956,-0.19288 0.20786,-0.13856 -0.0693,0.0412 c 1.97553,-1.34636 3.1646,-3.53537 3.1646,-5.88354 0,-0.64041 -0.0899,-1.29019 -0.27339,-1.9437 -1.02429,-3.54473 -4.52595,-5.68879 -8.15494,-5.02778 l -0.4906,0.11609 -0.66288,0.20224 -0.96249,0.33144 c -1.996136,0.4906 -3.490427,0.53368 -3.810632,0.54491 -1.01492,-0.0655 -6.005251,-1.55983 -6.005251,-7.02579 v -0.0749 c 0,-2.00737 0.805194,-3.41552 1.248987,-4.18514 1.55234,-2.43431 5.803017,-4.82368 11.546116,-4.3237 7.53699,0.65164 12.97111,4.51657 16.57015,11.80826 3.34062,6.77861 2.46614,15.11706 -2.25268,21.2253 -4.68698,6.05206 -13.03104,8.62494 -24.127737,7.43026 -11.190333,-1.23773 -20.648557,-7.67741 -25.947859,-17.70115 -5.185077,-9.79902 -5.467831,-21.41629 -0.732165,-30.34084 11.327024,-21.384461 32.722722,-21.161628 44.454221,-19.133662 17.36036,3.011052 37.11009,19.025052 44.11528,37.516432 1.13102,2.94739 1.70776,5.28433 2.21148,7.4209 l 0.7565,3.19269 19.61304,9.57619 0.25654,0.19287 0.47562,-0.043 0.0861,-0.56552 c -0.12171,-0.43817 -0.40634,-0.84264 -0.8595,-6.33107 -0.37263,-4.87048 -1.13101,-18.20488 5.58206,-24.81309 2.60658,-2.58224 6.57825,-4.88735 9.71477,-5.62513 12.85501,-3.14025 27.929,-0.97372 42.18094,15.5234 7.37783,8.52008 10.97498,12.40561 12.78012,14.1452 l 0.62917,0.56738 0.74153,0.55428 c 0.59173,0.32208 24.50786,11.34013 24.50786,11.34013 l 0.49249,-0.11797 0,-0.5112 c -0.15916,-0.18164 -15.16012,-19.5681 -12.48988,-35.53154 2.10287,-12.71458 12.2221,-11.56296 26.21937,-9.98254 4.56902,0.53367 9.77095,1.13102 15.15639,1.25086 15.03653,0.0955 31.23405,-2.68148 41.21658,-7.048258 6.45841,-2.806945 10.57988,-4.675745 13.16212,-7.023916 0.92878,-0.769616 1.41003,-2.018604 1.91187,-3.363091 l 0.35203,-0.887586 c 0.41758,-1.089821 1.03178,-3.385561 1.30143,-4.643912 0.1086,-0.554273 0.17227,-1.140379 -0.22284,-1.451221 l -1.38194,0.256538 c -4.38363,2.638416 -15.34176,7.634365 -25.58645,7.847836 -12.72019,0.256538 -38.32724,-12.791355 -40.9975,-14.17891 l -0.25653,-0.297735 c -0.62918,-1.537359 -4.47351,-10.621075 -5.29557,-12.542306 18.43896,12.147199 33.73203,18.862145 45.43918,19.897662 13.03292,1.160978 23.19147,-5.950947 27.53016,-8.991961 z M 310.01197,53.298942 c 0.18727,-5.050253 2.30136,-9.737234 5.99403,-13.175226 3.69452,-3.449228 8.51446,-5.23189 13.56845,-5.070852 10.42071,0.372637 18.60935,9.169853 18.2517,19.57933 -0.19662,5.050254 -2.31072,9.737233 -5.99402,13.163991 -3.69453,3.467953 -8.50322,5.250616 -13.57969,5.080214 -10.40948,-0.383871 -18.58688,-9.158617 -18.24047,-19.577457 z"
   id="path15"
   inkscape:connector-curvature="0"
   style="opacity:0.65;fill:#ffffff;fill-rule:evenodd" />
</svg>