<?xml version="1.0" encoding="UTF-8" standalone="no"?>
<!-- Created with Inkscape (http://www.inkscape.org/) -->

<svg
   xmlns:svg="http://www.w3.org/2000/svg"
   xmlns="http://www.w3.org/2000/svg"
   xmlns:xlink="http://www.w3.org/1999/xlink"
   version="1.1"
   width="800"
   height="600"
   viewBox="0 0 800 600"
   id="svg2"
   xml:space="preserve"><defs
   id="defs86" />
<filter
   x="-0.020763284"
   y="-0.11037184"
   width="1.0415266"
   height="1.2207437"
   color-interpolation-filters="sRGB"
   id="filter7398">
	<feGaussianBlur
   stdDeviation="2.1573704"
   collect="always"
   id="feGaussianBlur7400" />
</filter>
<g
   id="svg2879">
	
		<linearGradient
   x1="459.9827"
   y1="-2.4730999"
   x2="459.9826"
   y2="599.0542"
   id="Gradient_1_"
   gradientUnits="userSpaceOnUse"
   gradientTransform="matrix(0.8333,0,0,-1,17.2235,599.0547)">
		<stop
   id="stop8"
   style="stop-color:#436400;stop-opacity:1"
   offset="0" />
		<stop
   id="stop10"
   style="stop-color:#78a028;stop-opacity:1"
   offset="1" />
	</linearGradient>
	<rect
   width="802.03601"
   height="601.52802"
   x="-0.47600001"
   y="0"
   id="Gradient"
   style="fill:url(#Gradient_1_)" />
	
		<image
   xlink:href="/Users/rlihm/Desktop/414C14C3.png"
   width="2560"
   height="1600"
   transform="matrix(-0.376,0,0,0.376,918.8577,4.882812e-4)"
   id="smoke"
   style="overflow:visible" />
	<g
   transform="matrix(1.7538571,0,0,1.7538571,317.21589,323.32312)"
   id="logo"
   style="opacity:0.65">
		<path
   d="m 242.08,105.266 c -0.471,-0.017 -0.919,0.15 -1.26,0.469 -0.341,0.321 -0.542,0.756 -0.556,1.225 -0.033,0.97 0.727,1.787 1.695,1.823 0.472,0.014 0.92,-0.153 1.263,-0.473 0.344,-0.322 0.54,-0.756 0.556,-1.224 0.033,-0.969 -0.727,-1.785 -1.698,-1.82 l 0,0 z m 0.288,1.924 c -0.432,0 -0.781,-0.233 -0.781,-0.52 0,-0.289 0.349,-0.521 0.781,-0.521 0.432,0 0.781,0.232 0.781,0.521 -0.001,0.287 -0.35,0.52 -0.781,0.52 z m 3.864,2.249 c 0.115,-0.076 0.199,-0.139 0.234,-0.153 l 0.038,-0.06 c -0.097,-0.61 -1.004,-3.562 -1.691,-4.273 -0.19,-0.193 -0.341,-0.384 -0.648,-0.564 -2.484,-1.447 -8.377,-2.32 -8.653,-2.36 l -0.047,0.013 -0.018,0.043 c 0,0 -0.022,1.221 -0.026,1.357 -0.602,-0.202 -4.978,-1.615 -9.079,-1.758 -3.479,-0.122 -8.545,-0.572 -15.258,3.556 l -0.198,0.122 c -3.158,1.971 -5.339,4.4 -6.478,7.222 -0.357,0.888 -0.839,2.892 -0.361,4.778 0.205,0.824 0.587,1.652 1.104,2.393 1.166,1.675 3.123,2.786 5.23,2.974 2.975,0.266 5.227,-1.07 6.029,-3.572 0.551,-1.727 0,-4.26 -2.111,-5.552 -1.718,-1.052 -3.565,-0.812 -4.637,-0.104 -0.929,0.616 -1.456,1.574 -1.446,2.626 0.021,1.866 1.629,2.858 2.785,2.861 0.336,0 0.672,-0.058 1.053,-0.183 0.135,-0.042 0.262,-0.092 0.402,-0.179 l 0.044,-0.027 0.028,-0.018 -0.009,0.006 c 0.263,-0.179 0.422,-0.472 0.422,-0.783 0,-0.086 -0.013,-0.172 -0.037,-0.259 -0.137,-0.473 -0.604,-0.758 -1.087,-0.67 l -0.065,0.015 -0.089,0.027 -0.127,0.045 c -0.267,0.066 -0.465,0.072 -0.509,0.074 -0.134,-0.009 -0.801,-0.208 -0.801,-0.937 v -0.011 c 0,-0.267 0.109,-0.455 0.167,-0.557 0.207,-0.324 0.774,-0.643 1.539,-0.576 1.006,0.087 1.729,0.602 2.208,1.574 0.446,0.904 0.33,2.015 -0.3,2.83 -0.624,0.806 -1.737,1.15 -3.217,0.99 -1.491,-0.164 -2.752,-1.023 -3.459,-2.36 -0.69,-1.306 -0.729,-2.855 -0.097,-4.044 1.51,-2.851 4.362,-2.821 5.926,-2.551 2.314,0.401 4.947,2.536 5.88,5.001 0.15,0.394 0.227,0.705 0.295,0.989 l 0.102,0.427 2.614,1.277 0.035,0.026 0.062,-0.006 0.011,-0.076 c -0.015,-0.058 -0.053,-0.112 -0.114,-0.844 -0.05,-0.649 -0.151,-2.427 0.744,-3.308 0.347,-0.345 0.877,-0.651 1.296,-0.749 1.712,-0.419 3.722,-0.13 5.622,2.069 0.983,1.136 1.464,1.654 1.703,1.886 l 0.085,0.076 0.099,0.073 c 0.079,0.043 3.267,1.511 3.267,1.511 l 0.065,-0.015 0.001,-0.068 c -0.02,-0.023 -2.02,-2.608 -1.664,-4.736 0.28,-1.695 1.629,-1.542 3.496,-1.331 0.609,0.072 1.302,0.15 2.02,0.167 2.005,0.013 4.164,-0.357 5.494,-0.94 0.861,-0.374 1.41,-0.623 1.755,-0.935 0.124,-0.103 0.188,-0.268 0.255,-0.449 l 0.046,-0.119 c 0.056,-0.145 0.138,-0.452 0.174,-0.619 0.014,-0.074 0.023,-0.152 -0.03,-0.193 l -0.184,0.034 c -0.585,0.352 -2.045,1.017 -3.41,1.046 -1.695,0.035 -5.11,-1.705 -5.465,-1.89 l -0.035,-0.04 c -0.084,-0.204 -0.596,-1.415 -0.706,-1.672 2.458,1.619 4.497,2.515 6.057,2.653 1.736,0.153 3.09,-0.796 3.669,-1.2 l 0,0 z m -6.739,-2.482 c 0.025,-0.674 0.307,-1.299 0.8,-1.757 0.492,-0.46 1.135,-0.697 1.808,-0.677 1.389,0.05 2.481,1.223 2.433,2.61 -0.025,0.673 -0.307,1.297 -0.799,1.755 -0.492,0.463 -1.133,0.7 -1.81,0.677 -1.387,-0.051 -2.479,-1.221 -2.432,-2.608 l 0,0 z"
   id="path5"
   style="fill:#ffffff" />
		<path
   d="m 221.176,121.535 c -1.108,0 -1.717,0.937 -1.717,1.584 v 0.831 c 0,0.954 0.778,1.544 1.501,1.544 h 2.536 c 0.32,0 0.386,0.209 0.386,0.385 v 0.536 c 0,0.057 -0.011,0.574 -0.386,0.574 h -3.458 c -0.344,0 -0.593,0.238 -0.593,0.566 v 0.148 c 0,0.326 0.249,0.563 0.593,0.563 h 3.646 c 0.954,0 1.57,-0.663 1.57,-1.69 v -0.897 c 0,-0.965 -0.694,-1.395 -1.381,-1.395 h -2.497 c -0.376,0 -0.546,-0.282 -0.546,-0.482 v -0.494 c 0,-0.313 0.209,-0.493 0.574,-0.493 h 2.761 c 0.339,0 0.594,-0.243 0.594,-0.565 v -0.148 c 0,-0.322 -0.259,-0.566 -0.605,-0.566 h -2.978 l 0,-0.001 z"
   id="path7"
   style="fill:#ffffff" />
		<path
   d="m 231.546,121.535 c -0.328,0 -0.591,0.266 -0.591,0.593 v 4.248 c 0,0.34 -0.278,0.614 -0.615,0.614 h -1.927 c -0.337,0 -0.613,-0.274 -0.613,-0.614 v -4.248 c 0,-0.327 -0.267,-0.593 -0.594,-0.593 h -0.187 c -0.333,0 -0.594,0.262 -0.594,0.593 v 4.408 c 0,1.026 0.807,1.771 1.92,1.771 h 2.061 c 1.111,0 1.918,-0.745 1.918,-1.771 v -4.408 c 0,-0.331 -0.26,-0.593 -0.592,-0.593 h -0.186 l 0,0 z"
   id="path9"
   style="fill:#ffffff" />
		<path
   d="m 235.237,121.535 c -1.108,0 -1.719,0.937 -1.719,1.584 v 0.831 c 0,0.954 0.78,1.544 1.503,1.544 h 2.536 c 0.32,0 0.387,0.209 0.387,0.385 v 0.536 c 0,0.057 -0.011,0.574 -0.387,0.574 h -3.461 c -0.342,0 -0.592,0.238 -0.592,0.566 v 0.148 c 0,0.326 0.251,0.563 0.592,0.563 h 3.649 c 0.953,0 1.571,-0.663 1.571,-1.69 v -0.897 c 0,-0.965 -0.696,-1.395 -1.383,-1.395 h -2.496 c -0.376,0 -0.546,-0.282 -0.546,-0.482 v -0.494 c 0,-0.313 0.208,-0.493 0.573,-0.493 h 2.763 c 0.338,0 0.592,-0.243 0.592,-0.565 v -0.148 c 0,-0.322 -0.259,-0.566 -0.606,-0.566 h -2.976 l 0,-0.001 z"
   id="path11"
   style="fill:#ffffff" />
		<path
   d="m 241.066,121.535 c -0.327,0 -0.576,0.244 -0.576,0.566 v 5.601 c 0,0.322 0.243,0.563 0.564,0.563 h 4.464 c 0.344,0 0.592,-0.237 0.592,-0.563 v -0.148 c 0,-0.327 -0.248,-0.566 -0.592,-0.566 0,0 -3.492,0 -3.657,0 0,-0.146 0,-1.283 0,-1.427 0.163,0 2.679,0 2.679,0 0.343,0 0.592,-0.241 0.592,-0.566 v -0.148 c 0,-0.327 -0.249,-0.565 -0.592,-0.565 0,0 -2.517,0 -2.679,0 0,-0.146 0,-1.322 0,-1.469 0.163,0 3.471,0 3.471,0 0.342,0 0.592,-0.235 0.592,-0.565 V 122.1 c 0,-0.327 -0.249,-0.566 -0.592,-0.566 l -4.266,10e-4 0,0 z"
   id="path13"
   style="fill:#ffffff" />
		<g
   id="g15">
			<path
   d="m 203.122,124.2 c -0.56,0 -1.015,0.435 -1.015,0.972 v 2.111 c 0,0.546 0.44,0.99 0.981,0.99 h 1.366 c 0.54,0 0.981,-0.444 0.981,-0.99 v -2.111 c 0,-0.537 -0.455,-0.972 -1.014,-0.972 h -1.299 z m -0.296,3 v -1.928 c 0,-0.227 0.185,-0.411 0.413,-0.411 h 1.065 c 0.222,0 0.411,0.189 0.411,0.411 v 1.928 c 0,0.227 -0.184,0.413 -0.411,0.413 h -1.072 c -0.229,-0.001 -0.406,-0.182 -0.406,-0.413 z"
   id="path17"
   style="fill:#ffffff" />
			<path
   d="m 208.528,124.174 c -0.394,0 -0.692,0.141 -0.93,0.257 -0.145,0.07 -0.271,0.13 -0.369,0.13 -0.043,0 -0.082,-0.02 -0.102,-0.052 l -0.091,-0.174 c -0.022,-0.046 -0.114,-0.135 -0.226,-0.135 h -0.135 c -0.13,0 -0.234,0.116 -0.234,0.258 v 5.357 c 0,0.168 0.133,0.301 0.301,0.301 h 0.116 c 0.167,0 0.302,-0.134 0.302,-0.301 v -1.778 c 0,-0.052 0.035,-0.109 0.069,-0.109 0.098,0 0.224,0.057 0.369,0.124 0.238,0.11 0.536,0.244 0.93,0.244 h 0.126 c 0.697,0 1.131,-0.398 1.131,-1.038 v -2.045 c 0,-0.631 -0.444,-1.039 -1.131,-1.039 h -0.126 l 0,0 z m -1.367,2.984 v -1.845 c 0,-0.254 0.2,-0.454 0.453,-0.454 h 0.999 c 0.254,0 0.453,0.199 0.453,0.454 v 1.845 c 0,0.251 -0.204,0.454 -0.453,0.454 h -0.999 c -0.249,0 -0.453,-0.203 -0.453,-0.454 z"
   id="path19"
   style="fill:#ffffff" />
			<path
   d="m 211.806,124.2 c -0.559,0 -1.013,0.435 -1.013,0.972 v 2.096 c 0,0.543 0.441,1.004 0.961,1.004 h 1.41 c 0.174,0 0.3,-0.12 0.3,-0.285 v -0.092 c 0,-0.165 -0.126,-0.283 -0.3,-0.283 h -1.158 c -0.324,0 -0.496,-0.16 -0.496,-0.463 0,0 0,-0.527 0,-0.613 0.095,0 2.089,0 2.089,0 0.336,0 0.535,-0.205 0.535,-0.552 v -0.812 c 0,-0.537 -0.455,-0.972 -1.012,-0.972 l -1.316,0 0,0 z m -0.295,1.065 c 0,-0.227 0.178,-0.405 0.404,-0.405 h 1.097 c 0.227,0 0.403,0.178 0.403,0.405 0,0 0,0.568 0,0.654 -0.09,0 -1.812,0 -1.904,0 0,-0.086 0,-0.654 0,-0.654 z"
   id="path21"
   style="fill:#ffffff" />
			<path
   d="m 217.036,124.174 c -0.392,0 -0.689,0.141 -0.928,0.255 -0.149,0.07 -0.276,0.132 -0.379,0.132 -0.047,0 -0.065,-0.006 -0.101,-0.067 l -0.082,-0.151 c -0.048,-0.095 -0.129,-0.143 -0.238,-0.143 h -0.115 c -0.141,0 -0.243,0.109 -0.243,0.258 v 3.514 c 0,0.167 0.131,0.3 0.301,0.3 h 0.117 c 0.166,0 0.301,-0.136 0.301,-0.3 v -2.659 c 0,-0.25 0.204,-0.454 0.453,-0.454 h 0.998 c 0.249,0 0.453,0.204 0.453,0.454 v 2.659 c 0,0.167 0.133,0.3 0.301,0.3 h 0.117 c 0.166,0 0.302,-0.136 0.302,-0.3 v -2.76 c 0,-0.631 -0.445,-1.038 -1.133,-1.038 h -0.124 l 0,0 z"
   id="path23"
   style="fill:#ffffff" />
		</g>
		<g
   id="g25">
			<path
   d="m 247.105,126.91 c 0.304,0 0.546,0.247 0.546,0.556 0,0.315 -0.242,0.558 -0.548,0.558 -0.305,0 -0.551,-0.244 -0.551,-0.558 0,-0.309 0.247,-0.556 0.551,-0.556 h 0.002 z m -0.003,0.086 c -0.245,0 -0.444,0.21 -0.444,0.47 0,0.265 0.199,0.472 0.447,0.472 0.247,0.002 0.445,-0.207 0.445,-0.469 0,-0.262 -0.198,-0.473 -0.445,-0.473 h -0.003 l 0,0 z m -0.104,0.794 H 246.9 v -0.619 c 0.052,-0.008 0.101,-0.016 0.175,-0.016 0.094,0 0.156,0.02 0.193,0.047 0.038,0.026 0.057,0.068 0.057,0.128 0,0.081 -0.055,0.131 -0.12,0.151 v 0.006 c 0.053,0.009 0.091,0.058 0.104,0.15 0.015,0.096 0.03,0.134 0.039,0.153 h -0.103 c -0.016,-0.019 -0.03,-0.077 -0.042,-0.158 -0.016,-0.08 -0.055,-0.11 -0.135,-0.11 h -0.069 v 0.268 l -0.001,0 z m 0,-0.343 h 0.071 c 0.083,0 0.151,-0.03 0.151,-0.107 0,-0.054 -0.039,-0.109 -0.151,-0.109 -0.032,0 -0.053,0.003 -0.071,0.006 v 0.21 z"
   id="path27"
   style="fill:#ffffff" />
		</g>
	</g>
</g>
<g
   id="svg6898">
	<defs
   id="defs28">
		
		
			
		
			
		
			
		
			
		
			
		
			
		
			
		
			
		
			
		
			
		
			
		
			
		
			
		
			
		
			
		
			
		
			
		
			
		
			
	</defs>
	
		
	<path
   d="m 0.876,45.5 h 798.247 c 0.483,0 0.877,0.337 0.877,0.753 v 552.994 c 0,0.416 -0.394,0.753 -0.877,0.753 H 0.876 C 0.392,600 0,599.663 0,599.247 V 46.253 C 0,45.837 0.392,45.5 0.876,45.5 z"
   id="rect6449"
   style="opacity:0.69899998;fill:#ffffff" />
	<g
   id="layer1"
   style="display:none">
		<g
   transform="translate(186.52019,246)"
   id="g7340"
   style="display:inline">
			<g
   transform="matrix(0.8942771,0,0,0.8942771,56.77392,-23.404824)"
   id="g7402">
				<g
   transform="matrix(0.53103,0,0,0.53103,432.13915,-331.92851)"
   id="g6408"
   style="filter:url(#filter7398)">
					<path
   d="m 176.726,185.833 c -6.023,0 -9.359,5.102 -9.359,8.637 V 199 c 0,5.189 4.244,8.413 8.189,8.413 h 13.815 c 1.729,0 2.091,1.132 2.091,2.09 v 2.925 c 0,0.311 -0.051,3.124 -2.091,3.124 h -18.855 c -1.867,0 -3.222,1.293 -3.222,3.073 v 0.809 c 0,1.768 1.343,3.074 3.222,3.074 h 19.888 c 5.19,0 8.551,-3.609 8.551,-9.21 v -4.891 c 0,-5.252 -3.784,-7.604 -7.529,-7.604 h -13.591 c -2.054,0 -2.976,-1.519 -2.976,-2.614 V 195.5 c 0,-1.705 1.133,-2.675 3.124,-2.675 h 15.059 c 1.843,0 3.224,-1.319 3.224,-3.074 v -0.808 c 0,-1.743 -1.407,-3.074 -3.286,-3.074 h -16.23"
   id="path56" />
					<path
   d="m 233.265,185.833 c -1.779,0 -3.222,1.444 -3.222,3.224 v 23.148 c 0,1.841 -1.507,3.335 -3.336,3.335 h -10.504 c -1.843,0 -3.336,-1.494 -3.336,-3.335 v -23.148 c 0,-1.78 -1.431,-3.224 -3.224,-3.224 h -1.02 c -1.791,0 -3.222,1.419 -3.222,3.224 v 24.031 c 0,5.588 4.392,9.646 10.453,9.646 h 11.226 c 6.062,0 10.455,-4.057 10.455,-9.646 v -24.031 c 0,-1.805 -1.419,-3.224 -3.222,-3.224 h -1.022"
   id="path58" />
					<path
   d="m 253.389,185.833 c -6.023,0 -9.359,5.102 -9.359,8.637 V 199 c 0,5.189 4.257,8.413 8.189,8.413 h 13.815 c 1.729,0 2.104,1.132 2.104,2.09 v 2.925 c 0,0.311 -0.062,3.124 -2.104,3.124 h -18.855 c -1.867,0 -3.222,1.293 -3.222,3.073 v 0.809 c 0,1.768 1.355,3.074 3.222,3.074 h 19.875 c 5.203,0 8.551,-3.609 8.551,-9.21 v -4.891 c 0,-5.252 -3.771,-7.604 -7.528,-7.604 h -13.591 c -2.054,0 -2.976,-1.519 -2.976,-2.614 V 195.5 c 0,-1.705 1.133,-2.675 3.111,-2.675 h 15.059 c 1.83,0 3.224,-1.319 3.224,-3.074 v -0.808 c 0,-1.743 -1.407,-3.074 -3.299,-3.074 h -16.217"
   id="path60" />
					<path
   d="m 285.162,185.833 c -1.781,0 -3.148,1.319 -3.148,3.073 v 30.528 c 0,1.743 1.318,3.074 3.087,3.074 h 24.329 c 1.867,0 3.224,-1.294 3.224,-3.074 v -0.809 c 0,-1.766 -1.345,-3.073 -3.224,-3.073 0,0 -19.028,0 -19.925,0 0,-0.797 0,-6.981 0,-7.778 0.897,0 14.598,0 14.598,0 1.867,0 3.222,-1.295 3.222,-3.087 v -0.797 c 0,-1.779 -1.355,-3.086 -3.222,-3.086 0,0 -13.702,0 -14.598,0 0,-0.797 0,-7.193 0,-7.99 0.897,0 18.917,0 18.917,0 1.867,0 3.222,-1.295 3.222,-3.074 v -0.808 c 0,-1.78 -1.355,-3.074 -3.222,-3.074 h -23.248"
   id="path62" />
					<path
   d="m 78.308,200.356 c -3.035,0 -5.513,2.365 -5.513,5.289 v 11.512 c 0,2.962 2.39,5.376 5.328,5.376 h 7.442 c 2.937,0 5.338,-2.414 5.338,-5.376 v -11.512 c 0,-2.912 -2.478,-5.289 -5.513,-5.289 h -7.082 l 0,0 z m -1.604,16.353 v -10.503 c 0,-1.233 1.008,-2.24 2.239,-2.24 h 5.799 c 1.207,0 2.24,1.021 2.24,2.24 v 10.503 c 0,1.233 -1.008,2.24 -2.24,2.24 h -5.848 c -1.232,0 -2.19,-0.983 -2.19,-2.24"
   id="path64" />
					<path
   d="m 107.779,200.219 c -2.153,0 -3.757,0.771 -5.065,1.394 -0.783,0.372 -1.468,0.696 -2.003,0.696 -0.224,0 -0.436,-0.1 -0.547,-0.274 l -0.485,-0.946 c -0.113,-0.249 -0.611,-0.734 -1.234,-0.734 h -0.722 c -0.697,0 -1.269,0.622 -1.269,1.406 v 29.185 c 0,0.909 0.709,1.631 1.631,1.631 h 0.635 c 0.895,0 1.629,-0.734 1.629,-1.631 v -9.683 c 0,-0.286 0.187,-0.585 0.362,-0.585 0.535,0 1.219,0.299 2.015,0.672 1.296,0.585 2.912,1.332 5.065,1.332 h 0.672 c 3.796,0 6.161,-2.165 6.161,-5.65 v -11.139 c 0,-3.435 -2.414,-5.662 -6.161,-5.662 h -0.685 l 0,0 v -0.012 z m -7.443,16.266 v -10.043 c 0,-1.382 1.084,-2.465 2.464,-2.465 h 5.427 c 1.382,0 2.464,1.083 2.464,2.465 v 10.043 c 0,1.356 -1.094,2.464 -2.464,2.464 H 102.8 c -1.355,0 -2.464,-1.107 -2.464,-2.464"
   id="path66" />
					<path
   d="m 125.651,200.356 c -3.037,0 -5.513,2.365 -5.513,5.289 v 11.424 c 0,2.962 2.402,5.476 5.24,5.476 h 7.679 c 0.946,0 1.631,-0.647 1.631,-1.543 v -0.498 c 0,-0.896 -0.685,-1.543 -1.631,-1.543 h -6.297 c -1.768,0 -2.702,-0.859 -2.702,-2.514 0,0 0,-2.875 0,-3.335 0.51,0 11.376,0 11.376,0 1.816,0 2.912,-1.12 2.912,-3.012 v -4.431 c 0,-2.912 -2.476,-5.289 -5.513,-5.289 h -7.169 l -0.013,-0.024 z m -1.606,5.799 c 0,-1.219 0.958,-2.19 2.19,-2.19 h 5.986 c 1.234,0 2.19,0.958 2.19,2.19 0,0 0,3.099 0,3.56 -0.485,0 -9.881,0 -10.366,0 0,-0.461 0,-3.56 0,-3.56"
   id="path68" />
					<path
   d="m 154.175,200.219 c -2.141,0 -3.759,0.759 -5.053,1.382 -0.81,0.372 -1.505,0.708 -2.067,0.708 -0.249,0 -0.348,-0.025 -0.535,-0.361 l -0.448,-0.822 c -0.249,-0.51 -0.685,-0.771 -1.281,-0.771 h -0.635 c -0.759,0 -1.306,0.585 -1.306,1.406 v 19.141 c 0,0.909 0.722,1.643 1.631,1.643 h 0.633 c 0.897,0 1.631,-0.734 1.631,-1.643 v -14.485 c 0,-1.357 1.108,-2.465 2.464,-2.465 h 5.427 c 1.357,0 2.464,1.107 2.464,2.465 v 14.485 c 0,0.909 0.722,1.643 1.631,1.643 h 0.635 c 0.895,0 1.631,-0.734 1.631,-1.643 v -15.021 c 0,-3.435 -2.416,-5.662 -6.161,-5.662 h -0.685"
   id="path70" />
					<path
   d="m 318.758,185.665 c -1.888,0 -3.422,1.534 -3.422,3.452 0,1.949 1.534,3.468 3.422,3.468 1.902,0 3.406,-1.519 3.406,-3.468 0,-1.918 -1.503,-3.452 -3.391,-3.452 h -0.015 m 0.014,0.538 c 1.534,0 2.762,1.304 2.762,2.93 0,1.626 -1.228,2.929 -2.762,2.914 -1.534,0 -2.776,-1.288 -2.776,-2.93 0,-1.61 1.242,-2.914 2.762,-2.914 h 0.014 m -0.66,3.267 h 0.43 c 0.491,0 0.736,0.184 0.829,0.675 0.076,0.507 0.169,0.859 0.261,0.982 h 0.644 c -0.06,-0.122 -0.152,-0.353 -0.245,-0.951 -0.076,-0.568 -0.306,-0.874 -0.644,-0.936 v -0.031 c 0.413,-0.122 0.751,-0.43 0.751,-0.936 0,-0.368 -0.123,-0.629 -0.352,-0.798 -0.23,-0.169 -0.615,-0.292 -1.197,-0.292 -0.461,0 -0.767,0.046 -1.09,0.093 v 3.851 h 0.613 v -1.657 m 0,-1.779 c 0.109,-0.016 0.247,-0.031 0.446,-0.031 0.691,0 0.936,0.337 0.936,0.676 0,0.475 -0.43,0.659 -0.936,0.659 h -0.446 v -1.304"
   id="path72" />
				</g>
				<g
   transform="matrix(0.53103,0,0,0.53103,432.13915,-332.92851)"
   id="g7354">
					<path
   d="m 176.726,185.832 c -6.023,0 -9.359,5.103 -9.359,8.637 v 4.53 c 0,5.19 4.244,8.413 8.189,8.413 h 13.815 c 1.729,0 2.091,1.133 2.091,2.091 v 2.924 c 0,0.312 -0.051,3.124 -2.091,3.124 h -18.855 c -1.867,0 -3.222,1.295 -3.222,3.074 v 0.809 c 0,1.767 1.343,3.074 3.222,3.074 h 19.888 c 5.19,0 8.551,-3.61 8.551,-9.21 v -4.891 c 0,-5.252 -3.784,-7.605 -7.529,-7.605 h -13.591 c -2.054,0 -2.976,-1.518 -2.976,-2.613 V 195.5 c 0,-1.705 1.133,-2.675 3.124,-2.675 h 15.059 c 1.843,0 3.224,-1.319 3.224,-3.074 v -0.809 c 0,-1.742 -1.407,-3.073 -3.286,-3.073 h -16.23"
   id="path7356"
   style="fill:#ededed" />
					<path
   d="m 233.264,185.832 c -1.779,0 -3.222,1.444 -3.222,3.224 v 23.148 c 0,1.843 -1.507,3.335 -3.336,3.335 h -10.504 c -1.843,0 -3.336,-1.493 -3.336,-3.335 v -23.148 c 0,-1.78 -1.431,-3.224 -3.224,-3.224 h -1.02 c -1.791,0 -3.222,1.419 -3.222,3.224 v 24.032 c 0,5.587 4.392,9.645 10.453,9.645 h 11.226 c 6.062,0 10.455,-4.057 10.455,-9.645 v -24.032 c 0,-1.805 -1.419,-3.224 -3.222,-3.224 h -1.022"
   id="path7358"
   style="fill:#ededed" />
					<path
   d="m 253.388,185.832 c -6.023,0 -9.359,5.103 -9.359,8.637 v 4.53 c 0,5.19 4.257,8.413 8.189,8.413 h 13.815 c 1.729,0 2.104,1.133 2.104,2.091 v 2.924 c 0,0.312 -0.062,3.124 -2.104,3.124 h -18.855 c -1.867,0 -3.222,1.295 -3.222,3.074 v 0.809 c 0,1.767 1.355,3.074 3.222,3.074 h 19.875 c 5.203,0 8.551,-3.61 8.551,-9.21 v -4.891 c 0,-5.252 -3.771,-7.605 -7.528,-7.605 h -13.591 c -2.054,0 -2.976,-1.518 -2.976,-2.613 V 195.5 c 0,-1.705 1.133,-2.675 3.111,-2.675 h 15.059 c 1.83,0 3.224,-1.319 3.224,-3.074 v -0.809 c 0,-1.742 -1.407,-3.073 -3.299,-3.073 h -16.217"
   id="path7360"
   style="fill:#ededed" />
					<path
   d="m 285.162,185.832 c -1.781,0 -3.148,1.319 -3.148,3.074 v 30.528 c 0,1.742 1.318,3.074 3.087,3.074 h 24.329 c 1.867,0 3.224,-1.295 3.224,-3.074 v -0.809 c 0,-1.767 -1.345,-3.074 -3.224,-3.074 0,0 -19.028,0 -19.925,0 0,-0.796 0,-6.981 0,-7.777 0.897,0 14.598,0 14.598,0 1.867,0 3.222,-1.295 3.222,-3.087 v -0.797 c 0,-1.78 -1.355,-3.087 -3.222,-3.087 0,0 -13.702,0 -14.598,0 0,-0.796 0,-7.193 0,-7.989 0.897,0 18.917,0 18.917,0 1.867,0 3.222,-1.294 3.222,-3.074 v -0.809 c 0,-1.78 -1.355,-3.073 -3.222,-3.073 h -23.248"
   id="path7362"
   style="fill:#ededed" />
					<path
   d="m 78.308,200.357 c -3.035,0 -5.513,2.364 -5.513,5.289 v 11.512 c 0,2.962 2.39,5.376 5.328,5.376 h 7.442 c 2.937,0 5.338,-2.414 5.338,-5.376 v -11.512 c 0,-2.913 -2.478,-5.289 -5.513,-5.289 h -7.082 l 0,0 z m -1.604,16.352 v -10.504 c 0,-1.232 1.008,-2.24 2.239,-2.24 h 5.799 c 1.207,0 2.24,1.02 2.24,2.24 v 10.504 c 0,1.232 -1.008,2.24 -2.24,2.24 h -5.848 c -1.232,10e-4 -2.19,-0.982 -2.19,-2.24"
   id="path7364"
   style="fill:#ededed" />
					<path
   d="m 107.778,200.219 c -2.153,0 -3.757,0.772 -5.065,1.394 -0.783,0.373 -1.468,0.697 -2.003,0.697 -0.224,0 -0.436,-0.1 -0.547,-0.273 l -0.485,-0.946 c -0.113,-0.249 -0.611,-0.734 -1.234,-0.734 h -0.722 c -0.697,0 -1.269,0.622 -1.269,1.406 v 29.184 c 0,0.908 0.709,1.63 1.631,1.63 h 0.635 c 0.895,0 1.629,-0.734 1.629,-1.63 v -9.683 c 0,-0.286 0.187,-0.585 0.362,-0.585 0.535,0 1.219,0.299 2.015,0.672 1.296,0.585 2.912,1.332 5.065,1.332 h 0.672 c 3.796,0 6.161,-2.165 6.161,-5.65 v -11.139 c 0,-3.435 -2.414,-5.662 -6.161,-5.662 h -0.685 l 0,0 v -0.013 z m -7.442,16.266 v -10.043 c 0,-1.381 1.084,-2.464 2.464,-2.464 h 5.427 c 1.382,0 2.464,1.083 2.464,2.464 v 10.043 c 0,1.357 -1.094,2.465 -2.464,2.465 H 102.8 c -1.355,0 -2.464,-1.108 -2.464,-2.465"
   id="path7366"
   style="fill:#ededed" />
					<path
   d="m 125.651,200.357 c -3.037,0 -5.513,2.364 -5.513,5.289 v 11.424 c 0,2.962 2.402,5.476 5.24,5.476 h 7.679 c 0.946,0 1.631,-0.648 1.631,-1.543 v -0.498 c 0,-0.897 -0.685,-1.543 -1.631,-1.543 h -6.297 c -1.768,0 -2.702,-0.859 -2.702,-2.514 0,0 0,-2.875 0,-3.336 0.51,0 11.376,0 11.376,0 1.816,0 2.912,-1.12 2.912,-3.012 v -4.43 c 0,-2.912 -2.476,-5.289 -5.513,-5.289 h -7.169 l -0.013,-0.024 0,0 z m -1.606,5.799 c 0,-1.219 0.958,-2.19 2.19,-2.19 h 5.986 c 1.234,0 2.19,0.958 2.19,2.19 0,0 0,3.099 0,3.56 -0.485,0 -9.881,0 -10.366,0 0,-0.461 0,-3.56 0,-3.56"
   id="path7368"
   style="fill:#ededed" />
					<path
   d="m 154.175,200.219 c -2.141,0 -3.759,0.76 -5.053,1.382 -0.81,0.373 -1.505,0.709 -2.067,0.709 -0.249,0 -0.348,-0.025 -0.535,-0.361 l -0.448,-0.822 c -0.249,-0.51 -0.685,-0.771 -1.281,-0.771 h -0.635 c -0.759,0 -1.306,0.584 -1.306,1.406 v 19.141 c 0,0.909 0.722,1.643 1.631,1.643 h 0.633 c 0.897,0 1.631,-0.734 1.631,-1.643 v -14.486 c 0,-1.356 1.108,-2.464 2.464,-2.464 h 5.427 c 1.357,0 2.464,1.107 2.464,2.464 v 14.486 c 0,0.909 0.722,1.643 1.631,1.643 h 0.635 c 0.895,0 1.631,-0.734 1.631,-1.643 v -15.021 c 0,-3.435 -2.416,-5.663 -6.161,-5.663 h -0.685"
   id="path7370"
   style="fill:#ededed" />
					<path
   d="m 318.757,185.666 c -1.888,0 -3.422,1.534 -3.422,3.452 0,1.948 1.534,3.467 3.422,3.467 1.902,0 3.406,-1.519 3.406,-3.467 0,-1.918 -1.503,-3.452 -3.391,-3.452 h -0.015 m 0.015,0.536 c 1.534,0 2.762,1.304 2.762,2.93 0,1.627 -1.228,2.93 -2.762,2.915 -1.534,0 -2.776,-1.288 -2.776,-2.93 0,-1.611 1.242,-2.915 2.762,-2.915 h 0.014 m -0.66,3.268 h 0.43 c 0.491,0 0.736,0.184 0.829,0.676 0.076,0.506 0.169,0.859 0.261,0.982 h 0.644 c -0.06,-0.123 -0.152,-0.353 -0.245,-0.951 -0.076,-0.568 -0.306,-0.875 -0.644,-0.937 v -0.03 c 0.413,-0.123 0.751,-0.43 0.751,-0.937 0,-0.368 -0.123,-0.628 -0.352,-0.797 -0.23,-0.17 -0.615,-0.292 -1.197,-0.292 -0.461,0 -0.767,0.046 -1.09,0.093 v 3.851 h 0.613 v -1.658 m 0,-1.779 c 0.109,-0.015 0.247,-0.031 0.446,-0.031 0.691,0 0.936,0.337 0.936,0.674 0,0.476 -0.43,0.66 -0.936,0.66 h -0.446 v -1.303"
   id="path7372"
   style="fill:#ededed" />
				</g>
			</g>
		</g>
	</g>
</g>
</svg>