<?xml version="1.0" encoding="utf-8"?>
<!-- Generator: Adobe Illustrator 15.0.2, SVG Export Plug-In . SVG Version: 6.00 Build 0)  -->
<!DOCTYPE svg PUBLIC "-//W3C//DTD SVG 1.1//EN" "http://www.w3.org/Graphics/SVG/1.1/DTD/svg11.dtd">
<svg version="1.1" id="svg2" xmlns:svg="http://www.w3.org/2000/svg"
	 xmlns="http://www.w3.org/2000/svg" xmlns:xlink="http://www.w3.org/1999/xlink" x="0px" y="0px" width="800px" height="600px"
	 viewBox="0 0 800 600" enable-background="new 0 0 800 600" xml:space="preserve">
<filter  height="1.2207437" width="1.0415266" y="-0.11037184" x="-0.020763284" id="filter7398" color-interpolation-filters="sRGB">
	<feGaussianBlur  id="feGaussianBlur7400" collect="always" stdDeviation="2.1573704"></feGaussianBlur>
</filter>
<g id="svg2879">
	
		<linearGradient id="Gradient_1_" gradientUnits="userSpaceOnUse" x1="418.6545" y1="-245.3647" x2="418.6544" y2="356.1636" gradientTransform="matrix(0.8333 0 0 -1 51.6776 356.1641)">
		<stop  offset="0" style="stop-color:#436400"/>
		<stop  offset="1" style="stop-color:#78A028"/>
	</linearGradient>
	<rect id="Gradient" x="-0.476" fill="url(#Gradient_1_)" width="802.036" height="601.528"/>
	
		<image overflow="visible" enable-background="new    " width="2560" height="1600" id="smoke" xlink:href="../../../../../../Desktop/414C14C3.png"  transform="matrix(-0.376 0 0 0.376 918.8577 0.002)">
	</image>
	<g id="logo" transform="matrix(1.7538571,0,0,1.7538571,317.21589,323.32312)" opacity="0.65">
		<path id="path5" fill="#FFFFFF" d="M242.08,105.266c-0.471-0.017-0.919,0.15-1.26,0.469c-0.341,0.321-0.542,0.756-0.556,1.225
			c-0.033,0.97,0.727,1.787,1.695,1.823c0.472,0.014,0.92-0.153,1.263-0.473c0.344-0.322,0.54-0.756,0.556-1.224
			C243.811,106.117,243.051,105.301,242.08,105.266L242.08,105.266L242.08,105.266z M242.368,107.19
			c-0.432,0-0.781-0.233-0.781-0.52c0-0.289,0.349-0.521,0.781-0.521c0.432,0,0.781,0.232,0.781,0.521
			C243.148,106.957,242.799,107.19,242.368,107.19z M246.232,109.439c0.115-0.076,0.199-0.139,0.234-0.153l0.038-0.06
			c-0.097-0.61-1.004-3.562-1.691-4.273c-0.19-0.193-0.341-0.384-0.648-0.564c-2.484-1.447-8.377-2.32-8.653-2.36l-0.047,0.013
			l-0.018,0.043c0,0-0.022,1.221-0.026,1.357c-0.602-0.202-4.978-1.615-9.079-1.758c-3.479-0.122-8.545-0.572-15.258,3.556
			l-0.198,0.122c-3.158,1.971-5.339,4.4-6.478,7.222c-0.357,0.888-0.839,2.892-0.361,4.778c0.205,0.824,0.587,1.652,1.104,2.393
			c1.166,1.675,3.123,2.786,5.23,2.974c2.975,0.266,5.227-1.07,6.029-3.572c0.551-1.727,0-4.26-2.111-5.552
			c-1.718-1.052-3.565-0.812-4.637-0.104c-0.929,0.616-1.456,1.574-1.446,2.626c0.021,1.866,1.629,2.858,2.785,2.861
			c0.336,0,0.672-0.058,1.053-0.183c0.135-0.042,0.262-0.092,0.402-0.179l0.044-0.027l0.028-0.018l-0.009,0.006
			c0.263-0.179,0.422-0.472,0.422-0.783c0-0.086-0.013-0.172-0.037-0.259c-0.137-0.473-0.604-0.758-1.087-0.67l-0.065,0.015
			l-0.089,0.027l-0.127,0.045c-0.267,0.066-0.465,0.072-0.509,0.074c-0.134-0.009-0.801-0.208-0.801-0.937v-0.011
			c0-0.267,0.109-0.455,0.167-0.557c0.207-0.324,0.774-0.643,1.539-0.576c1.006,0.087,1.729,0.602,2.208,1.574
			c0.446,0.904,0.33,2.015-0.3,2.83c-0.624,0.806-1.737,1.15-3.217,0.99c-1.491-0.164-2.752-1.023-3.459-2.36
			c-0.69-1.306-0.729-2.855-0.097-4.044c1.51-2.851,4.362-2.821,5.926-2.551c2.314,0.401,4.947,2.536,5.88,5.001
			c0.15,0.394,0.227,0.705,0.295,0.989l0.102,0.427l2.614,1.277l0.035,0.026l0.062-0.006l0.011-0.076
			c-0.015-0.058-0.053-0.112-0.114-0.844c-0.05-0.649-0.151-2.427,0.744-3.308c0.347-0.345,0.878-0.651,1.296-0.749
			c1.712-0.419,3.722-0.13,5.622,2.069c0.983,1.136,1.464,1.654,1.703,1.886l0.085,0.076l0.099,0.073
			c0.079,0.043,3.267,1.511,3.267,1.511l0.065-0.015l0.001-0.068c-0.02-0.023-2.02-2.608-1.664-4.736
			c0.28-1.695,1.629-1.542,3.496-1.331c0.609,0.072,1.302,0.15,2.02,0.167c2.005,0.013,4.164-0.357,5.494-0.94
			c0.861-0.374,1.41-0.623,1.755-0.935c0.124-0.103,0.188-0.268,0.255-0.449l0.046-0.119c0.056-0.145,0.138-0.452,0.174-0.619
			c0.014-0.074,0.023-0.152-0.03-0.193l-0.184,0.034c-0.585,0.352-2.045,1.017-3.41,1.046c-1.695,0.035-5.11-1.705-5.465-1.89
			l-0.035-0.04c-0.084-0.204-0.596-1.415-0.705-1.672c2.458,1.619,4.497,2.515,6.057,2.653
			C244.299,110.792,245.653,109.843,246.232,109.439L246.232,109.439L246.232,109.439z M239.493,106.957
			c0.025-0.674,0.307-1.299,0.8-1.757c0.492-0.46,1.135-0.697,1.808-0.677c1.389,0.05,2.481,1.223,2.433,2.61
			c-0.025,0.673-0.307,1.297-0.799,1.755c-0.492,0.463-1.133,0.7-1.81,0.677C240.538,109.514,239.446,108.344,239.493,106.957
			L239.493,106.957z"/>
		<path id="path7" fill="#FFFFFF" d="M221.176,121.535c-1.108,0-1.717,0.937-1.717,1.584v0.831c0,0.954,0.778,1.544,1.501,1.544
			h2.536c0.32,0,0.386,0.209,0.386,0.385v0.536c0,0.057-0.011,0.574-0.386,0.574h-3.458c-0.344,0-0.593,0.238-0.593,0.566v0.148
			c0,0.326,0.249,0.563,0.593,0.563h3.646c0.954,0,1.57-0.663,1.57-1.69v-0.897c0-0.965-0.694-1.395-1.381-1.395h-2.497
			c-0.376,0-0.546-0.282-0.546-0.482v-0.494c0-0.313,0.209-0.493,0.574-0.493h2.761c0.339,0,0.594-0.243,0.594-0.565v-0.148
			c0-0.322-0.259-0.566-0.605-0.566L221.176,121.535L221.176,121.535L221.176,121.535z"/>
		<path id="path9" fill="#FFFFFF" d="M231.546,121.535c-0.329,0-0.591,0.266-0.591,0.593v4.248c0,0.34-0.278,0.614-0.615,0.614
			h-1.927c-0.337,0-0.613-0.275-0.613-0.614v-4.248c0-0.327-0.267-0.593-0.594-0.593h-0.187c-0.333,0-0.594,0.262-0.594,0.593v4.408
			c0,1.026,0.807,1.771,1.92,1.771h2.061c1.111,0,1.918-0.745,1.918-1.771v-4.408c0-0.331-0.26-0.593-0.592-0.593H231.546
			L231.546,121.535z"/>
		<path id="path11" fill="#FFFFFF" d="M235.237,121.535c-1.108,0-1.719,0.937-1.719,1.584v0.831c0,0.954,0.78,1.544,1.503,1.544
			h2.536c0.32,0,0.387,0.209,0.387,0.385v0.536c0,0.057-0.011,0.574-0.387,0.574h-3.461c-0.342,0-0.592,0.238-0.592,0.566v0.148
			c0,0.326,0.251,0.563,0.592,0.563h3.649c0.953,0,1.571-0.663,1.571-1.69v-0.897c0-0.965-0.696-1.395-1.383-1.395h-2.496
			c-0.376,0-0.546-0.282-0.546-0.482v-0.494c0-0.313,0.208-0.493,0.573-0.493h2.763c0.338,0,0.592-0.243,0.592-0.565v-0.148
			c0-0.322-0.259-0.566-0.606-0.566L235.237,121.535L235.237,121.535z"/>
		<path id="path13" fill="#FFFFFF" d="M241.066,121.535c-0.327,0-0.576,0.244-0.576,0.566v5.601c0,0.322,0.243,0.563,0.564,0.563
			h4.464c0.344,0,0.592-0.237,0.592-0.563v-0.148c0-0.327-0.248-0.566-0.592-0.566c0,0-3.492,0-3.657,0c0-0.146,0-1.283,0-1.427
			c0.163,0,2.679,0,2.679,0c0.343,0,0.592-0.241,0.592-0.566v-0.148c0-0.327-0.249-0.565-0.592-0.565c0,0-2.517,0-2.679,0
			c0-0.146,0-1.322,0-1.469c0.163,0,3.471,0,3.471,0c0.342,0,0.592-0.235,0.592-0.565V122.1c0-0.327-0.249-0.566-0.592-0.566
			L241.066,121.535L241.066,121.535L241.066,121.535z"/>
		<g id="g15">
			<path id="path17" fill="#FFFFFF" d="M203.122,124.2c-0.56,0-1.015,0.435-1.015,0.972v2.111c0,0.546,0.44,0.99,0.981,0.99h1.366
				c0.54,0,0.981-0.444,0.981-0.99v-2.111c0-0.537-0.455-0.972-1.015-0.972H203.122z M202.826,127.2v-1.928
				c0-0.227,0.185-0.411,0.413-0.411h1.065c0.222,0,0.411,0.189,0.411,0.411v1.928c0,0.227-0.184,0.413-0.411,0.413h-1.072
				C203.003,127.612,202.826,127.431,202.826,127.2L202.826,127.2z"/>
			<path id="path19" fill="#FFFFFF" d="M208.528,124.174c-0.394,0-0.692,0.141-0.93,0.257c-0.145,0.07-0.271,0.13-0.369,0.13
				c-0.043,0-0.082-0.02-0.102-0.052l-0.091-0.174c-0.022-0.046-0.114-0.135-0.226-0.135h-0.135c-0.13,0-0.234,0.116-0.234,0.258
				v5.357c0,0.168,0.133,0.301,0.301,0.301h0.116c0.167,0,0.302-0.134,0.302-0.301v-1.778c0-0.052,0.035-0.109,0.068-0.109
				c0.098,0,0.224,0.057,0.369,0.124c0.238,0.11,0.536,0.244,0.93,0.244h0.126c0.697,0,1.131-0.398,1.131-1.038v-2.045
				c0-0.631-0.444-1.039-1.131-1.039H208.528L208.528,124.174z M207.161,127.158v-1.845c0-0.254,0.2-0.454,0.453-0.454h0.999
				c0.254,0,0.453,0.199,0.453,0.454v1.845c0,0.251-0.204,0.454-0.453,0.454h-0.999
				C207.365,127.612,207.161,127.409,207.161,127.158z"/>
			<path id="path21" fill="#FFFFFF" d="M211.806,124.2c-0.559,0-1.013,0.435-1.013,0.972v2.096c0,0.543,0.441,1.004,0.961,1.004
				h1.41c0.174,0,0.3-0.12,0.3-0.285v-0.092c0-0.165-0.126-0.283-0.3-0.283h-1.158c-0.324,0-0.496-0.16-0.496-0.463
				c0,0,0-0.527,0-0.613c0.095,0,2.089,0,2.089,0c0.336,0,0.535-0.205,0.535-0.552v-0.812c0-0.537-0.455-0.972-1.012-0.972H211.806
				L211.806,124.2L211.806,124.2z M211.511,125.265c0-0.227,0.178-0.405,0.404-0.405h1.097c0.227,0,0.403,0.178,0.403,0.405
				c0,0,0,0.569,0,0.654c-0.09,0-1.812,0-1.904,0C211.511,125.833,211.511,125.265,211.511,125.265z"/>
			<path id="path23" fill="#FFFFFF" d="M217.036,124.174c-0.392,0-0.689,0.141-0.928,0.255c-0.149,0.07-0.276,0.132-0.379,0.132
				c-0.047,0-0.065-0.006-0.101-0.067l-0.082-0.151c-0.048-0.095-0.129-0.143-0.238-0.143h-0.115c-0.141,0-0.243,0.109-0.243,0.258
				v3.514c0,0.167,0.131,0.3,0.301,0.3h0.117c0.166,0,0.301-0.136,0.301-0.3v-2.659c0-0.25,0.204-0.454,0.453-0.454h0.998
				c0.249,0,0.453,0.204,0.453,0.454v2.659c0,0.167,0.133,0.3,0.301,0.3h0.117c0.167,0,0.302-0.136,0.302-0.3v-2.76
				c0-0.631-0.445-1.038-1.133-1.038H217.036L217.036,124.174L217.036,124.174z"/>
		</g>
		<g id="g25">
			<path id="path27" fill="#FFFFFF" d="M247.105,126.91c0.304,0,0.546,0.247,0.546,0.556c0,0.315-0.242,0.558-0.548,0.558
				c-0.305,0-0.551-0.244-0.551-0.558c0-0.309,0.247-0.556,0.551-0.556H247.105z M247.102,126.996c-0.245,0-0.444,0.21-0.444,0.47
				c0,0.265,0.199,0.472,0.447,0.472c0.247,0.002,0.445-0.207,0.445-0.469c0-0.262-0.198-0.473-0.445-0.473H247.102L247.102,126.996
				z M246.998,127.79H246.9v-0.619c0.052-0.008,0.101-0.016,0.175-0.016c0.094,0,0.156,0.02,0.193,0.047
				c0.038,0.026,0.057,0.068,0.057,0.128c0,0.081-0.055,0.131-0.12,0.151v0.006c0.053,0.009,0.091,0.058,0.104,0.15
				c0.015,0.096,0.03,0.134,0.039,0.153h-0.103c-0.016-0.019-0.03-0.077-0.042-0.158c-0.016-0.08-0.055-0.11-0.135-0.11h-0.069
				L246.998,127.79L246.998,127.79L246.998,127.79z M246.998,127.447h0.071c0.083,0,0.151-0.03,0.151-0.107
				c0-0.054-0.039-0.109-0.151-0.109c-0.032,0-0.053,0.003-0.071,0.006V127.447L246.998,127.447z"/>
		</g>
	</g>
</g>
<g id="svg6898">
	<path id="rect6449" opacity="0.699" fill="#FFFFFF" enable-background="new    " d="M0.876,45.5h798.245
		c0.483,0,0.878,0.337,0.878,0.753v552.994c0,0.416-0.395,0.753-0.878,0.753H0.876C0.392,600,0,599.663,0,599.247V46.253
		C0,45.837,0.392,45.5,0.876,45.5z"/>
	<g id="layer1" display="none">
		<g id="g7340" transform="translate(186.52019,246)" display="inline">
			<g id="g7402" transform="matrix(0.8942771,0,0,0.8942771,56.77392,-23.404824)">
				<g id="g6408" transform="matrix(0.53103,0,0,0.53103,432.13915,-331.92851)" filter="url(#filter7398)">
					<path d="M176.726,185.833c-6.023,0-9.359,5.102-9.359,8.637V199c0,5.189,4.244,8.413,8.189,8.413h13.815
						c1.729,0,2.091,1.132,2.091,2.09v2.925c0,0.311-0.051,3.124-2.091,3.124h-18.855c-1.867,0-3.222,1.293-3.222,3.073v0.809
						c0,1.768,1.343,3.072,3.222,3.072h19.888c5.19,0,8.551-3.609,8.551-9.21v-4.891c0-5.252-3.784-7.604-7.529-7.604h-13.591
						c-2.054,0-2.976-1.521-2.976-2.615V195.5c0-1.705,1.133-2.675,3.124-2.675h15.059c1.843,0,3.224-1.317,3.224-3.072v-0.808
						c0-1.743-1.407-3.074-3.286-3.074H176.75"/>
					<path d="M233.265,185.833c-1.779,0-3.222,1.446-3.222,3.224v23.148c0,1.842-1.507,3.334-3.336,3.334h-10.504
						c-1.843,0-3.336-1.493-3.336-3.334v-23.148c0-1.78-1.431-3.224-3.224-3.224h-1.02c-1.791,0-3.222,1.419-3.222,3.224v24.031
						c0,5.587,4.392,9.646,10.453,9.646h11.226c6.062,0,10.455-4.057,10.455-9.646v-24.031c0-1.807-1.419-3.224-3.218-3.224h-1.022"
						/>
					<path d="M253.389,185.833c-6.023,0-9.359,5.102-9.359,8.637V199c0,5.189,4.257,8.413,8.189,8.413h13.815
						c1.729,0,2.104,1.132,2.104,2.09v2.925c0,0.311-0.062,3.124-2.104,3.124h-18.855c-1.867,0-3.222,1.293-3.222,3.073v0.809
						c0,1.768,1.355,3.072,3.222,3.072h19.875c5.203,0,8.551-3.609,8.551-9.21v-4.891c0-5.252-3.771-7.604-7.526-7.604h-13.593
						c-2.05,0-2.976-1.521-2.976-2.615V195.5c0-1.705,1.133-2.675,3.111-2.675h15.059c1.83,0,3.224-1.317,3.224-3.072v-0.808
						c0-1.743-1.407-3.074-3.299-3.074h-16.219"/>
					<path d="M285.162,185.833c-1.781,0-3.148,1.319-3.148,3.073v30.528c0,1.743,1.318,3.072,3.087,3.072h24.329
						c1.867,0,3.224-1.292,3.224-3.072v-0.809c0-1.766-1.345-3.073-3.224-3.073c0,0-19.028,0-19.925,0c0-0.797,0-6.979,0-7.777
						c0.897,0,14.596,0,14.596,0c1.865,0,3.22-1.296,3.22-3.088v-0.797c0-1.779-1.355-3.086-3.22-3.086c0,0-13.704,0-14.596,0
						c0-0.797,0-7.193,0-7.99c0.897,0,18.917,0,18.917,0c1.867,0,3.222-1.297,3.222-3.074v-0.808c0-1.78-1.355-3.072-3.222-3.072
						h-23.248"/>
					<path d="M78.308,200.356c-3.035,0-5.513,2.365-5.513,5.289v11.512c0,2.962,2.39,5.376,5.328,5.376h7.442
						c2.937,0,5.334-2.414,5.334-5.376v-11.512c0-2.912-2.478-5.289-5.509-5.289H78.308L78.308,200.356z M76.704,216.709v-10.503
						c0-1.233,1.008-2.24,2.237-2.24h5.797c1.207,0,2.244,1.021,2.244,2.24v10.503c0,1.235-1.008,2.24-2.244,2.24h-5.844
						C77.662,218.949,76.704,217.966,76.704,216.709"/>
					<path d="M107.779,200.219c-2.153,0-3.757,0.771-5.065,1.394c-0.783,0.37-1.468,0.694-2.003,0.694
						c-0.224,0-0.436-0.1-0.547-0.272l-0.485-0.946c-0.113-0.249-0.611-0.734-1.234-0.734h-0.722c-0.697,0-1.269,0.622-1.269,1.407
						v29.186c0,0.909,0.709,1.631,1.631,1.631h0.635c0.895,0,1.629-0.734,1.629-1.631v-9.685c0-0.286,0.187-0.584,0.362-0.584
						c0.535,0,1.219,0.298,2.015,0.671c1.296,0.585,2.912,1.334,5.065,1.334h0.672c3.796,0,6.161-2.165,6.161-5.651v-11.14
						c0-3.435-2.414-5.662-6.161-5.662h-0.687l0,0v-0.01L107.779,200.219L107.779,200.219z M100.336,216.485v-10.043
						c0-1.382,1.084-2.465,2.464-2.465h5.427c1.382,0,2.464,1.083,2.464,2.465v10.043c0,1.354-1.094,2.464-2.464,2.464H102.8
						C101.445,218.949,100.336,217.842,100.336,216.485"/>
					<path d="M125.651,200.356c-3.037,0-5.513,2.365-5.513,5.289v11.424c0,2.96,2.402,5.474,5.24,5.474h7.679
						c0.946,0,1.631-0.647,1.631-1.541v-0.5c0-0.896-0.685-1.541-1.631-1.541h-6.297c-1.768,0-2.702-0.861-2.702-2.514
						c0,0,0-2.876,0-3.335c0.51,0,11.376,0,11.376,0c1.816,0,2.912-1.12,2.912-3.012v-4.433c0-2.912-2.476-5.289-5.513-5.289h-7.169
						L125.651,200.356z M124.045,206.155c0-1.219,0.958-2.19,2.19-2.19h5.986c1.234,0,2.19,0.958,2.19,2.19c0,0,0,3.099,0,3.56
						c-0.485,0-9.881,0-10.366,0C124.045,209.254,124.045,206.155,124.045,206.155"/>
					<path d="M154.175,200.219c-2.141,0-3.759,0.759-5.057,1.382c-0.806,0.372-1.501,0.706-2.067,0.706
						c-0.249,0-0.348-0.025-0.535-0.361l-0.448-0.822c-0.249-0.51-0.685-0.771-1.281-0.771h-0.631c-0.759,0-1.306,0.585-1.306,1.408
						v19.139c0,0.911,0.722,1.643,1.631,1.643h0.629c0.901,0,1.635-0.732,1.635-1.643v-14.483c0-1.357,1.104-2.467,2.464-2.467
						h5.427c1.357,0,2.464,1.107,2.464,2.467v14.483c0,0.911,0.722,1.643,1.631,1.643h0.635c0.895,0,1.631-0.732,1.631-1.643v-15.02
						c0-3.434-2.416-5.661-6.161-5.661h-0.685"/>
					<path d="M318.758,185.665c-1.888,0-3.422,1.534-3.422,3.452c0,1.949,1.534,3.468,3.422,3.468c1.902,0,3.406-1.519,3.406-3.468
						c0-1.918-1.503-3.452-3.391-3.452H318.758 M318.772,186.203c1.534,0,2.762,1.304,2.762,2.93c0,1.626-1.228,2.928-2.762,2.914
						c-1.534,0-2.776-1.288-2.776-2.93c0-1.61,1.242-2.914,2.762-2.914H318.772 M318.112,189.47h0.43
						c0.491,0,0.736,0.183,0.829,0.675c0.076,0.507,0.169,0.859,0.261,0.982h0.644c-0.06-0.122-0.152-0.353-0.245-0.951
						c-0.076-0.568-0.306-0.874-0.644-0.936v-0.031c0.413-0.122,0.751-0.43,0.751-0.938c0-0.366-0.123-0.627-0.352-0.798
						c-0.23-0.169-0.615-0.292-1.197-0.292c-0.461,0-0.767,0.046-1.09,0.095v3.851h0.613V189.47 M318.112,187.691
						c0.109-0.016,0.247-0.031,0.446-0.031c0.691,0,0.936,0.337,0.936,0.678c0,0.475-0.43,0.658-0.936,0.658h-0.446V187.691"/>
				</g>
				<g id="g7354" transform="matrix(0.53103,0,0,0.53103,432.13915,-332.92851)">
					<path id="path7356" fill="#EDEDED" d="M176.726,185.832c-6.023,0-9.359,5.103-9.359,8.637v4.53c0,5.19,4.244,8.413,8.189,8.413
						h13.815c1.729,0,2.091,1.133,2.091,2.091v2.924c0,0.312-0.051,3.124-2.091,3.124h-18.855c-1.867,0-3.222,1.295-3.222,3.074
						v0.807c0,1.769,1.343,3.074,3.222,3.074h19.888c5.19,0,8.551-3.61,8.551-9.21v-4.891c0-5.252-3.784-7.607-7.529-7.607h-13.591
						c-2.054,0-2.976-1.518-2.976-2.613V195.5c0-1.706,1.133-2.675,3.124-2.675h15.059c1.843,0,3.224-1.319,3.224-3.073v-0.808
						c0-1.744-1.407-3.073-3.286-3.073H176.75"/>
					<path id="path7358" fill="#EDEDED" d="M233.262,185.832c-1.781,0-3.22,1.444-3.22,3.224v23.148c0,1.843-1.507,3.333-3.34,3.333
						h-10.5c-1.847,0-3.34-1.493-3.34-3.333v-23.148c0-1.782-1.431-3.224-3.224-3.224h-1.02c-1.789,0-3.218,1.419-3.218,3.224v24.03
						c0,5.587,4.388,9.647,10.453,9.647h11.226c6.062,0,10.455-4.057,10.455-9.647v-24.03c0-1.807-1.419-3.224-3.222-3.224h-1.022"
						/>
					<path id="path7360" fill="#EDEDED" d="M253.386,185.832c-6.021,0-9.361,5.103-9.361,8.637v4.53c0,5.19,4.257,8.413,8.193,8.413
						h13.815c1.725,0,2.104,1.133,2.104,2.091v2.924c0,0.312-0.062,3.124-2.104,3.124h-18.855c-1.867,0-3.222,1.295-3.222,3.074
						v0.807c0,1.769,1.355,3.074,3.222,3.074h19.875c5.203,0,8.551-3.61,8.551-9.21v-4.891c0-5.252-3.771-7.607-7.528-7.607h-13.591
						c-2.054,0-2.976-1.518-2.976-2.613V195.5c0-1.706,1.133-2.675,3.111-2.675h15.059c1.828,0,3.22-1.319,3.22-3.073v-0.808
						c0-1.744-1.407-3.073-3.296-3.073h-16.217"/>
					<path id="path7362" fill="#EDEDED" d="M285.162,185.832c-1.781,0-3.148,1.319-3.148,3.074v30.526
						c0,1.743,1.318,3.074,3.087,3.074h24.329c1.867,0,3.224-1.297,3.224-3.074v-0.807c0-1.767-1.345-3.074-3.224-3.074
						c0,0-19.028,0-19.925,0c0-0.796,0-6.981,0-7.777c0.897,0,14.596,0,14.596,0c1.865,0,3.22-1.295,3.22-3.087v-0.797
						c0-1.78-1.355-3.089-3.22-3.089c0,0-13.704,0-14.596,0c0-0.796,0-7.191,0-7.988c0.897,0,18.917,0,18.917,0
						c1.867,0,3.222-1.293,3.222-3.073v-0.809c0-1.78-1.355-3.073-3.222-3.073h-23.248"/>
					<path id="path7364" fill="#EDEDED" d="M78.308,200.357c-3.035,0-5.513,2.366-5.513,5.289v11.514
						c0,2.961,2.39,5.374,5.328,5.374h7.442c2.937,0,5.334-2.413,5.334-5.374v-11.514c0-2.913-2.478-5.289-5.509-5.289H78.308
						L78.308,200.357z M76.704,216.709v-10.504c0-1.232,1.008-2.24,2.237-2.24h5.797c1.207,0,2.244,1.02,2.244,2.24v10.504
						c0,1.232-1.008,2.24-2.244,2.24h-5.844C77.662,218.951,76.704,217.968,76.704,216.709"/>
					<path id="path7366" fill="#EDEDED" d="M107.776,200.219c-2.151,0-3.755,0.772-5.067,1.394
						c-0.779,0.373-1.464,0.697-2.003,0.697c-0.222,0-0.436-0.1-0.547-0.273l-0.481-0.946c-0.113-0.249-0.613-0.732-1.234-0.732
						h-0.726c-0.697,0-1.269,0.621-1.269,1.406v29.186c0,0.907,0.709,1.63,1.631,1.63h0.635c0.897,0,1.629-0.734,1.629-1.63v-9.685
						c0-0.286,0.187-0.585,0.362-0.585c0.539,0,1.219,0.299,2.015,0.672c1.3,0.585,2.912,1.332,5.065,1.332h0.672
						c3.796,0,6.161-2.164,6.161-5.65v-11.139c0-3.435-2.414-5.662-6.161-5.662h-0.685l0,0v-0.014H107.776z M100.336,216.485
						v-10.041c0-1.382,1.084-2.466,2.464-2.466h5.427c1.382,0,2.464,1.084,2.464,2.466v10.041c0,1.357-1.094,2.466-2.464,2.466
						H102.8C101.445,218.951,100.336,217.842,100.336,216.485"/>
					<path id="path7368" fill="#EDEDED" d="M125.651,200.357c-3.037,0-5.513,2.366-5.513,5.289v11.424
						c0,2.962,2.402,5.476,5.24,5.476h7.679c0.946,0,1.631-0.648,1.631-1.543v-0.498c0-0.897-0.685-1.543-1.631-1.543h-6.297
						c-1.768,0-2.702-0.859-2.702-2.514c0,0,0-2.875,0-3.336c0.51,0,11.376,0,11.376,0c1.816,0,2.912-1.121,2.912-3.014v-4.428
						c0-2.912-2.476-5.289-5.513-5.289h-7.169L125.651,200.357L125.651,200.357L125.651,200.357L125.651,200.357z M124.045,206.156
						c0-1.217,0.958-2.189,2.19-2.189h5.986c1.234,0,2.19,0.957,2.19,2.189c0,0,0,3.099,0,3.562c-0.485,0-9.881,0-10.366,0
						C124.045,209.255,124.045,206.156,124.045,206.156"/>
					<path id="path7370" fill="#EDEDED" d="M154.175,200.219c-2.141,0-3.759,0.761-5.057,1.382
						c-0.806,0.373-1.501,0.709-2.067,0.709c-0.249,0-0.348-0.025-0.535-0.361l-0.448-0.822c-0.249-0.51-0.685-0.771-1.281-0.771
						h-0.631c-0.759,0-1.306,0.584-1.306,1.406v19.141c0,0.909,0.722,1.643,1.631,1.643h0.629c0.901,0,1.635-0.734,1.635-1.643
						v-14.486c0-1.355,1.104-2.464,2.464-2.464h5.427c1.357,0,2.464,1.107,2.464,2.464v14.486c0,0.909,0.722,1.643,1.631,1.643
						h0.635c0.895,0,1.631-0.734,1.631-1.643v-15.021c0-3.435-2.416-5.663-6.161-5.663h-0.685"/>
					<path id="path7372" fill="#EDEDED" d="M318.755,185.666c-1.89,0-3.424,1.534-3.424,3.454c0,1.947,1.534,3.467,3.424,3.467
						c1.9,0,3.405-1.521,3.405-3.467c0-1.92-1.503-3.454-3.391-3.454H318.755 M318.772,186.202c1.534,0,2.762,1.304,2.762,2.93
						c0,1.627-1.228,2.928-2.762,2.914c-1.534,0-2.776-1.287-2.776-2.929c0-1.611,1.242-2.915,2.762-2.915H318.772 M318.112,189.47
						h0.43c0.491,0,0.736,0.184,0.829,0.678c0.076,0.506,0.169,0.859,0.261,0.982h0.644c-0.06-0.123-0.152-0.355-0.245-0.951
						c-0.076-0.57-0.306-0.875-0.644-0.939v-0.03c0.413-0.121,0.751-0.43,0.751-0.937c0-0.368-0.123-0.628-0.352-0.797
						c-0.23-0.17-0.615-0.292-1.197-0.292c-0.461,0-0.767,0.046-1.09,0.093v3.853h0.613V189.47 M318.112,187.691
						c0.109-0.015,0.247-0.031,0.446-0.031c0.691,0,0.936,0.337,0.936,0.672c0,0.476-0.43,0.66-0.936,0.66h-0.446V187.691"/>
				</g>
			</g>
		</g>
	</g>
</g>
</svg>
