<?xml version="1.0" encoding="UTF-8" standalone="no"?>
<!-- Created with Inkscape (http://www.inkscape.org/) -->
<svg
   xmlns:dc="http://purl.org/dc/elements/1.1/"
   xmlns:cc="http://creativecommons.org/ns#"
   xmlns:rdf="http://www.w3.org/1999/02/22-rdf-syntax-ns#"
   xmlns:svg="http://www.w3.org/2000/svg"
   xmlns="http://www.w3.org/2000/svg"
   xmlns:xlink="http://www.w3.org/1999/xlink"
   xmlns:sodipodi="http://sodipodi.sourceforge.net/DTD/sodipodi-0.dtd"
   xmlns:inkscape="http://www.inkscape.org/namespaces/inkscape"
   width="120"
   height="240"
   id="svg2"
   sodipodi:version="0.32"
   inkscape:version="0.46"
   version="1.0"
   sodipodi:docname="nojavascript-120x240.svg"
   inkscape:output_extension="org.inkscape.output.svg.inkscape">
  <defs
     id="defs4">
    <inkscape:perspective
       sodipodi:type="inkscape:persp3d"
       inkscape:vp_x="-50 : 600 : 1"
       inkscape:vp_y="0 : 1000 : 0"
       inkscape:vp_z="700 : 600 : 1"
       inkscape:persp3d-origin="300 : 400 : 1"
       id="perspective94" />
    <inkscape:perspective
       sodipodi:type="inkscape:persp3d"
       inkscape:vp_x="-50 : 600 : 1"
       inkscape:vp_y="0 : 1000 : 0"
       inkscape:vp_z="700 : 600 : 1"
       inkscape:persp3d-origin="300 : 400 : 1"
       id="perspective93" />
    <inkscape:perspective
       sodipodi:type="inkscape:persp3d"
       inkscape:vp_x="-50 : 600 : 1"
       inkscape:vp_y="0 : 1000 : 0"
       inkscape:vp_z="700 : 600 : 1"
       inkscape:persp3d-origin="300 : 400 : 1"
       id="perspective92" />
    <linearGradient
       inkscape:collect="always"
       id="linearGradient7158">
      <stop
         style="stop-color:#27b800;stop-opacity:1"
         offset="0"
         id="stop7160" />
      <stop
         style="stop-color:#1b6306;stop-opacity:1"
         offset="1"
         id="stop7162" />
    </linearGradient>
    <radialGradient
       inkscape:collect="always"
       xlink:href="#linearGradient7158"
       id="radialGradient7164"
       cx="408.68881"
       cy="-618.22803"
       fx="729.9389"
       fy="-617.0625"
       r="400"
       gradientTransform="matrix(1.5330664e-3,-0.2604346,0.1409599,2.9092863e-3,147.03727,261.0171)"
       gradientUnits="userSpaceOnUse" />
    <linearGradient
       inkscape:collect="always"
       id="linearGradient9016">
      <stop
         style="stop-color:#24a701;stop-opacity:1;"
         offset="0"
         id="stop9018" />
      <stop
         style="stop-color:#24a701;stop-opacity:0;"
         offset="1"
         id="stop9020" />
    </linearGradient>
    <radialGradient
       inkscape:collect="always"
       xlink:href="#linearGradient9016"
       id="radialGradient9024"
       gradientUnits="userSpaceOnUse"
       gradientTransform="matrix(1.8476051,0,0,1.8476051,-85.384376,-81.638125)"
       cx="79.423729"
       cy="72.409096"
       fx="79.423729"
       fy="72.409096"
       r="69.84375" />
    <linearGradient
       inkscape:collect="always"
       id="linearGradient9026">
      <stop
         id="stop9030"
         offset="0"
         style="stop-color:#ffffff;stop-opacity:0;" />
      <stop
         id="stop9028"
         offset="1"
         style="stop-color:#ffffff;stop-opacity:1;" />
    </linearGradient>
    <radialGradient
       inkscape:collect="always"
       xlink:href="#linearGradient9026"
       id="radialGradient9032"
       cx="154.76555"
       cy="79.415726"
       fx="154.76555"
       fy="79.415726"
       r="69.938171"
       gradientUnits="userSpaceOnUse"
       gradientTransform="matrix(0.5575867,0,0,0.5575867,68.470323,35.134566)" />
    <linearGradient
       id="linearGradient9038"
       inkscape:collect="always">
      <stop
         style="stop-color:#24a701;stop-opacity:0;"
         offset="0"
         id="stop9042" />
      <stop
         style="stop-color:#24a701;stop-opacity:1;"
         offset="1"
         id="stop9040" />
    </linearGradient>
    <radialGradient
       inkscape:collect="always"
       xlink:href="#linearGradient9038"
       id="radialGradient9022"
       cx="79.423729"
       cy="72.409096"
       fx="79.423729"
       fy="72.409096"
       r="69.84375"
       gradientUnits="userSpaceOnUse"
       gradientTransform="matrix(1.8476051,0,0,1.8476051,-84.760505,-84.760505)" />
    <radialGradient
       inkscape:collect="always"
       xlink:href="#linearGradient7150"
       id="radialGradient8683"
       gradientUnits="userSpaceOnUse"
       gradientTransform="matrix(0.7435303,0,0,0.1539332,157.35885,387.14301)"
       cx="625.98718"
       cy="169.35002"
       fx="625.98718"
       fy="169.35002"
       r="408.5" />
    <linearGradient
       inkscape:collect="always"
       id="linearGradient7150">
      <stop
         style="stop-color:#ffffff;stop-opacity:1;"
         offset="0"
         id="stop7152" />
      <stop
         style="stop-color:#ffffff;stop-opacity:0;"
         offset="1"
         id="stop7154" />
    </linearGradient>
    <radialGradient
       inkscape:collect="always"
       xlink:href="#linearGradient7150"
       id="radialGradient7156"
       cx="364.41531"
       cy="208.24603"
       fx="364.41531"
       fy="208.24603"
       r="408.5"
       gradientTransform="matrix(1.6046904,0,0,0.2828371,-393.04882,474.60029)"
       gradientUnits="userSpaceOnUse" />
    <linearGradient
       inkscape:collect="always"
       id="linearGradient8721">
      <stop
         style="stop-color:#d7dcdd;stop-opacity:1;"
         offset="0"
         id="stop8723" />
      <stop
         style="stop-color:#ffffff;stop-opacity:1"
         offset="1"
         id="stop8725" />
    </linearGradient>
    <linearGradient
       id="linearGradient8783"
       inkscape:collect="always">
      <stop
         id="stop8785"
         offset="0"
         style="stop-color:#9eaaac;stop-opacity:1" />
      <stop
         id="stop8787"
         offset="1"
         style="stop-color:#ffffff;stop-opacity:1" />
    </linearGradient>
    <linearGradient
       inkscape:collect="always"
       xlink:href="#linearGradient8783"
       id="linearGradient8727"
       x1="401.30548"
       y1="500.9314"
       x2="401.30548"
       y2="463.56079"
       gradientUnits="userSpaceOnUse" />
    <filter
       inkscape:collect="always"
       id="filter8779"
       x="-0.021823626"
       width="1.0436473"
       y="-0.11597504"
       height="1.23195">
      <feGaussianBlur
         inkscape:collect="always"
         stdDeviation="2.2672686"
         id="feGaussianBlur8781" />
    </filter>
    <linearGradient
       inkscape:collect="always"
       id="linearGradient7132">
      <stop
         style="stop-color:#444d50;stop-opacity:1"
         offset="0"
         id="stop7134" />
      <stop
         id="stop7140"
         offset="0.87155616"
         style="stop-color:#262c2d;stop-opacity:1" />
      <stop
         style="stop-color:#3c4447;stop-opacity:1"
         offset="1"
         id="stop7136" />
    </linearGradient>
    <linearGradient
       inkscape:collect="always"
       xlink:href="#linearGradient7132"
       id="linearGradient7138"
       x1="472"
       y1="-47.512444"
       x2="472"
       y2="113.2215"
       gradientUnits="userSpaceOnUse"
       gradientTransform="translate(0,421)" />
    <filter
       inkscape:collect="always"
       id="filter7144">
      <feGaussianBlur
         inkscape:collect="always"
         stdDeviation="2.4"
         id="feGaussianBlur7146" />
    </filter>
    <inkscape:perspective
       sodipodi:type="inkscape:persp3d"
       inkscape:vp_x="-50 : 600 : 1"
       inkscape:vp_y="0 : 1000 : 0"
       inkscape:vp_z="700 : 600 : 1"
       inkscape:persp3d-origin="300 : 400 : 1"
       id="perspective10" />
    <radialGradient
       inkscape:collect="always"
       xlink:href="#linearGradient9026"
       id="radialGradient5852"
       gradientUnits="userSpaceOnUse"
       gradientTransform="matrix(0.5575867,0,0,0.5575867,67.846452,38.256946)"
       cx="154.76555"
       cy="79.415726"
       fx="154.76555"
       fy="79.415726"
       r="69.938171" />
    <linearGradient
       inkscape:collect="always"
       xlink:href="#linearGradient8721"
       id="linearGradient5876"
       gradientUnits="userSpaceOnUse"
       x1="276.63681"
       y1="487.02036"
       x2="525.97412"
       y2="487.02036" />
    <linearGradient
       inkscape:collect="always"
       xlink:href="#linearGradient8721"
       id="linearGradient5878"
       gradientUnits="userSpaceOnUse"
       x1="276.63681"
       y1="487.02036"
       x2="525.97412"
       y2="487.02036" />
    <linearGradient
       inkscape:collect="always"
       xlink:href="#linearGradient8721"
       id="linearGradient5880"
       gradientUnits="userSpaceOnUse"
       x1="276.63681"
       y1="487.02036"
       x2="525.97412"
       y2="487.02036" />
    <linearGradient
       inkscape:collect="always"
       xlink:href="#linearGradient8721"
       id="linearGradient5882"
       gradientUnits="userSpaceOnUse"
       x1="276.63681"
       y1="487.02036"
       x2="525.97412"
       y2="487.02036" />
    <linearGradient
       inkscape:collect="always"
       xlink:href="#linearGradient8721"
       id="linearGradient5884"
       gradientUnits="userSpaceOnUse"
       x1="276.63681"
       y1="487.02036"
       x2="525.97412"
       y2="487.02036" />
    <linearGradient
       inkscape:collect="always"
       xlink:href="#linearGradient8721"
       id="linearGradient5886"
       gradientUnits="userSpaceOnUse"
       x1="276.63681"
       y1="487.02036"
       x2="525.97412"
       y2="487.02036" />
    <linearGradient
       inkscape:collect="always"
       xlink:href="#linearGradient8721"
       id="linearGradient5888"
       gradientUnits="userSpaceOnUse"
       x1="276.63681"
       y1="487.02036"
       x2="525.97412"
       y2="487.02036" />
    <linearGradient
       inkscape:collect="always"
       xlink:href="#linearGradient8721"
       id="linearGradient5890"
       gradientUnits="userSpaceOnUse"
       x1="276.63681"
       y1="487.02036"
       x2="525.97412"
       y2="487.02036" />
    <linearGradient
       inkscape:collect="always"
       xlink:href="#linearGradient8721"
       id="linearGradient5892"
       gradientUnits="userSpaceOnUse"
       x1="276.63681"
       y1="487.02036"
       x2="525.97412"
       y2="487.02036" />
    <linearGradient
       inkscape:collect="always"
       xlink:href="#linearGradient8783"
       id="linearGradient5894"
       gradientUnits="userSpaceOnUse"
       x1="401.30548"
       y1="500.9314"
       x2="401.30548"
       y2="463.56079" />
    <filter
       inkscape:collect="always"
       id="filter6764"
       x="-0.1087833"
       width="1.2175666"
       y="-0.37785858"
       height="1.7557172">
      <feGaussianBlur
         inkscape:collect="always"
         stdDeviation="1.3923695"
         id="feGaussianBlur6766" />
    </filter>
    <filter
       inkscape:collect="always"
       id="filter6851"
       x="-0.034089696"
       width="1.0681794"
       y="-0.11345883"
       height="1.2269177">
      <feGaussianBlur
         inkscape:collect="always"
         stdDeviation="1.1611802"
         id="feGaussianBlur6853" />
    </filter>
  </defs>
  <sodipodi:namedview
     id="base"
     pagecolor="#ffffff"
     bordercolor="#e5e5e5"
     borderopacity="1"
     gridtolerance="10000"
     guidetolerance="10"
     objecttolerance="10"
     inkscape:pageopacity="0.0"
     inkscape:pageshadow="2"
     inkscape:zoom="1"
     inkscape:cx="-71.84748"
     inkscape:cy="63.272697"
     inkscape:document-units="px"
     inkscape:current-layer="g8789"
     showgrid="false"
     borderlayer="true"
     inkscape:showpageshadow="false"
     inkscape:window-width="973"
     inkscape:window-height="842"
     inkscape:window-x="256"
     inkscape:window-y="92">
    <inkscape:grid
       type="xygrid"
       id="grid6773"
       enabled="true"
       visible="true" />
  </sodipodi:namedview>
  <metadata
     id="metadata7">
    <rdf:RDF>
      <cc:Work
         rdf:about="">
        <dc:format>image/svg+xml</dc:format>
        <dc:type
           rdf:resource="http://purl.org/dc/dcmitype/StillImage" />
        <dc:title />
        <dc:date />
        <dc:creator>
          <cc:Agent>
            <dc:title />
          </cc:Agent>
        </dc:creator>
        <dc:rights>
          <cc:Agent>
            <dc:title />
          </cc:Agent>
        </dc:rights>
        <dc:publisher>
          <cc:Agent>
            <dc:title />
          </cc:Agent>
        </dc:publisher>
        <dc:identifier />
        <dc:source />
        <dc:relation />
        <dc:language />
        <dc:subject>
          <rdf:Bag />
        </dc:subject>
        <dc:coverage />
        <dc:description />
        <dc:contributor>
          <cc:Agent>
            <dc:title />
          </cc:Agent>
        </dc:contributor>
        <cc:license
           rdf:resource="" />
      </cc:Work>
    </rdf:RDF>
  </metadata>
  <g
     inkscape:label="Layer 1"
     inkscape:groupmode="layer"
     id="layer1">
    <rect
       style="opacity:1;fill:url(#radialGradient7164);fill-opacity:1;fill-rule:evenodd;stroke:none;stroke-width:1;stroke-linecap:butt;stroke-linejoin:miter;marker:none;marker-start:none;marker-mid:none;marker-end:none;stroke-miterlimit:4;stroke-dasharray:none;stroke-dashoffset:0;stroke-opacity:1;visibility:visible;display:inline;overflow:visible;filter:url(#filter9012);enable-background:accumulate"
       id="rect5337"
       width="190.25632"
       height="304.19492"
       x="-40.189178"
       y="-37.203472" />
    <g
       id="g9001"
       inkscape:label="Layer 1"
       transform="matrix(1.6028961,0,0,1.6013422,-151.87506,-15.634224)"
       style="opacity:0.10416667;fill:url(#radialGradient9022);fill-opacity:1;stroke:url(#radialGradient9032);stroke-width:0.62417334;stroke-miterlimit:4;stroke-dasharray:none;stroke-opacity:1;filter:url(#filter9012)">
      <path
         id="path2445"
         d="M 99.376129,33.27863 C 60.805449,33.27863 29.532379,64.548138 29.532379,103.1224 C 29.532379,141.69664 60.805451,172.96615 99.376129,172.96615 C 137.94681,172.96615 169.21987,141.69664 169.21988,103.1224 C 169.21988,64.54814 137.94681,33.27863 99.376129,33.27863 z M 99.710559,42.951282 C 132.94408,42.951282 159.90738,69.892425 159.90738,103.1224 C 159.90738,136.35593 132.94052,163.2935 99.710559,163.2935 C 81.765738,163.2935 65.663356,155.42877 54.640114,142.97064 C 59.172605,139.45289 66.755743,140.3111 76.094879,141.37568 C 80.570404,141.88483 85.672332,142.46727 90.938284,142.58476 C 105.65018,142.67021 121.47962,139.98516 131.24958,135.71615 C 137.56587,132.94609 141.60993,131.12188 144.13787,128.82181 C 145.04936,128.07411 145.52802,126.82502 146.01581,125.529 L 146.35023,124.65434 C 146.75969,123.60756 147.34729,121.35508 147.61076,120.12672 C 147.72826,119.58908 147.78593,119.01092 147.40496,118.71183 L 146.04153,118.96909 C 141.75471,121.53975 131.0444,126.43579 121.01097,126.63518 C 108.57778,126.89509 83.518876,114.11875 80.90548,112.76933 L 80.648228,112.46063 C 80.021584,110.96522 76.27146,102.06254 75.477476,100.18971 C 93.514865,112.0675 108.46934,118.64181 119.93052,119.66366 C 132.67348,120.7959 142.61352,113.83867 146.86473,110.86567 C 147.69433,110.29955 148.3284,109.85562 148.58832,109.75949 L 148.8713,109.29643 C 148.16632,104.81734 141.48057,83.142893 136.44605,77.93747 C 135.05034,76.509718 133.94069,75.12022 131.6869,73.795723 C 113.46437,63.174809 70.197447,56.778223 68.171536,56.482705 L 67.83711,56.585605 L 67.708484,56.868582 C 67.708484,56.868582 67.54621,65.853003 67.528408,66.849935 C 66.043686,66.358591 61.439923,64.851338 54.845915,63.042615 C 63.449648,52.396771 76.634948,42.951283 99.710559,42.951282 z M 115.60869,74.799003 C 115.91574,74.794395 116.2257,74.788766 116.5348,74.799003 C 126.74269,75.165732 134.76268,83.76346 134.41377,93.964231 C 134.23218,98.899056 132.15165,103.4586 128.54844,106.82682 C 124.93454,110.21284 120.23757,111.97772 115.27427,111.8175 C 105.08417,111.43653 97.064169,102.8388 97.395293,92.652249 C 97.569757,87.710301 99.661779,83.121485 103.28635,79.763955 C 106.67103,76.589564 111.00299,74.868122 115.60869,74.799003 z M 115.11991,80.252732 C 112.14698,80.433475 109.34149,81.640604 107.14512,83.699901 C 104.64211,86.049816 103.16519,89.231433 103.05482,92.677974 C 102.81983,99.798933 108.39195,105.79159 115.50579,106.05507 C 118.96301,106.16188 122.24246,104.95069 124.76684,102.60789 C 127.2841,100.24728 128.75033,97.036381 128.85714,93.604079 C 129.09569,86.472436 123.49785,80.501966 116.38045,80.252732 C 115.94963,80.23671 115.54462,80.226912 115.11991,80.252732 z M 118.51563,86.709742 C 121.67734,86.709742 124.22662,88.427863 124.22661,90.542787 C 124.22661,92.647035 121.67734,94.375831 118.51563,94.375833 C 115.34324,94.375833 112.77893,92.643468 112.77893,90.542787 C 112.77893,88.427865 115.34324,86.709744 118.51563,86.709742 z"
         style="font-size:20.48839951px;fill:url(#radialGradient9024);fill-opacity:1;fill-rule:evenodd;stroke:url(#radialGradient5852);stroke-width:0.93626004;stroke-miterlimit:4;stroke-dasharray:none;stroke-opacity:1;font-family:TrebuchetMS-Bold" />
    </g>
    <g
       style="opacity:1"
       id="g8789"
       transform="matrix(0.6190553,0,0,0.6184552,-360.73277,-253.77008)">
      <rect
         style="opacity:0.5625;fill:#000000;fill-opacity:1;fill-rule:evenodd;stroke:none;stroke-width:1;stroke-linecap:butt;stroke-linejoin:miter;marker:none;marker-start:none;marker-mid:none;marker-end:none;stroke-miterlimit:4;stroke-dasharray:none;stroke-dashoffset:0;stroke-opacity:1;visibility:visible;display:inline;overflow:visible;filter:url(#filter7144);enable-background:accumulate"
         id="rect7142"
         width="843"
         height="117"
         x="-16"
         y="413" />
      <rect
         y="410"
         x="-16"
         height="117"
         width="843"
         id="rect7130"
         style="opacity:1;fill:url(#linearGradient7138);fill-opacity:1;fill-rule:evenodd;stroke:none;stroke-width:1;stroke-linecap:butt;stroke-linejoin:miter;marker:none;marker-start:none;marker-mid:none;marker-end:none;stroke-miterlimit:4;stroke-dasharray:none;stroke-dashoffset:0;stroke-opacity:1;visibility:visible;display:inline;overflow:visible;enable-background:accumulate" />
      <g
         id="g5854"
         transform="matrix(1.4351805,0,0,1.4351805,-358.57584,-256.3685)">
        <g
           transform="matrix(0.3796416,0,0,0.3796416,568.43703,307.17325)"
           id="g8747"
           style="fill:#000000;fill-opacity:1;display:inline;filter:url(#filter8779)">
          <path
             d="M 525.54912,468.81976 L 525.38699,468.81976 C 525.19961,468.81976 525.03715,468.6573 525.03715,468.46991 L 525.03715,465.95923 L 524.48744,466.79612 C 524.42506,466.88343 524.31251,466.92083 524.21273,466.92083 L 524.15005,466.92083 C 524.05027,466.92083 523.93771,466.88343 523.87536,466.79612 L 523.31315,465.95923 L 523.31315,468.46991 C 523.31315,468.6573 523.15069,468.81976 522.95083,468.81976 L 522.7887,468.81976 C 522.60132,468.81976 522.43886,468.6573 522.43886,468.46991 L 522.43886,465.47188 L 520.75226,465.47188 L 520.75226,468.46991 C 520.75226,468.6573 520.57732,468.81976 520.37779,468.81976 L 520.22781,468.81976 C 520.0404,468.81976 519.87797,468.6573 519.87797,468.46991 L 519.87797,465.47188 L 518.61637,465.47188 C 518.42899,465.47188 518.279,465.34681 518.279,465.14725 L 518.279,464.97235 C 518.279,464.77249 518.42899,464.64743 518.61637,464.64743 L 523.03843,464.64743 C 523.21337,464.64743 523.32563,464.70981 523.38831,464.80989 L 524.2252,466.07148 L 525.0621,464.80989 C 525.12445,464.72228 525.22453,464.64743 525.41194,464.64743 L 525.97415,464.64743 L 525.97415,468.49487 C 525.97415,468.68225 525.79921,468.84471 525.59935,468.84471"
             id="path8749"
             style="fill:#000000;fill-opacity:1;stroke:none" />
          <path
             d="M 380.95621,463.5608 C 374.91023,463.5608 371.56235,468.68225 371.56235,472.22999 L 371.56235,476.77712 C 371.56235,481.9862 375.82195,485.22153 379.78195,485.22153 L 393.64778,485.22153 C 395.38422,485.22153 395.74654,486.35806 395.74654,487.31999 L 395.74654,490.25568 C 395.74654,490.56779 395.69667,493.39122 393.64778,493.39122 L 374.72285,493.39122 C 372.84887,493.39122 371.48752,494.69022 371.48752,496.47656 L 371.48752,497.28854 C 371.48752,499.06241 372.83639,500.37421 374.72285,500.37421 L 394.68483,500.37421 C 399.89392,500.37421 403.26675,496.75128 403.26675,491.13 L 403.26675,486.22085 C 403.26675,480.94912 399.46925,478.58842 395.70914,478.58842 L 382.06812,478.58842 C 380.00676,478.58842 379.08256,477.06428 379.08256,475.96517 L 379.08256,473.26677 C 379.08256,471.55558 380.2191,470.58118 382.21778,470.58118 L 397.33303,470.58118 C 399.18176,470.58118 400.56835,469.25693 400.56835,467.49551 L 400.56835,466.68357 C 400.56835,464.93462 399.1568,463.5982 397.27068,463.5982 L 380.98116,463.5982"
             id="path8751"
             style="fill:#000000;fill-opacity:1;stroke:none" />
          <path
             d="M 437.70666,463.5608 C 435.92031,463.5608 434.47133,465.00978 434.47133,466.79612 L 434.47133,490.03086 C 434.47133,491.87956 432.9597,493.37875 431.12345,493.37875 L 420.58025,493.37875 C 418.73155,493.37875 417.23233,491.87956 417.23233,490.03086 L 417.23233,466.79612 C 417.23233,465.00978 415.79586,463.5608 413.99704,463.5608 L 412.97273,463.5608 C 411.17391,463.5608 409.7374,464.98482 409.7374,466.79612 L 409.7374,490.91763 C 409.7374,496.52647 414.14702,500.59899 420.2304,500.59899 L 431.49824,500.59899 C 437.58162,500.59899 441.99121,496.52647 441.99121,490.91763 L 441.99121,466.79612 C 441.99121,464.98482 440.56722,463.5608 438.75592,463.5608 L 437.73161,463.5608"
             id="path8753"
             style="fill:#000000;fill-opacity:1;stroke:none" />
          <path
             d="M 457.90593,463.5608 C 451.85998,463.5608 448.5121,468.68225 448.5121,472.22999 L 448.5121,476.77712 C 448.5121,481.9862 452.78418,485.22153 456.73167,485.22153 L 470.5975,485.22153 C 472.33397,485.22153 472.70877,486.35806 472.70877,487.31999 L 472.70877,490.25568 C 472.70877,490.56779 472.64641,493.39122 470.5975,493.39122 L 451.6726,493.39122 C 449.79862,493.39122 448.43727,494.69022 448.43727,496.47656 L 448.43727,497.28854 C 448.43727,499.06241 449.79862,500.37421 451.6726,500.37421 L 471.62211,500.37421 C 476.84367,500.37421 480.2037,496.75128 480.2037,491.13 L 480.2037,486.22085 C 480.2037,480.94912 476.419,478.58842 472.64641,478.58842 L 459.00507,478.58842 C 456.94403,478.58842 456.01983,477.06428 456.01983,475.96517 L 456.01983,473.26677 C 456.01983,471.55558 457.15637,470.58118 459.14257,470.58118 L 474.25782,470.58118 C 476.09408,470.58118 477.49318,469.25693 477.49318,467.49551 L 477.49318,466.68357 C 477.49318,464.93462 476.0816,463.5982 474.1827,463.5982 L 457.90593,463.5982"
             id="path8755"
             style="fill:#000000;fill-opacity:1;stroke:none" />
          <path
             d="M 489.79745,463.5608 C 488.0114,463.5608 486.63725,464.88471 486.63725,466.64614 L 486.63725,497.28854 C 486.63725,499.03745 487.9612,500.37421 489.7351,500.37421 L 514.15658,500.37421 C 516.03056,500.37421 517.39223,499.07488 517.39223,497.28854 L 517.39223,496.47656 C 517.39223,494.70269 516.04303,493.39122 514.15658,493.39122 C 514.15658,493.39122 495.05674,493.39122 494.15716,493.39122 C 494.15716,492.59175 494.15716,486.38331 494.15716,485.58385 C 495.05674,485.58385 508.81031,485.58385 508.81031,485.58385 C 510.68396,485.58385 512.04564,484.28452 512.04564,482.4857 L 512.04564,481.68623 C 512.04564,479.89989 510.68396,478.58842 508.81031,478.58842 C 508.81031,478.58842 495.05674,478.58842 494.15716,478.58842 C 494.15716,477.78895 494.15716,471.36817 494.15716,470.56871 C 495.05674,470.56871 513.14474,470.56871 513.14474,470.56871 C 515.01875,470.56871 516.3804,469.26938 516.3804,467.48303 L 516.3804,466.67109 C 516.3804,464.88471 515.01875,463.58575 513.14474,463.58575 L 489.81025,463.58575"
             id="path8757"
             style="fill:#000000;fill-opacity:1;stroke:none" />
          <path
             d="M 282.17071,478.13846 C 279.1227,478.13846 276.63682,480.51197 276.63682,483.44763 L 276.63682,495.00266 C 276.63682,497.97575 279.03525,500.39913 281.98335,500.39913 L 289.45345,500.39913 C 292.40152,500.39913 294.81243,497.97575 294.81243,495.00266 L 294.81243,483.44763 C 294.81243,480.52445 292.32658,478.13846 289.27854,478.13846 L 282.17071,478.13846 z M 280.55927,494.55271 L 280.55927,484.00984 C 280.55927,482.77289 281.5711,481.76106 282.8078,481.76106 L 288.629,481.76106 C 289.84072,481.76106 290.87751,482.78567 290.87751,484.00984 L 290.87751,494.55271 C 290.87751,495.78968 289.86568,496.80148 288.629,496.80148 L 282.75781,496.80148 C 281.52113,496.80148 280.55927,495.8146 280.55927,494.55271"
             id="path8759"
             style="fill:#000000;fill-opacity:1;stroke:none" />
          <path
             d="M 311.75149,478.00128 C 309.59034,478.00128 307.97884,478.77583 306.66719,479.40036 C 305.88023,479.77485 305.19317,480.09975 304.65604,480.09975 C 304.43119,480.09975 304.2188,479.99997 304.10636,479.82506 L 303.61919,478.87558 C 303.50676,478.62584 303.00708,478.13846 302.38252,478.13846 L 301.658,478.13846 C 300.95843,478.13846 300.38381,478.76335 300.38381,479.55001 L 300.38381,508.84354 C 300.38381,509.75526 301.09585,510.4799 302.02026,510.4799 L 302.65732,510.4799 C 303.55675,510.4799 304.29378,509.74279 304.29378,508.84354 L 304.29378,499.12476 C 304.29378,498.83759 304.48113,498.53763 304.65604,498.53763 C 305.19317,498.53763 305.88023,498.83759 306.6797,499.21239 C 307.97884,499.79952 309.60282,500.54878 311.76396,500.54878 L 312.4384,500.54878 C 316.24841,500.54878 318.62189,498.3755 318.62189,494.87763 L 318.62189,483.69739 C 318.62189,480.24973 316.1985,478.01376 312.4384,478.01376 L 311.75149,478.01376 L 311.75149,478.01376 L 311.75149,478.00128 z M 304.28127,494.3279 L 304.28127,484.24712 C 304.28127,482.86053 305.36808,481.77354 306.75465,481.77354 L 312.20111,481.77354 C 313.58774,481.77354 314.67437,482.86053 314.67437,484.24712 L 314.67437,494.3279 C 314.67437,495.68957 313.57526,496.80148 312.20111,496.80148 L 306.75465,496.80148 C 305.39306,496.80148 304.28127,495.68957 304.28127,494.3279"
             id="path8761"
             style="fill:#000000;fill-opacity:1;stroke:none" />
          <path
             d="M 329.68954,478.13846 C 326.6416,478.13846 324.15586,480.51197 324.15586,483.44763 L 324.15586,494.91503 C 324.15586,497.88814 326.56677,500.41161 329.41482,500.41161 L 337.12245,500.41161 C 338.07157,500.41161 338.75881,499.76179 338.75881,498.86255 L 338.75881,498.36269 C 338.75881,497.46344 338.07157,496.81396 337.12245,496.81396 L 330.80145,496.81396 C 329.02758,496.81396 328.09058,495.95181 328.09058,494.29047 C 328.09058,494.29047 328.09058,491.40502 328.09058,490.94259 C 328.60288,490.94259 339.5084,490.94259 339.5084,490.94259 C 341.33218,490.94259 342.43128,489.81853 342.43128,487.9196 L 342.43128,483.47261 C 342.43128,480.54937 339.94555,478.16374 336.89764,478.16374 L 329.70231,478.16374 L 329.68954,478.13846 z M 328.0781,483.95963 C 328.0781,482.73546 329.04003,481.76106 330.27667,481.76106 L 336.28522,481.76106 C 337.52217,481.76106 338.48379,482.72299 338.48379,483.95963 C 338.48379,483.95963 338.48379,487.07023 338.48379,487.53235 C 337.99674,487.53235 328.56548,487.53235 328.0781,487.53235 C 328.0781,487.07023 328.0781,483.95963 328.0781,483.95963"
             id="path8763"
             style="fill:#000000;fill-opacity:1;stroke:none" />
          <path
             d="M 358.32108,478.00128 C 356.17241,478.00128 354.5485,478.76335 353.2492,479.38791 C 352.43723,479.76238 351.73784,480.09975 351.17566,480.09975 C 350.9259,480.09975 350.82582,480.07479 350.63841,479.73743 L 350.18878,478.91301 C 349.93902,478.40103 349.50187,478.13846 348.90226,478.13846 L 348.26493,478.13846 C 347.50319,478.13846 346.95346,478.72559 346.95346,479.55001 L 346.95346,498.76244 C 346.95346,499.67449 347.6778,500.41161 348.58982,500.41161 L 349.22685,500.41161 C 350.12643,500.41161 350.86322,499.67449 350.86322,498.76244 L 350.86322,484.22217 C 350.86322,482.86053 351.97513,481.74858 353.3368,481.74858 L 358.78318,481.74858 C 360.14485,481.74858 361.25644,482.86053 361.25644,484.22217 L 361.25644,498.76244 C 361.25644,499.67449 361.98107,500.41161 362.89313,500.41161 L 363.53016,500.41161 C 364.42941,500.41161 365.16653,499.67449 365.16653,498.76244 L 365.16653,483.68492 C 365.16653,480.23725 362.74314,478.00128 358.98304,478.00128 L 358.29613,478.00128"
             id="path8765"
             style="fill:#000000;fill-opacity:1;stroke:none" />
        </g>
        <g
           style="fill:url(#linearGradient5894);fill-opacity:1;display:inline"
           id="g5501"
           transform="matrix(0.3796416,0,0,0.3796416,568.43703,305.17325)">
          <path
             style="fill:url(#linearGradient5876);fill-opacity:1;stroke:none"
             id="path2095"
             d="M 525.54912,468.81976 L 525.38699,468.81976 C 525.19961,468.81976 525.03715,468.6573 525.03715,468.46991 L 525.03715,465.95923 L 524.48744,466.79612 C 524.42506,466.88343 524.31251,466.92083 524.21273,466.92083 L 524.15005,466.92083 C 524.05027,466.92083 523.93771,466.88343 523.87536,466.79612 L 523.31315,465.95923 L 523.31315,468.46991 C 523.31315,468.6573 523.15069,468.81976 522.95083,468.81976 L 522.7887,468.81976 C 522.60132,468.81976 522.43886,468.6573 522.43886,468.46991 L 522.43886,465.47188 L 520.75226,465.47188 L 520.75226,468.46991 C 520.75226,468.6573 520.57732,468.81976 520.37779,468.81976 L 520.22781,468.81976 C 520.0404,468.81976 519.87797,468.6573 519.87797,468.46991 L 519.87797,465.47188 L 518.61637,465.47188 C 518.42899,465.47188 518.279,465.34681 518.279,465.14725 L 518.279,464.97235 C 518.279,464.77249 518.42899,464.64743 518.61637,464.64743 L 523.03843,464.64743 C 523.21337,464.64743 523.32563,464.70981 523.38831,464.80989 L 524.2252,466.07148 L 525.0621,464.80989 C 525.12445,464.72228 525.22453,464.64743 525.41194,464.64743 L 525.97415,464.64743 L 525.97415,468.49487 C 525.97415,468.68225 525.79921,468.84471 525.59935,468.84471" />
          <path
             style="fill:url(#linearGradient5878);fill-opacity:1;stroke:none"
             id="path2097"
             d="M 380.95621,463.5608 C 374.91023,463.5608 371.56235,468.68225 371.56235,472.22999 L 371.56235,476.77712 C 371.56235,481.9862 375.82195,485.22153 379.78195,485.22153 L 393.64778,485.22153 C 395.38422,485.22153 395.74654,486.35806 395.74654,487.31999 L 395.74654,490.25568 C 395.74654,490.56779 395.69667,493.39122 393.64778,493.39122 L 374.72285,493.39122 C 372.84887,493.39122 371.48752,494.69022 371.48752,496.47656 L 371.48752,497.28854 C 371.48752,499.06241 372.83639,500.37421 374.72285,500.37421 L 394.68483,500.37421 C 399.89392,500.37421 403.26675,496.75128 403.26675,491.13 L 403.26675,486.22085 C 403.26675,480.94912 399.46925,478.58842 395.70914,478.58842 L 382.06812,478.58842 C 380.00676,478.58842 379.08256,477.06428 379.08256,475.96517 L 379.08256,473.26677 C 379.08256,471.55558 380.2191,470.58118 382.21778,470.58118 L 397.33303,470.58118 C 399.18176,470.58118 400.56835,469.25693 400.56835,467.49551 L 400.56835,466.68357 C 400.56835,464.93462 399.1568,463.5982 397.27068,463.5982 L 380.98116,463.5982" />
          <path
             style="fill:url(#linearGradient5880);fill-opacity:1;stroke:none"
             id="path2099"
             d="M 437.70666,463.5608 C 435.92031,463.5608 434.47133,465.00978 434.47133,466.79612 L 434.47133,490.03086 C 434.47133,491.87956 432.9597,493.37875 431.12345,493.37875 L 420.58025,493.37875 C 418.73155,493.37875 417.23233,491.87956 417.23233,490.03086 L 417.23233,466.79612 C 417.23233,465.00978 415.79586,463.5608 413.99704,463.5608 L 412.97273,463.5608 C 411.17391,463.5608 409.7374,464.98482 409.7374,466.79612 L 409.7374,490.91763 C 409.7374,496.52647 414.14702,500.59899 420.2304,500.59899 L 431.49824,500.59899 C 437.58162,500.59899 441.99121,496.52647 441.99121,490.91763 L 441.99121,466.79612 C 441.99121,464.98482 440.56722,463.5608 438.75592,463.5608 L 437.73161,463.5608" />
          <path
             style="fill:url(#linearGradient5882);fill-opacity:1;stroke:none"
             id="path2101"
             d="M 457.90593,463.5608 C 451.85998,463.5608 448.5121,468.68225 448.5121,472.22999 L 448.5121,476.77712 C 448.5121,481.9862 452.78418,485.22153 456.73167,485.22153 L 470.5975,485.22153 C 472.33397,485.22153 472.70877,486.35806 472.70877,487.31999 L 472.70877,490.25568 C 472.70877,490.56779 472.64641,493.39122 470.5975,493.39122 L 451.6726,493.39122 C 449.79862,493.39122 448.43727,494.69022 448.43727,496.47656 L 448.43727,497.28854 C 448.43727,499.06241 449.79862,500.37421 451.6726,500.37421 L 471.62211,500.37421 C 476.84367,500.37421 480.2037,496.75128 480.2037,491.13 L 480.2037,486.22085 C 480.2037,480.94912 476.419,478.58842 472.64641,478.58842 L 459.00507,478.58842 C 456.94403,478.58842 456.01983,477.06428 456.01983,475.96517 L 456.01983,473.26677 C 456.01983,471.55558 457.15637,470.58118 459.14257,470.58118 L 474.25782,470.58118 C 476.09408,470.58118 477.49318,469.25693 477.49318,467.49551 L 477.49318,466.68357 C 477.49318,464.93462 476.0816,463.5982 474.1827,463.5982 L 457.90593,463.5982" />
          <path
             style="fill:url(#linearGradient5884);fill-opacity:1;stroke:none"
             id="path2103"
             d="M 489.79745,463.5608 C 488.0114,463.5608 486.63725,464.88471 486.63725,466.64614 L 486.63725,497.28854 C 486.63725,499.03745 487.9612,500.37421 489.7351,500.37421 L 514.15658,500.37421 C 516.03056,500.37421 517.39223,499.07488 517.39223,497.28854 L 517.39223,496.47656 C 517.39223,494.70269 516.04303,493.39122 514.15658,493.39122 C 514.15658,493.39122 495.05674,493.39122 494.15716,493.39122 C 494.15716,492.59175 494.15716,486.38331 494.15716,485.58385 C 495.05674,485.58385 508.81031,485.58385 508.81031,485.58385 C 510.68396,485.58385 512.04564,484.28452 512.04564,482.4857 L 512.04564,481.68623 C 512.04564,479.89989 510.68396,478.58842 508.81031,478.58842 C 508.81031,478.58842 495.05674,478.58842 494.15716,478.58842 C 494.15716,477.78895 494.15716,471.36817 494.15716,470.56871 C 495.05674,470.56871 513.14474,470.56871 513.14474,470.56871 C 515.01875,470.56871 516.3804,469.26938 516.3804,467.48303 L 516.3804,466.67109 C 516.3804,464.88471 515.01875,463.58575 513.14474,463.58575 L 489.81025,463.58575" />
          <path
             style="fill:url(#linearGradient5886);fill-opacity:1;stroke:none"
             id="path2105"
             d="M 282.17071,478.13846 C 279.1227,478.13846 276.63682,480.51197 276.63682,483.44763 L 276.63682,495.00266 C 276.63682,497.97575 279.03525,500.39913 281.98335,500.39913 L 289.45345,500.39913 C 292.40152,500.39913 294.81243,497.97575 294.81243,495.00266 L 294.81243,483.44763 C 294.81243,480.52445 292.32658,478.13846 289.27854,478.13846 L 282.17071,478.13846 z M 280.55927,494.55271 L 280.55927,484.00984 C 280.55927,482.77289 281.5711,481.76106 282.8078,481.76106 L 288.629,481.76106 C 289.84072,481.76106 290.87751,482.78567 290.87751,484.00984 L 290.87751,494.55271 C 290.87751,495.78968 289.86568,496.80148 288.629,496.80148 L 282.75781,496.80148 C 281.52113,496.80148 280.55927,495.8146 280.55927,494.55271" />
          <path
             style="fill:url(#linearGradient5888);fill-opacity:1;stroke:none"
             id="path2107"
             d="M 311.75149,478.00128 C 309.59034,478.00128 307.97884,478.77583 306.66719,479.40036 C 305.88023,479.77485 305.19317,480.09975 304.65604,480.09975 C 304.43119,480.09975 304.2188,479.99997 304.10636,479.82506 L 303.61919,478.87558 C 303.50676,478.62584 303.00708,478.13846 302.38252,478.13846 L 301.658,478.13846 C 300.95843,478.13846 300.38381,478.76335 300.38381,479.55001 L 300.38381,508.84354 C 300.38381,509.75526 301.09585,510.4799 302.02026,510.4799 L 302.65732,510.4799 C 303.55675,510.4799 304.29378,509.74279 304.29378,508.84354 L 304.29378,499.12476 C 304.29378,498.83759 304.48113,498.53763 304.65604,498.53763 C 305.19317,498.53763 305.88023,498.83759 306.6797,499.21239 C 307.97884,499.79952 309.60282,500.54878 311.76396,500.54878 L 312.4384,500.54878 C 316.24841,500.54878 318.62189,498.3755 318.62189,494.87763 L 318.62189,483.69739 C 318.62189,480.24973 316.1985,478.01376 312.4384,478.01376 L 311.75149,478.01376 L 311.75149,478.01376 L 311.75149,478.00128 z M 304.28127,494.3279 L 304.28127,484.24712 C 304.28127,482.86053 305.36808,481.77354 306.75465,481.77354 L 312.20111,481.77354 C 313.58774,481.77354 314.67437,482.86053 314.67437,484.24712 L 314.67437,494.3279 C 314.67437,495.68957 313.57526,496.80148 312.20111,496.80148 L 306.75465,496.80148 C 305.39306,496.80148 304.28127,495.68957 304.28127,494.3279" />
          <path
             style="fill:url(#linearGradient5890);fill-opacity:1;stroke:none"
             id="path2109"
             d="M 329.68954,478.13846 C 326.6416,478.13846 324.15586,480.51197 324.15586,483.44763 L 324.15586,494.91503 C 324.15586,497.88814 326.56677,500.41161 329.41482,500.41161 L 337.12245,500.41161 C 338.07157,500.41161 338.75881,499.76179 338.75881,498.86255 L 338.75881,498.36269 C 338.75881,497.46344 338.07157,496.81396 337.12245,496.81396 L 330.80145,496.81396 C 329.02758,496.81396 328.09058,495.95181 328.09058,494.29047 C 328.09058,494.29047 328.09058,491.40502 328.09058,490.94259 C 328.60288,490.94259 339.5084,490.94259 339.5084,490.94259 C 341.33218,490.94259 342.43128,489.81853 342.43128,487.9196 L 342.43128,483.47261 C 342.43128,480.54937 339.94555,478.16374 336.89764,478.16374 L 329.70231,478.16374 L 329.68954,478.13846 z M 328.0781,483.95963 C 328.0781,482.73546 329.04003,481.76106 330.27667,481.76106 L 336.28522,481.76106 C 337.52217,481.76106 338.48379,482.72299 338.48379,483.95963 C 338.48379,483.95963 338.48379,487.07023 338.48379,487.53235 C 337.99674,487.53235 328.56548,487.53235 328.0781,487.53235 C 328.0781,487.07023 328.0781,483.95963 328.0781,483.95963" />
          <path
             style="fill:url(#linearGradient5892);fill-opacity:1;stroke:none"
             id="path2111"
             d="M 358.32108,478.00128 C 356.17241,478.00128 354.5485,478.76335 353.2492,479.38791 C 352.43723,479.76238 351.73784,480.09975 351.17566,480.09975 C 350.9259,480.09975 350.82582,480.07479 350.63841,479.73743 L 350.18878,478.91301 C 349.93902,478.40103 349.50187,478.13846 348.90226,478.13846 L 348.26493,478.13846 C 347.50319,478.13846 346.95346,478.72559 346.95346,479.55001 L 346.95346,498.76244 C 346.95346,499.67449 347.6778,500.41161 348.58982,500.41161 L 349.22685,500.41161 C 350.12643,500.41161 350.86322,499.67449 350.86322,498.76244 L 350.86322,484.22217 C 350.86322,482.86053 351.97513,481.74858 353.3368,481.74858 L 358.78318,481.74858 C 360.14485,481.74858 361.25644,482.86053 361.25644,484.22217 L 361.25644,498.76244 C 361.25644,499.67449 361.98107,500.41161 362.89313,500.41161 L 363.53016,500.41161 C 364.42941,500.41161 365.16653,499.67449 365.16653,498.76244 L 365.16653,483.68492 C 365.16653,480.23725 362.74314,478.00128 358.98304,478.00128 L 358.29613,478.00128" />
        </g>
      </g>
      <path
         id="path7148"
         d="M -1,525.5 L 815,525.5"
         style="opacity:0.375;fill:none;fill-opacity:1;fill-rule:evenodd;stroke:url(#radialGradient7156);stroke-width:1.61614823;stroke-linecap:butt;stroke-linejoin:miter;marker:none;marker-start:none;marker-mid:none;marker-end:none;stroke-miterlimit:4;stroke-dasharray:none;stroke-dashoffset:0;stroke-opacity:1;visibility:visible;display:inline;overflow:visible;enable-background:accumulate" />
      <path
         style="opacity:0.47395833;fill:none;fill-opacity:1;fill-rule:evenodd;stroke:url(#radialGradient8683);stroke-width:3.23229647;stroke-linecap:butt;stroke-linejoin:miter;marker:none;marker-start:none;marker-mid:none;marker-end:none;stroke-miterlimit:4;stroke-dasharray:none;stroke-dashoffset:0;stroke-opacity:1;visibility:visible;display:inline;overflow:visible;enable-background:accumulate"
         d="M -1,412.5 L 815,412.5"
         id="path8679" />
      <g
         id="g6768"
         transform="matrix(2.2074438,0,0,2.2074438,-1026.2142,-598.78458)">
        <path
           transform="matrix(0.9769813,0,0,0.9769813,-3.7547751,25.745184)"
           d="M 764.84375,472.46875 C 764.73205,472.46875 764.61168,472.50046 764.5,472.5625 C 764.38833,472.61216 764.31204,472.67555 764.25,472.75 L 762.1875,475 C 762.00136,475.19855 761.90625,475.41405 761.90625,475.625 C 761.90627,475.79873 761.95081,475.93841 762.0625,476.0625 C 762.1866,476.1742 762.32627,476.21876 762.5,476.21875 C 762.5993,476.21875 762.71322,476.21232 762.8125,476.1875 C 762.91177,476.16269 763.03215,476.11812 763.15625,476.03125 L 764.125,475.375 L 764.125,480.5625 C 764.12499,480.77347 764.17599,480.94484 764.3125,481.09375 C 764.44897,481.23024 764.63279,481.3125 764.84375,481.3125 L 765.28125,481.3125 C 765.49221,481.3125 765.67599,481.23025 765.8125,481.09375 C 765.96142,480.94483 766.03124,480.77346 766.03125,480.5625 L 766.03125,473.21875 C 766.03124,473.00781 765.96141,472.85526 765.8125,472.71875 C 765.67601,472.56984 765.4922,472.46876 765.28125,472.46875 L 764.84375,472.46875 z M 771.875,472.46875 C 771.76332,472.46875 771.67418,472.50046 771.5625,472.5625 C 771.45079,472.61216 771.34329,472.67555 771.28125,472.75 L 769.21875,475 C 769.03263,475.19855 768.9375,475.41405 768.9375,475.625 C 768.93748,475.79873 768.98206,475.93841 769.09375,476.0625 C 769.21787,476.1742 769.38877,476.21876 769.5625,476.21875 C 769.66176,476.21875 769.74447,476.21232 769.84375,476.1875 C 769.94304,476.16269 770.0634,476.11812 770.1875,476.03125 L 771.15625,475.375 L 771.15625,480.5625 C 771.15626,480.77347 771.23849,480.94484 771.375,481.09375 C 771.51149,481.23024 771.66404,481.3125 771.875,481.3125 L 772.34375,481.3125 C 772.55473,481.3125 772.70724,481.23025 772.84375,481.09375 C 772.99263,480.94483 773.06249,480.77346 773.0625,480.5625 L 773.0625,473.21875 C 773.06251,473.00781 772.99266,472.85526 772.84375,472.71875 C 772.70722,472.56984 772.5547,472.46876 772.34375,472.46875 L 771.875,472.46875 z M 781.625,472.46875 C 781.30238,472.46875 781.00416,472.53217 780.71875,472.65625 C 780.44574,472.78035 780.21096,472.97655 780,473.1875 C 779.78904,473.39848 779.62409,473.62084 779.5,473.90625 C 779.37589,474.17927 779.3125,474.48987 779.3125,474.8125 L 779.3125,478.96875 C 779.3125,479.2914 779.37591,479.62084 779.5,479.90625 C 779.62408,480.17927 779.78904,480.41404 780,480.625 C 780.21096,480.83596 780.44574,481.00091 780.71875,481.125 C 781.00415,481.24908 781.30236,481.3125 781.625,481.3125 L 784.5,481.3125 C 784.82263,481.3125 785.13324,481.24909 785.40625,481.125 C 785.69163,481.00089 785.94528,480.83596 786.15625,480.625 C 786.36722,480.41405 786.53215,480.17926 786.65625,479.90625 C 786.78031,479.62085 786.84374,479.29139 786.84375,478.96875 L 786.84375,474.8125 C 786.84376,474.48988 786.78033,474.17926 786.65625,473.90625 C 786.53212,473.62085 786.3672,473.39847 786.15625,473.1875 C 785.94531,472.97656 785.69166,472.78035 785.40625,472.65625 C 785.13321,472.53217 784.82264,472.46876 784.5,472.46875 L 781.625,472.46875 z M 782.0625,474.1875 L 784.09375,474.1875 C 784.3295,474.18751 784.52617,474.27619 784.6875,474.4375 C 784.84879,474.59884 784.90624,474.79548 784.90625,475.03125 L 784.90625,478.75 C 784.90626,478.98578 784.84881,479.18243 784.6875,479.34375 C 784.52615,479.50508 784.32952,479.59375 784.09375,479.59375 L 782.0625,479.59375 C 781.82671,479.59376 781.63007,479.50507 781.46875,479.34375 C 781.30741,479.18243 781.21875,478.98578 781.21875,478.75 L 781.21875,475.03125 C 781.21875,474.79547 781.30743,474.59883 781.46875,474.4375 C 781.63005,474.2762 781.82672,474.18751 782.0625,474.1875 z M 775.65625,478.5625 C 775.44529,478.56249 775.24266,478.63234 775.09375,478.78125 C 774.95724,478.91775 774.90625,479.10154 774.90625,479.3125 L 774.90625,480.5625 C 774.90626,480.77347 774.95725,480.94484 775.09375,481.09375 C 775.24265,481.23024 775.44529,481.3125 775.65625,481.3125 L 776.375,481.3125 C 776.58595,481.3125 776.76974,481.23025 776.90625,481.09375 C 777.05516,480.94483 777.125,480.77346 777.125,480.5625 L 777.125,479.3125 C 777.12498,479.10155 777.05516,478.91775 776.90625,478.78125 C 776.76975,478.63234 776.58596,478.5625 776.375,478.5625 L 775.65625,478.5625 z"
           inkscape:href="#text5896"
           id="path6670"
           style="font-size:18.61394501px;font-style:normal;font-variant:normal;font-weight:bold;font-stretch:normal;text-indent:0;text-align:start;text-decoration:none;line-height:100%;letter-spacing:normal;word-spacing:normal;text-transform:none;direction:ltr;block-progression:tb;writing-mode:lr-tb;text-anchor:start;opacity:1;fill:#000000;fill-opacity:1;fill-rule:nonzero;stroke:none;stroke-width:1px;stroke-linecap:butt;stroke-linejoin:miter;marker:none;marker-start:none;marker-mid:none;marker-end:none;stroke-miterlimit:4;stroke-dasharray:none;stroke-dashoffset:0;stroke-opacity:1;visibility:visible;display:inline;overflow:visible;filter:url(#filter6764);enable-background:accumulate;font-family:ChollaWideBoldOS;-inkscape-font-specification:ChollaWideBoldOS Bold"
           xlink:href="#text5896"
           inkscape:original="M 764.84375 472.46875 C 764.73205 472.46875 764.61168 472.50046 764.5 472.5625 C 764.38833 472.61216 764.31204 472.67555 764.25 472.75 L 762.1875 475 C 762.00136 475.19855 761.90625 475.41405 761.90625 475.625 C 761.90627 475.79873 761.95081 475.93841 762.0625 476.0625 C 762.1866 476.1742 762.32627 476.21876 762.5 476.21875 C 762.5993 476.21875 762.71322 476.21232 762.8125 476.1875 C 762.91177 476.16269 763.03215 476.11812 763.15625 476.03125 L 764.125 475.375 L 764.125 480.5625 C 764.12499 480.77347 764.17599 480.94484 764.3125 481.09375 C 764.44897 481.23024 764.63279 481.3125 764.84375 481.3125 L 765.28125 481.3125 C 765.49221 481.3125 765.67599 481.23025 765.8125 481.09375 C 765.96142 480.94483 766.03124 480.77346 766.03125 480.5625 L 766.03125 473.21875 C 766.03124 473.00781 765.96141 472.85526 765.8125 472.71875 C 765.67601 472.56984 765.4922 472.46876 765.28125 472.46875 L 764.84375 472.46875 z M 771.875 472.46875 C 771.76332 472.46875 771.67418 472.50046 771.5625 472.5625 C 771.45079 472.61216 771.34329 472.67555 771.28125 472.75 L 769.21875 475 C 769.03263 475.19855 768.9375 475.41405 768.9375 475.625 C 768.93748 475.79873 768.98206 475.93841 769.09375 476.0625 C 769.21787 476.1742 769.38877 476.21876 769.5625 476.21875 C 769.66176 476.21875 769.74447 476.21232 769.84375 476.1875 C 769.94304 476.16269 770.0634 476.11812 770.1875 476.03125 L 771.15625 475.375 L 771.15625 480.5625 C 771.15626 480.77347 771.23849 480.94484 771.375 481.09375 C 771.51149 481.23024 771.66404 481.3125 771.875 481.3125 L 772.34375 481.3125 C 772.55473 481.3125 772.70724 481.23025 772.84375 481.09375 C 772.99263 480.94483 773.06249 480.77346 773.0625 480.5625 L 773.0625 473.21875 C 773.06251 473.00781 772.99266 472.85526 772.84375 472.71875 C 772.70722 472.56984 772.5547 472.46876 772.34375 472.46875 L 771.875 472.46875 z M 781.625 472.46875 C 781.30238 472.46875 781.00416 472.53217 780.71875 472.65625 C 780.44574 472.78035 780.21096 472.97655 780 473.1875 C 779.78904 473.39848 779.62409 473.62084 779.5 473.90625 C 779.37589 474.17927 779.3125 474.48987 779.3125 474.8125 L 779.3125 478.96875 C 779.3125 479.2914 779.37591 479.62084 779.5 479.90625 C 779.62408 480.17927 779.78904 480.41404 780 480.625 C 780.21096 480.83596 780.44574 481.00091 780.71875 481.125 C 781.00415 481.24908 781.30236 481.3125 781.625 481.3125 L 784.5 481.3125 C 784.82263 481.3125 785.13324 481.24909 785.40625 481.125 C 785.69163 481.00089 785.94528 480.83596 786.15625 480.625 C 786.36722 480.41405 786.53215 480.17926 786.65625 479.90625 C 786.78031 479.62085 786.84374 479.29139 786.84375 478.96875 L 786.84375 474.8125 C 786.84376 474.48988 786.78033 474.17926 786.65625 473.90625 C 786.53212 473.62085 786.3672 473.39847 786.15625 473.1875 C 785.94531 472.97656 785.69166 472.78035 785.40625 472.65625 C 785.13321 472.53217 784.82264 472.46876 784.5 472.46875 L 781.625 472.46875 z M 782.0625 474.1875 L 784.09375 474.1875 C 784.3295 474.18751 784.52617 474.27619 784.6875 474.4375 C 784.84879 474.59884 784.90624 474.79548 784.90625 475.03125 L 784.90625 478.75 C 784.90626 478.98578 784.84881 479.18243 784.6875 479.34375 C 784.52615 479.50508 784.32952 479.59375 784.09375 479.59375 L 782.0625 479.59375 C 781.82671 479.59376 781.63007 479.50507 781.46875 479.34375 C 781.30741 479.18243 781.21875 478.98578 781.21875 478.75 L 781.21875 475.03125 C 781.21875 474.79547 781.30743 474.59883 781.46875 474.4375 C 781.63005 474.2762 781.82672 474.18751 782.0625 474.1875 z M 775.65625 478.5625 C 775.44529 478.56249 775.24266 478.63234 775.09375 478.78125 C 774.95724 478.91775 774.90625 479.10154 774.90625 479.3125 L 774.90625 480.5625 C 774.90626 480.77347 774.95725 480.94484 775.09375 481.09375 C 775.24265 481.23024 775.44529 481.3125 775.65625 481.3125 L 776.375 481.3125 C 776.58595 481.3125 776.76974 481.23025 776.90625 481.09375 C 777.05516 480.94483 777.125 480.77346 777.125 480.5625 L 777.125 479.3125 C 777.12498 479.10155 777.05516 478.91775 776.90625 478.78125 C 776.76975 478.63234 776.58596 478.5625 776.375 478.5625 L 775.65625 478.5625 z "
           inkscape:radius="0"
           sodipodi:type="inkscape:offset" />
        <text
           transform="scale(0.9722646,1.0285266)"
           sodipodi:linespacing="100%"
           id="text5896"
           y="481.30707"
           x="760.24097"
           style="font-size:18.61394501px;font-style:normal;font-variant:normal;font-weight:bold;font-stretch:normal;text-indent:0;text-align:start;text-decoration:none;line-height:100%;letter-spacing:normal;word-spacing:normal;text-transform:none;direction:ltr;block-progression:tb;writing-mode:lr-tb;text-anchor:start;opacity:1;fill:#ffffff;fill-opacity:1;fill-rule:nonzero;stroke:none;stroke-width:1px;stroke-linecap:butt;stroke-linejoin:miter;marker:none;marker-start:none;marker-mid:none;marker-end:none;stroke-miterlimit:4;stroke-dasharray:none;stroke-dashoffset:0;stroke-opacity:1;visibility:visible;display:inline;overflow:visible;enable-background:accumulate;font-family:ChollaWideBoldOS;-inkscape-font-specification:ChollaWideBoldOS Bold"
           xml:space="preserve"><tspan
             style="font-size:18.61394501px;font-style:normal;font-variant:normal;font-weight:bold;font-stretch:normal;text-align:start;line-height:100%;writing-mode:lr-tb;text-anchor:start;fill:#ffffff;fill-opacity:1;stroke:none;stroke-width:1;font-family:ChollaWideBoldOS;-inkscape-font-specification:ChollaWideBoldOS Bold"
             y="481.30707"
             x="760.24097"
             id="tspan5898"
             sodipodi:role="line"
             dx="0 -2.6268671 -3.1522405">11.0</tspan></text>
      </g>
    </g>
    <path
       sodipodi:type="inkscape:offset"
       inkscape:radius="0"
       inkscape:original="M 26.1875 129.875 C 25.953909 129.87502 25.758624 129.96013 25.59375 130.125 C 25.4426 130.27615 25.374992 130.48518 25.375 130.71875 L 25.375 134.75 C 25.374992 134.91489 25.311154 135.00001 25.1875 135 C 25.06383 135 24.911105 134.93994 24.71875 134.84375 C 24.52638 134.73383 24.292307 134.62367 24.03125 134.5 C 23.78392 134.36261 23.521028 134.25244 23.21875 134.15625 C 22.91646 134.04634 22.57599 134.00001 22.21875 134 L 21.90625 134 C 20.889473 134 20.137154 134.25913 19.65625 134.78125 C 19.189082 135.30338 18.968749 135.95308 18.96875 136.75 L 18.96875 141.125 C 18.968749 141.92194 19.189082 142.57162 19.65625 143.09375 C 20.137154 143.61588 20.889473 143.875 21.90625 143.875 L 22.21875 143.875 C 22.57599 143.875 22.916461 143.84618 23.21875 143.75 C 23.521028 143.64008 23.783921 143.51617 24.03125 143.40625 C 24.292307 143.28258 24.526381 143.15868 24.71875 143.0625 C 24.911105 142.95258 25.063831 142.90625 25.1875 142.90625 C 25.256193 142.90624 25.320032 142.91002 25.375 142.9375 C 25.443693 142.95124 25.507531 143.01131 25.5625 143.09375 L 26.0625 143.8125 L 26.75 143.8125 C 27.024794 143.8125 27.233819 143.74112 27.34375 143.5625 C 27.453662 143.38387 27.49999 143.21364 27.5 143.0625 L 27.5 129.875 L 26.1875 129.875 z M 66.90625 129.875 C 66.672664 129.87502 66.47738 129.96013 66.3125 130.125 C 66.16136 130.27615 66.093749 130.48518 66.09375 130.71875 L 66.09375 143 C 66.093746 143.23359 66.161356 143.42887 66.3125 143.59375 C 66.477384 143.74489 66.672665 143.8125 66.90625 143.8125 L 68.21875 143.8125 L 68.21875 130.71875 C 68.218748 130.48518 68.133629 130.27616 67.96875 130.125 C 67.817605 129.96013 67.60858 129.87501 67.375 129.875 L 66.90625 129.875 z M 99.75 129.875 C 99.516411 129.87502 99.321124 129.96013 99.15625 130.125 C 99.005098 130.27615 98.906242 130.48518 98.90625 130.71875 L 98.90625 134.75 C 98.906242 134.91489 98.842404 135.00001 98.71875 135 C 98.595082 135 98.442355 134.93994 98.25 134.84375 C 98.057632 134.73383 97.823557 134.62367 97.5625 134.5 C 97.31517 134.36261 97.052278 134.25244 96.75 134.15625 C 96.447708 134.04634 96.10724 134.00001 95.75 134 L 95.46875 134 C 94.451969 134 93.699654 134.25913 93.21875 134.78125 C 92.751586 135.30338 92.499999 135.95308 92.5 136.75 L 92.5 141.125 C 92.499997 141.92194 92.751582 142.57162 93.21875 143.09375 C 93.699658 143.61588 94.451973 143.875 95.46875 143.875 L 95.75 143.875 C 96.10724 143.875 96.447711 143.84618 96.75 143.75 C 97.052276 143.64008 97.315171 143.51617 97.5625 143.40625 C 97.823557 143.28258 98.057631 143.15868 98.25 143.0625 C 98.442357 142.95258 98.595081 142.90625 98.71875 142.90625 C 98.787444 142.90624 98.851282 142.91002 98.90625 142.9375 C 98.974943 142.95124 99.038781 143.01131 99.09375 143.09375 L 99.59375 143.8125 L 100.28125 143.8125 C 100.55604 143.8125 100.76507 143.74112 100.875 143.5625 C 100.98491 143.38387 101.03124 143.21364 101.03125 143.0625 L 101.03125 129.875 L 99.75 129.875 z M 60.1875 134 C 59.843987 134 59.503519 134.04634 59.1875 134.15625 C 58.885211 134.25245 58.604809 134.36261 58.34375 134.5 C 58.082681 134.62368 57.848608 134.73384 57.65625 134.84375 C 57.463885 134.93993 57.311158 135.00001 57.1875 135 C 57.063837 135 56.971178 134.91866 56.875 134.78125 L 56.34375 134.0625 L 55.65625 134.0625 C 55.381443 134.06251 55.17242 134.13389 55.0625 134.3125 C 54.952575 134.49113 54.906249 134.66137 54.90625 134.8125 L 54.90625 143 C 54.906247 143.23359 54.973857 143.42887 55.125 143.59375 C 55.289881 143.74489 55.485165 143.8125 55.71875 143.8125 L 56.21875 143.8125 C 56.452331 143.8125 56.630105 143.74489 56.78125 143.59375 C 56.94613 143.42887 57.031247 143.23358 57.03125 143 L 57.03125 136.875 C 57.031245 136.61394 57.133874 136.39738 57.3125 136.21875 C 57.491118 136.04013 57.707682 135.93751 57.96875 135.9375 L 60.40625 135.9375 C 60.667307 135.9375 60.88387 136.04014 61.0625 136.21875 C 61.241114 136.39738 61.312492 136.61394 61.3125 136.875 L 61.3125 143 C 61.312492 143.23359 61.3801 143.42887 61.53125 143.59375 C 61.696122 143.74489 61.922659 143.8125 62.15625 143.8125 L 62.625 143.8125 C 62.858576 143.8125 63.036349 143.74489 63.1875 143.59375 C 63.352371 143.42887 63.43749 143.23358 63.4375 143 L 63.4375 136.75 C 63.43749 135.95308 63.199647 135.30339 62.71875 134.78125 C 62.251574 134.25913 61.516766 134.00001 60.5 134 L 60.1875 134 z M 41.40625 134.03125 L 40.84375 134.15625 C 40.665128 134.19748 40.533681 134.31762 40.4375 134.46875 C 40.341318 134.60616 40.281249 134.75512 40.28125 134.90625 C 40.28125 134.9887 40.298759 135.03503 40.3125 135.0625 L 42.4375 142.78125 C 42.464977 142.87744 42.507536 142.97009 42.5625 143.09375 C 42.617458 143.21741 42.667556 143.32758 42.75 143.4375 C 42.832436 143.53368 42.938835 143.63631 43.0625 143.71875 C 43.186156 143.78746 43.317604 143.8125 43.46875 143.8125 L 44.1875 143.8125 C 44.462299 143.8125 44.678863 143.7061 44.84375 143.5 C 45.008626 143.28016 45.150044 143.06359 45.21875 142.84375 L 46.15625 140.21875 C 46.238685 139.98517 46.323802 139.71231 46.40625 139.4375 C 46.488686 139.1627 46.552523 138.94614 46.59375 138.78125 C 46.648704 138.61638 46.656243 138.52749 46.65625 138.5 L 46.6875 138.5 C 46.687495 138.52749 46.708772 138.61637 46.75 138.78125 C 46.804954 138.94614 46.886302 139.1627 46.96875 139.4375 C 47.051182 139.71231 47.136301 139.98517 47.21875 140.21875 L 48.15625 142.84375 C 48.224941 143.0636 48.335109 143.28016 48.5 143.5 C 48.664875 143.70611 48.881437 143.8125 49.15625 143.8125 L 49.875 143.8125 C 50.026132 143.8125 50.188828 143.78745 50.3125 143.71875 C 50.436153 143.63632 50.511298 143.53368 50.59375 143.4375 C 50.676182 143.32758 50.757528 143.21741 50.8125 143.09375 C 50.86745 142.97009 50.910008 142.87743 50.9375 142.78125 L 53.0625 135.0625 C 53.076227 135.03503 53.093737 134.9887 53.09375 134.90625 C 53.093736 134.75512 53.033668 134.60616 52.9375 134.46875 C 52.841305 134.31762 52.709859 134.19748 52.53125 134.15625 L 51.96875 134.03125 C 51.776377 133.9763 51.584861 134.00135 51.40625 134.125 C 51.227616 134.23492 51.117449 134.4014 51.0625 134.59375 L 50 138.65625 C 49.945027 138.88984 49.881191 139.19152 49.8125 139.5625 C 49.757528 139.91974 49.679951 140.29901 49.625 140.65625 C 49.570029 140.99975 49.527471 141.30144 49.5 141.5625 C 49.472509 141.80983 49.464971 141.90625 49.4375 141.90625 C 49.35505 141.56275 49.269932 141.27858 49.1875 141.03125 C 49.118789 140.78394 49.051182 140.52481 48.96875 140.25 C 48.886301 139.96146 48.801182 139.71985 48.71875 139.5 L 47.9375 137.46875 C 47.868791 137.30387 47.762394 137.17243 47.625 137.0625 C 47.487591 136.95259 47.334865 136.90626 47.15625 136.90625 L 46.1875 136.90625 C 46.00887 136.90625 45.856146 136.95259 45.71875 137.0625 C 45.581342 137.17243 45.474945 137.30387 45.40625 137.46875 L 44.65625 139.5 C 44.573804 139.71984 44.488686 139.96146 44.40625 140.25 C 44.323803 140.52481 44.238687 140.78393 44.15625 141.03125 C 44.087546 141.27858 44.041216 141.50888 44 141.6875 C 43.958777 141.85238 43.902476 141.90625 43.875 141.90625 C 43.820035 141.39787 43.773707 140.99976 43.71875 140.65625 C 43.663786 140.29901 43.617457 139.91975 43.5625 139.5625 C 43.507536 139.19151 43.443697 138.88984 43.375 138.65625 L 42.3125 134.59375 C 42.257535 134.4014 42.11612 134.23493 41.9375 134.125 C 41.758875 134.00134 41.598611 133.9763 41.40625 134.03125 z M 32.53125 134.0625 C 32.174002 134.06251 31.847271 134.11261 31.53125 134.25 C 31.228964 134.38741 30.952331 134.57893 30.71875 134.8125 C 30.485165 135.0461 30.29365 135.30898 30.15625 135.625 C 30.018846 135.92729 29.937499 136.26776 29.9375 136.625 L 29.9375 141.25 C 29.937499 141.60724 30.018847 141.93398 30.15625 142.25 C 30.293649 142.55228 30.485165 142.82892 30.71875 143.0625 C 30.952331 143.29608 31.228963 143.4876 31.53125 143.625 C 31.847272 143.7624 32.174002 143.8125 32.53125 143.8125 L 35.875 143.8125 C 36.232236 143.8125 36.572708 143.7624 36.875 143.625 C 37.191016 143.4876 37.453908 143.29608 37.6875 143.0625 C 37.921073 142.82891 38.112589 142.55229 38.25 142.25 C 38.387392 141.93397 38.46874 141.60725 38.46875 141.25 L 38.46875 136.625 C 38.468739 136.26777 38.387392 135.92729 38.25 135.625 C 38.112588 135.30898 37.921074 135.04609 37.6875 134.8125 C 37.453907 134.57893 37.191016 134.38741 36.875 134.25 C 36.572708 134.11261 36.232237 134.06251 35.875 134.0625 L 32.53125 134.0625 z M 73.4375 134.0625 C 73.08025 134.06251 72.722271 134.11261 72.40625 134.25 C 72.10396 134.38741 71.858581 134.57893 71.625 134.8125 C 71.391413 135.0461 71.1999 135.30898 71.0625 135.625 C 70.925098 135.92729 70.843749 136.26776 70.84375 136.625 L 70.84375 141.25 C 70.843747 141.60724 70.925097 141.93398 71.0625 142.25 C 71.199901 142.55228 71.391415 142.82892 71.625 143.0625 C 71.858579 143.29608 72.103963 143.4876 72.40625 143.625 C 72.722268 143.7624 73.080252 143.8125 73.4375 143.8125 L 76.78125 143.8125 C 77.138488 143.8125 77.478958 143.7624 77.78125 143.625 C 78.097264 143.4876 78.360158 143.29608 78.59375 143.0625 C 78.827325 142.82891 79.018839 142.55229 79.15625 142.25 C 79.29364 141.93397 79.37499 141.60725 79.375 141.25 L 79.375 136.625 C 79.37499 136.26777 79.293642 135.92729 79.15625 135.625 C 79.018837 135.30898 78.827324 135.04609 78.59375 134.8125 C 78.360158 134.57893 78.097266 134.38741 77.78125 134.25 C 77.478956 134.11261 77.138487 134.06251 76.78125 134.0625 L 73.4375 134.0625 z M 83.3125 134.0625 C 83.092657 134.06251 82.91488 134.10884 82.75 134.21875 C 82.598858 134.32869 82.531248 134.48141 82.53125 134.6875 L 82.53125 135.9375 L 87.09375 135.9375 C 87.327329 135.9375 87.505101 136.04014 87.65625 136.21875 C 87.807388 136.38364 87.906243 136.55764 87.90625 136.75 L 87.90625 138.28125 C 87.906244 138.44614 87.842404 138.53126 87.71875 138.53125 C 87.595084 138.53126 87.442356 138.47119 87.25 138.375 C 87.057634 138.26508 86.823557 138.15492 86.5625 138.03125 C 86.315172 137.89385 86.021029 137.78369 85.71875 137.6875 C 85.41646 137.57758 85.10724 137.50001 84.75 137.5 L 84.4375 137.5 C 83.420721 137.50001 82.668405 137.75913 82.1875 138.28125 C 81.72033 138.80338 81.499999 139.48432 81.5 140.28125 L 81.5 141.125 C 81.499999 141.92194 81.720332 142.57162 82.1875 143.09375 C 82.668402 143.61588 83.420723 143.875 84.4375 143.875 L 84.75 143.875 C 85.107242 143.875 85.416461 143.84618 85.71875 143.75 C 86.021028 143.64008 86.315171 143.51617 86.5625 143.40625 C 86.823558 143.28258 87.057631 143.15868 87.25 143.0625 C 87.442359 142.95258 87.595081 142.90625 87.71875 142.90625 C 87.787446 142.90624 87.851282 142.91002 87.90625 142.9375 C 87.974945 142.95124 88.038782 143.01131 88.09375 143.09375 L 88.59375 143.8125 L 89.28125 143.8125 C 89.556046 143.8125 89.733819 143.74112 89.84375 143.5625 C 89.953664 143.38387 90.031241 143.21364 90.03125 143.0625 L 90.03125 136.4375 C 90.031238 136.12148 89.971172 135.8198 89.875 135.53125 C 89.778806 135.24272 89.626084 135.0011 89.40625 134.78125 C 89.200136 134.56141 88.937246 134.37367 88.59375 134.25 C 88.263981 134.11261 87.842159 134.06251 87.375 134.0625 L 83.3125 134.0625 z M 22 135.9375 L 24.4375 135.9375 C 24.698557 135.9375 24.91512 136.04014 25.09375 136.21875 C 25.272364 136.39738 25.374992 136.61394 25.375 136.875 L 25.375 141 C 25.374992 141.26107 25.272365 141.47763 25.09375 141.65625 C 24.91512 141.83487 24.698557 141.90625 24.4375 141.90625 L 22 141.90625 C 21.738932 141.90625 21.522369 141.83487 21.34375 141.65625 C 21.165123 141.47763 21.093747 141.26107 21.09375 141 L 21.09375 136.875 C 21.093747 136.61394 21.165124 136.39738 21.34375 136.21875 C 21.522368 136.04013 21.738932 135.93751 22 135.9375 z M 33 135.9375 L 35.40625 135.9375 C 35.667306 135.9375 35.88387 136.04014 36.0625 136.21875 C 36.241117 136.39738 36.343742 136.61394 36.34375 136.875 L 36.34375 141 C 36.343741 141.26107 36.241115 141.47763 36.0625 141.65625 C 35.883872 141.83487 35.667307 141.90625 35.40625 141.90625 L 33 141.90625 C 32.738932 141.90625 32.522369 141.83487 32.34375 141.65625 C 32.165125 141.47763 32.062497 141.26107 32.0625 141 L 32.0625 136.875 C 32.062497 136.61394 32.165124 136.39738 32.34375 136.21875 C 32.52237 136.04013 32.738932 135.93751 33 135.9375 z M 73.90625 135.9375 L 76.3125 135.9375 C 76.573558 135.9375 76.79012 136.04014 76.96875 136.21875 C 77.147365 136.39738 77.249992 136.61394 77.25 136.875 L 77.25 141 C 77.249989 141.26107 77.147365 141.47763 76.96875 141.65625 C 76.79012 141.83487 76.573557 141.90625 76.3125 141.90625 L 73.90625 141.90625 C 73.64518 141.90625 73.428619 141.83487 73.25 141.65625 C 73.071373 141.47763 72.968747 141.26107 72.96875 141 L 72.96875 136.875 C 72.968749 136.61394 73.071374 136.39738 73.25 136.21875 C 73.428618 136.04013 73.645182 135.93751 73.90625 135.9375 z M 95.5625 135.9375 L 98 135.9375 C 98.261054 135.9375 98.47762 136.04014 98.65625 136.21875 C 98.834868 136.39738 98.906242 136.61394 98.90625 136.875 L 98.90625 141 C 98.906242 141.26107 98.834865 141.47763 98.65625 141.65625 C 98.477623 141.83487 98.261057 141.90625 98 141.90625 L 95.5625 141.90625 C 95.30143 141.90625 95.084869 141.83487 94.90625 141.65625 C 94.727623 141.47763 94.624997 141.26107 94.625 141 L 94.625 136.875 C 94.624999 136.61394 94.727624 136.39738 94.90625 136.21875 C 95.084868 136.04013 95.301432 135.93751 95.5625 135.9375 z M 84.53125 139.46875 L 86.96875 139.46875 C 87.229805 139.46875 87.446371 139.57138 87.625 139.75 C 87.803612 139.92863 87.906243 140.14519 87.90625 140.40625 L 87.90625 141 C 87.906244 141.26107 87.803615 141.47763 87.625 141.65625 C 87.446367 141.83487 87.229807 141.90625 86.96875 141.90625 L 84.53125 141.90625 C 84.270182 141.90625 84.053619 141.83487 83.875 141.65625 C 83.696375 141.47763 83.624997 141.26107 83.625 141 L 83.625 140.40625 C 83.625 140.14519 83.696374 139.92863 83.875 139.75 C 84.053619 139.57139 84.270183 139.46875 84.53125 139.46875 z M 42.15625 150.5 C 41.922664 150.50001 41.727381 150.58513 41.5625 150.75 C 41.411355 150.90116 41.343749 151.07893 41.34375 151.3125 L 41.34375 163.59375 C 41.343749 163.82734 41.411357 164.02262 41.5625 164.1875 C 41.727379 164.33864 41.922665 164.4375 42.15625 164.4375 L 42.65625 164.4375 C 42.889829 164.4375 43.067605 164.33864 43.21875 164.1875 C 43.383628 164.02262 43.468747 163.82733 43.46875 163.59375 L 43.46875 157.46875 C 43.468747 157.20769 43.540124 156.99113 43.71875 156.8125 C 43.89737 156.63388 44.145182 156.56251 44.40625 156.5625 L 46.8125 156.5625 C 47.073556 156.56251 47.32137 156.63389 47.5 156.8125 C 47.678616 156.99112 47.749992 157.20769 47.75 157.46875 L 47.75 163.59375 C 47.749991 163.82734 47.8176 164.02262 47.96875 164.1875 C 48.133625 164.33864 48.328909 164.4375 48.5625 164.4375 L 49.0625 164.4375 C 49.296074 164.4375 49.473849 164.33864 49.625 164.1875 C 49.789873 164.02262 49.87499 163.82733 49.875 163.59375 L 49.875 157.34375 C 49.874992 156.54683 49.637147 155.89714 49.15625 155.375 C 48.689076 154.85288 47.954266 154.59376 46.9375 154.59375 L 46.625 154.59375 C 46.281489 154.59376 45.941019 154.64009 45.625 154.75 C 45.322709 154.84619 45.042309 154.98761 44.78125 155.125 C 44.533923 155.24867 44.317358 155.35884 44.125 155.46875 C 43.932632 155.56495 43.779908 155.59376 43.65625 155.59375 C 43.532584 155.59377 43.468747 155.50864 43.46875 155.34375 L 43.46875 150.5 L 42.15625 150.5 z M 54.90625 154.65625 C 54.549 154.65627 54.222271 154.73761 53.90625 154.875 C 53.603964 154.99867 53.327331 155.17268 53.09375 155.40625 C 52.860164 155.63985 52.66865 155.90273 52.53125 156.21875 C 52.393848 156.53478 52.343749 156.86151 52.34375 157.21875 L 52.34375 161.84375 C 52.343748 162.201 52.393847 162.55898 52.53125 162.875 C 52.668652 163.19103 52.860165 163.45392 53.09375 163.6875 C 53.32733 163.92108 53.603963 164.1126 53.90625 164.25 C 54.222272 164.37367 54.549002 164.4375 54.90625 164.4375 L 58.625 164.4375 C 58.858575 164.4375 59.03635 164.37366 59.1875 164.25 C 59.352374 164.1126 59.437492 163.92108 59.4375 163.6875 L 59.4375 162.53125 L 55.3125 162.53125 C 55.078913 162.53125 54.852379 162.46364 54.6875 162.3125 C 54.522614 162.16136 54.468747 161.94857 54.46875 161.6875 L 54.46875 160.34375 L 59.59375 160.34375 C 59.950988 160.34375 60.252667 160.21608 60.5 159.96875 C 60.747315 159.72143 60.87499 159.41975 60.875 159.0625 L 60.875 157.21875 C 60.87499 156.86151 60.793642 156.55229 60.65625 156.25 C 60.51884 155.93398 60.327324 155.63984 60.09375 155.40625 C 59.860158 155.17268 59.597266 155.01241 59.28125 154.875 C 58.978956 154.7376 58.638487 154.65626 58.28125 154.65625 L 54.90625 154.65625 z M 63.625 154.65625 C 63.350195 154.65627 63.14117 154.75889 63.03125 154.9375 C 62.921328 155.11613 62.874999 155.25512 62.875 155.40625 L 62.875 163.59375 C 62.874999 163.82734 62.942607 164.02262 63.09375 164.1875 C 63.258629 164.33864 63.485165 164.4375 63.71875 164.4375 L 64.1875 164.4375 C 64.421079 164.4375 64.598855 164.33864 64.75 164.1875 C 64.914878 164.02262 64.999997 163.82733 65 163.59375 L 65 157.4375 C 64.999997 157.17645 65.102624 156.97739 65.28125 156.8125 C 65.459866 156.64762 65.620133 156.56251 65.8125 156.5625 L 69.6875 156.5625 L 69.6875 155.40625 C 69.687495 155.17268 69.619884 154.99867 69.46875 154.875 C 69.317598 154.7376 69.139826 154.65626 68.90625 154.65625 L 67.09375 154.65625 C 66.791461 154.65627 66.549848 154.71633 66.34375 154.8125 C 66.151383 154.9087 65.981148 155.00135 65.84375 155.125 C 65.706342 155.24867 65.578668 155.37258 65.46875 155.46875 C 65.372565 155.56495 65.266168 155.59376 65.15625 155.59375 C 65.032589 155.59377 64.939928 155.54366 64.84375 155.40625 L 64.3125 154.65625 L 63.625 154.65625 z M 73.15625 154.65625 C 72.799002 154.65627 72.441021 154.73761 72.125 154.875 C 71.822712 154.99867 71.577331 155.17268 71.34375 155.40625 C 71.110165 155.63985 70.91865 155.90273 70.78125 156.21875 C 70.64385 156.53478 70.562499 156.86151 70.5625 157.21875 L 70.5625 161.84375 C 70.562499 162.201 70.643847 162.55898 70.78125 162.875 C 70.918653 163.19103 71.110165 163.45392 71.34375 163.6875 C 71.577331 163.92108 71.822713 164.1126 72.125 164.25 C 72.44102 164.37367 72.799002 164.4375 73.15625 164.4375 L 76.84375 164.4375 C 77.077323 164.4375 77.28635 164.37366 77.4375 164.25 C 77.602372 164.1126 77.687492 163.92108 77.6875 163.6875 L 77.6875 162.53125 L 73.53125 162.53125 C 73.297665 162.53125 73.102379 162.46364 72.9375 162.3125 C 72.772612 162.16136 72.687497 161.94857 72.6875 161.6875 L 72.6875 160.34375 L 77.8125 160.34375 C 78.169736 160.34375 78.471417 160.21608 78.71875 159.96875 C 78.966064 159.72143 79.09374 159.41975 79.09375 159.0625 L 79.09375 157.21875 C 79.093738 156.86151 79.043642 156.55229 78.90625 156.25 C 78.768842 155.93398 78.577324 155.63984 78.34375 155.40625 C 78.110156 155.17268 77.816016 155.01241 77.5 154.875 C 77.197704 154.7376 76.888487 154.65626 76.53125 154.65625 L 73.15625 154.65625 z M 55.28125 156.5625 L 57.90625 156.5625 C 58.139824 156.56251 58.348851 156.64763 58.5 156.8125 C 58.664874 156.96365 58.749992 157.14142 58.75 157.375 L 58.75 158.625 L 54.46875 158.625 L 54.46875 157.375 C 54.468745 157.14142 54.536354 156.96365 54.6875 156.8125 C 54.852379 156.64762 55.047663 156.56251 55.28125 156.5625 z M 73.5 156.5625 L 76.15625 156.5625 C 76.389826 156.56251 76.567601 156.64763 76.71875 156.8125 C 76.883626 156.96365 76.968742 157.14142 76.96875 157.375 L 76.96875 158.625 L 72.6875 158.625 L 72.6875 157.375 C 72.687493 157.14142 72.755104 156.96365 72.90625 156.8125 C 73.071131 156.64762 73.266413 156.56251 73.5 156.5625 z "
       xlink:href="#text6775"
       style="font-size:27.95907974px;font-style:normal;font-variant:normal;font-weight:bold;font-stretch:normal;text-indent:0;text-align:start;text-decoration:none;line-height:100%;letter-spacing:normal;word-spacing:normal;text-transform:none;direction:ltr;block-progression:tb;writing-mode:lr-tb;text-anchor:start;opacity:1;fill:#000000;fill-opacity:1;fill-rule:nonzero;stroke:none;stroke-width:1px;stroke-linecap:butt;stroke-linejoin:miter;marker:none;marker-start:none;marker-mid:none;marker-end:none;stroke-miterlimit:4;stroke-dasharray:none;stroke-dashoffset:0;stroke-opacity:1;visibility:visible;display:inline;overflow:visible;filter:url(#filter6851);enable-background:accumulate;font-family:ChollaWideBoldOS;-inkscape-font-specification:ChollaWideBoldOS Bold"
       id="path6300"
       inkscape:href="#text6775"
       d="M 26.25,130.71875 C 26.027793,130.71876 25.813089,130.81192 25.65625,130.96875 C 25.512466,131.11254 25.437493,131.27781 25.4375,131.5 L 25.4375,135.34375 C 25.437492,135.5006 25.398878,135.59376 25.28125,135.59375 C 25.163607,135.59376 24.995481,135.529 24.8125,135.4375 C 24.629505,135.33295 24.435835,135.24264 24.1875,135.125 C 23.952224,134.9943 23.693797,134.87275 23.40625,134.78125 C 23.118693,134.67669 22.77733,134.62501 22.4375,134.625 L 22.15625,134.625 C 21.189025,134.625 20.488718,134.87833 20.03125,135.375 C 19.586848,135.87168 19.343749,136.49191 19.34375,137.25 L 19.34375,141.40625 C 19.343748,142.16435 19.586849,142.78457 20.03125,143.28125 C 20.488717,143.77793 21.189025,144.03125 22.15625,144.03125 L 22.4375,144.03125 C 22.77733,144.03124 23.118692,143.99774 23.40625,143.90625 C 23.693798,143.80169 23.952224,143.69831 24.1875,143.59375 C 24.435835,143.47612 24.629506,143.37274 24.8125,143.28125 C 24.995481,143.17669 25.163608,143.125 25.28125,143.125 C 25.346595,143.125 25.38521,143.13011 25.4375,143.15625 C 25.502845,143.16932 25.57271,143.20283 25.625,143.28125 L 26.09375,143.96875 L 26.78125,143.96875 C 27.042653,143.96875 27.207926,143.88867 27.3125,143.71875 C 27.417055,143.54884 27.468741,143.39378 27.46875,143.25 L 27.46875,130.71875 L 26.25,130.71875 z M 64.96875,130.71875 C 64.746547,130.71876 64.563095,130.81192 64.40625,130.96875 C 64.262474,131.11254 64.187499,131.27781 64.1875,131.5 L 64.1875,143.1875 C 64.187496,143.40971 64.262472,143.59315 64.40625,143.75 C 64.563097,143.89378 64.746548,143.96875 64.96875,143.96875 L 66.1875,143.96875 L 66.1875,131.5 C 66.187496,131.27782 66.125594,131.11254 65.96875,130.96875 C 65.824967,130.81192 65.628447,130.71876 65.40625,130.71875 L 64.96875,130.71875 z M 96.1875,130.71875 C 95.965289,130.71876 95.781839,130.81192 95.625,130.96875 C 95.481216,131.11254 95.406243,131.27781 95.40625,131.5 L 95.40625,135.34375 C 95.406246,135.5006 95.367628,135.59376 95.25,135.59375 C 95.132361,135.59376 94.964231,135.529 94.78125,135.4375 C 94.598259,135.33295 94.373335,135.24264 94.125,135.125 C 93.889722,134.9943 93.631297,134.87275 93.34375,134.78125 C 93.05619,134.67669 92.74608,134.62501 92.40625,134.625 L 92.125,134.625 C 91.157771,134.625 90.426218,134.87833 89.96875,135.375 C 89.524346,135.87168 89.312499,136.49191 89.3125,137.25 L 89.3125,141.40625 C 89.3125,142.16435 89.524349,142.78457 89.96875,143.28125 C 90.426215,143.77793 91.157775,144.03125 92.125,144.03125 L 92.40625,144.03125 C 92.746082,144.03124 93.056192,143.99774 93.34375,143.90625 C 93.631294,143.80169 93.889724,143.69831 94.125,143.59375 C 94.373333,143.47612 94.598256,143.37274 94.78125,143.28125 C 94.964235,143.17669 95.132358,143.125 95.25,143.125 C 95.315349,143.125 95.35396,143.13011 95.40625,143.15625 C 95.471599,143.16932 95.54146,143.20283 95.59375,143.28125 L 96.0625,143.96875 L 96.71875,143.96875 C 96.98015,143.96875 97.176676,143.88867 97.28125,143.71875 C 97.385809,143.54884 97.437491,143.39378 97.4375,143.25 L 97.4375,130.71875 L 96.1875,130.71875 z M 58.5625,134.625 C 58.23573,134.625 57.925618,134.67669 57.625,134.78125 C 57.337444,134.87275 57.060836,134.9943 56.8125,135.125 C 56.564157,135.24264 56.370484,135.33294 56.1875,135.4375 C 56.004509,135.529 55.836382,135.59376 55.71875,135.59375 C 55.601113,135.59376 55.497741,135.53696 55.40625,135.40625 L 54.9375,134.6875 L 54.25,134.6875 C 53.988588,134.68752 53.823313,134.76759 53.71875,134.9375 C 53.614183,135.10743 53.562499,135.26248 53.5625,135.40625 L 53.5625,143.1875 C 53.5625,143.40971 53.637472,143.59315 53.78125,143.75 C 53.938097,143.89378 54.121549,143.96875 54.34375,143.96875 L 54.78125,143.96875 C 55.003449,143.96875 55.199971,143.89378 55.34375,143.75 C 55.500594,143.59316 55.562497,143.4097 55.5625,143.1875 L 55.5625,137.375 C 55.562496,137.12667 55.642579,136.91992 55.8125,136.75 C 55.982414,136.58009 56.189155,136.50001 56.4375,136.5 L 58.75,136.5 C 58.998333,136.50001 59.236326,136.58009 59.40625,136.75 C 59.576159,136.91992 59.656243,137.12667 59.65625,137.375 L 59.65625,143.1875 C 59.656242,143.40971 59.731216,143.59315 59.875,143.75 C 60.031839,143.89378 60.215292,143.96875 60.4375,143.96875 L 60.875,143.96875 C 61.097191,143.96875 61.293715,143.89378 61.4375,143.75 C 61.594336,143.59316 61.656241,143.4097 61.65625,143.1875 L 61.65625,137.25 C 61.656242,136.49191 61.426211,135.87169 60.96875,135.375 C 60.524342,134.87832 59.842215,134.62501 58.875,134.625 L 58.5625,134.625 z M 40.6875,134.65625 L 40.15625,134.8125 C 39.98633,134.85172 39.872743,134.94998 39.78125,135.09375 C 39.689757,135.22447 39.624999,135.35623 39.625,135.5 C 39.625001,135.57843 39.643179,135.63012 39.65625,135.65625 L 41.6875,142.96875 C 41.71364,143.06024 41.728965,143.16362 41.78125,143.28125 C 41.833529,143.39888 41.921574,143.52044 42,143.625 C 42.078422,143.71649 42.163612,143.79658 42.28125,143.875 C 42.398881,143.94035 42.54372,143.96875 42.6875,143.96875 L 43.375,143.96875 C 43.636409,143.96875 43.843148,143.88356 44,143.6875 C 44.156843,143.47837 44.247142,143.27163 44.3125,143.0625 L 45.21875,140.5625 C 45.297169,140.34031 45.39032,140.07392 45.46875,139.8125 C 45.547168,139.5511 45.585782,139.34435 45.625,139.1875 C 45.677276,139.03066 45.718743,138.9324 45.71875,138.90625 C 45.718743,138.93239 45.742032,139.03066 45.78125,139.1875 C 45.833524,139.34435 45.92157,139.55109 46,139.8125 C 46.078417,140.07392 46.14032,140.3403 46.21875,140.5625 L 47.125,143.0625 C 47.190343,143.27163 47.311895,143.47837 47.46875,143.6875 C 47.625589,143.88355 47.83233,143.96875 48.09375,143.96875 L 48.78125,143.96875 C 48.925018,143.96875 49.038605,143.94035 49.15625,143.875 C 49.273874,143.79657 49.390316,143.71649 49.46875,143.625 C 49.547163,143.52044 49.603957,143.39889 49.65625,143.28125 C 49.70852,143.16361 49.755098,143.06024 49.78125,142.96875 L 51.78125,135.65625 C 51.794309,135.63012 51.812487,135.57843 51.8125,135.5 C 51.812487,135.35623 51.778981,135.22446 51.6875,135.09375 C 51.595994,134.94999 51.451155,134.85172 51.28125,134.8125 L 50.75,134.65625 C 50.567,134.60398 50.388656,134.63237 50.21875,134.75 C 50.048821,134.85457 49.927271,135.00452 49.875,135.1875 L 48.875,139.0625 C 48.822709,139.2847 48.752843,139.5846 48.6875,139.9375 C 48.635209,140.27733 48.583523,140.62892 48.53125,140.96875 C 48.478957,141.29552 48.432382,141.56416 48.40625,141.8125 C 48.380101,142.04777 48.369882,142.1875 48.34375,142.1875 C 48.265318,141.86074 48.172164,141.57902 48.09375,141.34375 C 48.028386,141.10848 47.953415,140.85516 47.875,140.59375 C 47.796569,140.31927 47.734665,140.08413 47.65625,139.875 L 46.9375,137.9375 C 46.872139,137.78066 46.755698,137.66707 46.625,137.5625 C 46.494286,137.45795 46.35741,137.40626 46.1875,137.40625 L 45.25,137.40625 C 45.080075,137.40626 44.9432,137.45794 44.8125,137.5625 C 44.681788,137.66707 44.596597,137.78066 44.53125,137.9375 L 43.78125,139.875 C 43.702821,140.08414 43.640919,140.31927 43.5625,140.59375 C 43.484072,140.85517 43.390919,141.10848 43.3125,141.34375 C 43.247144,141.57902 43.195458,141.76758 43.15625,141.9375 C 43.117034,142.09436 43.088637,142.1875 43.0625,142.1875 C 43.010214,141.70389 42.958528,141.29552 42.90625,140.96875 C 42.853963,140.62892 42.802279,140.27734 42.75,139.9375 C 42.697715,139.5846 42.627849,139.2847 42.5625,139.0625 L 41.5625,135.1875 C 41.510216,135.00451 41.388665,134.85457 41.21875,134.75 C 41.048829,134.63237 40.870486,134.60398 40.6875,134.65625 z M 32.25,134.6875 C 31.91016,134.68752 31.61312,134.7443 31.3125,134.875 C 31.024946,135.00572 30.753448,135.18406 30.53125,135.40625 C 30.309048,135.62846 30.130704,135.88688 30,136.1875 C 29.869293,136.47506 29.812499,136.78517 29.8125,137.125 L 29.8125,141.53125 C 29.812498,141.87108 29.869293,142.19938 30,142.5 C 30.130704,142.78756 30.309049,143.0278 30.53125,143.25 C 30.753447,143.4722 31.024945,143.65054 31.3125,143.78125 C 31.613121,143.91196 31.910162,143.96875 32.25,143.96875 L 35.46875,143.96875 C 35.808576,143.96875 36.11869,143.91196 36.40625,143.78125 C 36.706866,143.65055 36.965292,143.4722 37.1875,143.25 C 37.409689,143.0278 37.588035,142.78755 37.71875,142.5 C 37.849445,142.19938 37.906241,141.87109 37.90625,141.53125 L 37.90625,137.125 C 37.906242,136.78517 37.849447,136.47506 37.71875,136.1875 C 37.588034,135.88688 37.409691,135.62846 37.1875,135.40625 C 36.96529,135.18406 36.706865,135.00571 36.40625,134.875 C 36.118691,134.74431 35.808578,134.68751 35.46875,134.6875 L 32.25,134.6875 z M 71.15625,134.6875 C 70.816412,134.68752 70.51937,134.7443 70.21875,134.875 C 69.931194,135.00572 69.659698,135.18406 69.4375,135.40625 C 69.215302,135.62846 69.036954,135.88688 68.90625,136.1875 C 68.775546,136.47506 68.718749,136.78517 68.71875,137.125 L 68.71875,141.53125 C 68.718746,141.87108 68.775543,142.19938 68.90625,142.5 C 69.036958,142.78756 69.215299,143.0278 69.4375,143.25 C 69.659701,143.4722 69.931195,143.65054 70.21875,143.78125 C 70.519369,143.91196 70.816412,143.96875 71.15625,143.96875 L 74.375,143.96875 C 74.714828,143.96875 75.02494,143.91196 75.3125,143.78125 C 75.613118,143.65055 75.871542,143.4722 76.09375,143.25 C 76.315938,143.0278 76.494285,142.78755 76.625,142.5 C 76.755693,142.19938 76.812491,141.87109 76.8125,141.53125 L 76.8125,137.125 C 76.812494,136.78517 76.755697,136.47506 76.625,136.1875 C 76.494282,135.88688 76.315941,135.62846 76.09375,135.40625 C 75.871539,135.18406 75.613115,135.00571 75.3125,134.875 C 75.024943,134.74431 74.714828,134.68751 74.375,134.6875 L 71.15625,134.6875 z M 80.59375,134.6875 C 80.38462,134.68752 80.188095,134.73919 80.03125,134.84375 C 79.887475,134.94833 79.812498,135.0852 79.8125,135.28125 L 79.8125,136.5 L 84.15625,136.5 C 84.378442,136.50001 84.574967,136.58009 84.71875,136.75 C 84.862516,136.90685 84.937493,137.06702 84.9375,137.25 L 84.9375,138.71875 C 84.937494,138.8756 84.867628,138.93751 84.75,138.9375 C 84.632359,138.93751 84.495482,138.904 84.3125,138.8125 C 84.129508,138.70794 83.904585,138.58639 83.65625,138.46875 C 83.420971,138.33805 83.162547,138.2165 82.875,138.125 C 82.587446,138.02044 82.277331,137.96876 81.9375,137.96875 L 81.625,137.96875 C 80.657777,137.96875 79.957468,138.22207 79.5,138.71875 C 79.055602,139.21543 78.843749,139.83566 78.84375,140.59375 L 78.84375,141.40625 C 78.843748,142.16435 79.055599,142.78457 79.5,143.28125 C 79.957471,143.77793 80.657775,144.03125 81.625,144.03125 L 81.9375,144.03125 C 82.277331,144.03124 82.587443,143.99774 82.875,143.90625 C 83.16255,143.80169 83.420974,143.69831 83.65625,143.59375 C 83.904581,143.47612 84.129506,143.37274 84.3125,143.28125 C 84.495483,143.17669 84.632358,143.125 84.75,143.125 C 84.815347,143.125 84.885211,143.13011 84.9375,143.15625 C 85.002847,143.16932 85.041461,143.20283 85.09375,143.28125 L 85.59375,143.96875 L 86.25,143.96875 C 86.511406,143.96875 86.676677,143.88867 86.78125,143.71875 C 86.885807,143.54884 86.937491,143.39378 86.9375,143.25 L 86.9375,136.96875 C 86.937494,136.66813 86.903985,136.36824 86.8125,136.09375 C 86.720997,135.81928 86.584121,135.58414 86.375,135.375 C 86.178934,135.16587 85.920506,134.99264 85.59375,134.875 C 85.280048,134.74431 84.881893,134.68751 84.4375,134.6875 L 80.59375,134.6875 z M 22.25,136.5 L 24.5625,136.5 C 24.810835,136.50001 25.017576,136.58009 25.1875,136.75 C 25.357411,136.91992 25.437493,137.12667 25.4375,137.375 L 25.4375,141.28125 C 25.437492,141.5296 25.35741,141.73633 25.1875,141.90625 C 25.017576,142.07616 24.810834,142.1875 24.5625,142.1875 L 22.25,142.1875 C 22.001655,142.1875 21.794914,142.07617 21.625,141.90625 C 21.455079,141.73633 21.374997,141.52959 21.375,141.28125 L 21.375,137.375 C 21.374996,137.12667 21.455079,136.91992 21.625,136.75 C 21.794914,136.58009 22.001655,136.50001 22.25,136.5 z M 32.71875,136.5 L 35,136.5 C 35.248333,136.50001 35.455076,136.58009 35.625,136.75 C 35.794908,136.91992 35.874993,137.12667 35.875,137.375 L 35.875,141.28125 C 35.874992,141.5296 35.79491,141.73633 35.625,141.90625 C 35.455074,142.07616 35.248334,142.1875 35,142.1875 L 32.71875,142.1875 C 32.470407,142.1875 32.263664,142.07617 32.09375,141.90625 C 31.923827,141.73633 31.843747,141.52959 31.84375,141.28125 L 31.84375,137.375 C 31.843746,137.12667 31.923829,136.91992 32.09375,136.75 C 32.263662,136.58009 32.470405,136.50001 32.71875,136.5 z M 71.625,136.5 L 73.90625,136.5 C 74.154585,136.50001 74.361326,136.58009 74.53125,136.75 C 74.70116,136.91992 74.781243,137.12667 74.78125,137.375 L 74.78125,141.28125 C 74.781244,141.5296 74.70116,141.73633 74.53125,141.90625 C 74.361326,142.07616 74.154584,142.1875 73.90625,142.1875 L 71.625,142.1875 C 71.376655,142.1875 71.169914,142.07617 71,141.90625 C 70.830079,141.73633 70.718747,141.52959 70.71875,141.28125 L 70.71875,137.375 C 70.718746,137.12667 70.830079,136.91992 71,136.75 C 71.169914,136.58009 71.376655,136.50001 71.625,136.5 z M 92.21875,136.5 L 94.53125,136.5 C 94.779587,136.50001 94.986326,136.58009 95.15625,136.75 C 95.326162,136.91992 95.406243,137.12667 95.40625,137.375 L 95.40625,141.28125 C 95.406246,141.5296 95.32616,141.73633 95.15625,141.90625 C 94.986328,142.07616 94.779584,142.1875 94.53125,142.1875 L 92.21875,142.1875 C 91.970409,142.1875 91.763664,142.07617 91.59375,141.90625 C 91.423826,141.73633 91.343747,141.52959 91.34375,141.28125 L 91.34375,137.375 C 91.34375,137.12667 91.423829,136.91992 91.59375,136.75 C 91.76366,136.58009 91.970405,136.50001 92.21875,136.5 z M 81.75,139.84375 L 84.0625,139.84375 C 84.310835,139.84376 84.517576,139.92384 84.6875,140.09375 C 84.857411,140.26367 84.937493,140.47041 84.9375,140.71875 L 84.9375,141.28125 C 84.937494,141.5296 84.857411,141.73633 84.6875,141.90625 C 84.517576,142.07616 84.310835,142.1875 84.0625,142.1875 L 81.75,142.1875 C 81.501657,142.1875 81.263664,142.07617 81.09375,141.90625 C 80.923832,141.73633 80.843747,141.52959 80.84375,141.28125 L 80.84375,140.71875 C 80.843748,140.47042 80.92383,140.26367 81.09375,140.09375 C 81.263666,139.92383 81.501656,139.84375 81.75,139.84375 z M 41.4375,150.34375 C 41.2153,150.34377 41.031845,150.40567 40.875,150.5625 C 40.731223,150.70629 40.656249,150.90281 40.65625,151.125 L 40.65625,162.8125 C 40.656249,163.0347 40.731222,163.21815 40.875,163.375 C 41.031846,163.51877 41.215299,163.59375 41.4375,163.59375 L 41.875,163.59375 C 42.097198,163.59374 42.293721,163.51878 42.4375,163.375 C 42.594343,163.21815 42.656247,163.0347 42.65625,162.8125 L 42.65625,156.96875 C 42.656245,156.72041 42.736329,156.51367 42.90625,156.34375 C 43.076163,156.17384 43.314155,156.09376 43.5625,156.09375 L 45.875,156.09375 C 46.123336,156.09375 46.330076,156.17384 46.5,156.34375 C 46.669912,156.51368 46.749993,156.72042 46.75,156.96875 L 46.75,162.8125 C 46.749991,163.0347 46.824966,163.21815 46.96875,163.375 C 47.125588,163.51877 47.309042,163.59375 47.53125,163.59375 L 47.96875,163.59375 C 48.19094,163.59374 48.387465,163.51878 48.53125,163.375 C 48.688089,163.21815 48.749991,163.0347 48.75,162.8125 L 48.75,156.875 C 48.749991,156.11692 48.519961,155.46544 48.0625,154.96875 C 47.618091,154.47208 46.935965,154.21876 45.96875,154.21875 L 45.65625,154.21875 C 45.32948,154.21876 45.019368,154.27044 44.71875,154.375 C 44.431193,154.46651 44.154586,154.58805 43.90625,154.71875 C 43.670976,154.8364 43.464234,154.95794 43.28125,155.0625 C 43.09826,155.154 42.961382,155.18751 42.84375,155.1875 C 42.72611,155.18751 42.656247,155.12561 42.65625,154.96875 L 42.65625,150.34375 L 41.4375,150.34375 z M 53.5625,154.28125 C 53.222663,154.28126 52.89437,154.3693 52.59375,154.5 C 52.306195,154.61764 52.034698,154.77781 51.8125,155 C 51.590299,155.22221 51.411954,155.48063 51.28125,155.78125 C 51.150544,156.08189 51.093749,156.41017 51.09375,156.75 L 51.09375,161.125 C 51.093747,161.46484 51.150543,161.79313 51.28125,162.09375 C 51.411955,162.39437 51.590299,162.6528 51.8125,162.875 C 52.034698,163.09721 52.306195,163.27554 52.59375,163.40625 C 52.89437,163.52389 53.222662,163.59375 53.5625,163.59375 L 57.09375,163.59375 C 57.315941,163.59374 57.481216,163.52389 57.625,163.40625 C 57.78184,163.27555 57.874992,163.0972 57.875,162.875 L 57.875,161.78125 L 53.9375,161.78125 C 53.715296,161.78125 53.500593,161.70628 53.34375,161.5625 C 53.186899,161.41872 53.124997,161.21709 53.125,160.96875 L 53.125,159.71875 L 58,159.71875 C 58.339826,159.71876 58.639721,159.57902 58.875,159.34375 C 59.110259,159.10849 59.218741,158.83984 59.21875,158.5 L 59.21875,156.75 C 59.218739,156.41017 59.161946,156.10006 59.03125,155.8125 C 58.900535,155.51189 58.722191,155.25346 58.5,155.03125 C 58.277792,154.80906 58.019365,154.63071 57.71875,154.5 C 57.431188,154.3693 57.089828,154.28126 56.75,154.28125 L 53.5625,154.28125 z M 61.84375,154.28125 C 61.582338,154.28126 61.385813,154.39259 61.28125,154.5625 C 61.176682,154.73243 61.124999,154.88748 61.125,155.03125 L 61.125,162.8125 C 61.124999,163.0347 61.199972,163.21815 61.34375,163.375 C 61.500596,163.51877 61.684049,163.59375 61.90625,163.59375 L 62.375,163.59375 C 62.597198,163.59374 62.762471,163.51878 62.90625,163.375 C 63.063093,163.21815 63.156247,163.0347 63.15625,162.8125 L 63.15625,156.9375 C 63.156245,156.68917 63.236329,156.5006 63.40625,156.34375 C 63.576163,156.18692 63.754508,156.09376 63.9375,156.09375 L 67.625,156.09375 L 67.625,155 C 67.624991,154.77781 67.550019,154.61764 67.40625,154.5 C 67.262469,154.3693 67.065943,154.28126 66.84375,154.28125 L 65.15625,154.28125 C 64.86869,154.28126 64.633554,154.34602 64.4375,154.4375 C 64.254507,154.529 64.099452,154.63237 63.96875,154.75 C 63.838042,154.86765 63.698311,154.97101 63.59375,155.0625 C 63.502254,155.154 63.417061,155.18751 63.3125,155.1875 C 63.194862,155.18751 63.091491,155.13071 63,155 L 62.5,154.28125 L 61.84375,154.28125 z M 70.90625,154.28125 C 70.566415,154.28126 70.23812,154.3693 69.9375,154.5 C 69.649947,154.61764 69.378448,154.77781 69.15625,155 C 68.934047,155.22221 68.786954,155.48063 68.65625,155.78125 C 68.525542,156.08189 68.437499,156.41017 68.4375,156.75 L 68.4375,161.125 C 68.437499,161.46484 68.525543,161.79313 68.65625,162.09375 C 68.786953,162.39437 68.934049,162.6528 69.15625,162.875 C 69.378446,163.09721 69.649945,163.27554 69.9375,163.40625 C 70.238122,163.52389 70.566412,163.59375 70.90625,163.59375 L 74.4375,163.59375 C 74.65969,163.59374 74.824966,163.52389 74.96875,163.40625 C 75.125592,163.27555 75.218742,163.0972 75.21875,162.875 L 75.21875,161.78125 L 71.28125,161.78125 C 71.059048,161.78125 70.844343,161.70628 70.6875,161.5625 C 70.530647,161.41872 70.468747,161.21709 70.46875,160.96875 L 70.46875,159.71875 L 75.34375,159.71875 C 75.683578,159.71876 75.983471,159.57902 76.21875,159.34375 C 76.454007,159.10849 76.562491,158.83984 76.5625,158.5 L 76.5625,156.75 C 76.562487,156.41017 76.505696,156.10006 76.375,155.8125 C 76.244283,155.51189 76.065941,155.25346 75.84375,155.03125 C 75.62154,154.80906 75.363115,154.63071 75.0625,154.5 C 74.774937,154.3693 74.464828,154.28126 74.125,154.28125 L 70.90625,154.28125 z M 53.90625,156.09375 L 56.40625,156.09375 C 56.628442,156.09375 56.824967,156.18691 56.96875,156.34375 C 57.125591,156.48754 57.187493,156.65281 57.1875,156.875 L 57.1875,158.0625 L 53.125,158.0625 L 53.125,156.875 C 53.124997,156.65281 53.19997,156.48753 53.34375,156.34375 C 53.500594,156.18692 53.684047,156.09376 53.90625,156.09375 z M 71.25,156.09375 L 73.75,156.09375 C 73.972194,156.09375 74.168717,156.18691 74.3125,156.34375 C 74.469339,156.48754 74.531243,156.65281 74.53125,156.875 L 74.53125,158.0625 L 70.46875,158.0625 L 70.46875,156.875 C 70.468749,156.65281 70.54372,156.48753 70.6875,156.34375 C 70.844342,156.18692 71.027797,156.09376 71.25,156.09375 z"
       transform="translate(0,1)" />
    <text
       xml:space="preserve"
       style="font-size:20.61028671px;font-style:normal;font-variant:normal;font-weight:bold;font-stretch:normal;text-indent:0;text-align:center;text-decoration:none;line-height:100%;letter-spacing:normal;word-spacing:normal;text-transform:none;direction:ltr;block-progression:tb;writing-mode:lr-tb;text-anchor:middle;opacity:1;fill:#ffffff;fill-opacity:1;fill-rule:nonzero;stroke:none;stroke-width:1px;stroke-linecap:butt;stroke-linejoin:miter;marker:none;marker-start:none;marker-mid:none;marker-end:none;stroke-miterlimit:4;stroke-dasharray:none;stroke-dashoffset:0;stroke-opacity:1;visibility:visible;display:inline;overflow:visible;enable-background:accumulate;font-family:ChollaWideBoldOS;-inkscape-font-specification:ChollaWideBoldOS Bold"
       x="59.991791"
       y="143.81683"
       id="text6775"
       sodipodi:linespacing="100%"><tspan
         sodipodi:role="line"
         id="tspan6777"
         x="59.991791"
         y="143.81683">download</tspan><tspan
         sodipodi:role="line"
         x="59.991791"
         y="164.42712"
         id="tspan5245">here</tspan></text>
  </g>
</svg>
