<?xml version="1.0" encoding="UTF-8" standalone="no"?>
<!-- Created with Inkscape (http://www.inkscape.org/) -->
<svg
   xmlns:dc="http://purl.org/dc/elements/1.1/"
   xmlns:cc="http://creativecommons.org/ns#"
   xmlns:rdf="http://www.w3.org/1999/02/22-rdf-syntax-ns#"
   xmlns:svg="http://www.w3.org/2000/svg"
   xmlns="http://www.w3.org/2000/svg"
   xmlns:xlink="http://www.w3.org/1999/xlink"
   xmlns:sodipodi="http://sodipodi.sourceforge.net/DTD/sodipodi-0.dtd"
   xmlns:inkscape="http://www.inkscape.org/namespaces/inkscape"
   width="300"
   height="150"
   id="svg2"
   sodipodi:version="0.32"
   inkscape:version="0.46"
   version="1.0"
   sodipodi:docname="getit-300x150.svg"
   inkscape:output_extension="org.inkscape.output.svg.inkscape">
  <defs
     id="defs4">
    <inkscape:perspective
       sodipodi:type="inkscape:persp3d"
       inkscape:vp_x="-50 : 600 : 1"
       inkscape:vp_y="0 : 1000 : 0"
       inkscape:vp_z="700 : 600 : 1"
       inkscape:persp3d-origin="300 : 400 : 1"
       id="perspective94" />
    <inkscape:perspective
       sodipodi:type="inkscape:persp3d"
       inkscape:vp_x="-50 : 600 : 1"
       inkscape:vp_y="0 : 1000 : 0"
       inkscape:vp_z="700 : 600 : 1"
       inkscape:persp3d-origin="300 : 400 : 1"
       id="perspective93" />
    <inkscape:perspective
       sodipodi:type="inkscape:persp3d"
       inkscape:vp_x="-50 : 600 : 1"
       inkscape:vp_y="0 : 1000 : 0"
       inkscape:vp_z="700 : 600 : 1"
       inkscape:persp3d-origin="300 : 400 : 1"
       id="perspective92" />
    <linearGradient
       inkscape:collect="always"
       id="linearGradient7158">
      <stop
         style="stop-color:#27b800;stop-opacity:1"
         offset="0"
         id="stop7160" />
      <stop
         style="stop-color:#1b6306;stop-opacity:1"
         offset="1"
         id="stop7162" />
    </linearGradient>
    <radialGradient
       inkscape:collect="always"
       xlink:href="#linearGradient7158"
       id="radialGradient7164"
       cx="458.75778"
       cy="-604.58423"
       fx="780.00769"
       fy="-603.4187"
       r="400"
       gradientTransform="matrix(2.8062146e-3,-0.151895,0.2580203,1.7926652e-3,302.52056,146.54894)"
       gradientUnits="userSpaceOnUse" />
    <linearGradient
       inkscape:collect="always"
       id="linearGradient9016">
      <stop
         style="stop-color:#24a701;stop-opacity:1;"
         offset="0"
         id="stop9018" />
      <stop
         style="stop-color:#24a701;stop-opacity:0;"
         offset="1"
         id="stop9020" />
    </linearGradient>
    <radialGradient
       inkscape:collect="always"
       xlink:href="#linearGradient9016"
       id="radialGradient9024"
       gradientUnits="userSpaceOnUse"
       gradientTransform="matrix(1.8476051,0,0,1.8476051,-85.384376,-81.638125)"
       cx="79.423729"
       cy="72.409096"
       fx="79.423729"
       fy="72.409096"
       r="69.84375" />
    <linearGradient
       inkscape:collect="always"
       id="linearGradient9026">
      <stop
         id="stop9030"
         offset="0"
         style="stop-color:#ffffff;stop-opacity:0;" />
      <stop
         id="stop9028"
         offset="1"
         style="stop-color:#ffffff;stop-opacity:1;" />
    </linearGradient>
    <radialGradient
       inkscape:collect="always"
       xlink:href="#linearGradient9026"
       id="radialGradient9032"
       cx="154.76555"
       cy="79.415726"
       fx="154.76555"
       fy="79.415726"
       r="69.938171"
       gradientUnits="userSpaceOnUse"
       gradientTransform="matrix(0.5575867,0,0,0.5575867,68.470323,35.134566)" />
    <linearGradient
       id="linearGradient9038"
       inkscape:collect="always">
      <stop
         style="stop-color:#24a701;stop-opacity:0;"
         offset="0"
         id="stop9042" />
      <stop
         style="stop-color:#24a701;stop-opacity:1;"
         offset="1"
         id="stop9040" />
    </linearGradient>
    <radialGradient
       inkscape:collect="always"
       xlink:href="#linearGradient9038"
       id="radialGradient9022"
       cx="79.423729"
       cy="72.409096"
       fx="79.423729"
       fy="72.409096"
       r="69.84375"
       gradientUnits="userSpaceOnUse"
       gradientTransform="matrix(1.8476051,0,0,1.8476051,-84.760505,-84.760505)" />
    <radialGradient
       inkscape:collect="always"
       xlink:href="#linearGradient7150"
       id="radialGradient8683"
       gradientUnits="userSpaceOnUse"
       gradientTransform="matrix(0.7435303,0,0,0.1539332,157.35885,387.14301)"
       cx="625.98718"
       cy="169.35002"
       fx="625.98718"
       fy="169.35002"
       r="408.5" />
    <linearGradient
       inkscape:collect="always"
       id="linearGradient7150">
      <stop
         style="stop-color:#ffffff;stop-opacity:1;"
         offset="0"
         id="stop7152" />
      <stop
         style="stop-color:#ffffff;stop-opacity:0;"
         offset="1"
         id="stop7154" />
    </linearGradient>
    <radialGradient
       inkscape:collect="always"
       xlink:href="#linearGradient7150"
       id="radialGradient7156"
       cx="364.41531"
       cy="208.24603"
       fx="364.41531"
       fy="208.24603"
       r="408.5"
       gradientTransform="matrix(1.6046904,0,0,0.2828371,-393.04882,474.60029)"
       gradientUnits="userSpaceOnUse" />
    <linearGradient
       inkscape:collect="always"
       id="linearGradient8721">
      <stop
         style="stop-color:#d7dcdd;stop-opacity:1;"
         offset="0"
         id="stop8723" />
      <stop
         style="stop-color:#ffffff;stop-opacity:1"
         offset="1"
         id="stop8725" />
    </linearGradient>
    <linearGradient
       id="linearGradient8783"
       inkscape:collect="always">
      <stop
         id="stop8785"
         offset="0"
         style="stop-color:#9eaaac;stop-opacity:1" />
      <stop
         id="stop8787"
         offset="1"
         style="stop-color:#ffffff;stop-opacity:1" />
    </linearGradient>
    <linearGradient
       inkscape:collect="always"
       xlink:href="#linearGradient8783"
       id="linearGradient8727"
       x1="401.30548"
       y1="500.9314"
       x2="401.30548"
       y2="463.56079"
       gradientUnits="userSpaceOnUse" />
    <filter
       inkscape:collect="always"
       id="filter8779"
       x="-0.021823626"
       width="1.0436473"
       y="-0.11597504"
       height="1.23195">
      <feGaussianBlur
         inkscape:collect="always"
         stdDeviation="2.2672686"
         id="feGaussianBlur8781" />
    </filter>
    <linearGradient
       inkscape:collect="always"
       id="linearGradient7132">
      <stop
         style="stop-color:#444d50;stop-opacity:1"
         offset="0"
         id="stop7134" />
      <stop
         id="stop7140"
         offset="0.87155616"
         style="stop-color:#262c2d;stop-opacity:1" />
      <stop
         style="stop-color:#3c4447;stop-opacity:1"
         offset="1"
         id="stop7136" />
    </linearGradient>
    <linearGradient
       inkscape:collect="always"
       xlink:href="#linearGradient7132"
       id="linearGradient7138"
       x1="472"
       y1="-47.512444"
       x2="472"
       y2="113.2215"
       gradientUnits="userSpaceOnUse"
       gradientTransform="translate(0,421)" />
    <filter
       inkscape:collect="always"
       id="filter7144">
      <feGaussianBlur
         inkscape:collect="always"
         stdDeviation="2.4"
         id="feGaussianBlur7146" />
    </filter>
    <inkscape:perspective
       sodipodi:type="inkscape:persp3d"
       inkscape:vp_x="-50 : 600 : 1"
       inkscape:vp_y="0 : 1000 : 0"
       inkscape:vp_z="700 : 600 : 1"
       inkscape:persp3d-origin="300 : 400 : 1"
       id="perspective10" />
    <radialGradient
       inkscape:collect="always"
       xlink:href="#linearGradient9026"
       id="radialGradient5852"
       gradientUnits="userSpaceOnUse"
       gradientTransform="matrix(0.5575867,0,0,0.5575867,67.846452,38.256946)"
       cx="154.76555"
       cy="79.415726"
       fx="154.76555"
       fy="79.415726"
       r="69.938171" />
    <linearGradient
       inkscape:collect="always"
       xlink:href="#linearGradient8721"
       id="linearGradient5876"
       gradientUnits="userSpaceOnUse"
       x1="276.63681"
       y1="487.02036"
       x2="525.97412"
       y2="487.02036" />
    <linearGradient
       inkscape:collect="always"
       xlink:href="#linearGradient8721"
       id="linearGradient5878"
       gradientUnits="userSpaceOnUse"
       x1="276.63681"
       y1="487.02036"
       x2="525.97412"
       y2="487.02036" />
    <linearGradient
       inkscape:collect="always"
       xlink:href="#linearGradient8721"
       id="linearGradient5880"
       gradientUnits="userSpaceOnUse"
       x1="276.63681"
       y1="487.02036"
       x2="525.97412"
       y2="487.02036" />
    <linearGradient
       inkscape:collect="always"
       xlink:href="#linearGradient8721"
       id="linearGradient5882"
       gradientUnits="userSpaceOnUse"
       x1="276.63681"
       y1="487.02036"
       x2="525.97412"
       y2="487.02036" />
    <linearGradient
       inkscape:collect="always"
       xlink:href="#linearGradient8721"
       id="linearGradient5884"
       gradientUnits="userSpaceOnUse"
       x1="276.63681"
       y1="487.02036"
       x2="525.97412"
       y2="487.02036" />
    <linearGradient
       inkscape:collect="always"
       xlink:href="#linearGradient8721"
       id="linearGradient5886"
       gradientUnits="userSpaceOnUse"
       x1="276.63681"
       y1="487.02036"
       x2="525.97412"
       y2="487.02036" />
    <linearGradient
       inkscape:collect="always"
       xlink:href="#linearGradient8721"
       id="linearGradient5888"
       gradientUnits="userSpaceOnUse"
       x1="276.63681"
       y1="487.02036"
       x2="525.97412"
       y2="487.02036" />
    <linearGradient
       inkscape:collect="always"
       xlink:href="#linearGradient8721"
       id="linearGradient5890"
       gradientUnits="userSpaceOnUse"
       x1="276.63681"
       y1="487.02036"
       x2="525.97412"
       y2="487.02036" />
    <linearGradient
       inkscape:collect="always"
       xlink:href="#linearGradient8721"
       id="linearGradient5892"
       gradientUnits="userSpaceOnUse"
       x1="276.63681"
       y1="487.02036"
       x2="525.97412"
       y2="487.02036" />
    <linearGradient
       inkscape:collect="always"
       xlink:href="#linearGradient8783"
       id="linearGradient5894"
       gradientUnits="userSpaceOnUse"
       x1="401.30548"
       y1="500.9314"
       x2="401.30548"
       y2="463.56079" />
    <filter
       inkscape:collect="always"
       id="filter6764"
       x="-0.1087833"
       width="1.2175666"
       y="-0.37785858"
       height="1.7557172">
      <feGaussianBlur
         inkscape:collect="always"
         stdDeviation="1.3923695"
         id="feGaussianBlur6766" />
    </filter>
    <filter
       inkscape:collect="always"
       id="filter6049">
      <feGaussianBlur
         inkscape:collect="always"
         stdDeviation="0.92566748"
         id="feGaussianBlur6051" />
    </filter>
  </defs>
  <sodipodi:namedview
     id="base"
     pagecolor="#ffffff"
     bordercolor="#e5e5e5"
     borderopacity="1"
     gridtolerance="10000"
     guidetolerance="10"
     objecttolerance="10"
     inkscape:pageopacity="0.0"
     inkscape:pageshadow="2"
     inkscape:zoom="1"
     inkscape:cx="55.15252"
     inkscape:cy="92.272697"
     inkscape:document-units="px"
     inkscape:current-layer="layer1"
     showgrid="false"
     borderlayer="true"
     inkscape:showpageshadow="false"
     inkscape:window-width="973"
     inkscape:window-height="842"
     inkscape:window-x="362"
     inkscape:window-y="248">
    <inkscape:grid
       type="xygrid"
       id="grid6773"
       enabled="true"
       visible="true" />
  </sodipodi:namedview>
  <metadata
     id="metadata7">
    <rdf:RDF>
      <cc:Work
         rdf:about="">
        <dc:format>image/svg+xml</dc:format>
        <dc:type
           rdf:resource="http://purl.org/dc/dcmitype/StillImage" />
        <dc:title />
        <dc:date />
        <dc:creator>
          <cc:Agent>
            <dc:title />
          </cc:Agent>
        </dc:creator>
        <dc:rights>
          <cc:Agent>
            <dc:title />
          </cc:Agent>
        </dc:rights>
        <dc:publisher>
          <cc:Agent>
            <dc:title />
          </cc:Agent>
        </dc:publisher>
        <dc:identifier />
        <dc:source />
        <dc:relation />
        <dc:language />
        <dc:subject>
          <rdf:Bag />
        </dc:subject>
        <dc:coverage />
        <dc:description />
        <dc:contributor>
          <cc:Agent>
            <dc:title />
          </cc:Agent>
        </dc:contributor>
        <cc:license
           rdf:resource="" />
      </cc:Work>
    </rdf:RDF>
  </metadata>
  <g
     inkscape:label="Layer 1"
     inkscape:groupmode="layer"
     id="layer1">
    <rect
       style="opacity:1;fill:url(#radialGradient7164);fill-opacity:1;fill-rule:evenodd;stroke:none;stroke-width:1;stroke-linecap:butt;stroke-linejoin:miter;marker:none;marker-start:none;marker-mid:none;marker-end:none;stroke-miterlimit:4;stroke-dasharray:none;stroke-dashoffset:0;stroke-opacity:1;visibility:visible;display:inline;overflow:visible;filter:url(#filter9012);enable-background:accumulate"
       id="rect5337"
       width="348.25632"
       height="194.19492"
       x="-40.189178"
       y="-37.203472" />
    <g
       id="g9001"
       inkscape:label="Layer 1"
       transform="matrix(1.6028961,0,0,1.6013422,-107.87506,-82.634224)"
       style="opacity:0.10416667;fill:url(#radialGradient9022);fill-opacity:1;stroke:url(#radialGradient9032);stroke-width:0.62417334;stroke-miterlimit:4;stroke-dasharray:none;stroke-opacity:1;filter:url(#filter9012)">
      <path
         id="path2445"
         d="M 99.376129,33.27863 C 60.805449,33.27863 29.532379,64.548138 29.532379,103.1224 C 29.532379,141.69664 60.805451,172.96615 99.376129,172.96615 C 137.94681,172.96615 169.21987,141.69664 169.21988,103.1224 C 169.21988,64.54814 137.94681,33.27863 99.376129,33.27863 z M 99.710559,42.951282 C 132.94408,42.951282 159.90738,69.892425 159.90738,103.1224 C 159.90738,136.35593 132.94052,163.2935 99.710559,163.2935 C 81.765738,163.2935 65.663356,155.42877 54.640114,142.97064 C 59.172605,139.45289 66.755743,140.3111 76.094879,141.37568 C 80.570404,141.88483 85.672332,142.46727 90.938284,142.58476 C 105.65018,142.67021 121.47962,139.98516 131.24958,135.71615 C 137.56587,132.94609 141.60993,131.12188 144.13787,128.82181 C 145.04936,128.07411 145.52802,126.82502 146.01581,125.529 L 146.35023,124.65434 C 146.75969,123.60756 147.34729,121.35508 147.61076,120.12672 C 147.72826,119.58908 147.78593,119.01092 147.40496,118.71183 L 146.04153,118.96909 C 141.75471,121.53975 131.0444,126.43579 121.01097,126.63518 C 108.57778,126.89509 83.518876,114.11875 80.90548,112.76933 L 80.648228,112.46063 C 80.021584,110.96522 76.27146,102.06254 75.477476,100.18971 C 93.514865,112.0675 108.46934,118.64181 119.93052,119.66366 C 132.67348,120.7959 142.61352,113.83867 146.86473,110.86567 C 147.69433,110.29955 148.3284,109.85562 148.58832,109.75949 L 148.8713,109.29643 C 148.16632,104.81734 141.48057,83.142893 136.44605,77.93747 C 135.05034,76.509718 133.94069,75.12022 131.6869,73.795723 C 113.46437,63.174809 70.197447,56.778223 68.171536,56.482705 L 67.83711,56.585605 L 67.708484,56.868582 C 67.708484,56.868582 67.54621,65.853003 67.528408,66.849935 C 66.043686,66.358591 61.439923,64.851338 54.845915,63.042615 C 63.449648,52.396771 76.634948,42.951283 99.710559,42.951282 z M 115.60869,74.799003 C 115.91574,74.794395 116.2257,74.788766 116.5348,74.799003 C 126.74269,75.165732 134.76268,83.76346 134.41377,93.964231 C 134.23218,98.899056 132.15165,103.4586 128.54844,106.82682 C 124.93454,110.21284 120.23757,111.97772 115.27427,111.8175 C 105.08417,111.43653 97.064169,102.8388 97.395293,92.652249 C 97.569757,87.710301 99.661779,83.121485 103.28635,79.763955 C 106.67103,76.589564 111.00299,74.868122 115.60869,74.799003 z M 115.11991,80.252732 C 112.14698,80.433475 109.34149,81.640604 107.14512,83.699901 C 104.64211,86.049816 103.16519,89.231433 103.05482,92.677974 C 102.81983,99.798933 108.39195,105.79159 115.50579,106.05507 C 118.96301,106.16188 122.24246,104.95069 124.76684,102.60789 C 127.2841,100.24728 128.75033,97.036381 128.85714,93.604079 C 129.09569,86.472436 123.49785,80.501966 116.38045,80.252732 C 115.94963,80.23671 115.54462,80.226912 115.11991,80.252732 z M 118.51563,86.709742 C 121.67734,86.709742 124.22662,88.427863 124.22661,90.542787 C 124.22661,92.647035 121.67734,94.375831 118.51563,94.375833 C 115.34324,94.375833 112.77893,92.643468 112.77893,90.542787 C 112.77893,88.427865 115.34324,86.709744 118.51563,86.709742 z"
         style="font-size:20.48839951px;fill:url(#radialGradient9024);fill-opacity:1;fill-rule:evenodd;stroke:url(#radialGradient5852);stroke-width:0.93626004;stroke-miterlimit:4;stroke-dasharray:none;stroke-opacity:1;font-family:TrebuchetMS-Bold" />
    </g>
    <g
       style="opacity:1"
       id="g8789"
       transform="matrix(0.6190553,0,0,0.6184552,-187.73277,-286.77008)">
      <rect
         style="opacity:0.5625;fill:#000000;fill-opacity:1;fill-rule:evenodd;stroke:none;stroke-width:1;stroke-linecap:butt;stroke-linejoin:miter;marker:none;marker-start:none;marker-mid:none;marker-end:none;stroke-miterlimit:4;stroke-dasharray:none;stroke-dashoffset:0;stroke-opacity:1;visibility:visible;display:inline;overflow:visible;filter:url(#filter7144);enable-background:accumulate"
         id="rect7142"
         width="843"
         height="117"
         x="-16"
         y="413" />
      <rect
         y="410"
         x="-16"
         height="117"
         width="843"
         id="rect7130"
         style="opacity:1;fill:url(#linearGradient7138);fill-opacity:1;fill-rule:evenodd;stroke:none;stroke-width:1;stroke-linecap:butt;stroke-linejoin:miter;marker:none;marker-start:none;marker-mid:none;marker-end:none;stroke-miterlimit:4;stroke-dasharray:none;stroke-dashoffset:0;stroke-opacity:1;visibility:visible;display:inline;overflow:visible;enable-background:accumulate" />
      <g
         id="g5854"
         transform="matrix(1.2316266,0,0,1.2316266,-234.41331,-97.667266)">
        <g
           transform="matrix(0.3796416,0,0,0.3796416,568.43703,307.17325)"
           id="g8747"
           style="fill:#000000;fill-opacity:1;display:inline;filter:url(#filter8779)">
          <path
             d="M 525.54912,468.81976 L 525.38699,468.81976 C 525.19961,468.81976 525.03715,468.6573 525.03715,468.46991 L 525.03715,465.95923 L 524.48744,466.79612 C 524.42506,466.88343 524.31251,466.92083 524.21273,466.92083 L 524.15005,466.92083 C 524.05027,466.92083 523.93771,466.88343 523.87536,466.79612 L 523.31315,465.95923 L 523.31315,468.46991 C 523.31315,468.6573 523.15069,468.81976 522.95083,468.81976 L 522.7887,468.81976 C 522.60132,468.81976 522.43886,468.6573 522.43886,468.46991 L 522.43886,465.47188 L 520.75226,465.47188 L 520.75226,468.46991 C 520.75226,468.6573 520.57732,468.81976 520.37779,468.81976 L 520.22781,468.81976 C 520.0404,468.81976 519.87797,468.6573 519.87797,468.46991 L 519.87797,465.47188 L 518.61637,465.47188 C 518.42899,465.47188 518.279,465.34681 518.279,465.14725 L 518.279,464.97235 C 518.279,464.77249 518.42899,464.64743 518.61637,464.64743 L 523.03843,464.64743 C 523.21337,464.64743 523.32563,464.70981 523.38831,464.80989 L 524.2252,466.07148 L 525.0621,464.80989 C 525.12445,464.72228 525.22453,464.64743 525.41194,464.64743 L 525.97415,464.64743 L 525.97415,468.49487 C 525.97415,468.68225 525.79921,468.84471 525.59935,468.84471"
             id="path8749"
             style="fill:#000000;fill-opacity:1;stroke:none" />
          <path
             d="M 380.95621,463.5608 C 374.91023,463.5608 371.56235,468.68225 371.56235,472.22999 L 371.56235,476.77712 C 371.56235,481.9862 375.82195,485.22153 379.78195,485.22153 L 393.64778,485.22153 C 395.38422,485.22153 395.74654,486.35806 395.74654,487.31999 L 395.74654,490.25568 C 395.74654,490.56779 395.69667,493.39122 393.64778,493.39122 L 374.72285,493.39122 C 372.84887,493.39122 371.48752,494.69022 371.48752,496.47656 L 371.48752,497.28854 C 371.48752,499.06241 372.83639,500.37421 374.72285,500.37421 L 394.68483,500.37421 C 399.89392,500.37421 403.26675,496.75128 403.26675,491.13 L 403.26675,486.22085 C 403.26675,480.94912 399.46925,478.58842 395.70914,478.58842 L 382.06812,478.58842 C 380.00676,478.58842 379.08256,477.06428 379.08256,475.96517 L 379.08256,473.26677 C 379.08256,471.55558 380.2191,470.58118 382.21778,470.58118 L 397.33303,470.58118 C 399.18176,470.58118 400.56835,469.25693 400.56835,467.49551 L 400.56835,466.68357 C 400.56835,464.93462 399.1568,463.5982 397.27068,463.5982 L 380.98116,463.5982"
             id="path8751"
             style="fill:#000000;fill-opacity:1;stroke:none" />
          <path
             d="M 437.70666,463.5608 C 435.92031,463.5608 434.47133,465.00978 434.47133,466.79612 L 434.47133,490.03086 C 434.47133,491.87956 432.9597,493.37875 431.12345,493.37875 L 420.58025,493.37875 C 418.73155,493.37875 417.23233,491.87956 417.23233,490.03086 L 417.23233,466.79612 C 417.23233,465.00978 415.79586,463.5608 413.99704,463.5608 L 412.97273,463.5608 C 411.17391,463.5608 409.7374,464.98482 409.7374,466.79612 L 409.7374,490.91763 C 409.7374,496.52647 414.14702,500.59899 420.2304,500.59899 L 431.49824,500.59899 C 437.58162,500.59899 441.99121,496.52647 441.99121,490.91763 L 441.99121,466.79612 C 441.99121,464.98482 440.56722,463.5608 438.75592,463.5608 L 437.73161,463.5608"
             id="path8753"
             style="fill:#000000;fill-opacity:1;stroke:none" />
          <path
             d="M 457.90593,463.5608 C 451.85998,463.5608 448.5121,468.68225 448.5121,472.22999 L 448.5121,476.77712 C 448.5121,481.9862 452.78418,485.22153 456.73167,485.22153 L 470.5975,485.22153 C 472.33397,485.22153 472.70877,486.35806 472.70877,487.31999 L 472.70877,490.25568 C 472.70877,490.56779 472.64641,493.39122 470.5975,493.39122 L 451.6726,493.39122 C 449.79862,493.39122 448.43727,494.69022 448.43727,496.47656 L 448.43727,497.28854 C 448.43727,499.06241 449.79862,500.37421 451.6726,500.37421 L 471.62211,500.37421 C 476.84367,500.37421 480.2037,496.75128 480.2037,491.13 L 480.2037,486.22085 C 480.2037,480.94912 476.419,478.58842 472.64641,478.58842 L 459.00507,478.58842 C 456.94403,478.58842 456.01983,477.06428 456.01983,475.96517 L 456.01983,473.26677 C 456.01983,471.55558 457.15637,470.58118 459.14257,470.58118 L 474.25782,470.58118 C 476.09408,470.58118 477.49318,469.25693 477.49318,467.49551 L 477.49318,466.68357 C 477.49318,464.93462 476.0816,463.5982 474.1827,463.5982 L 457.90593,463.5982"
             id="path8755"
             style="fill:#000000;fill-opacity:1;stroke:none" />
          <path
             d="M 489.79745,463.5608 C 488.0114,463.5608 486.63725,464.88471 486.63725,466.64614 L 486.63725,497.28854 C 486.63725,499.03745 487.9612,500.37421 489.7351,500.37421 L 514.15658,500.37421 C 516.03056,500.37421 517.39223,499.07488 517.39223,497.28854 L 517.39223,496.47656 C 517.39223,494.70269 516.04303,493.39122 514.15658,493.39122 C 514.15658,493.39122 495.05674,493.39122 494.15716,493.39122 C 494.15716,492.59175 494.15716,486.38331 494.15716,485.58385 C 495.05674,485.58385 508.81031,485.58385 508.81031,485.58385 C 510.68396,485.58385 512.04564,484.28452 512.04564,482.4857 L 512.04564,481.68623 C 512.04564,479.89989 510.68396,478.58842 508.81031,478.58842 C 508.81031,478.58842 495.05674,478.58842 494.15716,478.58842 C 494.15716,477.78895 494.15716,471.36817 494.15716,470.56871 C 495.05674,470.56871 513.14474,470.56871 513.14474,470.56871 C 515.01875,470.56871 516.3804,469.26938 516.3804,467.48303 L 516.3804,466.67109 C 516.3804,464.88471 515.01875,463.58575 513.14474,463.58575 L 489.81025,463.58575"
             id="path8757"
             style="fill:#000000;fill-opacity:1;stroke:none" />
          <path
             d="M 282.17071,478.13846 C 279.1227,478.13846 276.63682,480.51197 276.63682,483.44763 L 276.63682,495.00266 C 276.63682,497.97575 279.03525,500.39913 281.98335,500.39913 L 289.45345,500.39913 C 292.40152,500.39913 294.81243,497.97575 294.81243,495.00266 L 294.81243,483.44763 C 294.81243,480.52445 292.32658,478.13846 289.27854,478.13846 L 282.17071,478.13846 z M 280.55927,494.55271 L 280.55927,484.00984 C 280.55927,482.77289 281.5711,481.76106 282.8078,481.76106 L 288.629,481.76106 C 289.84072,481.76106 290.87751,482.78567 290.87751,484.00984 L 290.87751,494.55271 C 290.87751,495.78968 289.86568,496.80148 288.629,496.80148 L 282.75781,496.80148 C 281.52113,496.80148 280.55927,495.8146 280.55927,494.55271"
             id="path8759"
             style="fill:#000000;fill-opacity:1;stroke:none" />
          <path
             d="M 311.75149,478.00128 C 309.59034,478.00128 307.97884,478.77583 306.66719,479.40036 C 305.88023,479.77485 305.19317,480.09975 304.65604,480.09975 C 304.43119,480.09975 304.2188,479.99997 304.10636,479.82506 L 303.61919,478.87558 C 303.50676,478.62584 303.00708,478.13846 302.38252,478.13846 L 301.658,478.13846 C 300.95843,478.13846 300.38381,478.76335 300.38381,479.55001 L 300.38381,508.84354 C 300.38381,509.75526 301.09585,510.4799 302.02026,510.4799 L 302.65732,510.4799 C 303.55675,510.4799 304.29378,509.74279 304.29378,508.84354 L 304.29378,499.12476 C 304.29378,498.83759 304.48113,498.53763 304.65604,498.53763 C 305.19317,498.53763 305.88023,498.83759 306.6797,499.21239 C 307.97884,499.79952 309.60282,500.54878 311.76396,500.54878 L 312.4384,500.54878 C 316.24841,500.54878 318.62189,498.3755 318.62189,494.87763 L 318.62189,483.69739 C 318.62189,480.24973 316.1985,478.01376 312.4384,478.01376 L 311.75149,478.01376 L 311.75149,478.01376 L 311.75149,478.00128 z M 304.28127,494.3279 L 304.28127,484.24712 C 304.28127,482.86053 305.36808,481.77354 306.75465,481.77354 L 312.20111,481.77354 C 313.58774,481.77354 314.67437,482.86053 314.67437,484.24712 L 314.67437,494.3279 C 314.67437,495.68957 313.57526,496.80148 312.20111,496.80148 L 306.75465,496.80148 C 305.39306,496.80148 304.28127,495.68957 304.28127,494.3279"
             id="path8761"
             style="fill:#000000;fill-opacity:1;stroke:none" />
          <path
             d="M 329.68954,478.13846 C 326.6416,478.13846 324.15586,480.51197 324.15586,483.44763 L 324.15586,494.91503 C 324.15586,497.88814 326.56677,500.41161 329.41482,500.41161 L 337.12245,500.41161 C 338.07157,500.41161 338.75881,499.76179 338.75881,498.86255 L 338.75881,498.36269 C 338.75881,497.46344 338.07157,496.81396 337.12245,496.81396 L 330.80145,496.81396 C 329.02758,496.81396 328.09058,495.95181 328.09058,494.29047 C 328.09058,494.29047 328.09058,491.40502 328.09058,490.94259 C 328.60288,490.94259 339.5084,490.94259 339.5084,490.94259 C 341.33218,490.94259 342.43128,489.81853 342.43128,487.9196 L 342.43128,483.47261 C 342.43128,480.54937 339.94555,478.16374 336.89764,478.16374 L 329.70231,478.16374 L 329.68954,478.13846 z M 328.0781,483.95963 C 328.0781,482.73546 329.04003,481.76106 330.27667,481.76106 L 336.28522,481.76106 C 337.52217,481.76106 338.48379,482.72299 338.48379,483.95963 C 338.48379,483.95963 338.48379,487.07023 338.48379,487.53235 C 337.99674,487.53235 328.56548,487.53235 328.0781,487.53235 C 328.0781,487.07023 328.0781,483.95963 328.0781,483.95963"
             id="path8763"
             style="fill:#000000;fill-opacity:1;stroke:none" />
          <path
             d="M 358.32108,478.00128 C 356.17241,478.00128 354.5485,478.76335 353.2492,479.38791 C 352.43723,479.76238 351.73784,480.09975 351.17566,480.09975 C 350.9259,480.09975 350.82582,480.07479 350.63841,479.73743 L 350.18878,478.91301 C 349.93902,478.40103 349.50187,478.13846 348.90226,478.13846 L 348.26493,478.13846 C 347.50319,478.13846 346.95346,478.72559 346.95346,479.55001 L 346.95346,498.76244 C 346.95346,499.67449 347.6778,500.41161 348.58982,500.41161 L 349.22685,500.41161 C 350.12643,500.41161 350.86322,499.67449 350.86322,498.76244 L 350.86322,484.22217 C 350.86322,482.86053 351.97513,481.74858 353.3368,481.74858 L 358.78318,481.74858 C 360.14485,481.74858 361.25644,482.86053 361.25644,484.22217 L 361.25644,498.76244 C 361.25644,499.67449 361.98107,500.41161 362.89313,500.41161 L 363.53016,500.41161 C 364.42941,500.41161 365.16653,499.67449 365.16653,498.76244 L 365.16653,483.68492 C 365.16653,480.23725 362.74314,478.00128 358.98304,478.00128 L 358.29613,478.00128"
             id="path8765"
             style="fill:#000000;fill-opacity:1;stroke:none" />
        </g>
        <g
           style="fill:url(#linearGradient5894);fill-opacity:1;display:inline"
           id="g5501"
           transform="matrix(0.3796416,0,0,0.3796416,568.43703,305.17325)">
          <path
             style="fill:url(#linearGradient5876);fill-opacity:1;stroke:none"
             id="path2095"
             d="M 525.54912,468.81976 L 525.38699,468.81976 C 525.19961,468.81976 525.03715,468.6573 525.03715,468.46991 L 525.03715,465.95923 L 524.48744,466.79612 C 524.42506,466.88343 524.31251,466.92083 524.21273,466.92083 L 524.15005,466.92083 C 524.05027,466.92083 523.93771,466.88343 523.87536,466.79612 L 523.31315,465.95923 L 523.31315,468.46991 C 523.31315,468.6573 523.15069,468.81976 522.95083,468.81976 L 522.7887,468.81976 C 522.60132,468.81976 522.43886,468.6573 522.43886,468.46991 L 522.43886,465.47188 L 520.75226,465.47188 L 520.75226,468.46991 C 520.75226,468.6573 520.57732,468.81976 520.37779,468.81976 L 520.22781,468.81976 C 520.0404,468.81976 519.87797,468.6573 519.87797,468.46991 L 519.87797,465.47188 L 518.61637,465.47188 C 518.42899,465.47188 518.279,465.34681 518.279,465.14725 L 518.279,464.97235 C 518.279,464.77249 518.42899,464.64743 518.61637,464.64743 L 523.03843,464.64743 C 523.21337,464.64743 523.32563,464.70981 523.38831,464.80989 L 524.2252,466.07148 L 525.0621,464.80989 C 525.12445,464.72228 525.22453,464.64743 525.41194,464.64743 L 525.97415,464.64743 L 525.97415,468.49487 C 525.97415,468.68225 525.79921,468.84471 525.59935,468.84471" />
          <path
             style="fill:url(#linearGradient5878);fill-opacity:1;stroke:none"
             id="path2097"
             d="M 380.95621,463.5608 C 374.91023,463.5608 371.56235,468.68225 371.56235,472.22999 L 371.56235,476.77712 C 371.56235,481.9862 375.82195,485.22153 379.78195,485.22153 L 393.64778,485.22153 C 395.38422,485.22153 395.74654,486.35806 395.74654,487.31999 L 395.74654,490.25568 C 395.74654,490.56779 395.69667,493.39122 393.64778,493.39122 L 374.72285,493.39122 C 372.84887,493.39122 371.48752,494.69022 371.48752,496.47656 L 371.48752,497.28854 C 371.48752,499.06241 372.83639,500.37421 374.72285,500.37421 L 394.68483,500.37421 C 399.89392,500.37421 403.26675,496.75128 403.26675,491.13 L 403.26675,486.22085 C 403.26675,480.94912 399.46925,478.58842 395.70914,478.58842 L 382.06812,478.58842 C 380.00676,478.58842 379.08256,477.06428 379.08256,475.96517 L 379.08256,473.26677 C 379.08256,471.55558 380.2191,470.58118 382.21778,470.58118 L 397.33303,470.58118 C 399.18176,470.58118 400.56835,469.25693 400.56835,467.49551 L 400.56835,466.68357 C 400.56835,464.93462 399.1568,463.5982 397.27068,463.5982 L 380.98116,463.5982" />
          <path
             style="fill:url(#linearGradient5880);fill-opacity:1;stroke:none"
             id="path2099"
             d="M 437.70666,463.5608 C 435.92031,463.5608 434.47133,465.00978 434.47133,466.79612 L 434.47133,490.03086 C 434.47133,491.87956 432.9597,493.37875 431.12345,493.37875 L 420.58025,493.37875 C 418.73155,493.37875 417.23233,491.87956 417.23233,490.03086 L 417.23233,466.79612 C 417.23233,465.00978 415.79586,463.5608 413.99704,463.5608 L 412.97273,463.5608 C 411.17391,463.5608 409.7374,464.98482 409.7374,466.79612 L 409.7374,490.91763 C 409.7374,496.52647 414.14702,500.59899 420.2304,500.59899 L 431.49824,500.59899 C 437.58162,500.59899 441.99121,496.52647 441.99121,490.91763 L 441.99121,466.79612 C 441.99121,464.98482 440.56722,463.5608 438.75592,463.5608 L 437.73161,463.5608" />
          <path
             style="fill:url(#linearGradient5882);fill-opacity:1;stroke:none"
             id="path2101"
             d="M 457.90593,463.5608 C 451.85998,463.5608 448.5121,468.68225 448.5121,472.22999 L 448.5121,476.77712 C 448.5121,481.9862 452.78418,485.22153 456.73167,485.22153 L 470.5975,485.22153 C 472.33397,485.22153 472.70877,486.35806 472.70877,487.31999 L 472.70877,490.25568 C 472.70877,490.56779 472.64641,493.39122 470.5975,493.39122 L 451.6726,493.39122 C 449.79862,493.39122 448.43727,494.69022 448.43727,496.47656 L 448.43727,497.28854 C 448.43727,499.06241 449.79862,500.37421 451.6726,500.37421 L 471.62211,500.37421 C 476.84367,500.37421 480.2037,496.75128 480.2037,491.13 L 480.2037,486.22085 C 480.2037,480.94912 476.419,478.58842 472.64641,478.58842 L 459.00507,478.58842 C 456.94403,478.58842 456.01983,477.06428 456.01983,475.96517 L 456.01983,473.26677 C 456.01983,471.55558 457.15637,470.58118 459.14257,470.58118 L 474.25782,470.58118 C 476.09408,470.58118 477.49318,469.25693 477.49318,467.49551 L 477.49318,466.68357 C 477.49318,464.93462 476.0816,463.5982 474.1827,463.5982 L 457.90593,463.5982" />
          <path
             style="fill:url(#linearGradient5884);fill-opacity:1;stroke:none"
             id="path2103"
             d="M 489.79745,463.5608 C 488.0114,463.5608 486.63725,464.88471 486.63725,466.64614 L 486.63725,497.28854 C 486.63725,499.03745 487.9612,500.37421 489.7351,500.37421 L 514.15658,500.37421 C 516.03056,500.37421 517.39223,499.07488 517.39223,497.28854 L 517.39223,496.47656 C 517.39223,494.70269 516.04303,493.39122 514.15658,493.39122 C 514.15658,493.39122 495.05674,493.39122 494.15716,493.39122 C 494.15716,492.59175 494.15716,486.38331 494.15716,485.58385 C 495.05674,485.58385 508.81031,485.58385 508.81031,485.58385 C 510.68396,485.58385 512.04564,484.28452 512.04564,482.4857 L 512.04564,481.68623 C 512.04564,479.89989 510.68396,478.58842 508.81031,478.58842 C 508.81031,478.58842 495.05674,478.58842 494.15716,478.58842 C 494.15716,477.78895 494.15716,471.36817 494.15716,470.56871 C 495.05674,470.56871 513.14474,470.56871 513.14474,470.56871 C 515.01875,470.56871 516.3804,469.26938 516.3804,467.48303 L 516.3804,466.67109 C 516.3804,464.88471 515.01875,463.58575 513.14474,463.58575 L 489.81025,463.58575" />
          <path
             style="fill:url(#linearGradient5886);fill-opacity:1;stroke:none"
             id="path2105"
             d="M 282.17071,478.13846 C 279.1227,478.13846 276.63682,480.51197 276.63682,483.44763 L 276.63682,495.00266 C 276.63682,497.97575 279.03525,500.39913 281.98335,500.39913 L 289.45345,500.39913 C 292.40152,500.39913 294.81243,497.97575 294.81243,495.00266 L 294.81243,483.44763 C 294.81243,480.52445 292.32658,478.13846 289.27854,478.13846 L 282.17071,478.13846 z M 280.55927,494.55271 L 280.55927,484.00984 C 280.55927,482.77289 281.5711,481.76106 282.8078,481.76106 L 288.629,481.76106 C 289.84072,481.76106 290.87751,482.78567 290.87751,484.00984 L 290.87751,494.55271 C 290.87751,495.78968 289.86568,496.80148 288.629,496.80148 L 282.75781,496.80148 C 281.52113,496.80148 280.55927,495.8146 280.55927,494.55271" />
          <path
             style="fill:url(#linearGradient5888);fill-opacity:1;stroke:none"
             id="path2107"
             d="M 311.75149,478.00128 C 309.59034,478.00128 307.97884,478.77583 306.66719,479.40036 C 305.88023,479.77485 305.19317,480.09975 304.65604,480.09975 C 304.43119,480.09975 304.2188,479.99997 304.10636,479.82506 L 303.61919,478.87558 C 303.50676,478.62584 303.00708,478.13846 302.38252,478.13846 L 301.658,478.13846 C 300.95843,478.13846 300.38381,478.76335 300.38381,479.55001 L 300.38381,508.84354 C 300.38381,509.75526 301.09585,510.4799 302.02026,510.4799 L 302.65732,510.4799 C 303.55675,510.4799 304.29378,509.74279 304.29378,508.84354 L 304.29378,499.12476 C 304.29378,498.83759 304.48113,498.53763 304.65604,498.53763 C 305.19317,498.53763 305.88023,498.83759 306.6797,499.21239 C 307.97884,499.79952 309.60282,500.54878 311.76396,500.54878 L 312.4384,500.54878 C 316.24841,500.54878 318.62189,498.3755 318.62189,494.87763 L 318.62189,483.69739 C 318.62189,480.24973 316.1985,478.01376 312.4384,478.01376 L 311.75149,478.01376 L 311.75149,478.01376 L 311.75149,478.00128 z M 304.28127,494.3279 L 304.28127,484.24712 C 304.28127,482.86053 305.36808,481.77354 306.75465,481.77354 L 312.20111,481.77354 C 313.58774,481.77354 314.67437,482.86053 314.67437,484.24712 L 314.67437,494.3279 C 314.67437,495.68957 313.57526,496.80148 312.20111,496.80148 L 306.75465,496.80148 C 305.39306,496.80148 304.28127,495.68957 304.28127,494.3279" />
          <path
             style="fill:url(#linearGradient5890);fill-opacity:1;stroke:none"
             id="path2109"
             d="M 329.68954,478.13846 C 326.6416,478.13846 324.15586,480.51197 324.15586,483.44763 L 324.15586,494.91503 C 324.15586,497.88814 326.56677,500.41161 329.41482,500.41161 L 337.12245,500.41161 C 338.07157,500.41161 338.75881,499.76179 338.75881,498.86255 L 338.75881,498.36269 C 338.75881,497.46344 338.07157,496.81396 337.12245,496.81396 L 330.80145,496.81396 C 329.02758,496.81396 328.09058,495.95181 328.09058,494.29047 C 328.09058,494.29047 328.09058,491.40502 328.09058,490.94259 C 328.60288,490.94259 339.5084,490.94259 339.5084,490.94259 C 341.33218,490.94259 342.43128,489.81853 342.43128,487.9196 L 342.43128,483.47261 C 342.43128,480.54937 339.94555,478.16374 336.89764,478.16374 L 329.70231,478.16374 L 329.68954,478.13846 z M 328.0781,483.95963 C 328.0781,482.73546 329.04003,481.76106 330.27667,481.76106 L 336.28522,481.76106 C 337.52217,481.76106 338.48379,482.72299 338.48379,483.95963 C 338.48379,483.95963 338.48379,487.07023 338.48379,487.53235 C 337.99674,487.53235 328.56548,487.53235 328.0781,487.53235 C 328.0781,487.07023 328.0781,483.95963 328.0781,483.95963" />
          <path
             style="fill:url(#linearGradient5892);fill-opacity:1;stroke:none"
             id="path2111"
             d="M 358.32108,478.00128 C 356.17241,478.00128 354.5485,478.76335 353.2492,479.38791 C 352.43723,479.76238 351.73784,480.09975 351.17566,480.09975 C 350.9259,480.09975 350.82582,480.07479 350.63841,479.73743 L 350.18878,478.91301 C 349.93902,478.40103 349.50187,478.13846 348.90226,478.13846 L 348.26493,478.13846 C 347.50319,478.13846 346.95346,478.72559 346.95346,479.55001 L 346.95346,498.76244 C 346.95346,499.67449 347.6778,500.41161 348.58982,500.41161 L 349.22685,500.41161 C 350.12643,500.41161 350.86322,499.67449 350.86322,498.76244 L 350.86322,484.22217 C 350.86322,482.86053 351.97513,481.74858 353.3368,481.74858 L 358.78318,481.74858 C 360.14485,481.74858 361.25644,482.86053 361.25644,484.22217 L 361.25644,498.76244 C 361.25644,499.67449 361.98107,500.41161 362.89313,500.41161 L 363.53016,500.41161 C 364.42941,500.41161 365.16653,499.67449 365.16653,498.76244 L 365.16653,483.68492 C 365.16653,480.23725 362.74314,478.00128 358.98304,478.00128 L 358.29613,478.00128" />
        </g>
      </g>
      <path
         id="path7148"
         d="M -1,525.5 L 815,525.5"
         style="opacity:0.375;fill:none;fill-opacity:1;fill-rule:evenodd;stroke:url(#radialGradient7156);stroke-width:1.61614823;stroke-linecap:butt;stroke-linejoin:miter;marker:none;marker-start:none;marker-mid:none;marker-end:none;stroke-miterlimit:4;stroke-dasharray:none;stroke-dashoffset:0;stroke-opacity:1;visibility:visible;display:inline;overflow:visible;enable-background:accumulate" />
      <path
         style="opacity:0.47395833;fill:none;fill-opacity:1;fill-rule:evenodd;stroke:url(#radialGradient8683);stroke-width:3.23229647;stroke-linecap:butt;stroke-linejoin:miter;marker:none;marker-start:none;marker-mid:none;marker-end:none;stroke-miterlimit:4;stroke-dasharray:none;stroke-dashoffset:0;stroke-opacity:1;visibility:visible;display:inline;overflow:visible;enable-background:accumulate"
         d="M -1,412.5 L 815,412.5"
         id="path8679" />
      <g
         id="g6768"
         transform="matrix(1.8943585,0,0,1.8943585,-682.38687,-425.79018)">
        <path
           transform="matrix(0.9769813,0,0,0.9769813,-3.7547751,25.745184)"
           d="M 764.84375,472.46875 C 764.73205,472.46875 764.61168,472.50046 764.5,472.5625 C 764.38833,472.61216 764.31204,472.67555 764.25,472.75 L 762.1875,475 C 762.00136,475.19855 761.90625,475.41405 761.90625,475.625 C 761.90627,475.79873 761.95081,475.93841 762.0625,476.0625 C 762.1866,476.1742 762.32627,476.21876 762.5,476.21875 C 762.5993,476.21875 762.71322,476.21232 762.8125,476.1875 C 762.91177,476.16269 763.03215,476.11812 763.15625,476.03125 L 764.125,475.375 L 764.125,480.5625 C 764.12499,480.77347 764.17599,480.94484 764.3125,481.09375 C 764.44897,481.23024 764.63279,481.3125 764.84375,481.3125 L 765.28125,481.3125 C 765.49221,481.3125 765.67599,481.23025 765.8125,481.09375 C 765.96142,480.94483 766.03124,480.77346 766.03125,480.5625 L 766.03125,473.21875 C 766.03124,473.00781 765.96141,472.85526 765.8125,472.71875 C 765.67601,472.56984 765.4922,472.46876 765.28125,472.46875 L 764.84375,472.46875 z M 771.875,472.46875 C 771.76332,472.46875 771.67418,472.50046 771.5625,472.5625 C 771.45079,472.61216 771.34329,472.67555 771.28125,472.75 L 769.21875,475 C 769.03263,475.19855 768.9375,475.41405 768.9375,475.625 C 768.93748,475.79873 768.98206,475.93841 769.09375,476.0625 C 769.21787,476.1742 769.38877,476.21876 769.5625,476.21875 C 769.66176,476.21875 769.74447,476.21232 769.84375,476.1875 C 769.94304,476.16269 770.0634,476.11812 770.1875,476.03125 L 771.15625,475.375 L 771.15625,480.5625 C 771.15626,480.77347 771.23849,480.94484 771.375,481.09375 C 771.51149,481.23024 771.66404,481.3125 771.875,481.3125 L 772.34375,481.3125 C 772.55473,481.3125 772.70724,481.23025 772.84375,481.09375 C 772.99263,480.94483 773.06249,480.77346 773.0625,480.5625 L 773.0625,473.21875 C 773.06251,473.00781 772.99266,472.85526 772.84375,472.71875 C 772.70722,472.56984 772.5547,472.46876 772.34375,472.46875 L 771.875,472.46875 z M 781.625,472.46875 C 781.30238,472.46875 781.00416,472.53217 780.71875,472.65625 C 780.44574,472.78035 780.21096,472.97655 780,473.1875 C 779.78904,473.39848 779.62409,473.62084 779.5,473.90625 C 779.37589,474.17927 779.3125,474.48987 779.3125,474.8125 L 779.3125,478.96875 C 779.3125,479.2914 779.37591,479.62084 779.5,479.90625 C 779.62408,480.17927 779.78904,480.41404 780,480.625 C 780.21096,480.83596 780.44574,481.00091 780.71875,481.125 C 781.00415,481.24908 781.30236,481.3125 781.625,481.3125 L 784.5,481.3125 C 784.82263,481.3125 785.13324,481.24909 785.40625,481.125 C 785.69163,481.00089 785.94528,480.83596 786.15625,480.625 C 786.36722,480.41405 786.53215,480.17926 786.65625,479.90625 C 786.78031,479.62085 786.84374,479.29139 786.84375,478.96875 L 786.84375,474.8125 C 786.84376,474.48988 786.78033,474.17926 786.65625,473.90625 C 786.53212,473.62085 786.3672,473.39847 786.15625,473.1875 C 785.94531,472.97656 785.69166,472.78035 785.40625,472.65625 C 785.13321,472.53217 784.82264,472.46876 784.5,472.46875 L 781.625,472.46875 z M 782.0625,474.1875 L 784.09375,474.1875 C 784.3295,474.18751 784.52617,474.27619 784.6875,474.4375 C 784.84879,474.59884 784.90624,474.79548 784.90625,475.03125 L 784.90625,478.75 C 784.90626,478.98578 784.84881,479.18243 784.6875,479.34375 C 784.52615,479.50508 784.32952,479.59375 784.09375,479.59375 L 782.0625,479.59375 C 781.82671,479.59376 781.63007,479.50507 781.46875,479.34375 C 781.30741,479.18243 781.21875,478.98578 781.21875,478.75 L 781.21875,475.03125 C 781.21875,474.79547 781.30743,474.59883 781.46875,474.4375 C 781.63005,474.2762 781.82672,474.18751 782.0625,474.1875 z M 775.65625,478.5625 C 775.44529,478.56249 775.24266,478.63234 775.09375,478.78125 C 774.95724,478.91775 774.90625,479.10154 774.90625,479.3125 L 774.90625,480.5625 C 774.90626,480.77347 774.95725,480.94484 775.09375,481.09375 C 775.24265,481.23024 775.44529,481.3125 775.65625,481.3125 L 776.375,481.3125 C 776.58595,481.3125 776.76974,481.23025 776.90625,481.09375 C 777.05516,480.94483 777.125,480.77346 777.125,480.5625 L 777.125,479.3125 C 777.12498,479.10155 777.05516,478.91775 776.90625,478.78125 C 776.76975,478.63234 776.58596,478.5625 776.375,478.5625 L 775.65625,478.5625 z"
           inkscape:href="#text5896"
           id="path6670"
           style="font-size:18.61394501px;font-style:normal;font-variant:normal;font-weight:bold;font-stretch:normal;text-indent:0;text-align:start;text-decoration:none;line-height:100%;letter-spacing:normal;word-spacing:normal;text-transform:none;direction:ltr;block-progression:tb;writing-mode:lr-tb;text-anchor:start;opacity:1;fill:#000000;fill-opacity:1;fill-rule:nonzero;stroke:none;stroke-width:1px;stroke-linecap:butt;stroke-linejoin:miter;marker:none;marker-start:none;marker-mid:none;marker-end:none;stroke-miterlimit:4;stroke-dasharray:none;stroke-dashoffset:0;stroke-opacity:1;visibility:visible;display:inline;overflow:visible;filter:url(#filter6764);enable-background:accumulate;font-family:ChollaWideBoldOS;-inkscape-font-specification:ChollaWideBoldOS Bold"
           xlink:href="#text5896"
           inkscape:original="M 764.84375 472.46875 C 764.73205 472.46875 764.61168 472.50046 764.5 472.5625 C 764.38833 472.61216 764.31204 472.67555 764.25 472.75 L 762.1875 475 C 762.00136 475.19855 761.90625 475.41405 761.90625 475.625 C 761.90627 475.79873 761.95081 475.93841 762.0625 476.0625 C 762.1866 476.1742 762.32627 476.21876 762.5 476.21875 C 762.5993 476.21875 762.71322 476.21232 762.8125 476.1875 C 762.91177 476.16269 763.03215 476.11812 763.15625 476.03125 L 764.125 475.375 L 764.125 480.5625 C 764.12499 480.77347 764.17599 480.94484 764.3125 481.09375 C 764.44897 481.23024 764.63279 481.3125 764.84375 481.3125 L 765.28125 481.3125 C 765.49221 481.3125 765.67599 481.23025 765.8125 481.09375 C 765.96142 480.94483 766.03124 480.77346 766.03125 480.5625 L 766.03125 473.21875 C 766.03124 473.00781 765.96141 472.85526 765.8125 472.71875 C 765.67601 472.56984 765.4922 472.46876 765.28125 472.46875 L 764.84375 472.46875 z M 771.875 472.46875 C 771.76332 472.46875 771.67418 472.50046 771.5625 472.5625 C 771.45079 472.61216 771.34329 472.67555 771.28125 472.75 L 769.21875 475 C 769.03263 475.19855 768.9375 475.41405 768.9375 475.625 C 768.93748 475.79873 768.98206 475.93841 769.09375 476.0625 C 769.21787 476.1742 769.38877 476.21876 769.5625 476.21875 C 769.66176 476.21875 769.74447 476.21232 769.84375 476.1875 C 769.94304 476.16269 770.0634 476.11812 770.1875 476.03125 L 771.15625 475.375 L 771.15625 480.5625 C 771.15626 480.77347 771.23849 480.94484 771.375 481.09375 C 771.51149 481.23024 771.66404 481.3125 771.875 481.3125 L 772.34375 481.3125 C 772.55473 481.3125 772.70724 481.23025 772.84375 481.09375 C 772.99263 480.94483 773.06249 480.77346 773.0625 480.5625 L 773.0625 473.21875 C 773.06251 473.00781 772.99266 472.85526 772.84375 472.71875 C 772.70722 472.56984 772.5547 472.46876 772.34375 472.46875 L 771.875 472.46875 z M 781.625 472.46875 C 781.30238 472.46875 781.00416 472.53217 780.71875 472.65625 C 780.44574 472.78035 780.21096 472.97655 780 473.1875 C 779.78904 473.39848 779.62409 473.62084 779.5 473.90625 C 779.37589 474.17927 779.3125 474.48987 779.3125 474.8125 L 779.3125 478.96875 C 779.3125 479.2914 779.37591 479.62084 779.5 479.90625 C 779.62408 480.17927 779.78904 480.41404 780 480.625 C 780.21096 480.83596 780.44574 481.00091 780.71875 481.125 C 781.00415 481.24908 781.30236 481.3125 781.625 481.3125 L 784.5 481.3125 C 784.82263 481.3125 785.13324 481.24909 785.40625 481.125 C 785.69163 481.00089 785.94528 480.83596 786.15625 480.625 C 786.36722 480.41405 786.53215 480.17926 786.65625 479.90625 C 786.78031 479.62085 786.84374 479.29139 786.84375 478.96875 L 786.84375 474.8125 C 786.84376 474.48988 786.78033 474.17926 786.65625 473.90625 C 786.53212 473.62085 786.3672 473.39847 786.15625 473.1875 C 785.94531 472.97656 785.69166 472.78035 785.40625 472.65625 C 785.13321 472.53217 784.82264 472.46876 784.5 472.46875 L 781.625 472.46875 z M 782.0625 474.1875 L 784.09375 474.1875 C 784.3295 474.18751 784.52617 474.27619 784.6875 474.4375 C 784.84879 474.59884 784.90624 474.79548 784.90625 475.03125 L 784.90625 478.75 C 784.90626 478.98578 784.84881 479.18243 784.6875 479.34375 C 784.52615 479.50508 784.32952 479.59375 784.09375 479.59375 L 782.0625 479.59375 C 781.82671 479.59376 781.63007 479.50507 781.46875 479.34375 C 781.30741 479.18243 781.21875 478.98578 781.21875 478.75 L 781.21875 475.03125 C 781.21875 474.79547 781.30743 474.59883 781.46875 474.4375 C 781.63005 474.2762 781.82672 474.18751 782.0625 474.1875 z M 775.65625 478.5625 C 775.44529 478.56249 775.24266 478.63234 775.09375 478.78125 C 774.95724 478.91775 774.90625 479.10154 774.90625 479.3125 L 774.90625 480.5625 C 774.90626 480.77347 774.95725 480.94484 775.09375 481.09375 C 775.24265 481.23024 775.44529 481.3125 775.65625 481.3125 L 776.375 481.3125 C 776.58595 481.3125 776.76974 481.23025 776.90625 481.09375 C 777.05516 480.94483 777.125 480.77346 777.125 480.5625 L 777.125 479.3125 C 777.12498 479.10155 777.05516 478.91775 776.90625 478.78125 C 776.76975 478.63234 776.58596 478.5625 776.375 478.5625 L 775.65625 478.5625 z "
           inkscape:radius="0"
           sodipodi:type="inkscape:offset" />
        <text
           transform="scale(0.9722646,1.0285266)"
           sodipodi:linespacing="100%"
           id="text5896"
           y="481.30707"
           x="760.24097"
           style="font-size:18.61394501px;font-style:normal;font-variant:normal;font-weight:bold;font-stretch:normal;text-indent:0;text-align:start;text-decoration:none;line-height:100%;letter-spacing:normal;word-spacing:normal;text-transform:none;direction:ltr;block-progression:tb;writing-mode:lr-tb;text-anchor:start;opacity:1;fill:#ffffff;fill-opacity:1;fill-rule:nonzero;stroke:none;stroke-width:1px;stroke-linecap:butt;stroke-linejoin:miter;marker:none;marker-start:none;marker-mid:none;marker-end:none;stroke-miterlimit:4;stroke-dasharray:none;stroke-dashoffset:0;stroke-opacity:1;visibility:visible;display:inline;overflow:visible;enable-background:accumulate;font-family:ChollaWideBoldOS;-inkscape-font-specification:ChollaWideBoldOS Bold"
           xml:space="preserve"><tspan
             style="font-size:18.61394501px;font-style:normal;font-variant:normal;font-weight:bold;font-stretch:normal;text-align:start;line-height:100%;writing-mode:lr-tb;text-anchor:start;fill:#ffffff;fill-opacity:1;stroke:none;stroke-width:1;font-family:ChollaWideBoldOS;-inkscape-font-specification:ChollaWideBoldOS Bold"
             y="481.30707"
             x="760.24097"
             id="tspan5898"
             sodipodi:role="line"
             dx="0 -2.6268671 -3.1522405">11.0</tspan></text>
      </g>
    </g>
    <path
       sodipodi:type="inkscape:offset"
       inkscape:radius="0"
       inkscape:original="M 47.65625 77.25 C 47.249059 77.250026 46.912405 77.368855 46.625 77.65625 C 46.361517 77.919743 46.249987 78.280346 46.25 78.6875 L 46.25 85.71875 C 46.249986 86.006185 46.121801 86.156265 45.90625 86.15625 C 45.690674 86.156265 45.42906 86.073927 45.09375 85.90625 C 44.758415 85.714656 44.361319 85.496831 43.90625 85.28125 C 43.475112 85.041751 42.995675 84.855178 42.46875 84.6875 C 41.941806 84.495902 41.372734 84.375017 40.75 84.375 L 40.1875 84.375 C 38.415075 84.375018 37.119552 84.839855 36.28125 85.75 C 35.466892 86.660177 35.062498 87.82957 35.0625 89.21875 L 35.0625 96.8125 C 35.062499 98.201694 35.466892 99.371091 36.28125 100.28125 C 37.119552 101.19141 38.415075 101.625 40.1875 101.625 L 40.75 101.625 C 41.372735 101.625 41.941805 101.54266 42.46875 101.375 C 42.995676 101.18338 43.47511 101.00411 43.90625 100.8125 C 44.361321 100.59694 44.758416 100.38641 45.09375 100.21875 C 45.429059 100.02714 45.690673 99.937502 45.90625 99.9375 C 46.025996 99.937498 46.15418 99.983348 46.25 100.03125 C 46.369744 100.0552 46.46668 100.13754 46.5625 100.28125 L 47.40625 101.53125 L 48.65625 101.53125 C 49.135268 101.53125 49.464621 101.37387 49.65625 101.0625 C 49.847846 100.75113 49.937483 100.45097 49.9375 100.1875 L 49.9375 77.25 L 47.65625 77.25 z M 118.65625 77.25 C 118.24907 77.250026 117.88117 77.368855 117.59375 77.65625 C 117.33028 77.919743 117.21875 78.280346 117.21875 78.6875 L 117.21875 100.09375 C 117.21875 100.50093 117.33028 100.83758 117.59375 101.125 C 117.88116 101.38847 118.24907 101.53125 118.65625 101.53125 L 120.90625 101.53125 L 120.90625 78.6875 C 120.90624 78.280349 120.75616 77.919741 120.46875 77.65625 C 120.20528 77.368856 119.87592 77.250024 119.46875 77.25 L 118.65625 77.25 z M 175.875 77.25 C 175.4678 77.250026 175.13116 77.368855 174.84375 77.65625 C 174.58027 77.919743 174.43749 78.280346 174.4375 78.6875 L 174.4375 85.71875 C 174.43749 86.006185 174.34055 86.156265 174.125 86.15625 C 173.90942 86.156265 173.61656 86.073927 173.28125 85.90625 C 172.94591 85.714656 172.54882 85.496831 172.09375 85.28125 C 171.66261 85.041751 171.18318 84.855178 170.65625 84.6875 C 170.12931 84.495902 169.56023 84.375017 168.9375 84.375 L 168.40625 84.375 C 166.63383 84.375018 165.3383 84.839855 164.5 85.75 C 163.68565 86.660177 163.25 87.82957 163.25 89.21875 L 163.25 96.8125 C 163.25 98.201694 163.68564 99.371091 164.5 100.28125 C 165.33831 101.19141 166.63382 101.625 168.40625 101.625 L 168.9375 101.625 C 169.56024 101.625 170.12931 101.54266 170.65625 101.375 C 171.18318 101.18338 171.66261 101.00411 172.09375 100.8125 C 172.54882 100.59694 172.94592 100.38641 173.28125 100.21875 C 173.61656 100.02714 173.90942 99.937502 174.125 99.9375 C 174.24475 99.937498 174.34168 99.983348 174.4375 100.03125 C 174.55724 100.0552 174.65418 100.13754 174.75 100.28125 L 175.625 101.53125 L 176.84375 101.53125 C 177.32277 101.53125 177.65212 101.37387 177.84375 101.0625 C 178.03535 100.75113 178.12498 100.45097 178.125 100.1875 L 178.125 77.25 L 175.875 77.25 z M 192.625 77.25 C 192.21781 77.250026 191.88117 77.368855 191.59375 77.65625 C 191.33028 77.919743 191.1875 78.280346 191.1875 78.6875 L 191.1875 100.09375 C 191.1875 100.50093 191.33028 100.83758 191.59375 101.125 C 191.88117 101.38847 192.21782 101.53125 192.625 101.53125 L 193.46875 101.53125 C 193.87592 101.53125 194.20528 101.38847 194.46875 101.125 C 194.75617 100.83758 194.90624 100.50093 194.90625 100.09375 L 194.90625 89.40625 C 194.90624 88.951183 195.03237 88.592634 195.34375 88.28125 C 195.65511 87.96989 196.04491 87.812514 196.5 87.8125 L 200.75 87.8125 C 201.20506 87.812511 201.59487 87.969893 201.90625 88.28125 C 202.21761 88.592631 202.37499 88.951182 202.375 89.40625 L 202.375 100.09375 C 202.37499 100.50093 202.48652 100.83758 202.75 101.125 C 203.0374 101.38847 203.40531 101.53125 203.8125 101.53125 L 204.625 101.53125 C 205.03216 101.53125 205.36152 101.38847 205.625 101.125 C 205.9124 100.83758 206.06248 100.50093 206.0625 100.09375 L 206.0625 89.21875 C 206.06248 87.829568 205.65079 86.660176 204.8125 85.75 C 203.99812 84.839856 202.70991 84.375017 200.9375 84.375 L 200.375 84.375 C 199.7762 84.375018 199.20713 84.495904 198.65625 84.6875 C 198.12931 84.855176 197.64257 85.04175 197.1875 85.28125 C 196.75637 85.496831 196.36657 85.714653 196.03125 85.90625 C 195.69592 86.07393 195.43431 86.156265 195.21875 86.15625 C 195.00317 86.156265 194.90624 86.006185 194.90625 85.71875 L 194.90625 77.25 L 192.625 77.25 z M 262.6875 77.25 C 262.28033 77.250026 261.91242 77.368855 261.625 77.65625 C 261.36154 77.919743 261.25 78.280346 261.25 78.6875 L 261.25 92.1875 C 261.25001 92.594689 261.36153 92.931339 261.625 93.21875 C 261.91243 93.482223 262.28032 93.625008 262.6875 93.625 L 263.5 93.625 C 263.90719 93.625004 264.23653 93.482226 264.5 93.21875 C 264.78741 92.931336 264.93749 92.594686 264.9375 92.1875 L 264.9375 78.6875 C 264.9375 78.280349 264.78741 77.919741 264.5 77.65625 C 264.23653 77.368856 263.90717 77.250024 263.5 77.25 L 262.6875 77.25 z M 106.90625 84.375 C 106.30745 84.375018 105.73838 84.495904 105.1875 84.6875 C 104.66055 84.855176 104.17382 85.04175 103.71875 85.28125 C 103.26367 85.496831 102.86657 85.714653 102.53125 85.90625 C 102.19592 86.07393 101.93431 86.156265 101.71875 86.15625 C 101.50318 86.156265 101.29266 86.020782 101.125 85.78125 L 100.25 84.5 L 99.03125 84.5 C 98.552215 84.500019 98.19161 84.657396 98 84.96875 C 97.808383 85.28014 97.718748 85.549048 97.71875 85.8125 L 97.71875 100.09375 C 97.718749 100.50093 97.86153 100.83758 98.125 101.125 C 98.412417 101.38847 98.749069 101.53125 99.15625 101.53125 L 100 101.53125 C 100.40717 101.53125 100.73653 101.38847 101 101.125 C 101.28742 100.83758 101.43749 100.50093 101.4375 100.09375 L 101.4375 89.40625 C 101.4375 88.951183 101.59487 88.592634 101.90625 88.28125 C 102.21762 87.96989 102.57616 87.812514 103.03125 87.8125 L 107.28125 87.8125 C 107.73632 87.812511 108.12612 87.969893 108.4375 88.28125 C 108.74886 88.592631 108.90624 88.951182 108.90625 89.40625 L 108.90625 100.09375 C 108.90624 100.50093 109.01777 100.83758 109.28125 101.125 C 109.56865 101.38847 109.93656 101.53125 110.34375 101.53125 L 111.15625 101.53125 C 111.56341 101.53125 111.89277 101.38847 112.15625 101.125 C 112.44365 100.83758 112.59373 100.50093 112.59375 100.09375 L 112.59375 89.21875 C 112.59373 87.829568 112.18204 86.660176 111.34375 85.75 C 110.52938 84.839856 109.24116 84.375017 107.46875 84.375 L 106.90625 84.375 z M 74.15625 84.46875 L 73.1875 84.71875 C 72.876126 84.79062 72.63641 84.955299 72.46875 85.21875 C 72.301089 85.458282 72.218749 85.705298 72.21875 85.96875 C 72.218746 86.112472 72.226047 86.202112 72.25 86.25 L 75.96875 99.6875 C 76.016648 99.855163 76.091689 100.06569 76.1875 100.28125 C 76.283304 100.49682 76.387535 100.68339 76.53125 100.875 C 76.674956 101.04266 76.84693 101.20004 77.0625 101.34375 C 77.278061 101.46351 77.517776 101.53125 77.78125 101.53125 L 79.0625 101.53125 C 79.541522 101.53125 79.900072 101.35927 80.1875 101 C 80.474912 100.61677 80.692732 100.22698 80.8125 99.84375 L 82.46875 95.25 C 82.612451 94.84283 82.762529 94.385289 82.90625 93.90625 C 83.04995 93.427227 83.146883 93.037428 83.21875 92.75 C 83.314544 92.462587 83.374988 92.297912 83.375 92.25 L 83.40625 92.25 C 83.406241 92.297916 83.428133 92.46259 83.5 92.75 C 83.595791 93.037425 83.731278 93.427226 83.875 93.90625 C 84.0187 94.385291 84.137527 94.842829 84.28125 95.25 L 85.9375 99.84375 C 86.057243 100.22698 86.275066 100.61678 86.5625 101 C 86.849907 101.35927 87.239702 101.53125 87.71875 101.53125 L 88.96875 101.53125 C 89.232197 101.53125 89.471917 101.46351 89.6875 101.34375 C 89.903048 101.20004 90.075021 101.04266 90.21875 100.875 C 90.362444 100.68338 90.497924 100.49682 90.59375 100.28125 C 90.689539 100.06569 90.764577 99.855163 90.8125 99.6875 L 94.5 86.25 C 94.523928 86.202114 94.531227 86.112475 94.53125 85.96875 C 94.531227 85.705295 94.448888 85.458282 94.28125 85.21875 C 94.113569 84.955298 93.873848 84.790622 93.5625 84.71875 L 92.59375 84.46875 C 92.258404 84.372963 91.93635 84.440703 91.625 84.65625 C 91.313606 84.847877 91.095787 85.102194 91 85.4375 L 89.15625 92.53125 C 89.060426 92.938437 88.93224 93.478314 88.8125 94.125 C 88.716679 94.747746 88.627039 95.377264 88.53125 96 C 88.435424 96.598794 88.360386 97.107424 88.3125 97.5625 C 88.264582 97.993635 88.235386 98.218753 88.1875 98.21875 C 88.043773 97.619961 87.893693 97.118634 87.75 96.6875 C 87.630225 96.256378 87.487443 95.791538 87.34375 95.3125 C 87.200025 94.809525 87.049944 94.351983 86.90625 93.96875 L 85.59375 90.46875 C 85.473979 90.181338 85.302002 89.941625 85.0625 89.75 C 84.82297 89.558398 84.530108 89.468762 84.21875 89.46875 L 82.53125 89.46875 C 82.219871 89.468764 81.958255 89.558399 81.71875 89.75 C 81.479221 89.941624 81.275998 90.181342 81.15625 90.46875 L 79.84375 93.96875 C 79.700036 94.351985 79.549951 94.809523 79.40625 95.3125 C 79.262529 95.79154 79.112452 96.256376 78.96875 96.6875 C 78.848981 97.118636 78.759347 97.469883 78.6875 97.78125 C 78.615637 98.068671 78.547896 98.218753 78.5 98.21875 C 78.404183 97.332542 78.314549 96.598795 78.21875 96 C 78.122936 95.377262 78.0333 94.747749 77.9375 94.125 C 77.841689 93.478312 77.744752 92.938436 77.625 92.53125 L 75.75 85.4375 C 75.654192 85.102197 75.436367 84.84788 75.125 84.65625 C 74.813626 84.4407 74.491569 84.372961 74.15625 84.46875 z M 58.71875 84.5 C 58.096003 84.500019 57.488382 84.604251 56.9375 84.84375 C 56.410562 85.083283 55.969674 85.405339 55.5625 85.8125 C 55.15532 86.219695 54.802013 86.699128 54.5625 87.25 C 54.322981 87.776953 54.218748 88.377271 54.21875 89 L 54.21875 97.03125 C 54.218749 97.653996 54.322982 98.230366 54.5625 98.78125 C 54.802013 99.308187 55.155319 99.780324 55.5625 100.1875 C 55.969675 100.59468 56.41056 100.91673 56.9375 101.15625 C 57.488383 101.39577 58.096002 101.53125 58.71875 101.53125 L 64.5625 101.53125 C 65.18523 101.53125 65.754301 101.39577 66.28125 101.15625 C 66.832122 100.91674 67.311557 100.59468 67.71875 100.1875 C 68.125912 99.780325 68.447967 99.308188 68.6875 98.78125 C 68.927001 98.230366 69.062483 97.653996 69.0625 97.03125 L 69.0625 89 C 69.062483 88.377273 68.926999 87.776949 68.6875 87.25 C 68.447969 86.699131 68.125911 86.219693 67.71875 85.8125 C 67.311558 85.405341 66.832122 85.083283 66.28125 84.84375 C 65.7543 84.604252 65.185229 84.500017 64.5625 84.5 L 58.71875 84.5 z M 130 84.5 C 129.37725 84.500019 128.80088 84.604251 128.25 84.84375 C 127.72306 85.083283 127.25092 85.405339 126.84375 85.8125 C 126.43657 86.219695 126.11451 86.699128 125.875 87.25 C 125.63548 87.776953 125.5 88.377271 125.5 89 L 125.5 97.03125 C 125.5 97.653996 125.63548 98.230366 125.875 98.78125 C 126.11451 99.308187 126.43657 99.780324 126.84375 100.1875 C 127.25092 100.59468 127.72306 100.91673 128.25 101.15625 C 128.80088 101.39577 129.37725 101.53125 130 101.53125 L 135.84375 101.53125 C 136.46647 101.53125 137.0668 101.39577 137.59375 101.15625 C 138.14463 100.91674 138.62406 100.59468 139.03125 100.1875 C 139.43841 99.780325 139.76047 99.308188 140 98.78125 C 140.23949 98.230366 140.34373 97.653996 140.34375 97.03125 L 140.34375 89 C 140.34373 88.377273 140.2395 87.776949 140 87.25 C 139.76046 86.699131 139.43841 86.219693 139.03125 85.8125 C 138.62406 85.405341 138.14462 85.083283 137.59375 84.84375 C 137.06681 84.604252 136.46648 84.500017 135.84375 84.5 L 130 84.5 z M 147.25 84.5 C 146.86677 84.500019 146.53742 84.589654 146.25 84.78125 C 145.98653 84.972879 145.84375 85.265742 145.84375 85.625 L 145.84375 87.8125 L 153.84375 87.8125 C 154.25091 87.812511 154.58027 87.969893 154.84375 88.28125 C 155.1072 88.56868 155.21874 88.88344 155.21875 89.21875 L 155.21875 91.875 C 155.21873 92.162426 155.1218 92.281259 154.90625 92.28125 C 154.69067 92.281256 154.42906 92.198921 154.09375 92.03125 C 153.75841 91.839647 153.36132 91.653074 152.90625 91.4375 C 152.47511 91.197992 151.99568 90.980172 151.46875 90.8125 C 150.94181 90.6209 150.34148 90.531261 149.71875 90.53125 L 149.1875 90.53125 C 147.41508 90.531258 146.11955 90.996099 145.28125 91.90625 C 144.4669 92.816418 144.0625 93.954564 144.0625 95.34375 L 144.0625 96.8125 C 144.0625 98.201694 144.46689 99.371091 145.28125 100.28125 C 146.11956 101.19141 147.41508 101.625 149.1875 101.625 L 149.71875 101.625 C 150.34149 101.625 150.94181 101.54266 151.46875 101.375 C 151.99568 101.18338 152.47511 101.00411 152.90625 100.8125 C 153.36132 100.59694 153.75842 100.38641 154.09375 100.21875 C 154.42905 100.02714 154.69067 99.937502 154.90625 99.9375 C 155.02599 99.937498 155.12293 99.983348 155.21875 100.03125 C 155.33849 100.0552 155.46668 100.13754 155.5625 100.28125 L 156.40625 101.53125 L 157.625 101.53125 C 158.10402 101.53125 158.46462 101.37387 158.65625 101.0625 C 158.84785 100.75113 158.93748 100.45097 158.9375 100.1875 L 158.9375 88.65625 C 158.93749 88.105373 158.85514 87.596748 158.6875 87.09375 C 158.51982 86.590781 158.22696 86.133241 157.84375 85.75 C 157.48446 85.366791 157.00503 85.059331 156.40625 84.84375 C 155.83139 84.604252 155.15809 84.500017 154.34375 84.5 L 147.25 84.5 z M 214.84375 84.5 C 214.221 84.500019 213.64463 84.604251 213.09375 84.84375 C 212.56681 85.059332 212.09467 85.374089 211.6875 85.78125 C 211.28032 86.188444 210.95826 86.667878 210.71875 87.21875 C 210.47924 87.769654 210.34375 88.377271 210.34375 89 L 210.34375 97.03125 C 210.34375 97.653996 210.47923 98.230366 210.71875 98.78125 C 210.95827 99.332139 211.28032 99.811574 211.6875 100.21875 C 212.09467 100.62593 212.56681 100.97923 213.09375 101.21875 C 213.64463 101.43432 214.221 101.53125 214.84375 101.53125 L 221.3125 101.53125 C 221.71966 101.53125 222.04902 101.43431 222.3125 101.21875 C 222.5999 100.97924 222.74999 100.62593 222.75 100.21875 L 222.75 98.21875 L 215.53125 98.21875 C 215.12406 98.218751 214.75616 98.075971 214.46875 97.8125 C 214.18133 97.549035 214.06249 97.205085 214.0625 96.75 L 214.0625 94.40625 L 223 94.40625 C 223.62273 94.406259 224.13135 94.212386 224.5625 93.78125 C 224.99361 93.350128 225.21873 92.810251 225.21875 92.1875 L 225.21875 89 C 225.21873 88.377273 225.1145 87.776949 224.875 87.25 C 224.63547 86.699131 224.31341 86.219693 223.90625 85.8125 C 223.49905 85.405341 223.01962 85.083283 222.46875 84.84375 C 221.9418 84.604252 221.34148 84.500017 220.71875 84.5 L 214.84375 84.5 z M 230.03125 84.5 C 229.55221 84.500019 229.22286 84.657396 229.03125 84.96875 C 228.83964 85.28014 228.71875 85.549048 228.71875 85.8125 L 228.71875 100.09375 C 228.71875 100.50093 228.86153 100.83758 229.125 101.125 C 229.41242 101.38847 229.74907 101.53125 230.15625 101.53125 L 231 101.53125 C 231.40717 101.53125 231.73653 101.38847 232 101.125 C 232.28742 100.83758 232.43749 100.50093 232.4375 100.09375 L 232.4375 89.34375 C 232.43749 88.888682 232.59487 88.506182 232.90625 88.21875 C 233.21761 87.931341 233.53967 87.812514 233.875 87.8125 L 240.625 87.8125 L 240.625 85.78125 C 240.62498 85.37409 240.4822 85.059331 240.21875 84.84375 C 239.95527 84.604252 239.62591 84.500017 239.21875 84.5 L 236.09375 84.5 C 235.5668 84.500019 235.14052 84.582356 234.78125 84.75 C 234.44592 84.917677 234.14576 85.096952 233.90625 85.3125 C 233.66672 85.528082 233.44161 85.738604 233.25 85.90625 C 233.08233 86.07393 232.91036 86.156265 232.71875 86.15625 C 232.50318 86.156265 232.32391 86.020782 232.15625 85.78125 L 231.25 84.5 L 230.03125 84.5 z M 246.625 84.5 C 246.00225 84.500019 245.42588 84.604251 244.875 84.84375 C 244.34806 85.059332 243.87592 85.374089 243.46875 85.78125 C 243.06157 86.188444 242.73951 86.667878 242.5 87.21875 C 242.26049 87.769654 242.125 88.377271 242.125 89 L 242.125 97.03125 C 242.125 97.653996 242.26048 98.230366 242.5 98.78125 C 242.73952 99.332139 243.06157 99.811574 243.46875 100.21875 C 243.87592 100.62593 244.34806 100.97923 244.875 101.21875 C 245.42588 101.43432 246.00225 101.53125 246.625 101.53125 L 253.09375 101.53125 C 253.50091 101.53125 253.83027 101.43431 254.09375 101.21875 C 254.38115 100.97924 254.53124 100.62593 254.53125 100.21875 L 254.53125 98.21875 L 247.3125 98.21875 C 246.90531 98.218751 246.56866 98.075971 246.28125 97.8125 C 245.99383 97.549035 245.84374 97.205085 245.84375 96.75 L 245.84375 94.40625 L 254.78125 94.40625 C 255.40398 94.406259 255.94385 94.212386 256.375 93.78125 C 256.80611 93.350128 256.99998 92.810251 257 92.1875 L 257 89 C 256.99998 88.377273 256.89575 87.776949 256.65625 87.25 C 256.41672 86.699131 256.09466 86.219693 255.6875 85.8125 C 255.2803 85.405341 254.80087 85.083283 254.25 84.84375 C 253.72305 84.604252 253.15398 84.500017 252.53125 84.5 L 246.625 84.5 z M 40.375 87.8125 L 44.625 87.8125 C 45.080067 87.812511 45.469866 87.969893 45.78125 88.28125 C 46.092607 88.592631 46.249987 88.951182 46.25 89.40625 L 46.25 96.59375 C 46.249986 97.048836 46.092608 97.438633 45.78125 97.75 C 45.469865 98.061372 45.080069 98.218753 44.625 98.21875 L 40.375 98.21875 C 39.919912 98.218751 39.530114 98.061374 39.21875 97.75 C 38.907372 97.43863 38.749994 97.048835 38.75 96.59375 L 38.75 89.40625 C 38.749993 88.951183 38.907373 88.592634 39.21875 88.28125 C 39.530114 87.96989 39.919912 87.812514 40.375 87.8125 z M 59.53125 87.8125 L 63.75 87.8125 C 64.205067 87.812511 64.563616 87.969893 64.875 88.28125 C 65.186356 88.592631 65.343737 88.951182 65.34375 89.40625 L 65.34375 96.59375 C 65.343735 97.048836 65.186358 97.438633 64.875 97.75 C 64.563615 98.061372 64.205069 98.218753 63.75 98.21875 L 59.53125 98.21875 C 59.076162 98.218751 58.686364 98.061374 58.375 97.75 C 58.063622 97.43863 57.906244 97.048835 57.90625 96.59375 L 57.90625 89.40625 C 57.906243 88.951183 58.063623 88.592634 58.375 88.28125 C 58.686364 87.96989 59.076162 87.812514 59.53125 87.8125 z M 130.84375 87.8125 L 135.03125 87.8125 C 135.48632 87.812511 135.87612 87.969893 136.1875 88.28125 C 136.49886 88.592631 136.65624 88.951182 136.65625 89.40625 L 136.65625 96.59375 C 136.65624 97.048836 136.49886 97.438633 136.1875 97.75 C 135.87612 98.061372 135.48632 98.218753 135.03125 98.21875 L 130.84375 98.21875 C 130.38866 98.218751 129.99886 98.061374 129.6875 97.75 C 129.37612 97.43863 129.21874 97.048835 129.21875 96.59375 L 129.21875 89.40625 C 129.21874 88.951183 129.37612 88.592634 129.6875 88.28125 C 129.99886 87.96989 130.38866 87.812514 130.84375 87.8125 z M 168.59375 87.8125 L 172.8125 87.8125 C 173.26756 87.812511 173.65737 87.969893 173.96875 88.28125 C 174.28011 88.592631 174.43749 88.951182 174.4375 89.40625 L 174.4375 96.59375 C 174.43749 97.048836 174.28011 97.438633 173.96875 97.75 C 173.65737 98.061372 173.26757 98.218753 172.8125 98.21875 L 168.59375 98.21875 C 168.13866 98.218751 167.74886 98.061374 167.4375 97.75 C 167.12612 97.43863 166.96874 97.048835 166.96875 96.59375 L 166.96875 89.40625 C 166.96874 88.951183 167.12612 88.592634 167.4375 88.28125 C 167.74886 87.96989 168.13866 87.812514 168.59375 87.8125 z M 215.5 87.8125 L 220.09375 87.8125 C 220.50092 87.812511 220.83027 87.931344 221.09375 88.21875 C 221.38116 88.482228 221.53124 88.842835 221.53125 89.25 L 221.53125 91.4375 L 214.0625 91.4375 L 214.0625 89.25 C 214.06249 88.842834 214.17403 88.482231 214.4375 88.21875 C 214.72491 87.931341 215.09282 87.812514 215.5 87.8125 z M 247.28125 87.8125 L 251.875 87.8125 C 252.28217 87.812511 252.61152 87.931344 252.875 88.21875 C 253.16241 88.482228 253.31249 88.842835 253.3125 89.25 L 253.3125 91.4375 L 245.84375 91.4375 L 245.84375 89.25 C 245.84374 88.842834 245.95528 88.482231 246.21875 88.21875 C 246.50616 87.931341 246.87407 87.812514 247.28125 87.8125 z M 149.375 93.9375 L 153.625 93.9375 C 154.08008 93.937509 154.43862 94.094886 154.75 94.40625 C 155.06135 94.71763 155.21874 95.107426 155.21875 95.5625 L 155.21875 96.59375 C 155.21873 97.048836 155.06136 97.438633 154.75 97.75 C 154.43861 98.061372 154.08007 98.218753 153.625 98.21875 L 149.375 98.21875 C 148.91991 98.218751 148.53011 98.061374 148.21875 97.75 C 147.90737 97.43863 147.74999 97.048835 147.75 96.59375 L 147.75 95.5625 C 147.74999 95.107424 147.90737 94.717628 148.21875 94.40625 C 148.53011 94.094888 148.91991 93.937508 149.375 93.9375 z M 262.6875 96.5 C 262.28033 96.500004 261.91242 96.650085 261.625 96.9375 C 261.36154 97.200971 261.25 97.530327 261.25 97.9375 L 261.25 100.09375 C 261.25001 100.50093 261.36153 100.83758 261.625 101.125 C 261.91243 101.38847 262.28032 101.53125 262.6875 101.53125 L 263.5 101.53125 C 263.90719 101.53125 264.23653 101.38847 264.5 101.125 C 264.78741 100.83758 264.93749 100.50093 264.9375 100.09375 L 264.9375 97.9375 C 264.9375 97.530327 264.78741 97.200972 264.5 96.9375 C 264.23653 96.650084 263.90717 96.500005 263.5 96.5 L 262.6875 96.5 z "
       xlink:href="#text6775"
       style="font-size:35.92742538px;font-style:normal;font-variant:normal;font-weight:bold;font-stretch:normal;text-indent:0;text-align:center;text-decoration:none;line-height:100%;letter-spacing:normal;word-spacing:normal;text-transform:none;direction:ltr;block-progression:tb;writing-mode:lr-tb;text-anchor:middle;opacity:1;fill:#000000;fill-opacity:1;fill-rule:nonzero;stroke:none;stroke-width:1px;stroke-linecap:butt;stroke-linejoin:miter;marker:none;marker-start:none;marker-mid:none;marker-end:none;stroke-miterlimit:4;stroke-dasharray:none;stroke-dashoffset:0;stroke-opacity:1;visibility:visible;display:inline;overflow:visible;filter:url(#filter6049);enable-background:accumulate;font-family:ChollaWideBoldOS;-inkscape-font-specification:ChollaWideBoldOS Bold"
       id="path5245"
       inkscape:href="#text6775"
       d="M 49.53125,77.25 C 49.124059,77.250026 48.756155,77.368855 48.46875,77.65625 C 48.205267,77.919743 48.093737,78.280346 48.09375,78.6875 L 48.09375,85.71875 C 48.093736,86.006185 47.965551,86.156265 47.75,86.15625 C 47.534424,86.156265 47.27281,86.073927 46.9375,85.90625 C 46.602165,85.714656 46.205069,85.496831 45.75,85.28125 C 45.318862,85.041751 44.839425,84.855178 44.3125,84.6875 C 43.785556,84.495902 43.216484,84.375017 42.59375,84.375 L 42.0625,84.375 C 40.290075,84.375018 38.963302,84.839855 38.125,85.75 C 37.310642,86.660177 36.906248,87.82957 36.90625,89.21875 L 36.90625,96.8125 C 36.906249,98.201694 37.310642,99.371091 38.125,100.28125 C 38.963302,101.19141 40.290075,101.625 42.0625,101.625 L 42.59375,101.625 C 43.216485,101.625 43.785555,101.54266 44.3125,101.375 C 44.839426,101.18338 45.31886,101.00411 45.75,100.8125 C 46.205071,100.59694 46.602166,100.38641 46.9375,100.21875 C 47.272809,100.02714 47.534423,99.937502 47.75,99.9375 C 47.869746,99.937498 47.99793,99.983348 48.09375,100.03125 C 48.213494,100.0552 48.31043,100.13754 48.40625,100.28125 L 49.28125,101.53125 L 50.5,101.53125 C 50.979018,101.53125 51.308371,101.37387 51.5,101.0625 C 51.691596,100.75113 51.781233,100.45097 51.78125,100.1875 L 51.78125,77.25 L 49.53125,77.25 z M 120.5,77.25 C 120.09282,77.250026 119.72492,77.368855 119.4375,77.65625 C 119.17403,77.919743 119.0625,78.280346 119.0625,78.6875 L 119.0625,100.09375 C 119.0625,100.50093 119.17403,100.83758 119.4375,101.125 C 119.72491,101.38847 120.09282,101.53125 120.5,101.53125 L 122.75,101.53125 L 122.75,78.6875 C 122.74999,78.280349 122.59991,77.919741 122.3125,77.65625 C 122.04903,77.368856 121.71967,77.250024 121.3125,77.25 L 120.5,77.25 z M 177.71875,77.25 C 177.31155,77.250026 176.97491,77.368855 176.6875,77.65625 C 176.42402,77.919743 176.28124,78.280346 176.28125,78.6875 L 176.28125,85.71875 C 176.28124,86.006185 176.1843,86.156265 175.96875,86.15625 C 175.75317,86.156265 175.46031,86.073927 175.125,85.90625 C 174.78966,85.714656 174.42382,85.496831 173.96875,85.28125 C 173.53761,85.041751 173.05818,84.855178 172.53125,84.6875 C 172.00431,84.495902 171.40398,84.375017 170.78125,84.375 L 170.25,84.375 C 168.47758,84.375018 167.18205,84.839855 166.34375,85.75 C 165.5294,86.660177 165.125,87.82957 165.125,89.21875 L 165.125,96.8125 C 165.125,98.201694 165.52939,99.371091 166.34375,100.28125 C 167.18206,101.19141 168.47757,101.625 170.25,101.625 L 170.78125,101.625 C 171.40399,101.625 172.00431,101.54266 172.53125,101.375 C 173.05818,101.18338 173.53761,101.00411 173.96875,100.8125 C 174.42382,100.59694 174.78967,100.38641 175.125,100.21875 C 175.46031,100.02714 175.75317,99.937502 175.96875,99.9375 C 176.0885,99.937498 176.18543,99.983348 176.28125,100.03125 C 176.40099,100.0552 176.52918,100.13754 176.625,100.28125 L 177.46875,101.53125 L 178.6875,101.53125 C 179.16652,101.53125 179.49587,101.37387 179.6875,101.0625 C 179.8791,100.75113 179.99998,100.45097 180,100.1875 L 180,77.25 L 177.71875,77.25 z M 194.46875,77.25 C 194.06156,77.250026 193.72492,77.368855 193.4375,77.65625 C 193.17403,77.919743 193.03125,78.280346 193.03125,78.6875 L 193.03125,100.09375 C 193.03125,100.50093 193.17403,100.83758 193.4375,101.125 C 193.72492,101.38847 194.06157,101.53125 194.46875,101.53125 L 195.3125,101.53125 C 195.71967,101.53125 196.04903,101.38847 196.3125,101.125 C 196.59992,100.83758 196.74999,100.50093 196.75,100.09375 L 196.75,89.40625 C 196.74999,88.951183 196.90737,88.592634 197.21875,88.28125 C 197.53011,87.96989 197.91991,87.812514 198.375,87.8125 L 202.59375,87.8125 C 203.04881,87.812511 203.43862,87.969893 203.75,88.28125 C 204.06136,88.592631 204.21874,88.951182 204.21875,89.40625 L 204.21875,100.09375 C 204.21874,100.50093 204.36152,100.83758 204.625,101.125 C 204.9124,101.38847 205.24906,101.53125 205.65625,101.53125 L 206.46875,101.53125 C 206.87591,101.53125 207.23652,101.38847 207.5,101.125 C 207.7874,100.83758 207.90623,100.50093 207.90625,100.09375 L 207.90625,89.21875 C 207.90623,87.829568 207.49454,86.660176 206.65625,85.75 C 205.84187,84.839856 204.55366,84.375017 202.78125,84.375 L 202.25,84.375 C 201.6512,84.375018 201.08213,84.495904 200.53125,84.6875 C 200.00431,84.855176 199.48632,85.04175 199.03125,85.28125 C 198.60012,85.496831 198.24157,85.714653 197.90625,85.90625 C 197.57092,86.07393 197.27806,86.156265 197.0625,86.15625 C 196.84692,86.156265 196.74999,86.006185 196.75,85.71875 L 196.75,77.25 L 194.46875,77.25 z M 264.53125,77.25 C 264.12408,77.250026 263.78742,77.368855 263.5,77.65625 C 263.23654,77.919743 263.09375,78.280346 263.09375,78.6875 L 263.09375,92.1875 C 263.09376,92.594689 263.23653,92.931339 263.5,93.21875 C 263.78743,93.482223 264.12407,93.625008 264.53125,93.625 L 265.34375,93.625 C 265.75094,93.625004 266.11153,93.482226 266.375,93.21875 C 266.66241,92.931336 266.78124,92.594686 266.78125,92.1875 L 266.78125,78.6875 C 266.78125,78.280349 266.66241,77.919741 266.375,77.65625 C 266.11153,77.368856 265.75092,77.250024 265.34375,77.25 L 264.53125,77.25 z M 108.78125,84.375 C 108.18245,84.375018 107.61338,84.495904 107.0625,84.6875 C 106.53555,84.855176 106.01757,85.04175 105.5625,85.28125 C 105.10742,85.496831 104.74157,85.714653 104.40625,85.90625 C 104.07092,86.07393 103.77806,86.156265 103.5625,86.15625 C 103.34693,86.156265 103.16766,86.020782 103,85.78125 L 102.09375,84.5 L 100.875,84.5 C 100.39597,84.500019 100.06661,84.657396 99.875,84.96875 C 99.683383,85.28014 99.562498,85.549048 99.5625,85.8125 L 99.5625,100.09375 C 99.562499,100.50093 99.70528,100.83758 99.96875,101.125 C 100.25617,101.38847 100.59282,101.53125 101,101.53125 L 101.84375,101.53125 C 102.25092,101.53125 102.58028,101.38847 102.84375,101.125 C 103.13117,100.83758 103.28124,100.50093 103.28125,100.09375 L 103.28125,89.40625 C 103.28125,88.951183 103.43862,88.592634 103.75,88.28125 C 104.06137,87.96989 104.45116,87.812514 104.90625,87.8125 L 109.125,87.8125 C 109.58007,87.812511 109.96987,87.969893 110.28125,88.28125 C 110.59261,88.592631 110.74999,88.951182 110.75,89.40625 L 110.75,100.09375 C 110.74999,100.50093 110.89277,100.83758 111.15625,101.125 C 111.44365,101.38847 111.78031,101.53125 112.1875,101.53125 L 113,101.53125 C 113.40716,101.53125 113.76777,101.38847 114.03125,101.125 C 114.31865,100.83758 114.43748,100.50093 114.4375,100.09375 L 114.4375,89.21875 C 114.43748,87.829568 114.02579,86.660176 113.1875,85.75 C 112.37313,84.839856 111.08491,84.375017 109.3125,84.375 L 108.78125,84.375 z M 76.03125,84.46875 L 75.0625,84.71875 C 74.751126,84.79062 74.51141,84.955299 74.34375,85.21875 C 74.176089,85.458282 74.093749,85.705298 74.09375,85.96875 C 74.093746,86.112472 74.101047,86.202112 74.125,86.25 L 77.8125,99.6875 C 77.860398,99.855163 77.935439,100.06569 78.03125,100.28125 C 78.127054,100.49682 78.231285,100.68339 78.375,100.875 C 78.518706,101.04266 78.72193,101.20004 78.9375,101.34375 C 79.153061,101.46351 79.392776,101.53125 79.65625,101.53125 L 80.90625,101.53125 C 81.385272,101.53125 81.775072,101.35927 82.0625,101 C 82.349912,100.61677 82.536482,100.22698 82.65625,99.84375 L 84.3125,95.25 C 84.456201,94.84283 84.606279,94.385289 84.75,93.90625 C 84.8937,93.427227 84.990633,93.037428 85.0625,92.75 C 85.158294,92.462587 85.218738,92.297912 85.21875,92.25 L 85.25,92.25 C 85.249991,92.297916 85.271883,92.46259 85.34375,92.75 C 85.439541,93.037425 85.575028,93.427226 85.71875,93.90625 C 85.86245,94.385291 86.012527,94.842829 86.15625,95.25 L 87.8125,99.84375 C 87.932243,100.22698 88.118816,100.61678 88.40625,101 C 88.693657,101.35927 89.083452,101.53125 89.5625,101.53125 L 90.8125,101.53125 C 91.075947,101.53125 91.315667,101.46351 91.53125,101.34375 C 91.746798,101.20004 91.918771,101.04266 92.0625,100.875 C 92.206194,100.68338 92.341674,100.49682 92.4375,100.28125 C 92.533289,100.06569 92.608327,99.855163 92.65625,99.6875 L 96.34375,86.25 C 96.367678,86.202114 96.374977,86.112475 96.375,85.96875 C 96.374977,85.705295 96.292638,85.458282 96.125,85.21875 C 95.957319,84.955298 95.717598,84.790622 95.40625,84.71875 L 94.4375,84.46875 C 94.102154,84.372963 93.7801,84.440703 93.46875,84.65625 C 93.157356,84.847877 92.970787,85.102194 92.875,85.4375 L 91,92.53125 C 90.904176,92.938437 90.80724,93.478314 90.6875,94.125 C 90.591679,94.747746 90.470789,95.377264 90.375,96 C 90.279174,96.598794 90.235386,97.107424 90.1875,97.5625 C 90.139582,97.993635 90.079136,98.218753 90.03125,98.21875 C 89.887523,97.619961 89.737443,97.118634 89.59375,96.6875 C 89.473975,96.256378 89.362443,95.791538 89.21875,95.3125 C 89.075025,94.809525 88.924944,94.351983 88.78125,93.96875 L 87.4375,90.46875 C 87.317729,90.181338 87.145752,89.941625 86.90625,89.75 C 86.66672,89.558398 86.373858,89.468762 86.0625,89.46875 L 84.375,89.46875 C 84.063621,89.468764 83.802005,89.558399 83.5625,89.75 C 83.322971,89.941624 83.150998,90.181342 83.03125,90.46875 L 81.6875,93.96875 C 81.543786,94.351985 81.393701,94.809523 81.25,95.3125 C 81.106279,95.79154 80.987452,96.256376 80.84375,96.6875 C 80.723981,97.118636 80.603097,97.469883 80.53125,97.78125 C 80.459387,98.068671 80.422896,98.218753 80.375,98.21875 C 80.279183,97.332542 80.158299,96.598795 80.0625,96 C 79.966686,95.377262 79.87705,94.747749 79.78125,94.125 C 79.685439,93.478312 79.588502,92.938436 79.46875,92.53125 L 77.59375,85.4375 C 77.497942,85.102197 77.311367,84.84788 77,84.65625 C 76.688626,84.4407 76.366569,84.372961 76.03125,84.46875 z M 60.5625,84.5 C 59.939753,84.500019 59.363382,84.604251 58.8125,84.84375 C 58.285562,85.083283 57.813424,85.405339 57.40625,85.8125 C 56.99907,86.219695 56.677013,86.699128 56.4375,87.25 C 56.197981,87.776953 56.062498,88.377271 56.0625,89 L 56.0625,97.03125 C 56.062499,97.653996 56.197982,98.230366 56.4375,98.78125 C 56.677013,99.308187 56.999069,99.780324 57.40625,100.1875 C 57.813425,100.59468 58.28556,100.91673 58.8125,101.15625 C 59.363383,101.39577 59.939752,101.53125 60.5625,101.53125 L 66.40625,101.53125 C 67.02898,101.53125 67.629301,101.39577 68.15625,101.15625 C 68.707122,100.91674 69.186557,100.59468 69.59375,100.1875 C 70.000912,99.780325 70.322967,99.308188 70.5625,98.78125 C 70.802001,98.230366 70.906233,97.653996 70.90625,97.03125 L 70.90625,89 C 70.906233,88.377273 70.801999,87.776949 70.5625,87.25 C 70.322969,86.699131 70.000911,86.219693 69.59375,85.8125 C 69.186558,85.405341 68.707122,85.083283 68.15625,84.84375 C 67.6293,84.604252 67.028979,84.500017 66.40625,84.5 L 60.5625,84.5 z M 131.84375,84.5 C 131.221,84.500019 130.64463,84.604251 130.09375,84.84375 C 129.56681,85.083283 129.09467,85.405339 128.6875,85.8125 C 128.28032,86.219695 127.95826,86.699128 127.71875,87.25 C 127.47923,87.776953 127.375,88.377271 127.375,89 L 127.375,97.03125 C 127.375,97.653996 127.47923,98.230366 127.71875,98.78125 C 127.95826,99.308187 128.28032,99.780324 128.6875,100.1875 C 129.09467,100.59468 129.56681,100.91673 130.09375,101.15625 C 130.64463,101.39577 131.221,101.53125 131.84375,101.53125 L 137.71875,101.53125 C 138.34147,101.53125 138.91055,101.39577 139.4375,101.15625 C 139.98838,100.91674 140.46781,100.59468 140.875,100.1875 C 141.28216,99.780325 141.60422,99.308188 141.84375,98.78125 C 142.08324,98.230366 142.18748,97.653996 142.1875,97.03125 L 142.1875,89 C 142.18748,88.377273 142.08325,87.776949 141.84375,87.25 C 141.60421,86.699131 141.28216,86.219693 140.875,85.8125 C 140.46781,85.405341 139.98837,85.083283 139.4375,84.84375 C 138.91056,84.604252 138.34148,84.500017 137.71875,84.5 L 131.84375,84.5 z M 149.09375,84.5 C 148.71052,84.500019 148.38117,84.589654 148.09375,84.78125 C 147.83028,84.972879 147.71875,85.265742 147.71875,85.625 L 147.71875,87.8125 L 155.6875,87.8125 C 156.09466,87.812511 156.42402,87.969893 156.6875,88.28125 C 156.95095,88.56868 157.09374,88.88344 157.09375,89.21875 L 157.09375,91.875 C 157.09373,92.162426 156.96555,92.281259 156.75,92.28125 C 156.53442,92.281256 156.27281,92.198921 155.9375,92.03125 C 155.60216,91.839647 155.20507,91.653074 154.75,91.4375 C 154.31886,91.197992 153.83943,90.980172 153.3125,90.8125 C 152.78556,90.6209 152.21648,90.531261 151.59375,90.53125 L 151.0625,90.53125 C 149.29008,90.531258 147.9633,90.996099 147.125,91.90625 C 146.31065,92.816418 145.90625,93.954564 145.90625,95.34375 L 145.90625,96.8125 C 145.90625,98.201694 146.31064,99.371091 147.125,100.28125 C 147.96331,101.19141 149.29008,101.625 151.0625,101.625 L 151.59375,101.625 C 152.21649,101.625 152.78556,101.54266 153.3125,101.375 C 153.83943,101.18338 154.31886,101.00411 154.75,100.8125 C 155.20507,100.59694 155.60217,100.38641 155.9375,100.21875 C 156.2728,100.02714 156.53442,99.937502 156.75,99.9375 C 156.86974,99.937498 156.99793,99.983348 157.09375,100.03125 C 157.21349,100.0552 157.31043,100.13754 157.40625,100.28125 L 158.28125,101.53125 L 159.5,101.53125 C 159.97902,101.53125 160.30837,101.37387 160.5,101.0625 C 160.6916,100.75113 160.78123,100.45097 160.78125,100.1875 L 160.78125,88.65625 C 160.78124,88.105373 160.69889,87.596748 160.53125,87.09375 C 160.36357,86.590781 160.10196,86.133241 159.71875,85.75 C 159.35946,85.366791 158.88003,85.059331 158.28125,84.84375 C 157.70639,84.604252 157.00184,84.500017 156.1875,84.5 L 149.09375,84.5 z M 216.6875,84.5 C 216.06475,84.500019 215.48838,84.604251 214.9375,84.84375 C 214.41056,85.059332 213.93842,85.374089 213.53125,85.78125 C 213.12407,86.188444 212.80201,86.667878 212.5625,87.21875 C 212.32299,87.769654 212.1875,88.377271 212.1875,89 L 212.1875,97.03125 C 212.1875,97.653996 212.32298,98.230366 212.5625,98.78125 C 212.80202,99.332139 213.12407,99.811574 213.53125,100.21875 C 213.93842,100.62593 214.41056,100.97923 214.9375,101.21875 C 215.48838,101.43432 216.06475,101.53125 216.6875,101.53125 L 223.15625,101.53125 C 223.56341,101.53125 223.89277,101.43431 224.15625,101.21875 C 224.44365,100.97924 224.59374,100.62593 224.59375,100.21875 L 224.59375,98.21875 L 217.375,98.21875 C 216.96781,98.218751 216.63116,98.075971 216.34375,97.8125 C 216.05633,97.549035 215.90624,97.205085 215.90625,96.75 L 215.90625,94.40625 L 224.84375,94.40625 C 225.46648,94.406259 226.00635,94.212386 226.4375,93.78125 C 226.86861,93.350128 227.06248,92.810251 227.0625,92.1875 L 227.0625,89 C 227.06248,88.377273 226.95825,87.776949 226.71875,87.25 C 226.47922,86.699131 226.15716,86.219693 225.75,85.8125 C 225.3428,85.405341 224.86337,85.083283 224.3125,84.84375 C 223.78555,84.604252 223.21648,84.500017 222.59375,84.5 L 216.6875,84.5 z M 231.875,84.5 C 231.39596,84.500019 231.06661,84.657396 230.875,84.96875 C 230.68339,85.28014 230.59375,85.549048 230.59375,85.8125 L 230.59375,100.09375 C 230.59375,100.50093 230.70528,100.83758 230.96875,101.125 C 231.25617,101.38847 231.62407,101.53125 232.03125,101.53125 L 232.84375,101.53125 C 233.25092,101.53125 233.58028,101.38847 233.84375,101.125 C 234.13117,100.83758 234.28124,100.50093 234.28125,100.09375 L 234.28125,89.34375 C 234.28124,88.888682 234.43862,88.506182 234.75,88.21875 C 235.06136,87.931341 235.38342,87.812514 235.71875,87.8125 L 242.46875,87.8125 L 242.46875,85.78125 C 242.46873,85.37409 242.3572,85.059331 242.09375,84.84375 C 241.83027,84.604252 241.46966,84.500017 241.0625,84.5 L 237.9375,84.5 C 237.41055,84.500019 236.98427,84.582356 236.625,84.75 C 236.28967,84.917677 235.98951,85.096952 235.75,85.3125 C 235.51047,85.528082 235.31661,85.738604 235.125,85.90625 C 234.95733,86.07393 234.75411,86.156265 234.5625,86.15625 C 234.34693,86.156265 234.16766,86.020782 234,85.78125 L 233.09375,84.5 L 231.875,84.5 z M 248.46875,84.5 C 247.846,84.500019 247.26963,84.604251 246.71875,84.84375 C 246.19181,85.059332 245.71967,85.374089 245.3125,85.78125 C 244.90532,86.188444 244.58326,86.667878 244.34375,87.21875 C 244.10424,87.769654 244,88.377271 244,89 L 244,97.03125 C 244,97.653996 244.10423,98.230366 244.34375,98.78125 C 244.58327,99.332139 244.90532,99.811574 245.3125,100.21875 C 245.71967,100.62593 246.19181,100.97923 246.71875,101.21875 C 247.26963,101.43432 247.846,101.53125 248.46875,101.53125 L 254.9375,101.53125 C 255.34466,101.53125 255.67402,101.43431 255.9375,101.21875 C 256.2249,100.97924 256.37499,100.62593 256.375,100.21875 L 256.375,98.21875 L 249.15625,98.21875 C 248.74906,98.218751 248.41241,98.075971 248.125,97.8125 C 247.83758,97.549035 247.68749,97.205085 247.6875,96.75 L 247.6875,94.40625 L 256.625,94.40625 C 257.24773,94.406259 257.7876,94.212386 258.21875,93.78125 C 258.64986,93.350128 258.87498,92.810251 258.875,92.1875 L 258.875,89 C 258.87498,88.377273 258.7395,87.776949 258.5,87.25 C 258.26047,86.699131 257.93841,86.219693 257.53125,85.8125 C 257.12405,85.405341 256.64462,85.083283 256.09375,84.84375 C 255.5668,84.604252 254.99773,84.500017 254.375,84.5 L 248.46875,84.5 z M 42.21875,87.8125 L 46.46875,87.8125 C 46.923817,87.812511 47.313616,87.969893 47.625,88.28125 C 47.936357,88.592631 48.093737,88.951182 48.09375,89.40625 L 48.09375,96.59375 C 48.093736,97.048836 47.936358,97.438633 47.625,97.75 C 47.313615,98.061372 46.923819,98.218753 46.46875,98.21875 L 42.21875,98.21875 C 41.763662,98.218751 41.405114,98.061374 41.09375,97.75 C 40.782372,97.43863 40.624994,97.048835 40.625,96.59375 L 40.625,89.40625 C 40.624993,88.951183 40.782373,88.592634 41.09375,88.28125 C 41.405114,87.96989 41.763662,87.812514 42.21875,87.8125 z M 61.375,87.8125 L 65.59375,87.8125 C 66.048821,87.812511 66.438616,87.969893 66.75,88.28125 C 67.061356,88.592631 67.218737,88.951182 67.21875,89.40625 L 67.21875,96.59375 C 67.218735,97.048836 67.061358,97.438633 66.75,97.75 C 66.438615,98.061372 66.048819,98.218753 65.59375,98.21875 L 61.375,98.21875 C 60.919912,98.218751 60.561364,98.061374 60.25,97.75 C 59.938622,97.43863 59.781244,97.048835 59.78125,96.59375 L 59.78125,89.40625 C 59.781243,88.951183 59.938623,88.592634 60.25,88.28125 C 60.561364,87.96989 60.919912,87.812514 61.375,87.8125 z M 132.6875,87.8125 L 136.875,87.8125 C 137.33007,87.812511 137.71987,87.969893 138.03125,88.28125 C 138.34261,88.592631 138.49999,88.951182 138.5,89.40625 L 138.5,96.59375 C 138.49999,97.048836 138.34261,97.438633 138.03125,97.75 C 137.71987,98.061372 137.33007,98.218753 136.875,98.21875 L 132.6875,98.21875 C 132.23241,98.218751 131.84261,98.061374 131.53125,97.75 C 131.21987,97.43863 131.06249,97.048835 131.0625,96.59375 L 131.0625,89.40625 C 131.06249,88.951183 131.21987,88.592634 131.53125,88.28125 C 131.84261,87.96989 132.23241,87.812514 132.6875,87.8125 z M 170.4375,87.8125 L 174.6875,87.8125 C 175.14256,87.812511 175.50112,87.969893 175.8125,88.28125 C 176.12386,88.592631 176.28124,88.951182 176.28125,89.40625 L 176.28125,96.59375 C 176.28124,97.048836 176.12386,97.438633 175.8125,97.75 C 175.50112,98.061372 175.14257,98.218753 174.6875,98.21875 L 170.4375,98.21875 C 169.98241,98.218751 169.59261,98.061374 169.28125,97.75 C 168.96987,97.43863 168.81249,97.048835 168.8125,96.59375 L 168.8125,89.40625 C 168.81249,88.951183 168.96987,88.592634 169.28125,88.28125 C 169.59261,87.96989 169.98241,87.812514 170.4375,87.8125 z M 217.34375,87.8125 L 221.9375,87.8125 C 222.34467,87.812511 222.67402,87.931344 222.9375,88.21875 C 223.22491,88.482228 223.37499,88.842835 223.375,89.25 L 223.375,91.4375 L 215.90625,91.4375 L 215.90625,89.25 C 215.90624,88.842834 216.01778,88.482231 216.28125,88.21875 C 216.56866,87.931341 216.93657,87.812514 217.34375,87.8125 z M 249.125,87.8125 L 253.71875,87.8125 C 254.12592,87.812511 254.45527,87.931344 254.71875,88.21875 C 255.00616,88.482228 255.15624,88.842835 255.15625,89.25 L 255.15625,91.4375 L 247.6875,91.4375 L 247.6875,89.25 C 247.68749,88.842834 247.83028,88.482231 248.09375,88.21875 C 248.38116,87.931341 248.71782,87.812514 249.125,87.8125 z M 151.21875,93.9375 L 155.46875,93.9375 C 155.92383,93.937509 156.31362,94.094886 156.625,94.40625 C 156.93635,94.71763 157.09374,95.107426 157.09375,95.5625 L 157.09375,96.59375 C 157.09373,97.048836 156.93636,97.438633 156.625,97.75 C 156.31361,98.061372 155.92382,98.218753 155.46875,98.21875 L 151.21875,98.21875 C 150.76366,98.218751 150.40511,98.061374 150.09375,97.75 C 149.78237,97.43863 149.62499,97.048835 149.625,96.59375 L 149.625,95.5625 C 149.62499,95.107424 149.78237,94.717628 150.09375,94.40625 C 150.40511,94.094888 150.76366,93.937508 151.21875,93.9375 z M 264.53125,96.5 C 264.12408,96.500004 263.78742,96.650085 263.5,96.9375 C 263.23654,97.200971 263.09375,97.530327 263.09375,97.9375 L 263.09375,100.09375 C 263.09376,100.50093 263.23653,100.83758 263.5,101.125 C 263.78743,101.38847 264.12407,101.53125 264.53125,101.53125 L 265.34375,101.53125 C 265.75094,101.53125 266.11153,101.38847 266.375,101.125 C 266.66241,100.83758 266.78124,100.50093 266.78125,100.09375 L 266.78125,97.9375 C 266.78125,97.530327 266.66241,97.200972 266.375,96.9375 C 266.11153,96.650084 265.75092,96.500005 265.34375,96.5 L 264.53125,96.5 z"
       transform="translate(0,1)" />
    <text
       xml:space="preserve"
       style="font-size:35.92742538px;font-style:normal;font-variant:normal;font-weight:bold;font-stretch:normal;text-indent:0;text-align:center;text-decoration:none;line-height:100%;letter-spacing:normal;word-spacing:normal;text-transform:none;direction:ltr;block-progression:tb;writing-mode:lr-tb;text-anchor:middle;opacity:1;fill:#ffffff;fill-opacity:1;fill-rule:nonzero;stroke:none;stroke-width:1px;stroke-linecap:butt;stroke-linejoin:miter;marker:none;marker-start:none;marker-mid:none;marker-end:none;stroke-miterlimit:4;stroke-dasharray:none;stroke-dashoffset:0;stroke-opacity:1;visibility:visible;display:inline;overflow:visible;enable-background:accumulate;font-family:ChollaWideBoldOS;-inkscape-font-specification:ChollaWideBoldOS Bold"
       x="150.37134"
       y="101.52665"
       id="text6775"
       sodipodi:linespacing="100%"><tspan
         sodipodi:role="line"
         x="150.37134"
         y="101.52665"
         id="tspan5244">download here!</tspan></text>
  </g>
</svg>
