<?xml version="1.0" encoding="UTF-8" standalone="no"?>
<!-- Created with Inkscape (http://www.inkscape.org/) -->
<svg
   xmlns:dc="http://purl.org/dc/elements/1.1/"
   xmlns:cc="http://creativecommons.org/ns#"
   xmlns:rdf="http://www.w3.org/1999/02/22-rdf-syntax-ns#"
   xmlns:svg="http://www.w3.org/2000/svg"
   xmlns="http://www.w3.org/2000/svg"
   xmlns:xlink="http://www.w3.org/1999/xlink"
   xmlns:sodipodi="http://sodipodi.sourceforge.net/DTD/sodipodi-0.dtd"
   xmlns:inkscape="http://www.inkscape.org/namespaces/inkscape"
   width="468"
   height="60"
   id="svg2"
   sodipodi:version="0.32"
   inkscape:version="0.46"
   version="1.0"
   sodipodi:docname="getit-468x60.svg"
   inkscape:output_extension="org.inkscape.output.svg.inkscape">
  <defs
     id="defs4">
    <inkscape:perspective
       sodipodi:type="inkscape:persp3d"
       inkscape:vp_x="-50 : 600 : 1"
       inkscape:vp_y="0 : 1000 : 0"
       inkscape:vp_z="700 : 600 : 1"
       inkscape:persp3d-origin="300 : 400 : 1"
       id="perspective5358" />
    <linearGradient
       inkscape:collect="always"
       id="linearGradient7158">
      <stop
         style="stop-color:#27b800;stop-opacity:1"
         offset="0"
         id="stop7160" />
      <stop
         style="stop-color:#1b6306;stop-opacity:1"
         offset="1"
         id="stop7162" />
    </linearGradient>
    <radialGradient
       inkscape:collect="always"
       xlink:href="#linearGradient7158"
       id="radialGradient7164"
       cx="952.84875"
       cy="-480.80652"
       fx="1274.099"
       fy="-479.64099"
       r="400"
       gradientTransform="matrix(1.9980856e-3,-0.1164669,0.3556451,5.6332603e-4,486.52044,134.24355)"
       gradientUnits="userSpaceOnUse" />
    <linearGradient
       inkscape:collect="always"
       id="linearGradient9016">
      <stop
         style="stop-color:#24a701;stop-opacity:1;"
         offset="0"
         id="stop9018" />
      <stop
         style="stop-color:#24a701;stop-opacity:0;"
         offset="1"
         id="stop9020" />
    </linearGradient>
    <radialGradient
       inkscape:collect="always"
       xlink:href="#linearGradient9016"
       id="radialGradient9024"
       gradientUnits="userSpaceOnUse"
       gradientTransform="matrix(1.8476051,0,0,1.8476051,-84.760505,-84.760505)"
       cx="79.423729"
       cy="72.409096"
       fx="79.423729"
       fy="72.409096"
       r="69.84375" />
    <linearGradient
       inkscape:collect="always"
       id="linearGradient9026">
      <stop
         id="stop9030"
         offset="0"
         style="stop-color:#ffffff;stop-opacity:0;" />
      <stop
         id="stop9028"
         offset="1"
         style="stop-color:#ffffff;stop-opacity:1;" />
    </linearGradient>
    <radialGradient
       inkscape:collect="always"
       xlink:href="#linearGradient9026"
       id="radialGradient9032"
       cx="154.76555"
       cy="79.415726"
       fx="154.76555"
       fy="79.415726"
       r="69.938171"
       gradientUnits="userSpaceOnUse"
       gradientTransform="matrix(0.5575867,0,0,0.5575867,68.470323,35.134566)" />
    <linearGradient
       id="linearGradient9038"
       inkscape:collect="always">
      <stop
         style="stop-color:#24a701;stop-opacity:0;"
         offset="0"
         id="stop9042" />
      <stop
         style="stop-color:#24a701;stop-opacity:1;"
         offset="1"
         id="stop9040" />
    </linearGradient>
    <radialGradient
       inkscape:collect="always"
       xlink:href="#linearGradient9038"
       id="radialGradient9022"
       cx="79.423729"
       cy="72.409096"
       fx="79.423729"
       fy="72.409096"
       r="69.84375"
       gradientUnits="userSpaceOnUse"
       gradientTransform="matrix(1.8476051,0,0,1.8476051,-84.760505,-84.760505)" />
    <radialGradient
       inkscape:collect="always"
       xlink:href="#linearGradient7150"
       id="radialGradient8683"
       gradientUnits="userSpaceOnUse"
       gradientTransform="matrix(0.7435303,0,0,0.1539332,96.35885,425.14301)"
       cx="625.98718"
       cy="169.35002"
       fx="625.98718"
       fy="169.35002"
       r="408.5" />
    <linearGradient
       inkscape:collect="always"
       id="linearGradient7150">
      <stop
         style="stop-color:#ffffff;stop-opacity:1;"
         offset="0"
         id="stop7152" />
      <stop
         style="stop-color:#ffffff;stop-opacity:0;"
         offset="1"
         id="stop7154" />
    </linearGradient>
    <radialGradient
       inkscape:collect="always"
       xlink:href="#linearGradient7150"
       id="radialGradient7156"
       cx="364.41531"
       cy="208.24603"
       fx="364.41531"
       fy="208.24603"
       r="408.5"
       gradientTransform="matrix(1.6046904,0,0,0.2828371,-465.04882,474.60029)"
       gradientUnits="userSpaceOnUse" />
    <linearGradient
       inkscape:collect="always"
       id="linearGradient8721">
      <stop
         style="stop-color:#d7dcdd;stop-opacity:1;"
         offset="0"
         id="stop8723" />
      <stop
         style="stop-color:#ffffff;stop-opacity:1"
         offset="1"
         id="stop8725" />
    </linearGradient>
    <linearGradient
       id="linearGradient8783"
       inkscape:collect="always">
      <stop
         id="stop8785"
         offset="0"
         style="stop-color:#9eaaac;stop-opacity:1" />
      <stop
         id="stop8787"
         offset="1"
         style="stop-color:#ffffff;stop-opacity:1" />
    </linearGradient>
    <linearGradient
       inkscape:collect="always"
       xlink:href="#linearGradient8783"
       id="linearGradient8727"
       x1="401.30548"
       y1="500.9314"
       x2="401.30548"
       y2="463.56079"
       gradientUnits="userSpaceOnUse" />
    <filter
       inkscape:collect="always"
       id="filter8779"
       x="-0.021823626"
       width="1.0436473"
       y="-0.11597504"
       height="1.23195">
      <feGaussianBlur
         inkscape:collect="always"
         stdDeviation="2.2672686"
         id="feGaussianBlur8781" />
    </filter>
    <linearGradient
       inkscape:collect="always"
       id="linearGradient7132">
      <stop
         style="stop-color:#444d50;stop-opacity:1"
         offset="0"
         id="stop7134" />
      <stop
         id="stop7140"
         offset="0.87155616"
         style="stop-color:#262c2d;stop-opacity:1" />
      <stop
         style="stop-color:#3c4447;stop-opacity:1"
         offset="1"
         id="stop7136" />
    </linearGradient>
    <linearGradient
       inkscape:collect="always"
       xlink:href="#linearGradient7132"
       id="linearGradient7138"
       x1="472"
       y1="-47.512444"
       x2="472"
       y2="113.2215"
       gradientUnits="userSpaceOnUse"
       gradientTransform="translate(-72,421)" />
    <filter
       inkscape:collect="always"
       id="filter7144">
      <feGaussianBlur
         inkscape:collect="always"
         stdDeviation="2.4"
         id="feGaussianBlur7146" />
    </filter>
    <inkscape:perspective
       sodipodi:type="inkscape:persp3d"
       inkscape:vp_x="-50 : 600 : 1"
       inkscape:vp_y="0 : 1000 : 0"
       inkscape:vp_z="700 : 600 : 1"
       inkscape:persp3d-origin="300 : 400 : 1"
       id="perspective10" />
    <radialGradient
       inkscape:collect="always"
       xlink:href="#linearGradient9026"
       id="radialGradient5852"
       gradientUnits="userSpaceOnUse"
       gradientTransform="matrix(0.5575867,0,0,0.5575867,68.470323,35.134566)"
       cx="154.76555"
       cy="79.415726"
       fx="154.76555"
       fy="79.415726"
       r="69.938171" />
    <linearGradient
       inkscape:collect="always"
       xlink:href="#linearGradient8721"
       id="linearGradient5876"
       gradientUnits="userSpaceOnUse"
       x1="276.63681"
       y1="487.02036"
       x2="525.97412"
       y2="487.02036" />
    <linearGradient
       inkscape:collect="always"
       xlink:href="#linearGradient8721"
       id="linearGradient5878"
       gradientUnits="userSpaceOnUse"
       x1="276.63681"
       y1="487.02036"
       x2="525.97412"
       y2="487.02036" />
    <linearGradient
       inkscape:collect="always"
       xlink:href="#linearGradient8721"
       id="linearGradient5880"
       gradientUnits="userSpaceOnUse"
       x1="276.63681"
       y1="487.02036"
       x2="525.97412"
       y2="487.02036" />
    <linearGradient
       inkscape:collect="always"
       xlink:href="#linearGradient8721"
       id="linearGradient5882"
       gradientUnits="userSpaceOnUse"
       x1="276.63681"
       y1="487.02036"
       x2="525.97412"
       y2="487.02036" />
    <linearGradient
       inkscape:collect="always"
       xlink:href="#linearGradient8721"
       id="linearGradient5884"
       gradientUnits="userSpaceOnUse"
       x1="276.63681"
       y1="487.02036"
       x2="525.97412"
       y2="487.02036" />
    <linearGradient
       inkscape:collect="always"
       xlink:href="#linearGradient8721"
       id="linearGradient5886"
       gradientUnits="userSpaceOnUse"
       x1="276.63681"
       y1="487.02036"
       x2="525.97412"
       y2="487.02036" />
    <linearGradient
       inkscape:collect="always"
       xlink:href="#linearGradient8721"
       id="linearGradient5888"
       gradientUnits="userSpaceOnUse"
       x1="276.63681"
       y1="487.02036"
       x2="525.97412"
       y2="487.02036" />
    <linearGradient
       inkscape:collect="always"
       xlink:href="#linearGradient8721"
       id="linearGradient5890"
       gradientUnits="userSpaceOnUse"
       x1="276.63681"
       y1="487.02036"
       x2="525.97412"
       y2="487.02036" />
    <linearGradient
       inkscape:collect="always"
       xlink:href="#linearGradient8721"
       id="linearGradient5892"
       gradientUnits="userSpaceOnUse"
       x1="276.63681"
       y1="487.02036"
       x2="525.97412"
       y2="487.02036" />
    <linearGradient
       inkscape:collect="always"
       xlink:href="#linearGradient8783"
       id="linearGradient5894"
       gradientUnits="userSpaceOnUse"
       x1="401.30548"
       y1="500.9314"
       x2="401.30548"
       y2="463.56079" />
    <filter
       inkscape:collect="always"
       id="filter6764"
       x="-0.1087833"
       width="1.2175666"
       y="-0.37785858"
       height="1.7557172">
      <feGaussianBlur
         inkscape:collect="always"
         stdDeviation="1.3923695"
         id="feGaussianBlur6766" />
    </filter>
    <filter
       inkscape:collect="always"
       id="filter6047">
      <feGaussianBlur
         inkscape:collect="always"
         stdDeviation="0.8636605"
         id="feGaussianBlur6049" />
    </filter>
  </defs>
  <sodipodi:namedview
     id="base"
     pagecolor="#ffffff"
     bordercolor="#e5e5e5"
     borderopacity="1"
     gridtolerance="10000"
     guidetolerance="10"
     objecttolerance="10"
     inkscape:pageopacity="0.0"
     inkscape:pageshadow="2"
     inkscape:zoom="1"
     inkscape:cx="162.77042"
     inkscape:cy="57.522246"
     inkscape:document-units="px"
     inkscape:current-layer="layer1"
     showgrid="false"
     borderlayer="true"
     inkscape:showpageshadow="false"
     inkscape:window-width="1242"
     inkscape:window-height="962"
     inkscape:window-x="79"
     inkscape:window-y="126">
    <inkscape:grid
       type="xygrid"
       id="grid6773"
       enabled="true"
       visible="true" />
  </sodipodi:namedview>
  <metadata
     id="metadata7">
    <rdf:RDF>
      <cc:Work
         rdf:about="">
        <dc:format>image/svg+xml</dc:format>
        <dc:type
           rdf:resource="http://purl.org/dc/dcmitype/StillImage" />
        <dc:title />
        <dc:date />
        <dc:creator>
          <cc:Agent>
            <dc:title />
          </cc:Agent>
        </dc:creator>
        <dc:rights>
          <cc:Agent>
            <dc:title />
          </cc:Agent>
        </dc:rights>
        <dc:publisher>
          <cc:Agent>
            <dc:title />
          </cc:Agent>
        </dc:publisher>
        <dc:identifier />
        <dc:source />
        <dc:relation />
        <dc:language />
        <dc:subject>
          <rdf:Bag />
        </dc:subject>
        <dc:coverage />
        <dc:description />
        <dc:contributor>
          <cc:Agent>
            <dc:title />
          </cc:Agent>
        </dc:contributor>
        <cc:license
           rdf:resource="" />
      </cc:Work>
    </rdf:RDF>
  </metadata>
  <g
     inkscape:label="Layer 1"
     inkscape:groupmode="layer"
     id="layer1">
    <rect
       style="opacity:1;fill:url(#radialGradient7164);fill-opacity:1;fill-rule:evenodd;stroke:none;stroke-width:1;stroke-linecap:butt;stroke-linejoin:miter;marker:none;marker-start:none;marker-mid:none;marker-end:none;stroke-miterlimit:4;stroke-dasharray:none;stroke-dashoffset:0;stroke-opacity:1;visibility:visible;display:inline;overflow:visible;filter:url(#filter9012);enable-background:accumulate"
       id="rect5337"
       width="541.09558"
       height="222"
       x="-26.994793"
       y="-39" />
    <g
       id="g9001"
       inkscape:label="Layer 1"
       transform="matrix(1.2219239,0,0,1.2219239,61.979479,-97.69239)"
       style="opacity:0.10416667;fill:url(#radialGradient9022);fill-opacity:1;stroke:url(#radialGradient9032);stroke-width:0.81838149;stroke-miterlimit:4;stroke-dasharray:none;stroke-opacity:1;filter:url(#filter9012)">
      <path
         id="path2445"
         d="M 100,30.15625 C 61.42932,30.15625 30.15625,61.425758 30.15625,100 C 30.15625,138.57424 61.429322,169.84375 100,169.84375 C 138.57068,169.84375 169.84374,138.57424 169.84375,100 C 169.84375,61.42576 138.57068,30.15625 100,30.15625 z M 100.33443,39.828902 C 133.56795,39.828902 160.53125,66.770045 160.53125,100 C 160.53125,133.23353 133.56439,160.1711 100.33443,160.1711 C 82.389609,160.1711 66.287227,152.30637 55.263985,139.84824 C 59.796476,136.33049 67.379614,137.1887 76.71875,138.25328 C 81.194275,138.76243 86.296203,139.34487 91.562155,139.46236 C 106.27405,139.54781 122.10349,136.86276 131.87345,132.59375 C 138.18974,129.82369 142.2338,127.99948 144.76174,125.69941 C 145.67323,124.95171 146.15189,123.70262 146.63968,122.4066 L 146.9741,121.53194 C 147.38356,120.48516 147.97116,118.23268 148.23463,117.00432 C 148.35213,116.46668 148.4098,115.88852 148.02883,115.58943 L 146.6654,115.84669 C 142.37858,118.41735 131.66827,123.31339 121.63484,123.51278 C 109.20165,123.77269 84.142747,110.99635 81.529351,109.64693 L 81.272099,109.33823 C 80.645455,107.84282 76.895331,98.94015 76.101347,97.067334 C 94.138736,108.9451 109.09321,115.51941 120.55439,116.54126 C 133.29735,117.6735 143.23739,110.71627 147.4886,107.74327 C 148.3182,107.17715 148.95227,106.73322 149.21219,106.63709 L 149.49517,106.17403 C 148.79019,101.69494 142.10444,80.020513 137.06992,74.81509 C 135.67421,73.387338 134.56456,71.99784 132.31077,70.673343 C 114.08824,60.052429 70.821318,53.655843 68.795407,53.360325 L 68.460981,53.463225 L 68.332355,53.746202 C 68.332355,53.746202 68.170081,62.730623 68.152279,63.727555 C 66.667557,63.236211 62.063794,61.728958 55.469786,59.920235 C 64.073519,49.274391 77.258819,39.828903 100.33443,39.828902 z M 116.23256,71.676623 C 116.53961,71.672015 116.84957,71.666386 117.15867,71.676623 C 127.36656,72.043352 135.38655,80.64108 135.03764,90.841851 C 134.85605,95.776676 132.77552,100.3362 129.17231,103.70442 C 125.55841,107.09044 120.86144,108.85532 115.89814,108.6951 C 105.70804,108.31413 97.68804,99.716403 98.019164,89.529869 C 98.193628,84.587921 100.28565,79.999105 103.91022,76.641575 C 107.2949,73.467184 111.62686,71.745742 116.23256,71.676623 z M 115.74378,77.130352 C 112.77085,77.311095 109.96536,78.518224 107.76899,80.577521 C 105.26598,82.927436 103.78906,86.109053 103.67869,89.555594 C 103.4437,96.676553 109.01582,102.66919 116.12966,102.93267 C 119.58688,103.03948 122.86633,101.82829 125.39071,99.485497 C 127.90797,97.124898 129.3742,93.914001 129.48101,90.481699 C 129.71956,83.350056 124.12172,77.379586 117.00432,77.130352 C 116.5735,77.11433 116.16849,77.104532 115.74378,77.130352 z M 119.1395,83.587362 C 122.30121,83.587362 124.85049,85.305483 124.85048,87.420407 C 124.85048,89.524655 122.30121,91.253451 119.1395,91.253453 C 115.96711,91.253453 113.4028,89.521088 113.4028,87.420407 C 113.4028,85.305485 115.96711,83.587364 119.1395,83.587362 z"
         style="font-size:20.48839951px;fill:url(#radialGradient9024);fill-opacity:1;fill-rule:evenodd;stroke:url(#radialGradient5852);stroke-width:0.81838149;stroke-miterlimit:4;stroke-dasharray:none;stroke-opacity:1;font-family:TrebuchetMS-Bold" />
    </g>
    <g
       style="opacity:1"
       id="g8789"
       transform="translate(-582.32813,-475)">
      <rect
         style="opacity:0.5625;fill:#000000;fill-opacity:1;fill-rule:evenodd;stroke:none;stroke-width:1;stroke-linecap:butt;stroke-linejoin:miter;marker:none;marker-start:none;marker-mid:none;marker-end:none;stroke-miterlimit:4;stroke-dasharray:none;stroke-dashoffset:0;stroke-opacity:1;visibility:visible;display:inline;overflow:visible;filter:url(#filter7144);enable-background:accumulate"
         id="rect7142"
         width="843"
         height="117"
         x="-88"
         y="413"
         rx="16"
         ry="16" />
      <rect
         y="410"
         x="-88"
         height="117"
         width="843"
         id="rect7130"
         style="opacity:1;fill:url(#linearGradient7138);fill-opacity:1;fill-rule:evenodd;stroke:none;stroke-width:1;stroke-linecap:butt;stroke-linejoin:miter;marker:none;marker-start:none;marker-mid:none;marker-end:none;stroke-miterlimit:4;stroke-dasharray:none;stroke-dashoffset:0;stroke-opacity:1;visibility:visible;display:inline;overflow:visible;enable-background:accumulate"
         rx="14"
         ry="14" />
      <g
         id="g5854"
         transform="translate(-73,11)">
        <g
           transform="matrix(0.3796416,0,0,0.3796416,568.43703,307.17325)"
           id="g8747"
           style="fill:#000000;fill-opacity:1;display:inline;filter:url(#filter8779)">
          <path
             d="M 525.54912,468.81976 L 525.38699,468.81976 C 525.19961,468.81976 525.03715,468.6573 525.03715,468.46991 L 525.03715,465.95923 L 524.48744,466.79612 C 524.42506,466.88343 524.31251,466.92083 524.21273,466.92083 L 524.15005,466.92083 C 524.05027,466.92083 523.93771,466.88343 523.87536,466.79612 L 523.31315,465.95923 L 523.31315,468.46991 C 523.31315,468.6573 523.15069,468.81976 522.95083,468.81976 L 522.7887,468.81976 C 522.60132,468.81976 522.43886,468.6573 522.43886,468.46991 L 522.43886,465.47188 L 520.75226,465.47188 L 520.75226,468.46991 C 520.75226,468.6573 520.57732,468.81976 520.37779,468.81976 L 520.22781,468.81976 C 520.0404,468.81976 519.87797,468.6573 519.87797,468.46991 L 519.87797,465.47188 L 518.61637,465.47188 C 518.42899,465.47188 518.279,465.34681 518.279,465.14725 L 518.279,464.97235 C 518.279,464.77249 518.42899,464.64743 518.61637,464.64743 L 523.03843,464.64743 C 523.21337,464.64743 523.32563,464.70981 523.38831,464.80989 L 524.2252,466.07148 L 525.0621,464.80989 C 525.12445,464.72228 525.22453,464.64743 525.41194,464.64743 L 525.97415,464.64743 L 525.97415,468.49487 C 525.97415,468.68225 525.79921,468.84471 525.59935,468.84471"
             id="path8749"
             style="fill:#000000;fill-opacity:1;stroke:none" />
          <path
             d="M 380.95621,463.5608 C 374.91023,463.5608 371.56235,468.68225 371.56235,472.22999 L 371.56235,476.77712 C 371.56235,481.9862 375.82195,485.22153 379.78195,485.22153 L 393.64778,485.22153 C 395.38422,485.22153 395.74654,486.35806 395.74654,487.31999 L 395.74654,490.25568 C 395.74654,490.56779 395.69667,493.39122 393.64778,493.39122 L 374.72285,493.39122 C 372.84887,493.39122 371.48752,494.69022 371.48752,496.47656 L 371.48752,497.28854 C 371.48752,499.06241 372.83639,500.37421 374.72285,500.37421 L 394.68483,500.37421 C 399.89392,500.37421 403.26675,496.75128 403.26675,491.13 L 403.26675,486.22085 C 403.26675,480.94912 399.46925,478.58842 395.70914,478.58842 L 382.06812,478.58842 C 380.00676,478.58842 379.08256,477.06428 379.08256,475.96517 L 379.08256,473.26677 C 379.08256,471.55558 380.2191,470.58118 382.21778,470.58118 L 397.33303,470.58118 C 399.18176,470.58118 400.56835,469.25693 400.56835,467.49551 L 400.56835,466.68357 C 400.56835,464.93462 399.1568,463.5982 397.27068,463.5982 L 380.98116,463.5982"
             id="path8751"
             style="fill:#000000;fill-opacity:1;stroke:none" />
          <path
             d="M 437.70666,463.5608 C 435.92031,463.5608 434.47133,465.00978 434.47133,466.79612 L 434.47133,490.03086 C 434.47133,491.87956 432.9597,493.37875 431.12345,493.37875 L 420.58025,493.37875 C 418.73155,493.37875 417.23233,491.87956 417.23233,490.03086 L 417.23233,466.79612 C 417.23233,465.00978 415.79586,463.5608 413.99704,463.5608 L 412.97273,463.5608 C 411.17391,463.5608 409.7374,464.98482 409.7374,466.79612 L 409.7374,490.91763 C 409.7374,496.52647 414.14702,500.59899 420.2304,500.59899 L 431.49824,500.59899 C 437.58162,500.59899 441.99121,496.52647 441.99121,490.91763 L 441.99121,466.79612 C 441.99121,464.98482 440.56722,463.5608 438.75592,463.5608 L 437.73161,463.5608"
             id="path8753"
             style="fill:#000000;fill-opacity:1;stroke:none" />
          <path
             d="M 457.90593,463.5608 C 451.85998,463.5608 448.5121,468.68225 448.5121,472.22999 L 448.5121,476.77712 C 448.5121,481.9862 452.78418,485.22153 456.73167,485.22153 L 470.5975,485.22153 C 472.33397,485.22153 472.70877,486.35806 472.70877,487.31999 L 472.70877,490.25568 C 472.70877,490.56779 472.64641,493.39122 470.5975,493.39122 L 451.6726,493.39122 C 449.79862,493.39122 448.43727,494.69022 448.43727,496.47656 L 448.43727,497.28854 C 448.43727,499.06241 449.79862,500.37421 451.6726,500.37421 L 471.62211,500.37421 C 476.84367,500.37421 480.2037,496.75128 480.2037,491.13 L 480.2037,486.22085 C 480.2037,480.94912 476.419,478.58842 472.64641,478.58842 L 459.00507,478.58842 C 456.94403,478.58842 456.01983,477.06428 456.01983,475.96517 L 456.01983,473.26677 C 456.01983,471.55558 457.15637,470.58118 459.14257,470.58118 L 474.25782,470.58118 C 476.09408,470.58118 477.49318,469.25693 477.49318,467.49551 L 477.49318,466.68357 C 477.49318,464.93462 476.0816,463.5982 474.1827,463.5982 L 457.90593,463.5982"
             id="path8755"
             style="fill:#000000;fill-opacity:1;stroke:none" />
          <path
             d="M 489.79745,463.5608 C 488.0114,463.5608 486.63725,464.88471 486.63725,466.64614 L 486.63725,497.28854 C 486.63725,499.03745 487.9612,500.37421 489.7351,500.37421 L 514.15658,500.37421 C 516.03056,500.37421 517.39223,499.07488 517.39223,497.28854 L 517.39223,496.47656 C 517.39223,494.70269 516.04303,493.39122 514.15658,493.39122 C 514.15658,493.39122 495.05674,493.39122 494.15716,493.39122 C 494.15716,492.59175 494.15716,486.38331 494.15716,485.58385 C 495.05674,485.58385 508.81031,485.58385 508.81031,485.58385 C 510.68396,485.58385 512.04564,484.28452 512.04564,482.4857 L 512.04564,481.68623 C 512.04564,479.89989 510.68396,478.58842 508.81031,478.58842 C 508.81031,478.58842 495.05674,478.58842 494.15716,478.58842 C 494.15716,477.78895 494.15716,471.36817 494.15716,470.56871 C 495.05674,470.56871 513.14474,470.56871 513.14474,470.56871 C 515.01875,470.56871 516.3804,469.26938 516.3804,467.48303 L 516.3804,466.67109 C 516.3804,464.88471 515.01875,463.58575 513.14474,463.58575 L 489.81025,463.58575"
             id="path8757"
             style="fill:#000000;fill-opacity:1;stroke:none" />
          <path
             d="M 282.17071,478.13846 C 279.1227,478.13846 276.63682,480.51197 276.63682,483.44763 L 276.63682,495.00266 C 276.63682,497.97575 279.03525,500.39913 281.98335,500.39913 L 289.45345,500.39913 C 292.40152,500.39913 294.81243,497.97575 294.81243,495.00266 L 294.81243,483.44763 C 294.81243,480.52445 292.32658,478.13846 289.27854,478.13846 L 282.17071,478.13846 z M 280.55927,494.55271 L 280.55927,484.00984 C 280.55927,482.77289 281.5711,481.76106 282.8078,481.76106 L 288.629,481.76106 C 289.84072,481.76106 290.87751,482.78567 290.87751,484.00984 L 290.87751,494.55271 C 290.87751,495.78968 289.86568,496.80148 288.629,496.80148 L 282.75781,496.80148 C 281.52113,496.80148 280.55927,495.8146 280.55927,494.55271"
             id="path8759"
             style="fill:#000000;fill-opacity:1;stroke:none" />
          <path
             d="M 311.75149,478.00128 C 309.59034,478.00128 307.97884,478.77583 306.66719,479.40036 C 305.88023,479.77485 305.19317,480.09975 304.65604,480.09975 C 304.43119,480.09975 304.2188,479.99997 304.10636,479.82506 L 303.61919,478.87558 C 303.50676,478.62584 303.00708,478.13846 302.38252,478.13846 L 301.658,478.13846 C 300.95843,478.13846 300.38381,478.76335 300.38381,479.55001 L 300.38381,508.84354 C 300.38381,509.75526 301.09585,510.4799 302.02026,510.4799 L 302.65732,510.4799 C 303.55675,510.4799 304.29378,509.74279 304.29378,508.84354 L 304.29378,499.12476 C 304.29378,498.83759 304.48113,498.53763 304.65604,498.53763 C 305.19317,498.53763 305.88023,498.83759 306.6797,499.21239 C 307.97884,499.79952 309.60282,500.54878 311.76396,500.54878 L 312.4384,500.54878 C 316.24841,500.54878 318.62189,498.3755 318.62189,494.87763 L 318.62189,483.69739 C 318.62189,480.24973 316.1985,478.01376 312.4384,478.01376 L 311.75149,478.01376 L 311.75149,478.01376 L 311.75149,478.00128 z M 304.28127,494.3279 L 304.28127,484.24712 C 304.28127,482.86053 305.36808,481.77354 306.75465,481.77354 L 312.20111,481.77354 C 313.58774,481.77354 314.67437,482.86053 314.67437,484.24712 L 314.67437,494.3279 C 314.67437,495.68957 313.57526,496.80148 312.20111,496.80148 L 306.75465,496.80148 C 305.39306,496.80148 304.28127,495.68957 304.28127,494.3279"
             id="path8761"
             style="fill:#000000;fill-opacity:1;stroke:none" />
          <path
             d="M 329.68954,478.13846 C 326.6416,478.13846 324.15586,480.51197 324.15586,483.44763 L 324.15586,494.91503 C 324.15586,497.88814 326.56677,500.41161 329.41482,500.41161 L 337.12245,500.41161 C 338.07157,500.41161 338.75881,499.76179 338.75881,498.86255 L 338.75881,498.36269 C 338.75881,497.46344 338.07157,496.81396 337.12245,496.81396 L 330.80145,496.81396 C 329.02758,496.81396 328.09058,495.95181 328.09058,494.29047 C 328.09058,494.29047 328.09058,491.40502 328.09058,490.94259 C 328.60288,490.94259 339.5084,490.94259 339.5084,490.94259 C 341.33218,490.94259 342.43128,489.81853 342.43128,487.9196 L 342.43128,483.47261 C 342.43128,480.54937 339.94555,478.16374 336.89764,478.16374 L 329.70231,478.16374 L 329.68954,478.13846 z M 328.0781,483.95963 C 328.0781,482.73546 329.04003,481.76106 330.27667,481.76106 L 336.28522,481.76106 C 337.52217,481.76106 338.48379,482.72299 338.48379,483.95963 C 338.48379,483.95963 338.48379,487.07023 338.48379,487.53235 C 337.99674,487.53235 328.56548,487.53235 328.0781,487.53235 C 328.0781,487.07023 328.0781,483.95963 328.0781,483.95963"
             id="path8763"
             style="fill:#000000;fill-opacity:1;stroke:none" />
          <path
             d="M 358.32108,478.00128 C 356.17241,478.00128 354.5485,478.76335 353.2492,479.38791 C 352.43723,479.76238 351.73784,480.09975 351.17566,480.09975 C 350.9259,480.09975 350.82582,480.07479 350.63841,479.73743 L 350.18878,478.91301 C 349.93902,478.40103 349.50187,478.13846 348.90226,478.13846 L 348.26493,478.13846 C 347.50319,478.13846 346.95346,478.72559 346.95346,479.55001 L 346.95346,498.76244 C 346.95346,499.67449 347.6778,500.41161 348.58982,500.41161 L 349.22685,500.41161 C 350.12643,500.41161 350.86322,499.67449 350.86322,498.76244 L 350.86322,484.22217 C 350.86322,482.86053 351.97513,481.74858 353.3368,481.74858 L 358.78318,481.74858 C 360.14485,481.74858 361.25644,482.86053 361.25644,484.22217 L 361.25644,498.76244 C 361.25644,499.67449 361.98107,500.41161 362.89313,500.41161 L 363.53016,500.41161 C 364.42941,500.41161 365.16653,499.67449 365.16653,498.76244 L 365.16653,483.68492 C 365.16653,480.23725 362.74314,478.00128 358.98304,478.00128 L 358.29613,478.00128"
             id="path8765"
             style="fill:#000000;fill-opacity:1;stroke:none" />
        </g>
        <g
           style="fill:url(#linearGradient5894);fill-opacity:1;display:inline"
           id="g5501"
           transform="matrix(0.3796416,0,0,0.3796416,568.43703,305.17325)">
          <path
             style="fill:url(#linearGradient5876);fill-opacity:1;stroke:none"
             id="path2095"
             d="M 525.54912,468.81976 L 525.38699,468.81976 C 525.19961,468.81976 525.03715,468.6573 525.03715,468.46991 L 525.03715,465.95923 L 524.48744,466.79612 C 524.42506,466.88343 524.31251,466.92083 524.21273,466.92083 L 524.15005,466.92083 C 524.05027,466.92083 523.93771,466.88343 523.87536,466.79612 L 523.31315,465.95923 L 523.31315,468.46991 C 523.31315,468.6573 523.15069,468.81976 522.95083,468.81976 L 522.7887,468.81976 C 522.60132,468.81976 522.43886,468.6573 522.43886,468.46991 L 522.43886,465.47188 L 520.75226,465.47188 L 520.75226,468.46991 C 520.75226,468.6573 520.57732,468.81976 520.37779,468.81976 L 520.22781,468.81976 C 520.0404,468.81976 519.87797,468.6573 519.87797,468.46991 L 519.87797,465.47188 L 518.61637,465.47188 C 518.42899,465.47188 518.279,465.34681 518.279,465.14725 L 518.279,464.97235 C 518.279,464.77249 518.42899,464.64743 518.61637,464.64743 L 523.03843,464.64743 C 523.21337,464.64743 523.32563,464.70981 523.38831,464.80989 L 524.2252,466.07148 L 525.0621,464.80989 C 525.12445,464.72228 525.22453,464.64743 525.41194,464.64743 L 525.97415,464.64743 L 525.97415,468.49487 C 525.97415,468.68225 525.79921,468.84471 525.59935,468.84471" />
          <path
             style="fill:url(#linearGradient5878);fill-opacity:1;stroke:none"
             id="path2097"
             d="M 380.95621,463.5608 C 374.91023,463.5608 371.56235,468.68225 371.56235,472.22999 L 371.56235,476.77712 C 371.56235,481.9862 375.82195,485.22153 379.78195,485.22153 L 393.64778,485.22153 C 395.38422,485.22153 395.74654,486.35806 395.74654,487.31999 L 395.74654,490.25568 C 395.74654,490.56779 395.69667,493.39122 393.64778,493.39122 L 374.72285,493.39122 C 372.84887,493.39122 371.48752,494.69022 371.48752,496.47656 L 371.48752,497.28854 C 371.48752,499.06241 372.83639,500.37421 374.72285,500.37421 L 394.68483,500.37421 C 399.89392,500.37421 403.26675,496.75128 403.26675,491.13 L 403.26675,486.22085 C 403.26675,480.94912 399.46925,478.58842 395.70914,478.58842 L 382.06812,478.58842 C 380.00676,478.58842 379.08256,477.06428 379.08256,475.96517 L 379.08256,473.26677 C 379.08256,471.55558 380.2191,470.58118 382.21778,470.58118 L 397.33303,470.58118 C 399.18176,470.58118 400.56835,469.25693 400.56835,467.49551 L 400.56835,466.68357 C 400.56835,464.93462 399.1568,463.5982 397.27068,463.5982 L 380.98116,463.5982" />
          <path
             style="fill:url(#linearGradient5880);fill-opacity:1;stroke:none"
             id="path2099"
             d="M 437.70666,463.5608 C 435.92031,463.5608 434.47133,465.00978 434.47133,466.79612 L 434.47133,490.03086 C 434.47133,491.87956 432.9597,493.37875 431.12345,493.37875 L 420.58025,493.37875 C 418.73155,493.37875 417.23233,491.87956 417.23233,490.03086 L 417.23233,466.79612 C 417.23233,465.00978 415.79586,463.5608 413.99704,463.5608 L 412.97273,463.5608 C 411.17391,463.5608 409.7374,464.98482 409.7374,466.79612 L 409.7374,490.91763 C 409.7374,496.52647 414.14702,500.59899 420.2304,500.59899 L 431.49824,500.59899 C 437.58162,500.59899 441.99121,496.52647 441.99121,490.91763 L 441.99121,466.79612 C 441.99121,464.98482 440.56722,463.5608 438.75592,463.5608 L 437.73161,463.5608" />
          <path
             style="fill:url(#linearGradient5882);fill-opacity:1;stroke:none"
             id="path2101"
             d="M 457.90593,463.5608 C 451.85998,463.5608 448.5121,468.68225 448.5121,472.22999 L 448.5121,476.77712 C 448.5121,481.9862 452.78418,485.22153 456.73167,485.22153 L 470.5975,485.22153 C 472.33397,485.22153 472.70877,486.35806 472.70877,487.31999 L 472.70877,490.25568 C 472.70877,490.56779 472.64641,493.39122 470.5975,493.39122 L 451.6726,493.39122 C 449.79862,493.39122 448.43727,494.69022 448.43727,496.47656 L 448.43727,497.28854 C 448.43727,499.06241 449.79862,500.37421 451.6726,500.37421 L 471.62211,500.37421 C 476.84367,500.37421 480.2037,496.75128 480.2037,491.13 L 480.2037,486.22085 C 480.2037,480.94912 476.419,478.58842 472.64641,478.58842 L 459.00507,478.58842 C 456.94403,478.58842 456.01983,477.06428 456.01983,475.96517 L 456.01983,473.26677 C 456.01983,471.55558 457.15637,470.58118 459.14257,470.58118 L 474.25782,470.58118 C 476.09408,470.58118 477.49318,469.25693 477.49318,467.49551 L 477.49318,466.68357 C 477.49318,464.93462 476.0816,463.5982 474.1827,463.5982 L 457.90593,463.5982" />
          <path
             style="fill:url(#linearGradient5884);fill-opacity:1;stroke:none"
             id="path2103"
             d="M 489.79745,463.5608 C 488.0114,463.5608 486.63725,464.88471 486.63725,466.64614 L 486.63725,497.28854 C 486.63725,499.03745 487.9612,500.37421 489.7351,500.37421 L 514.15658,500.37421 C 516.03056,500.37421 517.39223,499.07488 517.39223,497.28854 L 517.39223,496.47656 C 517.39223,494.70269 516.04303,493.39122 514.15658,493.39122 C 514.15658,493.39122 495.05674,493.39122 494.15716,493.39122 C 494.15716,492.59175 494.15716,486.38331 494.15716,485.58385 C 495.05674,485.58385 508.81031,485.58385 508.81031,485.58385 C 510.68396,485.58385 512.04564,484.28452 512.04564,482.4857 L 512.04564,481.68623 C 512.04564,479.89989 510.68396,478.58842 508.81031,478.58842 C 508.81031,478.58842 495.05674,478.58842 494.15716,478.58842 C 494.15716,477.78895 494.15716,471.36817 494.15716,470.56871 C 495.05674,470.56871 513.14474,470.56871 513.14474,470.56871 C 515.01875,470.56871 516.3804,469.26938 516.3804,467.48303 L 516.3804,466.67109 C 516.3804,464.88471 515.01875,463.58575 513.14474,463.58575 L 489.81025,463.58575" />
          <path
             style="fill:url(#linearGradient5886);fill-opacity:1;stroke:none"
             id="path2105"
             d="M 282.17071,478.13846 C 279.1227,478.13846 276.63682,480.51197 276.63682,483.44763 L 276.63682,495.00266 C 276.63682,497.97575 279.03525,500.39913 281.98335,500.39913 L 289.45345,500.39913 C 292.40152,500.39913 294.81243,497.97575 294.81243,495.00266 L 294.81243,483.44763 C 294.81243,480.52445 292.32658,478.13846 289.27854,478.13846 L 282.17071,478.13846 z M 280.55927,494.55271 L 280.55927,484.00984 C 280.55927,482.77289 281.5711,481.76106 282.8078,481.76106 L 288.629,481.76106 C 289.84072,481.76106 290.87751,482.78567 290.87751,484.00984 L 290.87751,494.55271 C 290.87751,495.78968 289.86568,496.80148 288.629,496.80148 L 282.75781,496.80148 C 281.52113,496.80148 280.55927,495.8146 280.55927,494.55271" />
          <path
             style="fill:url(#linearGradient5888);fill-opacity:1;stroke:none"
             id="path2107"
             d="M 311.75149,478.00128 C 309.59034,478.00128 307.97884,478.77583 306.66719,479.40036 C 305.88023,479.77485 305.19317,480.09975 304.65604,480.09975 C 304.43119,480.09975 304.2188,479.99997 304.10636,479.82506 L 303.61919,478.87558 C 303.50676,478.62584 303.00708,478.13846 302.38252,478.13846 L 301.658,478.13846 C 300.95843,478.13846 300.38381,478.76335 300.38381,479.55001 L 300.38381,508.84354 C 300.38381,509.75526 301.09585,510.4799 302.02026,510.4799 L 302.65732,510.4799 C 303.55675,510.4799 304.29378,509.74279 304.29378,508.84354 L 304.29378,499.12476 C 304.29378,498.83759 304.48113,498.53763 304.65604,498.53763 C 305.19317,498.53763 305.88023,498.83759 306.6797,499.21239 C 307.97884,499.79952 309.60282,500.54878 311.76396,500.54878 L 312.4384,500.54878 C 316.24841,500.54878 318.62189,498.3755 318.62189,494.87763 L 318.62189,483.69739 C 318.62189,480.24973 316.1985,478.01376 312.4384,478.01376 L 311.75149,478.01376 L 311.75149,478.01376 L 311.75149,478.00128 z M 304.28127,494.3279 L 304.28127,484.24712 C 304.28127,482.86053 305.36808,481.77354 306.75465,481.77354 L 312.20111,481.77354 C 313.58774,481.77354 314.67437,482.86053 314.67437,484.24712 L 314.67437,494.3279 C 314.67437,495.68957 313.57526,496.80148 312.20111,496.80148 L 306.75465,496.80148 C 305.39306,496.80148 304.28127,495.68957 304.28127,494.3279" />
          <path
             style="fill:url(#linearGradient5890);fill-opacity:1;stroke:none"
             id="path2109"
             d="M 329.68954,478.13846 C 326.6416,478.13846 324.15586,480.51197 324.15586,483.44763 L 324.15586,494.91503 C 324.15586,497.88814 326.56677,500.41161 329.41482,500.41161 L 337.12245,500.41161 C 338.07157,500.41161 338.75881,499.76179 338.75881,498.86255 L 338.75881,498.36269 C 338.75881,497.46344 338.07157,496.81396 337.12245,496.81396 L 330.80145,496.81396 C 329.02758,496.81396 328.09058,495.95181 328.09058,494.29047 C 328.09058,494.29047 328.09058,491.40502 328.09058,490.94259 C 328.60288,490.94259 339.5084,490.94259 339.5084,490.94259 C 341.33218,490.94259 342.43128,489.81853 342.43128,487.9196 L 342.43128,483.47261 C 342.43128,480.54937 339.94555,478.16374 336.89764,478.16374 L 329.70231,478.16374 L 329.68954,478.13846 z M 328.0781,483.95963 C 328.0781,482.73546 329.04003,481.76106 330.27667,481.76106 L 336.28522,481.76106 C 337.52217,481.76106 338.48379,482.72299 338.48379,483.95963 C 338.48379,483.95963 338.48379,487.07023 338.48379,487.53235 C 337.99674,487.53235 328.56548,487.53235 328.0781,487.53235 C 328.0781,487.07023 328.0781,483.95963 328.0781,483.95963" />
          <path
             style="fill:url(#linearGradient5892);fill-opacity:1;stroke:none"
             id="path2111"
             d="M 358.32108,478.00128 C 356.17241,478.00128 354.5485,478.76335 353.2492,479.38791 C 352.43723,479.76238 351.73784,480.09975 351.17566,480.09975 C 350.9259,480.09975 350.82582,480.07479 350.63841,479.73743 L 350.18878,478.91301 C 349.93902,478.40103 349.50187,478.13846 348.90226,478.13846 L 348.26493,478.13846 C 347.50319,478.13846 346.95346,478.72559 346.95346,479.55001 L 346.95346,498.76244 C 346.95346,499.67449 347.6778,500.41161 348.58982,500.41161 L 349.22685,500.41161 C 350.12643,500.41161 350.86322,499.67449 350.86322,498.76244 L 350.86322,484.22217 C 350.86322,482.86053 351.97513,481.74858 353.3368,481.74858 L 358.78318,481.74858 C 360.14485,481.74858 361.25644,482.86053 361.25644,484.22217 L 361.25644,498.76244 C 361.25644,499.67449 361.98107,500.41161 362.89313,500.41161 L 363.53016,500.41161 C 364.42941,500.41161 365.16653,499.67449 365.16653,498.76244 L 365.16653,483.68492 C 365.16653,480.23725 362.74314,478.00128 358.98304,478.00128 L 358.29613,478.00128" />
        </g>
      </g>
      <path
         id="path7148"
         d="M -73,525.5 L 743,525.5"
         style="opacity:0.375;fill:none;fill-opacity:1;fill-rule:evenodd;stroke:url(#radialGradient7156);stroke-width:1;stroke-linecap:butt;stroke-linejoin:miter;marker:none;marker-start:none;marker-mid:none;marker-end:none;stroke-miterlimit:4;stroke-dasharray:none;stroke-dashoffset:0;stroke-opacity:1;visibility:visible;display:inline;overflow:visible;enable-background:accumulate" />
      <path
         style="opacity:0.47395833;fill:none;fill-opacity:1;fill-rule:evenodd;stroke:url(#radialGradient8683);stroke-width:2;stroke-linecap:butt;stroke-linejoin:miter;marker:none;marker-start:none;marker-mid:none;marker-end:none;stroke-miterlimit:4;stroke-dasharray:none;stroke-dashoffset:0;stroke-opacity:1;visibility:visible;display:inline;overflow:visible;enable-background:accumulate"
         d="M -62,450.5 L 754,450.5"
         id="path8679" />
      <g
         id="g6768"
         transform="translate(-40.589112,7.021504)">
        <path
           transform="matrix(0.9769813,0,0,0.9769813,-3.7547751,25.745184)"
           d="M 764.84375,472.46875 C 764.73205,472.46875 764.61168,472.50046 764.5,472.5625 C 764.38833,472.61216 764.31204,472.67555 764.25,472.75 L 762.1875,475 C 762.00136,475.19855 761.90625,475.41405 761.90625,475.625 C 761.90627,475.79873 761.95081,475.93841 762.0625,476.0625 C 762.1866,476.1742 762.32627,476.21876 762.5,476.21875 C 762.5993,476.21875 762.71322,476.21232 762.8125,476.1875 C 762.91177,476.16269 763.03215,476.11812 763.15625,476.03125 L 764.125,475.375 L 764.125,480.5625 C 764.12499,480.77347 764.17599,480.94484 764.3125,481.09375 C 764.44897,481.23024 764.63279,481.3125 764.84375,481.3125 L 765.28125,481.3125 C 765.49221,481.3125 765.67599,481.23025 765.8125,481.09375 C 765.96142,480.94483 766.03124,480.77346 766.03125,480.5625 L 766.03125,473.21875 C 766.03124,473.00781 765.96141,472.85526 765.8125,472.71875 C 765.67601,472.56984 765.4922,472.46876 765.28125,472.46875 L 764.84375,472.46875 z M 774.5,472.46875 C 774.38829,472.46875 774.29918,472.50046 774.1875,472.5625 C 774.07583,472.61216 773.96829,472.67555 773.90625,472.75 L 771.84375,475 C 771.6576,475.19855 771.5625,475.41405 771.5625,475.625 C 771.56252,475.79873 771.63831,475.93841 771.75,476.0625 C 771.87409,476.1742 772.01377,476.21876 772.1875,476.21875 C 772.28679,476.21875 772.36947,476.21232 772.46875,476.1875 C 772.56801,476.16269 772.6884,476.11812 772.8125,476.03125 L 773.78125,475.375 L 773.78125,480.5625 C 773.78124,480.77347 773.86349,480.94484 774,481.09375 C 774.13647,481.23024 774.28904,481.3125 774.5,481.3125 L 774.96875,481.3125 C 775.1797,481.3125 775.33224,481.23025 775.46875,481.09375 C 775.61767,480.94483 775.68749,480.77346 775.6875,480.5625 L 775.6875,473.21875 C 775.68748,473.00781 775.61766,472.85526 775.46875,472.71875 C 775.33225,472.56984 775.1797,472.46876 774.96875,472.46875 L 774.5,472.46875 z M 787.40625,472.46875 C 787.08363,472.46875 786.78541,472.53217 786.5,472.65625 C 786.22698,472.78035 785.99221,472.97655 785.78125,473.1875 C 785.57029,473.39848 785.37409,473.62084 785.25,473.90625 C 785.12589,474.17927 785.09375,474.48987 785.09375,474.8125 L 785.09375,478.96875 C 785.09375,479.2914 785.12591,479.62084 785.25,479.90625 C 785.37407,480.17927 785.57029,480.41404 785.78125,480.625 C 785.9922,480.83596 786.22699,481.00091 786.5,481.125 C 786.7854,481.24908 787.08361,481.3125 787.40625,481.3125 L 790.28125,481.3125 C 790.60388,481.3125 790.91449,481.24909 791.1875,481.125 C 791.47293,481.00089 791.72653,480.83596 791.9375,480.625 C 792.14847,480.41405 792.3134,480.17926 792.4375,479.90625 C 792.56161,479.62085 792.62499,479.29139 792.625,478.96875 L 792.625,474.8125 C 792.625,474.48988 792.56158,474.17926 792.4375,473.90625 C 792.31343,473.62085 792.14845,473.39847 791.9375,473.1875 C 791.72655,472.97656 791.47291,472.78035 791.1875,472.65625 C 790.91452,472.53217 790.60389,472.46876 790.28125,472.46875 L 787.40625,472.46875 z M 787.84375,474.1875 L 789.875,474.1875 C 790.11074,474.18751 790.30742,474.27619 790.46875,474.4375 C 790.63004,474.59884 790.68749,474.79548 790.6875,475.03125 L 790.6875,478.75 C 790.68751,478.98578 790.63006,479.18243 790.46875,479.34375 C 790.3074,479.50508 790.11077,479.59375 789.875,479.59375 L 787.84375,479.59375 C 787.60795,479.59376 787.41132,479.50507 787.25,479.34375 C 787.08865,479.18243 787,478.98578 787,478.75 L 787,475.03125 C 787,474.79547 787.08868,474.59883 787.25,474.4375 C 787.41129,474.2762 787.60797,474.18751 787.84375,474.1875 z M 781.4375,478.5625 C 781.22654,478.56249 781.02391,478.63234 780.875,478.78125 C 780.73848,478.91775 780.6875,479.10154 780.6875,479.3125 L 780.6875,480.5625 C 780.6875,480.77347 780.7385,480.94484 780.875,481.09375 C 781.0239,481.23024 781.22654,481.3125 781.4375,481.3125 L 782.15625,481.3125 C 782.36719,481.3125 782.55099,481.23025 782.6875,481.09375 C 782.83641,480.94483 782.90625,480.77346 782.90625,480.5625 L 782.90625,479.3125 C 782.90622,479.10155 782.83641,478.91775 782.6875,478.78125 C 782.55099,478.63234 782.36721,478.5625 782.15625,478.5625 L 781.4375,478.5625 z"
           inkscape:href="#text5896"
           id="path6670"
           style="font-size:18.61394501px;font-style:normal;font-variant:normal;font-weight:bold;font-stretch:normal;text-indent:0;text-align:start;text-decoration:none;line-height:100%;letter-spacing:normal;word-spacing:normal;text-transform:none;direction:ltr;block-progression:tb;writing-mode:lr-tb;text-anchor:start;opacity:1;fill:#000000;fill-opacity:1;fill-rule:nonzero;stroke:none;stroke-width:1px;stroke-linecap:butt;stroke-linejoin:miter;marker:none;marker-start:none;marker-mid:none;marker-end:none;stroke-miterlimit:4;stroke-dasharray:none;stroke-dashoffset:0;stroke-opacity:1;visibility:visible;display:inline;overflow:visible;filter:url(#filter6764);enable-background:accumulate;font-family:ChollaWideBoldOS;-inkscape-font-specification:ChollaWideBoldOS Bold"
           xlink:href="#text5896"
           inkscape:original="M 764.84375 472.46875 C 764.73205 472.46875 764.61168 472.50046 764.5 472.5625 C 764.38833 472.61216 764.31204 472.67555 764.25 472.75 L 762.1875 475 C 762.00136 475.19855 761.90625 475.41405 761.90625 475.625 C 761.90627 475.79873 761.95081 475.93841 762.0625 476.0625 C 762.1866 476.1742 762.32627 476.21876 762.5 476.21875 C 762.5993 476.21875 762.71322 476.21232 762.8125 476.1875 C 762.91177 476.16269 763.03215 476.11812 763.15625 476.03125 L 764.125 475.375 L 764.125 480.5625 C 764.12499 480.77347 764.17599 480.94484 764.3125 481.09375 C 764.44897 481.23024 764.63279 481.3125 764.84375 481.3125 L 765.28125 481.3125 C 765.49221 481.3125 765.67599 481.23025 765.8125 481.09375 C 765.96142 480.94483 766.03124 480.77346 766.03125 480.5625 L 766.03125 473.21875 C 766.03124 473.00781 765.96141 472.85526 765.8125 472.71875 C 765.67601 472.56984 765.4922 472.46876 765.28125 472.46875 L 764.84375 472.46875 z M 774.5 472.46875 C 774.38829 472.46875 774.29918 472.50046 774.1875 472.5625 C 774.07583 472.61216 773.96829 472.67555 773.90625 472.75 L 771.84375 475 C 771.6576 475.19855 771.5625 475.41405 771.5625 475.625 C 771.56252 475.79873 771.63831 475.93841 771.75 476.0625 C 771.87409 476.1742 772.01377 476.21876 772.1875 476.21875 C 772.28679 476.21875 772.36947 476.21232 772.46875 476.1875 C 772.56801 476.16269 772.6884 476.11812 772.8125 476.03125 L 773.78125 475.375 L 773.78125 480.5625 C 773.78124 480.77347 773.86349 480.94484 774 481.09375 C 774.13647 481.23024 774.28904 481.3125 774.5 481.3125 L 774.96875 481.3125 C 775.1797 481.3125 775.33224 481.23025 775.46875 481.09375 C 775.61767 480.94483 775.68749 480.77346 775.6875 480.5625 L 775.6875 473.21875 C 775.68748 473.00781 775.61766 472.85526 775.46875 472.71875 C 775.33225 472.56984 775.1797 472.46876 774.96875 472.46875 L 774.5 472.46875 z M 787.40625 472.46875 C 787.08363 472.46875 786.78541 472.53217 786.5 472.65625 C 786.22698 472.78035 785.99221 472.97655 785.78125 473.1875 C 785.57029 473.39848 785.37409 473.62084 785.25 473.90625 C 785.12589 474.17927 785.09375 474.48987 785.09375 474.8125 L 785.09375 478.96875 C 785.09375 479.2914 785.12591 479.62084 785.25 479.90625 C 785.37407 480.17927 785.57029 480.41404 785.78125 480.625 C 785.9922 480.83596 786.22699 481.00091 786.5 481.125 C 786.7854 481.24908 787.08361 481.3125 787.40625 481.3125 L 790.28125 481.3125 C 790.60388 481.3125 790.91449 481.24909 791.1875 481.125 C 791.47293 481.00089 791.72653 480.83596 791.9375 480.625 C 792.14847 480.41405 792.3134 480.17926 792.4375 479.90625 C 792.56161 479.62085 792.62499 479.29139 792.625 478.96875 L 792.625 474.8125 C 792.625 474.48988 792.56158 474.17926 792.4375 473.90625 C 792.31343 473.62085 792.14845 473.39847 791.9375 473.1875 C 791.72655 472.97656 791.47291 472.78035 791.1875 472.65625 C 790.91452 472.53217 790.60389 472.46876 790.28125 472.46875 L 787.40625 472.46875 z M 787.84375 474.1875 L 789.875 474.1875 C 790.11074 474.18751 790.30742 474.27619 790.46875 474.4375 C 790.63004 474.59884 790.68749 474.79548 790.6875 475.03125 L 790.6875 478.75 C 790.68751 478.98578 790.63006 479.18243 790.46875 479.34375 C 790.3074 479.50508 790.11077 479.59375 789.875 479.59375 L 787.84375 479.59375 C 787.60795 479.59376 787.41132 479.50507 787.25 479.34375 C 787.08865 479.18243 787 478.98578 787 478.75 L 787 475.03125 C 787 474.79547 787.08868 474.59883 787.25 474.4375 C 787.41129 474.2762 787.60797 474.18751 787.84375 474.1875 z M 781.4375 478.5625 C 781.22654 478.56249 781.02391 478.63234 780.875 478.78125 C 780.73848 478.91775 780.6875 479.10154 780.6875 479.3125 L 780.6875 480.5625 C 780.6875 480.77347 780.7385 480.94484 780.875 481.09375 C 781.0239 481.23024 781.22654 481.3125 781.4375 481.3125 L 782.15625 481.3125 C 782.36719 481.3125 782.55099 481.23025 782.6875 481.09375 C 782.83641 480.94483 782.90625 480.77346 782.90625 480.5625 L 782.90625 479.3125 C 782.90622 479.10155 782.83641 478.91775 782.6875 478.78125 C 782.55099 478.63234 782.36721 478.5625 782.15625 478.5625 L 781.4375 478.5625 z "
           inkscape:radius="0"
           sodipodi:type="inkscape:offset" />
        <text
           transform="scale(0.9722646,1.0285266)"
           sodipodi:linespacing="100%"
           id="text5896"
           y="481.30707"
           x="760.24097"
           style="font-size:18.61394501px;font-style:normal;font-variant:normal;font-weight:bold;font-stretch:normal;text-indent:0;text-align:start;text-decoration:none;line-height:100%;letter-spacing:normal;word-spacing:normal;text-transform:none;direction:ltr;block-progression:tb;writing-mode:lr-tb;text-anchor:start;opacity:1;fill:#ffffff;fill-opacity:1;fill-rule:nonzero;stroke:none;stroke-width:1px;stroke-linecap:butt;stroke-linejoin:miter;marker:none;marker-start:none;marker-mid:none;marker-end:none;stroke-miterlimit:4;stroke-dasharray:none;stroke-dashoffset:0;stroke-opacity:1;visibility:visible;display:inline;overflow:visible;enable-background:accumulate;font-family:ChollaWideBoldOS;-inkscape-font-specification:ChollaWideBoldOS Bold"
           xml:space="preserve"><tspan
             style="font-size:18.61394501px;font-style:normal;font-variant:normal;font-weight:bold;font-stretch:normal;text-align:start;line-height:100%;writing-mode:lr-tb;text-anchor:start;fill:#ffffff;fill-opacity:1;stroke:none;stroke-width:1;font-family:ChollaWideBoldOS;-inkscape-font-specification:ChollaWideBoldOS Bold"
             y="481.30707"
             x="760.24097"
             id="tspan5898"
             sodipodi:role="line">11.0</tspan></text>
      </g>
    </g>
    <path
       sodipodi:type="inkscape:offset"
       inkscape:radius="0"
       inkscape:original="M 233.3125 19.375 C 232.96095 19.375022 232.65438 19.501879 232.40625 19.75 C 232.17878 19.977484 232.06249 20.242236 232.0625 20.59375 L 232.0625 26.6875 C 232.06249 26.935656 231.96734 27.062513 231.78125 27.0625 C 231.59513 27.062513 231.35199 26.988513 231.0625 26.84375 C 230.77299 26.678336 230.42413 26.49862 230.03125 26.3125 C 229.65903 26.105729 229.26742 25.926014 228.8125 25.78125 C 228.35757 25.615837 227.85013 25.531265 227.3125 25.53125 L 226.84375 25.53125 C 225.31354 25.531265 224.19249 25.932982 223.46875 26.71875 C 222.76567 27.504546 222.40625 28.48816 222.40625 29.6875 L 222.40625 36.28125 C 222.40625 37.480603 222.76568 38.46422 223.46875 39.25 C 224.19249 40.035783 225.31354 40.4375 226.84375 40.4375 L 227.3125 40.4375 C 227.85013 40.437501 228.35757 40.363499 228.8125 40.21875 C 229.26742 40.053321 229.65903 39.884178 230.03125 39.71875 C 230.42414 39.532644 230.77299 39.3635 231.0625 39.21875 C 231.35199 39.053324 231.59513 38.968751 231.78125 38.96875 C 231.88463 38.968752 231.97977 38.989894 232.0625 39.03125 C 232.16588 39.051931 232.26102 39.12593 232.34375 39.25 L 233.09375 40.34375 L 234.15625 40.34375 C 234.56981 40.34375 234.83456 40.20632 235 39.9375 C 235.16541 39.668679 235.24999 39.414964 235.25 39.1875 L 235.25 19.375 L 233.3125 19.375 z M 294.5625 19.375 C 294.21097 19.375022 293.93564 19.501879 293.6875 19.75 C 293.46004 19.977484 293.34375 20.242236 293.34375 20.59375 L 293.34375 39.09375 C 293.34374 39.445284 293.46003 39.751859 293.6875 40 C 293.93564 40.227463 294.21096 40.34375 294.5625 40.34375 L 296.53125 40.34375 L 296.53125 20.59375 C 296.53124 20.242236 296.40439 19.977484 296.15625 19.75 C 295.92879 19.501879 295.63278 19.375021 295.28125 19.375 L 294.5625 19.375 z M 344 19.375 C 343.64847 19.375022 343.34188 19.501879 343.09375 19.75 C 342.86628 19.977484 342.74999 20.242236 342.75 20.59375 L 342.75 26.6875 C 342.74999 26.935656 342.65484 27.062513 342.46875 27.0625 C 342.28265 27.062513 342.03949 26.988513 341.75 26.84375 C 341.46048 26.678336 341.11163 26.49862 340.71875 26.3125 C 340.34652 26.105729 339.95492 25.926014 339.5 25.78125 C 339.04507 25.615837 338.53763 25.531265 338 25.53125 L 337.53125 25.53125 C 336.00103 25.531265 334.87999 25.932982 334.15625 26.71875 C 333.45319 27.504546 333.09375 28.48816 333.09375 29.6875 L 333.09375 36.28125 C 333.09375 37.480603 333.45318 38.46422 334.15625 39.25 C 334.88 40.035783 336.00104 40.4375 337.53125 40.4375 L 338 40.4375 C 338.53765 40.437501 339.04507 40.363499 339.5 40.21875 C 339.95492 40.053321 340.34653 39.884178 340.71875 39.71875 C 341.11162 39.532644 341.46049 39.3635 341.75 39.21875 C 342.03947 39.053324 342.28263 38.968751 342.46875 38.96875 C 342.57214 38.968752 342.66727 38.989894 342.75 39.03125 C 342.85338 39.051931 342.94852 39.12593 343.03125 39.25 L 343.78125 40.34375 L 344.8125 40.34375 C 345.22606 40.34375 345.52206 40.20632 345.6875 39.9375 C 345.85291 39.668679 345.93749 39.414964 345.9375 39.1875 L 345.9375 19.375 L 344 19.375 z M 358.4375 19.375 C 358.08597 19.375022 357.81064 19.501879 357.5625 19.75 C 357.33503 19.977484 357.21875 20.242236 357.21875 20.59375 L 357.21875 39.09375 C 357.21873 39.445284 357.33503 39.751859 357.5625 40 C 357.81063 40.227463 358.08596 40.34375 358.4375 40.34375 L 359.15625 40.34375 C 359.50778 40.34375 359.80378 40.227463 360.03125 40 C 360.27938 39.751858 360.40624 39.445285 360.40625 39.09375 L 360.40625 29.875 C 360.40623 29.482119 360.54367 29.143831 360.8125 28.875 C 361.0813 28.606191 361.4196 28.500012 361.8125 28.5 L 365.46875 28.5 C 365.86163 28.500012 366.19992 28.606191 366.46875 28.875 C 366.73757 29.143831 366.84374 29.48212 366.84375 29.875 L 366.84375 39.09375 C 366.84375 39.445284 366.96003 39.751859 367.1875 40 C 367.43562 40.227463 367.7422 40.34375 368.09375 40.34375 L 368.8125 40.34375 C 369.16402 40.34375 369.46002 40.227463 369.6875 40 C 369.93562 39.751858 370.06249 39.445285 370.0625 39.09375 L 370.0625 29.6875 C 370.0625 28.488159 369.69248 27.504545 368.96875 26.71875 C 368.26567 25.932983 367.1552 25.531265 365.625 25.53125 L 365.15625 25.53125 C 364.63928 25.531265 364.13185 25.615837 363.65625 25.78125 C 363.20133 25.926013 362.76788 26.105729 362.375 26.3125 C 362.00279 26.498619 361.69574 26.678336 361.40625 26.84375 C 361.11675 26.988513 360.8736 27.062513 360.6875 27.0625 C 360.50139 27.062513 360.40624 26.935655 360.40625 26.6875 L 360.40625 19.375 L 358.4375 19.375 z M 418.9375 19.375 C 418.58597 19.375022 418.27939 19.501879 418.03125 19.75 C 417.80379 19.977484 417.6875 20.242236 417.6875 20.59375 L 417.6875 32.28125 C 417.68749 32.632793 417.80378 32.908116 418.03125 33.15625 C 418.27939 33.383719 418.58596 33.500007 418.9375 33.5 L 419.625 33.5 C 419.97654 33.500006 420.27253 33.38372 420.5 33.15625 C 420.74814 32.908114 420.87499 32.632792 420.875 32.28125 L 420.875 20.59375 C 420.87499 20.242236 420.74814 19.977484 420.5 19.75 C 420.27254 19.501879 419.97653 19.375021 419.625 19.375 L 418.9375 19.375 z M 284.46875 25.53125 C 283.95178 25.531265 283.44435 25.615837 282.96875 25.78125 C 282.51383 25.926013 282.08038 26.105729 281.6875 26.3125 C 281.29462 26.498619 280.97699 26.678336 280.6875 26.84375 C 280.39798 26.988513 280.15485 27.062513 279.96875 27.0625 C 279.78263 27.062513 279.61349 26.956798 279.46875 26.75 L 278.6875 25.625 L 277.625 25.625 C 277.21141 25.625014 276.91543 25.762444 276.75 26.03125 C 276.58456 26.300083 276.5 26.5538 276.5 26.78125 L 276.5 39.09375 C 276.49998 39.445284 276.61628 39.751859 276.84375 40 C 277.09188 40.227463 277.39846 40.34375 277.75 40.34375 L 278.46875 40.34375 C 278.82028 40.34375 279.11628 40.227463 279.34375 40 C 279.59188 39.751858 279.71874 39.445285 279.71875 39.09375 L 279.71875 29.875 C 279.71873 29.482119 279.85617 29.143831 280.125 28.875 C 280.3938 28.606191 280.70085 28.500012 281.09375 28.5 L 284.78125 28.5 C 285.17413 28.500012 285.48117 28.606191 285.75 28.875 C 286.01882 29.143831 286.15624 29.48212 286.15625 29.875 L 286.15625 39.09375 C 286.15625 39.445284 286.27253 39.751859 286.5 40 C 286.74812 40.227463 287.0547 40.34375 287.40625 40.34375 L 288.125 40.34375 C 288.47652 40.34375 288.77252 40.227463 289 40 C 289.24812 39.751858 289.34374 39.445285 289.34375 39.09375 L 289.34375 29.6875 C 289.34375 28.488159 289.00498 27.504545 288.28125 26.71875 C 287.57817 25.932983 286.43645 25.531265 284.90625 25.53125 L 284.46875 25.53125 z M 256.1875 25.59375 L 255.34375 25.8125 C 255.07493 25.87455 254.8635 26.022551 254.71875 26.25 C 254.57401 26.456799 254.5 26.6788 254.5 26.90625 C 254.5 27.030334 254.51057 27.114906 254.53125 27.15625 L 257.71875 38.75 C 257.7601 38.894752 257.82353 39.063895 257.90625 39.25 C 257.98897 39.436108 258.09467 39.615823 258.21875 39.78125 C 258.34282 39.926 258.50139 40.063429 258.6875 40.1875 C 258.8736 40.290894 259.08503 40.34375 259.3125 40.34375 L 260.40625 40.34375 C 260.81982 40.34375 261.12685 40.185177 261.375 39.875 C 261.62313 39.544146 261.80285 39.205857 261.90625 38.875 L 263.34375 34.90625 C 263.46782 34.554721 263.59467 34.163576 263.71875 33.75 C 263.84281 33.336436 263.93795 33.029399 264 32.78125 C 264.08272 32.533117 264.12499 32.385115 264.125 32.34375 L 264.15625 32.34375 C 264.15625 32.385113 264.18795 32.533116 264.25 32.78125 C 264.33269 33.0294 264.43842 33.336437 264.5625 33.75 C 264.68657 34.163575 264.81342 34.554722 264.9375 34.90625 L 266.34375 38.875 C 266.44713 39.205856 266.62685 39.544145 266.875 39.875 C 267.12312 40.185179 267.46142 40.34375 267.875 40.34375 L 268.96875 40.34375 C 269.19619 40.34375 269.37638 40.290892 269.5625 40.1875 C 269.7486 40.063431 269.90716 39.926 270.03125 39.78125 C 270.15531 39.615823 270.26102 39.436107 270.34375 39.25 C 270.42645 39.063896 270.48988 38.894751 270.53125 38.75 L 273.71875 27.15625 C 273.73939 27.114907 273.74998 27.030334 273.75 26.90625 C 273.74998 26.6788 273.67598 26.456799 273.53125 26.25 C 273.38649 26.022551 273.2063 25.87455 272.9375 25.8125 L 272.09375 25.59375 C 271.80423 25.51105 271.5188 25.563908 271.25 25.75 C 270.98117 25.915442 270.80145 26.148015 270.71875 26.4375 L 269.125 32.59375 C 269.04226 32.94529 268.94713 33.379188 268.84375 33.9375 C 268.76102 34.475148 268.67645 35.024865 268.59375 35.5625 C 268.51102 36.079467 268.44759 36.544613 268.40625 36.9375 C 268.36487 37.309715 268.32259 37.468753 268.28125 37.46875 C 268.15717 36.951791 268.03031 36.528466 267.90625 36.15625 C 267.80286 35.784042 267.68656 35.382325 267.5625 34.96875 C 267.43842 34.534508 267.31156 34.143362 267.1875 33.8125 L 266.03125 30.78125 C 265.92785 30.533118 265.76927 30.321688 265.5625 30.15625 C 265.35571 29.990832 265.14381 29.90626 264.875 29.90625 L 263.40625 29.90625 C 263.13742 29.906261 262.89428 29.990832 262.6875 30.15625 C 262.48071 30.321688 262.32213 30.533118 262.21875 30.78125 L 261.0625 33.8125 C 260.93842 34.143362 260.84281 34.534508 260.71875 34.96875 C 260.59468 35.382324 260.46781 35.784042 260.34375 36.15625 C 260.24034 36.528467 260.15578 36.856183 260.09375 37.125 C 260.03172 37.373143 259.97885 37.468753 259.9375 37.46875 C 259.85476 36.703649 259.77021 36.079466 259.6875 35.5625 C 259.60479 35.024865 259.52021 34.475146 259.4375 33.9375 C 259.35479 33.379189 259.25964 32.945292 259.15625 32.59375 L 257.53125 26.4375 C 257.44852 26.148016 257.26882 25.915442 257 25.75 C 256.73118 25.563908 256.477 25.511051 256.1875 25.59375 z M 242.84375 25.625 C 242.3061 25.625014 241.7881 25.73073 241.3125 25.9375 C 240.85756 26.144299 240.44528 26.42973 240.09375 26.78125 C 239.74222 27.132797 239.45678 27.555658 239.25 28.03125 C 239.04322 28.486188 238.96875 28.962371 238.96875 29.5 L 238.96875 36.46875 C 238.96876 37.006395 239.04321 37.493148 239.25 37.96875 C 239.45679 38.423677 239.74221 38.835967 240.09375 39.1875 C 240.44528 39.539035 240.85757 39.824466 241.3125 40.03125 C 241.78809 40.238035 242.3061 40.34375 242.84375 40.34375 L 247.875 40.34375 C 248.41264 40.34375 248.92006 40.238035 249.375 40.03125 C 249.85059 39.824465 250.27345 39.539035 250.625 39.1875 C 250.97652 38.835967 251.26195 38.423679 251.46875 37.96875 C 251.67552 37.493146 251.74999 37.006394 251.75 36.46875 L 251.75 29.5 C 251.74998 28.962371 251.67552 28.486188 251.46875 28.03125 C 251.26195 27.555657 250.97652 27.132797 250.625 26.78125 C 250.27345 26.429729 249.85059 26.144299 249.375 25.9375 C 248.92006 25.73073 248.41263 25.625015 247.875 25.625 L 242.84375 25.625 z M 304.375 25.625 C 303.83737 25.625014 303.3506 25.73073 302.875 25.9375 C 302.42008 26.144299 302.00778 26.42973 301.65625 26.78125 C 301.30472 27.132797 301.01928 27.555658 300.8125 28.03125 C 300.6057 28.486188 300.5 28.962371 300.5 29.5 L 300.5 36.46875 C 300.49999 37.006395 300.60571 37.493148 300.8125 37.96875 C 301.01927 38.423677 301.30471 38.835967 301.65625 39.1875 C 302.00779 39.539035 302.42007 39.824466 302.875 40.03125 C 303.35061 40.238035 303.83735 40.34375 304.375 40.34375 L 309.4375 40.34375 C 309.97512 40.34375 310.48256 40.238035 310.9375 40.03125 C 311.4131 39.824465 311.8047 39.539035 312.15625 39.1875 C 312.50777 38.835967 312.7932 38.423679 313 37.96875 C 313.20678 37.493146 313.31249 37.006394 313.3125 36.46875 L 313.3125 29.5 C 313.3125 28.962371 313.20677 28.486188 313 28.03125 C 312.79322 27.555657 312.50777 27.132797 312.15625 26.78125 C 311.8047 26.429729 311.41309 26.144299 310.9375 25.9375 C 310.48257 25.73073 309.97513 25.625015 309.4375 25.625 L 304.375 25.625 z M 319.28125 25.625 C 318.95038 25.625014 318.65439 25.709587 318.40625 25.875 C 318.17877 26.040443 318.0625 26.283587 318.0625 26.59375 L 318.0625 28.5 L 324.96875 28.5 C 325.32026 28.500012 325.58503 28.606191 325.8125 28.875 C 326.03994 29.123153 326.15624 29.398012 326.15625 29.6875 L 326.15625 32 C 326.15623 32.24815 326.0611 32.375008 325.875 32.375 C 325.68889 32.375007 325.44574 32.301007 325.15625 32.15625 C 324.86675 31.99083 324.54913 31.811115 324.15625 31.625 C 323.78402 31.418224 323.36117 31.238508 322.90625 31.09375 C 322.45132 30.928332 321.94388 30.843759 321.40625 30.84375 L 320.9375 30.84375 C 319.40727 30.843759 318.28624 31.245477 317.5625 32.03125 C 316.85943 32.817038 316.53125 33.800655 316.53125 35 L 316.53125 36.28125 C 316.53125 37.480603 316.85943 38.46422 317.5625 39.25 C 318.28625 40.035783 319.40729 40.4375 320.9375 40.4375 L 321.40625 40.4375 C 321.94389 40.437501 322.45132 40.363499 322.90625 40.21875 C 323.36117 40.053321 323.78403 39.884178 324.15625 39.71875 C 324.54912 39.532644 324.86674 39.3635 325.15625 39.21875 C 325.44575 39.053324 325.68888 38.968751 325.875 38.96875 C 325.97839 38.968752 326.07353 38.989894 326.15625 39.03125 C 326.25963 39.051931 326.35477 39.12593 326.4375 39.25 L 327.1875 40.34375 L 328.25 40.34375 C 328.66355 40.34375 328.95956 40.20632 329.125 39.9375 C 329.29041 39.668679 329.34374 39.414964 329.34375 39.1875 L 329.34375 29.21875 C 329.34373 28.743157 329.30099 28.30926 329.15625 27.875 C 329.01149 27.440764 328.76834 27.049619 328.4375 26.71875 C 328.12732 26.387909 327.70445 26.123621 327.1875 25.9375 C 326.69119 25.73073 326.07806 25.625015 325.375 25.625 L 319.28125 25.625 z M 377.625 25.625 C 377.08734 25.625014 376.56935 25.73073 376.09375 25.9375 C 375.63881 26.12362 375.25778 26.39848 374.90625 26.75 C 374.55473 27.101547 374.26928 27.524408 374.0625 28 C 373.85571 28.475618 373.75 28.962371 373.75 29.5 L 373.75 36.46875 C 373.75 37.006395 373.85571 37.493148 374.0625 37.96875 C 374.26928 38.444356 374.55471 38.867217 374.90625 39.21875 C 375.25779 39.570285 375.63882 39.855716 376.09375 40.0625 C 376.56934 40.248606 377.08735 40.34375 377.625 40.34375 L 383.21875 40.34375 C 383.57026 40.34375 383.83502 40.248606 384.0625 40.0625 C 384.31064 39.855716 384.43749 39.570285 384.4375 39.21875 L 384.4375 37.46875 L 378.21875 37.46875 C 377.86721 37.468752 377.56064 37.383716 377.3125 37.15625 C 377.06435 36.928789 376.93749 36.611645 376.9375 36.21875 L 376.9375 34.1875 L 384.65625 34.1875 C 385.19387 34.187507 385.65902 33.997219 386.03125 33.625 C 386.40345 33.252795 386.59374 32.818898 386.59375 32.28125 L 386.59375 29.5 C 386.59373 28.962371 386.48802 28.486188 386.28125 28.03125 C 386.07445 27.555657 385.78902 27.132797 385.4375 26.78125 C 385.08594 26.429729 384.66309 26.144299 384.1875 25.9375 C 383.73256 25.73073 383.25638 25.625015 382.71875 25.625 L 377.625 25.625 z M 390.75 25.625 C 390.33641 25.625014 390.04043 25.762444 389.875 26.03125 C 389.70956 26.300083 389.625 26.5538 389.625 26.78125 L 389.625 39.09375 C 389.62498 39.445284 389.74128 39.751859 389.96875 40 C 390.21688 40.227463 390.52346 40.34375 390.875 40.34375 L 391.5625 40.34375 C 391.91403 40.34375 392.21003 40.227463 392.4375 40 C 392.68563 39.751858 392.81249 39.445285 392.8125 39.09375 L 392.8125 29.8125 C 392.81248 29.419621 392.94992 29.091903 393.21875 28.84375 C 393.48755 28.595619 393.773 28.500012 394.0625 28.5 L 399.875 28.5 L 399.875 26.75 C 399.87499 26.398479 399.7587 26.123621 399.53125 25.9375 C 399.30377 25.73073 399.03902 25.625015 398.6875 25.625 L 395.96875 25.625 C 395.51382 25.625014 395.15392 25.699015 394.84375 25.84375 C 394.55424 25.988514 394.30053 26.157658 394.09375 26.34375 C 393.88694 26.52987 393.69667 26.699014 393.53125 26.84375 C 393.38648 26.988513 393.22792 27.062513 393.0625 27.0625 C 392.87638 27.062513 392.70724 26.956798 392.5625 26.75 L 391.78125 25.625 L 390.75 25.625 z M 405.0625 25.625 C 404.52484 25.625014 404.0381 25.73073 403.5625 25.9375 C 403.10756 26.12362 402.69528 26.39848 402.34375 26.75 C 401.99223 27.101547 401.70678 27.524408 401.5 28 C 401.29321 28.475618 401.1875 28.962371 401.1875 29.5 L 401.1875 36.46875 C 401.1875 37.006395 401.29321 37.493148 401.5 37.96875 C 401.70678 38.444356 401.99221 38.867217 402.34375 39.21875 C 402.69529 39.570285 403.10757 39.855716 403.5625 40.0625 C 404.03809 40.248606 404.52485 40.34375 405.0625 40.34375 L 410.65625 40.34375 C 411.00776 40.34375 411.30377 40.248606 411.53125 40.0625 C 411.77939 39.855716 411.90624 39.570285 411.90625 39.21875 L 411.90625 37.46875 L 405.65625 37.46875 C 405.30471 37.468752 404.99814 37.383716 404.75 37.15625 C 404.50185 36.928789 404.37499 36.611645 404.375 36.21875 L 404.375 34.1875 L 412.125 34.1875 C 412.66262 34.187507 413.09652 33.997219 413.46875 33.625 C 413.84095 33.252795 414.03124 32.818898 414.03125 32.28125 L 414.03125 29.5 C 414.03123 28.962371 413.92552 28.486188 413.71875 28.03125 C 413.51195 27.555657 413.22652 27.132797 412.875 26.78125 C 412.52344 26.429729 412.13184 26.144299 411.65625 25.9375 C 411.20131 25.73073 410.69388 25.625015 410.15625 25.625 L 405.0625 25.625 z M 227 28.5 L 230.65625 28.5 C 231.04913 28.500012 231.38742 28.606191 231.65625 28.875 C 231.92506 29.143831 232.06249 29.48212 232.0625 29.875 L 232.0625 36.09375 C 232.06249 36.486645 231.92506 36.824933 231.65625 37.09375 C 231.38742 37.362575 231.04913 37.468753 230.65625 37.46875 L 227 37.46875 C 226.60711 37.468752 226.26881 37.362573 226 37.09375 C 225.73118 36.824935 225.62499 36.486645 225.625 36.09375 L 225.625 29.875 C 225.625 29.482119 225.73117 29.143831 226 28.875 C 226.26882 28.606191 226.6071 28.500012 227 28.5 z M 243.53125 28.5 L 247.1875 28.5 C 247.58037 28.500012 247.88742 28.606191 248.15625 28.875 C 248.42506 29.143831 248.56249 29.48212 248.5625 29.875 L 248.5625 36.09375 C 248.5625 36.486645 248.42506 36.824933 248.15625 37.09375 C 247.88742 37.362575 247.58038 37.468753 247.1875 37.46875 L 243.53125 37.46875 C 243.13835 37.468752 242.83131 37.362573 242.5625 37.09375 C 242.29367 36.824935 242.15624 36.486645 242.15625 36.09375 L 242.15625 29.875 C 242.15624 29.482119 242.29367 29.143831 242.5625 28.875 C 242.83131 28.606191 243.13835 28.500012 243.53125 28.5 z M 305.09375 28.5 L 308.71875 28.5 C 309.11162 28.500012 309.44992 28.606191 309.71875 28.875 C 309.98757 29.143831 310.12499 29.48212 310.125 29.875 L 310.125 36.09375 C 310.125 36.486645 309.98756 36.824933 309.71875 37.09375 C 309.44993 37.362575 309.11163 37.468753 308.71875 37.46875 L 305.09375 37.46875 C 304.70086 37.468752 304.36256 37.362573 304.09375 37.09375 C 303.82492 36.824935 303.68749 36.486645 303.6875 36.09375 L 303.6875 29.875 C 303.68749 29.482119 303.82492 29.143831 304.09375 28.875 C 304.36256 28.606191 304.70085 28.500012 305.09375 28.5 z M 337.6875 28.5 L 341.34375 28.5 C 341.73664 28.500012 342.07492 28.606191 342.34375 28.875 C 342.61256 29.143831 342.74999 29.48212 342.75 29.875 L 342.75 36.09375 C 342.74999 36.486645 342.61256 36.824933 342.34375 37.09375 C 342.07492 37.362575 341.73663 37.468753 341.34375 37.46875 L 337.6875 37.46875 C 337.29459 37.468752 336.95631 37.362573 336.6875 37.09375 C 336.41868 36.824935 336.28124 36.486645 336.28125 36.09375 L 336.28125 29.875 C 336.28125 29.482119 336.41867 29.143831 336.6875 28.875 C 336.95632 28.606191 337.2946 28.500012 337.6875 28.5 z M 378.1875 28.5 L 382.15625 28.5 C 382.50779 28.500012 382.80378 28.59562 383.03125 28.84375 C 383.27939 29.071224 383.40624 29.367227 383.40625 29.71875 L 383.40625 31.625 L 376.9375 31.625 L 376.9375 29.71875 C 376.9375 29.367226 377.05378 29.071225 377.28125 28.84375 C 377.5294 28.595619 377.83596 28.500012 378.1875 28.5 z M 405.625 28.5 L 409.59375 28.5 C 409.94529 28.500012 410.24128 28.59562 410.46875 28.84375 C 410.71689 29.071224 410.84374 29.367227 410.84375 29.71875 L 410.84375 31.625 L 404.375 31.625 L 404.375 29.71875 C 404.375 29.367226 404.49128 29.071225 404.71875 28.84375 C 404.9669 28.595619 405.27346 28.500012 405.625 28.5 z M 321.09375 33.78125 L 324.78125 33.78125 C 325.17414 33.781256 325.48117 33.918686 325.75 34.1875 C 326.0188 34.456327 326.15624 34.794614 326.15625 35.1875 L 326.15625 36.09375 C 326.15623 36.486645 326.01881 36.824933 325.75 37.09375 C 325.48116 37.362575 325.17413 37.468753 324.78125 37.46875 L 321.09375 37.46875 C 320.70087 37.468752 320.39382 37.362573 320.125 37.09375 C 319.85618 36.824935 319.71875 36.486645 319.71875 36.09375 L 319.71875 35.1875 C 319.71874 34.794613 319.85618 34.456326 320.125 34.1875 C 320.39382 33.918687 320.70085 33.781257 321.09375 33.78125 z M 418.9375 36 C 418.58597 36.000003 418.27939 36.126862 418.03125 36.375 C 417.80379 36.602467 417.6875 36.867219 417.6875 37.21875 L 417.6875 39.09375 C 417.68749 39.445284 417.80378 39.751859 418.03125 40 C 418.27939 40.227463 418.58596 40.34375 418.9375 40.34375 L 419.625 40.34375 C 419.97654 40.34375 420.27253 40.227463 420.5 40 C 420.74814 39.751858 420.87499 39.445285 420.875 39.09375 L 420.875 37.21875 C 420.87499 36.867219 420.74814 36.602467 420.5 36.375 C 420.27254 36.126862 419.97653 36.000004 419.625 36 L 418.9375 36 z "
       xlink:href="#text6775"
       style="font-size:33.51835251px;font-style:normal;font-variant:normal;font-weight:bold;font-stretch:normal;text-indent:0;text-align:center;text-decoration:none;line-height:100%;letter-spacing:normal;word-spacing:normal;text-transform:none;direction:ltr;block-progression:tb;writing-mode:lr-tb;text-anchor:middle;opacity:0.77227723;fill:#000000;fill-opacity:1;fill-rule:nonzero;stroke:none;stroke-width:1px;stroke-linecap:butt;stroke-linejoin:miter;marker:none;marker-start:none;marker-mid:none;marker-end:none;stroke-miterlimit:4;stroke-dasharray:none;stroke-dashoffset:0;stroke-opacity:1;visibility:visible;display:inline;overflow:visible;filter:url(#filter6047);enable-background:accumulate;font-family:ChollaWideBoldOS;-inkscape-font-specification:ChollaWideBoldOS Bold"
       id="path5263"
       inkscape:href="#text6775"
       d="M 233.3125,20.375 C 232.96095,20.375022 232.65438,20.501879 232.40625,20.75 C 232.17878,20.977484 232.06249,21.242236 232.0625,21.59375 L 232.0625,27.6875 C 232.06249,27.935656 231.96734,28.062513 231.78125,28.0625 C 231.59513,28.062513 231.35199,27.988513 231.0625,27.84375 C 230.77299,27.678336 230.42413,27.49862 230.03125,27.3125 C 229.65903,27.105729 229.26742,26.926014 228.8125,26.78125 C 228.35757,26.615837 227.85013,26.531265 227.3125,26.53125 L 226.84375,26.53125 C 225.31354,26.531265 224.19249,26.932982 223.46875,27.71875 C 222.76567,28.504546 222.40625,29.48816 222.40625,30.6875 L 222.40625,37.28125 C 222.40625,38.480603 222.76568,39.46422 223.46875,40.25 C 224.19249,41.035783 225.31354,41.4375 226.84375,41.4375 L 227.3125,41.4375 C 227.85013,41.437501 228.35757,41.363499 228.8125,41.21875 C 229.26742,41.053321 229.65903,40.884178 230.03125,40.71875 C 230.42414,40.532644 230.77299,40.3635 231.0625,40.21875 C 231.35199,40.053324 231.59513,39.968751 231.78125,39.96875 C 231.88463,39.968752 231.97977,39.989894 232.0625,40.03125 C 232.16588,40.051931 232.26102,40.12593 232.34375,40.25 L 233.09375,41.34375 L 234.15625,41.34375 C 234.56981,41.34375 234.83456,41.20632 235,40.9375 C 235.16541,40.668679 235.24999,40.414964 235.25,40.1875 L 235.25,20.375 L 233.3125,20.375 z M 294.5625,20.375 C 294.21097,20.375022 293.93564,20.501879 293.6875,20.75 C 293.46004,20.977484 293.34375,21.242236 293.34375,21.59375 L 293.34375,40.09375 C 293.34374,40.445284 293.46003,40.751859 293.6875,41 C 293.93564,41.227463 294.21096,41.34375 294.5625,41.34375 L 296.53125,41.34375 L 296.53125,21.59375 C 296.53124,21.242236 296.40439,20.977484 296.15625,20.75 C 295.92879,20.501879 295.63278,20.375021 295.28125,20.375 L 294.5625,20.375 z M 344,20.375 C 343.64847,20.375022 343.34188,20.501879 343.09375,20.75 C 342.86628,20.977484 342.74999,21.242236 342.75,21.59375 L 342.75,27.6875 C 342.74999,27.935656 342.65484,28.062513 342.46875,28.0625 C 342.28265,28.062513 342.03949,27.988513 341.75,27.84375 C 341.46048,27.678336 341.11163,27.49862 340.71875,27.3125 C 340.34652,27.105729 339.95492,26.926014 339.5,26.78125 C 339.04507,26.615837 338.53763,26.531265 338,26.53125 L 337.53125,26.53125 C 336.00103,26.531265 334.87999,26.932982 334.15625,27.71875 C 333.45319,28.504546 333.09375,29.48816 333.09375,30.6875 L 333.09375,37.28125 C 333.09375,38.480603 333.45318,39.46422 334.15625,40.25 C 334.88,41.035783 336.00104,41.4375 337.53125,41.4375 L 338,41.4375 C 338.53765,41.437501 339.04507,41.363499 339.5,41.21875 C 339.95492,41.053321 340.34653,40.884178 340.71875,40.71875 C 341.11162,40.532644 341.46049,40.3635 341.75,40.21875 C 342.03947,40.053324 342.28263,39.968751 342.46875,39.96875 C 342.57214,39.968752 342.66727,39.989894 342.75,40.03125 C 342.85338,40.051931 342.94852,40.12593 343.03125,40.25 L 343.78125,41.34375 L 344.8125,41.34375 C 345.22606,41.34375 345.52206,41.20632 345.6875,40.9375 C 345.85291,40.668679 345.93749,40.414964 345.9375,40.1875 L 345.9375,20.375 L 344,20.375 z M 358.4375,20.375 C 358.08597,20.375022 357.81064,20.501879 357.5625,20.75 C 357.33503,20.977484 357.21875,21.242236 357.21875,21.59375 L 357.21875,40.09375 C 357.21873,40.445284 357.33503,40.751859 357.5625,41 C 357.81063,41.227463 358.08596,41.34375 358.4375,41.34375 L 359.15625,41.34375 C 359.50778,41.34375 359.80378,41.227463 360.03125,41 C 360.27938,40.751858 360.40624,40.445285 360.40625,40.09375 L 360.40625,30.875 C 360.40623,30.482119 360.54367,30.143831 360.8125,29.875 C 361.0813,29.606191 361.4196,29.500012 361.8125,29.5 L 365.46875,29.5 C 365.86163,29.500012 366.19992,29.606191 366.46875,29.875 C 366.73757,30.143831 366.84374,30.48212 366.84375,30.875 L 366.84375,40.09375 C 366.84375,40.445284 366.96003,40.751859 367.1875,41 C 367.43562,41.227463 367.7422,41.34375 368.09375,41.34375 L 368.8125,41.34375 C 369.16402,41.34375 369.46002,41.227463 369.6875,41 C 369.93562,40.751858 370.06249,40.445285 370.0625,40.09375 L 370.0625,30.6875 C 370.0625,29.488159 369.69248,28.504545 368.96875,27.71875 C 368.26567,26.932983 367.1552,26.531265 365.625,26.53125 L 365.15625,26.53125 C 364.63928,26.531265 364.13185,26.615837 363.65625,26.78125 C 363.20133,26.926013 362.76788,27.105729 362.375,27.3125 C 362.00279,27.498619 361.69574,27.678336 361.40625,27.84375 C 361.11675,27.988513 360.8736,28.062513 360.6875,28.0625 C 360.50139,28.062513 360.40624,27.935655 360.40625,27.6875 L 360.40625,20.375 L 358.4375,20.375 z M 418.9375,20.375 C 418.58597,20.375022 418.27939,20.501879 418.03125,20.75 C 417.80379,20.977484 417.6875,21.242236 417.6875,21.59375 L 417.6875,33.28125 C 417.68749,33.632793 417.80378,33.908116 418.03125,34.15625 C 418.27939,34.383719 418.58596,34.500007 418.9375,34.5 L 419.625,34.5 C 419.97654,34.500006 420.27253,34.38372 420.5,34.15625 C 420.74814,33.908114 420.87499,33.632792 420.875,33.28125 L 420.875,21.59375 C 420.87499,21.242236 420.74814,20.977484 420.5,20.75 C 420.27254,20.501879 419.97653,20.375021 419.625,20.375 L 418.9375,20.375 z M 284.46875,26.53125 C 283.95178,26.531265 283.44435,26.615837 282.96875,26.78125 C 282.51383,26.926013 282.08038,27.105729 281.6875,27.3125 C 281.29462,27.498619 280.97699,27.678336 280.6875,27.84375 C 280.39798,27.988513 280.15485,28.062513 279.96875,28.0625 C 279.78263,28.062513 279.61349,27.956798 279.46875,27.75 L 278.6875,26.625 L 277.625,26.625 C 277.21141,26.625014 276.91543,26.762444 276.75,27.03125 C 276.58456,27.300083 276.5,27.5538 276.5,27.78125 L 276.5,40.09375 C 276.49998,40.445284 276.61628,40.751859 276.84375,41 C 277.09188,41.227463 277.39846,41.34375 277.75,41.34375 L 278.46875,41.34375 C 278.82028,41.34375 279.11628,41.227463 279.34375,41 C 279.59188,40.751858 279.71874,40.445285 279.71875,40.09375 L 279.71875,30.875 C 279.71873,30.482119 279.85617,30.143831 280.125,29.875 C 280.3938,29.606191 280.70085,29.500012 281.09375,29.5 L 284.78125,29.5 C 285.17413,29.500012 285.48117,29.606191 285.75,29.875 C 286.01882,30.143831 286.15624,30.48212 286.15625,30.875 L 286.15625,40.09375 C 286.15625,40.445284 286.27253,40.751859 286.5,41 C 286.74812,41.227463 287.0547,41.34375 287.40625,41.34375 L 288.125,41.34375 C 288.47652,41.34375 288.77252,41.227463 289,41 C 289.24812,40.751858 289.34374,40.445285 289.34375,40.09375 L 289.34375,30.6875 C 289.34375,29.488159 289.00498,28.504545 288.28125,27.71875 C 287.57817,26.932983 286.43645,26.531265 284.90625,26.53125 L 284.46875,26.53125 z M 256.1875,26.59375 L 255.34375,26.8125 C 255.07493,26.87455 254.8635,27.022551 254.71875,27.25 C 254.57401,27.456799 254.5,27.6788 254.5,27.90625 C 254.5,28.030334 254.51057,28.114906 254.53125,28.15625 L 257.71875,39.75 C 257.7601,39.894752 257.82353,40.063895 257.90625,40.25 C 257.98897,40.436108 258.09467,40.615823 258.21875,40.78125 C 258.34282,40.926 258.50139,41.063429 258.6875,41.1875 C 258.8736,41.290894 259.08503,41.34375 259.3125,41.34375 L 260.40625,41.34375 C 260.81982,41.34375 261.12685,41.185177 261.375,40.875 C 261.62313,40.544146 261.80285,40.205857 261.90625,39.875 L 263.34375,35.90625 C 263.46782,35.554721 263.59467,35.163576 263.71875,34.75 C 263.84281,34.336436 263.93795,34.029399 264,33.78125 C 264.08272,33.533117 264.12499,33.385115 264.125,33.34375 L 264.15625,33.34375 C 264.15625,33.385113 264.18795,33.533116 264.25,33.78125 C 264.33269,34.0294 264.43842,34.336437 264.5625,34.75 C 264.68657,35.163575 264.81342,35.554722 264.9375,35.90625 L 266.34375,39.875 C 266.44713,40.205856 266.62685,40.544145 266.875,40.875 C 267.12312,41.185179 267.46142,41.34375 267.875,41.34375 L 268.96875,41.34375 C 269.19619,41.34375 269.37638,41.290892 269.5625,41.1875 C 269.7486,41.063431 269.90716,40.926 270.03125,40.78125 C 270.15531,40.615823 270.26102,40.436107 270.34375,40.25 C 270.42645,40.063896 270.48988,39.894751 270.53125,39.75 L 273.71875,28.15625 C 273.73939,28.114907 273.74998,28.030334 273.75,27.90625 C 273.74998,27.6788 273.67598,27.456799 273.53125,27.25 C 273.38649,27.022551 273.2063,26.87455 272.9375,26.8125 L 272.09375,26.59375 C 271.80423,26.51105 271.5188,26.563908 271.25,26.75 C 270.98117,26.915442 270.80145,27.148015 270.71875,27.4375 L 269.125,33.59375 C 269.04226,33.94529 268.94713,34.379188 268.84375,34.9375 C 268.76102,35.475148 268.67645,36.024865 268.59375,36.5625 C 268.51102,37.079467 268.44759,37.544613 268.40625,37.9375 C 268.36487,38.309715 268.32259,38.468753 268.28125,38.46875 C 268.15717,37.951791 268.03031,37.528466 267.90625,37.15625 C 267.80286,36.784042 267.68656,36.382325 267.5625,35.96875 C 267.43842,35.534508 267.31156,35.143362 267.1875,34.8125 L 266.03125,31.78125 C 265.92785,31.533118 265.76927,31.321688 265.5625,31.15625 C 265.35571,30.990832 265.14381,30.90626 264.875,30.90625 L 263.40625,30.90625 C 263.13742,30.906261 262.89428,30.990832 262.6875,31.15625 C 262.48071,31.321688 262.32213,31.533118 262.21875,31.78125 L 261.0625,34.8125 C 260.93842,35.143362 260.84281,35.534508 260.71875,35.96875 C 260.59468,36.382324 260.46781,36.784042 260.34375,37.15625 C 260.24034,37.528467 260.15578,37.856183 260.09375,38.125 C 260.03172,38.373143 259.97885,38.468753 259.9375,38.46875 C 259.85476,37.703649 259.77021,37.079466 259.6875,36.5625 C 259.60479,36.024865 259.52021,35.475146 259.4375,34.9375 C 259.35479,34.379189 259.25964,33.945292 259.15625,33.59375 L 257.53125,27.4375 C 257.44852,27.148016 257.26882,26.915442 257,26.75 C 256.73118,26.563908 256.477,26.511051 256.1875,26.59375 z M 242.84375,26.625 C 242.3061,26.625014 241.7881,26.73073 241.3125,26.9375 C 240.85756,27.144299 240.44528,27.42973 240.09375,27.78125 C 239.74222,28.132797 239.45678,28.555658 239.25,29.03125 C 239.04322,29.486188 238.96875,29.962371 238.96875,30.5 L 238.96875,37.46875 C 238.96876,38.006395 239.04321,38.493148 239.25,38.96875 C 239.45679,39.423677 239.74221,39.835967 240.09375,40.1875 C 240.44528,40.539035 240.85757,40.824466 241.3125,41.03125 C 241.78809,41.238035 242.3061,41.34375 242.84375,41.34375 L 247.875,41.34375 C 248.41264,41.34375 248.92006,41.238035 249.375,41.03125 C 249.85059,40.824465 250.27345,40.539035 250.625,40.1875 C 250.97652,39.835967 251.26195,39.423679 251.46875,38.96875 C 251.67552,38.493146 251.74999,38.006394 251.75,37.46875 L 251.75,30.5 C 251.74998,29.962371 251.67552,29.486188 251.46875,29.03125 C 251.26195,28.555657 250.97652,28.132797 250.625,27.78125 C 250.27345,27.429729 249.85059,27.144299 249.375,26.9375 C 248.92006,26.73073 248.41263,26.625015 247.875,26.625 L 242.84375,26.625 z M 304.375,26.625 C 303.83737,26.625014 303.3506,26.73073 302.875,26.9375 C 302.42008,27.144299 302.00778,27.42973 301.65625,27.78125 C 301.30472,28.132797 301.01928,28.555658 300.8125,29.03125 C 300.6057,29.486188 300.5,29.962371 300.5,30.5 L 300.5,37.46875 C 300.49999,38.006395 300.60571,38.493148 300.8125,38.96875 C 301.01927,39.423677 301.30471,39.835967 301.65625,40.1875 C 302.00779,40.539035 302.42007,40.824466 302.875,41.03125 C 303.35061,41.238035 303.83735,41.34375 304.375,41.34375 L 309.4375,41.34375 C 309.97512,41.34375 310.48256,41.238035 310.9375,41.03125 C 311.4131,40.824465 311.8047,40.539035 312.15625,40.1875 C 312.50777,39.835967 312.7932,39.423679 313,38.96875 C 313.20678,38.493146 313.31249,38.006394 313.3125,37.46875 L 313.3125,30.5 C 313.3125,29.962371 313.20677,29.486188 313,29.03125 C 312.79322,28.555657 312.50777,28.132797 312.15625,27.78125 C 311.8047,27.429729 311.41309,27.144299 310.9375,26.9375 C 310.48257,26.73073 309.97513,26.625015 309.4375,26.625 L 304.375,26.625 z M 319.28125,26.625 C 318.95038,26.625014 318.65439,26.709587 318.40625,26.875 C 318.17877,27.040443 318.0625,27.283587 318.0625,27.59375 L 318.0625,29.5 L 324.96875,29.5 C 325.32026,29.500012 325.58503,29.606191 325.8125,29.875 C 326.03994,30.123153 326.15624,30.398012 326.15625,30.6875 L 326.15625,33 C 326.15623,33.248151 326.0611,33.375008 325.875,33.375 C 325.68889,33.375007 325.44574,33.301007 325.15625,33.15625 C 324.86675,32.99083 324.54913,32.811115 324.15625,32.625 C 323.78402,32.418224 323.36117,32.238508 322.90625,32.09375 C 322.45132,31.928332 321.94388,31.843759 321.40625,31.84375 L 320.9375,31.84375 C 319.40727,31.843759 318.28624,32.245477 317.5625,33.03125 C 316.85943,33.817038 316.53125,34.800655 316.53125,36 L 316.53125,37.28125 C 316.53125,38.480603 316.85943,39.46422 317.5625,40.25 C 318.28625,41.035783 319.40729,41.4375 320.9375,41.4375 L 321.40625,41.4375 C 321.94389,41.437501 322.45132,41.363499 322.90625,41.21875 C 323.36117,41.053321 323.78403,40.884178 324.15625,40.71875 C 324.54912,40.532644 324.86674,40.3635 325.15625,40.21875 C 325.44575,40.053324 325.68888,39.968751 325.875,39.96875 C 325.97839,39.968752 326.07353,39.989894 326.15625,40.03125 C 326.25963,40.051931 326.35477,40.12593 326.4375,40.25 L 327.1875,41.34375 L 328.25,41.34375 C 328.66355,41.34375 328.95956,41.20632 329.125,40.9375 C 329.29041,40.668679 329.34374,40.414964 329.34375,40.1875 L 329.34375,30.21875 C 329.34373,29.743157 329.30099,29.30926 329.15625,28.875 C 329.01149,28.440764 328.76834,28.049619 328.4375,27.71875 C 328.12732,27.387909 327.70445,27.123621 327.1875,26.9375 C 326.69119,26.73073 326.07806,26.625015 325.375,26.625 L 319.28125,26.625 z M 377.625,26.625 C 377.08734,26.625014 376.56935,26.73073 376.09375,26.9375 C 375.63881,27.12362 375.25778,27.39848 374.90625,27.75 C 374.55473,28.101547 374.26928,28.524408 374.0625,29 C 373.85571,29.475618 373.75,29.962371 373.75,30.5 L 373.75,37.46875 C 373.75,38.006395 373.85571,38.493148 374.0625,38.96875 C 374.26928,39.444356 374.55471,39.867217 374.90625,40.21875 C 375.25779,40.570285 375.63882,40.855716 376.09375,41.0625 C 376.56934,41.248606 377.08735,41.34375 377.625,41.34375 L 383.21875,41.34375 C 383.57026,41.34375 383.83502,41.248606 384.0625,41.0625 C 384.31064,40.855716 384.43749,40.570285 384.4375,40.21875 L 384.4375,38.46875 L 378.21875,38.46875 C 377.86721,38.468752 377.56064,38.383716 377.3125,38.15625 C 377.06435,37.928789 376.93749,37.611645 376.9375,37.21875 L 376.9375,35.1875 L 384.65625,35.1875 C 385.19387,35.187507 385.65902,34.997219 386.03125,34.625 C 386.40345,34.252795 386.59374,33.818898 386.59375,33.28125 L 386.59375,30.5 C 386.59373,29.962371 386.48802,29.486188 386.28125,29.03125 C 386.07445,28.555657 385.78902,28.132797 385.4375,27.78125 C 385.08594,27.429729 384.66309,27.144299 384.1875,26.9375 C 383.73256,26.73073 383.25638,26.625015 382.71875,26.625 L 377.625,26.625 z M 390.75,26.625 C 390.33641,26.625014 390.04043,26.762444 389.875,27.03125 C 389.70956,27.300083 389.625,27.5538 389.625,27.78125 L 389.625,40.09375 C 389.62498,40.445284 389.74128,40.751859 389.96875,41 C 390.21688,41.227463 390.52346,41.34375 390.875,41.34375 L 391.5625,41.34375 C 391.91403,41.34375 392.21003,41.227463 392.4375,41 C 392.68563,40.751858 392.81249,40.445285 392.8125,40.09375 L 392.8125,30.8125 C 392.81248,30.419621 392.94992,30.091903 393.21875,29.84375 C 393.48755,29.595619 393.773,29.500012 394.0625,29.5 L 399.875,29.5 L 399.875,27.75 C 399.87499,27.398479 399.7587,27.123621 399.53125,26.9375 C 399.30377,26.73073 399.03902,26.625015 398.6875,26.625 L 395.96875,26.625 C 395.51382,26.625014 395.15392,26.699015 394.84375,26.84375 C 394.55424,26.988514 394.30053,27.157658 394.09375,27.34375 C 393.88694,27.52987 393.69667,27.699014 393.53125,27.84375 C 393.38648,27.988513 393.22792,28.062513 393.0625,28.0625 C 392.87638,28.062513 392.70724,27.956798 392.5625,27.75 L 391.78125,26.625 L 390.75,26.625 z M 405.0625,26.625 C 404.52484,26.625014 404.0381,26.73073 403.5625,26.9375 C 403.10756,27.12362 402.69528,27.39848 402.34375,27.75 C 401.99223,28.101547 401.70678,28.524408 401.5,29 C 401.29321,29.475618 401.1875,29.962371 401.1875,30.5 L 401.1875,37.46875 C 401.1875,38.006395 401.29321,38.493148 401.5,38.96875 C 401.70678,39.444356 401.99221,39.867217 402.34375,40.21875 C 402.69529,40.570285 403.10757,40.855716 403.5625,41.0625 C 404.03809,41.248606 404.52485,41.34375 405.0625,41.34375 L 410.65625,41.34375 C 411.00776,41.34375 411.30377,41.248606 411.53125,41.0625 C 411.77939,40.855716 411.90624,40.570285 411.90625,40.21875 L 411.90625,38.46875 L 405.65625,38.46875 C 405.30471,38.468752 404.99814,38.383716 404.75,38.15625 C 404.50185,37.928789 404.37499,37.611645 404.375,37.21875 L 404.375,35.1875 L 412.125,35.1875 C 412.66262,35.187507 413.09652,34.997219 413.46875,34.625 C 413.84095,34.252795 414.03124,33.818898 414.03125,33.28125 L 414.03125,30.5 C 414.03123,29.962371 413.92552,29.486188 413.71875,29.03125 C 413.51195,28.555657 413.22652,28.132797 412.875,27.78125 C 412.52344,27.429729 412.13184,27.144299 411.65625,26.9375 C 411.20131,26.73073 410.69388,26.625015 410.15625,26.625 L 405.0625,26.625 z M 227,29.5 L 230.65625,29.5 C 231.04913,29.500012 231.38742,29.606191 231.65625,29.875 C 231.92506,30.143831 232.06249,30.48212 232.0625,30.875 L 232.0625,37.09375 C 232.06249,37.486645 231.92506,37.824933 231.65625,38.09375 C 231.38742,38.362575 231.04913,38.468753 230.65625,38.46875 L 227,38.46875 C 226.60711,38.468752 226.26881,38.362573 226,38.09375 C 225.73118,37.824935 225.62499,37.486645 225.625,37.09375 L 225.625,30.875 C 225.625,30.482119 225.73117,30.143831 226,29.875 C 226.26882,29.606191 226.6071,29.500012 227,29.5 z M 243.53125,29.5 L 247.1875,29.5 C 247.58037,29.500012 247.88742,29.606191 248.15625,29.875 C 248.42506,30.143831 248.56249,30.48212 248.5625,30.875 L 248.5625,37.09375 C 248.5625,37.486645 248.42506,37.824933 248.15625,38.09375 C 247.88742,38.362575 247.58038,38.468753 247.1875,38.46875 L 243.53125,38.46875 C 243.13835,38.468752 242.83131,38.362573 242.5625,38.09375 C 242.29367,37.824935 242.15624,37.486645 242.15625,37.09375 L 242.15625,30.875 C 242.15624,30.482119 242.29367,30.143831 242.5625,29.875 C 242.83131,29.606191 243.13835,29.500012 243.53125,29.5 z M 305.09375,29.5 L 308.71875,29.5 C 309.11162,29.500012 309.44992,29.606191 309.71875,29.875 C 309.98757,30.143831 310.12499,30.48212 310.125,30.875 L 310.125,37.09375 C 310.125,37.486645 309.98756,37.824933 309.71875,38.09375 C 309.44993,38.362575 309.11163,38.468753 308.71875,38.46875 L 305.09375,38.46875 C 304.70086,38.468752 304.36256,38.362573 304.09375,38.09375 C 303.82492,37.824935 303.68749,37.486645 303.6875,37.09375 L 303.6875,30.875 C 303.68749,30.482119 303.82492,30.143831 304.09375,29.875 C 304.36256,29.606191 304.70085,29.500012 305.09375,29.5 z M 337.6875,29.5 L 341.34375,29.5 C 341.73664,29.500012 342.07492,29.606191 342.34375,29.875 C 342.61256,30.143831 342.74999,30.48212 342.75,30.875 L 342.75,37.09375 C 342.74999,37.486645 342.61256,37.824933 342.34375,38.09375 C 342.07492,38.362575 341.73663,38.468753 341.34375,38.46875 L 337.6875,38.46875 C 337.29459,38.468752 336.95631,38.362573 336.6875,38.09375 C 336.41868,37.824935 336.28124,37.486645 336.28125,37.09375 L 336.28125,30.875 C 336.28125,30.482119 336.41867,30.143831 336.6875,29.875 C 336.95632,29.606191 337.2946,29.500012 337.6875,29.5 z M 378.1875,29.5 L 382.15625,29.5 C 382.50779,29.500012 382.80378,29.59562 383.03125,29.84375 C 383.27939,30.071224 383.40624,30.367227 383.40625,30.71875 L 383.40625,32.625 L 376.9375,32.625 L 376.9375,30.71875 C 376.9375,30.367226 377.05378,30.071225 377.28125,29.84375 C 377.5294,29.595619 377.83596,29.500012 378.1875,29.5 z M 405.625,29.5 L 409.59375,29.5 C 409.94529,29.500012 410.24128,29.59562 410.46875,29.84375 C 410.71689,30.071224 410.84374,30.367227 410.84375,30.71875 L 410.84375,32.625 L 404.375,32.625 L 404.375,30.71875 C 404.375,30.367226 404.49128,30.071225 404.71875,29.84375 C 404.9669,29.595619 405.27346,29.500012 405.625,29.5 z M 321.09375,34.78125 L 324.78125,34.78125 C 325.17414,34.781256 325.48117,34.918686 325.75,35.1875 C 326.0188,35.456327 326.15624,35.794614 326.15625,36.1875 L 326.15625,37.09375 C 326.15623,37.486645 326.01881,37.824933 325.75,38.09375 C 325.48116,38.362575 325.17413,38.468753 324.78125,38.46875 L 321.09375,38.46875 C 320.70087,38.468752 320.39382,38.362573 320.125,38.09375 C 319.85618,37.824935 319.71875,37.486645 319.71875,37.09375 L 319.71875,36.1875 C 319.71874,35.794613 319.85618,35.456326 320.125,35.1875 C 320.39382,34.918687 320.70085,34.781257 321.09375,34.78125 z M 418.9375,37 C 418.58597,37.000003 418.27939,37.126862 418.03125,37.375 C 417.80379,37.602467 417.6875,37.867219 417.6875,38.21875 L 417.6875,40.09375 C 417.68749,40.445284 417.80378,40.751859 418.03125,41 C 418.27939,41.227463 418.58596,41.34375 418.9375,41.34375 L 419.625,41.34375 C 419.97654,41.34375 420.27253,41.227463 420.5,41 C 420.74814,40.751858 420.87499,40.445285 420.875,40.09375 L 420.875,38.21875 C 420.87499,37.867219 420.74814,37.602467 420.5,37.375 C 420.27254,37.126862 419.97653,37.000004 419.625,37 L 418.9375,37 z"
       transform="translate(0,1)" />
    <text
       xml:space="preserve"
       style="font-size:31.01772308px;font-style:normal;font-variant:normal;font-weight:bold;font-stretch:normal;text-indent:0;text-align:center;text-decoration:none;line-height:100%;letter-spacing:normal;word-spacing:normal;text-transform:none;direction:ltr;block-progression:tb;writing-mode:lr-tb;text-anchor:middle;opacity:1;fill:#ffffff;fill-opacity:1;fill-rule:nonzero;stroke:none;stroke-width:1px;stroke-linecap:butt;stroke-linejoin:miter;marker:none;marker-start:none;marker-mid:none;marker-end:none;stroke-miterlimit:4;stroke-dasharray:none;stroke-dashoffset:0;stroke-opacity:1;visibility:visible;display:inline;overflow:visible;enable-background:accumulate;font-family:ChollaWideBoldOS;-inkscape-font-specification:ChollaWideBoldOS Bold"
       x="321.9686"
       y="40.335766"
       id="text6775"
       sodipodi:linespacing="100%"><tspan
         sodipodi:role="line"
         x="321.9686"
         y="40.335766"
         id="tspan5244">download here!</tspan></text>
  </g>
</svg>
