<?xml version="1.0" encoding="UTF-8" standalone="no"?>
<!-- Created with Inkscape (http://www.inkscape.org/) -->
<svg
   xmlns:dc="http://purl.org/dc/elements/1.1/"
   xmlns:cc="http://creativecommons.org/ns#"
   xmlns:rdf="http://www.w3.org/1999/02/22-rdf-syntax-ns#"
   xmlns:svg="http://www.w3.org/2000/svg"
   xmlns="http://www.w3.org/2000/svg"
   xmlns:xlink="http://www.w3.org/1999/xlink"
   xmlns:sodipodi="http://sodipodi.sourceforge.net/DTD/sodipodi-0.dtd"
   xmlns:inkscape="http://www.inkscape.org/namespaces/inkscape"
   width="728"
   height="90"
   id="svg2"
   sodipodi:version="0.32"
   inkscape:version="0.46"
   version="1.0"
   sodipodi:docname="getit-728x90.svg"
   inkscape:output_extension="org.inkscape.output.svg.inkscape">
  <defs
     id="defs4">
    <inkscape:perspective
       sodipodi:type="inkscape:persp3d"
       inkscape:vp_x="-50 : 600 : 1"
       inkscape:vp_y="0 : 1000 : 0"
       inkscape:vp_z="700 : 600 : 1"
       inkscape:persp3d-origin="300 : 400 : 1"
       id="perspective5358" />
    <linearGradient
       inkscape:collect="always"
       id="linearGradient7158">
      <stop
         style="stop-color:#27b800;stop-opacity:1"
         offset="0"
         id="stop7160" />
      <stop
         style="stop-color:#1b6306;stop-opacity:1"
         offset="1"
         id="stop7162" />
    </linearGradient>
    <radialGradient
       inkscape:collect="always"
       xlink:href="#linearGradient7158"
       id="radialGradient7164"
       cx="952.84875"
       cy="-480.80652"
       fx="1274.099"
       fy="-479.64099"
       r="400"
       gradientTransform="matrix(2.8261211e-3,-0.1647324,0.5030296,7.9677646e-4,699.32855,206.03817)"
       gradientUnits="userSpaceOnUse" />
    <linearGradient
       inkscape:collect="always"
       id="linearGradient9016">
      <stop
         style="stop-color:#24a701;stop-opacity:1;"
         offset="0"
         id="stop9018" />
      <stop
         style="stop-color:#24a701;stop-opacity:0;"
         offset="1"
         id="stop9020" />
    </linearGradient>
    <radialGradient
       inkscape:collect="always"
       xlink:href="#linearGradient9016"
       id="radialGradient9024"
       gradientUnits="userSpaceOnUse"
       gradientTransform="matrix(1.8476051,0,0,1.8476051,-84.760505,-84.760505)"
       cx="79.423729"
       cy="72.409096"
       fx="79.423729"
       fy="72.409096"
       r="69.84375" />
    <linearGradient
       inkscape:collect="always"
       id="linearGradient9026">
      <stop
         id="stop9030"
         offset="0"
         style="stop-color:#ffffff;stop-opacity:0;" />
      <stop
         id="stop9028"
         offset="1"
         style="stop-color:#ffffff;stop-opacity:1;" />
    </linearGradient>
    <radialGradient
       inkscape:collect="always"
       xlink:href="#linearGradient9026"
       id="radialGradient9032"
       cx="154.76555"
       cy="79.415726"
       fx="154.76555"
       fy="79.415726"
       r="69.938171"
       gradientUnits="userSpaceOnUse"
       gradientTransform="matrix(0.5575867,0,0,0.5575867,68.470323,35.134566)" />
    <linearGradient
       id="linearGradient9038"
       inkscape:collect="always">
      <stop
         style="stop-color:#24a701;stop-opacity:0;"
         offset="0"
         id="stop9042" />
      <stop
         style="stop-color:#24a701;stop-opacity:1;"
         offset="1"
         id="stop9040" />
    </linearGradient>
    <radialGradient
       inkscape:collect="always"
       xlink:href="#linearGradient9038"
       id="radialGradient9022"
       cx="79.423729"
       cy="72.409096"
       fx="79.423729"
       fy="72.409096"
       r="69.84375"
       gradientUnits="userSpaceOnUse"
       gradientTransform="matrix(1.8476051,0,0,1.8476051,-84.760505,-84.760505)" />
    <radialGradient
       inkscape:collect="always"
       xlink:href="#linearGradient7150"
       id="radialGradient8683"
       gradientUnits="userSpaceOnUse"
       gradientTransform="matrix(0.7435303,0,0,0.1539332,96.35885,425.14301)"
       cx="625.98718"
       cy="169.35002"
       fx="625.98718"
       fy="169.35002"
       r="408.5" />
    <linearGradient
       inkscape:collect="always"
       id="linearGradient7150">
      <stop
         style="stop-color:#ffffff;stop-opacity:1;"
         offset="0"
         id="stop7152" />
      <stop
         style="stop-color:#ffffff;stop-opacity:0;"
         offset="1"
         id="stop7154" />
    </linearGradient>
    <radialGradient
       inkscape:collect="always"
       xlink:href="#linearGradient7150"
       id="radialGradient7156"
       cx="364.41531"
       cy="208.24603"
       fx="364.41531"
       fy="208.24603"
       r="408.5"
       gradientTransform="matrix(1.6046904,0,0,0.2828371,-465.04882,474.60029)"
       gradientUnits="userSpaceOnUse" />
    <linearGradient
       inkscape:collect="always"
       id="linearGradient8721">
      <stop
         style="stop-color:#d7dcdd;stop-opacity:1;"
         offset="0"
         id="stop8723" />
      <stop
         style="stop-color:#ffffff;stop-opacity:1"
         offset="1"
         id="stop8725" />
    </linearGradient>
    <linearGradient
       id="linearGradient8783"
       inkscape:collect="always">
      <stop
         id="stop8785"
         offset="0"
         style="stop-color:#9eaaac;stop-opacity:1" />
      <stop
         id="stop8787"
         offset="1"
         style="stop-color:#ffffff;stop-opacity:1" />
    </linearGradient>
    <linearGradient
       inkscape:collect="always"
       xlink:href="#linearGradient8783"
       id="linearGradient8727"
       x1="401.30548"
       y1="500.9314"
       x2="401.30548"
       y2="463.56079"
       gradientUnits="userSpaceOnUse" />
    <filter
       inkscape:collect="always"
       id="filter8779"
       x="-0.021823626"
       width="1.0436473"
       y="-0.11597504"
       height="1.23195">
      <feGaussianBlur
         inkscape:collect="always"
         stdDeviation="2.2672686"
         id="feGaussianBlur8781" />
    </filter>
    <linearGradient
       inkscape:collect="always"
       id="linearGradient7132">
      <stop
         style="stop-color:#444d50;stop-opacity:1"
         offset="0"
         id="stop7134" />
      <stop
         id="stop7140"
         offset="0.87155616"
         style="stop-color:#262c2d;stop-opacity:1" />
      <stop
         style="stop-color:#3c4447;stop-opacity:1"
         offset="1"
         id="stop7136" />
    </linearGradient>
    <linearGradient
       inkscape:collect="always"
       xlink:href="#linearGradient7132"
       id="linearGradient7138"
       x1="472"
       y1="-47.512444"
       x2="472"
       y2="113.2215"
       gradientUnits="userSpaceOnUse"
       gradientTransform="translate(-72,421)" />
    <filter
       inkscape:collect="always"
       id="filter7144">
      <feGaussianBlur
         inkscape:collect="always"
         stdDeviation="2.4"
         id="feGaussianBlur7146" />
    </filter>
    <inkscape:perspective
       sodipodi:type="inkscape:persp3d"
       inkscape:vp_x="-50 : 600 : 1"
       inkscape:vp_y="0 : 1000 : 0"
       inkscape:vp_z="700 : 600 : 1"
       inkscape:persp3d-origin="300 : 400 : 1"
       id="perspective10" />
    <radialGradient
       inkscape:collect="always"
       xlink:href="#linearGradient9026"
       id="radialGradient5852"
       gradientUnits="userSpaceOnUse"
       gradientTransform="matrix(0.5575867,0,0,0.5575867,68.470323,35.134566)"
       cx="154.76555"
       cy="79.415726"
       fx="154.76555"
       fy="79.415726"
       r="69.938171" />
    <linearGradient
       inkscape:collect="always"
       xlink:href="#linearGradient8721"
       id="linearGradient5876"
       gradientUnits="userSpaceOnUse"
       x1="276.63681"
       y1="487.02036"
       x2="525.97412"
       y2="487.02036" />
    <linearGradient
       inkscape:collect="always"
       xlink:href="#linearGradient8721"
       id="linearGradient5878"
       gradientUnits="userSpaceOnUse"
       x1="276.63681"
       y1="487.02036"
       x2="525.97412"
       y2="487.02036" />
    <linearGradient
       inkscape:collect="always"
       xlink:href="#linearGradient8721"
       id="linearGradient5880"
       gradientUnits="userSpaceOnUse"
       x1="276.63681"
       y1="487.02036"
       x2="525.97412"
       y2="487.02036" />
    <linearGradient
       inkscape:collect="always"
       xlink:href="#linearGradient8721"
       id="linearGradient5882"
       gradientUnits="userSpaceOnUse"
       x1="276.63681"
       y1="487.02036"
       x2="525.97412"
       y2="487.02036" />
    <linearGradient
       inkscape:collect="always"
       xlink:href="#linearGradient8721"
       id="linearGradient5884"
       gradientUnits="userSpaceOnUse"
       x1="276.63681"
       y1="487.02036"
       x2="525.97412"
       y2="487.02036" />
    <linearGradient
       inkscape:collect="always"
       xlink:href="#linearGradient8721"
       id="linearGradient5886"
       gradientUnits="userSpaceOnUse"
       x1="276.63681"
       y1="487.02036"
       x2="525.97412"
       y2="487.02036" />
    <linearGradient
       inkscape:collect="always"
       xlink:href="#linearGradient8721"
       id="linearGradient5888"
       gradientUnits="userSpaceOnUse"
       x1="276.63681"
       y1="487.02036"
       x2="525.97412"
       y2="487.02036" />
    <linearGradient
       inkscape:collect="always"
       xlink:href="#linearGradient8721"
       id="linearGradient5890"
       gradientUnits="userSpaceOnUse"
       x1="276.63681"
       y1="487.02036"
       x2="525.97412"
       y2="487.02036" />
    <linearGradient
       inkscape:collect="always"
       xlink:href="#linearGradient8721"
       id="linearGradient5892"
       gradientUnits="userSpaceOnUse"
       x1="276.63681"
       y1="487.02036"
       x2="525.97412"
       y2="487.02036" />
    <linearGradient
       inkscape:collect="always"
       xlink:href="#linearGradient8783"
       id="linearGradient5894"
       gradientUnits="userSpaceOnUse"
       x1="401.30548"
       y1="500.9314"
       x2="401.30548"
       y2="463.56079" />
    <filter
       inkscape:collect="always"
       id="filter6764"
       x="-0.1087833"
       width="1.2175666"
       y="-0.37785858"
       height="1.7557172">
      <feGaussianBlur
         inkscape:collect="always"
         stdDeviation="1.3923695"
         id="feGaussianBlur6766" />
    </filter>
    <filter
       inkscape:collect="always"
       id="filter6047">
      <feGaussianBlur
         inkscape:collect="always"
         stdDeviation="0.8636605"
         id="feGaussianBlur6049" />
    </filter>
  </defs>
  <sodipodi:namedview
     id="base"
     pagecolor="#ffffff"
     bordercolor="#e5e5e5"
     borderopacity="1"
     gridtolerance="10000"
     guidetolerance="10"
     objecttolerance="10"
     inkscape:pageopacity="0.0"
     inkscape:pageshadow="2"
     inkscape:zoom="1"
     inkscape:cx="168.27634"
     inkscape:cy="-6.8307601"
     inkscape:document-units="px"
     inkscape:current-layer="layer1"
     showgrid="false"
     borderlayer="true"
     inkscape:showpageshadow="false"
     inkscape:window-width="1242"
     inkscape:window-height="962"
     inkscape:window-x="0"
     inkscape:window-y="129">
    <inkscape:grid
       type="xygrid"
       id="grid6773"
       enabled="true"
       visible="true" />
  </sodipodi:namedview>
  <metadata
     id="metadata7">
    <rdf:RDF>
      <cc:Work
         rdf:about="">
        <dc:format>image/svg+xml</dc:format>
        <dc:type
           rdf:resource="http://purl.org/dc/dcmitype/StillImage" />
        <dc:title />
        <dc:date />
        <dc:creator>
          <cc:Agent>
            <dc:title />
          </cc:Agent>
        </dc:creator>
        <dc:rights>
          <cc:Agent>
            <dc:title />
          </cc:Agent>
        </dc:rights>
        <dc:publisher>
          <cc:Agent>
            <dc:title />
          </cc:Agent>
        </dc:publisher>
        <dc:identifier />
        <dc:source />
        <dc:relation />
        <dc:language />
        <dc:subject>
          <rdf:Bag />
        </dc:subject>
        <dc:coverage />
        <dc:description />
        <dc:contributor>
          <cc:Agent>
            <dc:title />
          </cc:Agent>
        </dc:contributor>
        <cc:license
           rdf:resource="" />
      </cc:Work>
    </rdf:RDF>
  </metadata>
  <g
     inkscape:label="Layer 1"
     inkscape:groupmode="layer"
     id="layer1">
    <rect
       style="opacity:1;fill:url(#radialGradient7164);fill-opacity:1;fill-rule:evenodd;stroke:none;stroke-width:1;stroke-linecap:butt;stroke-linejoin:miter;marker:none;marker-start:none;marker-mid:none;marker-end:none;stroke-miterlimit:4;stroke-dasharray:none;stroke-dashoffset:0;stroke-opacity:1;visibility:visible;display:inline;overflow:visible;filter:url(#filter9012);enable-background:accumulate"
       id="rect5337"
       width="765.33337"
       height="314"
       x="-26.994793"
       y="-39" />
    <g
       id="g9001"
       inkscape:label="Layer 1"
       transform="matrix(1.7516778,0,0,1.7516778,82.004088,-146.66778)"
       style="opacity:0.10416667;fill:url(#radialGradient9022);fill-opacity:1;stroke:url(#radialGradient9032);stroke-width:0.57088119;stroke-miterlimit:4;stroke-dasharray:none;stroke-opacity:1;filter:url(#filter9012)">
      <path
         id="path2445"
         d="M 100,30.15625 C 61.42932,30.15625 30.15625,61.425758 30.15625,100 C 30.15625,138.57424 61.429322,169.84375 100,169.84375 C 138.57068,169.84375 169.84374,138.57424 169.84375,100 C 169.84375,61.42576 138.57068,30.15625 100,30.15625 z M 100.33443,39.828902 C 133.56795,39.828902 160.53125,66.770045 160.53125,100 C 160.53125,133.23353 133.56439,160.1711 100.33443,160.1711 C 82.389609,160.1711 66.287227,152.30637 55.263985,139.84824 C 59.796476,136.33049 67.379614,137.1887 76.71875,138.25328 C 81.194275,138.76243 86.296203,139.34487 91.562155,139.46236 C 106.27405,139.54781 122.10349,136.86276 131.87345,132.59375 C 138.18974,129.82369 142.2338,127.99948 144.76174,125.69941 C 145.67323,124.95171 146.15189,123.70262 146.63968,122.4066 L 146.9741,121.53194 C 147.38356,120.48516 147.97116,118.23268 148.23463,117.00432 C 148.35213,116.46668 148.4098,115.88852 148.02883,115.58943 L 146.6654,115.84669 C 142.37858,118.41735 131.66827,123.31339 121.63484,123.51278 C 109.20165,123.77269 84.142747,110.99635 81.529351,109.64693 L 81.272099,109.33823 C 80.645455,107.84282 76.895331,98.94015 76.101347,97.067334 C 94.138736,108.9451 109.09321,115.51941 120.55439,116.54126 C 133.29735,117.6735 143.23739,110.71627 147.4886,107.74327 C 148.3182,107.17715 148.95227,106.73322 149.21219,106.63709 L 149.49517,106.17403 C 148.79019,101.69494 142.10444,80.020513 137.06992,74.81509 C 135.67421,73.387338 134.56456,71.99784 132.31077,70.673343 C 114.08824,60.052429 70.821318,53.655843 68.795407,53.360325 L 68.460981,53.463225 L 68.332355,53.746202 C 68.332355,53.746202 68.170081,62.730623 68.152279,63.727555 C 66.667557,63.236211 62.063794,61.728958 55.469786,59.920235 C 64.073519,49.274391 77.258819,39.828903 100.33443,39.828902 z M 116.23256,71.676623 C 116.53961,71.672015 116.84957,71.666386 117.15867,71.676623 C 127.36656,72.043352 135.38655,80.64108 135.03764,90.841851 C 134.85605,95.776676 132.77552,100.3362 129.17231,103.70442 C 125.55841,107.09044 120.86144,108.85532 115.89814,108.6951 C 105.70804,108.31413 97.68804,99.716403 98.019164,89.529869 C 98.193628,84.587921 100.28565,79.999105 103.91022,76.641575 C 107.2949,73.467184 111.62686,71.745742 116.23256,71.676623 z M 115.74378,77.130352 C 112.77085,77.311095 109.96536,78.518224 107.76899,80.577521 C 105.26598,82.927436 103.78906,86.109053 103.67869,89.555594 C 103.4437,96.676553 109.01582,102.66919 116.12966,102.93267 C 119.58688,103.03948 122.86633,101.82829 125.39071,99.485497 C 127.90797,97.124898 129.3742,93.914001 129.48101,90.481699 C 129.71956,83.350056 124.12172,77.379586 117.00432,77.130352 C 116.5735,77.11433 116.16849,77.104532 115.74378,77.130352 z M 119.1395,83.587362 C 122.30121,83.587362 124.85049,85.305483 124.85048,87.420407 C 124.85048,89.524655 122.30121,91.253451 119.1395,91.253453 C 115.96711,91.253453 113.4028,89.521088 113.4028,87.420407 C 113.4028,85.305485 115.96711,83.587364 119.1395,83.587362 z"
         style="font-size:20.48839951px;fill:url(#radialGradient9024);fill-opacity:1;fill-rule:evenodd;stroke:url(#radialGradient5852);stroke-width:0.57088119;stroke-miterlimit:4;stroke-dasharray:none;stroke-opacity:1;font-family:TrebuchetMS-Bold" />
    </g>
    <g
       style="opacity:1"
       id="g8789"
       transform="translate(-538.32813,-449)">
      <rect
         style="opacity:0.5625;fill:#000000;fill-opacity:1;fill-rule:evenodd;stroke:none;stroke-width:1;stroke-linecap:butt;stroke-linejoin:miter;marker:none;marker-start:none;marker-mid:none;marker-end:none;stroke-miterlimit:4;stroke-dasharray:none;stroke-dashoffset:0;stroke-opacity:1;visibility:visible;display:inline;overflow:visible;filter:url(#filter7144);enable-background:accumulate"
         id="rect7142"
         width="843"
         height="117"
         x="-88"
         y="413"
         rx="16"
         ry="16" />
      <rect
         y="410"
         x="-88"
         height="117"
         width="843"
         id="rect7130"
         style="opacity:1;fill:url(#linearGradient7138);fill-opacity:1;fill-rule:evenodd;stroke:none;stroke-width:1;stroke-linecap:butt;stroke-linejoin:miter;marker:none;marker-start:none;marker-mid:none;marker-end:none;stroke-miterlimit:4;stroke-dasharray:none;stroke-dashoffset:0;stroke-opacity:1;visibility:visible;display:inline;overflow:visible;enable-background:accumulate"
         rx="14"
         ry="14" />
      <g
         id="g5854"
         transform="translate(-95,-3)">
        <g
           transform="matrix(0.3796416,0,0,0.3796416,568.43703,307.17325)"
           id="g8747"
           style="fill:#000000;fill-opacity:1;display:inline;filter:url(#filter8779)">
          <path
             d="M 525.54912,468.81976 L 525.38699,468.81976 C 525.19961,468.81976 525.03715,468.6573 525.03715,468.46991 L 525.03715,465.95923 L 524.48744,466.79612 C 524.42506,466.88343 524.31251,466.92083 524.21273,466.92083 L 524.15005,466.92083 C 524.05027,466.92083 523.93771,466.88343 523.87536,466.79612 L 523.31315,465.95923 L 523.31315,468.46991 C 523.31315,468.6573 523.15069,468.81976 522.95083,468.81976 L 522.7887,468.81976 C 522.60132,468.81976 522.43886,468.6573 522.43886,468.46991 L 522.43886,465.47188 L 520.75226,465.47188 L 520.75226,468.46991 C 520.75226,468.6573 520.57732,468.81976 520.37779,468.81976 L 520.22781,468.81976 C 520.0404,468.81976 519.87797,468.6573 519.87797,468.46991 L 519.87797,465.47188 L 518.61637,465.47188 C 518.42899,465.47188 518.279,465.34681 518.279,465.14725 L 518.279,464.97235 C 518.279,464.77249 518.42899,464.64743 518.61637,464.64743 L 523.03843,464.64743 C 523.21337,464.64743 523.32563,464.70981 523.38831,464.80989 L 524.2252,466.07148 L 525.0621,464.80989 C 525.12445,464.72228 525.22453,464.64743 525.41194,464.64743 L 525.97415,464.64743 L 525.97415,468.49487 C 525.97415,468.68225 525.79921,468.84471 525.59935,468.84471"
             id="path8749"
             style="fill:#000000;fill-opacity:1;stroke:none" />
          <path
             d="M 380.95621,463.5608 C 374.91023,463.5608 371.56235,468.68225 371.56235,472.22999 L 371.56235,476.77712 C 371.56235,481.9862 375.82195,485.22153 379.78195,485.22153 L 393.64778,485.22153 C 395.38422,485.22153 395.74654,486.35806 395.74654,487.31999 L 395.74654,490.25568 C 395.74654,490.56779 395.69667,493.39122 393.64778,493.39122 L 374.72285,493.39122 C 372.84887,493.39122 371.48752,494.69022 371.48752,496.47656 L 371.48752,497.28854 C 371.48752,499.06241 372.83639,500.37421 374.72285,500.37421 L 394.68483,500.37421 C 399.89392,500.37421 403.26675,496.75128 403.26675,491.13 L 403.26675,486.22085 C 403.26675,480.94912 399.46925,478.58842 395.70914,478.58842 L 382.06812,478.58842 C 380.00676,478.58842 379.08256,477.06428 379.08256,475.96517 L 379.08256,473.26677 C 379.08256,471.55558 380.2191,470.58118 382.21778,470.58118 L 397.33303,470.58118 C 399.18176,470.58118 400.56835,469.25693 400.56835,467.49551 L 400.56835,466.68357 C 400.56835,464.93462 399.1568,463.5982 397.27068,463.5982 L 380.98116,463.5982"
             id="path8751"
             style="fill:#000000;fill-opacity:1;stroke:none" />
          <path
             d="M 437.70666,463.5608 C 435.92031,463.5608 434.47133,465.00978 434.47133,466.79612 L 434.47133,490.03086 C 434.47133,491.87956 432.9597,493.37875 431.12345,493.37875 L 420.58025,493.37875 C 418.73155,493.37875 417.23233,491.87956 417.23233,490.03086 L 417.23233,466.79612 C 417.23233,465.00978 415.79586,463.5608 413.99704,463.5608 L 412.97273,463.5608 C 411.17391,463.5608 409.7374,464.98482 409.7374,466.79612 L 409.7374,490.91763 C 409.7374,496.52647 414.14702,500.59899 420.2304,500.59899 L 431.49824,500.59899 C 437.58162,500.59899 441.99121,496.52647 441.99121,490.91763 L 441.99121,466.79612 C 441.99121,464.98482 440.56722,463.5608 438.75592,463.5608 L 437.73161,463.5608"
             id="path8753"
             style="fill:#000000;fill-opacity:1;stroke:none" />
          <path
             d="M 457.90593,463.5608 C 451.85998,463.5608 448.5121,468.68225 448.5121,472.22999 L 448.5121,476.77712 C 448.5121,481.9862 452.78418,485.22153 456.73167,485.22153 L 470.5975,485.22153 C 472.33397,485.22153 472.70877,486.35806 472.70877,487.31999 L 472.70877,490.25568 C 472.70877,490.56779 472.64641,493.39122 470.5975,493.39122 L 451.6726,493.39122 C 449.79862,493.39122 448.43727,494.69022 448.43727,496.47656 L 448.43727,497.28854 C 448.43727,499.06241 449.79862,500.37421 451.6726,500.37421 L 471.62211,500.37421 C 476.84367,500.37421 480.2037,496.75128 480.2037,491.13 L 480.2037,486.22085 C 480.2037,480.94912 476.419,478.58842 472.64641,478.58842 L 459.00507,478.58842 C 456.94403,478.58842 456.01983,477.06428 456.01983,475.96517 L 456.01983,473.26677 C 456.01983,471.55558 457.15637,470.58118 459.14257,470.58118 L 474.25782,470.58118 C 476.09408,470.58118 477.49318,469.25693 477.49318,467.49551 L 477.49318,466.68357 C 477.49318,464.93462 476.0816,463.5982 474.1827,463.5982 L 457.90593,463.5982"
             id="path8755"
             style="fill:#000000;fill-opacity:1;stroke:none" />
          <path
             d="M 489.79745,463.5608 C 488.0114,463.5608 486.63725,464.88471 486.63725,466.64614 L 486.63725,497.28854 C 486.63725,499.03745 487.9612,500.37421 489.7351,500.37421 L 514.15658,500.37421 C 516.03056,500.37421 517.39223,499.07488 517.39223,497.28854 L 517.39223,496.47656 C 517.39223,494.70269 516.04303,493.39122 514.15658,493.39122 C 514.15658,493.39122 495.05674,493.39122 494.15716,493.39122 C 494.15716,492.59175 494.15716,486.38331 494.15716,485.58385 C 495.05674,485.58385 508.81031,485.58385 508.81031,485.58385 C 510.68396,485.58385 512.04564,484.28452 512.04564,482.4857 L 512.04564,481.68623 C 512.04564,479.89989 510.68396,478.58842 508.81031,478.58842 C 508.81031,478.58842 495.05674,478.58842 494.15716,478.58842 C 494.15716,477.78895 494.15716,471.36817 494.15716,470.56871 C 495.05674,470.56871 513.14474,470.56871 513.14474,470.56871 C 515.01875,470.56871 516.3804,469.26938 516.3804,467.48303 L 516.3804,466.67109 C 516.3804,464.88471 515.01875,463.58575 513.14474,463.58575 L 489.81025,463.58575"
             id="path8757"
             style="fill:#000000;fill-opacity:1;stroke:none" />
          <path
             d="M 282.17071,478.13846 C 279.1227,478.13846 276.63682,480.51197 276.63682,483.44763 L 276.63682,495.00266 C 276.63682,497.97575 279.03525,500.39913 281.98335,500.39913 L 289.45345,500.39913 C 292.40152,500.39913 294.81243,497.97575 294.81243,495.00266 L 294.81243,483.44763 C 294.81243,480.52445 292.32658,478.13846 289.27854,478.13846 L 282.17071,478.13846 z M 280.55927,494.55271 L 280.55927,484.00984 C 280.55927,482.77289 281.5711,481.76106 282.8078,481.76106 L 288.629,481.76106 C 289.84072,481.76106 290.87751,482.78567 290.87751,484.00984 L 290.87751,494.55271 C 290.87751,495.78968 289.86568,496.80148 288.629,496.80148 L 282.75781,496.80148 C 281.52113,496.80148 280.55927,495.8146 280.55927,494.55271"
             id="path8759"
             style="fill:#000000;fill-opacity:1;stroke:none" />
          <path
             d="M 311.75149,478.00128 C 309.59034,478.00128 307.97884,478.77583 306.66719,479.40036 C 305.88023,479.77485 305.19317,480.09975 304.65604,480.09975 C 304.43119,480.09975 304.2188,479.99997 304.10636,479.82506 L 303.61919,478.87558 C 303.50676,478.62584 303.00708,478.13846 302.38252,478.13846 L 301.658,478.13846 C 300.95843,478.13846 300.38381,478.76335 300.38381,479.55001 L 300.38381,508.84354 C 300.38381,509.75526 301.09585,510.4799 302.02026,510.4799 L 302.65732,510.4799 C 303.55675,510.4799 304.29378,509.74279 304.29378,508.84354 L 304.29378,499.12476 C 304.29378,498.83759 304.48113,498.53763 304.65604,498.53763 C 305.19317,498.53763 305.88023,498.83759 306.6797,499.21239 C 307.97884,499.79952 309.60282,500.54878 311.76396,500.54878 L 312.4384,500.54878 C 316.24841,500.54878 318.62189,498.3755 318.62189,494.87763 L 318.62189,483.69739 C 318.62189,480.24973 316.1985,478.01376 312.4384,478.01376 L 311.75149,478.01376 L 311.75149,478.01376 L 311.75149,478.00128 z M 304.28127,494.3279 L 304.28127,484.24712 C 304.28127,482.86053 305.36808,481.77354 306.75465,481.77354 L 312.20111,481.77354 C 313.58774,481.77354 314.67437,482.86053 314.67437,484.24712 L 314.67437,494.3279 C 314.67437,495.68957 313.57526,496.80148 312.20111,496.80148 L 306.75465,496.80148 C 305.39306,496.80148 304.28127,495.68957 304.28127,494.3279"
             id="path8761"
             style="fill:#000000;fill-opacity:1;stroke:none" />
          <path
             d="M 329.68954,478.13846 C 326.6416,478.13846 324.15586,480.51197 324.15586,483.44763 L 324.15586,494.91503 C 324.15586,497.88814 326.56677,500.41161 329.41482,500.41161 L 337.12245,500.41161 C 338.07157,500.41161 338.75881,499.76179 338.75881,498.86255 L 338.75881,498.36269 C 338.75881,497.46344 338.07157,496.81396 337.12245,496.81396 L 330.80145,496.81396 C 329.02758,496.81396 328.09058,495.95181 328.09058,494.29047 C 328.09058,494.29047 328.09058,491.40502 328.09058,490.94259 C 328.60288,490.94259 339.5084,490.94259 339.5084,490.94259 C 341.33218,490.94259 342.43128,489.81853 342.43128,487.9196 L 342.43128,483.47261 C 342.43128,480.54937 339.94555,478.16374 336.89764,478.16374 L 329.70231,478.16374 L 329.68954,478.13846 z M 328.0781,483.95963 C 328.0781,482.73546 329.04003,481.76106 330.27667,481.76106 L 336.28522,481.76106 C 337.52217,481.76106 338.48379,482.72299 338.48379,483.95963 C 338.48379,483.95963 338.48379,487.07023 338.48379,487.53235 C 337.99674,487.53235 328.56548,487.53235 328.0781,487.53235 C 328.0781,487.07023 328.0781,483.95963 328.0781,483.95963"
             id="path8763"
             style="fill:#000000;fill-opacity:1;stroke:none" />
          <path
             d="M 358.32108,478.00128 C 356.17241,478.00128 354.5485,478.76335 353.2492,479.38791 C 352.43723,479.76238 351.73784,480.09975 351.17566,480.09975 C 350.9259,480.09975 350.82582,480.07479 350.63841,479.73743 L 350.18878,478.91301 C 349.93902,478.40103 349.50187,478.13846 348.90226,478.13846 L 348.26493,478.13846 C 347.50319,478.13846 346.95346,478.72559 346.95346,479.55001 L 346.95346,498.76244 C 346.95346,499.67449 347.6778,500.41161 348.58982,500.41161 L 349.22685,500.41161 C 350.12643,500.41161 350.86322,499.67449 350.86322,498.76244 L 350.86322,484.22217 C 350.86322,482.86053 351.97513,481.74858 353.3368,481.74858 L 358.78318,481.74858 C 360.14485,481.74858 361.25644,482.86053 361.25644,484.22217 L 361.25644,498.76244 C 361.25644,499.67449 361.98107,500.41161 362.89313,500.41161 L 363.53016,500.41161 C 364.42941,500.41161 365.16653,499.67449 365.16653,498.76244 L 365.16653,483.68492 C 365.16653,480.23725 362.74314,478.00128 358.98304,478.00128 L 358.29613,478.00128"
             id="path8765"
             style="fill:#000000;fill-opacity:1;stroke:none" />
        </g>
        <g
           style="fill:url(#linearGradient5894);fill-opacity:1;display:inline"
           id="g5501"
           transform="matrix(0.3796416,0,0,0.3796416,568.43703,305.17325)">
          <path
             style="fill:url(#linearGradient5876);fill-opacity:1;stroke:none"
             id="path2095"
             d="M 525.54912,468.81976 L 525.38699,468.81976 C 525.19961,468.81976 525.03715,468.6573 525.03715,468.46991 L 525.03715,465.95923 L 524.48744,466.79612 C 524.42506,466.88343 524.31251,466.92083 524.21273,466.92083 L 524.15005,466.92083 C 524.05027,466.92083 523.93771,466.88343 523.87536,466.79612 L 523.31315,465.95923 L 523.31315,468.46991 C 523.31315,468.6573 523.15069,468.81976 522.95083,468.81976 L 522.7887,468.81976 C 522.60132,468.81976 522.43886,468.6573 522.43886,468.46991 L 522.43886,465.47188 L 520.75226,465.47188 L 520.75226,468.46991 C 520.75226,468.6573 520.57732,468.81976 520.37779,468.81976 L 520.22781,468.81976 C 520.0404,468.81976 519.87797,468.6573 519.87797,468.46991 L 519.87797,465.47188 L 518.61637,465.47188 C 518.42899,465.47188 518.279,465.34681 518.279,465.14725 L 518.279,464.97235 C 518.279,464.77249 518.42899,464.64743 518.61637,464.64743 L 523.03843,464.64743 C 523.21337,464.64743 523.32563,464.70981 523.38831,464.80989 L 524.2252,466.07148 L 525.0621,464.80989 C 525.12445,464.72228 525.22453,464.64743 525.41194,464.64743 L 525.97415,464.64743 L 525.97415,468.49487 C 525.97415,468.68225 525.79921,468.84471 525.59935,468.84471" />
          <path
             style="fill:url(#linearGradient5878);fill-opacity:1;stroke:none"
             id="path2097"
             d="M 380.95621,463.5608 C 374.91023,463.5608 371.56235,468.68225 371.56235,472.22999 L 371.56235,476.77712 C 371.56235,481.9862 375.82195,485.22153 379.78195,485.22153 L 393.64778,485.22153 C 395.38422,485.22153 395.74654,486.35806 395.74654,487.31999 L 395.74654,490.25568 C 395.74654,490.56779 395.69667,493.39122 393.64778,493.39122 L 374.72285,493.39122 C 372.84887,493.39122 371.48752,494.69022 371.48752,496.47656 L 371.48752,497.28854 C 371.48752,499.06241 372.83639,500.37421 374.72285,500.37421 L 394.68483,500.37421 C 399.89392,500.37421 403.26675,496.75128 403.26675,491.13 L 403.26675,486.22085 C 403.26675,480.94912 399.46925,478.58842 395.70914,478.58842 L 382.06812,478.58842 C 380.00676,478.58842 379.08256,477.06428 379.08256,475.96517 L 379.08256,473.26677 C 379.08256,471.55558 380.2191,470.58118 382.21778,470.58118 L 397.33303,470.58118 C 399.18176,470.58118 400.56835,469.25693 400.56835,467.49551 L 400.56835,466.68357 C 400.56835,464.93462 399.1568,463.5982 397.27068,463.5982 L 380.98116,463.5982" />
          <path
             style="fill:url(#linearGradient5880);fill-opacity:1;stroke:none"
             id="path2099"
             d="M 437.70666,463.5608 C 435.92031,463.5608 434.47133,465.00978 434.47133,466.79612 L 434.47133,490.03086 C 434.47133,491.87956 432.9597,493.37875 431.12345,493.37875 L 420.58025,493.37875 C 418.73155,493.37875 417.23233,491.87956 417.23233,490.03086 L 417.23233,466.79612 C 417.23233,465.00978 415.79586,463.5608 413.99704,463.5608 L 412.97273,463.5608 C 411.17391,463.5608 409.7374,464.98482 409.7374,466.79612 L 409.7374,490.91763 C 409.7374,496.52647 414.14702,500.59899 420.2304,500.59899 L 431.49824,500.59899 C 437.58162,500.59899 441.99121,496.52647 441.99121,490.91763 L 441.99121,466.79612 C 441.99121,464.98482 440.56722,463.5608 438.75592,463.5608 L 437.73161,463.5608" />
          <path
             style="fill:url(#linearGradient5882);fill-opacity:1;stroke:none"
             id="path2101"
             d="M 457.90593,463.5608 C 451.85998,463.5608 448.5121,468.68225 448.5121,472.22999 L 448.5121,476.77712 C 448.5121,481.9862 452.78418,485.22153 456.73167,485.22153 L 470.5975,485.22153 C 472.33397,485.22153 472.70877,486.35806 472.70877,487.31999 L 472.70877,490.25568 C 472.70877,490.56779 472.64641,493.39122 470.5975,493.39122 L 451.6726,493.39122 C 449.79862,493.39122 448.43727,494.69022 448.43727,496.47656 L 448.43727,497.28854 C 448.43727,499.06241 449.79862,500.37421 451.6726,500.37421 L 471.62211,500.37421 C 476.84367,500.37421 480.2037,496.75128 480.2037,491.13 L 480.2037,486.22085 C 480.2037,480.94912 476.419,478.58842 472.64641,478.58842 L 459.00507,478.58842 C 456.94403,478.58842 456.01983,477.06428 456.01983,475.96517 L 456.01983,473.26677 C 456.01983,471.55558 457.15637,470.58118 459.14257,470.58118 L 474.25782,470.58118 C 476.09408,470.58118 477.49318,469.25693 477.49318,467.49551 L 477.49318,466.68357 C 477.49318,464.93462 476.0816,463.5982 474.1827,463.5982 L 457.90593,463.5982" />
          <path
             style="fill:url(#linearGradient5884);fill-opacity:1;stroke:none"
             id="path2103"
             d="M 489.79745,463.5608 C 488.0114,463.5608 486.63725,464.88471 486.63725,466.64614 L 486.63725,497.28854 C 486.63725,499.03745 487.9612,500.37421 489.7351,500.37421 L 514.15658,500.37421 C 516.03056,500.37421 517.39223,499.07488 517.39223,497.28854 L 517.39223,496.47656 C 517.39223,494.70269 516.04303,493.39122 514.15658,493.39122 C 514.15658,493.39122 495.05674,493.39122 494.15716,493.39122 C 494.15716,492.59175 494.15716,486.38331 494.15716,485.58385 C 495.05674,485.58385 508.81031,485.58385 508.81031,485.58385 C 510.68396,485.58385 512.04564,484.28452 512.04564,482.4857 L 512.04564,481.68623 C 512.04564,479.89989 510.68396,478.58842 508.81031,478.58842 C 508.81031,478.58842 495.05674,478.58842 494.15716,478.58842 C 494.15716,477.78895 494.15716,471.36817 494.15716,470.56871 C 495.05674,470.56871 513.14474,470.56871 513.14474,470.56871 C 515.01875,470.56871 516.3804,469.26938 516.3804,467.48303 L 516.3804,466.67109 C 516.3804,464.88471 515.01875,463.58575 513.14474,463.58575 L 489.81025,463.58575" />
          <path
             style="fill:url(#linearGradient5886);fill-opacity:1;stroke:none"
             id="path2105"
             d="M 282.17071,478.13846 C 279.1227,478.13846 276.63682,480.51197 276.63682,483.44763 L 276.63682,495.00266 C 276.63682,497.97575 279.03525,500.39913 281.98335,500.39913 L 289.45345,500.39913 C 292.40152,500.39913 294.81243,497.97575 294.81243,495.00266 L 294.81243,483.44763 C 294.81243,480.52445 292.32658,478.13846 289.27854,478.13846 L 282.17071,478.13846 z M 280.55927,494.55271 L 280.55927,484.00984 C 280.55927,482.77289 281.5711,481.76106 282.8078,481.76106 L 288.629,481.76106 C 289.84072,481.76106 290.87751,482.78567 290.87751,484.00984 L 290.87751,494.55271 C 290.87751,495.78968 289.86568,496.80148 288.629,496.80148 L 282.75781,496.80148 C 281.52113,496.80148 280.55927,495.8146 280.55927,494.55271" />
          <path
             style="fill:url(#linearGradient5888);fill-opacity:1;stroke:none"
             id="path2107"
             d="M 311.75149,478.00128 C 309.59034,478.00128 307.97884,478.77583 306.66719,479.40036 C 305.88023,479.77485 305.19317,480.09975 304.65604,480.09975 C 304.43119,480.09975 304.2188,479.99997 304.10636,479.82506 L 303.61919,478.87558 C 303.50676,478.62584 303.00708,478.13846 302.38252,478.13846 L 301.658,478.13846 C 300.95843,478.13846 300.38381,478.76335 300.38381,479.55001 L 300.38381,508.84354 C 300.38381,509.75526 301.09585,510.4799 302.02026,510.4799 L 302.65732,510.4799 C 303.55675,510.4799 304.29378,509.74279 304.29378,508.84354 L 304.29378,499.12476 C 304.29378,498.83759 304.48113,498.53763 304.65604,498.53763 C 305.19317,498.53763 305.88023,498.83759 306.6797,499.21239 C 307.97884,499.79952 309.60282,500.54878 311.76396,500.54878 L 312.4384,500.54878 C 316.24841,500.54878 318.62189,498.3755 318.62189,494.87763 L 318.62189,483.69739 C 318.62189,480.24973 316.1985,478.01376 312.4384,478.01376 L 311.75149,478.01376 L 311.75149,478.01376 L 311.75149,478.00128 z M 304.28127,494.3279 L 304.28127,484.24712 C 304.28127,482.86053 305.36808,481.77354 306.75465,481.77354 L 312.20111,481.77354 C 313.58774,481.77354 314.67437,482.86053 314.67437,484.24712 L 314.67437,494.3279 C 314.67437,495.68957 313.57526,496.80148 312.20111,496.80148 L 306.75465,496.80148 C 305.39306,496.80148 304.28127,495.68957 304.28127,494.3279" />
          <path
             style="fill:url(#linearGradient5890);fill-opacity:1;stroke:none"
             id="path2109"
             d="M 329.68954,478.13846 C 326.6416,478.13846 324.15586,480.51197 324.15586,483.44763 L 324.15586,494.91503 C 324.15586,497.88814 326.56677,500.41161 329.41482,500.41161 L 337.12245,500.41161 C 338.07157,500.41161 338.75881,499.76179 338.75881,498.86255 L 338.75881,498.36269 C 338.75881,497.46344 338.07157,496.81396 337.12245,496.81396 L 330.80145,496.81396 C 329.02758,496.81396 328.09058,495.95181 328.09058,494.29047 C 328.09058,494.29047 328.09058,491.40502 328.09058,490.94259 C 328.60288,490.94259 339.5084,490.94259 339.5084,490.94259 C 341.33218,490.94259 342.43128,489.81853 342.43128,487.9196 L 342.43128,483.47261 C 342.43128,480.54937 339.94555,478.16374 336.89764,478.16374 L 329.70231,478.16374 L 329.68954,478.13846 z M 328.0781,483.95963 C 328.0781,482.73546 329.04003,481.76106 330.27667,481.76106 L 336.28522,481.76106 C 337.52217,481.76106 338.48379,482.72299 338.48379,483.95963 C 338.48379,483.95963 338.48379,487.07023 338.48379,487.53235 C 337.99674,487.53235 328.56548,487.53235 328.0781,487.53235 C 328.0781,487.07023 328.0781,483.95963 328.0781,483.95963" />
          <path
             style="fill:url(#linearGradient5892);fill-opacity:1;stroke:none"
             id="path2111"
             d="M 358.32108,478.00128 C 356.17241,478.00128 354.5485,478.76335 353.2492,479.38791 C 352.43723,479.76238 351.73784,480.09975 351.17566,480.09975 C 350.9259,480.09975 350.82582,480.07479 350.63841,479.73743 L 350.18878,478.91301 C 349.93902,478.40103 349.50187,478.13846 348.90226,478.13846 L 348.26493,478.13846 C 347.50319,478.13846 346.95346,478.72559 346.95346,479.55001 L 346.95346,498.76244 C 346.95346,499.67449 347.6778,500.41161 348.58982,500.41161 L 349.22685,500.41161 C 350.12643,500.41161 350.86322,499.67449 350.86322,498.76244 L 350.86322,484.22217 C 350.86322,482.86053 351.97513,481.74858 353.3368,481.74858 L 358.78318,481.74858 C 360.14485,481.74858 361.25644,482.86053 361.25644,484.22217 L 361.25644,498.76244 C 361.25644,499.67449 361.98107,500.41161 362.89313,500.41161 L 363.53016,500.41161 C 364.42941,500.41161 365.16653,499.67449 365.16653,498.76244 L 365.16653,483.68492 C 365.16653,480.23725 362.74314,478.00128 358.98304,478.00128 L 358.29613,478.00128" />
        </g>
      </g>
      <path
         id="path7148"
         d="M -73,525.5 L 743,525.5"
         style="opacity:0.375;fill:none;fill-opacity:1;fill-rule:evenodd;stroke:url(#radialGradient7156);stroke-width:1;stroke-linecap:butt;stroke-linejoin:miter;marker:none;marker-start:none;marker-mid:none;marker-end:none;stroke-miterlimit:4;stroke-dasharray:none;stroke-dashoffset:0;stroke-opacity:1;visibility:visible;display:inline;overflow:visible;enable-background:accumulate" />
      <path
         style="opacity:0.47395833;fill:none;fill-opacity:1;fill-rule:evenodd;stroke:url(#radialGradient8683);stroke-width:2;stroke-linecap:butt;stroke-linejoin:miter;marker:none;marker-start:none;marker-mid:none;marker-end:none;stroke-miterlimit:4;stroke-dasharray:none;stroke-dashoffset:0;stroke-opacity:1;visibility:visible;display:inline;overflow:visible;enable-background:accumulate"
         d="M -62,450.5 L 754,450.5"
         id="path8679" />
      <g
         id="g6768"
         transform="translate(-62.589112,-6.978496)">
        <path
           transform="matrix(0.9769813,0,0,0.9769813,-3.7547751,25.745184)"
           d="M 764.84375,472.46875 C 764.73205,472.46875 764.61168,472.50046 764.5,472.5625 C 764.38833,472.61216 764.31204,472.67555 764.25,472.75 L 762.1875,475 C 762.00136,475.19855 761.90625,475.41405 761.90625,475.625 C 761.90627,475.79873 761.95081,475.93841 762.0625,476.0625 C 762.1866,476.1742 762.32627,476.21876 762.5,476.21875 C 762.5993,476.21875 762.71322,476.21232 762.8125,476.1875 C 762.91177,476.16269 763.03215,476.11812 763.15625,476.03125 L 764.125,475.375 L 764.125,480.5625 C 764.12499,480.77347 764.17599,480.94484 764.3125,481.09375 C 764.44897,481.23024 764.63279,481.3125 764.84375,481.3125 L 765.28125,481.3125 C 765.49221,481.3125 765.67599,481.23025 765.8125,481.09375 C 765.96142,480.94483 766.03124,480.77346 766.03125,480.5625 L 766.03125,473.21875 C 766.03124,473.00781 765.96141,472.85526 765.8125,472.71875 C 765.67601,472.56984 765.4922,472.46876 765.28125,472.46875 L 764.84375,472.46875 z M 774.5,472.46875 C 774.38829,472.46875 774.29918,472.50046 774.1875,472.5625 C 774.07583,472.61216 773.96829,472.67555 773.90625,472.75 L 771.84375,475 C 771.6576,475.19855 771.5625,475.41405 771.5625,475.625 C 771.56252,475.79873 771.63831,475.93841 771.75,476.0625 C 771.87409,476.1742 772.01377,476.21876 772.1875,476.21875 C 772.28679,476.21875 772.36947,476.21232 772.46875,476.1875 C 772.56801,476.16269 772.6884,476.11812 772.8125,476.03125 L 773.78125,475.375 L 773.78125,480.5625 C 773.78124,480.77347 773.86349,480.94484 774,481.09375 C 774.13647,481.23024 774.28904,481.3125 774.5,481.3125 L 774.96875,481.3125 C 775.1797,481.3125 775.33224,481.23025 775.46875,481.09375 C 775.61767,480.94483 775.68749,480.77346 775.6875,480.5625 L 775.6875,473.21875 C 775.68748,473.00781 775.61766,472.85526 775.46875,472.71875 C 775.33225,472.56984 775.1797,472.46876 774.96875,472.46875 L 774.5,472.46875 z M 787.40625,472.46875 C 787.08363,472.46875 786.78541,472.53217 786.5,472.65625 C 786.22698,472.78035 785.99221,472.97655 785.78125,473.1875 C 785.57029,473.39848 785.37409,473.62084 785.25,473.90625 C 785.12589,474.17927 785.09375,474.48987 785.09375,474.8125 L 785.09375,478.96875 C 785.09375,479.2914 785.12591,479.62084 785.25,479.90625 C 785.37407,480.17927 785.57029,480.41404 785.78125,480.625 C 785.9922,480.83596 786.22699,481.00091 786.5,481.125 C 786.7854,481.24908 787.08361,481.3125 787.40625,481.3125 L 790.28125,481.3125 C 790.60388,481.3125 790.91449,481.24909 791.1875,481.125 C 791.47293,481.00089 791.72653,480.83596 791.9375,480.625 C 792.14847,480.41405 792.3134,480.17926 792.4375,479.90625 C 792.56161,479.62085 792.62499,479.29139 792.625,478.96875 L 792.625,474.8125 C 792.625,474.48988 792.56158,474.17926 792.4375,473.90625 C 792.31343,473.62085 792.14845,473.39847 791.9375,473.1875 C 791.72655,472.97656 791.47291,472.78035 791.1875,472.65625 C 790.91452,472.53217 790.60389,472.46876 790.28125,472.46875 L 787.40625,472.46875 z M 787.84375,474.1875 L 789.875,474.1875 C 790.11074,474.18751 790.30742,474.27619 790.46875,474.4375 C 790.63004,474.59884 790.68749,474.79548 790.6875,475.03125 L 790.6875,478.75 C 790.68751,478.98578 790.63006,479.18243 790.46875,479.34375 C 790.3074,479.50508 790.11077,479.59375 789.875,479.59375 L 787.84375,479.59375 C 787.60795,479.59376 787.41132,479.50507 787.25,479.34375 C 787.08865,479.18243 787,478.98578 787,478.75 L 787,475.03125 C 787,474.79547 787.08868,474.59883 787.25,474.4375 C 787.41129,474.2762 787.60797,474.18751 787.84375,474.1875 z M 781.4375,478.5625 C 781.22654,478.56249 781.02391,478.63234 780.875,478.78125 C 780.73848,478.91775 780.6875,479.10154 780.6875,479.3125 L 780.6875,480.5625 C 780.6875,480.77347 780.7385,480.94484 780.875,481.09375 C 781.0239,481.23024 781.22654,481.3125 781.4375,481.3125 L 782.15625,481.3125 C 782.36719,481.3125 782.55099,481.23025 782.6875,481.09375 C 782.83641,480.94483 782.90625,480.77346 782.90625,480.5625 L 782.90625,479.3125 C 782.90622,479.10155 782.83641,478.91775 782.6875,478.78125 C 782.55099,478.63234 782.36721,478.5625 782.15625,478.5625 L 781.4375,478.5625 z"
           inkscape:href="#text5896"
           id="path6670"
           style="font-size:18.61394501px;font-style:normal;font-variant:normal;font-weight:bold;font-stretch:normal;text-indent:0;text-align:start;text-decoration:none;line-height:100%;letter-spacing:normal;word-spacing:normal;text-transform:none;direction:ltr;block-progression:tb;writing-mode:lr-tb;text-anchor:start;opacity:1;fill:#000000;fill-opacity:1;fill-rule:nonzero;stroke:none;stroke-width:1px;stroke-linecap:butt;stroke-linejoin:miter;marker:none;marker-start:none;marker-mid:none;marker-end:none;stroke-miterlimit:4;stroke-dasharray:none;stroke-dashoffset:0;stroke-opacity:1;visibility:visible;display:inline;overflow:visible;filter:url(#filter6764);enable-background:accumulate;font-family:ChollaWideBoldOS;-inkscape-font-specification:ChollaWideBoldOS Bold"
           xlink:href="#text5896"
           inkscape:original="M 764.84375 472.46875 C 764.73205 472.46875 764.61168 472.50046 764.5 472.5625 C 764.38833 472.61216 764.31204 472.67555 764.25 472.75 L 762.1875 475 C 762.00136 475.19855 761.90625 475.41405 761.90625 475.625 C 761.90627 475.79873 761.95081 475.93841 762.0625 476.0625 C 762.1866 476.1742 762.32627 476.21876 762.5 476.21875 C 762.5993 476.21875 762.71322 476.21232 762.8125 476.1875 C 762.91177 476.16269 763.03215 476.11812 763.15625 476.03125 L 764.125 475.375 L 764.125 480.5625 C 764.12499 480.77347 764.17599 480.94484 764.3125 481.09375 C 764.44897 481.23024 764.63279 481.3125 764.84375 481.3125 L 765.28125 481.3125 C 765.49221 481.3125 765.67599 481.23025 765.8125 481.09375 C 765.96142 480.94483 766.03124 480.77346 766.03125 480.5625 L 766.03125 473.21875 C 766.03124 473.00781 765.96141 472.85526 765.8125 472.71875 C 765.67601 472.56984 765.4922 472.46876 765.28125 472.46875 L 764.84375 472.46875 z M 774.5 472.46875 C 774.38829 472.46875 774.29918 472.50046 774.1875 472.5625 C 774.07583 472.61216 773.96829 472.67555 773.90625 472.75 L 771.84375 475 C 771.6576 475.19855 771.5625 475.41405 771.5625 475.625 C 771.56252 475.79873 771.63831 475.93841 771.75 476.0625 C 771.87409 476.1742 772.01377 476.21876 772.1875 476.21875 C 772.28679 476.21875 772.36947 476.21232 772.46875 476.1875 C 772.56801 476.16269 772.6884 476.11812 772.8125 476.03125 L 773.78125 475.375 L 773.78125 480.5625 C 773.78124 480.77347 773.86349 480.94484 774 481.09375 C 774.13647 481.23024 774.28904 481.3125 774.5 481.3125 L 774.96875 481.3125 C 775.1797 481.3125 775.33224 481.23025 775.46875 481.09375 C 775.61767 480.94483 775.68749 480.77346 775.6875 480.5625 L 775.6875 473.21875 C 775.68748 473.00781 775.61766 472.85526 775.46875 472.71875 C 775.33225 472.56984 775.1797 472.46876 774.96875 472.46875 L 774.5 472.46875 z M 787.40625 472.46875 C 787.08363 472.46875 786.78541 472.53217 786.5 472.65625 C 786.22698 472.78035 785.99221 472.97655 785.78125 473.1875 C 785.57029 473.39848 785.37409 473.62084 785.25 473.90625 C 785.12589 474.17927 785.09375 474.48987 785.09375 474.8125 L 785.09375 478.96875 C 785.09375 479.2914 785.12591 479.62084 785.25 479.90625 C 785.37407 480.17927 785.57029 480.41404 785.78125 480.625 C 785.9922 480.83596 786.22699 481.00091 786.5 481.125 C 786.7854 481.24908 787.08361 481.3125 787.40625 481.3125 L 790.28125 481.3125 C 790.60388 481.3125 790.91449 481.24909 791.1875 481.125 C 791.47293 481.00089 791.72653 480.83596 791.9375 480.625 C 792.14847 480.41405 792.3134 480.17926 792.4375 479.90625 C 792.56161 479.62085 792.62499 479.29139 792.625 478.96875 L 792.625 474.8125 C 792.625 474.48988 792.56158 474.17926 792.4375 473.90625 C 792.31343 473.62085 792.14845 473.39847 791.9375 473.1875 C 791.72655 472.97656 791.47291 472.78035 791.1875 472.65625 C 790.91452 472.53217 790.60389 472.46876 790.28125 472.46875 L 787.40625 472.46875 z M 787.84375 474.1875 L 789.875 474.1875 C 790.11074 474.18751 790.30742 474.27619 790.46875 474.4375 C 790.63004 474.59884 790.68749 474.79548 790.6875 475.03125 L 790.6875 478.75 C 790.68751 478.98578 790.63006 479.18243 790.46875 479.34375 C 790.3074 479.50508 790.11077 479.59375 789.875 479.59375 L 787.84375 479.59375 C 787.60795 479.59376 787.41132 479.50507 787.25 479.34375 C 787.08865 479.18243 787 478.98578 787 478.75 L 787 475.03125 C 787 474.79547 787.08868 474.59883 787.25 474.4375 C 787.41129 474.2762 787.60797 474.18751 787.84375 474.1875 z M 781.4375 478.5625 C 781.22654 478.56249 781.02391 478.63234 780.875 478.78125 C 780.73848 478.91775 780.6875 479.10154 780.6875 479.3125 L 780.6875 480.5625 C 780.6875 480.77347 780.7385 480.94484 780.875 481.09375 C 781.0239 481.23024 781.22654 481.3125 781.4375 481.3125 L 782.15625 481.3125 C 782.36719 481.3125 782.55099 481.23025 782.6875 481.09375 C 782.83641 480.94483 782.90625 480.77346 782.90625 480.5625 L 782.90625 479.3125 C 782.90622 479.10155 782.83641 478.91775 782.6875 478.78125 C 782.55099 478.63234 782.36721 478.5625 782.15625 478.5625 L 781.4375 478.5625 z "
           inkscape:radius="0"
           sodipodi:type="inkscape:offset" />
        <text
           transform="scale(0.9722646,1.0285266)"
           sodipodi:linespacing="100%"
           id="text5896"
           y="481.30707"
           x="760.24097"
           style="font-size:18.61394501px;font-style:normal;font-variant:normal;font-weight:bold;font-stretch:normal;text-indent:0;text-align:start;text-decoration:none;line-height:100%;letter-spacing:normal;word-spacing:normal;text-transform:none;direction:ltr;block-progression:tb;writing-mode:lr-tb;text-anchor:start;opacity:1;fill:#ffffff;fill-opacity:1;fill-rule:nonzero;stroke:none;stroke-width:1px;stroke-linecap:butt;stroke-linejoin:miter;marker:none;marker-start:none;marker-mid:none;marker-end:none;stroke-miterlimit:4;stroke-dasharray:none;stroke-dashoffset:0;stroke-opacity:1;visibility:visible;display:inline;overflow:visible;enable-background:accumulate;font-family:ChollaWideBoldOS;-inkscape-font-specification:ChollaWideBoldOS Bold"
           xml:space="preserve"><tspan
             style="font-size:18.61394501px;font-style:normal;font-variant:normal;font-weight:bold;font-stretch:normal;text-align:start;line-height:100%;writing-mode:lr-tb;text-anchor:start;fill:#ffffff;fill-opacity:1;stroke:none;stroke-width:1;font-family:ChollaWideBoldOS;-inkscape-font-specification:ChollaWideBoldOS Bold"
             y="481.30707"
             x="760.24097"
             id="tspan5898"
             sodipodi:role="line">11.0</tspan></text>
      </g>
    </g>
    <path
       sodipodi:type="inkscape:offset"
       inkscape:radius="0"
       inkscape:original="M 368.1875 33.53125 C 367.80762 33.531272 367.48688 33.638126 367.21875 33.90625 C 366.97292 34.152075 366.84374 34.495147 366.84375 34.875 L 366.84375 41.4375 C 366.84374 41.70566 366.73235 41.843764 366.53125 41.84375 C 366.33013 41.843765 366.09408 41.750183 365.78125 41.59375 C 365.46841 41.414999 365.08081 41.232375 364.65625 41.03125 C 364.25401 40.80781 363.80409 40.625185 363.3125 40.46875 C 362.8209 40.290002 362.29973 40.187516 361.71875 40.1875 L 361.21875 40.1875 C 359.56516 40.187516 358.34459 40.619634 357.5625 41.46875 C 356.80274 42.317896 356.40625 43.39147 356.40625 44.6875 L 356.40625 51.78125 C 356.40623 53.077295 356.80275 54.15087 357.5625 55 C 358.34458 55.849131 359.56517 56.28125 361.21875 56.28125 L 361.71875 56.28125 C 362.29971 56.28125 362.82089 56.187669 363.3125 56.03125 C 363.80411 55.852488 364.25402 55.678765 364.65625 55.5 C 365.08079 55.298892 365.4684 55.12517 365.78125 54.96875 C 366.09409 54.789987 366.33013 54.687501 366.53125 54.6875 C 366.64297 54.687502 366.75436 54.73656 366.84375 54.78125 C 366.95546 54.803598 367.06686 54.865928 367.15625 55 L 367.9375 56.1875 L 369.09375 56.1875 C 369.54065 56.1875 369.85247 56.040493 370.03125 55.75 C 370.21001 55.459507 370.28123 55.183302 370.28125 54.9375 L 370.28125 33.53125 L 368.1875 33.53125 z M 434.40625 33.53125 C 434.02638 33.531272 433.67439 33.638126 433.40625 33.90625 C 433.16044 34.152075 433.0625 34.495147 433.0625 34.875 L 433.0625 54.84375 C 433.0625 55.223624 433.16045 55.544354 433.40625 55.8125 C 433.67438 56.058301 434.02637 56.1875 434.40625 56.1875 L 436.5 56.1875 L 436.5 34.875 C 436.49999 34.495148 436.36189 34.152073 436.09375 33.90625 C 435.84794 33.638127 435.53612 33.531273 435.15625 33.53125 L 434.40625 33.53125 z M 487.78125 33.53125 C 487.40136 33.531272 487.08063 33.638126 486.8125 33.90625 C 486.5667 34.152075 486.43749 34.495147 486.4375 34.875 L 486.4375 41.4375 C 486.43748 41.70566 486.35735 41.843764 486.15625 41.84375 C 485.95512 41.843765 485.68783 41.750183 485.375 41.59375 C 485.06216 41.414999 484.70581 41.232375 484.28125 41.03125 C 483.87903 40.80781 483.42909 40.625185 482.9375 40.46875 C 482.44589 40.290002 481.89348 40.187516 481.3125 40.1875 L 480.8125 40.1875 C 479.15893 40.187516 477.93834 40.619634 477.15625 41.46875 C 476.39651 42.317896 476.03125 43.39147 476.03125 44.6875 L 476.03125 51.78125 C 476.03126 53.077295 476.3965 54.15087 477.15625 55 C 477.93836 55.849131 479.15892 56.28125 480.8125 56.28125 L 481.3125 56.28125 C 481.89349 56.28125 482.44589 56.187669 482.9375 56.03125 C 483.4291 55.852488 483.87902 55.678765 484.28125 55.5 C 484.70582 55.298892 485.06215 55.12517 485.375 54.96875 C 485.68783 54.789987 485.95513 54.687501 486.15625 54.6875 C 486.26796 54.687502 486.34811 54.73656 486.4375 54.78125 C 486.54921 54.803598 486.66061 54.865928 486.75 55 L 487.5625 56.1875 L 488.6875 56.1875 C 489.13439 56.1875 489.44622 56.040493 489.625 55.75 C 489.80375 55.459507 489.90623 55.183302 489.90625 54.9375 L 489.90625 33.53125 L 487.78125 33.53125 z M 503.40625 33.53125 C 503.02636 33.531272 502.70564 33.638126 502.4375 33.90625 C 502.1917 34.152075 502.0625 34.495147 502.0625 34.875 L 502.0625 54.84375 C 502.06248 55.223624 502.1917 55.544354 502.4375 55.8125 C 502.70565 56.058301 503.02637 56.1875 503.40625 56.1875 L 504.1875 56.1875 C 504.56738 56.1875 504.87919 56.058301 505.125 55.8125 C 505.39313 55.544354 505.53124 55.223626 505.53125 54.84375 L 505.53125 44.875 C 505.53126 44.450446 505.67825 44.103004 505.96875 43.8125 C 506.25923 43.522019 506.60668 43.375013 507.03125 43.375 L 511 43.375 C 511.42456 43.375014 511.772 43.52202 512.0625 43.8125 C 512.353 44.103003 512.49999 44.450446 512.5 44.875 L 512.5 54.84375 C 512.50002 55.223624 512.62919 55.544354 512.875 55.8125 C 513.14315 56.058301 513.46386 56.1875 513.84375 56.1875 L 514.625 56.1875 C 515.00485 56.1875 515.31668 56.058301 515.5625 55.8125 C 515.83066 55.544354 515.96873 55.223626 515.96875 54.84375 L 515.96875 44.6875 C 515.96876 43.391471 515.56333 42.317895 514.78125 41.46875 C 514.02147 40.619635 512.80981 40.187516 511.15625 40.1875 L 510.65625 40.1875 C 510.0976 40.187516 509.57644 40.290001 509.0625 40.46875 C 508.57089 40.625185 508.11206 40.80781 507.6875 41.03125 C 507.28526 41.232375 506.90658 41.415 506.59375 41.59375 C 506.28091 41.750183 506.04485 41.843764 505.84375 41.84375 C 505.64265 41.843765 505.53124 41.705661 505.53125 41.4375 L 505.53125 33.53125 L 503.40625 33.53125 z M 568.78125 33.53125 C 568.4014 33.531272 568.04939 33.638126 567.78125 33.90625 C 567.53542 34.152075 567.4375 34.495147 567.4375 34.875 L 567.4375 47.46875 C 567.43749 47.848633 567.53545 48.169361 567.78125 48.4375 C 568.04937 48.68331 568.40137 48.812507 568.78125 48.8125 L 569.53125 48.8125 C 569.91113 48.812509 570.22294 48.683309 570.46875 48.4375 C 570.73688 48.169362 570.87499 47.848633 570.875 47.46875 L 570.875 34.875 C 570.87498 34.495148 570.73689 34.152073 570.46875 33.90625 C 570.22293 33.638127 569.91112 33.531273 569.53125 33.53125 L 568.78125 33.53125 z M 423.46875 40.1875 C 422.91009 40.187516 422.35769 40.290001 421.84375 40.46875 C 421.35213 40.625185 420.89331 40.80781 420.46875 41.03125 C 420.04419 41.232375 419.68783 41.415 419.375 41.59375 C 419.06217 41.750183 418.79485 41.843764 418.59375 41.84375 C 418.39263 41.843765 418.21891 41.72347 418.0625 41.5 L 417.21875 40.28125 L 416.09375 40.28125 C 415.64684 40.281266 415.33501 40.428273 415.15625 40.71875 C 414.97748 41.009259 414.875 41.285464 414.875 41.53125 L 414.875 54.84375 C 414.87501 55.223624 415.0042 55.544354 415.25 55.8125 C 415.51814 56.058301 415.83887 56.1875 416.21875 56.1875 L 417 56.1875 C 417.37987 56.1875 417.69169 56.058301 417.9375 55.8125 C 418.20565 55.544354 418.34374 55.223626 418.34375 54.84375 L 418.34375 44.875 C 418.34375 44.450446 418.4595 44.103004 418.75 43.8125 C 419.04047 43.522019 419.41918 43.375013 419.84375 43.375 L 423.78125 43.375 C 424.2058 43.375014 424.5845 43.52202 424.875 43.8125 C 425.16549 44.103003 425.31249 44.450446 425.3125 44.875 L 425.3125 54.84375 C 425.31248 55.223624 425.41044 55.544354 425.65625 55.8125 C 425.92439 56.058301 426.27636 56.1875 426.65625 56.1875 L 427.40625 56.1875 C 427.78612 56.1875 428.09793 56.058301 428.34375 55.8125 C 428.61187 55.544354 428.74998 55.223626 428.75 54.84375 L 428.75 44.6875 C 428.74997 43.391471 428.37583 42.317895 427.59375 41.46875 C 426.83399 40.619635 425.62231 40.187516 423.96875 40.1875 L 423.46875 40.1875 z M 392.90625 40.25 L 392 40.5 C 391.70951 40.567052 391.46892 40.722964 391.3125 40.96875 C 391.15607 41.19222 391.09375 41.410464 391.09375 41.65625 C 391.09376 41.790338 391.10265 41.892823 391.125 41.9375 L 394.5625 54.46875 C 394.60717 54.625169 394.69186 54.798891 394.78125 55 C 394.87064 55.20111 394.99092 55.383736 395.125 55.5625 C 395.25906 55.718918 395.42388 55.865927 395.625 56 C 395.8261 56.111727 396.03544 56.1875 396.28125 56.1875 L 397.46875 56.1875 C 397.91565 56.1875 398.2631 56.022684 398.53125 55.6875 C 398.7994 55.329974 398.98201 54.95128 399.09375 54.59375 L 400.625 50.3125 C 400.75907 49.932631 400.89717 49.509418 401.03125 49.0625 C 401.16531 48.615598 401.2767 48.268155 401.34375 48 C 401.43312 47.731862 401.46874 47.57595 401.46875 47.53125 L 401.5 47.53125 C 401.49998 47.57595 401.55795 47.731862 401.625 48 C 401.71436 48.268155 401.80341 48.615596 401.9375 49.0625 C 402.07156 49.509419 402.20966 49.932632 402.34375 50.3125 L 403.90625 54.59375 C 404.01797 54.951281 404.20059 55.329972 404.46875 55.6875 C 404.73687 56.022686 405.08432 56.1875 405.53125 56.1875 L 406.71875 56.1875 C 406.96453 56.1875 407.17387 56.111728 407.375 56 C 407.5761 55.865926 407.74091 55.718919 407.875 55.5625 C 408.00906 55.383735 408.12935 55.201111 408.21875 55 C 408.3081 54.79889 408.36154 54.625171 408.40625 54.46875 L 411.875 41.9375 C 411.89734 41.892824 411.90623 41.790338 411.90625 41.65625 C 411.90622 41.410464 411.81265 41.192221 411.65625 40.96875 C 411.49982 40.722963 411.29047 40.567052 411 40.5 L 410.09375 40.25 C 409.78089 40.160635 409.47797 40.236406 409.1875 40.4375 C 408.89699 40.616278 408.71436 40.843427 408.625 41.15625 L 406.875 47.8125 C 406.78561 48.192384 406.67421 48.677927 406.5625 49.28125 C 406.47311 49.862242 406.40187 50.419021 406.3125 51 C 406.2231 51.558645 406.13843 52.075438 406.09375 52.5 C 406.04904 52.902224 406.01343 53.093753 405.96875 53.09375 C 405.83465 52.535113 405.69656 52.058474 405.5625 51.65625 C 405.45074 51.254036 405.32156 50.821917 405.1875 50.375 C 405.05341 49.90575 404.91531 49.482536 404.78125 49.125 L 403.5625 45.84375 C 403.45075 45.575615 403.28594 45.366275 403.0625 45.1875 C 402.83903 45.008746 402.57173 44.906261 402.28125 44.90625 L 400.71875 44.90625 C 400.42824 44.90626 400.16095 45.008747 399.9375 45.1875 C 399.71404 45.366274 399.54922 45.575614 399.4375 45.84375 L 398.1875 49.125 C 398.05342 49.482534 397.91532 49.905749 397.78125 50.375 C 397.64717 50.821917 397.50907 51.254035 397.375 51.65625 C 397.26327 52.058475 397.19203 52.397011 397.125 52.6875 C 397.05794 52.95565 397.01343 53.093753 396.96875 53.09375 C 396.87936 52.266966 396.77688 51.558644 396.6875 51 C 396.59812 50.419022 396.49563 49.862241 396.40625 49.28125 C 396.31685 48.677928 396.23672 48.192383 396.125 47.8125 L 394.375 41.15625 C 394.2856 40.843426 394.10299 40.61628 393.8125 40.4375 C 393.522 40.236404 393.21908 40.160634 392.90625 40.25 z M 378.46875 40.28125 C 377.88777 40.281266 377.35769 40.40156 376.84375 40.625 C 376.35215 40.848472 375.91112 41.15139 375.53125 41.53125 C 375.15138 41.911137 374.84845 42.361066 374.625 42.875 C 374.40156 43.366615 374.28125 43.887778 374.28125 44.46875 L 374.28125 52 C 374.28125 52.580987 374.40154 53.111055 374.625 53.625 C 374.84847 54.116604 375.15137 54.557627 375.53125 54.9375 C 375.91113 55.317374 376.35214 55.620295 376.84375 55.84375 C 377.3577 56.067204 377.88776 56.1875 378.46875 56.1875 L 383.9375 56.1875 C 384.51847 56.1875 385.07088 56.067206 385.5625 55.84375 C 386.07643 55.620294 386.52636 55.317376 386.90625 54.9375 C 387.28611 54.557625 387.55778 54.116605 387.78125 53.625 C 388.00469 53.111054 388.12498 52.580988 388.125 52 L 388.125 44.46875 C 388.12499 43.887779 388.00469 43.366615 387.78125 42.875 C 387.55778 42.361065 387.28611 41.911139 386.90625 41.53125 C 386.52636 41.151388 386.07643 40.848471 385.5625 40.625 C 385.07088 40.401561 384.51847 40.281266 383.9375 40.28125 L 378.46875 40.28125 z M 445 40.28125 C 444.419 40.281266 443.85769 40.40156 443.34375 40.625 C 442.85213 40.848472 442.41112 41.15139 442.03125 41.53125 C 441.65136 41.911137 441.34845 42.361066 441.125 42.875 C 440.90154 43.366615 440.8125 43.887778 440.8125 44.46875 L 440.8125 52 C 440.81248 52.580987 440.90154 53.111055 441.125 53.625 C 441.34845 54.116604 441.65137 54.557627 442.03125 54.9375 C 442.41111 55.317374 442.85214 55.620295 443.34375 55.84375 C 443.85768 56.067204 444.41901 56.1875 445 56.1875 L 450.46875 56.1875 C 451.04973 56.1875 451.57088 56.067206 452.0625 55.84375 C 452.57644 55.620294 453.02636 55.317376 453.40625 54.9375 C 453.78612 54.557625 454.08903 54.116605 454.3125 53.625 C 454.53595 53.111054 454.65623 52.580988 454.65625 52 L 454.65625 44.46875 C 454.65622 43.887779 454.53594 43.366615 454.3125 42.875 C 454.08904 42.361065 453.78611 41.911139 453.40625 41.53125 C 453.02637 41.151388 452.57643 40.848471 452.0625 40.625 C 451.57089 40.401561 451.04972 40.281266 450.46875 40.28125 L 445 40.28125 z M 461.09375 40.28125 C 460.73621 40.281266 460.42439 40.383751 460.15625 40.5625 C 459.91043 40.74128 459.78125 41.008582 459.78125 41.34375 L 459.78125 43.375 L 467.21875 43.375 C 467.59861 43.375014 467.91044 43.52202 468.15625 43.8125 C 468.40205 44.080658 468.53124 44.374674 468.53125 44.6875 L 468.53125 47.15625 C 468.53123 47.424406 468.41985 47.562509 468.21875 47.5625 C 468.01763 47.562508 467.78158 47.500178 467.46875 47.34375 C 467.15591 47.164996 466.76831 46.951119 466.34375 46.75 C 465.94153 46.526552 465.49159 46.343929 465 46.1875 C 464.5084 46.008745 463.98723 45.90626 463.40625 45.90625 L 462.90625 45.90625 C 461.25266 45.906259 460.03209 46.338378 459.25 47.1875 C 458.49024 48.036639 458.09375 49.110214 458.09375 50.40625 L 458.09375 51.78125 C 458.09376 53.077295 458.49025 54.15087 459.25 55 C 460.03208 55.849131 461.25267 56.28125 462.90625 56.28125 L 463.40625 56.28125 C 463.98724 56.28125 464.50839 56.187669 465 56.03125 C 465.4916 55.852488 465.94152 55.678765 466.34375 55.5 C 466.76832 55.298892 467.1559 55.12517 467.46875 54.96875 C 467.78159 54.789987 468.01763 54.687501 468.21875 54.6875 C 468.33046 54.687502 468.44186 54.73656 468.53125 54.78125 C 468.64296 54.803598 468.75436 54.865928 468.84375 55 L 469.625 56.1875 L 470.78125 56.1875 C 471.22815 56.1875 471.53997 56.040493 471.71875 55.75 C 471.8975 55.459507 471.96873 55.183302 471.96875 54.9375 L 471.96875 44.1875 C 471.96873 43.673563 471.9064 43.15677 471.75 42.6875 C 471.59355 42.218256 471.32626 41.826293 470.96875 41.46875 C 470.63355 41.111237 470.18363 40.826125 469.625 40.625 C 469.08869 40.401561 468.44724 40.281266 467.6875 40.28125 L 461.09375 40.28125 z M 524.125 40.28125 C 523.54403 40.281266 523.01394 40.40156 522.5 40.625 C 522.00841 40.826127 521.56737 41.12014 521.1875 41.5 C 520.80761 41.879888 520.5047 42.329816 520.28125 42.84375 C 520.05782 43.357712 519.9375 43.887778 519.9375 44.46875 L 519.9375 52 C 519.93748 52.580987 520.05779 53.111055 520.28125 53.625 C 520.50473 54.138949 520.80762 54.588877 521.1875 54.96875 C 521.56736 55.348626 522.00839 55.651545 522.5 55.875 C 523.01396 56.076111 523.54401 56.1875 524.125 56.1875 L 530.1875 56.1875 C 530.56736 56.1875 530.87919 56.07611 531.125 55.875 C 531.39311 55.651546 531.49999 55.348625 531.5 54.96875 L 531.5 53.09375 L 524.78125 53.09375 C 524.4014 53.093751 524.08064 52.964554 523.8125 52.71875 C 523.54433 52.472951 523.40624 52.14332 523.40625 51.71875 L 523.40625 49.53125 L 531.75 49.53125 C 532.33095 49.531258 532.81651 49.339727 533.21875 48.9375 C 533.62095 48.535287 533.81248 48.049743 533.8125 47.46875 L 533.8125 44.46875 C 533.81248 43.887779 533.72344 43.366615 533.5 42.875 C 533.27655 42.361065 532.97361 41.911139 532.59375 41.53125 C 532.21385 41.151388 531.76393 40.848471 531.25 40.625 C 530.7584 40.401561 530.20597 40.281266 529.625 40.28125 L 524.125 40.28125 z M 538.3125 40.28125 C 537.86561 40.281266 537.55376 40.428273 537.375 40.71875 C 537.19622 41.009259 537.09375 41.285464 537.09375 41.53125 L 537.09375 54.84375 C 537.09372 55.223624 537.22295 55.544354 537.46875 55.8125 C 537.73691 56.058301 538.05762 56.1875 538.4375 56.1875 L 539.21875 56.1875 C 539.59861 56.1875 539.91044 56.058301 540.15625 55.8125 C 540.42436 55.544354 540.56249 55.223626 540.5625 54.84375 L 540.5625 44.8125 C 540.56252 44.387945 540.7095 44.049409 541 43.78125 C 541.29046 43.513116 541.59341 43.375013 541.90625 43.375 L 548.1875 43.375 L 548.1875 41.5 C 548.18749 41.12014 548.05829 40.826125 547.8125 40.625 C 547.5667 40.401561 547.25486 40.281266 546.875 40.28125 L 543.96875 40.28125 C 543.47716 40.281266 543.05393 40.374847 542.71875 40.53125 C 542.40592 40.687686 542.16095 40.861405 541.9375 41.0625 C 541.71405 41.263624 541.49126 41.437346 541.3125 41.59375 C 541.15609 41.750183 540.99126 41.843764 540.8125 41.84375 C 540.61137 41.843765 540.43766 41.72347 540.28125 41.5 L 539.4375 40.28125 L 538.3125 40.28125 z M 553.78125 40.28125 C 553.20028 40.281266 552.67019 40.40156 552.15625 40.625 C 551.66466 40.826127 551.22362 41.12014 550.84375 41.5 C 550.46386 41.879888 550.16095 42.329816 549.9375 42.84375 C 549.71407 43.357712 549.59375 43.887778 549.59375 44.46875 L 549.59375 52 C 549.59373 52.580987 549.71404 53.111055 549.9375 53.625 C 550.16098 54.138949 550.46387 54.588877 550.84375 54.96875 C 551.22361 55.348626 551.66464 55.651545 552.15625 55.875 C 552.67021 56.076111 553.20026 56.1875 553.78125 56.1875 L 559.8125 56.1875 C 560.19236 56.1875 560.53544 56.07611 560.78125 55.875 C 561.04936 55.651546 561.15624 55.348625 561.15625 54.96875 L 561.15625 53.09375 L 554.4375 53.09375 C 554.05765 53.093751 553.73689 52.964554 553.46875 52.71875 C 553.20058 52.472951 553.06249 52.14332 553.0625 51.71875 L 553.0625 49.53125 L 561.40625 49.53125 C 561.9872 49.531258 562.47276 49.339727 562.875 48.9375 C 563.2772 48.535287 563.46873 48.049743 563.46875 47.46875 L 563.46875 44.46875 C 563.46873 43.887779 563.37969 43.366615 563.15625 42.875 C 562.9328 42.361065 562.62986 41.911139 562.25 41.53125 C 561.8701 41.151388 561.42018 40.848471 560.90625 40.625 C 560.41465 40.401561 559.86222 40.281266 559.28125 40.28125 L 553.78125 40.28125 z M 361.375 43.375 L 365.34375 43.375 C 365.76831 43.375014 366.11575 43.52202 366.40625 43.8125 C 366.69672 44.103003 366.84374 44.450446 366.84375 44.875 L 366.84375 51.59375 C 366.84374 52.01832 366.69673 52.365761 366.40625 52.65625 C 366.11574 52.946747 365.7683 53.093753 365.34375 53.09375 L 361.375 53.09375 C 360.95044 53.093751 360.60299 52.946746 360.3125 52.65625 C 360.02199 52.365763 359.87499 52.01832 359.875 51.59375 L 359.875 44.875 C 359.87501 44.450446 360.022 44.103004 360.3125 43.8125 C 360.60298 43.522019 360.95043 43.375013 361.375 43.375 z M 379.25 43.375 L 383.15625 43.375 C 383.58082 43.375014 383.9595 43.52202 384.25 43.8125 C 384.54048 44.103003 384.68749 44.450446 384.6875 44.875 L 384.6875 51.59375 C 384.6875 52.01832 384.54048 52.365761 384.25 52.65625 C 383.9595 52.946747 383.5808 53.093753 383.15625 53.09375 L 379.25 53.09375 C 378.82543 53.093751 378.47799 52.946746 378.1875 52.65625 C 377.89701 52.365763 377.74999 52.01832 377.75 51.59375 L 377.75 44.875 C 377.75 44.450446 377.897 44.103004 378.1875 43.8125 C 378.478 43.522019 378.82543 43.375013 379.25 43.375 z M 445.75 43.375 L 449.6875 43.375 C 450.11205 43.375014 450.4595 43.52202 450.75 43.8125 C 451.04049 44.103003 451.18749 44.450446 451.1875 44.875 L 451.1875 51.59375 C 451.18748 52.01832 451.04048 52.365761 450.75 52.65625 C 450.45951 52.946747 450.11205 53.093753 449.6875 53.09375 L 445.75 53.09375 C 445.32544 53.093751 444.97799 52.946746 444.6875 52.65625 C 444.39699 52.365763 444.24999 52.01832 444.25 51.59375 L 444.25 44.875 C 444.25001 44.450446 444.397 44.103004 444.6875 43.8125 C 444.97798 43.522019 445.32543 43.375013 445.75 43.375 z M 480.96875 43.375 L 484.9375 43.375 C 485.36205 43.375014 485.7095 43.52202 486 43.8125 C 486.29049 44.103003 486.43749 44.450446 486.4375 44.875 L 486.4375 51.59375 C 486.43748 52.01832 486.29048 52.365761 486 52.65625 C 485.70951 52.946747 485.36205 53.093753 484.9375 53.09375 L 480.96875 53.09375 C 480.54418 53.093751 480.19674 52.946746 479.90625 52.65625 C 479.61574 52.365763 479.46874 52.01832 479.46875 51.59375 L 479.46875 44.875 C 479.46875 44.450446 479.61575 44.103004 479.90625 43.8125 C 480.19672 43.522019 480.54418 43.375013 480.96875 43.375 z M 524.75 43.375 L 529.03125 43.375 C 529.41114 43.375014 529.72294 43.513116 529.96875 43.78125 C 530.23689 44.027064 530.37499 44.338887 530.375 44.71875 L 530.375 46.75 L 523.40625 46.75 L 523.40625 44.71875 C 523.40623 44.338887 523.53544 44.027063 523.78125 43.78125 C 524.04936 43.513116 524.37012 43.375013 524.75 43.375 z M 554.40625 43.375 L 558.6875 43.375 C 559.06739 43.375014 559.37919 43.513116 559.625 43.78125 C 559.89314 44.027064 560.03124 44.338887 560.03125 44.71875 L 560.03125 46.75 L 553.0625 46.75 L 553.0625 44.71875 C 553.06248 44.338887 553.19169 44.027063 553.4375 43.78125 C 553.70561 43.513116 554.02637 43.375013 554.40625 43.375 z M 463.0625 49.09375 L 467.03125 49.09375 C 467.45581 49.093757 467.80325 49.240765 468.09375 49.53125 C 468.38422 49.82175 468.53124 50.20044 468.53125 50.625 L 468.53125 51.59375 C 468.53123 52.01832 468.38423 52.365761 468.09375 52.65625 C 467.80323 52.946747 467.45581 53.093753 467.03125 53.09375 L 463.0625 53.09375 C 462.63793 53.093751 462.29049 52.946746 462 52.65625 C 461.70949 52.365763 461.5625 52.01832 461.5625 51.59375 L 461.5625 50.625 C 461.56251 50.200439 461.7095 49.821749 462 49.53125 C 462.29048 49.240766 462.63793 49.093757 463.0625 49.09375 z M 568.78125 51.5 C 568.4014 51.500005 568.04939 51.606858 567.78125 51.875 C 567.53542 52.120804 567.4375 52.432629 567.4375 52.8125 L 567.4375 54.84375 C 567.43749 55.223624 567.53545 55.544354 567.78125 55.8125 C 568.04937 56.058301 568.40137 56.1875 568.78125 56.1875 L 569.53125 56.1875 C 569.91113 56.1875 570.22294 56.058301 570.46875 55.8125 C 570.73688 55.544354 570.87499 55.223626 570.875 54.84375 L 570.875 52.8125 C 570.87498 52.432627 570.73689 52.120805 570.46875 51.875 C 570.22293 51.606857 569.91112 51.500005 569.53125 51.5 L 568.78125 51.5 z "
       xlink:href="#text6775"
       style="font-size:33.51835250999999971px;font-style:normal;font-variant:normal;font-weight:bold;font-stretch:normal;text-indent:0;text-align:center;text-decoration:none;line-height:100%;letter-spacing:normal;word-spacing:normal;text-transform:none;direction:ltr;block-progression:tb;writing-mode:lr-tb;text-anchor:middle;opacity:0.77227723;fill:#000000;fill-opacity:1;fill-rule:nonzero;stroke:none;stroke-width:1px;stroke-linecap:butt;stroke-linejoin:miter;marker:none;marker-start:none;marker-mid:none;marker-end:none;stroke-miterlimit:4;stroke-dasharray:none;stroke-dashoffset:0;stroke-opacity:1;visibility:visible;display:inline;overflow:visible;filter:url(#filter6047);enable-background:accumulate;font-family:ChollaWideBoldOS;-inkscape-font-specification:ChollaWideBoldOS Bold"
       id="path5263"
       inkscape:href="#text6775"
       d="M 368.1875,33.53125 C 367.80762,33.531272 367.48688,33.638126 367.21875,33.90625 C 366.97292,34.152075 366.84374,34.495147 366.84375,34.875 L 366.84375,41.4375 C 366.84374,41.70566 366.73235,41.843764 366.53125,41.84375 C 366.33013,41.843765 366.09408,41.750183 365.78125,41.59375 C 365.46841,41.414999 365.08081,41.232375 364.65625,41.03125 C 364.25401,40.80781 363.80409,40.625185 363.3125,40.46875 C 362.8209,40.290002 362.29973,40.187516 361.71875,40.1875 L 361.21875,40.1875 C 359.56516,40.187516 358.34459,40.619634 357.5625,41.46875 C 356.80274,42.317896 356.40625,43.39147 356.40625,44.6875 L 356.40625,51.78125 C 356.40623,53.077295 356.80275,54.15087 357.5625,55 C 358.34458,55.849131 359.56517,56.28125 361.21875,56.28125 L 361.71875,56.28125 C 362.29971,56.28125 362.82089,56.187669 363.3125,56.03125 C 363.80411,55.852488 364.25402,55.678765 364.65625,55.5 C 365.08079,55.298892 365.4684,55.12517 365.78125,54.96875 C 366.09409,54.789987 366.33013,54.687501 366.53125,54.6875 C 366.64297,54.687502 366.75436,54.73656 366.84375,54.78125 C 366.95546,54.803598 367.06686,54.865928 367.15625,55 L 367.9375,56.1875 L 369.09375,56.1875 C 369.54065,56.1875 369.85247,56.040493 370.03125,55.75 C 370.21001,55.459507 370.28123,55.183302 370.28125,54.9375 L 370.28125,33.53125 L 368.1875,33.53125 z M 434.40625,33.53125 C 434.02638,33.531272 433.67439,33.638126 433.40625,33.90625 C 433.16044,34.152075 433.0625,34.495147 433.0625,34.875 L 433.0625,54.84375 C 433.0625,55.223624 433.16045,55.544354 433.40625,55.8125 C 433.67438,56.058301 434.02637,56.1875 434.40625,56.1875 L 436.5,56.1875 L 436.5,34.875 C 436.49999,34.495148 436.36189,34.152073 436.09375,33.90625 C 435.84794,33.638127 435.53612,33.531273 435.15625,33.53125 L 434.40625,33.53125 z M 487.78125,33.53125 C 487.40136,33.531272 487.08063,33.638126 486.8125,33.90625 C 486.5667,34.152075 486.43749,34.495147 486.4375,34.875 L 486.4375,41.4375 C 486.43748,41.70566 486.35735,41.843764 486.15625,41.84375 C 485.95512,41.843765 485.68783,41.750183 485.375,41.59375 C 485.06216,41.414999 484.70581,41.232375 484.28125,41.03125 C 483.87903,40.80781 483.42909,40.625185 482.9375,40.46875 C 482.44589,40.290002 481.89348,40.187516 481.3125,40.1875 L 480.8125,40.1875 C 479.15893,40.187516 477.93834,40.619634 477.15625,41.46875 C 476.39651,42.317896 476.03125,43.39147 476.03125,44.6875 L 476.03125,51.78125 C 476.03126,53.077295 476.3965,54.15087 477.15625,55 C 477.93836,55.849131 479.15892,56.28125 480.8125,56.28125 L 481.3125,56.28125 C 481.89349,56.28125 482.44589,56.187669 482.9375,56.03125 C 483.4291,55.852488 483.87902,55.678765 484.28125,55.5 C 484.70582,55.298892 485.06215,55.12517 485.375,54.96875 C 485.68783,54.789987 485.95513,54.687501 486.15625,54.6875 C 486.26796,54.687502 486.34811,54.73656 486.4375,54.78125 C 486.54921,54.803598 486.66061,54.865928 486.75,55 L 487.5625,56.1875 L 488.6875,56.1875 C 489.13439,56.1875 489.44622,56.040493 489.625,55.75 C 489.80375,55.459507 489.90623,55.183302 489.90625,54.9375 L 489.90625,33.53125 L 487.78125,33.53125 z M 503.40625,33.53125 C 503.02636,33.531272 502.70564,33.638126 502.4375,33.90625 C 502.1917,34.152075 502.0625,34.495147 502.0625,34.875 L 502.0625,54.84375 C 502.06248,55.223624 502.1917,55.544354 502.4375,55.8125 C 502.70565,56.058301 503.02637,56.1875 503.40625,56.1875 L 504.1875,56.1875 C 504.56738,56.1875 504.87919,56.058301 505.125,55.8125 C 505.39313,55.544354 505.53124,55.223626 505.53125,54.84375 L 505.53125,44.875 C 505.53126,44.450446 505.67825,44.103004 505.96875,43.8125 C 506.25923,43.522019 506.60668,43.375013 507.03125,43.375 L 511,43.375 C 511.42456,43.375014 511.772,43.52202 512.0625,43.8125 C 512.353,44.103003 512.49999,44.450446 512.5,44.875 L 512.5,54.84375 C 512.50002,55.223624 512.62919,55.544354 512.875,55.8125 C 513.14315,56.058301 513.46386,56.1875 513.84375,56.1875 L 514.625,56.1875 C 515.00485,56.1875 515.31668,56.058301 515.5625,55.8125 C 515.83066,55.544354 515.96873,55.223626 515.96875,54.84375 L 515.96875,44.6875 C 515.96876,43.391471 515.56333,42.317895 514.78125,41.46875 C 514.02147,40.619635 512.80981,40.187516 511.15625,40.1875 L 510.65625,40.1875 C 510.0976,40.187516 509.57644,40.290001 509.0625,40.46875 C 508.57089,40.625185 508.11206,40.80781 507.6875,41.03125 C 507.28526,41.232375 506.90658,41.415 506.59375,41.59375 C 506.28091,41.750183 506.04485,41.843764 505.84375,41.84375 C 505.64265,41.843765 505.53124,41.705661 505.53125,41.4375 L 505.53125,33.53125 L 503.40625,33.53125 z M 568.78125,33.53125 C 568.4014,33.531272 568.04939,33.638126 567.78125,33.90625 C 567.53542,34.152075 567.4375,34.495147 567.4375,34.875 L 567.4375,47.46875 C 567.43749,47.848633 567.53545,48.169361 567.78125,48.4375 C 568.04937,48.68331 568.40137,48.812507 568.78125,48.8125 L 569.53125,48.8125 C 569.91113,48.812509 570.22294,48.683309 570.46875,48.4375 C 570.73688,48.169362 570.87499,47.848633 570.875,47.46875 L 570.875,34.875 C 570.87498,34.495148 570.73689,34.152073 570.46875,33.90625 C 570.22293,33.638127 569.91112,33.531273 569.53125,33.53125 L 568.78125,33.53125 z M 423.46875,40.1875 C 422.91009,40.187516 422.35769,40.290001 421.84375,40.46875 C 421.35213,40.625185 420.89331,40.80781 420.46875,41.03125 C 420.04419,41.232375 419.68783,41.415 419.375,41.59375 C 419.06217,41.750183 418.79485,41.843764 418.59375,41.84375 C 418.39263,41.843765 418.21891,41.72347 418.0625,41.5 L 417.21875,40.28125 L 416.09375,40.28125 C 415.64684,40.281266 415.33501,40.428273 415.15625,40.71875 C 414.97748,41.009259 414.875,41.285464 414.875,41.53125 L 414.875,54.84375 C 414.87501,55.223624 415.0042,55.544354 415.25,55.8125 C 415.51814,56.058301 415.83887,56.1875 416.21875,56.1875 L 417,56.1875 C 417.37987,56.1875 417.69169,56.058301 417.9375,55.8125 C 418.20565,55.544354 418.34374,55.223626 418.34375,54.84375 L 418.34375,44.875 C 418.34375,44.450446 418.4595,44.103004 418.75,43.8125 C 419.04047,43.522019 419.41918,43.375013 419.84375,43.375 L 423.78125,43.375 C 424.2058,43.375014 424.5845,43.52202 424.875,43.8125 C 425.16549,44.103003 425.31249,44.450446 425.3125,44.875 L 425.3125,54.84375 C 425.31248,55.223624 425.41044,55.544354 425.65625,55.8125 C 425.92439,56.058301 426.27636,56.1875 426.65625,56.1875 L 427.40625,56.1875 C 427.78612,56.1875 428.09793,56.058301 428.34375,55.8125 C 428.61187,55.544354 428.74998,55.223626 428.75,54.84375 L 428.75,44.6875 C 428.74997,43.391471 428.37583,42.317895 427.59375,41.46875 C 426.83399,40.619635 425.62231,40.187516 423.96875,40.1875 L 423.46875,40.1875 z M 392.90625,40.25 L 392,40.5 C 391.70951,40.567052 391.46892,40.722964 391.3125,40.96875 C 391.15607,41.19222 391.09375,41.410464 391.09375,41.65625 C 391.09376,41.790338 391.10265,41.892823 391.125,41.9375 L 394.5625,54.46875 C 394.60717,54.625169 394.69186,54.798891 394.78125,55 C 394.87064,55.20111 394.99092,55.383736 395.125,55.5625 C 395.25906,55.718918 395.42388,55.865927 395.625,56 C 395.8261,56.111727 396.03544,56.1875 396.28125,56.1875 L 397.46875,56.1875 C 397.91565,56.1875 398.2631,56.022684 398.53125,55.6875 C 398.7994,55.329974 398.98201,54.95128 399.09375,54.59375 L 400.625,50.3125 C 400.75907,49.932631 400.89717,49.509418 401.03125,49.0625 C 401.16531,48.615598 401.2767,48.268155 401.34375,48 C 401.43312,47.731862 401.46874,47.57595 401.46875,47.53125 L 401.5,47.53125 C 401.49998,47.57595 401.55795,47.731862 401.625,48 C 401.71436,48.268155 401.80341,48.615596 401.9375,49.0625 C 402.07156,49.509419 402.20966,49.932632 402.34375,50.3125 L 403.90625,54.59375 C 404.01797,54.951281 404.20059,55.329972 404.46875,55.6875 C 404.73687,56.022686 405.08432,56.1875 405.53125,56.1875 L 406.71875,56.1875 C 406.96453,56.1875 407.17387,56.111728 407.375,56 C 407.5761,55.865926 407.74091,55.718919 407.875,55.5625 C 408.00906,55.383735 408.12935,55.201111 408.21875,55 C 408.3081,54.79889 408.36154,54.625171 408.40625,54.46875 L 411.875,41.9375 C 411.89734,41.892824 411.90623,41.790338 411.90625,41.65625 C 411.90622,41.410464 411.81265,41.192221 411.65625,40.96875 C 411.49982,40.722963 411.29047,40.567052 411,40.5 L 410.09375,40.25 C 409.78089,40.160635 409.47797,40.236406 409.1875,40.4375 C 408.89699,40.616278 408.71436,40.843427 408.625,41.15625 L 406.875,47.8125 C 406.78561,48.192384 406.67421,48.677927 406.5625,49.28125 C 406.47311,49.862242 406.40187,50.419021 406.3125,51 C 406.2231,51.558645 406.13843,52.075438 406.09375,52.5 C 406.04904,52.902224 406.01343,53.093753 405.96875,53.09375 C 405.83465,52.535113 405.69656,52.058474 405.5625,51.65625 C 405.45074,51.254036 405.32156,50.821917 405.1875,50.375 C 405.05341,49.90575 404.91531,49.482536 404.78125,49.125 L 403.5625,45.84375 C 403.45075,45.575615 403.28594,45.366275 403.0625,45.1875 C 402.83903,45.008746 402.57173,44.906261 402.28125,44.90625 L 400.71875,44.90625 C 400.42824,44.90626 400.16095,45.008747 399.9375,45.1875 C 399.71404,45.366274 399.54922,45.575614 399.4375,45.84375 L 398.1875,49.125 C 398.05342,49.482534 397.91532,49.905749 397.78125,50.375 C 397.64717,50.821917 397.50907,51.254035 397.375,51.65625 C 397.26327,52.058475 397.19203,52.397011 397.125,52.6875 C 397.05794,52.95565 397.01343,53.093753 396.96875,53.09375 C 396.87936,52.266966 396.77688,51.558644 396.6875,51 C 396.59812,50.419022 396.49563,49.862241 396.40625,49.28125 C 396.31685,48.677928 396.23672,48.192383 396.125,47.8125 L 394.375,41.15625 C 394.2856,40.843426 394.10299,40.61628 393.8125,40.4375 C 393.522,40.236404 393.21908,40.160634 392.90625,40.25 z M 378.46875,40.28125 C 377.88777,40.281266 377.35769,40.40156 376.84375,40.625 C 376.35215,40.848472 375.91112,41.15139 375.53125,41.53125 C 375.15138,41.911137 374.84845,42.361066 374.625,42.875 C 374.40156,43.366615 374.28125,43.887778 374.28125,44.46875 L 374.28125,52 C 374.28125,52.580987 374.40154,53.111055 374.625,53.625 C 374.84847,54.116604 375.15137,54.557627 375.53125,54.9375 C 375.91113,55.317374 376.35214,55.620295 376.84375,55.84375 C 377.3577,56.067204 377.88776,56.1875 378.46875,56.1875 L 383.9375,56.1875 C 384.51847,56.1875 385.07088,56.067206 385.5625,55.84375 C 386.07643,55.620294 386.52636,55.317376 386.90625,54.9375 C 387.28611,54.557625 387.55778,54.116605 387.78125,53.625 C 388.00469,53.111054 388.12498,52.580988 388.125,52 L 388.125,44.46875 C 388.12499,43.887779 388.00469,43.366615 387.78125,42.875 C 387.55778,42.361065 387.28611,41.911139 386.90625,41.53125 C 386.52636,41.151388 386.07643,40.848471 385.5625,40.625 C 385.07088,40.401561 384.51847,40.281266 383.9375,40.28125 L 378.46875,40.28125 z M 445,40.28125 C 444.419,40.281266 443.85769,40.40156 443.34375,40.625 C 442.85213,40.848472 442.41112,41.15139 442.03125,41.53125 C 441.65136,41.911137 441.34845,42.361066 441.125,42.875 C 440.90154,43.366615 440.8125,43.887778 440.8125,44.46875 L 440.8125,52 C 440.81248,52.580987 440.90154,53.111055 441.125,53.625 C 441.34845,54.116604 441.65137,54.557627 442.03125,54.9375 C 442.41111,55.317374 442.85214,55.620295 443.34375,55.84375 C 443.85768,56.067204 444.41901,56.1875 445,56.1875 L 450.46875,56.1875 C 451.04973,56.1875 451.57088,56.067206 452.0625,55.84375 C 452.57644,55.620294 453.02636,55.317376 453.40625,54.9375 C 453.78612,54.557625 454.08903,54.116605 454.3125,53.625 C 454.53595,53.111054 454.65623,52.580988 454.65625,52 L 454.65625,44.46875 C 454.65622,43.887779 454.53594,43.366615 454.3125,42.875 C 454.08904,42.361065 453.78611,41.911139 453.40625,41.53125 C 453.02637,41.151388 452.57643,40.848471 452.0625,40.625 C 451.57089,40.401561 451.04972,40.281266 450.46875,40.28125 L 445,40.28125 z M 461.09375,40.28125 C 460.73621,40.281266 460.42439,40.383751 460.15625,40.5625 C 459.91043,40.74128 459.78125,41.008582 459.78125,41.34375 L 459.78125,43.375 L 467.21875,43.375 C 467.59861,43.375014 467.91044,43.52202 468.15625,43.8125 C 468.40205,44.080658 468.53124,44.374674 468.53125,44.6875 L 468.53125,47.15625 C 468.53123,47.424406 468.41985,47.562509 468.21875,47.5625 C 468.01763,47.562508 467.78158,47.500178 467.46875,47.34375 C 467.15591,47.164996 466.76831,46.951119 466.34375,46.75 C 465.94153,46.526552 465.49159,46.343929 465,46.1875 C 464.5084,46.008745 463.98723,45.90626 463.40625,45.90625 L 462.90625,45.90625 C 461.25266,45.906259 460.03209,46.338378 459.25,47.1875 C 458.49024,48.036639 458.09375,49.110214 458.09375,50.40625 L 458.09375,51.78125 C 458.09376,53.077295 458.49025,54.15087 459.25,55 C 460.03208,55.849131 461.25267,56.28125 462.90625,56.28125 L 463.40625,56.28125 C 463.98724,56.28125 464.50839,56.187669 465,56.03125 C 465.4916,55.852488 465.94152,55.678765 466.34375,55.5 C 466.76832,55.298892 467.1559,55.12517 467.46875,54.96875 C 467.78159,54.789987 468.01763,54.687501 468.21875,54.6875 C 468.33046,54.687502 468.44186,54.73656 468.53125,54.78125 C 468.64296,54.803598 468.75436,54.865928 468.84375,55 L 469.625,56.1875 L 470.78125,56.1875 C 471.22815,56.1875 471.53997,56.040493 471.71875,55.75 C 471.8975,55.459507 471.96873,55.183302 471.96875,54.9375 L 471.96875,44.1875 C 471.96873,43.673563 471.9064,43.15677 471.75,42.6875 C 471.59355,42.218256 471.32626,41.826293 470.96875,41.46875 C 470.63355,41.111237 470.18363,40.826125 469.625,40.625 C 469.08869,40.401561 468.44724,40.281266 467.6875,40.28125 L 461.09375,40.28125 z M 524.125,40.28125 C 523.54403,40.281266 523.01394,40.40156 522.5,40.625 C 522.00841,40.826127 521.56737,41.12014 521.1875,41.5 C 520.80761,41.879888 520.5047,42.329816 520.28125,42.84375 C 520.05782,43.357712 519.9375,43.887778 519.9375,44.46875 L 519.9375,52 C 519.93748,52.580987 520.05779,53.111055 520.28125,53.625 C 520.50473,54.138949 520.80762,54.588877 521.1875,54.96875 C 521.56736,55.348626 522.00839,55.651545 522.5,55.875 C 523.01396,56.076111 523.54401,56.1875 524.125,56.1875 L 530.1875,56.1875 C 530.56736,56.1875 530.87919,56.07611 531.125,55.875 C 531.39311,55.651546 531.49999,55.348625 531.5,54.96875 L 531.5,53.09375 L 524.78125,53.09375 C 524.4014,53.093751 524.08064,52.964554 523.8125,52.71875 C 523.54433,52.472951 523.40624,52.14332 523.40625,51.71875 L 523.40625,49.53125 L 531.75,49.53125 C 532.33095,49.531258 532.81651,49.339727 533.21875,48.9375 C 533.62095,48.535287 533.81248,48.049743 533.8125,47.46875 L 533.8125,44.46875 C 533.81248,43.887779 533.72344,43.366615 533.5,42.875 C 533.27655,42.361065 532.97361,41.911139 532.59375,41.53125 C 532.21385,41.151388 531.76393,40.848471 531.25,40.625 C 530.7584,40.401561 530.20597,40.281266 529.625,40.28125 L 524.125,40.28125 z M 538.3125,40.28125 C 537.86561,40.281266 537.55376,40.428273 537.375,40.71875 C 537.19622,41.009259 537.09375,41.285464 537.09375,41.53125 L 537.09375,54.84375 C 537.09372,55.223624 537.22295,55.544354 537.46875,55.8125 C 537.73691,56.058301 538.05762,56.1875 538.4375,56.1875 L 539.21875,56.1875 C 539.59861,56.1875 539.91044,56.058301 540.15625,55.8125 C 540.42436,55.544354 540.56249,55.223626 540.5625,54.84375 L 540.5625,44.8125 C 540.56252,44.387945 540.7095,44.049409 541,43.78125 C 541.29046,43.513116 541.59341,43.375013 541.90625,43.375 L 548.1875,43.375 L 548.1875,41.5 C 548.18749,41.12014 548.05829,40.826125 547.8125,40.625 C 547.5667,40.401561 547.25486,40.281266 546.875,40.28125 L 543.96875,40.28125 C 543.47716,40.281266 543.05393,40.374847 542.71875,40.53125 C 542.40592,40.687686 542.16095,40.861405 541.9375,41.0625 C 541.71405,41.263624 541.49126,41.437346 541.3125,41.59375 C 541.15609,41.750183 540.99126,41.843764 540.8125,41.84375 C 540.61137,41.843765 540.43766,41.72347 540.28125,41.5 L 539.4375,40.28125 L 538.3125,40.28125 z M 553.78125,40.28125 C 553.20028,40.281266 552.67019,40.40156 552.15625,40.625 C 551.66466,40.826127 551.22362,41.12014 550.84375,41.5 C 550.46386,41.879888 550.16095,42.329816 549.9375,42.84375 C 549.71407,43.357712 549.59375,43.887778 549.59375,44.46875 L 549.59375,52 C 549.59373,52.580987 549.71404,53.111055 549.9375,53.625 C 550.16098,54.138949 550.46387,54.588877 550.84375,54.96875 C 551.22361,55.348626 551.66464,55.651545 552.15625,55.875 C 552.67021,56.076111 553.20026,56.1875 553.78125,56.1875 L 559.8125,56.1875 C 560.19236,56.1875 560.53544,56.07611 560.78125,55.875 C 561.04936,55.651546 561.15624,55.348625 561.15625,54.96875 L 561.15625,53.09375 L 554.4375,53.09375 C 554.05765,53.093751 553.73689,52.964554 553.46875,52.71875 C 553.20058,52.472951 553.06249,52.14332 553.0625,51.71875 L 553.0625,49.53125 L 561.40625,49.53125 C 561.9872,49.531258 562.47276,49.339727 562.875,48.9375 C 563.2772,48.535287 563.46873,48.049743 563.46875,47.46875 L 563.46875,44.46875 C 563.46873,43.887779 563.37969,43.366615 563.15625,42.875 C 562.9328,42.361065 562.62986,41.911139 562.25,41.53125 C 561.8701,41.151388 561.42018,40.848471 560.90625,40.625 C 560.41465,40.401561 559.86222,40.281266 559.28125,40.28125 L 553.78125,40.28125 z M 361.375,43.375 L 365.34375,43.375 C 365.76831,43.375014 366.11575,43.52202 366.40625,43.8125 C 366.69672,44.103003 366.84374,44.450446 366.84375,44.875 L 366.84375,51.59375 C 366.84374,52.01832 366.69673,52.365761 366.40625,52.65625 C 366.11574,52.946747 365.7683,53.093753 365.34375,53.09375 L 361.375,53.09375 C 360.95044,53.093751 360.60299,52.946746 360.3125,52.65625 C 360.02199,52.365763 359.87499,52.01832 359.875,51.59375 L 359.875,44.875 C 359.87501,44.450446 360.022,44.103004 360.3125,43.8125 C 360.60298,43.522019 360.95043,43.375013 361.375,43.375 z M 379.25,43.375 L 383.15625,43.375 C 383.58082,43.375014 383.9595,43.52202 384.25,43.8125 C 384.54048,44.103003 384.68749,44.450446 384.6875,44.875 L 384.6875,51.59375 C 384.6875,52.01832 384.54048,52.365761 384.25,52.65625 C 383.9595,52.946747 383.5808,53.093753 383.15625,53.09375 L 379.25,53.09375 C 378.82543,53.093751 378.47799,52.946746 378.1875,52.65625 C 377.89701,52.365763 377.74999,52.01832 377.75,51.59375 L 377.75,44.875 C 377.75,44.450446 377.897,44.103004 378.1875,43.8125 C 378.478,43.522019 378.82543,43.375013 379.25,43.375 z M 445.75,43.375 L 449.6875,43.375 C 450.11205,43.375014 450.4595,43.52202 450.75,43.8125 C 451.04049,44.103003 451.18749,44.450446 451.1875,44.875 L 451.1875,51.59375 C 451.18748,52.01832 451.04048,52.365761 450.75,52.65625 C 450.45951,52.946747 450.11205,53.093753 449.6875,53.09375 L 445.75,53.09375 C 445.32544,53.093751 444.97799,52.946746 444.6875,52.65625 C 444.39699,52.365763 444.24999,52.01832 444.25,51.59375 L 444.25,44.875 C 444.25001,44.450446 444.397,44.103004 444.6875,43.8125 C 444.97798,43.522019 445.32543,43.375013 445.75,43.375 z M 480.96875,43.375 L 484.9375,43.375 C 485.36205,43.375014 485.7095,43.52202 486,43.8125 C 486.29049,44.103003 486.43749,44.450446 486.4375,44.875 L 486.4375,51.59375 C 486.43748,52.01832 486.29048,52.365761 486,52.65625 C 485.70951,52.946747 485.36205,53.093753 484.9375,53.09375 L 480.96875,53.09375 C 480.54418,53.093751 480.19674,52.946746 479.90625,52.65625 C 479.61574,52.365763 479.46874,52.01832 479.46875,51.59375 L 479.46875,44.875 C 479.46875,44.450446 479.61575,44.103004 479.90625,43.8125 C 480.19672,43.522019 480.54418,43.375013 480.96875,43.375 z M 524.75,43.375 L 529.03125,43.375 C 529.41114,43.375014 529.72294,43.513116 529.96875,43.78125 C 530.23689,44.027064 530.37499,44.338887 530.375,44.71875 L 530.375,46.75 L 523.40625,46.75 L 523.40625,44.71875 C 523.40623,44.338887 523.53544,44.027063 523.78125,43.78125 C 524.04936,43.513116 524.37012,43.375013 524.75,43.375 z M 554.40625,43.375 L 558.6875,43.375 C 559.06739,43.375014 559.37919,43.513116 559.625,43.78125 C 559.89314,44.027064 560.03124,44.338887 560.03125,44.71875 L 560.03125,46.75 L 553.0625,46.75 L 553.0625,44.71875 C 553.06248,44.338887 553.19169,44.027063 553.4375,43.78125 C 553.70561,43.513116 554.02637,43.375013 554.40625,43.375 z M 463.0625,49.09375 L 467.03125,49.09375 C 467.45581,49.093757 467.80325,49.240765 468.09375,49.53125 C 468.38422,49.82175 468.53124,50.20044 468.53125,50.625 L 468.53125,51.59375 C 468.53123,52.01832 468.38423,52.365761 468.09375,52.65625 C 467.80323,52.946747 467.45581,53.093753 467.03125,53.09375 L 463.0625,53.09375 C 462.63793,53.093751 462.29049,52.946746 462,52.65625 C 461.70949,52.365763 461.5625,52.01832 461.5625,51.59375 L 461.5625,50.625 C 461.56251,50.200439 461.7095,49.821749 462,49.53125 C 462.29048,49.240766 462.63793,49.093757 463.0625,49.09375 z M 568.78125,51.5 C 568.4014,51.500005 568.04939,51.606858 567.78125,51.875 C 567.53542,52.120804 567.4375,52.432629 567.4375,52.8125 L 567.4375,54.84375 C 567.43749,55.223624 567.53545,55.544354 567.78125,55.8125 C 568.04937,56.058301 568.40137,56.1875 568.78125,56.1875 L 569.53125,56.1875 C 569.91113,56.1875 570.22294,56.058301 570.46875,55.8125 C 570.73688,55.544354 570.87499,55.223626 570.875,54.84375 L 570.875,52.8125 C 570.87498,52.432627 570.73689,52.120805 570.46875,51.875 C 570.22293,51.606857 569.91112,51.500005 569.53125,51.5 L 568.78125,51.5 z"
       transform="translate(0,1)" />
    <text
       xml:space="preserve"
       style="font-size:33.51835251px;font-style:normal;font-variant:normal;font-weight:bold;font-stretch:normal;text-indent:0;text-align:center;text-decoration:none;line-height:100%;letter-spacing:normal;word-spacing:normal;text-transform:none;direction:ltr;block-progression:tb;writing-mode:lr-tb;text-anchor:middle;opacity:1;fill:#ffffff;fill-opacity:1;fill-rule:nonzero;stroke:none;stroke-width:1px;stroke-linecap:butt;stroke-linejoin:miter;marker:none;marker-start:none;marker-mid:none;marker-end:none;stroke-miterlimit:4;stroke-dasharray:none;stroke-dashoffset:0;stroke-opacity:1;visibility:visible;display:inline;overflow:visible;enable-background:accumulate;font-family:ChollaWideBoldOS;-inkscape-font-specification:ChollaWideBoldOS Bold"
       x="463.99445"
       y="56.177227"
       id="text6775"
       sodipodi:linespacing="100%"><tspan
         sodipodi:role="line"
         x="463.99445"
         y="56.177227"
         id="tspan5244">download here!</tspan></text>
  </g>
</svg>
