<?xml version="1.0" encoding="UTF-8" standalone="no"?>
<!-- Created with Inkscape (http://www.inkscape.org/) -->
<svg
   xmlns:dc="http://purl.org/dc/elements/1.1/"
   xmlns:cc="http://creativecommons.org/ns#"
   xmlns:rdf="http://www.w3.org/1999/02/22-rdf-syntax-ns#"
   xmlns:svg="http://www.w3.org/2000/svg"
   xmlns="http://www.w3.org/2000/svg"
   xmlns:xlink="http://www.w3.org/1999/xlink"
   xmlns:sodipodi="http://sodipodi.sourceforge.net/DTD/sodipodi-0.dtd"
   xmlns:inkscape="http://www.inkscape.org/namespaces/inkscape"
   width="130"
   height="130"
   id="svg2"
   sodipodi:version="0.32"
   inkscape:version="0.46"
   version="1.0"
   sodipodi:docname="getit-small.svg"
   inkscape:output_extension="org.inkscape.output.svg.inkscape">
  <defs
     id="defs4">
    <inkscape:perspective
       sodipodi:type="inkscape:persp3d"
       inkscape:vp_x="-50 : 600 : 1"
       inkscape:vp_y="0 : 1000 : 0"
       inkscape:vp_z="700 : 600 : 1"
       inkscape:persp3d-origin="300 : 400 : 1"
       id="perspective94" />
    <inkscape:perspective
       sodipodi:type="inkscape:persp3d"
       inkscape:vp_x="-50 : 600 : 1"
       inkscape:vp_y="0 : 1000 : 0"
       inkscape:vp_z="700 : 600 : 1"
       inkscape:persp3d-origin="300 : 400 : 1"
       id="perspective93" />
    <inkscape:perspective
       sodipodi:type="inkscape:persp3d"
       inkscape:vp_x="-50 : 600 : 1"
       inkscape:vp_y="0 : 1000 : 0"
       inkscape:vp_z="700 : 600 : 1"
       inkscape:persp3d-origin="300 : 400 : 1"
       id="perspective92" />
    <linearGradient
       inkscape:collect="always"
       id="linearGradient7158">
      <stop
         style="stop-color:#27b800;stop-opacity:1"
         offset="0"
         id="stop7160" />
      <stop
         style="stop-color:#1b6306;stop-opacity:1"
         offset="1"
         id="stop7162" />
    </linearGradient>
    <radialGradient
       inkscape:collect="always"
       xlink:href="#linearGradient7158"
       id="radialGradient7164"
       cx="458.75778"
       cy="-604.58423"
       fx="780.00769"
       fy="-603.4187"
       r="400"
       gradientTransform="matrix(1.5330664e-3,-0.151895,0.1409594,1.7926652e-3,147.03698,146.54894)"
       gradientUnits="userSpaceOnUse" />
    <linearGradient
       inkscape:collect="always"
       id="linearGradient9016">
      <stop
         style="stop-color:#24a701;stop-opacity:1;"
         offset="0"
         id="stop9018" />
      <stop
         style="stop-color:#24a701;stop-opacity:0;"
         offset="1"
         id="stop9020" />
    </linearGradient>
    <radialGradient
       inkscape:collect="always"
       xlink:href="#linearGradient9016"
       id="radialGradient9024"
       gradientUnits="userSpaceOnUse"
       gradientTransform="matrix(1.8476051,0,0,1.8476051,-85.384376,-81.638125)"
       cx="79.423729"
       cy="72.409096"
       fx="79.423729"
       fy="72.409096"
       r="69.84375" />
    <linearGradient
       inkscape:collect="always"
       id="linearGradient9026">
      <stop
         id="stop9030"
         offset="0"
         style="stop-color:#ffffff;stop-opacity:0;" />
      <stop
         id="stop9028"
         offset="1"
         style="stop-color:#ffffff;stop-opacity:1;" />
    </linearGradient>
    <radialGradient
       inkscape:collect="always"
       xlink:href="#linearGradient9026"
       id="radialGradient9032"
       cx="154.76555"
       cy="79.415726"
       fx="154.76555"
       fy="79.415726"
       r="69.938171"
       gradientUnits="userSpaceOnUse"
       gradientTransform="matrix(0.5575867,0,0,0.5575867,68.470323,35.134566)" />
    <linearGradient
       id="linearGradient9038"
       inkscape:collect="always">
      <stop
         style="stop-color:#24a701;stop-opacity:0;"
         offset="0"
         id="stop9042" />
      <stop
         style="stop-color:#24a701;stop-opacity:1;"
         offset="1"
         id="stop9040" />
    </linearGradient>
    <radialGradient
       inkscape:collect="always"
       xlink:href="#linearGradient9038"
       id="radialGradient9022"
       cx="79.423729"
       cy="72.409096"
       fx="79.423729"
       fy="72.409096"
       r="69.84375"
       gradientUnits="userSpaceOnUse"
       gradientTransform="matrix(1.8476051,0,0,1.8476051,-84.760505,-84.760505)" />
    <radialGradient
       inkscape:collect="always"
       xlink:href="#linearGradient7150"
       id="radialGradient8683"
       gradientUnits="userSpaceOnUse"
       gradientTransform="matrix(0.7435303,0,0,0.1539332,157.35885,387.14301)"
       cx="625.98718"
       cy="169.35002"
       fx="625.98718"
       fy="169.35002"
       r="408.5" />
    <linearGradient
       inkscape:collect="always"
       id="linearGradient7150">
      <stop
         style="stop-color:#ffffff;stop-opacity:1;"
         offset="0"
         id="stop7152" />
      <stop
         style="stop-color:#ffffff;stop-opacity:0;"
         offset="1"
         id="stop7154" />
    </linearGradient>
    <radialGradient
       inkscape:collect="always"
       xlink:href="#linearGradient7150"
       id="radialGradient7156"
       cx="364.41531"
       cy="208.24603"
       fx="364.41531"
       fy="208.24603"
       r="408.5"
       gradientTransform="matrix(1.6046904,0,0,0.2828371,-393.04882,474.60029)"
       gradientUnits="userSpaceOnUse" />
    <linearGradient
       inkscape:collect="always"
       id="linearGradient8721">
      <stop
         style="stop-color:#d7dcdd;stop-opacity:1;"
         offset="0"
         id="stop8723" />
      <stop
         style="stop-color:#ffffff;stop-opacity:1"
         offset="1"
         id="stop8725" />
    </linearGradient>
    <linearGradient
       id="linearGradient8783"
       inkscape:collect="always">
      <stop
         id="stop8785"
         offset="0"
         style="stop-color:#9eaaac;stop-opacity:1" />
      <stop
         id="stop8787"
         offset="1"
         style="stop-color:#ffffff;stop-opacity:1" />
    </linearGradient>
    <linearGradient
       inkscape:collect="always"
       xlink:href="#linearGradient8783"
       id="linearGradient8727"
       x1="401.30548"
       y1="500.9314"
       x2="401.30548"
       y2="463.56079"
       gradientUnits="userSpaceOnUse" />
    <filter
       inkscape:collect="always"
       id="filter8779"
       x="-0.021823626"
       width="1.0436473"
       y="-0.11597504"
       height="1.23195">
      <feGaussianBlur
         inkscape:collect="always"
         stdDeviation="2.2672686"
         id="feGaussianBlur8781" />
    </filter>
    <linearGradient
       inkscape:collect="always"
       id="linearGradient7132">
      <stop
         style="stop-color:#444d50;stop-opacity:1"
         offset="0"
         id="stop7134" />
      <stop
         id="stop7140"
         offset="0.87155616"
         style="stop-color:#262c2d;stop-opacity:1" />
      <stop
         style="stop-color:#3c4447;stop-opacity:1"
         offset="1"
         id="stop7136" />
    </linearGradient>
    <linearGradient
       inkscape:collect="always"
       xlink:href="#linearGradient7132"
       id="linearGradient7138"
       x1="472"
       y1="-47.512444"
       x2="472"
       y2="113.2215"
       gradientUnits="userSpaceOnUse"
       gradientTransform="translate(0,421)" />
    <filter
       inkscape:collect="always"
       id="filter7144">
      <feGaussianBlur
         inkscape:collect="always"
         stdDeviation="2.4"
         id="feGaussianBlur7146" />
    </filter>
    <inkscape:perspective
       sodipodi:type="inkscape:persp3d"
       inkscape:vp_x="-50 : 600 : 1"
       inkscape:vp_y="0 : 1000 : 0"
       inkscape:vp_z="700 : 600 : 1"
       inkscape:persp3d-origin="300 : 400 : 1"
       id="perspective10" />
    <radialGradient
       inkscape:collect="always"
       xlink:href="#linearGradient9026"
       id="radialGradient5852"
       gradientUnits="userSpaceOnUse"
       gradientTransform="matrix(0.5575867,0,0,0.5575867,67.846452,38.256946)"
       cx="154.76555"
       cy="79.415726"
       fx="154.76555"
       fy="79.415726"
       r="69.938171" />
    <linearGradient
       inkscape:collect="always"
       xlink:href="#linearGradient8721"
       id="linearGradient5876"
       gradientUnits="userSpaceOnUse"
       x1="276.63681"
       y1="487.02036"
       x2="525.97412"
       y2="487.02036" />
    <linearGradient
       inkscape:collect="always"
       xlink:href="#linearGradient8721"
       id="linearGradient5878"
       gradientUnits="userSpaceOnUse"
       x1="276.63681"
       y1="487.02036"
       x2="525.97412"
       y2="487.02036" />
    <linearGradient
       inkscape:collect="always"
       xlink:href="#linearGradient8721"
       id="linearGradient5880"
       gradientUnits="userSpaceOnUse"
       x1="276.63681"
       y1="487.02036"
       x2="525.97412"
       y2="487.02036" />
    <linearGradient
       inkscape:collect="always"
       xlink:href="#linearGradient8721"
       id="linearGradient5882"
       gradientUnits="userSpaceOnUse"
       x1="276.63681"
       y1="487.02036"
       x2="525.97412"
       y2="487.02036" />
    <linearGradient
       inkscape:collect="always"
       xlink:href="#linearGradient8721"
       id="linearGradient5884"
       gradientUnits="userSpaceOnUse"
       x1="276.63681"
       y1="487.02036"
       x2="525.97412"
       y2="487.02036" />
    <linearGradient
       inkscape:collect="always"
       xlink:href="#linearGradient8721"
       id="linearGradient5886"
       gradientUnits="userSpaceOnUse"
       x1="276.63681"
       y1="487.02036"
       x2="525.97412"
       y2="487.02036" />
    <linearGradient
       inkscape:collect="always"
       xlink:href="#linearGradient8721"
       id="linearGradient5888"
       gradientUnits="userSpaceOnUse"
       x1="276.63681"
       y1="487.02036"
       x2="525.97412"
       y2="487.02036" />
    <linearGradient
       inkscape:collect="always"
       xlink:href="#linearGradient8721"
       id="linearGradient5890"
       gradientUnits="userSpaceOnUse"
       x1="276.63681"
       y1="487.02036"
       x2="525.97412"
       y2="487.02036" />
    <linearGradient
       inkscape:collect="always"
       xlink:href="#linearGradient8721"
       id="linearGradient5892"
       gradientUnits="userSpaceOnUse"
       x1="276.63681"
       y1="487.02036"
       x2="525.97412"
       y2="487.02036" />
    <linearGradient
       inkscape:collect="always"
       xlink:href="#linearGradient8783"
       id="linearGradient5894"
       gradientUnits="userSpaceOnUse"
       x1="401.30548"
       y1="500.9314"
       x2="401.30548"
       y2="463.56079" />
    <filter
       inkscape:collect="always"
       id="filter6764"
       x="-0.1087833"
       width="1.2175666"
       y="-0.37785858"
       height="1.7557172">
      <feGaussianBlur
         inkscape:collect="always"
         stdDeviation="1.3923695"
         id="feGaussianBlur6766" />
    </filter>
    <filter
       inkscape:collect="always"
       id="filter6039">
      <feGaussianBlur
         inkscape:collect="always"
         stdDeviation="0.98756068"
         id="feGaussianBlur6041" />
    </filter>
  </defs>
  <sodipodi:namedview
     id="base"
     pagecolor="#ffffff"
     bordercolor="#e5e5e5"
     borderopacity="1"
     gridtolerance="10000"
     guidetolerance="10"
     objecttolerance="10"
     inkscape:pageopacity="0.0"
     inkscape:pageshadow="2"
     inkscape:zoom="1"
     inkscape:cx="7.15252"
     inkscape:cy="49.272697"
     inkscape:document-units="px"
     inkscape:current-layer="layer1"
     showgrid="false"
     borderlayer="true"
     inkscape:showpageshadow="false"
     inkscape:window-width="973"
     inkscape:window-height="842"
     inkscape:window-x="362"
     inkscape:window-y="248">
    <inkscape:grid
       type="xygrid"
       id="grid6773"
       enabled="true"
       visible="true" />
  </sodipodi:namedview>
  <metadata
     id="metadata7">
    <rdf:RDF>
      <cc:Work
         rdf:about="">
        <dc:format>image/svg+xml</dc:format>
        <dc:type
           rdf:resource="http://purl.org/dc/dcmitype/StillImage" />
        <dc:title />
        <dc:date />
        <dc:creator>
          <cc:Agent>
            <dc:title />
          </cc:Agent>
        </dc:creator>
        <dc:rights>
          <cc:Agent>
            <dc:title />
          </cc:Agent>
        </dc:rights>
        <dc:publisher>
          <cc:Agent>
            <dc:title />
          </cc:Agent>
        </dc:publisher>
        <dc:identifier />
        <dc:source />
        <dc:relation />
        <dc:language />
        <dc:subject>
          <rdf:Bag />
        </dc:subject>
        <dc:coverage />
        <dc:description />
        <dc:contributor>
          <cc:Agent>
            <dc:title />
          </cc:Agent>
        </dc:contributor>
        <cc:license
           rdf:resource="" />
      </cc:Work>
    </rdf:RDF>
  </metadata>
  <g
     inkscape:label="Layer 1"
     inkscape:groupmode="layer"
     id="layer1">
    <rect
       style="opacity:1;fill:url(#radialGradient7164);fill-opacity:1;fill-rule:evenodd;stroke:none;stroke-width:1;stroke-linecap:butt;stroke-linejoin:miter;marker:none;marker-start:none;marker-mid:none;marker-end:none;stroke-miterlimit:4;stroke-dasharray:none;stroke-dashoffset:0;stroke-opacity:1;visibility:visible;display:inline;overflow:visible;filter:url(#filter9012);enable-background:accumulate"
       id="rect5337"
       width="190.25632"
       height="194.19492"
       x="-40.189178"
       y="-37.203472" />
    <g
       id="g9001"
       inkscape:label="Layer 1"
       transform="matrix(1.6028961,0,0,1.6013422,-154.87506,-86.634224)"
       style="opacity:0.10416667;fill:url(#radialGradient9022);fill-opacity:1;stroke:url(#radialGradient9032);stroke-width:0.62417334;stroke-miterlimit:4;stroke-dasharray:none;stroke-opacity:1;filter:url(#filter9012)">
      <path
         id="path2445"
         d="M 99.376129,33.27863 C 60.805449,33.27863 29.532379,64.548138 29.532379,103.1224 C 29.532379,141.69664 60.805451,172.96615 99.376129,172.96615 C 137.94681,172.96615 169.21987,141.69664 169.21988,103.1224 C 169.21988,64.54814 137.94681,33.27863 99.376129,33.27863 z M 99.710559,42.951282 C 132.94408,42.951282 159.90738,69.892425 159.90738,103.1224 C 159.90738,136.35593 132.94052,163.2935 99.710559,163.2935 C 81.765738,163.2935 65.663356,155.42877 54.640114,142.97064 C 59.172605,139.45289 66.755743,140.3111 76.094879,141.37568 C 80.570404,141.88483 85.672332,142.46727 90.938284,142.58476 C 105.65018,142.67021 121.47962,139.98516 131.24958,135.71615 C 137.56587,132.94609 141.60993,131.12188 144.13787,128.82181 C 145.04936,128.07411 145.52802,126.82502 146.01581,125.529 L 146.35023,124.65434 C 146.75969,123.60756 147.34729,121.35508 147.61076,120.12672 C 147.72826,119.58908 147.78593,119.01092 147.40496,118.71183 L 146.04153,118.96909 C 141.75471,121.53975 131.0444,126.43579 121.01097,126.63518 C 108.57778,126.89509 83.518876,114.11875 80.90548,112.76933 L 80.648228,112.46063 C 80.021584,110.96522 76.27146,102.06254 75.477476,100.18971 C 93.514865,112.0675 108.46934,118.64181 119.93052,119.66366 C 132.67348,120.7959 142.61352,113.83867 146.86473,110.86567 C 147.69433,110.29955 148.3284,109.85562 148.58832,109.75949 L 148.8713,109.29643 C 148.16632,104.81734 141.48057,83.142893 136.44605,77.93747 C 135.05034,76.509718 133.94069,75.12022 131.6869,73.795723 C 113.46437,63.174809 70.197447,56.778223 68.171536,56.482705 L 67.83711,56.585605 L 67.708484,56.868582 C 67.708484,56.868582 67.54621,65.853003 67.528408,66.849935 C 66.043686,66.358591 61.439923,64.851338 54.845915,63.042615 C 63.449648,52.396771 76.634948,42.951283 99.710559,42.951282 z M 115.60869,74.799003 C 115.91574,74.794395 116.2257,74.788766 116.5348,74.799003 C 126.74269,75.165732 134.76268,83.76346 134.41377,93.964231 C 134.23218,98.899056 132.15165,103.4586 128.54844,106.82682 C 124.93454,110.21284 120.23757,111.97772 115.27427,111.8175 C 105.08417,111.43653 97.064169,102.8388 97.395293,92.652249 C 97.569757,87.710301 99.661779,83.121485 103.28635,79.763955 C 106.67103,76.589564 111.00299,74.868122 115.60869,74.799003 z M 115.11991,80.252732 C 112.14698,80.433475 109.34149,81.640604 107.14512,83.699901 C 104.64211,86.049816 103.16519,89.231433 103.05482,92.677974 C 102.81983,99.798933 108.39195,105.79159 115.50579,106.05507 C 118.96301,106.16188 122.24246,104.95069 124.76684,102.60789 C 127.2841,100.24728 128.75033,97.036381 128.85714,93.604079 C 129.09569,86.472436 123.49785,80.501966 116.38045,80.252732 C 115.94963,80.23671 115.54462,80.226912 115.11991,80.252732 z M 118.51563,86.709742 C 121.67734,86.709742 124.22662,88.427863 124.22661,90.542787 C 124.22661,92.647035 121.67734,94.375831 118.51563,94.375833 C 115.34324,94.375833 112.77893,92.643468 112.77893,90.542787 C 112.77893,88.427865 115.34324,86.709744 118.51563,86.709742 z"
         style="font-size:20.48839951000000070px;fill:url(#radialGradient9024);fill-opacity:1;fill-rule:evenodd;stroke:url(#radialGradient5852);stroke-width:0.93626006;stroke-miterlimit:4;stroke-dasharray:none;stroke-opacity:1;font-family:TrebuchetMS-Bold" />
    </g>
    <g
       style="opacity:1"
       id="g8789"
       transform="matrix(0.6190553,0,0,0.6184552,-356.73277,-290.77008)">
      <rect
         style="opacity:0.5625;fill:#000000;fill-opacity:1;fill-rule:evenodd;stroke:none;stroke-width:1;stroke-linecap:butt;stroke-linejoin:miter;marker:none;marker-start:none;marker-mid:none;marker-end:none;stroke-miterlimit:4;stroke-dasharray:none;stroke-dashoffset:0;stroke-opacity:1;visibility:visible;display:inline;overflow:visible;filter:url(#filter7144);enable-background:accumulate"
         id="rect7142"
         width="843"
         height="117"
         x="-16"
         y="413" />
      <rect
         y="410"
         x="-16"
         height="117"
         width="843"
         id="rect7130"
         style="opacity:1;fill:url(#linearGradient7138);fill-opacity:1;fill-rule:evenodd;stroke:none;stroke-width:1;stroke-linecap:butt;stroke-linejoin:miter;marker:none;marker-start:none;marker-mid:none;marker-end:none;stroke-miterlimit:4;stroke-dasharray:none;stroke-dashoffset:0;stroke-opacity:1;visibility:visible;display:inline;overflow:visible;enable-background:accumulate" />
      <g
         id="g5854"
         transform="matrix(1.2316266,0,0,1.2316266,-234.41331,-97.667266)">
        <g
           transform="matrix(0.3796416,0,0,0.3796416,568.43703,307.17325)"
           id="g8747"
           style="fill:#000000;fill-opacity:1;display:inline;filter:url(#filter8779)">
          <path
             d="M 525.54912,468.81976 L 525.38699,468.81976 C 525.19961,468.81976 525.03715,468.6573 525.03715,468.46991 L 525.03715,465.95923 L 524.48744,466.79612 C 524.42506,466.88343 524.31251,466.92083 524.21273,466.92083 L 524.15005,466.92083 C 524.05027,466.92083 523.93771,466.88343 523.87536,466.79612 L 523.31315,465.95923 L 523.31315,468.46991 C 523.31315,468.6573 523.15069,468.81976 522.95083,468.81976 L 522.7887,468.81976 C 522.60132,468.81976 522.43886,468.6573 522.43886,468.46991 L 522.43886,465.47188 L 520.75226,465.47188 L 520.75226,468.46991 C 520.75226,468.6573 520.57732,468.81976 520.37779,468.81976 L 520.22781,468.81976 C 520.0404,468.81976 519.87797,468.6573 519.87797,468.46991 L 519.87797,465.47188 L 518.61637,465.47188 C 518.42899,465.47188 518.279,465.34681 518.279,465.14725 L 518.279,464.97235 C 518.279,464.77249 518.42899,464.64743 518.61637,464.64743 L 523.03843,464.64743 C 523.21337,464.64743 523.32563,464.70981 523.38831,464.80989 L 524.2252,466.07148 L 525.0621,464.80989 C 525.12445,464.72228 525.22453,464.64743 525.41194,464.64743 L 525.97415,464.64743 L 525.97415,468.49487 C 525.97415,468.68225 525.79921,468.84471 525.59935,468.84471"
             id="path8749"
             style="fill:#000000;fill-opacity:1;stroke:none" />
          <path
             d="M 380.95621,463.5608 C 374.91023,463.5608 371.56235,468.68225 371.56235,472.22999 L 371.56235,476.77712 C 371.56235,481.9862 375.82195,485.22153 379.78195,485.22153 L 393.64778,485.22153 C 395.38422,485.22153 395.74654,486.35806 395.74654,487.31999 L 395.74654,490.25568 C 395.74654,490.56779 395.69667,493.39122 393.64778,493.39122 L 374.72285,493.39122 C 372.84887,493.39122 371.48752,494.69022 371.48752,496.47656 L 371.48752,497.28854 C 371.48752,499.06241 372.83639,500.37421 374.72285,500.37421 L 394.68483,500.37421 C 399.89392,500.37421 403.26675,496.75128 403.26675,491.13 L 403.26675,486.22085 C 403.26675,480.94912 399.46925,478.58842 395.70914,478.58842 L 382.06812,478.58842 C 380.00676,478.58842 379.08256,477.06428 379.08256,475.96517 L 379.08256,473.26677 C 379.08256,471.55558 380.2191,470.58118 382.21778,470.58118 L 397.33303,470.58118 C 399.18176,470.58118 400.56835,469.25693 400.56835,467.49551 L 400.56835,466.68357 C 400.56835,464.93462 399.1568,463.5982 397.27068,463.5982 L 380.98116,463.5982"
             id="path8751"
             style="fill:#000000;fill-opacity:1;stroke:none" />
          <path
             d="M 437.70666,463.5608 C 435.92031,463.5608 434.47133,465.00978 434.47133,466.79612 L 434.47133,490.03086 C 434.47133,491.87956 432.9597,493.37875 431.12345,493.37875 L 420.58025,493.37875 C 418.73155,493.37875 417.23233,491.87956 417.23233,490.03086 L 417.23233,466.79612 C 417.23233,465.00978 415.79586,463.5608 413.99704,463.5608 L 412.97273,463.5608 C 411.17391,463.5608 409.7374,464.98482 409.7374,466.79612 L 409.7374,490.91763 C 409.7374,496.52647 414.14702,500.59899 420.2304,500.59899 L 431.49824,500.59899 C 437.58162,500.59899 441.99121,496.52647 441.99121,490.91763 L 441.99121,466.79612 C 441.99121,464.98482 440.56722,463.5608 438.75592,463.5608 L 437.73161,463.5608"
             id="path8753"
             style="fill:#000000;fill-opacity:1;stroke:none" />
          <path
             d="M 457.90593,463.5608 C 451.85998,463.5608 448.5121,468.68225 448.5121,472.22999 L 448.5121,476.77712 C 448.5121,481.9862 452.78418,485.22153 456.73167,485.22153 L 470.5975,485.22153 C 472.33397,485.22153 472.70877,486.35806 472.70877,487.31999 L 472.70877,490.25568 C 472.70877,490.56779 472.64641,493.39122 470.5975,493.39122 L 451.6726,493.39122 C 449.79862,493.39122 448.43727,494.69022 448.43727,496.47656 L 448.43727,497.28854 C 448.43727,499.06241 449.79862,500.37421 451.6726,500.37421 L 471.62211,500.37421 C 476.84367,500.37421 480.2037,496.75128 480.2037,491.13 L 480.2037,486.22085 C 480.2037,480.94912 476.419,478.58842 472.64641,478.58842 L 459.00507,478.58842 C 456.94403,478.58842 456.01983,477.06428 456.01983,475.96517 L 456.01983,473.26677 C 456.01983,471.55558 457.15637,470.58118 459.14257,470.58118 L 474.25782,470.58118 C 476.09408,470.58118 477.49318,469.25693 477.49318,467.49551 L 477.49318,466.68357 C 477.49318,464.93462 476.0816,463.5982 474.1827,463.5982 L 457.90593,463.5982"
             id="path8755"
             style="fill:#000000;fill-opacity:1;stroke:none" />
          <path
             d="M 489.79745,463.5608 C 488.0114,463.5608 486.63725,464.88471 486.63725,466.64614 L 486.63725,497.28854 C 486.63725,499.03745 487.9612,500.37421 489.7351,500.37421 L 514.15658,500.37421 C 516.03056,500.37421 517.39223,499.07488 517.39223,497.28854 L 517.39223,496.47656 C 517.39223,494.70269 516.04303,493.39122 514.15658,493.39122 C 514.15658,493.39122 495.05674,493.39122 494.15716,493.39122 C 494.15716,492.59175 494.15716,486.38331 494.15716,485.58385 C 495.05674,485.58385 508.81031,485.58385 508.81031,485.58385 C 510.68396,485.58385 512.04564,484.28452 512.04564,482.4857 L 512.04564,481.68623 C 512.04564,479.89989 510.68396,478.58842 508.81031,478.58842 C 508.81031,478.58842 495.05674,478.58842 494.15716,478.58842 C 494.15716,477.78895 494.15716,471.36817 494.15716,470.56871 C 495.05674,470.56871 513.14474,470.56871 513.14474,470.56871 C 515.01875,470.56871 516.3804,469.26938 516.3804,467.48303 L 516.3804,466.67109 C 516.3804,464.88471 515.01875,463.58575 513.14474,463.58575 L 489.81025,463.58575"
             id="path8757"
             style="fill:#000000;fill-opacity:1;stroke:none" />
          <path
             d="M 282.17071,478.13846 C 279.1227,478.13846 276.63682,480.51197 276.63682,483.44763 L 276.63682,495.00266 C 276.63682,497.97575 279.03525,500.39913 281.98335,500.39913 L 289.45345,500.39913 C 292.40152,500.39913 294.81243,497.97575 294.81243,495.00266 L 294.81243,483.44763 C 294.81243,480.52445 292.32658,478.13846 289.27854,478.13846 L 282.17071,478.13846 z M 280.55927,494.55271 L 280.55927,484.00984 C 280.55927,482.77289 281.5711,481.76106 282.8078,481.76106 L 288.629,481.76106 C 289.84072,481.76106 290.87751,482.78567 290.87751,484.00984 L 290.87751,494.55271 C 290.87751,495.78968 289.86568,496.80148 288.629,496.80148 L 282.75781,496.80148 C 281.52113,496.80148 280.55927,495.8146 280.55927,494.55271"
             id="path8759"
             style="fill:#000000;fill-opacity:1;stroke:none" />
          <path
             d="M 311.75149,478.00128 C 309.59034,478.00128 307.97884,478.77583 306.66719,479.40036 C 305.88023,479.77485 305.19317,480.09975 304.65604,480.09975 C 304.43119,480.09975 304.2188,479.99997 304.10636,479.82506 L 303.61919,478.87558 C 303.50676,478.62584 303.00708,478.13846 302.38252,478.13846 L 301.658,478.13846 C 300.95843,478.13846 300.38381,478.76335 300.38381,479.55001 L 300.38381,508.84354 C 300.38381,509.75526 301.09585,510.4799 302.02026,510.4799 L 302.65732,510.4799 C 303.55675,510.4799 304.29378,509.74279 304.29378,508.84354 L 304.29378,499.12476 C 304.29378,498.83759 304.48113,498.53763 304.65604,498.53763 C 305.19317,498.53763 305.88023,498.83759 306.6797,499.21239 C 307.97884,499.79952 309.60282,500.54878 311.76396,500.54878 L 312.4384,500.54878 C 316.24841,500.54878 318.62189,498.3755 318.62189,494.87763 L 318.62189,483.69739 C 318.62189,480.24973 316.1985,478.01376 312.4384,478.01376 L 311.75149,478.01376 L 311.75149,478.01376 L 311.75149,478.00128 z M 304.28127,494.3279 L 304.28127,484.24712 C 304.28127,482.86053 305.36808,481.77354 306.75465,481.77354 L 312.20111,481.77354 C 313.58774,481.77354 314.67437,482.86053 314.67437,484.24712 L 314.67437,494.3279 C 314.67437,495.68957 313.57526,496.80148 312.20111,496.80148 L 306.75465,496.80148 C 305.39306,496.80148 304.28127,495.68957 304.28127,494.3279"
             id="path8761"
             style="fill:#000000;fill-opacity:1;stroke:none" />
          <path
             d="M 329.68954,478.13846 C 326.6416,478.13846 324.15586,480.51197 324.15586,483.44763 L 324.15586,494.91503 C 324.15586,497.88814 326.56677,500.41161 329.41482,500.41161 L 337.12245,500.41161 C 338.07157,500.41161 338.75881,499.76179 338.75881,498.86255 L 338.75881,498.36269 C 338.75881,497.46344 338.07157,496.81396 337.12245,496.81396 L 330.80145,496.81396 C 329.02758,496.81396 328.09058,495.95181 328.09058,494.29047 C 328.09058,494.29047 328.09058,491.40502 328.09058,490.94259 C 328.60288,490.94259 339.5084,490.94259 339.5084,490.94259 C 341.33218,490.94259 342.43128,489.81853 342.43128,487.9196 L 342.43128,483.47261 C 342.43128,480.54937 339.94555,478.16374 336.89764,478.16374 L 329.70231,478.16374 L 329.68954,478.13846 z M 328.0781,483.95963 C 328.0781,482.73546 329.04003,481.76106 330.27667,481.76106 L 336.28522,481.76106 C 337.52217,481.76106 338.48379,482.72299 338.48379,483.95963 C 338.48379,483.95963 338.48379,487.07023 338.48379,487.53235 C 337.99674,487.53235 328.56548,487.53235 328.0781,487.53235 C 328.0781,487.07023 328.0781,483.95963 328.0781,483.95963"
             id="path8763"
             style="fill:#000000;fill-opacity:1;stroke:none" />
          <path
             d="M 358.32108,478.00128 C 356.17241,478.00128 354.5485,478.76335 353.2492,479.38791 C 352.43723,479.76238 351.73784,480.09975 351.17566,480.09975 C 350.9259,480.09975 350.82582,480.07479 350.63841,479.73743 L 350.18878,478.91301 C 349.93902,478.40103 349.50187,478.13846 348.90226,478.13846 L 348.26493,478.13846 C 347.50319,478.13846 346.95346,478.72559 346.95346,479.55001 L 346.95346,498.76244 C 346.95346,499.67449 347.6778,500.41161 348.58982,500.41161 L 349.22685,500.41161 C 350.12643,500.41161 350.86322,499.67449 350.86322,498.76244 L 350.86322,484.22217 C 350.86322,482.86053 351.97513,481.74858 353.3368,481.74858 L 358.78318,481.74858 C 360.14485,481.74858 361.25644,482.86053 361.25644,484.22217 L 361.25644,498.76244 C 361.25644,499.67449 361.98107,500.41161 362.89313,500.41161 L 363.53016,500.41161 C 364.42941,500.41161 365.16653,499.67449 365.16653,498.76244 L 365.16653,483.68492 C 365.16653,480.23725 362.74314,478.00128 358.98304,478.00128 L 358.29613,478.00128"
             id="path8765"
             style="fill:#000000;fill-opacity:1;stroke:none" />
        </g>
        <g
           style="fill:url(#linearGradient5894);fill-opacity:1;display:inline"
           id="g5501"
           transform="matrix(0.3796416,0,0,0.3796416,568.43703,305.17325)">
          <path
             style="fill:url(#linearGradient5876);fill-opacity:1;stroke:none"
             id="path2095"
             d="M 525.54912,468.81976 L 525.38699,468.81976 C 525.19961,468.81976 525.03715,468.6573 525.03715,468.46991 L 525.03715,465.95923 L 524.48744,466.79612 C 524.42506,466.88343 524.31251,466.92083 524.21273,466.92083 L 524.15005,466.92083 C 524.05027,466.92083 523.93771,466.88343 523.87536,466.79612 L 523.31315,465.95923 L 523.31315,468.46991 C 523.31315,468.6573 523.15069,468.81976 522.95083,468.81976 L 522.7887,468.81976 C 522.60132,468.81976 522.43886,468.6573 522.43886,468.46991 L 522.43886,465.47188 L 520.75226,465.47188 L 520.75226,468.46991 C 520.75226,468.6573 520.57732,468.81976 520.37779,468.81976 L 520.22781,468.81976 C 520.0404,468.81976 519.87797,468.6573 519.87797,468.46991 L 519.87797,465.47188 L 518.61637,465.47188 C 518.42899,465.47188 518.279,465.34681 518.279,465.14725 L 518.279,464.97235 C 518.279,464.77249 518.42899,464.64743 518.61637,464.64743 L 523.03843,464.64743 C 523.21337,464.64743 523.32563,464.70981 523.38831,464.80989 L 524.2252,466.07148 L 525.0621,464.80989 C 525.12445,464.72228 525.22453,464.64743 525.41194,464.64743 L 525.97415,464.64743 L 525.97415,468.49487 C 525.97415,468.68225 525.79921,468.84471 525.59935,468.84471" />
          <path
             style="fill:url(#linearGradient5878);fill-opacity:1;stroke:none"
             id="path2097"
             d="M 380.95621,463.5608 C 374.91023,463.5608 371.56235,468.68225 371.56235,472.22999 L 371.56235,476.77712 C 371.56235,481.9862 375.82195,485.22153 379.78195,485.22153 L 393.64778,485.22153 C 395.38422,485.22153 395.74654,486.35806 395.74654,487.31999 L 395.74654,490.25568 C 395.74654,490.56779 395.69667,493.39122 393.64778,493.39122 L 374.72285,493.39122 C 372.84887,493.39122 371.48752,494.69022 371.48752,496.47656 L 371.48752,497.28854 C 371.48752,499.06241 372.83639,500.37421 374.72285,500.37421 L 394.68483,500.37421 C 399.89392,500.37421 403.26675,496.75128 403.26675,491.13 L 403.26675,486.22085 C 403.26675,480.94912 399.46925,478.58842 395.70914,478.58842 L 382.06812,478.58842 C 380.00676,478.58842 379.08256,477.06428 379.08256,475.96517 L 379.08256,473.26677 C 379.08256,471.55558 380.2191,470.58118 382.21778,470.58118 L 397.33303,470.58118 C 399.18176,470.58118 400.56835,469.25693 400.56835,467.49551 L 400.56835,466.68357 C 400.56835,464.93462 399.1568,463.5982 397.27068,463.5982 L 380.98116,463.5982" />
          <path
             style="fill:url(#linearGradient5880);fill-opacity:1;stroke:none"
             id="path2099"
             d="M 437.70666,463.5608 C 435.92031,463.5608 434.47133,465.00978 434.47133,466.79612 L 434.47133,490.03086 C 434.47133,491.87956 432.9597,493.37875 431.12345,493.37875 L 420.58025,493.37875 C 418.73155,493.37875 417.23233,491.87956 417.23233,490.03086 L 417.23233,466.79612 C 417.23233,465.00978 415.79586,463.5608 413.99704,463.5608 L 412.97273,463.5608 C 411.17391,463.5608 409.7374,464.98482 409.7374,466.79612 L 409.7374,490.91763 C 409.7374,496.52647 414.14702,500.59899 420.2304,500.59899 L 431.49824,500.59899 C 437.58162,500.59899 441.99121,496.52647 441.99121,490.91763 L 441.99121,466.79612 C 441.99121,464.98482 440.56722,463.5608 438.75592,463.5608 L 437.73161,463.5608" />
          <path
             style="fill:url(#linearGradient5882);fill-opacity:1;stroke:none"
             id="path2101"
             d="M 457.90593,463.5608 C 451.85998,463.5608 448.5121,468.68225 448.5121,472.22999 L 448.5121,476.77712 C 448.5121,481.9862 452.78418,485.22153 456.73167,485.22153 L 470.5975,485.22153 C 472.33397,485.22153 472.70877,486.35806 472.70877,487.31999 L 472.70877,490.25568 C 472.70877,490.56779 472.64641,493.39122 470.5975,493.39122 L 451.6726,493.39122 C 449.79862,493.39122 448.43727,494.69022 448.43727,496.47656 L 448.43727,497.28854 C 448.43727,499.06241 449.79862,500.37421 451.6726,500.37421 L 471.62211,500.37421 C 476.84367,500.37421 480.2037,496.75128 480.2037,491.13 L 480.2037,486.22085 C 480.2037,480.94912 476.419,478.58842 472.64641,478.58842 L 459.00507,478.58842 C 456.94403,478.58842 456.01983,477.06428 456.01983,475.96517 L 456.01983,473.26677 C 456.01983,471.55558 457.15637,470.58118 459.14257,470.58118 L 474.25782,470.58118 C 476.09408,470.58118 477.49318,469.25693 477.49318,467.49551 L 477.49318,466.68357 C 477.49318,464.93462 476.0816,463.5982 474.1827,463.5982 L 457.90593,463.5982" />
          <path
             style="fill:url(#linearGradient5884);fill-opacity:1;stroke:none"
             id="path2103"
             d="M 489.79745,463.5608 C 488.0114,463.5608 486.63725,464.88471 486.63725,466.64614 L 486.63725,497.28854 C 486.63725,499.03745 487.9612,500.37421 489.7351,500.37421 L 514.15658,500.37421 C 516.03056,500.37421 517.39223,499.07488 517.39223,497.28854 L 517.39223,496.47656 C 517.39223,494.70269 516.04303,493.39122 514.15658,493.39122 C 514.15658,493.39122 495.05674,493.39122 494.15716,493.39122 C 494.15716,492.59175 494.15716,486.38331 494.15716,485.58385 C 495.05674,485.58385 508.81031,485.58385 508.81031,485.58385 C 510.68396,485.58385 512.04564,484.28452 512.04564,482.4857 L 512.04564,481.68623 C 512.04564,479.89989 510.68396,478.58842 508.81031,478.58842 C 508.81031,478.58842 495.05674,478.58842 494.15716,478.58842 C 494.15716,477.78895 494.15716,471.36817 494.15716,470.56871 C 495.05674,470.56871 513.14474,470.56871 513.14474,470.56871 C 515.01875,470.56871 516.3804,469.26938 516.3804,467.48303 L 516.3804,466.67109 C 516.3804,464.88471 515.01875,463.58575 513.14474,463.58575 L 489.81025,463.58575" />
          <path
             style="fill:url(#linearGradient5886);fill-opacity:1;stroke:none"
             id="path2105"
             d="M 282.17071,478.13846 C 279.1227,478.13846 276.63682,480.51197 276.63682,483.44763 L 276.63682,495.00266 C 276.63682,497.97575 279.03525,500.39913 281.98335,500.39913 L 289.45345,500.39913 C 292.40152,500.39913 294.81243,497.97575 294.81243,495.00266 L 294.81243,483.44763 C 294.81243,480.52445 292.32658,478.13846 289.27854,478.13846 L 282.17071,478.13846 z M 280.55927,494.55271 L 280.55927,484.00984 C 280.55927,482.77289 281.5711,481.76106 282.8078,481.76106 L 288.629,481.76106 C 289.84072,481.76106 290.87751,482.78567 290.87751,484.00984 L 290.87751,494.55271 C 290.87751,495.78968 289.86568,496.80148 288.629,496.80148 L 282.75781,496.80148 C 281.52113,496.80148 280.55927,495.8146 280.55927,494.55271" />
          <path
             style="fill:url(#linearGradient5888);fill-opacity:1;stroke:none"
             id="path2107"
             d="M 311.75149,478.00128 C 309.59034,478.00128 307.97884,478.77583 306.66719,479.40036 C 305.88023,479.77485 305.19317,480.09975 304.65604,480.09975 C 304.43119,480.09975 304.2188,479.99997 304.10636,479.82506 L 303.61919,478.87558 C 303.50676,478.62584 303.00708,478.13846 302.38252,478.13846 L 301.658,478.13846 C 300.95843,478.13846 300.38381,478.76335 300.38381,479.55001 L 300.38381,508.84354 C 300.38381,509.75526 301.09585,510.4799 302.02026,510.4799 L 302.65732,510.4799 C 303.55675,510.4799 304.29378,509.74279 304.29378,508.84354 L 304.29378,499.12476 C 304.29378,498.83759 304.48113,498.53763 304.65604,498.53763 C 305.19317,498.53763 305.88023,498.83759 306.6797,499.21239 C 307.97884,499.79952 309.60282,500.54878 311.76396,500.54878 L 312.4384,500.54878 C 316.24841,500.54878 318.62189,498.3755 318.62189,494.87763 L 318.62189,483.69739 C 318.62189,480.24973 316.1985,478.01376 312.4384,478.01376 L 311.75149,478.01376 L 311.75149,478.01376 L 311.75149,478.00128 z M 304.28127,494.3279 L 304.28127,484.24712 C 304.28127,482.86053 305.36808,481.77354 306.75465,481.77354 L 312.20111,481.77354 C 313.58774,481.77354 314.67437,482.86053 314.67437,484.24712 L 314.67437,494.3279 C 314.67437,495.68957 313.57526,496.80148 312.20111,496.80148 L 306.75465,496.80148 C 305.39306,496.80148 304.28127,495.68957 304.28127,494.3279" />
          <path
             style="fill:url(#linearGradient5890);fill-opacity:1;stroke:none"
             id="path2109"
             d="M 329.68954,478.13846 C 326.6416,478.13846 324.15586,480.51197 324.15586,483.44763 L 324.15586,494.91503 C 324.15586,497.88814 326.56677,500.41161 329.41482,500.41161 L 337.12245,500.41161 C 338.07157,500.41161 338.75881,499.76179 338.75881,498.86255 L 338.75881,498.36269 C 338.75881,497.46344 338.07157,496.81396 337.12245,496.81396 L 330.80145,496.81396 C 329.02758,496.81396 328.09058,495.95181 328.09058,494.29047 C 328.09058,494.29047 328.09058,491.40502 328.09058,490.94259 C 328.60288,490.94259 339.5084,490.94259 339.5084,490.94259 C 341.33218,490.94259 342.43128,489.81853 342.43128,487.9196 L 342.43128,483.47261 C 342.43128,480.54937 339.94555,478.16374 336.89764,478.16374 L 329.70231,478.16374 L 329.68954,478.13846 z M 328.0781,483.95963 C 328.0781,482.73546 329.04003,481.76106 330.27667,481.76106 L 336.28522,481.76106 C 337.52217,481.76106 338.48379,482.72299 338.48379,483.95963 C 338.48379,483.95963 338.48379,487.07023 338.48379,487.53235 C 337.99674,487.53235 328.56548,487.53235 328.0781,487.53235 C 328.0781,487.07023 328.0781,483.95963 328.0781,483.95963" />
          <path
             style="fill:url(#linearGradient5892);fill-opacity:1;stroke:none"
             id="path2111"
             d="M 358.32108,478.00128 C 356.17241,478.00128 354.5485,478.76335 353.2492,479.38791 C 352.43723,479.76238 351.73784,480.09975 351.17566,480.09975 C 350.9259,480.09975 350.82582,480.07479 350.63841,479.73743 L 350.18878,478.91301 C 349.93902,478.40103 349.50187,478.13846 348.90226,478.13846 L 348.26493,478.13846 C 347.50319,478.13846 346.95346,478.72559 346.95346,479.55001 L 346.95346,498.76244 C 346.95346,499.67449 347.6778,500.41161 348.58982,500.41161 L 349.22685,500.41161 C 350.12643,500.41161 350.86322,499.67449 350.86322,498.76244 L 350.86322,484.22217 C 350.86322,482.86053 351.97513,481.74858 353.3368,481.74858 L 358.78318,481.74858 C 360.14485,481.74858 361.25644,482.86053 361.25644,484.22217 L 361.25644,498.76244 C 361.25644,499.67449 361.98107,500.41161 362.89313,500.41161 L 363.53016,500.41161 C 364.42941,500.41161 365.16653,499.67449 365.16653,498.76244 L 365.16653,483.68492 C 365.16653,480.23725 362.74314,478.00128 358.98304,478.00128 L 358.29613,478.00128" />
        </g>
      </g>
      <path
         id="path7148"
         d="M -1,525.5 L 815,525.5"
         style="opacity:0.375;fill:none;fill-opacity:1;fill-rule:evenodd;stroke:url(#radialGradient7156);stroke-width:1.61614823;stroke-linecap:butt;stroke-linejoin:miter;marker:none;marker-start:none;marker-mid:none;marker-end:none;stroke-miterlimit:4;stroke-dasharray:none;stroke-dashoffset:0;stroke-opacity:1;visibility:visible;display:inline;overflow:visible;enable-background:accumulate" />
      <path
         style="opacity:0.47395833;fill:none;fill-opacity:1;fill-rule:evenodd;stroke:url(#radialGradient8683);stroke-width:3.23229647;stroke-linecap:butt;stroke-linejoin:miter;marker:none;marker-start:none;marker-mid:none;marker-end:none;stroke-miterlimit:4;stroke-dasharray:none;stroke-dashoffset:0;stroke-opacity:1;visibility:visible;display:inline;overflow:visible;enable-background:accumulate"
         d="M -1,412.5 L 815,412.5"
         id="path8679" />
      <g
         id="g6768"
         transform="matrix(1.8943585,0,0,1.8943585,-682.38687,-425.79018)">
        <path
           transform="matrix(0.9769813,0,0,0.9769813,-3.7547751,25.745184)"
           d="M 764.84375,472.46875 C 764.73205,472.46875 764.61168,472.50046 764.5,472.5625 C 764.38833,472.61216 764.31204,472.67555 764.25,472.75 L 762.1875,475 C 762.00136,475.19855 761.90625,475.41405 761.90625,475.625 C 761.90627,475.79873 761.95081,475.93841 762.0625,476.0625 C 762.1866,476.1742 762.32627,476.21876 762.5,476.21875 C 762.5993,476.21875 762.71322,476.21232 762.8125,476.1875 C 762.91177,476.16269 763.03215,476.11812 763.15625,476.03125 L 764.125,475.375 L 764.125,480.5625 C 764.12499,480.77347 764.17599,480.94484 764.3125,481.09375 C 764.44897,481.23024 764.63279,481.3125 764.84375,481.3125 L 765.28125,481.3125 C 765.49221,481.3125 765.67599,481.23025 765.8125,481.09375 C 765.96142,480.94483 766.03124,480.77346 766.03125,480.5625 L 766.03125,473.21875 C 766.03124,473.00781 765.96141,472.85526 765.8125,472.71875 C 765.67601,472.56984 765.4922,472.46876 765.28125,472.46875 L 764.84375,472.46875 z M 771.875,472.46875 C 771.76332,472.46875 771.67418,472.50046 771.5625,472.5625 C 771.45079,472.61216 771.34329,472.67555 771.28125,472.75 L 769.21875,475 C 769.03263,475.19855 768.9375,475.41405 768.9375,475.625 C 768.93748,475.79873 768.98206,475.93841 769.09375,476.0625 C 769.21787,476.1742 769.38877,476.21876 769.5625,476.21875 C 769.66176,476.21875 769.74447,476.21232 769.84375,476.1875 C 769.94304,476.16269 770.0634,476.11812 770.1875,476.03125 L 771.15625,475.375 L 771.15625,480.5625 C 771.15626,480.77347 771.23849,480.94484 771.375,481.09375 C 771.51149,481.23024 771.66404,481.3125 771.875,481.3125 L 772.34375,481.3125 C 772.55473,481.3125 772.70724,481.23025 772.84375,481.09375 C 772.99263,480.94483 773.06249,480.77346 773.0625,480.5625 L 773.0625,473.21875 C 773.06251,473.00781 772.99266,472.85526 772.84375,472.71875 C 772.70722,472.56984 772.5547,472.46876 772.34375,472.46875 L 771.875,472.46875 z M 781.625,472.46875 C 781.30238,472.46875 781.00416,472.53217 780.71875,472.65625 C 780.44574,472.78035 780.21096,472.97655 780,473.1875 C 779.78904,473.39848 779.62409,473.62084 779.5,473.90625 C 779.37589,474.17927 779.3125,474.48987 779.3125,474.8125 L 779.3125,478.96875 C 779.3125,479.2914 779.37591,479.62084 779.5,479.90625 C 779.62408,480.17927 779.78904,480.41404 780,480.625 C 780.21096,480.83596 780.44574,481.00091 780.71875,481.125 C 781.00415,481.24908 781.30236,481.3125 781.625,481.3125 L 784.5,481.3125 C 784.82263,481.3125 785.13324,481.24909 785.40625,481.125 C 785.69163,481.00089 785.94528,480.83596 786.15625,480.625 C 786.36722,480.41405 786.53215,480.17926 786.65625,479.90625 C 786.78031,479.62085 786.84374,479.29139 786.84375,478.96875 L 786.84375,474.8125 C 786.84376,474.48988 786.78033,474.17926 786.65625,473.90625 C 786.53212,473.62085 786.3672,473.39847 786.15625,473.1875 C 785.94531,472.97656 785.69166,472.78035 785.40625,472.65625 C 785.13321,472.53217 784.82264,472.46876 784.5,472.46875 L 781.625,472.46875 z M 782.0625,474.1875 L 784.09375,474.1875 C 784.3295,474.18751 784.52617,474.27619 784.6875,474.4375 C 784.84879,474.59884 784.90624,474.79548 784.90625,475.03125 L 784.90625,478.75 C 784.90626,478.98578 784.84881,479.18243 784.6875,479.34375 C 784.52615,479.50508 784.32952,479.59375 784.09375,479.59375 L 782.0625,479.59375 C 781.82671,479.59376 781.63007,479.50507 781.46875,479.34375 C 781.30741,479.18243 781.21875,478.98578 781.21875,478.75 L 781.21875,475.03125 C 781.21875,474.79547 781.30743,474.59883 781.46875,474.4375 C 781.63005,474.2762 781.82672,474.18751 782.0625,474.1875 z M 775.65625,478.5625 C 775.44529,478.56249 775.24266,478.63234 775.09375,478.78125 C 774.95724,478.91775 774.90625,479.10154 774.90625,479.3125 L 774.90625,480.5625 C 774.90626,480.77347 774.95725,480.94484 775.09375,481.09375 C 775.24265,481.23024 775.44529,481.3125 775.65625,481.3125 L 776.375,481.3125 C 776.58595,481.3125 776.76974,481.23025 776.90625,481.09375 C 777.05516,480.94483 777.125,480.77346 777.125,480.5625 L 777.125,479.3125 C 777.12498,479.10155 777.05516,478.91775 776.90625,478.78125 C 776.76975,478.63234 776.58596,478.5625 776.375,478.5625 L 775.65625,478.5625 z"
           inkscape:href="#text5896"
           id="path6670"
           style="font-size:18.61394501px;font-style:normal;font-variant:normal;font-weight:bold;font-stretch:normal;text-indent:0;text-align:start;text-decoration:none;line-height:100%;letter-spacing:normal;word-spacing:normal;text-transform:none;direction:ltr;block-progression:tb;writing-mode:lr-tb;text-anchor:start;opacity:1;fill:#000000;fill-opacity:1;fill-rule:nonzero;stroke:none;stroke-width:1px;stroke-linecap:butt;stroke-linejoin:miter;marker:none;marker-start:none;marker-mid:none;marker-end:none;stroke-miterlimit:4;stroke-dasharray:none;stroke-dashoffset:0;stroke-opacity:1;visibility:visible;display:inline;overflow:visible;filter:url(#filter6764);enable-background:accumulate;font-family:ChollaWideBoldOS;-inkscape-font-specification:ChollaWideBoldOS Bold"
           xlink:href="#text5896"
           inkscape:original="M 764.84375 472.46875 C 764.73205 472.46875 764.61168 472.50046 764.5 472.5625 C 764.38833 472.61216 764.31204 472.67555 764.25 472.75 L 762.1875 475 C 762.00136 475.19855 761.90625 475.41405 761.90625 475.625 C 761.90627 475.79873 761.95081 475.93841 762.0625 476.0625 C 762.1866 476.1742 762.32627 476.21876 762.5 476.21875 C 762.5993 476.21875 762.71322 476.21232 762.8125 476.1875 C 762.91177 476.16269 763.03215 476.11812 763.15625 476.03125 L 764.125 475.375 L 764.125 480.5625 C 764.12499 480.77347 764.17599 480.94484 764.3125 481.09375 C 764.44897 481.23024 764.63279 481.3125 764.84375 481.3125 L 765.28125 481.3125 C 765.49221 481.3125 765.67599 481.23025 765.8125 481.09375 C 765.96142 480.94483 766.03124 480.77346 766.03125 480.5625 L 766.03125 473.21875 C 766.03124 473.00781 765.96141 472.85526 765.8125 472.71875 C 765.67601 472.56984 765.4922 472.46876 765.28125 472.46875 L 764.84375 472.46875 z M 771.875 472.46875 C 771.76332 472.46875 771.67418 472.50046 771.5625 472.5625 C 771.45079 472.61216 771.34329 472.67555 771.28125 472.75 L 769.21875 475 C 769.03263 475.19855 768.9375 475.41405 768.9375 475.625 C 768.93748 475.79873 768.98206 475.93841 769.09375 476.0625 C 769.21787 476.1742 769.38877 476.21876 769.5625 476.21875 C 769.66176 476.21875 769.74447 476.21232 769.84375 476.1875 C 769.94304 476.16269 770.0634 476.11812 770.1875 476.03125 L 771.15625 475.375 L 771.15625 480.5625 C 771.15626 480.77347 771.23849 480.94484 771.375 481.09375 C 771.51149 481.23024 771.66404 481.3125 771.875 481.3125 L 772.34375 481.3125 C 772.55473 481.3125 772.70724 481.23025 772.84375 481.09375 C 772.99263 480.94483 773.06249 480.77346 773.0625 480.5625 L 773.0625 473.21875 C 773.06251 473.00781 772.99266 472.85526 772.84375 472.71875 C 772.70722 472.56984 772.5547 472.46876 772.34375 472.46875 L 771.875 472.46875 z M 781.625 472.46875 C 781.30238 472.46875 781.00416 472.53217 780.71875 472.65625 C 780.44574 472.78035 780.21096 472.97655 780 473.1875 C 779.78904 473.39848 779.62409 473.62084 779.5 473.90625 C 779.37589 474.17927 779.3125 474.48987 779.3125 474.8125 L 779.3125 478.96875 C 779.3125 479.2914 779.37591 479.62084 779.5 479.90625 C 779.62408 480.17927 779.78904 480.41404 780 480.625 C 780.21096 480.83596 780.44574 481.00091 780.71875 481.125 C 781.00415 481.24908 781.30236 481.3125 781.625 481.3125 L 784.5 481.3125 C 784.82263 481.3125 785.13324 481.24909 785.40625 481.125 C 785.69163 481.00089 785.94528 480.83596 786.15625 480.625 C 786.36722 480.41405 786.53215 480.17926 786.65625 479.90625 C 786.78031 479.62085 786.84374 479.29139 786.84375 478.96875 L 786.84375 474.8125 C 786.84376 474.48988 786.78033 474.17926 786.65625 473.90625 C 786.53212 473.62085 786.3672 473.39847 786.15625 473.1875 C 785.94531 472.97656 785.69166 472.78035 785.40625 472.65625 C 785.13321 472.53217 784.82264 472.46876 784.5 472.46875 L 781.625 472.46875 z M 782.0625 474.1875 L 784.09375 474.1875 C 784.3295 474.18751 784.52617 474.27619 784.6875 474.4375 C 784.84879 474.59884 784.90624 474.79548 784.90625 475.03125 L 784.90625 478.75 C 784.90626 478.98578 784.84881 479.18243 784.6875 479.34375 C 784.52615 479.50508 784.32952 479.59375 784.09375 479.59375 L 782.0625 479.59375 C 781.82671 479.59376 781.63007 479.50507 781.46875 479.34375 C 781.30741 479.18243 781.21875 478.98578 781.21875 478.75 L 781.21875 475.03125 C 781.21875 474.79547 781.30743 474.59883 781.46875 474.4375 C 781.63005 474.2762 781.82672 474.18751 782.0625 474.1875 z M 775.65625 478.5625 C 775.44529 478.56249 775.24266 478.63234 775.09375 478.78125 C 774.95724 478.91775 774.90625 479.10154 774.90625 479.3125 L 774.90625 480.5625 C 774.90626 480.77347 774.95725 480.94484 775.09375 481.09375 C 775.24265 481.23024 775.44529 481.3125 775.65625 481.3125 L 776.375 481.3125 C 776.58595 481.3125 776.76974 481.23025 776.90625 481.09375 C 777.05516 480.94483 777.125 480.77346 777.125 480.5625 L 777.125 479.3125 C 777.12498 479.10155 777.05516 478.91775 776.90625 478.78125 C 776.76975 478.63234 776.58596 478.5625 776.375 478.5625 L 775.65625 478.5625 z "
           inkscape:radius="0"
           sodipodi:type="inkscape:offset" />
        <text
           transform="scale(0.9722646,1.0285266)"
           sodipodi:linespacing="100%"
           id="text5896"
           y="481.30707"
           x="760.24097"
           style="font-size:18.61394501px;font-style:normal;font-variant:normal;font-weight:bold;font-stretch:normal;text-indent:0;text-align:start;text-decoration:none;line-height:100%;letter-spacing:normal;word-spacing:normal;text-transform:none;direction:ltr;block-progression:tb;writing-mode:lr-tb;text-anchor:start;opacity:1;fill:#ffffff;fill-opacity:1;fill-rule:nonzero;stroke:none;stroke-width:1px;stroke-linecap:butt;stroke-linejoin:miter;marker:none;marker-start:none;marker-mid:none;marker-end:none;stroke-miterlimit:4;stroke-dasharray:none;stroke-dashoffset:0;stroke-opacity:1;visibility:visible;display:inline;overflow:visible;enable-background:accumulate;font-family:ChollaWideBoldOS;-inkscape-font-specification:ChollaWideBoldOS Bold"
           xml:space="preserve"><tspan
             style="font-size:18.61394501px;font-style:normal;font-variant:normal;font-weight:bold;font-stretch:normal;text-align:start;line-height:100%;writing-mode:lr-tb;text-anchor:start;fill:#ffffff;fill-opacity:1;stroke:none;stroke-width:1;font-family:ChollaWideBoldOS;-inkscape-font-specification:ChollaWideBoldOS Bold"
             y="481.30707"
             x="760.24097"
             id="tspan5898"
             sodipodi:role="line"
             dx="0 -2.6268671 -3.1522405">11.0</tspan></text>
      </g>
    </g>
    <path
       sodipodi:type="inkscape:offset"
       inkscape:radius="0"
       inkscape:original="M 24.96875 63.53125 C 24.697059 63.531265 24.473015 63.620742 24.28125 63.8125 C 24.105447 63.988307 23.999991 64.197085 24 64.46875 L 24 69.1875 C 23.999991 69.379287 23.956322 69.46876 23.8125 69.46875 C 23.66866 69.468758 23.473729 69.393129 23.25 69.28125 C 23.026255 69.153414 22.772385 69.018842 22.46875 68.875 C 22.181082 68.715198 21.85158 68.58063 21.5 68.46875 C 21.148408 68.340914 20.759256 68.281261 20.34375 68.28125 L 20 68.28125 C 18.817386 68.281262 17.934339 68.580225 17.375 69.1875 C 16.831637 69.794798 16.562499 70.573099 16.5625 71.5 L 16.5625 76.59375 C 16.562499 77.520659 16.831637 78.267716 17.375 78.875 C 17.93434 79.482285 18.817387 79.78125 20 79.78125 L 20.34375 79.78125 C 20.759255 79.781251 21.148407 79.736868 21.5 79.625 C 21.85158 79.49715 22.181081 79.37785 22.46875 79.25 C 22.772386 79.106172 23.026255 78.986869 23.25 78.875 C 23.473728 78.74715 23.668661 78.656251 23.8125 78.65625 C 23.892397 78.656247 23.936066 78.686789 24 78.71875 C 24.079897 78.734729 24.154816 78.779114 24.21875 78.875 L 24.8125 79.71875 L 25.625 79.71875 C 25.944614 79.71875 26.153389 79.614006 26.28125 79.40625 C 26.409088 79.198491 26.468739 79.019544 26.46875 78.84375 L 26.46875 63.53125 L 24.96875 63.53125 z M 72.3125 63.53125 C 72.040815 63.531265 71.816772 63.620742 71.625 63.8125 C 71.449203 63.988307 71.374998 64.197085 71.375 64.46875 L 71.375 78.75 C 71.375002 79.021679 71.449205 79.276976 71.625 79.46875 C 71.816771 79.644541 72.040817 79.71875 72.3125 79.71875 L 73.84375 79.71875 L 73.84375 64.46875 C 73.843745 64.197083 73.75427 63.988309 73.5625 63.8125 C 73.386707 63.62074 73.146677 63.531266 72.875 63.53125 L 72.3125 63.53125 z M 110.5 63.53125 C 110.22831 63.531265 110.00427 63.620742 109.8125 63.8125 C 109.6367 63.988307 109.56249 64.197085 109.5625 64.46875 L 109.5625 69.1875 C 109.56249 69.379287 109.48757 69.46876 109.34375 69.46875 C 109.19991 69.468758 109.00498 69.393129 108.78125 69.28125 C 108.5575 69.153414 108.30364 69.018842 108 68.875 C 107.71233 68.715198 107.38283 68.58063 107.03125 68.46875 C 106.67965 68.340914 106.29051 68.281261 105.875 68.28125 L 105.53125 68.28125 C 104.34864 68.281262 103.46559 68.580225 102.90625 69.1875 C 102.36289 69.794798 102.09375 70.573099 102.09375 71.5 L 102.09375 76.59375 C 102.09375 77.520659 102.36289 78.267716 102.90625 78.875 C 103.46559 79.482285 104.34864 79.78125 105.53125 79.78125 L 105.875 79.78125 C 106.29051 79.781251 106.67966 79.736868 107.03125 79.625 C 107.38283 79.49715 107.71233 79.37785 108 79.25 C 108.30363 79.106172 108.55751 78.986869 108.78125 78.875 C 109.00498 78.74715 109.19991 78.656251 109.34375 78.65625 C 109.42365 78.656247 109.49857 78.686789 109.5625 78.71875 C 109.6424 78.734729 109.71732 78.779114 109.78125 78.875 L 110.34375 79.71875 L 111.15625 79.71875 C 111.47587 79.71875 111.71589 79.614006 111.84375 79.40625 C 111.97159 79.198491 112.03124 79.019544 112.03125 78.84375 L 112.03125 63.53125 L 110.5 63.53125 z M 64.5 68.28125 C 64.100464 68.281262 63.711311 68.340912 63.34375 68.46875 C 62.992158 68.580632 62.678637 68.715199 62.375 68.875 C 62.071354 69.01884 61.817482 69.153411 61.59375 69.28125 C 61.370009 69.393132 61.175077 69.46876 61.03125 69.46875 C 60.887414 69.468758 60.768115 69.378572 60.65625 69.21875 L 60.03125 68.375 L 59.21875 68.375 C 58.899123 68.375012 58.690348 68.479756 58.5625 68.6875 C 58.434648 68.895263 58.374999 69.074217 58.375 69.25 L 58.375 78.75 C 58.374999 79.021679 58.449205 79.276976 58.625 79.46875 C 58.816773 79.644541 59.040817 79.71875 59.3125 79.71875 L 59.875 79.71875 C 60.146679 79.71875 60.386703 79.644543 60.5625 79.46875 C 60.754272 79.276973 60.843746 79.021681 60.84375 78.75 L 60.84375 71.65625 C 60.843747 71.352613 60.94849 71.082764 61.15625 70.875 C 61.364001 70.667251 61.602602 70.562509 61.90625 70.5625 L 64.75 70.5625 C 65.053631 70.562511 65.292236 70.667253 65.5 70.875 C 65.707744 71.082762 65.812491 71.352615 65.8125 71.65625 L 65.8125 78.75 C 65.812491 79.021679 65.917948 79.276976 66.09375 79.46875 C 66.285518 79.644541 66.50956 79.71875 66.78125 79.71875 L 67.34375 79.71875 C 67.615421 79.71875 67.824196 79.644543 68 79.46875 C 68.191764 79.276973 68.281239 79.021681 68.28125 78.75 L 68.28125 71.5 C 68.281242 70.573095 68.028081 69.794796 67.46875 69.1875 C 66.925381 68.580227 66.0576 68.281261 64.875 68.28125 L 64.5 68.28125 z M 42.65625 68.34375 L 42 68.5 C 41.792245 68.547957 41.643118 68.667968 41.53125 68.84375 C 41.419381 69.003571 41.343749 69.167967 41.34375 69.34375 C 41.343748 69.439651 41.359018 69.499298 41.375 69.53125 L 43.84375 78.5 C 43.875708 78.611872 43.936072 78.73117 44 78.875 C 44.063921 79.01883 44.122859 79.153401 44.21875 79.28125 C 44.314632 79.393122 44.449915 79.497863 44.59375 79.59375 C 44.737575 79.673655 44.886702 79.71875 45.0625 79.71875 L 45.90625 79.71875 C 46.22587 79.71875 46.49572 79.614718 46.6875 79.375 C 46.87927 79.119305 47.013838 78.84945 47.09375 78.59375 L 48.1875 75.53125 C 48.283378 75.259575 48.372855 74.975879 48.46875 74.65625 C 48.564631 74.33663 48.639548 74.06678 48.6875 73.875 C 48.751417 73.68323 48.781242 73.563219 48.78125 73.53125 L 48.8125 73.53125 C 48.812494 73.563221 48.827048 73.683232 48.875 73.875 C 48.938915 74.066779 49.029104 74.336631 49.125 74.65625 C 49.22088 74.975878 49.310354 75.259574 49.40625 75.53125 L 50.5 78.59375 C 50.579897 78.849453 50.714465 79.119301 50.90625 79.375 C 51.098015 79.614722 51.367865 79.71875 51.6875 79.71875 L 52.53125 79.71875 C 52.707031 79.71875 52.856157 79.673656 53 79.59375 C 53.143819 79.497862 53.2791 79.393119 53.375 79.28125 C 53.470875 79.153404 53.529812 79.018832 53.59375 78.875 C 53.657661 78.731169 53.718025 78.61187 53.75 78.5 L 56.21875 69.53125 C 56.234716 69.499296 56.249984 69.439648 56.25 69.34375 C 56.249985 69.167971 56.174353 69.003573 56.0625 68.84375 C 55.950615 68.667966 55.801491 68.547955 55.59375 68.5 L 54.9375 68.34375 C 54.713747 68.279837 54.520242 68.324931 54.3125 68.46875 C 54.10473 68.596613 53.970162 68.776274 53.90625 69 L 52.65625 73.71875 C 52.592314 73.990433 52.517394 74.349763 52.4375 74.78125 C 52.373562 75.196767 52.313913 75.615743 52.25 76.03125 C 52.186064 76.430782 52.125701 76.79011 52.09375 77.09375 C 52.061775 77.381417 52.031951 77.531252 52 77.53125 C 51.904103 77.131722 51.814626 76.787665 51.71875 76.5 C 51.638831 76.212345 51.533376 75.882128 51.4375 75.5625 C 51.341601 75.226901 51.252127 74.943204 51.15625 74.6875 L 50.28125 72.34375 C 50.201333 72.151981 50.066053 72.002857 49.90625 71.875 C 49.746427 71.747158 49.582747 71.656258 49.375 71.65625 L 48.25 71.65625 C 48.042236 71.656256 47.847305 71.747158 47.6875 71.875 C 47.527682 72.002857 47.392399 72.151983 47.3125 72.34375 L 46.4375 74.6875 C 46.341606 74.943204 46.252132 75.226899 46.15625 75.5625 C 46.060357 75.88213 45.970882 76.212342 45.875 76.5 C 45.79509 76.787668 45.704189 77.010997 45.65625 77.21875 C 45.6083 77.410523 45.594458 77.531252 45.5625 77.53125 C 45.498572 76.939947 45.40767 76.430784 45.34375 76.03125 C 45.27982 75.615741 45.22017 75.196766 45.15625 74.78125 C 45.092322 74.349763 45.017402 73.990436 44.9375 73.71875 L 43.71875 69 C 43.654823 68.776274 43.489003 68.596611 43.28125 68.46875 C 43.073492 68.324932 42.879985 68.279837 42.65625 68.34375 z M 32.34375 68.375 C 31.928234 68.375012 31.523814 68.433949 31.15625 68.59375 C 30.804661 68.753577 30.490428 68.97833 30.21875 69.25 C 29.947067 69.521694 29.75356 69.851192 29.59375 70.21875 C 29.433937 70.570343 29.343749 70.928247 29.34375 71.34375 L 29.34375 76.71875 C 29.343749 77.134263 29.433936 77.538684 29.59375 77.90625 C 29.753561 78.257842 29.947067 78.572071 30.21875 78.84375 C 30.490428 79.115429 30.80466 79.308938 31.15625 79.46875 C 31.523814 79.62856 31.928235 79.71875 32.34375 79.71875 L 36.25 79.71875 C 36.665502 79.71875 37.054654 79.628562 37.40625 79.46875 C 37.773808 79.308936 38.072059 79.115431 38.34375 78.84375 C 38.615419 78.572069 38.840177 78.257838 39 77.90625 C 39.159803 77.538688 39.249989 77.134264 39.25 76.71875 L 39.25 71.34375 C 39.249989 70.92825 39.159801 70.570346 39 70.21875 C 38.840179 69.85119 38.61542 69.521691 38.34375 69.25 C 38.072058 68.978333 37.773808 68.753573 37.40625 68.59375 C 37.054654 68.433953 36.665503 68.375011 36.25 68.375 L 32.34375 68.375 z M 79.90625 68.375 C 79.490733 68.375012 79.086314 68.433949 78.71875 68.59375 C 78.367162 68.753577 78.052928 68.97833 77.78125 69.25 C 77.509566 69.521694 77.31606 69.851192 77.15625 70.21875 C 76.996436 70.570343 76.906249 70.928247 76.90625 71.34375 L 76.90625 76.71875 C 76.906246 77.134263 76.996436 77.538684 77.15625 77.90625 C 77.31606 78.257842 77.509567 78.572071 77.78125 78.84375 C 78.052927 79.115429 78.36716 79.308938 78.71875 79.46875 C 79.086315 79.62856 79.490735 79.71875 79.90625 79.71875 L 83.8125 79.71875 C 84.228005 79.71875 84.617154 79.628562 84.96875 79.46875 C 85.336307 79.308936 85.665809 79.115431 85.9375 78.84375 C 86.209171 78.572069 86.402677 78.257838 86.5625 77.90625 C 86.722302 77.538688 86.812489 77.134264 86.8125 76.71875 L 86.8125 71.34375 C 86.812492 70.92825 86.722301 70.570346 86.5625 70.21875 C 86.402678 69.85119 86.20917 69.521691 85.9375 69.25 C 85.665811 68.978333 85.336308 68.753573 84.96875 68.59375 C 84.617153 68.433953 84.228003 68.375011 83.8125 68.375 L 79.90625 68.375 z M 91.40625 68.375 C 91.150548 68.375012 90.941772 68.434662 90.75 68.5625 C 90.574205 68.690364 90.468748 68.854043 90.46875 69.09375 L 90.46875 70.5625 L 95.8125 70.5625 C 96.084174 70.562511 96.292949 70.667253 96.46875 70.875 C 96.644536 71.06678 96.749992 71.276272 96.75 71.5 L 96.75 73.28125 C 96.749995 73.473031 96.675072 73.562506 96.53125 73.5625 C 96.387412 73.562509 96.192479 73.518125 95.96875 73.40625 C 95.745009 73.278408 95.491136 73.143837 95.1875 73 C 94.899834 72.840192 94.57033 72.705625 94.21875 72.59375 C 93.867157 72.465908 93.478006 72.375007 93.0625 72.375 L 92.71875 72.375 C 91.536136 72.375005 90.65309 72.705221 90.09375 73.3125 C 89.550389 73.919792 89.281249 74.666845 89.28125 75.59375 L 89.28125 76.59375 C 89.281249 77.520659 89.550388 78.267716 90.09375 78.875 C 90.653091 79.482285 91.536137 79.78125 92.71875 79.78125 L 93.0625 79.78125 C 93.478009 79.781251 93.867158 79.736868 94.21875 79.625 C 94.57033 79.49715 94.899832 79.37785 95.1875 79.25 C 95.491138 79.106172 95.745006 78.986869 95.96875 78.875 C 96.192482 78.74715 96.387411 78.656251 96.53125 78.65625 C 96.611149 78.656247 96.686067 78.686789 96.75 78.71875 C 96.829901 78.734729 96.904817 78.779114 96.96875 78.875 L 97.53125 79.71875 L 98.34375 79.71875 C 98.663362 79.71875 98.90339 79.614006 99.03125 79.40625 C 99.159086 79.198491 99.218739 79.019544 99.21875 78.84375 L 99.21875 71.15625 C 99.218738 70.788691 99.143108 70.429365 99.03125 70.09375 C 98.919368 69.758151 98.755689 69.44321 98.5 69.1875 C 98.260271 68.931814 97.930771 68.737592 97.53125 68.59375 C 97.147689 68.433953 96.668353 68.375011 96.125 68.375 L 91.40625 68.375 z M 20.09375 70.5625 L 22.9375 70.5625 C 23.241135 70.562511 23.479736 70.667253 23.6875 70.875 C 23.895248 71.082762 23.999991 71.352615 24 71.65625 L 24 76.4375 C 23.999991 76.741149 23.895247 77.010997 23.6875 77.21875 C 23.479737 77.426512 23.241135 77.531252 22.9375 77.53125 L 20.09375 77.53125 C 19.790103 77.531252 19.551501 77.426508 19.34375 77.21875 C 19.13599 77.011001 19.031246 76.741146 19.03125 76.4375 L 19.03125 71.65625 C 19.031247 71.352613 19.13599 71.082764 19.34375 70.875 C 19.551501 70.667251 19.790102 70.562509 20.09375 70.5625 z M 32.875 70.5625 L 35.6875 70.5625 C 35.991136 70.562511 36.260986 70.667253 36.46875 70.875 C 36.676498 71.082762 36.781241 71.352615 36.78125 71.65625 L 36.78125 76.4375 C 36.781242 76.741149 36.676497 77.010997 36.46875 77.21875 C 36.260987 77.426512 35.991135 77.531252 35.6875 77.53125 L 32.875 77.53125 C 32.571354 77.531252 32.332751 77.426508 32.125 77.21875 C 31.917241 77.011001 31.812496 76.741146 31.8125 76.4375 L 31.8125 71.65625 C 31.812496 71.352613 31.91724 71.082764 32.125 70.875 C 32.332752 70.667251 32.571352 70.562509 32.875 70.5625 z M 80.46875 70.5625 L 83.25 70.5625 C 83.553639 70.562511 83.823486 70.667253 84.03125 70.875 C 84.238994 71.082762 84.343741 71.352615 84.34375 71.65625 L 84.34375 76.4375 C 84.343741 76.741149 84.238997 77.010997 84.03125 77.21875 C 83.823483 77.426512 83.553635 77.531252 83.25 77.53125 L 80.46875 77.53125 C 80.165099 77.531252 79.895251 77.426508 79.6875 77.21875 C 79.479737 77.011001 79.374996 76.741146 79.375 76.4375 L 79.375 71.65625 C 79.374997 71.352613 79.47974 71.082764 79.6875 70.875 C 79.895248 70.667251 80.165102 70.562509 80.46875 70.5625 z M 105.65625 70.5625 L 108.46875 70.5625 C 108.77238 70.562511 109.04224 70.667253 109.25 70.875 C 109.45774 71.082762 109.56249 71.352615 109.5625 71.65625 L 109.5625 76.4375 C 109.56249 76.741149 109.45775 77.010997 109.25 77.21875 C 109.04223 77.426512 108.77238 77.531252 108.46875 77.53125 L 105.65625 77.53125 C 105.3526 77.531252 105.08275 77.426508 104.875 77.21875 C 104.66724 77.011001 104.5625 76.741146 104.5625 76.4375 L 104.5625 71.65625 C 104.5625 71.352613 104.66724 71.082764 104.875 70.875 C 105.08275 70.667251 105.3526 70.562509 105.65625 70.5625 z M 92.84375 74.65625 L 95.65625 74.65625 C 95.959885 74.656255 96.229736 74.760999 96.4375 74.96875 C 96.645248 75.176513 96.749992 75.446361 96.75 75.75 L 96.75 76.4375 C 96.749995 76.741149 96.645247 77.010997 96.4375 77.21875 C 96.229737 77.426512 95.959885 77.531252 95.65625 77.53125 L 92.84375 77.53125 C 92.540103 77.531252 92.270252 77.426508 92.0625 77.21875 C 91.85474 77.011001 91.749997 76.741146 91.75 76.4375 L 91.75 75.75 C 91.749993 75.446365 91.854741 75.17651 92.0625 74.96875 C 92.270251 74.761002 92.540103 74.656255 92.84375 74.65625 z M 40.375 87.5 C 40.103318 87.500015 39.879273 87.589492 39.6875 87.78125 C 39.511706 87.957061 39.437499 88.165835 39.4375 88.4375 L 39.4375 102.75 C 39.4375 103.02168 39.511705 103.24573 39.6875 103.4375 C 39.879273 103.61329 40.103317 103.6875 40.375 103.6875 L 40.9375 103.6875 C 41.209176 103.6875 41.449203 103.61329 41.625 103.4375 C 41.816773 103.24573 41.906246 103.02168 41.90625 102.75 L 41.90625 95.625 C 41.906247 95.321367 42.01099 95.051514 42.21875 94.84375 C 42.426502 94.636004 42.665102 94.531259 42.96875 94.53125 L 45.8125 94.53125 C 46.116136 94.531257 46.354736 94.636003 46.5625 94.84375 C 46.770248 95.051515 46.874991 95.321365 46.875 95.625 L 46.875 102.75 C 46.874992 103.02168 46.980448 103.24573 47.15625 103.4375 C 47.348015 103.61329 47.57206 103.6875 47.84375 103.6875 L 48.40625 103.6875 C 48.677922 103.6875 48.886696 103.61329 49.0625 103.4375 C 49.254264 103.24573 49.343739 103.02168 49.34375 102.75 L 49.34375 95.46875 C 49.343739 94.541849 49.059331 93.794796 48.5 93.1875 C 47.956628 92.580224 47.1201 92.250011 45.9375 92.25 L 45.5625 92.25 C 45.162961 92.250008 44.773811 92.309662 44.40625 92.4375 C 44.054659 92.549378 43.741137 92.715199 43.4375 92.875 C 43.149831 93.018844 42.879982 93.153411 42.65625 93.28125 C 42.43251 93.393128 42.268827 93.43751 42.125 93.4375 C 41.981165 93.437511 41.906246 93.348035 41.90625 93.15625 L 41.90625 87.5 L 40.375 87.5 z M 87.125 87.5 C 86.853315 87.500015 86.629272 87.589492 86.4375 87.78125 C 86.261703 87.957061 86.156248 88.165835 86.15625 88.4375 L 86.15625 97.46875 C 86.156251 97.740435 86.261705 97.964481 86.4375 98.15625 C 86.62927 98.332047 86.853317 98.406255 87.125 98.40625 L 87.6875 98.40625 C 87.95918 98.406256 88.167953 98.332049 88.34375 98.15625 C 88.535523 97.964479 88.624996 97.740437 88.625 97.46875 L 88.625 88.4375 C 88.624994 88.165836 88.53552 87.957059 88.34375 87.78125 C 88.167956 87.589494 87.959177 87.500016 87.6875 87.5 L 87.125 87.5 z M 55.21875 92.34375 C 54.803235 92.343758 54.398814 92.402699 54.03125 92.5625 C 53.679659 92.706342 53.365428 92.91583 53.09375 93.1875 C 52.822068 93.459189 52.59731 93.788692 52.4375 94.15625 C 52.277688 94.523828 52.218749 94.928247 52.21875 95.34375 L 52.21875 100.6875 C 52.218747 101.10302 52.277686 101.50743 52.4375 101.875 C 52.597311 102.24257 52.822067 102.57207 53.09375 102.84375 C 53.365428 103.11543 53.67966 103.30894 54.03125 103.46875 C 54.398813 103.61258 54.803235 103.6875 55.21875 103.6875 L 59.53125 103.6875 C 59.802922 103.6875 60.011697 103.61258 60.1875 103.46875 C 60.379265 103.30894 60.46874 103.11543 60.46875 102.84375 L 60.46875 101.5 L 55.65625 101.5 C 55.384566 101.50001 55.16052 101.39455 54.96875 101.21875 C 54.776973 101.04296 54.687496 100.80365 54.6875 100.5 L 54.6875 98.9375 L 60.65625 98.9375 C 61.071752 98.937504 61.431078 98.818917 61.71875 98.53125 C 62.006401 98.243596 62.124989 97.884267 62.125 97.46875 L 62.125 95.34375 C 62.12499 94.928246 62.066051 94.539096 61.90625 94.1875 C 61.746426 93.819944 61.52167 93.490441 61.25 93.21875 C 60.978309 92.947079 60.648808 92.722323 60.28125 92.5625 C 59.929655 92.402699 59.540503 92.343761 59.125 92.34375 L 55.21875 92.34375 z M 65.34375 92.34375 C 65.024127 92.343758 64.784098 92.448506 64.65625 92.65625 C 64.528402 92.864017 64.468749 93.042967 64.46875 93.21875 L 64.46875 102.75 C 64.46875 103.02168 64.574205 103.24573 64.75 103.4375 C 64.941769 103.61329 65.165817 103.6875 65.4375 103.6875 L 66 103.6875 C 66.27168 103.6875 66.480453 103.61329 66.65625 103.4375 C 66.848023 103.24573 66.937496 103.02168 66.9375 102.75 L 66.9375 95.5625 C 66.937493 95.258867 67.04224 95.004283 67.25 94.8125 C 67.457752 94.620735 67.682508 94.531259 67.90625 94.53125 L 72.40625 94.53125 L 72.40625 93.1875 C 72.406243 92.915829 72.332034 92.706342 72.15625 92.5625 C 71.980447 92.402699 71.740422 92.343761 71.46875 92.34375 L 69.40625 92.34375 C 69.054658 92.343758 68.739712 92.388143 68.5 92.5 C 68.276256 92.611878 68.097307 92.73118 67.9375 92.875 C 67.777683 93.018845 67.627845 93.169392 67.5 93.28125 C 67.38813 93.393128 67.252845 93.43751 67.125 93.4375 C 66.981164 93.437511 66.861865 93.347322 66.75 93.1875 L 66.15625 92.34375 L 65.34375 92.34375 z M 76.40625 92.34375 C 75.990737 92.343758 75.617564 92.402699 75.25 92.5625 C 74.898409 92.706342 74.584178 92.91583 74.3125 93.1875 C 74.040821 93.459189 73.81606 93.788692 73.65625 94.15625 C 73.496433 94.523828 73.406249 94.928247 73.40625 95.34375 L 73.40625 100.6875 C 73.40625 101.10302 73.496436 101.50743 73.65625 101.875 C 73.816057 102.24257 74.040817 102.57207 74.3125 102.84375 C 74.584181 103.11543 74.89841 103.30894 75.25 103.46875 C 75.617562 103.61258 75.990735 103.6875 76.40625 103.6875 L 80.71875 103.6875 C 80.990425 103.6875 81.230447 103.61258 81.40625 103.46875 C 81.598018 103.30894 81.68749 103.11543 81.6875 102.84375 L 81.6875 101.5 L 76.875 101.5 C 76.603315 101.50001 76.37927 101.39455 76.1875 101.21875 C 75.995722 101.04296 75.874996 100.80365 75.875 100.5 L 75.875 98.9375 L 81.84375 98.9375 C 82.259251 98.937504 82.618578 98.818917 82.90625 98.53125 C 83.193904 98.243596 83.343739 97.884267 83.34375 97.46875 L 83.34375 95.34375 C 83.343739 94.928246 83.253551 94.539096 83.09375 94.1875 C 82.933925 93.819944 82.74042 93.490441 82.46875 93.21875 C 82.197058 92.947079 81.867558 92.722323 81.5 92.5625 C 81.148408 92.402699 80.759253 92.343761 80.34375 92.34375 L 76.40625 92.34375 z M 55.625 94.53125 L 58.71875 94.53125 C 58.990422 94.531257 59.199198 94.620735 59.375 94.8125 C 59.566764 94.988303 59.656241 95.228328 59.65625 95.5 L 59.65625 96.96875 L 54.6875 96.96875 L 54.6875 95.5 C 54.687494 95.228328 54.761703 94.988302 54.9375 94.8125 C 55.129271 94.620735 55.353315 94.531259 55.625 94.53125 z M 76.84375 94.53125 L 79.90625 94.53125 C 80.177924 94.531257 80.417948 94.620735 80.59375 94.8125 C 80.785517 94.988303 80.874991 95.228328 80.875 95.5 L 80.875 96.96875 L 75.875 96.96875 L 75.875 95.5 C 75.874993 95.228328 75.980453 94.988302 76.15625 94.8125 C 76.34802 94.620735 76.572065 94.531259 76.84375 94.53125 z M 87.125 100.34375 C 86.853315 100.34375 86.629272 100.43323 86.4375 100.625 C 86.261703 100.8008 86.156248 101.04082 86.15625 101.3125 L 86.15625 102.75 C 86.156251 103.02168 86.261705 103.24573 86.4375 103.4375 C 86.62927 103.61329 86.853317 103.6875 87.125 103.6875 L 87.6875 103.6875 C 87.95918 103.6875 88.167953 103.61329 88.34375 103.4375 C 88.535523 103.24573 88.624996 103.02168 88.625 102.75 L 88.625 101.3125 C 88.624994 101.04082 88.53552 100.8008 88.34375 100.625 C 88.167956 100.43323 87.959177 100.34375 87.6875 100.34375 L 87.125 100.34375 z "
       xlink:href="#text6775"
       style="font-size:23.9718132px;font-style:normal;font-variant:normal;font-weight:bold;font-stretch:normal;text-indent:0;text-align:center;text-decoration:none;line-height:100%;letter-spacing:normal;word-spacing:normal;text-transform:none;direction:ltr;block-progression:tb;writing-mode:lr-tb;text-anchor:middle;opacity:1;fill:#000000;fill-opacity:1;fill-rule:nonzero;stroke:none;stroke-width:1px;stroke-linecap:butt;stroke-linejoin:miter;marker:none;marker-start:none;marker-mid:none;marker-end:none;stroke-miterlimit:4;stroke-dasharray:none;stroke-dashoffset:0;stroke-opacity:1;visibility:visible;display:inline;overflow:visible;filter:url(#filter6039);enable-background:accumulate;font-family:ChollaWideBoldOS;-inkscape-font-specification:ChollaWideBoldOS Bold"
       id="path5243"
       inkscape:href="#text6775"
       d="M 24.96875,63.53125 C 24.697059,63.531265 24.473015,63.620742 24.28125,63.8125 C 24.105447,63.988307 23.999991,64.197085 24,64.46875 L 24,69.1875 C 23.999991,69.379287 23.956322,69.46876 23.8125,69.46875 C 23.66866,69.468758 23.473729,69.393129 23.25,69.28125 C 23.026255,69.153414 22.772385,69.018842 22.46875,68.875 C 22.181082,68.715198 21.85158,68.58063 21.5,68.46875 C 21.148408,68.340914 20.759256,68.281261 20.34375,68.28125 L 20,68.28125 C 18.817386,68.281262 17.934339,68.580225 17.375,69.1875 C 16.831637,69.794798 16.562499,70.573099 16.5625,71.5 L 16.5625,76.59375 C 16.562499,77.520659 16.831637,78.267716 17.375,78.875 C 17.93434,79.482285 18.817387,79.78125 20,79.78125 L 20.34375,79.78125 C 20.759255,79.781251 21.148407,79.736868 21.5,79.625 C 21.85158,79.49715 22.181081,79.37785 22.46875,79.25 C 22.772386,79.106172 23.026255,78.986869 23.25,78.875 C 23.473728,78.74715 23.668661,78.656251 23.8125,78.65625 C 23.892397,78.656247 23.936066,78.686789 24,78.71875 C 24.079897,78.734729 24.154816,78.779114 24.21875,78.875 L 24.8125,79.71875 L 25.625,79.71875 C 25.944614,79.71875 26.153389,79.614006 26.28125,79.40625 C 26.409088,79.198491 26.468739,79.019544 26.46875,78.84375 L 26.46875,63.53125 L 24.96875,63.53125 z M 72.3125,63.53125 C 72.040815,63.531265 71.816772,63.620742 71.625,63.8125 C 71.449203,63.988307 71.374998,64.197085 71.375,64.46875 L 71.375,78.75 C 71.375002,79.021679 71.449205,79.276976 71.625,79.46875 C 71.816771,79.644541 72.040817,79.71875 72.3125,79.71875 L 73.84375,79.71875 L 73.84375,64.46875 C 73.843745,64.197083 73.75427,63.988309 73.5625,63.8125 C 73.386707,63.62074 73.146677,63.531266 72.875,63.53125 L 72.3125,63.53125 z M 110.5,63.53125 C 110.22831,63.531265 110.00427,63.620742 109.8125,63.8125 C 109.6367,63.988307 109.56249,64.197085 109.5625,64.46875 L 109.5625,69.1875 C 109.56249,69.379287 109.48757,69.46876 109.34375,69.46875 C 109.19991,69.468758 109.00498,69.393129 108.78125,69.28125 C 108.5575,69.153414 108.30364,69.018842 108,68.875 C 107.71233,68.715198 107.38283,68.58063 107.03125,68.46875 C 106.67965,68.340914 106.29051,68.281261 105.875,68.28125 L 105.53125,68.28125 C 104.34864,68.281262 103.46559,68.580225 102.90625,69.1875 C 102.36289,69.794798 102.09375,70.573099 102.09375,71.5 L 102.09375,76.59375 C 102.09375,77.520659 102.36289,78.267716 102.90625,78.875 C 103.46559,79.482285 104.34864,79.78125 105.53125,79.78125 L 105.875,79.78125 C 106.29051,79.781251 106.67966,79.736868 107.03125,79.625 C 107.38283,79.49715 107.71233,79.37785 108,79.25 C 108.30363,79.106172 108.55751,78.986869 108.78125,78.875 C 109.00498,78.74715 109.19991,78.656251 109.34375,78.65625 C 109.42365,78.656247 109.49857,78.686789 109.5625,78.71875 C 109.6424,78.734729 109.71732,78.779114 109.78125,78.875 L 110.34375,79.71875 L 111.15625,79.71875 C 111.47587,79.71875 111.71589,79.614006 111.84375,79.40625 C 111.97159,79.198491 112.03124,79.019544 112.03125,78.84375 L 112.03125,63.53125 L 110.5,63.53125 z M 64.5,68.28125 C 64.100464,68.281262 63.711311,68.340912 63.34375,68.46875 C 62.992158,68.580632 62.678637,68.715199 62.375,68.875 C 62.071354,69.01884 61.817482,69.153411 61.59375,69.28125 C 61.370009,69.393132 61.175077,69.46876 61.03125,69.46875 C 60.887414,69.468758 60.768115,69.378572 60.65625,69.21875 L 60.03125,68.375 L 59.21875,68.375 C 58.899123,68.375012 58.690348,68.479756 58.5625,68.6875 C 58.434648,68.895263 58.374999,69.074217 58.375,69.25 L 58.375,78.75 C 58.374999,79.021679 58.449205,79.276976 58.625,79.46875 C 58.816773,79.644541 59.040817,79.71875 59.3125,79.71875 L 59.875,79.71875 C 60.146679,79.71875 60.386703,79.644543 60.5625,79.46875 C 60.754272,79.276973 60.843746,79.021681 60.84375,78.75 L 60.84375,71.65625 C 60.843747,71.352613 60.94849,71.082764 61.15625,70.875 C 61.364001,70.667251 61.602602,70.562509 61.90625,70.5625 L 64.75,70.5625 C 65.053631,70.562511 65.292236,70.667253 65.5,70.875 C 65.707744,71.082762 65.812491,71.352615 65.8125,71.65625 L 65.8125,78.75 C 65.812491,79.021679 65.917948,79.276976 66.09375,79.46875 C 66.285518,79.644541 66.50956,79.71875 66.78125,79.71875 L 67.34375,79.71875 C 67.615421,79.71875 67.824196,79.644543 68,79.46875 C 68.191764,79.276973 68.281239,79.021681 68.28125,78.75 L 68.28125,71.5 C 68.281242,70.573095 68.028081,69.794796 67.46875,69.1875 C 66.925381,68.580227 66.0576,68.281261 64.875,68.28125 L 64.5,68.28125 z M 42.65625,68.34375 L 42,68.5 C 41.792245,68.547957 41.643118,68.667968 41.53125,68.84375 C 41.419381,69.003571 41.343749,69.167967 41.34375,69.34375 C 41.343748,69.439651 41.359018,69.499298 41.375,69.53125 L 43.84375,78.5 C 43.875708,78.611872 43.936072,78.73117 44,78.875 C 44.063921,79.01883 44.122859,79.153401 44.21875,79.28125 C 44.314632,79.393122 44.449915,79.497863 44.59375,79.59375 C 44.737575,79.673655 44.886702,79.71875 45.0625,79.71875 L 45.90625,79.71875 C 46.22587,79.71875 46.49572,79.614718 46.6875,79.375 C 46.87927,79.119305 47.013838,78.84945 47.09375,78.59375 L 48.1875,75.53125 C 48.283378,75.259575 48.372855,74.975879 48.46875,74.65625 C 48.564631,74.33663 48.639548,74.06678 48.6875,73.875 C 48.751417,73.68323 48.781242,73.563219 48.78125,73.53125 L 48.8125,73.53125 C 48.812494,73.563221 48.827048,73.683232 48.875,73.875 C 48.938915,74.066779 49.029104,74.336631 49.125,74.65625 C 49.22088,74.975878 49.310354,75.259574 49.40625,75.53125 L 50.5,78.59375 C 50.579897,78.849453 50.714465,79.119301 50.90625,79.375 C 51.098015,79.614722 51.367865,79.71875 51.6875,79.71875 L 52.53125,79.71875 C 52.707031,79.71875 52.856157,79.673656 53,79.59375 C 53.143819,79.497862 53.2791,79.393119 53.375,79.28125 C 53.470875,79.153404 53.529812,79.018832 53.59375,78.875 C 53.657661,78.731169 53.718025,78.61187 53.75,78.5 L 56.21875,69.53125 C 56.234716,69.499296 56.249984,69.439648 56.25,69.34375 C 56.249985,69.167971 56.174353,69.003573 56.0625,68.84375 C 55.950615,68.667966 55.801491,68.547955 55.59375,68.5 L 54.9375,68.34375 C 54.713747,68.279837 54.520242,68.324931 54.3125,68.46875 C 54.10473,68.596613 53.970162,68.776274 53.90625,69 L 52.65625,73.71875 C 52.592314,73.990433 52.517394,74.349763 52.4375,74.78125 C 52.373562,75.196767 52.313913,75.615743 52.25,76.03125 C 52.186064,76.430782 52.125701,76.79011 52.09375,77.09375 C 52.061775,77.381417 52.031951,77.531252 52,77.53125 C 51.904103,77.131722 51.814626,76.787665 51.71875,76.5 C 51.638831,76.212345 51.533376,75.882128 51.4375,75.5625 C 51.341601,75.226901 51.252127,74.943204 51.15625,74.6875 L 50.28125,72.34375 C 50.201333,72.151981 50.066053,72.002857 49.90625,71.875 C 49.746427,71.747158 49.582747,71.656258 49.375,71.65625 L 48.25,71.65625 C 48.042236,71.656256 47.847305,71.747158 47.6875,71.875 C 47.527682,72.002857 47.392399,72.151983 47.3125,72.34375 L 46.4375,74.6875 C 46.341606,74.943204 46.252132,75.226899 46.15625,75.5625 C 46.060357,75.88213 45.970882,76.212342 45.875,76.5 C 45.79509,76.787668 45.704189,77.010997 45.65625,77.21875 C 45.6083,77.410523 45.594458,77.531252 45.5625,77.53125 C 45.498572,76.939947 45.40767,76.430784 45.34375,76.03125 C 45.27982,75.615741 45.22017,75.196766 45.15625,74.78125 C 45.092322,74.349763 45.017402,73.990436 44.9375,73.71875 L 43.71875,69 C 43.654823,68.776274 43.489003,68.596611 43.28125,68.46875 C 43.073492,68.324932 42.879985,68.279837 42.65625,68.34375 z M 32.34375,68.375 C 31.928234,68.375012 31.523814,68.433949 31.15625,68.59375 C 30.804661,68.753577 30.490428,68.97833 30.21875,69.25 C 29.947067,69.521694 29.75356,69.851192 29.59375,70.21875 C 29.433937,70.570343 29.343749,70.928247 29.34375,71.34375 L 29.34375,76.71875 C 29.343749,77.134263 29.433936,77.538684 29.59375,77.90625 C 29.753561,78.257842 29.947067,78.572071 30.21875,78.84375 C 30.490428,79.115429 30.80466,79.308938 31.15625,79.46875 C 31.523814,79.62856 31.928235,79.71875 32.34375,79.71875 L 36.25,79.71875 C 36.665502,79.71875 37.054654,79.628562 37.40625,79.46875 C 37.773808,79.308936 38.072059,79.115431 38.34375,78.84375 C 38.615419,78.572069 38.840177,78.257838 39,77.90625 C 39.159803,77.538688 39.249989,77.134264 39.25,76.71875 L 39.25,71.34375 C 39.249989,70.92825 39.159801,70.570346 39,70.21875 C 38.840179,69.85119 38.61542,69.521691 38.34375,69.25 C 38.072058,68.978333 37.773808,68.753573 37.40625,68.59375 C 37.054654,68.433953 36.665503,68.375011 36.25,68.375 L 32.34375,68.375 z M 79.90625,68.375 C 79.490733,68.375012 79.086314,68.433949 78.71875,68.59375 C 78.367162,68.753577 78.052928,68.97833 77.78125,69.25 C 77.509566,69.521694 77.31606,69.851192 77.15625,70.21875 C 76.996436,70.570343 76.906249,70.928247 76.90625,71.34375 L 76.90625,76.71875 C 76.906246,77.134263 76.996436,77.538684 77.15625,77.90625 C 77.31606,78.257842 77.509567,78.572071 77.78125,78.84375 C 78.052927,79.115429 78.36716,79.308938 78.71875,79.46875 C 79.086315,79.62856 79.490735,79.71875 79.90625,79.71875 L 83.8125,79.71875 C 84.228005,79.71875 84.617154,79.628562 84.96875,79.46875 C 85.336307,79.308936 85.665809,79.115431 85.9375,78.84375 C 86.209171,78.572069 86.402677,78.257838 86.5625,77.90625 C 86.722302,77.538688 86.812489,77.134264 86.8125,76.71875 L 86.8125,71.34375 C 86.812492,70.92825 86.722301,70.570346 86.5625,70.21875 C 86.402678,69.85119 86.20917,69.521691 85.9375,69.25 C 85.665811,68.978333 85.336308,68.753573 84.96875,68.59375 C 84.617153,68.433953 84.228003,68.375011 83.8125,68.375 L 79.90625,68.375 z M 91.40625,68.375 C 91.150548,68.375012 90.941772,68.434662 90.75,68.5625 C 90.574205,68.690364 90.468748,68.854043 90.46875,69.09375 L 90.46875,70.5625 L 95.8125,70.5625 C 96.084174,70.562511 96.292949,70.667253 96.46875,70.875 C 96.644536,71.06678 96.749992,71.276272 96.75,71.5 L 96.75,73.28125 C 96.749995,73.473031 96.675072,73.562506 96.53125,73.5625 C 96.387412,73.562509 96.192479,73.518125 95.96875,73.40625 C 95.745009,73.278408 95.491136,73.143837 95.1875,73 C 94.899834,72.840192 94.57033,72.705625 94.21875,72.59375 C 93.867157,72.465908 93.478006,72.375007 93.0625,72.375 L 92.71875,72.375 C 91.536136,72.375005 90.65309,72.705221 90.09375,73.3125 C 89.550389,73.919792 89.281249,74.666845 89.28125,75.59375 L 89.28125,76.59375 C 89.281249,77.520659 89.550388,78.267716 90.09375,78.875 C 90.653091,79.482285 91.536137,79.78125 92.71875,79.78125 L 93.0625,79.78125 C 93.478009,79.781251 93.867158,79.736868 94.21875,79.625 C 94.57033,79.49715 94.899832,79.37785 95.1875,79.25 C 95.491138,79.106172 95.745006,78.986869 95.96875,78.875 C 96.192482,78.74715 96.387411,78.656251 96.53125,78.65625 C 96.611149,78.656247 96.686067,78.686789 96.75,78.71875 C 96.829901,78.734729 96.904817,78.779114 96.96875,78.875 L 97.53125,79.71875 L 98.34375,79.71875 C 98.663362,79.71875 98.90339,79.614006 99.03125,79.40625 C 99.159086,79.198491 99.218739,79.019544 99.21875,78.84375 L 99.21875,71.15625 C 99.218738,70.788691 99.143108,70.429365 99.03125,70.09375 C 98.919368,69.758151 98.755689,69.44321 98.5,69.1875 C 98.260271,68.931814 97.930771,68.737592 97.53125,68.59375 C 97.147689,68.433953 96.668353,68.375011 96.125,68.375 L 91.40625,68.375 z M 20.09375,70.5625 L 22.9375,70.5625 C 23.241135,70.562511 23.479736,70.667253 23.6875,70.875 C 23.895248,71.082762 23.999991,71.352615 24,71.65625 L 24,76.4375 C 23.999991,76.741149 23.895247,77.010997 23.6875,77.21875 C 23.479737,77.426512 23.241135,77.531252 22.9375,77.53125 L 20.09375,77.53125 C 19.790103,77.531252 19.551501,77.426508 19.34375,77.21875 C 19.13599,77.011001 19.031246,76.741146 19.03125,76.4375 L 19.03125,71.65625 C 19.031247,71.352613 19.13599,71.082764 19.34375,70.875 C 19.551501,70.667251 19.790102,70.562509 20.09375,70.5625 z M 32.875,70.5625 L 35.6875,70.5625 C 35.991136,70.562511 36.260986,70.667253 36.46875,70.875 C 36.676498,71.082762 36.781241,71.352615 36.78125,71.65625 L 36.78125,76.4375 C 36.781242,76.741149 36.676497,77.010997 36.46875,77.21875 C 36.260987,77.426512 35.991135,77.531252 35.6875,77.53125 L 32.875,77.53125 C 32.571354,77.531252 32.332751,77.426508 32.125,77.21875 C 31.917241,77.011001 31.812496,76.741146 31.8125,76.4375 L 31.8125,71.65625 C 31.812496,71.352613 31.91724,71.082764 32.125,70.875 C 32.332752,70.667251 32.571352,70.562509 32.875,70.5625 z M 80.46875,70.5625 L 83.25,70.5625 C 83.553639,70.562511 83.823486,70.667253 84.03125,70.875 C 84.238994,71.082762 84.343741,71.352615 84.34375,71.65625 L 84.34375,76.4375 C 84.343741,76.741149 84.238997,77.010997 84.03125,77.21875 C 83.823483,77.426512 83.553635,77.531252 83.25,77.53125 L 80.46875,77.53125 C 80.165099,77.531252 79.895251,77.426508 79.6875,77.21875 C 79.479737,77.011001 79.374996,76.741146 79.375,76.4375 L 79.375,71.65625 C 79.374997,71.352613 79.47974,71.082764 79.6875,70.875 C 79.895248,70.667251 80.165102,70.562509 80.46875,70.5625 z M 105.65625,70.5625 L 108.46875,70.5625 C 108.77238,70.562511 109.04224,70.667253 109.25,70.875 C 109.45774,71.082762 109.56249,71.352615 109.5625,71.65625 L 109.5625,76.4375 C 109.56249,76.741149 109.45775,77.010997 109.25,77.21875 C 109.04223,77.426512 108.77238,77.531252 108.46875,77.53125 L 105.65625,77.53125 C 105.3526,77.531252 105.08275,77.426508 104.875,77.21875 C 104.66724,77.011001 104.5625,76.741146 104.5625,76.4375 L 104.5625,71.65625 C 104.5625,71.352613 104.66724,71.082764 104.875,70.875 C 105.08275,70.667251 105.3526,70.562509 105.65625,70.5625 z M 92.84375,74.65625 L 95.65625,74.65625 C 95.959885,74.656255 96.229736,74.760999 96.4375,74.96875 C 96.645248,75.176513 96.749992,75.446361 96.75,75.75 L 96.75,76.4375 C 96.749995,76.741149 96.645247,77.010997 96.4375,77.21875 C 96.229737,77.426512 95.959885,77.531252 95.65625,77.53125 L 92.84375,77.53125 C 92.540103,77.531252 92.270252,77.426508 92.0625,77.21875 C 91.85474,77.011001 91.749997,76.741146 91.75,76.4375 L 91.75,75.75 C 91.749993,75.446365 91.854741,75.17651 92.0625,74.96875 C 92.270251,74.761002 92.540103,74.656255 92.84375,74.65625 z M 40.375,87.5 C 40.103318,87.500015 39.879273,87.589492 39.6875,87.78125 C 39.511706,87.957061 39.437499,88.165835 39.4375,88.4375 L 39.4375,102.75 C 39.4375,103.02168 39.511705,103.24573 39.6875,103.4375 C 39.879273,103.61329 40.103317,103.6875 40.375,103.6875 L 40.9375,103.6875 C 41.209176,103.6875 41.449203,103.61329 41.625,103.4375 C 41.816773,103.24573 41.906246,103.02168 41.90625,102.75 L 41.90625,95.625 C 41.906247,95.321367 42.01099,95.051514 42.21875,94.84375 C 42.426502,94.636004 42.665102,94.531259 42.96875,94.53125 L 45.8125,94.53125 C 46.116136,94.531257 46.354736,94.636003 46.5625,94.84375 C 46.770248,95.051515 46.874991,95.321365 46.875,95.625 L 46.875,102.75 C 46.874992,103.02168 46.980448,103.24573 47.15625,103.4375 C 47.348015,103.61329 47.57206,103.6875 47.84375,103.6875 L 48.40625,103.6875 C 48.677922,103.6875 48.886696,103.61329 49.0625,103.4375 C 49.254264,103.24573 49.343739,103.02168 49.34375,102.75 L 49.34375,95.46875 C 49.343739,94.541849 49.059331,93.794796 48.5,93.1875 C 47.956628,92.580224 47.1201,92.250011 45.9375,92.25 L 45.5625,92.25 C 45.162961,92.250008 44.773811,92.309662 44.40625,92.4375 C 44.054659,92.549378 43.741137,92.715199 43.4375,92.875 C 43.149831,93.018844 42.879982,93.153411 42.65625,93.28125 C 42.43251,93.393128 42.268827,93.43751 42.125,93.4375 C 41.981165,93.437511 41.906246,93.348035 41.90625,93.15625 L 41.90625,87.5 L 40.375,87.5 z M 87.125,87.5 C 86.853315,87.500015 86.629272,87.589492 86.4375,87.78125 C 86.261703,87.957061 86.156248,88.165835 86.15625,88.4375 L 86.15625,97.46875 C 86.156251,97.740435 86.261705,97.964481 86.4375,98.15625 C 86.62927,98.332047 86.853317,98.406255 87.125,98.40625 L 87.6875,98.40625 C 87.95918,98.406256 88.167953,98.332049 88.34375,98.15625 C 88.535523,97.964479 88.624996,97.740437 88.625,97.46875 L 88.625,88.4375 C 88.624994,88.165836 88.53552,87.957059 88.34375,87.78125 C 88.167956,87.589494 87.959177,87.500016 87.6875,87.5 L 87.125,87.5 z M 55.21875,92.34375 C 54.803235,92.343758 54.398814,92.402699 54.03125,92.5625 C 53.679659,92.706342 53.365428,92.91583 53.09375,93.1875 C 52.822068,93.459189 52.59731,93.788692 52.4375,94.15625 C 52.277688,94.523828 52.218749,94.928247 52.21875,95.34375 L 52.21875,100.6875 C 52.218747,101.10302 52.277686,101.50743 52.4375,101.875 C 52.597311,102.24257 52.822067,102.57207 53.09375,102.84375 C 53.365428,103.11543 53.67966,103.30894 54.03125,103.46875 C 54.398813,103.61258 54.803235,103.6875 55.21875,103.6875 L 59.53125,103.6875 C 59.802922,103.6875 60.011697,103.61258 60.1875,103.46875 C 60.379265,103.30894 60.46874,103.11543 60.46875,102.84375 L 60.46875,101.5 L 55.65625,101.5 C 55.384566,101.50001 55.16052,101.39455 54.96875,101.21875 C 54.776973,101.04296 54.687496,100.80365 54.6875,100.5 L 54.6875,98.9375 L 60.65625,98.9375 C 61.071752,98.937504 61.431078,98.818917 61.71875,98.53125 C 62.006401,98.243596 62.124989,97.884267 62.125,97.46875 L 62.125,95.34375 C 62.12499,94.928246 62.066051,94.539096 61.90625,94.1875 C 61.746426,93.819944 61.52167,93.490441 61.25,93.21875 C 60.978309,92.947079 60.648808,92.722323 60.28125,92.5625 C 59.929655,92.402699 59.540503,92.343761 59.125,92.34375 L 55.21875,92.34375 z M 65.34375,92.34375 C 65.024127,92.343758 64.784098,92.448506 64.65625,92.65625 C 64.528402,92.864017 64.468749,93.042967 64.46875,93.21875 L 64.46875,102.75 C 64.46875,103.02168 64.574205,103.24573 64.75,103.4375 C 64.941769,103.61329 65.165817,103.6875 65.4375,103.6875 L 66,103.6875 C 66.27168,103.6875 66.480453,103.61329 66.65625,103.4375 C 66.848023,103.24573 66.937496,103.02168 66.9375,102.75 L 66.9375,95.5625 C 66.937493,95.258867 67.04224,95.004283 67.25,94.8125 C 67.457752,94.620735 67.682508,94.531259 67.90625,94.53125 L 72.40625,94.53125 L 72.40625,93.1875 C 72.406243,92.915829 72.332034,92.706342 72.15625,92.5625 C 71.980447,92.402699 71.740422,92.343761 71.46875,92.34375 L 69.40625,92.34375 C 69.054658,92.343758 68.739712,92.388143 68.5,92.5 C 68.276256,92.611878 68.097307,92.73118 67.9375,92.875 C 67.777683,93.018845 67.627845,93.169392 67.5,93.28125 C 67.38813,93.393128 67.252845,93.43751 67.125,93.4375 C 66.981164,93.437511 66.861865,93.347322 66.75,93.1875 L 66.15625,92.34375 L 65.34375,92.34375 z M 76.40625,92.34375 C 75.990737,92.343758 75.617564,92.402699 75.25,92.5625 C 74.898409,92.706342 74.584178,92.91583 74.3125,93.1875 C 74.040821,93.459189 73.81606,93.788692 73.65625,94.15625 C 73.496433,94.523828 73.406249,94.928247 73.40625,95.34375 L 73.40625,100.6875 C 73.40625,101.10302 73.496436,101.50743 73.65625,101.875 C 73.816057,102.24257 74.040817,102.57207 74.3125,102.84375 C 74.584181,103.11543 74.89841,103.30894 75.25,103.46875 C 75.617562,103.61258 75.990735,103.6875 76.40625,103.6875 L 80.71875,103.6875 C 80.990425,103.6875 81.230447,103.61258 81.40625,103.46875 C 81.598018,103.30894 81.68749,103.11543 81.6875,102.84375 L 81.6875,101.5 L 76.875,101.5 C 76.603315,101.50001 76.37927,101.39455 76.1875,101.21875 C 75.995722,101.04296 75.874996,100.80365 75.875,100.5 L 75.875,98.9375 L 81.84375,98.9375 C 82.259251,98.937504 82.618578,98.818917 82.90625,98.53125 C 83.193904,98.243596 83.343739,97.884267 83.34375,97.46875 L 83.34375,95.34375 C 83.343739,94.928246 83.253551,94.539096 83.09375,94.1875 C 82.933925,93.819944 82.74042,93.490441 82.46875,93.21875 C 82.197058,92.947079 81.867558,92.722323 81.5,92.5625 C 81.148408,92.402699 80.759253,92.343761 80.34375,92.34375 L 76.40625,92.34375 z M 55.625,94.53125 L 58.71875,94.53125 C 58.990422,94.531257 59.199198,94.620735 59.375,94.8125 C 59.566764,94.988303 59.656241,95.228328 59.65625,95.5 L 59.65625,96.96875 L 54.6875,96.96875 L 54.6875,95.5 C 54.687494,95.228328 54.761703,94.988302 54.9375,94.8125 C 55.129271,94.620735 55.353315,94.531259 55.625,94.53125 z M 76.84375,94.53125 L 79.90625,94.53125 C 80.177924,94.531257 80.417948,94.620735 80.59375,94.8125 C 80.785517,94.988303 80.874991,95.228328 80.875,95.5 L 80.875,96.96875 L 75.875,96.96875 L 75.875,95.5 C 75.874993,95.228328 75.980453,94.988302 76.15625,94.8125 C 76.34802,94.620735 76.572065,94.531259 76.84375,94.53125 z M 87.125,100.34375 C 86.853315,100.34375 86.629272,100.43323 86.4375,100.625 C 86.261703,100.8008 86.156248,101.04082 86.15625,101.3125 L 86.15625,102.75 C 86.156251,103.02168 86.261705,103.24573 86.4375,103.4375 C 86.62927,103.61329 86.853317,103.6875 87.125,103.6875 L 87.6875,103.6875 C 87.95918,103.6875 88.167953,103.61329 88.34375,103.4375 C 88.535523,103.24573 88.624996,103.02168 88.625,102.75 L 88.625,101.3125 C 88.624994,101.04082 88.53552,100.8008 88.34375,100.625 C 88.167956,100.43323 87.959177,100.34375 87.6875,100.34375 L 87.125,100.34375 z"
       transform="translate(0,1)" />
    <text
       xml:space="preserve"
       style="font-size:23.9718132px;font-style:normal;font-variant:normal;font-weight:bold;font-stretch:normal;text-indent:0;text-align:center;text-decoration:none;line-height:100%;letter-spacing:normal;word-spacing:normal;text-transform:none;direction:ltr;block-progression:tb;writing-mode:lr-tb;text-anchor:middle;opacity:1;fill:#ffffff;fill-opacity:1;fill-rule:nonzero;stroke:none;stroke-width:1px;stroke-linecap:butt;stroke-linejoin:miter;marker:none;marker-start:none;marker-mid:none;marker-end:none;stroke-miterlimit:4;stroke-dasharray:none;stroke-dashoffset:0;stroke-opacity:1;visibility:visible;display:inline;overflow:visible;enable-background:accumulate;font-family:ChollaWideBoldOS;-inkscape-font-specification:ChollaWideBoldOS Bold"
       x="64.280846"
       y="79.72377"
       id="text6775"
       sodipodi:linespacing="100%"><tspan
         sodipodi:role="line"
         x="67.207092"
         y="79.72377"
         id="tspan5240">download </tspan><tspan
         sodipodi:role="line"
         x="64.280846"
         y="103.69559"
         id="tspan5244">here!</tspan></text>
  </g>
</svg>
