<?xml version="1.0" encoding="UTF-8" standalone="no"?>
<!-- Created with Inkscape (http://www.inkscape.org/) -->
<svg
   xmlns:dc="http://purl.org/dc/elements/1.1/"
   xmlns:cc="http://creativecommons.org/ns#"
   xmlns:rdf="http://www.w3.org/1999/02/22-rdf-syntax-ns#"
   xmlns:svg="http://www.w3.org/2000/svg"
   xmlns="http://www.w3.org/2000/svg"
   xmlns:xlink="http://www.w3.org/1999/xlink"
   xmlns:sodipodi="http://sodipodi.sourceforge.net/DTD/sodipodi-0.dtd"
   xmlns:inkscape="http://www.inkscape.org/namespaces/inkscape"
   width="130"
   height="130"
   id="svg2"
   sodipodi:version="0.32"
   inkscape:version="0.46"
   version="1.0"
   sodipodi:docname="nojavascript-130x130.svg"
   inkscape:output_extension="org.inkscape.output.svg.inkscape">
  <defs
     id="defs4">
    <inkscape:perspective
       sodipodi:type="inkscape:persp3d"
       inkscape:vp_x="-50 : 600 : 1"
       inkscape:vp_y="0 : 1000 : 0"
       inkscape:vp_z="700 : 600 : 1"
       inkscape:persp3d-origin="300 : 400 : 1"
       id="perspective94" />
    <inkscape:perspective
       sodipodi:type="inkscape:persp3d"
       inkscape:vp_x="-50 : 600 : 1"
       inkscape:vp_y="0 : 1000 : 0"
       inkscape:vp_z="700 : 600 : 1"
       inkscape:persp3d-origin="300 : 400 : 1"
       id="perspective93" />
    <inkscape:perspective
       sodipodi:type="inkscape:persp3d"
       inkscape:vp_x="-50 : 600 : 1"
       inkscape:vp_y="0 : 1000 : 0"
       inkscape:vp_z="700 : 600 : 1"
       inkscape:persp3d-origin="300 : 400 : 1"
       id="perspective92" />
    <linearGradient
       inkscape:collect="always"
       id="linearGradient7158">
      <stop
         style="stop-color:#27b800;stop-opacity:1"
         offset="0"
         id="stop7160" />
      <stop
         style="stop-color:#1b6306;stop-opacity:1"
         offset="1"
         id="stop7162" />
    </linearGradient>
    <radialGradient
       inkscape:collect="always"
       xlink:href="#linearGradient7158"
       id="radialGradient7164"
       cx="458.75778"
       cy="-604.58423"
       fx="780.00769"
       fy="-603.4187"
       r="400"
       gradientTransform="matrix(1.5330664e-3,-0.151895,0.1409594,1.7926652e-3,147.03698,146.54894)"
       gradientUnits="userSpaceOnUse" />
    <linearGradient
       inkscape:collect="always"
       id="linearGradient9016">
      <stop
         style="stop-color:#24a701;stop-opacity:1;"
         offset="0"
         id="stop9018" />
      <stop
         style="stop-color:#24a701;stop-opacity:0;"
         offset="1"
         id="stop9020" />
    </linearGradient>
    <radialGradient
       inkscape:collect="always"
       xlink:href="#linearGradient9016"
       id="radialGradient9024"
       gradientUnits="userSpaceOnUse"
       gradientTransform="matrix(1.8476051,0,0,1.8476051,-85.384376,-81.638125)"
       cx="79.423729"
       cy="72.409096"
       fx="79.423729"
       fy="72.409096"
       r="69.84375" />
    <linearGradient
       inkscape:collect="always"
       id="linearGradient9026">
      <stop
         id="stop9030"
         offset="0"
         style="stop-color:#ffffff;stop-opacity:0;" />
      <stop
         id="stop9028"
         offset="1"
         style="stop-color:#ffffff;stop-opacity:1;" />
    </linearGradient>
    <radialGradient
       inkscape:collect="always"
       xlink:href="#linearGradient9026"
       id="radialGradient9032"
       cx="154.76555"
       cy="79.415726"
       fx="154.76555"
       fy="79.415726"
       r="69.938171"
       gradientUnits="userSpaceOnUse"
       gradientTransform="matrix(0.5575867,0,0,0.5575867,68.470323,35.134566)" />
    <linearGradient
       id="linearGradient9038"
       inkscape:collect="always">
      <stop
         style="stop-color:#24a701;stop-opacity:0;"
         offset="0"
         id="stop9042" />
      <stop
         style="stop-color:#24a701;stop-opacity:1;"
         offset="1"
         id="stop9040" />
    </linearGradient>
    <radialGradient
       inkscape:collect="always"
       xlink:href="#linearGradient9038"
       id="radialGradient9022"
       cx="79.423729"
       cy="72.409096"
       fx="79.423729"
       fy="72.409096"
       r="69.84375"
       gradientUnits="userSpaceOnUse"
       gradientTransform="matrix(1.8476051,0,0,1.8476051,-84.760505,-84.760505)" />
    <radialGradient
       inkscape:collect="always"
       xlink:href="#linearGradient7150"
       id="radialGradient8683"
       gradientUnits="userSpaceOnUse"
       gradientTransform="matrix(0.7435303,0,0,0.1539332,157.35885,387.14301)"
       cx="625.98718"
       cy="169.35002"
       fx="625.98718"
       fy="169.35002"
       r="408.5" />
    <linearGradient
       inkscape:collect="always"
       id="linearGradient7150">
      <stop
         style="stop-color:#ffffff;stop-opacity:1;"
         offset="0"
         id="stop7152" />
      <stop
         style="stop-color:#ffffff;stop-opacity:0;"
         offset="1"
         id="stop7154" />
    </linearGradient>
    <radialGradient
       inkscape:collect="always"
       xlink:href="#linearGradient7150"
       id="radialGradient7156"
       cx="364.41531"
       cy="208.24603"
       fx="364.41531"
       fy="208.24603"
       r="408.5"
       gradientTransform="matrix(1.6046904,0,0,0.2828371,-393.04882,474.60029)"
       gradientUnits="userSpaceOnUse" />
    <linearGradient
       inkscape:collect="always"
       id="linearGradient8721">
      <stop
         style="stop-color:#d7dcdd;stop-opacity:1;"
         offset="0"
         id="stop8723" />
      <stop
         style="stop-color:#ffffff;stop-opacity:1"
         offset="1"
         id="stop8725" />
    </linearGradient>
    <linearGradient
       id="linearGradient8783"
       inkscape:collect="always">
      <stop
         id="stop8785"
         offset="0"
         style="stop-color:#9eaaac;stop-opacity:1" />
      <stop
         id="stop8787"
         offset="1"
         style="stop-color:#ffffff;stop-opacity:1" />
    </linearGradient>
    <linearGradient
       inkscape:collect="always"
       xlink:href="#linearGradient8783"
       id="linearGradient8727"
       x1="401.30548"
       y1="500.9314"
       x2="401.30548"
       y2="463.56079"
       gradientUnits="userSpaceOnUse" />
    <filter
       inkscape:collect="always"
       id="filter8779"
       x="-0.021823626"
       width="1.0436473"
       y="-0.11597504"
       height="1.23195">
      <feGaussianBlur
         inkscape:collect="always"
         stdDeviation="2.2672686"
         id="feGaussianBlur8781" />
    </filter>
    <linearGradient
       inkscape:collect="always"
       id="linearGradient7132">
      <stop
         style="stop-color:#444d50;stop-opacity:1"
         offset="0"
         id="stop7134" />
      <stop
         id="stop7140"
         offset="0.87155616"
         style="stop-color:#262c2d;stop-opacity:1" />
      <stop
         style="stop-color:#3c4447;stop-opacity:1"
         offset="1"
         id="stop7136" />
    </linearGradient>
    <linearGradient
       inkscape:collect="always"
       xlink:href="#linearGradient7132"
       id="linearGradient7138"
       x1="472"
       y1="-47.512444"
       x2="472"
       y2="113.2215"
       gradientUnits="userSpaceOnUse"
       gradientTransform="translate(0,421)" />
    <filter
       inkscape:collect="always"
       id="filter7144">
      <feGaussianBlur
         inkscape:collect="always"
         stdDeviation="2.4"
         id="feGaussianBlur7146" />
    </filter>
    <inkscape:perspective
       sodipodi:type="inkscape:persp3d"
       inkscape:vp_x="-50 : 600 : 1"
       inkscape:vp_y="0 : 1000 : 0"
       inkscape:vp_z="700 : 600 : 1"
       inkscape:persp3d-origin="300 : 400 : 1"
       id="perspective10" />
    <radialGradient
       inkscape:collect="always"
       xlink:href="#linearGradient9026"
       id="radialGradient5852"
       gradientUnits="userSpaceOnUse"
       gradientTransform="matrix(0.5575867,0,0,0.5575867,67.846452,38.256946)"
       cx="154.76555"
       cy="79.415726"
       fx="154.76555"
       fy="79.415726"
       r="69.938171" />
    <linearGradient
       inkscape:collect="always"
       xlink:href="#linearGradient8721"
       id="linearGradient5876"
       gradientUnits="userSpaceOnUse"
       x1="276.63681"
       y1="487.02036"
       x2="525.97412"
       y2="487.02036" />
    <linearGradient
       inkscape:collect="always"
       xlink:href="#linearGradient8721"
       id="linearGradient5878"
       gradientUnits="userSpaceOnUse"
       x1="276.63681"
       y1="487.02036"
       x2="525.97412"
       y2="487.02036" />
    <linearGradient
       inkscape:collect="always"
       xlink:href="#linearGradient8721"
       id="linearGradient5880"
       gradientUnits="userSpaceOnUse"
       x1="276.63681"
       y1="487.02036"
       x2="525.97412"
       y2="487.02036" />
    <linearGradient
       inkscape:collect="always"
       xlink:href="#linearGradient8721"
       id="linearGradient5882"
       gradientUnits="userSpaceOnUse"
       x1="276.63681"
       y1="487.02036"
       x2="525.97412"
       y2="487.02036" />
    <linearGradient
       inkscape:collect="always"
       xlink:href="#linearGradient8721"
       id="linearGradient5884"
       gradientUnits="userSpaceOnUse"
       x1="276.63681"
       y1="487.02036"
       x2="525.97412"
       y2="487.02036" />
    <linearGradient
       inkscape:collect="always"
       xlink:href="#linearGradient8721"
       id="linearGradient5886"
       gradientUnits="userSpaceOnUse"
       x1="276.63681"
       y1="487.02036"
       x2="525.97412"
       y2="487.02036" />
    <linearGradient
       inkscape:collect="always"
       xlink:href="#linearGradient8721"
       id="linearGradient5888"
       gradientUnits="userSpaceOnUse"
       x1="276.63681"
       y1="487.02036"
       x2="525.97412"
       y2="487.02036" />
    <linearGradient
       inkscape:collect="always"
       xlink:href="#linearGradient8721"
       id="linearGradient5890"
       gradientUnits="userSpaceOnUse"
       x1="276.63681"
       y1="487.02036"
       x2="525.97412"
       y2="487.02036" />
    <linearGradient
       inkscape:collect="always"
       xlink:href="#linearGradient8721"
       id="linearGradient5892"
       gradientUnits="userSpaceOnUse"
       x1="276.63681"
       y1="487.02036"
       x2="525.97412"
       y2="487.02036" />
    <linearGradient
       inkscape:collect="always"
       xlink:href="#linearGradient8783"
       id="linearGradient5894"
       gradientUnits="userSpaceOnUse"
       x1="401.30548"
       y1="500.9314"
       x2="401.30548"
       y2="463.56079" />
    <filter
       inkscape:collect="always"
       id="filter6764"
       x="-0.1087833"
       width="1.2175666"
       y="-0.37785858"
       height="1.7557172">
      <feGaussianBlur
         inkscape:collect="always"
         stdDeviation="1.3923695"
         id="feGaussianBlur6766" />
    </filter>
    <filter
       inkscape:collect="always"
       id="filter6851"
       x="-0.034089694"
       width="1.0681794"
       y="-0.11345883"
       height="1.2269177">
      <feGaussianBlur
         inkscape:collect="always"
         stdDeviation="1.1611802"
         id="feGaussianBlur6853" />
    </filter>
  </defs>
  <sodipodi:namedview
     id="base"
     pagecolor="#ffffff"
     bordercolor="#e5e5e5"
     borderopacity="1"
     gridtolerance="10000"
     guidetolerance="10"
     objecttolerance="10"
     inkscape:pageopacity="0.0"
     inkscape:pageshadow="2"
     inkscape:zoom="1"
     inkscape:cx="-61.34748"
     inkscape:cy="64.272697"
     inkscape:document-units="px"
     inkscape:current-layer="layer1"
     showgrid="false"
     borderlayer="true"
     inkscape:showpageshadow="false"
     inkscape:window-width="973"
     inkscape:window-height="842"
     inkscape:window-x="382"
     inkscape:window-y="246">
    <inkscape:grid
       type="xygrid"
       id="grid6773"
       enabled="true"
       visible="true" />
  </sodipodi:namedview>
  <metadata
     id="metadata7">
    <rdf:RDF>
      <cc:Work
         rdf:about="">
        <dc:format>image/svg+xml</dc:format>
        <dc:type
           rdf:resource="http://purl.org/dc/dcmitype/StillImage" />
        <dc:title />
        <dc:date />
        <dc:creator>
          <cc:Agent>
            <dc:title />
          </cc:Agent>
        </dc:creator>
        <dc:rights>
          <cc:Agent>
            <dc:title />
          </cc:Agent>
        </dc:rights>
        <dc:publisher>
          <cc:Agent>
            <dc:title />
          </cc:Agent>
        </dc:publisher>
        <dc:identifier />
        <dc:source />
        <dc:relation />
        <dc:language />
        <dc:subject>
          <rdf:Bag />
        </dc:subject>
        <dc:coverage />
        <dc:description />
        <dc:contributor>
          <cc:Agent>
            <dc:title />
          </cc:Agent>
        </dc:contributor>
        <cc:license
           rdf:resource="" />
      </cc:Work>
    </rdf:RDF>
  </metadata>
  <g
     inkscape:label="Layer 1"
     inkscape:groupmode="layer"
     id="layer1">
    <rect
       style="opacity:1;fill:url(#radialGradient7164);fill-opacity:1;fill-rule:evenodd;stroke:none;stroke-width:1;stroke-linecap:butt;stroke-linejoin:miter;marker:none;marker-start:none;marker-mid:none;marker-end:none;stroke-miterlimit:4;stroke-dasharray:none;stroke-dashoffset:0;stroke-opacity:1;visibility:visible;display:inline;overflow:visible;filter:url(#filter9012);enable-background:accumulate"
       id="rect5337"
       width="190.25632"
       height="194.19492"
       x="-40.189178"
       y="-37.203472" />
    <g
       id="g9001"
       inkscape:label="Layer 1"
       transform="matrix(1.6028961,0,0,1.6013422,-154.87506,-86.634224)"
       style="opacity:0.10416667;fill:url(#radialGradient9022);fill-opacity:1;stroke:url(#radialGradient9032);stroke-width:0.62417334;stroke-miterlimit:4;stroke-dasharray:none;stroke-opacity:1;filter:url(#filter9012)">
      <path
         id="path2445"
         d="M 99.376129,33.27863 C 60.805449,33.27863 29.532379,64.548138 29.532379,103.1224 C 29.532379,141.69664 60.805451,172.96615 99.376129,172.96615 C 137.94681,172.96615 169.21987,141.69664 169.21988,103.1224 C 169.21988,64.54814 137.94681,33.27863 99.376129,33.27863 z M 99.710559,42.951282 C 132.94408,42.951282 159.90738,69.892425 159.90738,103.1224 C 159.90738,136.35593 132.94052,163.2935 99.710559,163.2935 C 81.765738,163.2935 65.663356,155.42877 54.640114,142.97064 C 59.172605,139.45289 66.755743,140.3111 76.094879,141.37568 C 80.570404,141.88483 85.672332,142.46727 90.938284,142.58476 C 105.65018,142.67021 121.47962,139.98516 131.24958,135.71615 C 137.56587,132.94609 141.60993,131.12188 144.13787,128.82181 C 145.04936,128.07411 145.52802,126.82502 146.01581,125.529 L 146.35023,124.65434 C 146.75969,123.60756 147.34729,121.35508 147.61076,120.12672 C 147.72826,119.58908 147.78593,119.01092 147.40496,118.71183 L 146.04153,118.96909 C 141.75471,121.53975 131.0444,126.43579 121.01097,126.63518 C 108.57778,126.89509 83.518876,114.11875 80.90548,112.76933 L 80.648228,112.46063 C 80.021584,110.96522 76.27146,102.06254 75.477476,100.18971 C 93.514865,112.0675 108.46934,118.64181 119.93052,119.66366 C 132.67348,120.7959 142.61352,113.83867 146.86473,110.86567 C 147.69433,110.29955 148.3284,109.85562 148.58832,109.75949 L 148.8713,109.29643 C 148.16632,104.81734 141.48057,83.142893 136.44605,77.93747 C 135.05034,76.509718 133.94069,75.12022 131.6869,73.795723 C 113.46437,63.174809 70.197447,56.778223 68.171536,56.482705 L 67.83711,56.585605 L 67.708484,56.868582 C 67.708484,56.868582 67.54621,65.853003 67.528408,66.849935 C 66.043686,66.358591 61.439923,64.851338 54.845915,63.042615 C 63.449648,52.396771 76.634948,42.951283 99.710559,42.951282 z M 115.60869,74.799003 C 115.91574,74.794395 116.2257,74.788766 116.5348,74.799003 C 126.74269,75.165732 134.76268,83.76346 134.41377,93.964231 C 134.23218,98.899056 132.15165,103.4586 128.54844,106.82682 C 124.93454,110.21284 120.23757,111.97772 115.27427,111.8175 C 105.08417,111.43653 97.064169,102.8388 97.395293,92.652249 C 97.569757,87.710301 99.661779,83.121485 103.28635,79.763955 C 106.67103,76.589564 111.00299,74.868122 115.60869,74.799003 z M 115.11991,80.252732 C 112.14698,80.433475 109.34149,81.640604 107.14512,83.699901 C 104.64211,86.049816 103.16519,89.231433 103.05482,92.677974 C 102.81983,99.798933 108.39195,105.79159 115.50579,106.05507 C 118.96301,106.16188 122.24246,104.95069 124.76684,102.60789 C 127.2841,100.24728 128.75033,97.036381 128.85714,93.604079 C 129.09569,86.472436 123.49785,80.501966 116.38045,80.252732 C 115.94963,80.23671 115.54462,80.226912 115.11991,80.252732 z M 118.51563,86.709742 C 121.67734,86.709742 124.22662,88.427863 124.22661,90.542787 C 124.22661,92.647035 121.67734,94.375831 118.51563,94.375833 C 115.34324,94.375833 112.77893,92.643468 112.77893,90.542787 C 112.77893,88.427865 115.34324,86.709744 118.51563,86.709742 z"
         style="font-size:20.48839951000000070px;fill:url(#radialGradient9024);fill-opacity:1;fill-rule:evenodd;stroke:url(#radialGradient5852);stroke-width:0.93626006;stroke-miterlimit:4;stroke-dasharray:none;stroke-opacity:1;font-family:TrebuchetMS-Bold" />
    </g>
    <g
       style="opacity:1"
       id="g8789"
       transform="matrix(0.6190553,0,0,0.6184552,-356.73277,-290.77008)">
      <rect
         style="opacity:0.5625;fill:#000000;fill-opacity:1;fill-rule:evenodd;stroke:none;stroke-width:1;stroke-linecap:butt;stroke-linejoin:miter;marker:none;marker-start:none;marker-mid:none;marker-end:none;stroke-miterlimit:4;stroke-dasharray:none;stroke-dashoffset:0;stroke-opacity:1;visibility:visible;display:inline;overflow:visible;filter:url(#filter7144);enable-background:accumulate"
         id="rect7142"
         width="843"
         height="117"
         x="-16"
         y="413" />
      <rect
         y="410"
         x="-16"
         height="117"
         width="843"
         id="rect7130"
         style="opacity:1;fill:url(#linearGradient7138);fill-opacity:1;fill-rule:evenodd;stroke:none;stroke-width:1;stroke-linecap:butt;stroke-linejoin:miter;marker:none;marker-start:none;marker-mid:none;marker-end:none;stroke-miterlimit:4;stroke-dasharray:none;stroke-dashoffset:0;stroke-opacity:1;visibility:visible;display:inline;overflow:visible;enable-background:accumulate" />
      <g
         id="g5854"
         transform="matrix(1.2316266,0,0,1.2316266,-234.41331,-97.667266)">
        <g
           transform="matrix(0.3796416,0,0,0.3796416,568.43703,307.17325)"
           id="g8747"
           style="fill:#000000;fill-opacity:1;display:inline;filter:url(#filter8779)">
          <path
             d="M 525.54912,468.81976 L 525.38699,468.81976 C 525.19961,468.81976 525.03715,468.6573 525.03715,468.46991 L 525.03715,465.95923 L 524.48744,466.79612 C 524.42506,466.88343 524.31251,466.92083 524.21273,466.92083 L 524.15005,466.92083 C 524.05027,466.92083 523.93771,466.88343 523.87536,466.79612 L 523.31315,465.95923 L 523.31315,468.46991 C 523.31315,468.6573 523.15069,468.81976 522.95083,468.81976 L 522.7887,468.81976 C 522.60132,468.81976 522.43886,468.6573 522.43886,468.46991 L 522.43886,465.47188 L 520.75226,465.47188 L 520.75226,468.46991 C 520.75226,468.6573 520.57732,468.81976 520.37779,468.81976 L 520.22781,468.81976 C 520.0404,468.81976 519.87797,468.6573 519.87797,468.46991 L 519.87797,465.47188 L 518.61637,465.47188 C 518.42899,465.47188 518.279,465.34681 518.279,465.14725 L 518.279,464.97235 C 518.279,464.77249 518.42899,464.64743 518.61637,464.64743 L 523.03843,464.64743 C 523.21337,464.64743 523.32563,464.70981 523.38831,464.80989 L 524.2252,466.07148 L 525.0621,464.80989 C 525.12445,464.72228 525.22453,464.64743 525.41194,464.64743 L 525.97415,464.64743 L 525.97415,468.49487 C 525.97415,468.68225 525.79921,468.84471 525.59935,468.84471"
             id="path8749"
             style="fill:#000000;fill-opacity:1;stroke:none" />
          <path
             d="M 380.95621,463.5608 C 374.91023,463.5608 371.56235,468.68225 371.56235,472.22999 L 371.56235,476.77712 C 371.56235,481.9862 375.82195,485.22153 379.78195,485.22153 L 393.64778,485.22153 C 395.38422,485.22153 395.74654,486.35806 395.74654,487.31999 L 395.74654,490.25568 C 395.74654,490.56779 395.69667,493.39122 393.64778,493.39122 L 374.72285,493.39122 C 372.84887,493.39122 371.48752,494.69022 371.48752,496.47656 L 371.48752,497.28854 C 371.48752,499.06241 372.83639,500.37421 374.72285,500.37421 L 394.68483,500.37421 C 399.89392,500.37421 403.26675,496.75128 403.26675,491.13 L 403.26675,486.22085 C 403.26675,480.94912 399.46925,478.58842 395.70914,478.58842 L 382.06812,478.58842 C 380.00676,478.58842 379.08256,477.06428 379.08256,475.96517 L 379.08256,473.26677 C 379.08256,471.55558 380.2191,470.58118 382.21778,470.58118 L 397.33303,470.58118 C 399.18176,470.58118 400.56835,469.25693 400.56835,467.49551 L 400.56835,466.68357 C 400.56835,464.93462 399.1568,463.5982 397.27068,463.5982 L 380.98116,463.5982"
             id="path8751"
             style="fill:#000000;fill-opacity:1;stroke:none" />
          <path
             d="M 437.70666,463.5608 C 435.92031,463.5608 434.47133,465.00978 434.47133,466.79612 L 434.47133,490.03086 C 434.47133,491.87956 432.9597,493.37875 431.12345,493.37875 L 420.58025,493.37875 C 418.73155,493.37875 417.23233,491.87956 417.23233,490.03086 L 417.23233,466.79612 C 417.23233,465.00978 415.79586,463.5608 413.99704,463.5608 L 412.97273,463.5608 C 411.17391,463.5608 409.7374,464.98482 409.7374,466.79612 L 409.7374,490.91763 C 409.7374,496.52647 414.14702,500.59899 420.2304,500.59899 L 431.49824,500.59899 C 437.58162,500.59899 441.99121,496.52647 441.99121,490.91763 L 441.99121,466.79612 C 441.99121,464.98482 440.56722,463.5608 438.75592,463.5608 L 437.73161,463.5608"
             id="path8753"
             style="fill:#000000;fill-opacity:1;stroke:none" />
          <path
             d="M 457.90593,463.5608 C 451.85998,463.5608 448.5121,468.68225 448.5121,472.22999 L 448.5121,476.77712 C 448.5121,481.9862 452.78418,485.22153 456.73167,485.22153 L 470.5975,485.22153 C 472.33397,485.22153 472.70877,486.35806 472.70877,487.31999 L 472.70877,490.25568 C 472.70877,490.56779 472.64641,493.39122 470.5975,493.39122 L 451.6726,493.39122 C 449.79862,493.39122 448.43727,494.69022 448.43727,496.47656 L 448.43727,497.28854 C 448.43727,499.06241 449.79862,500.37421 451.6726,500.37421 L 471.62211,500.37421 C 476.84367,500.37421 480.2037,496.75128 480.2037,491.13 L 480.2037,486.22085 C 480.2037,480.94912 476.419,478.58842 472.64641,478.58842 L 459.00507,478.58842 C 456.94403,478.58842 456.01983,477.06428 456.01983,475.96517 L 456.01983,473.26677 C 456.01983,471.55558 457.15637,470.58118 459.14257,470.58118 L 474.25782,470.58118 C 476.09408,470.58118 477.49318,469.25693 477.49318,467.49551 L 477.49318,466.68357 C 477.49318,464.93462 476.0816,463.5982 474.1827,463.5982 L 457.90593,463.5982"
             id="path8755"
             style="fill:#000000;fill-opacity:1;stroke:none" />
          <path
             d="M 489.79745,463.5608 C 488.0114,463.5608 486.63725,464.88471 486.63725,466.64614 L 486.63725,497.28854 C 486.63725,499.03745 487.9612,500.37421 489.7351,500.37421 L 514.15658,500.37421 C 516.03056,500.37421 517.39223,499.07488 517.39223,497.28854 L 517.39223,496.47656 C 517.39223,494.70269 516.04303,493.39122 514.15658,493.39122 C 514.15658,493.39122 495.05674,493.39122 494.15716,493.39122 C 494.15716,492.59175 494.15716,486.38331 494.15716,485.58385 C 495.05674,485.58385 508.81031,485.58385 508.81031,485.58385 C 510.68396,485.58385 512.04564,484.28452 512.04564,482.4857 L 512.04564,481.68623 C 512.04564,479.89989 510.68396,478.58842 508.81031,478.58842 C 508.81031,478.58842 495.05674,478.58842 494.15716,478.58842 C 494.15716,477.78895 494.15716,471.36817 494.15716,470.56871 C 495.05674,470.56871 513.14474,470.56871 513.14474,470.56871 C 515.01875,470.56871 516.3804,469.26938 516.3804,467.48303 L 516.3804,466.67109 C 516.3804,464.88471 515.01875,463.58575 513.14474,463.58575 L 489.81025,463.58575"
             id="path8757"
             style="fill:#000000;fill-opacity:1;stroke:none" />
          <path
             d="M 282.17071,478.13846 C 279.1227,478.13846 276.63682,480.51197 276.63682,483.44763 L 276.63682,495.00266 C 276.63682,497.97575 279.03525,500.39913 281.98335,500.39913 L 289.45345,500.39913 C 292.40152,500.39913 294.81243,497.97575 294.81243,495.00266 L 294.81243,483.44763 C 294.81243,480.52445 292.32658,478.13846 289.27854,478.13846 L 282.17071,478.13846 z M 280.55927,494.55271 L 280.55927,484.00984 C 280.55927,482.77289 281.5711,481.76106 282.8078,481.76106 L 288.629,481.76106 C 289.84072,481.76106 290.87751,482.78567 290.87751,484.00984 L 290.87751,494.55271 C 290.87751,495.78968 289.86568,496.80148 288.629,496.80148 L 282.75781,496.80148 C 281.52113,496.80148 280.55927,495.8146 280.55927,494.55271"
             id="path8759"
             style="fill:#000000;fill-opacity:1;stroke:none" />
          <path
             d="M 311.75149,478.00128 C 309.59034,478.00128 307.97884,478.77583 306.66719,479.40036 C 305.88023,479.77485 305.19317,480.09975 304.65604,480.09975 C 304.43119,480.09975 304.2188,479.99997 304.10636,479.82506 L 303.61919,478.87558 C 303.50676,478.62584 303.00708,478.13846 302.38252,478.13846 L 301.658,478.13846 C 300.95843,478.13846 300.38381,478.76335 300.38381,479.55001 L 300.38381,508.84354 C 300.38381,509.75526 301.09585,510.4799 302.02026,510.4799 L 302.65732,510.4799 C 303.55675,510.4799 304.29378,509.74279 304.29378,508.84354 L 304.29378,499.12476 C 304.29378,498.83759 304.48113,498.53763 304.65604,498.53763 C 305.19317,498.53763 305.88023,498.83759 306.6797,499.21239 C 307.97884,499.79952 309.60282,500.54878 311.76396,500.54878 L 312.4384,500.54878 C 316.24841,500.54878 318.62189,498.3755 318.62189,494.87763 L 318.62189,483.69739 C 318.62189,480.24973 316.1985,478.01376 312.4384,478.01376 L 311.75149,478.01376 L 311.75149,478.01376 L 311.75149,478.00128 z M 304.28127,494.3279 L 304.28127,484.24712 C 304.28127,482.86053 305.36808,481.77354 306.75465,481.77354 L 312.20111,481.77354 C 313.58774,481.77354 314.67437,482.86053 314.67437,484.24712 L 314.67437,494.3279 C 314.67437,495.68957 313.57526,496.80148 312.20111,496.80148 L 306.75465,496.80148 C 305.39306,496.80148 304.28127,495.68957 304.28127,494.3279"
             id="path8761"
             style="fill:#000000;fill-opacity:1;stroke:none" />
          <path
             d="M 329.68954,478.13846 C 326.6416,478.13846 324.15586,480.51197 324.15586,483.44763 L 324.15586,494.91503 C 324.15586,497.88814 326.56677,500.41161 329.41482,500.41161 L 337.12245,500.41161 C 338.07157,500.41161 338.75881,499.76179 338.75881,498.86255 L 338.75881,498.36269 C 338.75881,497.46344 338.07157,496.81396 337.12245,496.81396 L 330.80145,496.81396 C 329.02758,496.81396 328.09058,495.95181 328.09058,494.29047 C 328.09058,494.29047 328.09058,491.40502 328.09058,490.94259 C 328.60288,490.94259 339.5084,490.94259 339.5084,490.94259 C 341.33218,490.94259 342.43128,489.81853 342.43128,487.9196 L 342.43128,483.47261 C 342.43128,480.54937 339.94555,478.16374 336.89764,478.16374 L 329.70231,478.16374 L 329.68954,478.13846 z M 328.0781,483.95963 C 328.0781,482.73546 329.04003,481.76106 330.27667,481.76106 L 336.28522,481.76106 C 337.52217,481.76106 338.48379,482.72299 338.48379,483.95963 C 338.48379,483.95963 338.48379,487.07023 338.48379,487.53235 C 337.99674,487.53235 328.56548,487.53235 328.0781,487.53235 C 328.0781,487.07023 328.0781,483.95963 328.0781,483.95963"
             id="path8763"
             style="fill:#000000;fill-opacity:1;stroke:none" />
          <path
             d="M 358.32108,478.00128 C 356.17241,478.00128 354.5485,478.76335 353.2492,479.38791 C 352.43723,479.76238 351.73784,480.09975 351.17566,480.09975 C 350.9259,480.09975 350.82582,480.07479 350.63841,479.73743 L 350.18878,478.91301 C 349.93902,478.40103 349.50187,478.13846 348.90226,478.13846 L 348.26493,478.13846 C 347.50319,478.13846 346.95346,478.72559 346.95346,479.55001 L 346.95346,498.76244 C 346.95346,499.67449 347.6778,500.41161 348.58982,500.41161 L 349.22685,500.41161 C 350.12643,500.41161 350.86322,499.67449 350.86322,498.76244 L 350.86322,484.22217 C 350.86322,482.86053 351.97513,481.74858 353.3368,481.74858 L 358.78318,481.74858 C 360.14485,481.74858 361.25644,482.86053 361.25644,484.22217 L 361.25644,498.76244 C 361.25644,499.67449 361.98107,500.41161 362.89313,500.41161 L 363.53016,500.41161 C 364.42941,500.41161 365.16653,499.67449 365.16653,498.76244 L 365.16653,483.68492 C 365.16653,480.23725 362.74314,478.00128 358.98304,478.00128 L 358.29613,478.00128"
             id="path8765"
             style="fill:#000000;fill-opacity:1;stroke:none" />
        </g>
        <g
           style="fill:url(#linearGradient5894);fill-opacity:1;display:inline"
           id="g5501"
           transform="matrix(0.3796416,0,0,0.3796416,568.43703,305.17325)">
          <path
             style="fill:url(#linearGradient5876);fill-opacity:1;stroke:none"
             id="path2095"
             d="M 525.54912,468.81976 L 525.38699,468.81976 C 525.19961,468.81976 525.03715,468.6573 525.03715,468.46991 L 525.03715,465.95923 L 524.48744,466.79612 C 524.42506,466.88343 524.31251,466.92083 524.21273,466.92083 L 524.15005,466.92083 C 524.05027,466.92083 523.93771,466.88343 523.87536,466.79612 L 523.31315,465.95923 L 523.31315,468.46991 C 523.31315,468.6573 523.15069,468.81976 522.95083,468.81976 L 522.7887,468.81976 C 522.60132,468.81976 522.43886,468.6573 522.43886,468.46991 L 522.43886,465.47188 L 520.75226,465.47188 L 520.75226,468.46991 C 520.75226,468.6573 520.57732,468.81976 520.37779,468.81976 L 520.22781,468.81976 C 520.0404,468.81976 519.87797,468.6573 519.87797,468.46991 L 519.87797,465.47188 L 518.61637,465.47188 C 518.42899,465.47188 518.279,465.34681 518.279,465.14725 L 518.279,464.97235 C 518.279,464.77249 518.42899,464.64743 518.61637,464.64743 L 523.03843,464.64743 C 523.21337,464.64743 523.32563,464.70981 523.38831,464.80989 L 524.2252,466.07148 L 525.0621,464.80989 C 525.12445,464.72228 525.22453,464.64743 525.41194,464.64743 L 525.97415,464.64743 L 525.97415,468.49487 C 525.97415,468.68225 525.79921,468.84471 525.59935,468.84471" />
          <path
             style="fill:url(#linearGradient5878);fill-opacity:1;stroke:none"
             id="path2097"
             d="M 380.95621,463.5608 C 374.91023,463.5608 371.56235,468.68225 371.56235,472.22999 L 371.56235,476.77712 C 371.56235,481.9862 375.82195,485.22153 379.78195,485.22153 L 393.64778,485.22153 C 395.38422,485.22153 395.74654,486.35806 395.74654,487.31999 L 395.74654,490.25568 C 395.74654,490.56779 395.69667,493.39122 393.64778,493.39122 L 374.72285,493.39122 C 372.84887,493.39122 371.48752,494.69022 371.48752,496.47656 L 371.48752,497.28854 C 371.48752,499.06241 372.83639,500.37421 374.72285,500.37421 L 394.68483,500.37421 C 399.89392,500.37421 403.26675,496.75128 403.26675,491.13 L 403.26675,486.22085 C 403.26675,480.94912 399.46925,478.58842 395.70914,478.58842 L 382.06812,478.58842 C 380.00676,478.58842 379.08256,477.06428 379.08256,475.96517 L 379.08256,473.26677 C 379.08256,471.55558 380.2191,470.58118 382.21778,470.58118 L 397.33303,470.58118 C 399.18176,470.58118 400.56835,469.25693 400.56835,467.49551 L 400.56835,466.68357 C 400.56835,464.93462 399.1568,463.5982 397.27068,463.5982 L 380.98116,463.5982" />
          <path
             style="fill:url(#linearGradient5880);fill-opacity:1;stroke:none"
             id="path2099"
             d="M 437.70666,463.5608 C 435.92031,463.5608 434.47133,465.00978 434.47133,466.79612 L 434.47133,490.03086 C 434.47133,491.87956 432.9597,493.37875 431.12345,493.37875 L 420.58025,493.37875 C 418.73155,493.37875 417.23233,491.87956 417.23233,490.03086 L 417.23233,466.79612 C 417.23233,465.00978 415.79586,463.5608 413.99704,463.5608 L 412.97273,463.5608 C 411.17391,463.5608 409.7374,464.98482 409.7374,466.79612 L 409.7374,490.91763 C 409.7374,496.52647 414.14702,500.59899 420.2304,500.59899 L 431.49824,500.59899 C 437.58162,500.59899 441.99121,496.52647 441.99121,490.91763 L 441.99121,466.79612 C 441.99121,464.98482 440.56722,463.5608 438.75592,463.5608 L 437.73161,463.5608" />
          <path
             style="fill:url(#linearGradient5882);fill-opacity:1;stroke:none"
             id="path2101"
             d="M 457.90593,463.5608 C 451.85998,463.5608 448.5121,468.68225 448.5121,472.22999 L 448.5121,476.77712 C 448.5121,481.9862 452.78418,485.22153 456.73167,485.22153 L 470.5975,485.22153 C 472.33397,485.22153 472.70877,486.35806 472.70877,487.31999 L 472.70877,490.25568 C 472.70877,490.56779 472.64641,493.39122 470.5975,493.39122 L 451.6726,493.39122 C 449.79862,493.39122 448.43727,494.69022 448.43727,496.47656 L 448.43727,497.28854 C 448.43727,499.06241 449.79862,500.37421 451.6726,500.37421 L 471.62211,500.37421 C 476.84367,500.37421 480.2037,496.75128 480.2037,491.13 L 480.2037,486.22085 C 480.2037,480.94912 476.419,478.58842 472.64641,478.58842 L 459.00507,478.58842 C 456.94403,478.58842 456.01983,477.06428 456.01983,475.96517 L 456.01983,473.26677 C 456.01983,471.55558 457.15637,470.58118 459.14257,470.58118 L 474.25782,470.58118 C 476.09408,470.58118 477.49318,469.25693 477.49318,467.49551 L 477.49318,466.68357 C 477.49318,464.93462 476.0816,463.5982 474.1827,463.5982 L 457.90593,463.5982" />
          <path
             style="fill:url(#linearGradient5884);fill-opacity:1;stroke:none"
             id="path2103"
             d="M 489.79745,463.5608 C 488.0114,463.5608 486.63725,464.88471 486.63725,466.64614 L 486.63725,497.28854 C 486.63725,499.03745 487.9612,500.37421 489.7351,500.37421 L 514.15658,500.37421 C 516.03056,500.37421 517.39223,499.07488 517.39223,497.28854 L 517.39223,496.47656 C 517.39223,494.70269 516.04303,493.39122 514.15658,493.39122 C 514.15658,493.39122 495.05674,493.39122 494.15716,493.39122 C 494.15716,492.59175 494.15716,486.38331 494.15716,485.58385 C 495.05674,485.58385 508.81031,485.58385 508.81031,485.58385 C 510.68396,485.58385 512.04564,484.28452 512.04564,482.4857 L 512.04564,481.68623 C 512.04564,479.89989 510.68396,478.58842 508.81031,478.58842 C 508.81031,478.58842 495.05674,478.58842 494.15716,478.58842 C 494.15716,477.78895 494.15716,471.36817 494.15716,470.56871 C 495.05674,470.56871 513.14474,470.56871 513.14474,470.56871 C 515.01875,470.56871 516.3804,469.26938 516.3804,467.48303 L 516.3804,466.67109 C 516.3804,464.88471 515.01875,463.58575 513.14474,463.58575 L 489.81025,463.58575" />
          <path
             style="fill:url(#linearGradient5886);fill-opacity:1;stroke:none"
             id="path2105"
             d="M 282.17071,478.13846 C 279.1227,478.13846 276.63682,480.51197 276.63682,483.44763 L 276.63682,495.00266 C 276.63682,497.97575 279.03525,500.39913 281.98335,500.39913 L 289.45345,500.39913 C 292.40152,500.39913 294.81243,497.97575 294.81243,495.00266 L 294.81243,483.44763 C 294.81243,480.52445 292.32658,478.13846 289.27854,478.13846 L 282.17071,478.13846 z M 280.55927,494.55271 L 280.55927,484.00984 C 280.55927,482.77289 281.5711,481.76106 282.8078,481.76106 L 288.629,481.76106 C 289.84072,481.76106 290.87751,482.78567 290.87751,484.00984 L 290.87751,494.55271 C 290.87751,495.78968 289.86568,496.80148 288.629,496.80148 L 282.75781,496.80148 C 281.52113,496.80148 280.55927,495.8146 280.55927,494.55271" />
          <path
             style="fill:url(#linearGradient5888);fill-opacity:1;stroke:none"
             id="path2107"
             d="M 311.75149,478.00128 C 309.59034,478.00128 307.97884,478.77583 306.66719,479.40036 C 305.88023,479.77485 305.19317,480.09975 304.65604,480.09975 C 304.43119,480.09975 304.2188,479.99997 304.10636,479.82506 L 303.61919,478.87558 C 303.50676,478.62584 303.00708,478.13846 302.38252,478.13846 L 301.658,478.13846 C 300.95843,478.13846 300.38381,478.76335 300.38381,479.55001 L 300.38381,508.84354 C 300.38381,509.75526 301.09585,510.4799 302.02026,510.4799 L 302.65732,510.4799 C 303.55675,510.4799 304.29378,509.74279 304.29378,508.84354 L 304.29378,499.12476 C 304.29378,498.83759 304.48113,498.53763 304.65604,498.53763 C 305.19317,498.53763 305.88023,498.83759 306.6797,499.21239 C 307.97884,499.79952 309.60282,500.54878 311.76396,500.54878 L 312.4384,500.54878 C 316.24841,500.54878 318.62189,498.3755 318.62189,494.87763 L 318.62189,483.69739 C 318.62189,480.24973 316.1985,478.01376 312.4384,478.01376 L 311.75149,478.01376 L 311.75149,478.01376 L 311.75149,478.00128 z M 304.28127,494.3279 L 304.28127,484.24712 C 304.28127,482.86053 305.36808,481.77354 306.75465,481.77354 L 312.20111,481.77354 C 313.58774,481.77354 314.67437,482.86053 314.67437,484.24712 L 314.67437,494.3279 C 314.67437,495.68957 313.57526,496.80148 312.20111,496.80148 L 306.75465,496.80148 C 305.39306,496.80148 304.28127,495.68957 304.28127,494.3279" />
          <path
             style="fill:url(#linearGradient5890);fill-opacity:1;stroke:none"
             id="path2109"
             d="M 329.68954,478.13846 C 326.6416,478.13846 324.15586,480.51197 324.15586,483.44763 L 324.15586,494.91503 C 324.15586,497.88814 326.56677,500.41161 329.41482,500.41161 L 337.12245,500.41161 C 338.07157,500.41161 338.75881,499.76179 338.75881,498.86255 L 338.75881,498.36269 C 338.75881,497.46344 338.07157,496.81396 337.12245,496.81396 L 330.80145,496.81396 C 329.02758,496.81396 328.09058,495.95181 328.09058,494.29047 C 328.09058,494.29047 328.09058,491.40502 328.09058,490.94259 C 328.60288,490.94259 339.5084,490.94259 339.5084,490.94259 C 341.33218,490.94259 342.43128,489.81853 342.43128,487.9196 L 342.43128,483.47261 C 342.43128,480.54937 339.94555,478.16374 336.89764,478.16374 L 329.70231,478.16374 L 329.68954,478.13846 z M 328.0781,483.95963 C 328.0781,482.73546 329.04003,481.76106 330.27667,481.76106 L 336.28522,481.76106 C 337.52217,481.76106 338.48379,482.72299 338.48379,483.95963 C 338.48379,483.95963 338.48379,487.07023 338.48379,487.53235 C 337.99674,487.53235 328.56548,487.53235 328.0781,487.53235 C 328.0781,487.07023 328.0781,483.95963 328.0781,483.95963" />
          <path
             style="fill:url(#linearGradient5892);fill-opacity:1;stroke:none"
             id="path2111"
             d="M 358.32108,478.00128 C 356.17241,478.00128 354.5485,478.76335 353.2492,479.38791 C 352.43723,479.76238 351.73784,480.09975 351.17566,480.09975 C 350.9259,480.09975 350.82582,480.07479 350.63841,479.73743 L 350.18878,478.91301 C 349.93902,478.40103 349.50187,478.13846 348.90226,478.13846 L 348.26493,478.13846 C 347.50319,478.13846 346.95346,478.72559 346.95346,479.55001 L 346.95346,498.76244 C 346.95346,499.67449 347.6778,500.41161 348.58982,500.41161 L 349.22685,500.41161 C 350.12643,500.41161 350.86322,499.67449 350.86322,498.76244 L 350.86322,484.22217 C 350.86322,482.86053 351.97513,481.74858 353.3368,481.74858 L 358.78318,481.74858 C 360.14485,481.74858 361.25644,482.86053 361.25644,484.22217 L 361.25644,498.76244 C 361.25644,499.67449 361.98107,500.41161 362.89313,500.41161 L 363.53016,500.41161 C 364.42941,500.41161 365.16653,499.67449 365.16653,498.76244 L 365.16653,483.68492 C 365.16653,480.23725 362.74314,478.00128 358.98304,478.00128 L 358.29613,478.00128" />
        </g>
      </g>
      <path
         id="path7148"
         d="M -1,525.5 L 815,525.5"
         style="opacity:0.375;fill:none;fill-opacity:1;fill-rule:evenodd;stroke:url(#radialGradient7156);stroke-width:1.61614823;stroke-linecap:butt;stroke-linejoin:miter;marker:none;marker-start:none;marker-mid:none;marker-end:none;stroke-miterlimit:4;stroke-dasharray:none;stroke-dashoffset:0;stroke-opacity:1;visibility:visible;display:inline;overflow:visible;enable-background:accumulate" />
      <path
         style="opacity:0.47395833;fill:none;fill-opacity:1;fill-rule:evenodd;stroke:url(#radialGradient8683);stroke-width:3.23229647;stroke-linecap:butt;stroke-linejoin:miter;marker:none;marker-start:none;marker-mid:none;marker-end:none;stroke-miterlimit:4;stroke-dasharray:none;stroke-dashoffset:0;stroke-opacity:1;visibility:visible;display:inline;overflow:visible;enable-background:accumulate"
         d="M -1,412.5 L 815,412.5"
         id="path8679" />
      <g
         id="g6768"
         transform="matrix(1.8943585,0,0,1.8943585,-682.38687,-425.79018)">
        <path
           transform="matrix(0.9769813,0,0,0.9769813,-3.7547751,25.745184)"
           d="M 764.84375,472.46875 C 764.73205,472.46875 764.61168,472.50046 764.5,472.5625 C 764.38833,472.61216 764.31204,472.67555 764.25,472.75 L 762.1875,475 C 762.00136,475.19855 761.90625,475.41405 761.90625,475.625 C 761.90627,475.79873 761.95081,475.93841 762.0625,476.0625 C 762.1866,476.1742 762.32627,476.21876 762.5,476.21875 C 762.5993,476.21875 762.71322,476.21232 762.8125,476.1875 C 762.91177,476.16269 763.03215,476.11812 763.15625,476.03125 L 764.125,475.375 L 764.125,480.5625 C 764.12499,480.77347 764.17599,480.94484 764.3125,481.09375 C 764.44897,481.23024 764.63279,481.3125 764.84375,481.3125 L 765.28125,481.3125 C 765.49221,481.3125 765.67599,481.23025 765.8125,481.09375 C 765.96142,480.94483 766.03124,480.77346 766.03125,480.5625 L 766.03125,473.21875 C 766.03124,473.00781 765.96141,472.85526 765.8125,472.71875 C 765.67601,472.56984 765.4922,472.46876 765.28125,472.46875 L 764.84375,472.46875 z M 771.875,472.46875 C 771.76332,472.46875 771.67418,472.50046 771.5625,472.5625 C 771.45079,472.61216 771.34329,472.67555 771.28125,472.75 L 769.21875,475 C 769.03263,475.19855 768.9375,475.41405 768.9375,475.625 C 768.93748,475.79873 768.98206,475.93841 769.09375,476.0625 C 769.21787,476.1742 769.38877,476.21876 769.5625,476.21875 C 769.66176,476.21875 769.74447,476.21232 769.84375,476.1875 C 769.94304,476.16269 770.0634,476.11812 770.1875,476.03125 L 771.15625,475.375 L 771.15625,480.5625 C 771.15626,480.77347 771.23849,480.94484 771.375,481.09375 C 771.51149,481.23024 771.66404,481.3125 771.875,481.3125 L 772.34375,481.3125 C 772.55473,481.3125 772.70724,481.23025 772.84375,481.09375 C 772.99263,480.94483 773.06249,480.77346 773.0625,480.5625 L 773.0625,473.21875 C 773.06251,473.00781 772.99266,472.85526 772.84375,472.71875 C 772.70722,472.56984 772.5547,472.46876 772.34375,472.46875 L 771.875,472.46875 z M 781.625,472.46875 C 781.30238,472.46875 781.00416,472.53217 780.71875,472.65625 C 780.44574,472.78035 780.21096,472.97655 780,473.1875 C 779.78904,473.39848 779.62409,473.62084 779.5,473.90625 C 779.37589,474.17927 779.3125,474.48987 779.3125,474.8125 L 779.3125,478.96875 C 779.3125,479.2914 779.37591,479.62084 779.5,479.90625 C 779.62408,480.17927 779.78904,480.41404 780,480.625 C 780.21096,480.83596 780.44574,481.00091 780.71875,481.125 C 781.00415,481.24908 781.30236,481.3125 781.625,481.3125 L 784.5,481.3125 C 784.82263,481.3125 785.13324,481.24909 785.40625,481.125 C 785.69163,481.00089 785.94528,480.83596 786.15625,480.625 C 786.36722,480.41405 786.53215,480.17926 786.65625,479.90625 C 786.78031,479.62085 786.84374,479.29139 786.84375,478.96875 L 786.84375,474.8125 C 786.84376,474.48988 786.78033,474.17926 786.65625,473.90625 C 786.53212,473.62085 786.3672,473.39847 786.15625,473.1875 C 785.94531,472.97656 785.69166,472.78035 785.40625,472.65625 C 785.13321,472.53217 784.82264,472.46876 784.5,472.46875 L 781.625,472.46875 z M 782.0625,474.1875 L 784.09375,474.1875 C 784.3295,474.18751 784.52617,474.27619 784.6875,474.4375 C 784.84879,474.59884 784.90624,474.79548 784.90625,475.03125 L 784.90625,478.75 C 784.90626,478.98578 784.84881,479.18243 784.6875,479.34375 C 784.52615,479.50508 784.32952,479.59375 784.09375,479.59375 L 782.0625,479.59375 C 781.82671,479.59376 781.63007,479.50507 781.46875,479.34375 C 781.30741,479.18243 781.21875,478.98578 781.21875,478.75 L 781.21875,475.03125 C 781.21875,474.79547 781.30743,474.59883 781.46875,474.4375 C 781.63005,474.2762 781.82672,474.18751 782.0625,474.1875 z M 775.65625,478.5625 C 775.44529,478.56249 775.24266,478.63234 775.09375,478.78125 C 774.95724,478.91775 774.90625,479.10154 774.90625,479.3125 L 774.90625,480.5625 C 774.90626,480.77347 774.95725,480.94484 775.09375,481.09375 C 775.24265,481.23024 775.44529,481.3125 775.65625,481.3125 L 776.375,481.3125 C 776.58595,481.3125 776.76974,481.23025 776.90625,481.09375 C 777.05516,480.94483 777.125,480.77346 777.125,480.5625 L 777.125,479.3125 C 777.12498,479.10155 777.05516,478.91775 776.90625,478.78125 C 776.76975,478.63234 776.58596,478.5625 776.375,478.5625 L 775.65625,478.5625 z"
           inkscape:href="#text5896"
           id="path6670"
           style="font-size:18.61394501px;font-style:normal;font-variant:normal;font-weight:bold;font-stretch:normal;text-indent:0;text-align:start;text-decoration:none;line-height:100%;letter-spacing:normal;word-spacing:normal;text-transform:none;direction:ltr;block-progression:tb;writing-mode:lr-tb;text-anchor:start;opacity:1;fill:#000000;fill-opacity:1;fill-rule:nonzero;stroke:none;stroke-width:1px;stroke-linecap:butt;stroke-linejoin:miter;marker:none;marker-start:none;marker-mid:none;marker-end:none;stroke-miterlimit:4;stroke-dasharray:none;stroke-dashoffset:0;stroke-opacity:1;visibility:visible;display:inline;overflow:visible;filter:url(#filter6764);enable-background:accumulate;font-family:ChollaWideBoldOS;-inkscape-font-specification:ChollaWideBoldOS Bold"
           xlink:href="#text5896"
           inkscape:original="M 764.84375 472.46875 C 764.73205 472.46875 764.61168 472.50046 764.5 472.5625 C 764.38833 472.61216 764.31204 472.67555 764.25 472.75 L 762.1875 475 C 762.00136 475.19855 761.90625 475.41405 761.90625 475.625 C 761.90627 475.79873 761.95081 475.93841 762.0625 476.0625 C 762.1866 476.1742 762.32627 476.21876 762.5 476.21875 C 762.5993 476.21875 762.71322 476.21232 762.8125 476.1875 C 762.91177 476.16269 763.03215 476.11812 763.15625 476.03125 L 764.125 475.375 L 764.125 480.5625 C 764.12499 480.77347 764.17599 480.94484 764.3125 481.09375 C 764.44897 481.23024 764.63279 481.3125 764.84375 481.3125 L 765.28125 481.3125 C 765.49221 481.3125 765.67599 481.23025 765.8125 481.09375 C 765.96142 480.94483 766.03124 480.77346 766.03125 480.5625 L 766.03125 473.21875 C 766.03124 473.00781 765.96141 472.85526 765.8125 472.71875 C 765.67601 472.56984 765.4922 472.46876 765.28125 472.46875 L 764.84375 472.46875 z M 771.875 472.46875 C 771.76332 472.46875 771.67418 472.50046 771.5625 472.5625 C 771.45079 472.61216 771.34329 472.67555 771.28125 472.75 L 769.21875 475 C 769.03263 475.19855 768.9375 475.41405 768.9375 475.625 C 768.93748 475.79873 768.98206 475.93841 769.09375 476.0625 C 769.21787 476.1742 769.38877 476.21876 769.5625 476.21875 C 769.66176 476.21875 769.74447 476.21232 769.84375 476.1875 C 769.94304 476.16269 770.0634 476.11812 770.1875 476.03125 L 771.15625 475.375 L 771.15625 480.5625 C 771.15626 480.77347 771.23849 480.94484 771.375 481.09375 C 771.51149 481.23024 771.66404 481.3125 771.875 481.3125 L 772.34375 481.3125 C 772.55473 481.3125 772.70724 481.23025 772.84375 481.09375 C 772.99263 480.94483 773.06249 480.77346 773.0625 480.5625 L 773.0625 473.21875 C 773.06251 473.00781 772.99266 472.85526 772.84375 472.71875 C 772.70722 472.56984 772.5547 472.46876 772.34375 472.46875 L 771.875 472.46875 z M 781.625 472.46875 C 781.30238 472.46875 781.00416 472.53217 780.71875 472.65625 C 780.44574 472.78035 780.21096 472.97655 780 473.1875 C 779.78904 473.39848 779.62409 473.62084 779.5 473.90625 C 779.37589 474.17927 779.3125 474.48987 779.3125 474.8125 L 779.3125 478.96875 C 779.3125 479.2914 779.37591 479.62084 779.5 479.90625 C 779.62408 480.17927 779.78904 480.41404 780 480.625 C 780.21096 480.83596 780.44574 481.00091 780.71875 481.125 C 781.00415 481.24908 781.30236 481.3125 781.625 481.3125 L 784.5 481.3125 C 784.82263 481.3125 785.13324 481.24909 785.40625 481.125 C 785.69163 481.00089 785.94528 480.83596 786.15625 480.625 C 786.36722 480.41405 786.53215 480.17926 786.65625 479.90625 C 786.78031 479.62085 786.84374 479.29139 786.84375 478.96875 L 786.84375 474.8125 C 786.84376 474.48988 786.78033 474.17926 786.65625 473.90625 C 786.53212 473.62085 786.3672 473.39847 786.15625 473.1875 C 785.94531 472.97656 785.69166 472.78035 785.40625 472.65625 C 785.13321 472.53217 784.82264 472.46876 784.5 472.46875 L 781.625 472.46875 z M 782.0625 474.1875 L 784.09375 474.1875 C 784.3295 474.18751 784.52617 474.27619 784.6875 474.4375 C 784.84879 474.59884 784.90624 474.79548 784.90625 475.03125 L 784.90625 478.75 C 784.90626 478.98578 784.84881 479.18243 784.6875 479.34375 C 784.52615 479.50508 784.32952 479.59375 784.09375 479.59375 L 782.0625 479.59375 C 781.82671 479.59376 781.63007 479.50507 781.46875 479.34375 C 781.30741 479.18243 781.21875 478.98578 781.21875 478.75 L 781.21875 475.03125 C 781.21875 474.79547 781.30743 474.59883 781.46875 474.4375 C 781.63005 474.2762 781.82672 474.18751 782.0625 474.1875 z M 775.65625 478.5625 C 775.44529 478.56249 775.24266 478.63234 775.09375 478.78125 C 774.95724 478.91775 774.90625 479.10154 774.90625 479.3125 L 774.90625 480.5625 C 774.90626 480.77347 774.95725 480.94484 775.09375 481.09375 C 775.24265 481.23024 775.44529 481.3125 775.65625 481.3125 L 776.375 481.3125 C 776.58595 481.3125 776.76974 481.23025 776.90625 481.09375 C 777.05516 480.94483 777.125 480.77346 777.125 480.5625 L 777.125 479.3125 C 777.12498 479.10155 777.05516 478.91775 776.90625 478.78125 C 776.76975 478.63234 776.58596 478.5625 776.375 478.5625 L 775.65625 478.5625 z "
           inkscape:radius="0"
           sodipodi:type="inkscape:offset" />
        <text
           transform="scale(0.9722646,1.0285266)"
           sodipodi:linespacing="100%"
           id="text5896"
           y="481.30707"
           x="760.24097"
           style="font-size:18.61394501px;font-style:normal;font-variant:normal;font-weight:bold;font-stretch:normal;text-indent:0;text-align:start;text-decoration:none;line-height:100%;letter-spacing:normal;word-spacing:normal;text-transform:none;direction:ltr;block-progression:tb;writing-mode:lr-tb;text-anchor:start;opacity:1;fill:#ffffff;fill-opacity:1;fill-rule:nonzero;stroke:none;stroke-width:1px;stroke-linecap:butt;stroke-linejoin:miter;marker:none;marker-start:none;marker-mid:none;marker-end:none;stroke-miterlimit:4;stroke-dasharray:none;stroke-dashoffset:0;stroke-opacity:1;visibility:visible;display:inline;overflow:visible;enable-background:accumulate;font-family:ChollaWideBoldOS;-inkscape-font-specification:ChollaWideBoldOS Bold"
           xml:space="preserve"><tspan
             style="font-size:18.61394501px;font-style:normal;font-variant:normal;font-weight:bold;font-stretch:normal;text-align:start;line-height:100%;writing-mode:lr-tb;text-anchor:start;fill:#ffffff;fill-opacity:1;stroke:none;stroke-width:1;font-family:ChollaWideBoldOS;-inkscape-font-specification:ChollaWideBoldOS Bold"
             y="481.30707"
             x="760.24097"
             id="tspan5898"
             sodipodi:role="line"
             dx="0 -2.6268671 -3.1522405">11.0</tspan></text>
      </g>
    </g>
    <path
       sodipodi:type="inkscape:offset"
       inkscape:radius="0"
       inkscape:original="M 27.5 67.71875 C 27.183128 67.718768 26.91117 67.838846 26.6875 68.0625 C 26.482463 68.26755 26.406248 68.526899 26.40625 68.84375 L 26.40625 85.78125 C 26.406247 86.004926 26.330584 86.257688 26.21875 86.5 C 26.125551 86.74231 26.024113 86.925995 25.875 87.09375 L 24.34375 88.96875 C 24.194635 89.15514 24.125 89.395296 24.125 89.65625 C 24.125001 89.898562 24.257688 90.132684 24.5 90.375 L 24.625 90.5 C 24.830033 90.705027 25.082798 90.793303 25.34375 90.71875 C 25.623339 90.66283 25.857465 90.53014 26.0625 90.34375 L 28.4375 88.09375 C 28.773005 87.776879 28.981909 87.416648 29.09375 87.0625 C 29.205581 86.708355 29.281245 86.366759 29.28125 86.03125 L 29.28125 68.84375 C 29.281244 68.526899 29.161167 68.267552 28.9375 68.0625 C 28.732463 67.838844 28.473115 67.718769 28.15625 67.71875 L 27.5 67.71875 z M 55.40625 73.28125 C 54.940257 73.281261 54.491198 73.350898 54.0625 73.5 C 53.652427 73.630489 53.260392 73.813619 52.90625 74 C 52.552095 74.167767 52.260946 74.319647 52 74.46875 C 51.739042 74.599239 51.5115 74.656262 51.34375 74.65625 C 51.17599 74.65626 51.036721 74.561406 50.90625 74.375 L 50.1875 73.375 L 49.25 73.375 C 48.877209 73.375011 48.617863 73.507701 48.46875 73.75 C 48.319634 73.992326 48.249998 74.201229 48.25 74.40625 L 48.25 85.5 C 48.249998 85.81687 48.357465 86.088828 48.5625 86.3125 C 48.786171 86.517532 49.058128 86.625 49.375 86.625 L 50 86.625 C 50.316866 86.625 50.576213 86.517533 50.78125 86.3125 C 51.004916 86.088827 51.124995 85.81687 51.125 85.5 L 51.125 77.21875 C 51.124996 76.864612 51.257683 76.554822 51.5 76.3125 C 51.742308 76.0702 52.020846 75.937511 52.375 75.9375 L 55.6875 75.9375 C 56.041639 75.937509 56.320178 76.070199 56.5625 76.3125 C 56.804801 76.554824 56.93749 76.864611 56.9375 77.21875 L 56.9375 85.5 C 56.937488 85.81687 57.044956 86.088828 57.25 86.3125 C 57.473662 86.517532 57.745619 86.625 58.0625 86.625 L 58.6875 86.625 C 59.004357 86.625 59.294954 86.517533 59.5 86.3125 C 59.723661 86.088827 59.812487 85.81687 59.8125 85.5 L 59.8125 77.03125 C 59.812487 75.950178 59.496116 75.052058 58.84375 74.34375 C 58.210001 73.635463 57.191804 73.281263 55.8125 73.28125 L 55.40625 73.28125 z M 34.46875 73.375 C 34.151877 73.375011 33.87992 73.495091 33.65625 73.71875 C 33.451215 73.923792 33.343748 74.183143 33.34375 74.5 L 33.34375 83 C 33.343747 84.081088 33.647509 84.979205 34.28125 85.6875 C 34.933625 86.377156 35.964431 86.71875 37.34375 86.71875 L 37.75 86.71875 C 38.234617 86.71875 38.683676 86.630476 39.09375 86.5 C 39.503807 86.350888 39.883233 86.211616 40.21875 86.0625 C 40.572888 85.894746 40.864039 85.755477 41.125 85.625 C 41.385941 85.475882 41.613486 85.406251 41.78125 85.40625 C 41.874436 85.406253 41.956682 85.400222 42.03125 85.4375 C 42.124435 85.456137 42.194071 85.531804 42.25 85.625 L 42.96875 86.625 L 43.90625 86.625 C 44.279025 86.625 44.538372 86.492312 44.6875 86.25 C 44.8366 86.007685 44.906237 85.798784 44.90625 85.59375 L 44.90625 74.5 C 44.906237 74.183141 44.786159 73.923796 44.5625 73.71875 C 44.357455 73.495087 44.098107 73.375013 43.78125 73.375 L 43.15625 73.375 C 42.839368 73.375011 42.567412 73.495091 42.34375 73.71875 C 42.138706 73.923792 42.03124 74.183143 42.03125 74.5 L 42.03125 82.78125 C 42.031238 83.135399 41.898552 83.445191 41.65625 83.6875 C 41.413927 83.929818 41.135389 84.062503 40.78125 84.0625 L 37.46875 84.0625 C 37.114595 84.062502 36.836057 83.929815 36.59375 83.6875 C 36.351434 83.445195 36.218745 83.135402 36.21875 82.78125 L 36.21875 74.5 C 36.218746 74.183141 36.098668 73.923796 35.875 73.71875 C 35.669964 73.495087 35.410616 73.375013 35.09375 73.375 L 34.46875 73.375 z M 66.65625 73.375 C 66.171621 73.375011 65.709952 73.469869 65.28125 73.65625 C 64.87118 73.824019 64.504367 74.058143 64.1875 74.375 C 63.870625 74.691883 63.623892 75.071306 63.4375 75.5 C 63.251104 75.928719 63.156248 76.390386 63.15625 76.875 L 63.15625 83.125 C 63.156248 83.60963 63.251104 84.071297 63.4375 84.5 C 63.623891 84.928711 63.870628 85.308132 64.1875 85.625 C 64.504363 85.941867 64.87118 86.188607 65.28125 86.375 C 65.709952 86.542756 66.171621 86.625 66.65625 86.625 L 71.6875 86.625 C 72.004362 86.625 72.263706 86.542755 72.46875 86.375 C 72.692409 86.188608 72.812489 85.94187 72.8125 85.625 L 72.8125 84.0625 L 67.1875 84.0625 C 66.870628 84.062502 66.598668 83.955036 66.375 83.75 C 66.151326 83.544968 66.031245 83.260402 66.03125 82.90625 L 66.03125 81.09375 L 73 81.09375 C 73.484613 81.093754 73.883229 80.929265 74.21875 80.59375 C 74.554244 80.258248 74.718737 79.828381 74.71875 79.34375 L 74.71875 76.875 C 74.718733 76.390388 74.623881 75.941327 74.4375 75.53125 C 74.251093 75.102555 74.004357 74.723131 73.6875 74.40625 C 73.370622 74.089392 72.991194 73.842657 72.5625 73.65625 C 72.152425 73.469871 71.703364 73.375013 71.21875 73.375 L 66.65625 73.375 z M 89.5 73.375 C 89.332242 73.375011 89.167748 73.406816 89 73.5 C 88.832237 73.57457 88.718191 73.669427 88.625 73.78125 L 85.53125 77.15625 C 85.251657 77.454488 85.093748 77.745639 85.09375 78.0625 C 85.09375 78.323462 85.175993 78.563614 85.34375 78.75 C 85.530142 78.917762 85.770295 79.000008 86.03125 79 C 86.18036 79.000007 86.319631 78.974786 86.46875 78.9375 C 86.617863 78.900226 86.782352 78.817984 86.96875 78.6875 L 88.4375 77.71875 L 88.4375 85.5 C 88.437494 85.81687 88.513711 86.088828 88.71875 86.3125 C 88.923778 86.517532 89.183124 86.625 89.5 86.625 L 90.1875 86.625 C 90.504362 86.625 90.763709 86.517533 90.96875 86.3125 C 91.192417 86.088827 91.312491 85.81687 91.3125 85.5 L 91.3125 74.5 C 91.312493 74.183141 91.192414 73.923796 90.96875 73.71875 C 90.763711 73.495087 90.504362 73.375013 90.1875 73.375 L 89.5 73.375 z M 98.03125 73.375 C 97.472067 73.375011 96.959952 73.495091 96.53125 73.71875 C 96.102539 73.923792 95.735728 74.208364 95.4375 74.5625 C 95.13927 74.898022 94.930363 75.246195 94.78125 75.65625 C 94.632131 76.066329 94.562499 76.483583 94.5625 76.875 L 94.5625 80.65625 C 94.562502 81.103604 94.644744 81.540049 94.8125 81.96875 C 94.998894 82.378821 95.233018 82.726995 95.53125 83.0625 C 95.848119 83.379374 96.227541 83.657359 96.65625 83.84375 C 97.084955 84.030145 97.546622 84.125003 98.03125 84.125 L 101.09375 84.125 C 101.55973 84.125005 101.95176 84.011507 102.25 83.84375 C 102.56686 83.657362 102.8136 83.486286 103 83.28125 L 103 88.4375 C 102.99999 88.847567 102.85469 89.169964 102.59375 89.375 C 102.33279 89.598669 102.06686 89.687497 101.75 89.6875 L 95.875 89.6875 L 95.875 91.03125 C 95.874998 91.348118 95.989046 91.614044 96.25 91.875 C 96.529589 92.135943 96.864598 92.281244 97.21875 92.28125 L 102.375 92.28125 C 102.87825 92.281243 103.35253 92.186388 103.78125 92 C 104.20994 91.813603 104.57676 91.554254 104.875 91.21875 C 105.19186 90.901876 105.42598 90.522452 105.59375 90.09375 C 105.78013 89.68368 105.87499 89.247232 105.875 88.78125 L 105.875 76.875 C 105.87498 76.371749 105.76752 75.897467 105.5625 75.46875 C 105.37609 75.040053 105.12936 74.673242 104.8125 74.375 C 104.49562 74.058145 104.1162 73.824017 103.6875 73.65625 C 103.27742 73.469871 102.8662 73.375013 102.4375 73.375 L 98.03125 73.375 z M 67.15625 75.9375 L 70.71875 75.9375 C 71.035612 75.937509 71.294957 76.057588 71.5 76.28125 C 71.723666 76.48629 71.84374 76.74564 71.84375 77.0625 L 71.84375 78.78125 L 66.03125 78.78125 L 66.03125 77.0625 C 66.031242 76.745639 66.138712 76.486293 66.34375 76.28125 C 66.567416 76.057585 66.839375 75.937511 67.15625 75.9375 z M 98.8125 75.9375 L 101.59375 75.9375 C 101.98517 75.937509 102.30154 76.09542 102.5625 76.375 C 102.84208 76.635958 102.99999 76.952333 103 77.34375 L 103 80.125 C 102.99999 80.51643 102.84208 80.876665 102.5625 81.15625 C 102.30154 81.417207 101.98517 81.531255 101.59375 81.53125 L 98.8125 81.53125 C 98.42107 81.531257 98.092086 81.417207 97.8125 81.15625 C 97.551542 80.876666 97.437496 80.516433 97.4375 80.125 L 97.4375 77.34375 C 97.437493 76.952335 97.551544 76.635961 97.8125 76.375 C 98.092084 76.095416 98.421068 75.937511 98.8125 75.9375 z "
       xlink:href="#text6775"
       style="font-size:27.95907973999999996px;font-style:normal;font-variant:normal;font-weight:bold;font-stretch:normal;text-indent:0;text-align:start;text-decoration:none;line-height:100%;letter-spacing:normal;word-spacing:normal;text-transform:none;direction:ltr;block-progression:tb;writing-mode:lr-tb;text-anchor:start;opacity:1;fill:#000000;fill-opacity:1;fill-rule:nonzero;stroke:none;stroke-width:1px;stroke-linecap:butt;stroke-linejoin:miter;marker:none;marker-start:none;marker-mid:none;marker-end:none;stroke-miterlimit:4;stroke-dasharray:none;stroke-dashoffset:0;stroke-opacity:1;visibility:visible;display:inline;overflow:visible;filter:url(#filter6851);enable-background:accumulate;font-family:ChollaWideBoldOS;-inkscape-font-specification:ChollaWideBoldOS Bold"
       id="path6300"
       inkscape:href="#text6775"
       d="M 27.5,67.71875 C 27.183128,67.718768 26.91117,67.838846 26.6875,68.0625 C 26.482463,68.26755 26.406248,68.526899 26.40625,68.84375 L 26.40625,85.78125 C 26.406247,86.004926 26.330584,86.257688 26.21875,86.5 C 26.125551,86.74231 26.024113,86.925995 25.875,87.09375 L 24.34375,88.96875 C 24.194635,89.15514 24.125,89.395296 24.125,89.65625 C 24.125001,89.898562 24.257688,90.132684 24.5,90.375 L 24.625,90.5 C 24.830033,90.705027 25.082798,90.793303 25.34375,90.71875 C 25.623339,90.66283 25.857465,90.53014 26.0625,90.34375 L 28.4375,88.09375 C 28.773005,87.776879 28.981909,87.416648 29.09375,87.0625 C 29.205581,86.708355 29.281245,86.366759 29.28125,86.03125 L 29.28125,68.84375 C 29.281244,68.526899 29.161167,68.267552 28.9375,68.0625 C 28.732463,67.838844 28.473115,67.718769 28.15625,67.71875 L 27.5,67.71875 z M 55.40625,73.28125 C 54.940257,73.281261 54.491198,73.350898 54.0625,73.5 C 53.652427,73.630489 53.260392,73.813619 52.90625,74 C 52.552095,74.167767 52.260946,74.319647 52,74.46875 C 51.739042,74.599239 51.5115,74.656262 51.34375,74.65625 C 51.17599,74.65626 51.036721,74.561406 50.90625,74.375 L 50.1875,73.375 L 49.25,73.375 C 48.877209,73.375011 48.617863,73.507701 48.46875,73.75 C 48.319634,73.992326 48.249998,74.201229 48.25,74.40625 L 48.25,85.5 C 48.249998,85.81687 48.357465,86.088828 48.5625,86.3125 C 48.786171,86.517532 49.058128,86.625 49.375,86.625 L 50,86.625 C 50.316866,86.625 50.576213,86.517533 50.78125,86.3125 C 51.004916,86.088827 51.124995,85.81687 51.125,85.5 L 51.125,77.21875 C 51.124996,76.864612 51.257683,76.554822 51.5,76.3125 C 51.742308,76.0702 52.020846,75.937511 52.375,75.9375 L 55.6875,75.9375 C 56.041639,75.937509 56.320178,76.070199 56.5625,76.3125 C 56.804801,76.554824 56.93749,76.864611 56.9375,77.21875 L 56.9375,85.5 C 56.937488,85.81687 57.044956,86.088828 57.25,86.3125 C 57.473662,86.517532 57.745619,86.625 58.0625,86.625 L 58.6875,86.625 C 59.004357,86.625 59.294954,86.517533 59.5,86.3125 C 59.723661,86.088827 59.812487,85.81687 59.8125,85.5 L 59.8125,77.03125 C 59.812487,75.950178 59.496116,75.052058 58.84375,74.34375 C 58.210001,73.635463 57.191804,73.281263 55.8125,73.28125 L 55.40625,73.28125 z M 34.46875,73.375 C 34.151877,73.375011 33.87992,73.495091 33.65625,73.71875 C 33.451215,73.923792 33.343748,74.183143 33.34375,74.5 L 33.34375,83 C 33.343747,84.081088 33.647509,84.979205 34.28125,85.6875 C 34.933625,86.377156 35.964431,86.71875 37.34375,86.71875 L 37.75,86.71875 C 38.234617,86.71875 38.683676,86.630476 39.09375,86.5 C 39.503807,86.350888 39.883233,86.211616 40.21875,86.0625 C 40.572888,85.894746 40.864039,85.755477 41.125,85.625 C 41.385941,85.475882 41.613486,85.406251 41.78125,85.40625 C 41.874436,85.406253 41.956682,85.400222 42.03125,85.4375 C 42.124435,85.456137 42.194071,85.531804 42.25,85.625 L 42.96875,86.625 L 43.90625,86.625 C 44.279025,86.625 44.538372,86.492312 44.6875,86.25 C 44.8366,86.007685 44.906237,85.798784 44.90625,85.59375 L 44.90625,74.5 C 44.906237,74.183141 44.786159,73.923796 44.5625,73.71875 C 44.357455,73.495087 44.098107,73.375013 43.78125,73.375 L 43.15625,73.375 C 42.839368,73.375011 42.567412,73.495091 42.34375,73.71875 C 42.138706,73.923792 42.03124,74.183143 42.03125,74.5 L 42.03125,82.78125 C 42.031238,83.135399 41.898552,83.445191 41.65625,83.6875 C 41.413927,83.929818 41.135389,84.062503 40.78125,84.0625 L 37.46875,84.0625 C 37.114595,84.062502 36.836057,83.929815 36.59375,83.6875 C 36.351434,83.445195 36.218745,83.135402 36.21875,82.78125 L 36.21875,74.5 C 36.218746,74.183141 36.098668,73.923796 35.875,73.71875 C 35.669964,73.495087 35.410616,73.375013 35.09375,73.375 L 34.46875,73.375 z M 66.65625,73.375 C 66.171621,73.375011 65.709952,73.469869 65.28125,73.65625 C 64.87118,73.824019 64.504367,74.058143 64.1875,74.375 C 63.870625,74.691883 63.623892,75.071306 63.4375,75.5 C 63.251104,75.928719 63.156248,76.390386 63.15625,76.875 L 63.15625,83.125 C 63.156248,83.60963 63.251104,84.071297 63.4375,84.5 C 63.623891,84.928711 63.870628,85.308132 64.1875,85.625 C 64.504363,85.941867 64.87118,86.188607 65.28125,86.375 C 65.709952,86.542756 66.171621,86.625 66.65625,86.625 L 71.6875,86.625 C 72.004362,86.625 72.263706,86.542755 72.46875,86.375 C 72.692409,86.188608 72.812489,85.94187 72.8125,85.625 L 72.8125,84.0625 L 67.1875,84.0625 C 66.870628,84.062502 66.598668,83.955036 66.375,83.75 C 66.151326,83.544968 66.031245,83.260402 66.03125,82.90625 L 66.03125,81.09375 L 73,81.09375 C 73.484613,81.093754 73.883229,80.929265 74.21875,80.59375 C 74.554244,80.258248 74.718737,79.828381 74.71875,79.34375 L 74.71875,76.875 C 74.718733,76.390388 74.623881,75.941327 74.4375,75.53125 C 74.251093,75.102555 74.004357,74.723131 73.6875,74.40625 C 73.370622,74.089392 72.991194,73.842657 72.5625,73.65625 C 72.152425,73.469871 71.703364,73.375013 71.21875,73.375 L 66.65625,73.375 z M 89.5,73.375 C 89.332242,73.375011 89.167748,73.406816 89,73.5 C 88.832237,73.57457 88.718191,73.669427 88.625,73.78125 L 85.53125,77.15625 C 85.251657,77.454488 85.093748,77.745639 85.09375,78.0625 C 85.09375,78.323462 85.175993,78.563614 85.34375,78.75 C 85.530142,78.917762 85.770295,79.000008 86.03125,79 C 86.18036,79.000007 86.319631,78.974786 86.46875,78.9375 C 86.617863,78.900226 86.782352,78.817984 86.96875,78.6875 L 88.4375,77.71875 L 88.4375,85.5 C 88.437494,85.81687 88.513711,86.088828 88.71875,86.3125 C 88.923778,86.517532 89.183124,86.625 89.5,86.625 L 90.1875,86.625 C 90.504362,86.625 90.763709,86.517533 90.96875,86.3125 C 91.192417,86.088827 91.312491,85.81687 91.3125,85.5 L 91.3125,74.5 C 91.312493,74.183141 91.192414,73.923796 90.96875,73.71875 C 90.763711,73.495087 90.504362,73.375013 90.1875,73.375 L 89.5,73.375 z M 98.03125,73.375 C 97.472067,73.375011 96.959952,73.495091 96.53125,73.71875 C 96.102539,73.923792 95.735728,74.208364 95.4375,74.5625 C 95.13927,74.898022 94.930363,75.246195 94.78125,75.65625 C 94.632131,76.066329 94.562499,76.483583 94.5625,76.875 L 94.5625,80.65625 C 94.562502,81.103604 94.644744,81.540049 94.8125,81.96875 C 94.998894,82.378821 95.233018,82.726995 95.53125,83.0625 C 95.848119,83.379374 96.227541,83.657359 96.65625,83.84375 C 97.084955,84.030145 97.546622,84.125003 98.03125,84.125 L 101.09375,84.125 C 101.55973,84.125005 101.95176,84.011507 102.25,83.84375 C 102.56686,83.657362 102.8136,83.486286 103,83.28125 L 103,88.4375 C 102.99999,88.847567 102.85469,89.169964 102.59375,89.375 C 102.33279,89.598669 102.06686,89.687497 101.75,89.6875 L 95.875,89.6875 L 95.875,91.03125 C 95.874998,91.348118 95.989046,91.614044 96.25,91.875 C 96.529589,92.135943 96.864598,92.281244 97.21875,92.28125 L 102.375,92.28125 C 102.87825,92.281243 103.35253,92.186388 103.78125,92 C 104.20994,91.813603 104.57676,91.554254 104.875,91.21875 C 105.19186,90.901876 105.42598,90.522452 105.59375,90.09375 C 105.78013,89.68368 105.87499,89.247232 105.875,88.78125 L 105.875,76.875 C 105.87498,76.371749 105.76752,75.897467 105.5625,75.46875 C 105.37609,75.040053 105.12936,74.673242 104.8125,74.375 C 104.49562,74.058145 104.1162,73.824017 103.6875,73.65625 C 103.27742,73.469871 102.8662,73.375013 102.4375,73.375 L 98.03125,73.375 z M 67.15625,75.9375 L 70.71875,75.9375 C 71.035612,75.937509 71.294957,76.057588 71.5,76.28125 C 71.723666,76.48629 71.84374,76.74564 71.84375,77.0625 L 71.84375,78.78125 L 66.03125,78.78125 L 66.03125,77.0625 C 66.031242,76.745639 66.138712,76.486293 66.34375,76.28125 C 66.567416,76.057585 66.839375,75.937511 67.15625,75.9375 z M 98.8125,75.9375 L 101.59375,75.9375 C 101.98517,75.937509 102.30154,76.09542 102.5625,76.375 C 102.84208,76.635958 102.99999,76.952333 103,77.34375 L 103,80.125 C 102.99999,80.51643 102.84208,80.876665 102.5625,81.15625 C 102.30154,81.417207 101.98517,81.531255 101.59375,81.53125 L 98.8125,81.53125 C 98.42107,81.531257 98.092086,81.417207 97.8125,81.15625 C 97.551542,80.876666 97.437496,80.516433 97.4375,80.125 L 97.4375,77.34375 C 97.437493,76.952335 97.551544,76.635961 97.8125,76.375 C 98.092084,76.095416 98.421068,75.937511 98.8125,75.9375 z"
       transform="translate(0,1)" />
    <text
       xml:space="preserve"
       style="font-size:27.95907974px;font-style:normal;font-variant:normal;font-weight:bold;font-stretch:normal;text-indent:0;text-align:start;text-decoration:none;line-height:100%;letter-spacing:normal;word-spacing:normal;text-transform:none;direction:ltr;block-progression:tb;writing-mode:lr-tb;text-anchor:start;opacity:1;fill:#ffffff;fill-opacity:1;fill-rule:nonzero;stroke:none;stroke-width:1px;stroke-linecap:butt;stroke-linejoin:miter;marker:none;marker-start:none;marker-mid:none;marker-end:none;stroke-miterlimit:4;stroke-dasharray:none;stroke-dashoffset:0;stroke-opacity:1;visibility:visible;display:inline;overflow:visible;enable-background:accumulate;font-family:ChollaWideBoldOS;-inkscape-font-specification:ChollaWideBoldOS Bold"
       x="24.015257"
       y="86.62632"
       id="text6775"
       sodipodi:linespacing="100%"><tspan
         sodipodi:role="line"
         id="tspan6777"
         x="24.015257"
         y="86.62632"
         dx="0 0 0 0 0 0 -3.8994002">June 19</tspan></text>
  </g>
</svg>
