<?xml version="1.0" encoding="UTF-8" standalone="no"?>
<!-- Created with Inkscape (http://www.inkscape.org/) -->

<svg
   xmlns:dc="http://purl.org/dc/elements/1.1/"
   xmlns:cc="http://creativecommons.org/ns#"
   xmlns:rdf="http://www.w3.org/1999/02/22-rdf-syntax-ns#"
   xmlns:svg="http://www.w3.org/2000/svg"
   xmlns="http://www.w3.org/2000/svg"
   xmlns:xlink="http://www.w3.org/1999/xlink"
   xmlns:sodipodi="http://sodipodi.sourceforge.net/DTD/sodipodi-0.dtd"
   xmlns:inkscape="http://www.inkscape.org/namespaces/inkscape"
   width="256"
   height="256"
   id="svg2"
   sodipodi:version="0.32"
   inkscape:version="0.46+devel"
   version="1.0"
   sodipodi:docname="nojavascript.svg"
   inkscape:output_extension="org.inkscape.output.svg.inkscape"
   inkscape:export-filename="/home/jimmac/gfx/novell/products/openSUSE11/web-banner/images/nojavascript.png"
   inkscape:export-xdpi="90"
   inkscape:export-ydpi="90">
  <defs
     id="defs4">
    <inkscape:perspective
       sodipodi:type="inkscape:persp3d"
       inkscape:vp_x="-50 : 600 : 1"
       inkscape:vp_y="0 : 1000 : 0"
       inkscape:vp_z="700 : 600 : 1"
       inkscape:persp3d-origin="300 : 400 : 1"
       id="perspective5358" />
    <linearGradient
       inkscape:collect="always"
       id="linearGradient9026">
      <stop
         id="stop9030"
         offset="0"
         style="stop-color:#ffffff;stop-opacity:0;" />
      <stop
         id="stop9028"
         offset="1"
         style="stop-color:#ffffff;stop-opacity:1;" />
    </linearGradient>
    <radialGradient
       inkscape:collect="always"
       xlink:href="#linearGradient9026"
       id="radialGradient9032"
       cx="154.76555"
       cy="79.415726"
       fx="154.76555"
       fy="79.415726"
       r="69.938173"
       gradientUnits="userSpaceOnUse"
       gradientTransform="matrix(0.5575867,0,0,0.5575867,68.470323,35.134566)" />
    <linearGradient
       id="linearGradient9038"
       inkscape:collect="always">
      <stop
         style="stop-color:#24a701;stop-opacity:0;"
         offset="0"
         id="stop9042" />
      <stop
         style="stop-color:#24a701;stop-opacity:1;"
         offset="1"
         id="stop9040" />
    </linearGradient>
    <radialGradient
       inkscape:collect="always"
       xlink:href="#linearGradient9038"
       id="radialGradient9022"
       cx="79.423729"
       cy="72.409096"
       fx="79.423729"
       fy="72.409096"
       r="69.84375"
       gradientUnits="userSpaceOnUse"
       gradientTransform="matrix(1.8476051,0,0,1.8476051,-84.760505,-84.760505)" />
    <linearGradient
       id="linearGradient8783"
       inkscape:collect="always">
      <stop
         id="stop8785"
         offset="0"
         style="stop-color:#9eaaac;stop-opacity:1" />
      <stop
         id="stop8787"
         offset="1"
         style="stop-color:#ffffff;stop-opacity:1" />
    </linearGradient>
    <linearGradient
       inkscape:collect="always"
       xlink:href="#linearGradient8783"
       id="linearGradient8727"
       x1="401.30548"
       y1="500.9314"
       x2="401.30548"
       y2="463.56079"
       gradientUnits="userSpaceOnUse" />
    <filter
       inkscape:collect="always"
       id="filter8779"
       x="-0.021823626"
       width="1.0436473"
       y="-0.11597504"
       height="1.2319501">
      <feGaussianBlur
         inkscape:collect="always"
         stdDeviation="2.2672686"
         id="feGaussianBlur8781" />
    </filter>
    <inkscape:perspective
       sodipodi:type="inkscape:persp3d"
       inkscape:vp_x="-50 : 600 : 1"
       inkscape:vp_y="0 : 1000 : 0"
       inkscape:vp_z="700 : 600 : 1"
       inkscape:persp3d-origin="300 : 400 : 1"
       id="perspective10" />
    <linearGradient
       inkscape:collect="always"
       xlink:href="#linearGradient8783"
       id="linearGradient5894"
       gradientUnits="userSpaceOnUse"
       x1="401.30548"
       y1="500.9314"
       x2="401.30548"
       y2="463.56079" />
    <filter
       inkscape:collect="always"
       id="filter6060">
      <feGaussianBlur
         inkscape:collect="always"
         stdDeviation="1.3894114"
         id="feGaussianBlur6062" />
    </filter>
    <inkscape:perspective
       id="perspective2932"
       inkscape:persp3d-origin="0.5 : 0.33333333 : 1"
       inkscape:vp_z="1 : 0.5 : 1"
       inkscape:vp_y="0 : 1000 : 0"
       inkscape:vp_x="0 : 0.5 : 1"
       sodipodi:type="inkscape:persp3d" />
    <inkscape:perspective
       id="perspective5963"
       inkscape:persp3d-origin="0.5 : 0.33333333 : 1"
       inkscape:vp_z="1 : 0.5 : 1"
       inkscape:vp_y="0 : 1000 : 0"
       inkscape:vp_x="0 : 0.5 : 1"
       sodipodi:type="inkscape:persp3d" />
    <filter
       color-interpolation-filters="sRGB"
       inkscape:collect="always"
       id="filter5036">
      <feGaussianBlur
         inkscape:collect="always"
         stdDeviation="2.0518868"
         id="feGaussianBlur5038" />
    </filter>
    <linearGradient
       inkscape:collect="always"
       xlink:href="#linearGradient3231"
       id="linearGradient6095-4"
       gradientUnits="userSpaceOnUse"
       gradientTransform="translate(-28.073787,-466.04675)"
       x1="158.15625"
       y1="703.10938"
       x2="158.15625"
       y2="542.91357" />
    <linearGradient
       id="linearGradient3231"
       inkscape:collect="always">
      <stop
         id="stop3233"
         offset="0"
         style="stop-color:#e1e4de;stop-opacity:1" />
      <stop
         style="stop-color:#dbded8;stop-opacity:1;"
         offset="0.29999995"
         id="stop3235" />
      <stop
         id="stop3237"
         offset="1"
         style="stop-color:#ffffff;stop-opacity:1" />
    </linearGradient>
    <linearGradient
       inkscape:collect="always"
       xlink:href="#linearGradient4014"
       id="linearGradient4020"
       x1="130.08246"
       y1="237.06262"
       x2="130.08246"
       y2="103.91788"
       gradientUnits="userSpaceOnUse" />
    <linearGradient
       inkscape:collect="always"
       id="linearGradient4014">
      <stop
         style="stop-color:#888a85;stop-opacity:1"
         offset="0"
         id="stop4016" />
      <stop
         style="stop-color:#000000;stop-opacity:0;"
         offset="1"
         id="stop4018" />
    </linearGradient>
    <radialGradient
       r="94.569832"
       fy="161.34077"
       fx="161.34077"
       cy="161.34077"
       cx="161.34077"
       gradientUnits="userSpaceOnUse"
       id="radialGradient4399-8"
       xlink:href="#linearGradient7692-5"
       inkscape:collect="always" />
    <linearGradient
       inkscape:collect="always"
       id="linearGradient7692-5">
      <stop
         style="stop-color:#ffffff;stop-opacity:1;"
         offset="0"
         id="stop7694-3" />
      <stop
         style="stop-color:#ffffff;stop-opacity:0;"
         offset="1"
         id="stop7696-8" />
    </linearGradient>
    <radialGradient
       inkscape:collect="always"
       xlink:href="#linearGradient7716-4"
       id="radialGradient7722-0"
       cx="176.80099"
       cy="183.06195"
       fx="176.80099"
       fy="183.06195"
       r="95.130486"
       gradientUnits="userSpaceOnUse" />
    <linearGradient
       inkscape:collect="always"
       id="linearGradient7716-4">
      <stop
         style="stop-color:#000000;stop-opacity:0.18674699"
         offset="0"
         id="stop7718-9" />
      <stop
         style="stop-color:#000000;stop-opacity:0;"
         offset="1"
         id="stop7720-6" />
    </linearGradient>
    <linearGradient
       inkscape:collect="always"
       xlink:href="#linearGradient5478-8-7"
       id="linearGradient6778-8"
       gradientUnits="userSpaceOnUse"
       x1="98.727234"
       y1="42.150482"
       x2="98.727234"
       y2="164.39177" />
    <linearGradient
       id="linearGradient5478-8-7">
      <stop
         style="stop-color:#3a7202;stop-opacity:1;"
         offset="0"
         id="stop5480-3-0" />
      <stop
         id="stop5626-0-2"
         offset="0.69790977"
         style="stop-color:#4e9c04;stop-opacity:1;" />
      <stop
         style="stop-color:#50a004;stop-opacity:1;"
         offset="0.75"
         id="stop5628-0-8" />
      <stop
         style="stop-color:#7bf508;stop-opacity:1;"
         offset="1"
         id="stop5482-5-2" />
    </linearGradient>
    <linearGradient
       inkscape:collect="always"
       xlink:href="#linearGradient5478-8-7"
       id="linearGradient6780-7"
       gradientUnits="userSpaceOnUse"
       x1="60.836216"
       y1="18.832932"
       x2="148.27702"
       y2="153.70456" />
    <linearGradient
       id="linearGradient5993">
      <stop
         style="stop-color:#3a7202;stop-opacity:1;"
         offset="0"
         id="stop5995" />
      <stop
         id="stop5997"
         offset="0.69790977"
         style="stop-color:#4e9c04;stop-opacity:1;" />
      <stop
         style="stop-color:#50a004;stop-opacity:1;"
         offset="0.75"
         id="stop5999" />
      <stop
         style="stop-color:#7bf508;stop-opacity:1;"
         offset="1"
         id="stop6001" />
    </linearGradient>
    <linearGradient
       inkscape:collect="always"
       xlink:href="#linearGradient5681-1-9"
       id="linearGradient6782-6"
       gradientUnits="userSpaceOnUse"
       x1="100"
       y1="166.72182"
       x2="100"
       y2="39.739437" />
    <linearGradient
       inkscape:collect="always"
       id="linearGradient5681-1-9">
      <stop
         style="stop-color:#000000;stop-opacity:1;"
         offset="0"
         id="stop5683-0-5" />
      <stop
         style="stop-color:#000000;stop-opacity:0.48124999"
         offset="1"
         id="stop5685-8-6" />
    </linearGradient>
    <clipPath
       clipPathUnits="userSpaceOnUse"
       id="clipPath5677-9-5">
      <path
         style="font-size:20.48839951px;fill:#4e9a06;fill-opacity:1;fill-rule:evenodd;stroke:none;font-family:TrebuchetMS-Bold"
         d="M 99.999999,30.15625 C 61.429321,30.15625 30.15625,61.425757 30.15625,100 c 0,38.57424 31.273071,69.84375 69.843749,69.84375 38.570681,0 69.843741,-31.26951 69.843751,-69.84375 0,-38.574237 -31.27307,-69.84375 -69.843751,-69.84375 z m 0.334431,9.672654 c 33.23352,0 60.19682,26.941139 60.19682,60.171096 0,33.23353 -26.96686,60.1711 -60.19682,60.1711 -17.944818,0 -34.047202,-7.86473 -45.070447,-20.32286 4.532497,-3.51775 12.115631,-2.65954 21.454769,-1.59496 4.475522,0.50915 9.577449,1.09159 14.843406,1.20908 14.711892,0.0855 30.541332,-2.5996 40.311292,-6.86861 6.31629,-2.77006 10.36035,-4.59427 12.88829,-6.89434 0.91149,-0.7477 1.39015,-1.99679 1.87794,-3.29281 l 0.33442,-0.87466 c 0.40946,-1.04678 0.99706,-3.29926 1.26053,-4.52762 0.1175,-0.53764 0.17517,-1.1158 -0.2058,-1.41489 l -1.36343,0.25726 c -4.28682,2.57066 -14.99713,7.4667 -25.03056,7.66609 -12.43319,0.25991 -37.492094,-12.51643 -40.105491,-13.86585 l -0.25725,-0.3087 c -0.626641,-1.49541 -4.376766,-10.398076 -5.170753,-12.270895 18.037391,11.877765 32.991864,18.452075 44.453044,19.473925 12.74296,1.13224 22.683,-5.82499 26.93421,-8.79799 0.8296,-0.56612 1.46367,-1.01005 1.72359,-1.10618 l 0.28298,-0.46306 c -0.70498,-4.47909 -7.39073,-26.153517 -12.42525,-31.358942 -1.39571,-1.42775 -2.50536,-2.81725 -4.75915,-4.141745 C 114.08824,60.052432 70.821318,53.655846 68.795405,53.360326 l -0.334423,0.102899 -0.128625,0.282976 c 0,0 -0.162275,8.984424 -0.180078,9.981357 -1.484725,-0.491344 -6.088481,-1.9986 -12.682491,-3.807322 8.603734,-10.645844 21.78903,-20.091332 44.864642,-20.091332 z m 15.89813,31.847721 c 0.30705,-0.0046 0.61701,-0.01024 0.92611,0 10.20789,0.366727 18.22788,8.964455 17.87897,19.165229 -0.18159,4.934824 -2.26212,9.494346 -5.86533,12.862566 -3.6139,3.38602 -8.31087,5.1509 -13.27417,4.99068 -10.1901,-0.38097 -18.210098,-8.978695 -17.878978,-19.165231 0.174469,-4.941946 2.266488,-9.530765 5.891058,-12.888296 3.38468,-3.174386 7.71664,-4.895827 12.32234,-4.964948 z m -0.48878,5.453729 c -2.97293,0.180744 -5.77842,1.387873 -7.97479,3.447167 -2.50301,2.349918 -3.97993,5.531534 -4.0903,8.978075 -0.23499,7.12096 5.33713,13.113594 12.45097,13.377074 3.45722,0.10681 6.73667,-1.10438 9.26105,-3.44717 2.51726,-2.360599 3.98349,-5.5715 4.0903,-9.003802 0.23855,-7.131641 -5.35929,-13.102111 -12.47669,-13.351344 -0.43082,-0.01602 -0.83583,-0.02582 -1.26054,0 z m 3.39572,6.457012 c 3.16171,0 5.71099,1.718118 5.71098,3.833041 0,2.10425 -2.54927,3.833042 -5.71098,3.833049 -3.17239,0 -5.7367,-1.732364 -5.7367,-3.833049 0,-2.114923 2.56431,-3.833041 5.7367,-3.833041 z"
         id="path5679-4-9" />
    </clipPath>
    <filter
       color-interpolation-filters="sRGB"
       inkscape:collect="always"
       id="filter5645-1">
      <feGaussianBlur
         inkscape:collect="always"
         stdDeviation="0.70516335"
         id="feGaussianBlur5647-6" />
    </filter>
    <radialGradient
       inkscape:collect="always"
       xlink:href="#linearGradient5565-1"
       id="radialGradient6784-1"
       gradientUnits="userSpaceOnUse"
       gradientTransform="matrix(0.4812739,0,0,-0.2452646,376.54043,-122.79884)"
       cx="132"
       cy="293.59906"
       fx="132"
       fy="293.59906"
       r="102" />
    <linearGradient
       inkscape:collect="always"
       id="linearGradient5565-1">
      <stop
         style="stop-color:#8ae234;stop-opacity:1;"
         offset="0"
         id="stop5567-7" />
      <stop
         style="stop-color:#8ae234;stop-opacity:0;"
         offset="1"
         id="stop5569-3" />
    </linearGradient>
    <filter
       color-interpolation-filters="sRGB"
       inkscape:collect="always"
       id="filter5556-9">
      <feGaussianBlur
         inkscape:collect="always"
         stdDeviation="2.8857142"
         id="feGaussianBlur5558-8" />
    </filter>
    <radialGradient
       inkscape:collect="always"
       xlink:href="#linearGradient5518-6"
       id="radialGradient6786-2"
       gradientUnits="userSpaceOnUse"
       gradientTransform="matrix(0.9311654,0,0,0.8801658,317.15471,-220.00355)"
       cx="132.01065"
       cy="37.250149"
       fx="132.01065"
       fy="37.250149"
       r="103.84375" />
    <linearGradient
       inkscape:collect="always"
       id="linearGradient5518-6">
      <stop
         style="stop-color:#ffffff;stop-opacity:1;"
         offset="0"
         id="stop5520-8" />
      <stop
         style="stop-color:#ffffff;stop-opacity:0;"
         offset="1"
         id="stop5522-0" />
    </linearGradient>
    <radialGradient
       inkscape:collect="always"
       xlink:href="#linearGradient5565-1"
       id="radialGradient6788-9"
       gradientUnits="userSpaceOnUse"
       gradientTransform="matrix(1.1252161,0,0,0.5734273,291.54003,-172.5235)"
       cx="132"
       cy="293.59906"
       fx="132"
       fy="293.59906"
       r="102" />
    <radialGradient
       inkscape:collect="always"
       xlink:href="#linearGradient5565-1"
       id="radialGradient6790-6"
       gradientUnits="userSpaceOnUse"
       gradientTransform="matrix(1.4973544,0,0,0.5528207,266.33925,-180.49721)"
       cx="89.75"
       cy="20.619284"
       fx="89.75"
       fy="20.619284"
       r="59.25" />
    <radialGradient
       inkscape:collect="always"
       xlink:href="#linearGradient5745-5"
       id="radialGradient6792-2"
       gradientUnits="userSpaceOnUse"
       gradientTransform="matrix(1.2847965,0,0,0.555661,279.75821,-185.14092)"
       cx="105.75"
       cy="38.506714"
       fx="105.75"
       fy="38.506714"
       r="59.25" />
    <linearGradient
       inkscape:collect="always"
       id="linearGradient5745-5">
      <stop
         style="stop-color:#ffffff;stop-opacity:1;"
         offset="0"
         id="stop5747-7" />
      <stop
         style="stop-color:#ffffff;stop-opacity:0;"
         offset="1"
         id="stop5749-0" />
    </linearGradient>
    <radialGradient
       inkscape:collect="always"
       xlink:href="#linearGradient5755-5"
       id="radialGradient6794-3"
       gradientUnits="userSpaceOnUse"
       gradientTransform="matrix(1.5487879,0,0,0.967699,219.5322,-229.11394)"
       cx="158.0618"
       cy="117.97007"
       fx="158.0618"
       fy="117.97007"
       r="12.438205" />
    <linearGradient
       inkscape:collect="always"
       id="linearGradient5755-5">
      <stop
         style="stop-color:#ffffff;stop-opacity:1;"
         offset="0"
         id="stop5757-0" />
      <stop
         style="stop-color:#ffffff;stop-opacity:0;"
         offset="1"
         id="stop5759-5" />
    </linearGradient>
    <radialGradient
       inkscape:collect="always"
       xlink:href="#linearGradient5767-3"
       id="radialGradient6796-5"
       gradientUnits="userSpaceOnUse"
       gradientTransform="matrix(0.9311654,0,0,0.9920213,316.68913,-232.2523)"
       cx="40.807701"
       cy="81.171234"
       fx="40.807701"
       fy="81.171234"
       r="83.063797" />
    <linearGradient
       inkscape:collect="always"
       id="linearGradient5767-3">
      <stop
         style="stop-color:#ffffff;stop-opacity:1;"
         offset="0"
         id="stop5769-5" />
      <stop
         style="stop-color:#ffffff;stop-opacity:0;"
         offset="1"
         id="stop5771-1" />
    </linearGradient>
    <radialGradient
       inkscape:collect="always"
       xlink:href="#linearGradient5767-3"
       id="radialGradient6798-4"
       gradientUnits="userSpaceOnUse"
       gradientTransform="matrix(0.9311654,0,0,0.9920213,316.68913,-232.2523)"
       cx="40.807701"
       cy="81.171234"
       fx="40.807701"
       fy="81.171234"
       r="83.063797" />
    <filter
       color-interpolation-filters="sRGB"
       inkscape:collect="always"
       x="-0.34697872"
       width="1.6939574"
       y="-0.049569897"
       height="1.0991398"
       id="filter5825-0">
      <feGaussianBlur
         inkscape:collect="always"
         stdDeviation="1.3363274"
         id="feGaussianBlur5827-8" />
    </filter>
    <radialGradient
       inkscape:collect="always"
       xlink:href="#linearGradient5831-1"
       id="radialGradient6800-9"
       gradientUnits="userSpaceOnUse"
       gradientTransform="matrix(0.9311654,0,0,0.7431416,320.87937,-195.79894)"
       cx="98"
       cy="146.19427"
       fx="98"
       fy="146.19427"
       r="13" />
    <linearGradient
       inkscape:collect="always"
       id="linearGradient5831-1">
      <stop
         style="stop-color:#ffffff;stop-opacity:1;"
         offset="0"
         id="stop5833-9" />
      <stop
         style="stop-color:#ffffff;stop-opacity:0;"
         offset="1"
         id="stop5835-8" />
    </linearGradient>
    <radialGradient
       inkscape:collect="always"
       xlink:href="#linearGradient5841-2"
       id="radialGradient6802-2"
       gradientUnits="userSpaceOnUse"
       gradientTransform="matrix(1.2266314,0,0,0.2485319,272.34909,-113.88511)"
       cx="164.25"
       cy="187.76793"
       fx="164.25"
       fy="187.76793"
       r="26" />
    <linearGradient
       inkscape:collect="always"
       id="linearGradient5841-2">
      <stop
         style="stop-color:#ffffff;stop-opacity:1;"
         offset="0"
         id="stop5843-7" />
      <stop
         style="stop-color:#ffffff;stop-opacity:0;"
         offset="1"
         id="stop5845-7" />
    </linearGradient>
    <radialGradient
       inkscape:collect="always"
       xlink:href="#linearGradient6807-5"
       id="radialGradient6813-4"
       cx="93"
       cy="3.5"
       fx="93"
       fy="3.5"
       r="93.5"
       gradientUnits="userSpaceOnUse" />
    <linearGradient
       inkscape:collect="always"
       id="linearGradient6807-5">
      <stop
         style="stop-color:#ffffff;stop-opacity:1;"
         offset="0"
         id="stop6809-1" />
      <stop
         style="stop-color:#ffffff;stop-opacity:0;"
         offset="1"
         id="stop6811-2" />
    </linearGradient>
    <radialGradient
       r="93.5"
       fy="3.5"
       fx="93"
       cy="3.5"
       cx="93"
       gradientUnits="userSpaceOnUse"
       id="radialGradient4817"
       xlink:href="#linearGradient6807-5"
       inkscape:collect="always" />
    <filter
       color-interpolation-filters="sRGB"
       inkscape:collect="always"
       id="filter7700-3">
      <feGaussianBlur
         inkscape:collect="always"
         stdDeviation="1.6902482"
         id="feGaussianBlur7702-2" />
    </filter>
  </defs>
  <sodipodi:namedview
     id="base"
     pagecolor="#ffffff"
     bordercolor="#e5e5e5"
     borderopacity="1"
     gridtolerance="10000"
     guidetolerance="10"
     objecttolerance="10"
     inkscape:pageopacity="0.0"
     inkscape:pageshadow="2"
     inkscape:zoom="1"
     inkscape:cx="120.19283"
     inkscape:cy="55.13266"
     inkscape:document-units="px"
     inkscape:current-layer="layer1"
     showgrid="false"
     borderlayer="true"
     inkscape:showpageshadow="false"
     inkscape:window-width="757"
     inkscape:window-height="842"
     inkscape:window-x="362"
     inkscape:window-y="248"
     inkscape:snap-nodes="false"
     inkscape:snap-bbox="true"
     inkscape:snap-page="true"
     inkscape:window-maximized="0">
    <inkscape:grid
       type="xygrid"
       id="grid6773"
       enabled="true"
       visible="true" />
  </sodipodi:namedview>
  <metadata
     id="metadata7">
    <rdf:RDF>
      <cc:Work
         rdf:about="">
        <dc:format>image/svg+xml</dc:format>
        <dc:type
           rdf:resource="http://purl.org/dc/dcmitype/StillImage" />
        <dc:title></dc:title>
        <dc:date />
        <dc:creator>
          <cc:Agent>
            <dc:title />
          </cc:Agent>
        </dc:creator>
        <dc:rights>
          <cc:Agent>
            <dc:title />
          </cc:Agent>
        </dc:rights>
        <dc:publisher>
          <cc:Agent>
            <dc:title />
          </cc:Agent>
        </dc:publisher>
        <dc:identifier />
        <dc:source />
        <dc:relation />
        <dc:language />
        <dc:subject>
          <rdf:Bag />
        </dc:subject>
        <dc:coverage />
        <dc:description />
        <dc:contributor>
          <cc:Agent>
            <dc:title />
          </cc:Agent>
        </dc:contributor>
        <cc:license
           rdf:resource="" />
      </cc:Work>
    </rdf:RDF>
  </metadata>
  <g
     inkscape:groupmode="layer"
     id="layer2"
     inkscape:label="bcg">
    <image
       y="0"
       x="0"
       id="image2934"
       height="256"
       width="256"
       xlink:href="file:///home/jimmac/gfx/novell/products/openSUSE11/web-banner/images/background.png" />
  </g>
  <g
     inkscape:label="date"
     inkscape:groupmode="layer"
     id="layer1">
    <path
       sodipodi:type="inkscape:offset"
       inkscape:radius="0"
       inkscape:original="M 193.28125 161.09375 L 192.75 161.21875 C 191.25 161.57875 189.90625 162.8775 189.90625 165.1875 L 189.90625 182.40625 L 193.28125 182.40625 L 193.28125 161.09375 z M 138.5 161.4375 L 138.5 182.4375 L 142 182.4375 L 142 181.3125 L 146.96875 182.4375 C 147.26875 182.4975 147.64125 182.5625 148.03125 182.5625 C 150.22125 182.5625 152.21875 180.835 152.21875 179.125 L 152.21875 171.25 C 152.21875 169.54 150.22125 167.78125 148.03125 167.78125 C 147.67125 167.78125 147.29875 167.84625 146.96875 167.90625 L 142 169.25 L 142 161.4375 L 138.5 161.4375 z M 49.46875 161.5 C 48.508751 161.5 47.75 162.2575 47.75 163.1875 L 47.75 182.4375 L 51.21875 182.4375 L 51.21875 168.1875 L 61.8125 181.15625 C 62.352499 181.72625 62.633751 182.4375 63.59375 182.4375 C 64.523749 182.4375 65.3125 181.70875 65.3125 180.71875 L 65.3125 161.5 L 63.28125 161.5 L 62.96875 161.5 C 62.158751 161.62 61.935 162.17375 61.875 162.59375 C 61.875 162.65375 61.84375 162.8125 61.84375 162.8125 L 61.84375 175.75 L 51.3125 162.8125 C 50.772501 162.2125 50.458749 161.5 49.46875 161.5 z M 198.9375 161.5 C 197.5875 161.5 196.6575 162.6575 196.6875 164.1875 L 196.71875 164.625 L 203.875 164.625 C 204.235 164.625 204.56375 164.86125 204.59375 165.28125 L 204.59375 168.90625 C 204.59375 169.08625 204.5175 169.29125 204.1875 169.53125 L 198.15625 172.9375 C 197.13625 173.5375 196.5 174.4825 196.5 175.5625 L 196.5 181.5625 C 196.5 182.0425 197.0575 182.4375 197.6875 182.4375 L 208.21875 182.4375 L 208.25 179.8125 C 208.25 179.3925 207.89 179.03125 207.5 179.03125 L 200.4375 179.03125 L 200.4375 176.15625 C 200.4375 175.61625 200.70375 175.17875 201.09375 174.96875 L 206.8125 171.78125 C 207.5325 171.24125 208.09375 170.40125 208.09375 169.53125 L 208.09375 164.40625 C 208.09375 163.26625 207.52125 161.5 204.28125 161.5 L 198.9375 161.5 z M 94.96875 167.65625 C 94.068751 167.65625 93.61875 168.35875 93.46875 168.71875 L 90.3125 176.21875 C 90.2525 176.39875 90.21375 177.295 90.09375 177.625 C 90.00375 177.265 89.90375 176.46125 89.84375 176.28125 L 86.625 168.71875 C 86.475 168.35875 86.023749 167.6875 85.09375 167.6875 C 84.253751 167.6875 83.375 168.32375 83.375 169.34375 C 83.375 169.58375 83.41125 169.855 83.53125 170.125 L 88.78125 182.4375 L 91.3125 182.4375 L 96.59375 170.125 C 96.71375 169.885 96.78125 169.645 96.78125 169.375 C 96.78125 168.355 95.838749 167.65625 94.96875 167.65625 z M 122.75 167.78125 C 122.36 167.78125 121.9825 167.815 121.5625 167.875 L 121.53125 167.90625 L 117.375 168.96875 L 117.375 167.90625 L 113.90625 167.90625 L 113.90625 182.4375 L 117.375 182.4375 L 117.375 171.96875 C 117.375 171.69875 117.64125 171.34375 118.03125 171.34375 L 122.21875 171.34375 C 122.54875 171.34375 122.90625 171.60875 122.90625 171.96875 L 122.90625 182.4375 L 126.4375 182.4375 L 126.4375 171.96875 C 126.4375 171.69875 126.705 171.34375 127.125 171.34375 L 131 171.34375 C 131.33 171.34375 131.6875 171.60875 131.6875 171.96875 L 131.6875 182.4375 L 135.1875 182.4375 L 135.1875 171.25 C 135.1875 169.39 133.69125 167.78125 131.53125 167.78125 C 131.17125 167.78125 130.7925 167.815 130.3125 167.875 L 130.28125 167.90625 L 125.71875 169.1875 L 125.5625 169.1875 C 125.2025 169.0075 124.67 167.87125 122.75 167.78125 z M 179.71875 167.84375 C 179.26875 167.84375 178.9825 167.97125 178.5625 168.03125 L 173.96875 168.75 L 173.96875 167.90625 L 170.4375 167.90625 L 170.4375 182.4375 L 173.96875 182.4375 L 173.96875 171.96875 C 173.96875 171.66875 174.33 171.34375 174.75 171.34375 L 181.375 171.34375 L 181.375 168.28125 L 181.125 168.15625 C 180.735 167.94625 180.25875 167.84375 179.71875 167.84375 z M 73.3125 167.90625 C 70.702503 167.90625 68.6875 169.85375 68.6875 172.34375 L 68.6875 178.25 C 68.6875 180.74 70.702503 182.6875 73.3125 182.6875 L 77.8125 182.6875 C 80.422497 182.6875 82.4375 180.74 82.4375 178.25 L 82.4375 172.34375 C 82.4375 169.88375 80.452497 167.90625 77.8125 167.90625 L 73.3125 167.90625 z M 102.625 167.9375 C 99.955003 167.9375 97.96875 170.01 97.96875 172.5 L 97.96875 177.75 C 97.96875 180.24 99.711253 182.4375 102.53125 182.4375 L 104.625 182.4375 C 107.265 182.4375 110.28125 181.03 110.28125 179.5 L 110.28125 179.0625 L 102.53125 179.0625 C 101.96125 179.0625 101.5 178.63125 101.5 178.03125 L 101.5 176.6875 L 111.34375 176.6875 L 111.34375 172.5625 C 111.34375 170.0725 109.32625 167.9375 106.65625 167.9375 L 102.625 167.9375 z M 159.15625 167.9375 C 156.48625 167.9375 154.53125 170.01 154.53125 172.5 L 154.53125 177.75 C 154.53125 180.24 156.27375 182.4375 159.09375 182.4375 L 161.1875 182.4375 C 163.8275 182.4375 166.8125 181.03 166.8125 179.5 L 166.8125 179.0625 L 159.09375 179.0625 C 158.52375 179.0625 158.03125 178.63125 158.03125 178.03125 L 158.03125 176.6875 L 167.875 176.6875 L 167.875 172.5625 C 167.875 170.0725 165.8575 167.9375 163.1875 167.9375 L 159.15625 167.9375 z M 102.53125 171.28125 L 106.75 171.28125 C 107.32 171.28125 107.8125 171.80375 107.8125 172.34375 L 107.8125 173.75 L 101.5 173.75 L 101.5 172.34375 C 101.5 171.80375 101.96125 171.28125 102.53125 171.28125 z M 159.09375 171.28125 L 163.28125 171.28125 C 163.85125 171.28125 164.375 171.80375 164.375 172.34375 L 164.375 173.75 L 158.03125 173.75 L 158.03125 172.34375 C 158.03125 171.80375 158.52375 171.28125 159.09375 171.28125 z M 72.84375 171.3125 L 78.21875 171.3125 C 78.42875 171.3125 78.9375 171.42625 78.9375 171.90625 L 78.9375 178.65625 C 78.9375 178.98625 78.63875 179.28125 78.21875 179.28125 L 72.84375 179.28125 C 72.48375 179.28125 72.15625 178.95625 72.15625 178.65625 L 72.15625 171.90625 C 72.15625 171.57625 72.45375 171.3125 72.84375 171.3125 z M 142.6875 171.34375 L 148.125 171.34375 C 148.515 171.34375 148.78125 171.69875 148.78125 171.96875 L 148.78125 178.40625 C 148.78125 178.76625 148.365 179.03125 148.125 179.03125 L 142.6875 179.03125 L 142.65625 179.03125 L 142.5625 179 L 142.5 179 C 142.38 178.94 142.03 178.7975 142 178.4375 L 142 171.96875 C 142 171.60875 142.3275 171.34375 142.6875 171.34375 z "
       xlink:href="#text6775"
       style="font-size:50.19068146px;font-style:normal;font-variant:normal;font-weight:bold;font-stretch:normal;text-indent:0;text-align:start;text-decoration:none;line-height:100%;letter-spacing:normal;word-spacing:normal;text-transform:none;direction:ltr;block-progression:tb;writing-mode:lr-tb;text-anchor:start;fill:#000000;fill-opacity:1;fill-rule:nonzero;stroke:none;stroke-width:1px;marker:none;visibility:visible;display:inline;overflow:visible;filter:url(#filter6060);enable-background:accumulate;font-family:ChollaWideBoldOS;-inkscape-font-specification:ChollaWideBoldOS Bold"
       id="path5240"
       inkscape:href="#text6775"
       d="m 193.28125,195.09375 -0.53125,0.125 c -1.5,0.36 -2.84375,1.65875 -2.84375,3.96875 l 0,17.21875 3.375,0 0,-21.3125 z M 138.5,195.4375 l 0,21 3.5,0 0,-1.125 4.96875,1.125 c 0.3,0.06 0.6725,0.125 1.0625,0.125 2.19,0 4.1875,-1.7275 4.1875,-3.4375 l 0,-7.875 c 0,-1.71 -1.9975,-3.46875 -4.1875,-3.46875 -0.36,0 -0.7325,0.065 -1.0625,0.125 L 142,203.25 l 0,-7.8125 -3.5,0 z M 49.46875,195.5 c -0.959999,0 -1.71875,0.7575 -1.71875,1.6875 l 0,19.25 3.46875,0 0,-14.25 10.59375,12.96875 c 0.539999,0.57 0.821251,1.28125 1.78125,1.28125 0.929999,0 1.71875,-0.72875 1.71875,-1.71875 l 0,-19.21875 -2.03125,0 -0.3125,0 c -0.809999,0.12 -1.03375,0.67375 -1.09375,1.09375 0,0.06 -0.03125,0.21875 -0.03125,0.21875 l 0,12.9375 -10.53125,-12.9375 c -0.539999,-0.6 -0.853751,-1.3125 -1.84375,-1.3125 z m 149.46875,0 c -1.35,0 -2.28,1.1575 -2.25,2.6875 l 0.0313,0.4375 7.15625,0 c 0.36,0 0.68875,0.23625 0.71875,0.65625 l 0,3.625 c 0,0.18 -0.0762,0.385 -0.40625,0.625 l -6.03125,3.40625 c -1.02,0.6 -1.65625,1.545 -1.65625,2.625 l 0,6 c 0,0.48 0.5575,0.875 1.1875,0.875 l 10.53125,0 0.0313,-2.625 c 0,-0.42 -0.36,-0.78125 -0.75,-0.78125 l -7.0625,0 0,-2.875 c 0,-0.54 0.26625,-0.9775 0.65625,-1.1875 l 5.71875,-3.1875 c 0.72,-0.54 1.28125,-1.38 1.28125,-2.25 l 0,-5.125 c 0,-1.14 -0.5725,-2.90625 -3.8125,-2.90625 l -5.34375,0 z m -103.96875,6.15625 c -0.899999,0 -1.35,0.7025 -1.5,1.0625 l -3.15625,7.5 c -0.06,0.18 -0.09875,1.07625 -0.21875,1.40625 -0.09,-0.36 -0.19,-1.16375 -0.25,-1.34375 l -3.21875,-7.5625 c -0.15,-0.36 -0.601251,-1.03125 -1.53125,-1.03125 -0.839999,0 -1.71875,0.63625 -1.71875,1.65625 0,0.24 0.03625,0.51125 0.15625,0.78125 l 5.25,12.3125 2.53125,0 5.28125,-12.3125 c 0.12,-0.24 0.1875,-0.48 0.1875,-0.75 0,-1.02 -0.942501,-1.71875 -1.8125,-1.71875 z m 27.78125,0.125 c -0.39,0 -0.7675,0.0337 -1.1875,0.0937 l -0.0313,0.0313 -4.15625,1.0625 0,-1.0625 -3.46875,0 0,14.53125 3.46875,0 0,-10.46875 c 0,-0.27 0.26625,-0.625 0.65625,-0.625 l 4.1875,0 c 0.33,0 0.6875,0.265 0.6875,0.625 l 0,10.46875 3.53125,0 0,-10.46875 c 0,-0.27 0.2675,-0.625 0.6875,-0.625 l 3.875,0 c 0.33,0 0.6875,0.265 0.6875,0.625 l 0,10.46875 3.5,0 0,-11.1875 c 0,-1.86 -1.49625,-3.46875 -3.65625,-3.46875 -0.36,0 -0.73875,0.0337 -1.21875,0.0937 l -0.0313,0.0313 -4.5625,1.28125 -0.15625,0 c -0.36,-0.18 -0.8925,-1.31625 -2.8125,-1.40625 z m 56.96875,0.0625 c -0.45,0 -0.73625,0.1275 -1.15625,0.1875 l -4.59375,0.71875 0,-0.84375 -3.53125,0 0,14.53125 3.53125,0 0,-10.46875 c 0,-0.3 0.36125,-0.625 0.78125,-0.625 l 6.625,0 0,-3.0625 -0.25,-0.125 c -0.39,-0.21 -0.86625,-0.3125 -1.40625,-0.3125 z m -106.40625,0.0625 c -2.609997,0 -4.625,1.9475 -4.625,4.4375 l 0,5.90625 c 0,2.49 2.015003,4.4375 4.625,4.4375 l 4.5,0 c 2.609997,0 4.625,-1.9475 4.625,-4.4375 l 0,-5.90625 c 0,-2.46 -1.985003,-4.4375 -4.625,-4.4375 l -4.5,0 z m 29.3125,0.0313 c -2.669997,0 -4.65625,2.0725 -4.65625,4.5625 l 0,5.25 c 0,2.49 1.742503,4.6875 4.5625,4.6875 l 2.09375,0 c 2.64,0 5.65625,-1.4075 5.65625,-2.9375 l 0,-0.4375 -7.75,0 c -0.57,0 -1.03125,-0.43125 -1.03125,-1.03125 l 0,-1.34375 9.84375,0 0,-4.125 c 0,-2.49 -2.0175,-4.625 -4.6875,-4.625 l -4.03125,0 z m 56.53125,0 c -2.67,0 -4.625,2.0725 -4.625,4.5625 l 0,5.25 c 0,2.49 1.7425,4.6875 4.5625,4.6875 l 2.09375,0 c 2.64,0 5.625,-1.4075 5.625,-2.9375 l 0,-0.4375 -7.71875,0 c -0.57,0 -1.0625,-0.43125 -1.0625,-1.03125 l 0,-1.34375 9.84375,0 0,-4.125 c 0,-2.49 -2.0175,-4.625 -4.6875,-4.625 l -4.03125,0 z m -56.625,3.34375 4.21875,0 c 0.57,0 1.0625,0.5225 1.0625,1.0625 l 0,1.40625 -6.3125,0 0,-1.40625 c 0,-0.54 0.46125,-1.0625 1.03125,-1.0625 z m 56.5625,0 4.1875,0 c 0.57,0 1.09375,0.5225 1.09375,1.0625 l 0,1.40625 -6.34375,0 0,-1.40625 c 0,-0.54 0.4925,-1.0625 1.0625,-1.0625 z m -86.25,0.0313 5.375,0 c 0.21,0 0.71875,0.11375 0.71875,0.59375 l 0,6.75 c 0,0.33 -0.29875,0.625 -0.71875,0.625 l -5.375,0 c -0.36,0 -0.6875,-0.325 -0.6875,-0.625 l 0,-6.75 c 0,-0.33 0.2975,-0.59375 0.6875,-0.59375 z m 69.84375,0.0313 5.4375,0 c 0.39,0 0.65625,0.355 0.65625,0.625 l 0,6.4375 c 0,0.36 -0.41625,0.625 -0.65625,0.625 l -5.4375,0 -0.0313,0 L 142.5625,213 142.5,213 c -0.12,-0.06 -0.47,-0.2025 -0.5,-0.5625 l 0,-6.46875 c 0,-0.36 0.3275,-0.625 0.6875,-0.625 z"
       transform="translate(0,1)" />
    <text
       xml:space="preserve"
       style="font-size:30px;font-style:normal;font-variant:normal;font-weight:bold;font-stretch:normal;text-indent:0;text-align:center;text-decoration:none;line-height:100%;letter-spacing:normal;word-spacing:normal;text-transform:none;direction:ltr;block-progression:tb;writing-mode:lr-tb;text-anchor:middle;fill:#ffffff;fill-opacity:1;fill-rule:nonzero;stroke:none;stroke-width:1px;marker:none;visibility:visible;display:inline;overflow:visible;enable-background:accumulate;font-family:FifthLeg;-inkscape-font-specification:FifthLeg Bold"
       x="127.51414"
       y="182.44772"
       id="text6775"
       sodipodi:linespacing="100%"><tspan
         sodipodi:role="line"
         id="tspan6777"
         x="127.51414"
         y="182.44772">November 12</tspan></text>
  </g>
</svg>
