<?xml version="1.0" encoding="UTF-8" standalone="no"?>
<!-- Created with Inkscape (http://www.inkscape.org/) -->

<svg
   xmlns:dc="http://purl.org/dc/elements/1.1/"
   xmlns:cc="http://creativecommons.org/ns#"
   xmlns:rdf="http://www.w3.org/1999/02/22-rdf-syntax-ns#"
   xmlns:svg="http://www.w3.org/2000/svg"
   xmlns="http://www.w3.org/2000/svg"
   xmlns:xlink="http://www.w3.org/1999/xlink"
   xmlns:sodipodi="http://sodipodi.sourceforge.net/DTD/sodipodi-0.dtd"
   xmlns:inkscape="http://www.inkscape.org/namespaces/inkscape"
   width="1280"
   height="1024"
   id="svg2"
   version="1.1"
   inkscape:version="0.48.2 r9819"
   sodipodi:docname="background-54.svg"
   inkscape:export-filename="/Users/zmarjanovic/Desktop/Bgs/Bg inkscape.png"
   inkscape:export-xdpi="90"
   inkscape:export-ydpi="90"
   style="enable-background:new">
  <defs
     id="defs4">
    <inkscape:path-effect
       trajectory-nodetypes="cc"
       steps="73"
       equidistant_spacing="true"
       trajectory="M 496.30923,657.08452 377.69731,634.01258"
       is_visible="true"
       id="path-effect3898"
       effect="interpolate" />
    <linearGradient
       id="linearGradient3872">
      <stop
         style="stop-color:#ffffff;stop-opacity:1;"
         offset="0"
         id="stop3874" />
      <stop
         style="stop-color:#ffffff;stop-opacity:1;"
         offset="1"
         id="stop3876" />
    </linearGradient>
    <inkscape:path-effect
       effect="interpolate"
       id="path-effect3827"
       is_visible="true"
       trajectory="M 542.79136,697.33834 645.83138,724.8366"
       equidistant_spacing="true"
       steps="73"
       trajectory-nodetypes="cc" />
    <inkscape:path-effect
       effect="interpolate"
       id="path-effect3820"
       is_visible="true"
       trajectory="M 979.96995,680.03758 964.2857,374.05961"
       equidistant_spacing="true"
       steps="22" />
    <inkscape:path-effect
       fuse_tolerance="0"
       vertical_pattern="false"
       prop_units="false"
       tang_offset="0"
       normal_offset="0"
       spacing="0"
       scale_y_rel="false"
       prop_scale="1"
       copytype="single_stretched"
       pattern="m 8.5714286,-9.2857143 c 0,-2.7599997 2.2400004,-4.9999997 5.0000004,-4.9999997 2.76,0 5,2.24 5,4.9999997 0,2.76 -2.24,5 -5,5 -2.76,0 -5.0000004,-2.24 -5.0000004,-5 z"
       is_visible="true"
       id="path-effect3817"
       effect="skeletal" />
    <inkscape:path-effect
       effect="skeletal"
       id="path-effect3813"
       is_visible="true"
       pattern="m -5.7142857,-315 c 0,-2.76 2.24,-5 4.99999999,-5 2.76000001,0 5.00000001,2.24 5.00000001,5 0,2.76 -2.24,5 -5.00000001,5 -2.75999999,0 -4.99999999,-2.24 -4.99999999,-5 z"
       copytype="single_stretched"
       prop_scale="1"
       scale_y_rel="false"
       spacing="0"
       normal_offset="0"
       tang_offset="0"
       prop_units="false"
       vertical_pattern="false"
       fuse_tolerance="0" />
    <inkscape:path-effect
       effect="interpolate"
       id="path-effect3809"
       is_visible="true"
       trajectory="m 980.00002,460.08105 37.14278,361.58746"
       equidistant_spacing="true"
       steps="36" />
    <inkscape:path-effect
       effect="interpolate"
       id="path-effect3805"
       is_visible="true"
       trajectory="M 0,0 0,0"
       equidistant_spacing="true"
       steps="5" />
    <inkscape:path-effect
       effect="interpolate"
       id="path-effect3803"
       is_visible="true"
       trajectory="M 0,0 0,0"
       equidistant_spacing="true"
       steps="18" />
    <inkscape:path-effect
       effect="skeletal"
       id="path-effect3794"
       is_visible="true"
       pattern="M 0,5 C 0,2.24 2.24,0 5,0 7.76,0 10,2.24 10,5 10,7.76 7.76,10 5,10 2.24,10 0,7.76 0,5 z"
       copytype="single_stretched"
       prop_scale="1"
       scale_y_rel="false"
       spacing="0"
       normal_offset="0"
       tang_offset="0"
       prop_units="false"
       vertical_pattern="false"
       fuse_tolerance="0" />
    <inkscape:path-effect
       effect="interpolate"
       id="path-effect3790"
       is_visible="true"
       trajectory="M 0,0 0,0"
       equidistant_spacing="true"
       steps="5" />
    <inkscape:path-effect
       effect="interpolate"
       id="path-effect3784"
       is_visible="true"
       trajectory="M 0,0 0,0"
       equidistant_spacing="true"
       steps="30" />
    <inkscape:path-effect
       fuse_tolerance="0"
       vertical_pattern="false"
       prop_units="false"
       tang_offset="0"
       normal_offset="0"
       spacing="0"
       scale_y_rel="false"
       prop_scale="1"
       copytype="single_stretched"
       pattern="m 122.85714,-97.857147 c 0,-2.760003 2.24,-5.000003 5,-5.000003 2.76,0 5,2.24 5,5.000003 0,2.76 -2.24,5 -5,5 -2.76,0 -5,-2.24 -5,-5 z"
       is_visible="true"
       id="path-effect3782"
       effect="skeletal" />
    <inkscape:path-effect
       effect="skeletal"
       id="path-effect3778"
       is_visible="true"
       pattern="m -60,-140.71429 c 0,-2.76 2.24,-5 5,-5 2.76,0 5,2.24 5,5 0,2.76 -2.24,5 -5,5 -2.76,0 -5,-2.24 -5,-5 z"
       copytype="single_stretched"
       prop_scale="1"
       scale_y_rel="false"
       spacing="0"
       normal_offset="0"
       tang_offset="0"
       prop_units="false"
       vertical_pattern="false"
       fuse_tolerance="0" />
    <linearGradient
       id="linearGradient3763">
      <stop
         id="stop3771"
         offset="0"
         style="stop-color:#7ac142;stop-opacity:1;" />
      <stop
         style="stop-color:#00843e;stop-opacity:1;"
         offset="1"
         id="stop3767" />
    </linearGradient>
    <linearGradient
       id="linearGradient3755">
      <stop
         style="stop-color:#2a7f6f;stop-opacity:1"
         offset="0"
         id="stop3757" />
      <stop
         style="stop-color:#0a2022;stop-opacity:1"
         offset="1"
         id="stop3759" />
    </linearGradient>
    <radialGradient
       inkscape:collect="always"
       xlink:href="#linearGradient3763"
       id="radialGradient3773"
       cx="-213.39397"
       cy="887.60498"
       fx="-213.39397"
       fy="887.60498"
       r="972.19574"
       gradientTransform="matrix(1.0482576,-0.85406601,0.75025722,0.88885986,464.9448,24.867713)"
       gradientUnits="userSpaceOnUse" />
    <linearGradient
       inkscape:collect="always"
       xlink:href="#linearGradient3872"
       id="linearGradient3892"
       gradientUnits="userSpaceOnUse"
       x1="-53.357166"
       y1="657.27307"
       x2="2216.2144"
       y2="577.27307"
       gradientTransform="matrix(0.75133312,0,0,0.62913282,-194.58842,334.1569)" />
    <linearGradient
       inkscape:collect="always"
       xlink:href="#linearGradient3872"
       id="linearGradient3896"
       gradientUnits="userSpaceOnUse"
       gradientTransform="matrix(-0.8879756,0.03918999,0.0724706,-0.65082871,1325.9585,994.3283)"
       x1="-53.357166"
       y1="657.27307"
       x2="2216.2144"
       y2="577.27307" />
    <filter
       id="filter3024"
       inkscape:label="Desaturate"
       x="0"
       y="0"
       width="1"
       height="1"
       inkscape:menu="Color"
       inkscape:menu-tooltip="Render in shades of gray by reducing saturation to zero"
       color-interpolation-filters="sRGB">
      <feTurbulence
         id="feTurbulence3026"
         baseFrequency="0.40000000000000002"
         numOctaves="7"
         seed="797"
         result="fbSourceGraphic" />
      <feColorMatrix
         result="fbSourceGraphicAlpha"
         in="fbSourceGraphic"
         values="0 0 0 -1 0 0 0 0 -1 0 0 0 0 -1 0 0 0 0 1 0"
         id="feColorMatrix3028" />
      <feColorMatrix
         id="feColorMatrix3030"
         type="saturate"
         values="0"
         in="fbSourceGraphic" />
    </filter>
    <filter
       inkscape:collect="always"
       id="filter3032"
       color-interpolation-filters="sRGB">
      <feBlend
         inkscape:collect="always"
         mode="multiply"
         in2="BackgroundImage"
         id="feBlend3034" />
    </filter>
    <clipPath
       clipPathUnits="userSpaceOnUse"
       id="clipPath130">
      <path
         inkscape:connector-curvature="0"
         d="M 0,612 792,612 792,0 0,0 0,612 z"
         id="path132" />
    </clipPath>
    <linearGradient
       inkscape:collect="always"
       xlink:href="#linearGradient3763"
       id="linearGradient3893"
       x1="448.57141"
       y1="1149.505"
       x2="442.85715"
       y2="415.21933"
       gradientUnits="userSpaceOnUse"
       gradientTransform="matrix(0.67385264,0,0,0.83770569,-2.7955487,159.04649)" />
  </defs>
  <sodipodi:namedview
     id="base"
     pagecolor="#ffffff"
     bordercolor="#666666"
     borderopacity="1.0"
     inkscape:pageopacity="0.0"
     inkscape:pageshadow="2"
     inkscape:zoom="1"
     inkscape:cx="678.82097"
     inkscape:cy="580.02229"
     inkscape:document-units="px"
     inkscape:current-layer="layer5"
     showgrid="false"
     inkscape:window-width="1920"
     inkscape:window-height="1032"
     inkscape:window-x="0"
     inkscape:window-y="22"
     inkscape:window-maximized="1" />
  <metadata
     id="metadata7">
    <rdf:RDF>
      <cc:Work
         rdf:about="">
        <dc:format>image/svg+xml</dc:format>
        <dc:type
           rdf:resource="http://purl.org/dc/dcmitype/StillImage" />
        <dc:title />
      </cc:Work>
    </rdf:RDF>
  </metadata>
  <g
     inkscape:label="Bg"
     inkscape:groupmode="layer"
     id="layer1"
     transform="translate(0,-28.36218)"
     style="display:inline"
     sodipodi:insensitive="true">
    <rect
       style="fill:url(#linearGradient3893);fill-opacity:1;fill-rule:nonzero;stroke:#0a2022;stroke-width:1.17218339;stroke-linecap:butt;stroke-linejoin:bevel;stroke-miterlimit:4;stroke-opacity:1;stroke-dasharray:none;stroke-dashoffset:0"
       id="rect2985"
       width="1309.1995"
       height="1054.3246"
       x="-8.5714283"
       y="25.177599"
       inkscape:export-xdpi="90"
       inkscape:export-ydpi="90" />
  </g>
  <g
     inkscape:groupmode="layer"
     id="layer5"
     inkscape:label="logo"
     transform="translate(0,-176)">
    <g
       style="display:inline"
       transform="matrix(2.6546234,0,0,-2.6546234,522.97624,733.09252)"
       id="g126">
      <g
         id="g128"
         clip-path="url(#clipPath130)">
        <g
           id="g134"
           transform="translate(210.3418,147.9902)">
          <path
             inkscape:connector-curvature="0"
             d="m 0,0 c -0.049,0.006 -4.881,0.703 -4.926,0.711 -0.847,0.135 -1.281,0.557 -1.281,1.244 0,0.69 0.598,1.08 1.088,1.08 l 7.984,0 0,2.983 -7.969,0 c -2.531,0 -4.275,-1.922 -4.275,-4.063 0,-1.873 1.127,-3.812 3.699,-4.213 0.045,-0.006 4.881,-0.707 4.928,-0.715 0.848,-0.132 1.281,-0.55 1.281,-1.24 0,-0.691 -0.597,-1.078 -1.09,-1.078 l -5.835,0 0,-0.002 c -1.182,-0.041 -2.428,-0.945 -2.428,-2.721 l 0,-0.265 8.252,0 c 2.527,0 4.273,1.924 4.273,4.066 C 3.701,-2.34 2.578,-0.4 0,0 m 42.389,3.035 c 1.183,0.037 2.429,0.944 2.429,2.717 l 0,0.266 -8.64,0 C 33.646,6.018 31.9,4.096 31.9,1.955 l 0,-6.168 c 0,-2.142 1.746,-4.066 4.278,-4.066 l 8.64,0 0,0.265 c 0,1.776 -1.246,2.68 -2.429,2.721 l 0,0.002 -6.229,0 c -0.49,0 -1.086,0.387 -1.086,1.078 0,0.69 0.451,1.24 1.278,1.24 l 2.701,0 c 2.375,0.014 3.746,1.471 4.177,3.135 l -6.494,0 c -1.17,0 -1.662,-0.928 -1.662,-0.928 l 0,2.721 c 0,0.69 0.594,1.08 1.086,1.08 l 6.229,0 z m -28.381,2.986 0,-8.501 c 0,-1.774 -1.44,-3.217 -3.215,-3.217 -1.779,0 -3.215,1.443 -3.215,3.217 l 0,8.501 -3.099,0 0,-8.324 c 0,-3.484 2.826,-6.312 6.314,-6.312 3.484,0 6.312,2.828 6.312,6.312 l 0,8.324 -3.097,0 z M 31.086,-4.213 c 0,-2.142 -1.746,-4.066 -4.272,-4.066 l -7.972,0 0,2.988 7.988,0 c 0.492,0 1.084,0.387 1.084,1.078 0,0.69 -0.434,1.108 -1.281,1.24 -0.045,0.008 -4.881,0.709 -4.928,0.715 -2.576,0.401 -3.697,2.34 -3.697,4.213 0,2.141 1.744,4.063 4.273,4.063 l 7.973,0 0,-2.983 -7.988,0 c -0.491,0 -1.086,-0.39 -1.086,-1.08 0,-0.687 0.429,-1.109 1.279,-1.244 0.047,-0.008 4.883,-0.705 4.928,-0.711 2.576,-0.4 3.699,-2.34 3.699,-4.213"
             style="fill:#ffffff;fill-opacity:1;fill-rule:nonzero;stroke:none"
             id="path136" />
        </g>
        <g
           id="g138"
           transform="translate(222.125,166.3164)">
          <path
             inkscape:connector-curvature="0"
             d="M 0,0 C 0.018,0.625 0.283,1.205 0.74,1.631 1.195,2.057 1.791,2.277 2.416,2.258 3.705,2.211 4.719,1.125 4.676,-0.164 4.652,-0.789 4.391,-1.365 3.936,-1.793 3.479,-2.221 2.881,-2.441 2.256,-2.42 0.969,-2.371 -0.043,-1.287 0,0 m -3.758,4.523 c 0,0 -0.017,-1.134 -0.019,-1.261 -0.565,0.185 -4.625,1.498 -8.434,1.633 -3.225,0.111 -7.633,0.265 -13.863,-3.561 l -0.184,-0.117 c -2.928,-1.828 -4.949,-4.08 -6.01,-6.701 -0.332,-0.825 -0.777,-2.686 -0.337,-4.434 0.191,-0.764 0.548,-1.531 1.027,-2.223 1.082,-1.552 2.896,-2.584 4.851,-2.757 2.76,-0.245 4.852,0.994 5.596,3.314 0.512,1.604 0,3.951 -1.959,5.15 -1.594,0.977 -3.31,0.754 -4.303,0.098 -0.863,-0.572 -1.353,-1.461 -1.343,-2.439 0.021,-1.727 1.511,-2.649 2.582,-2.649 0.312,0 0.627,0.051 0.98,0.17 0.125,0.035 0.24,0.082 0.373,0.164 l 0.041,0.026 0.026,0.013 -0.008,-0.004 c 0.246,0.166 0.392,0.438 0.392,0.727 0,0.082 -0.013,0.16 -0.035,0.242 -0.125,0.436 -0.562,0.703 -1.011,0.619 l -0.057,-0.01 -0.082,-0.027 -0.121,-0.039 c -0.246,-0.064 -0.432,-0.068 -0.471,-0.07 -0.127,0.009 -0.746,0.195 -0.746,0.871 l 0,0.008 c 0.004,0.246 0.103,0.421 0.158,0.515 0.19,0.301 0.715,0.598 1.428,0.535 0.932,-0.08 1.601,-0.56 2.049,-1.459 0.412,-0.837 0.304,-1.867 -0.278,-2.623 -0.582,-0.754 -1.611,-1.072 -2.986,-0.922 -1.383,0.153 -2.553,0.95 -3.211,2.19 -0.639,1.209 -0.676,2.646 -0.092,3.752 1.403,2.644 4.051,2.615 5.498,2.367 2.065,-0.355 5.194,-2.205 6.364,-6.484 l 2.853,0 c -0.351,1.092 -0.555,4.248 2.656,4.248 3.524,0 3.969,-2.481 4.963,-4.248 l 3.024,0 c -0.795,1.138 -1.352,2.404 -1.174,3.47 0.26,1.571 1.51,1.43 3.244,1.235 0.564,-0.067 1.209,-0.139 1.875,-0.155 1.861,-0.011 3.549,0.333 4.781,0.87 0.799,0.349 1.307,0.58 1.629,0.869 0.113,0.095 0.174,0.252 0.235,0.416 l 0.041,0.113 c 0.056,0.133 0.119,0.418 0.162,0.572 0.082,0.315 -0.2,0.149 -0.2,0.149 C 5.607,-3.65 4.248,-4.268 2.982,-4.293 1.41,-4.326 -1.756,-2.715 -2.09,-2.541 l -0.029,0.037 c -0.08,0.188 -0.557,1.315 -0.654,1.551 2.279,-1.504 4.169,-2.332 5.619,-2.461 1.611,-0.145 2.869,0.736 3.406,1.111 0.053,0.039 0.269,0.18 0.221,0.356 C 6.262,-1.215 5.537,1.238 4.934,1.859 4.758,2.041 4.621,2.215 4.33,2.381 2.027,3.725 -3.439,4.537 -3.697,4.574 c 0,0 -0.061,0.016 -0.061,-0.051"
             style="fill:#ffffff;fill-opacity:1;fill-rule:nonzero;stroke:none"
             id="path140" />
        </g>
        <g
           id="g142"
           transform="translate(224.7891,166.0996)">
          <path
             inkscape:connector-curvature="0"
             d="m 0,0 c -0.4,0 -0.725,0.217 -0.725,0.482 0,0.27 0.325,0.485 0.725,0.485 0.4,0 0.725,-0.215 0.725,-0.485 C 0.725,0.217 0.4,0 0,0 M -0.266,1.787 C -0.703,1.803 -1.119,1.646 -1.432,1.35 -1.754,1.053 -1.938,0.648 -1.949,0.215 c -0.031,-0.903 0.672,-1.66 1.57,-1.692 0.438,-0.013 0.852,0.141 1.172,0.438 0.318,0.297 0.504,0.699 0.518,1.137 0.029,0.9 -0.676,1.656 -1.577,1.689"
             style="fill:#ffffff;fill-opacity:1;fill-rule:nonzero;stroke:none"
             id="path144" />
        </g>
        <g
           id="g146"
           transform="translate(257.1514,140.8809)">
          <path
             inkscape:connector-curvature="0"
             d="m 0,0 c 0,-0.08 -0.057,-0.135 -0.161,-0.135 l -0.21,0 0,0.272 0.205,0 C -0.063,0.137 0,0.09 0,0 m 0.208,0.014 c 0,0.191 -0.141,0.304 -0.368,0.304 l -0.418,0 0,-0.929 0.207,0 0,0.298 0.164,0 0.202,-0.298 0.243,0 -0.231,0.334 c 0.122,0.043 0.201,0.136 0.201,0.291 m 0.364,-0.182 c 0,-0.432 -0.339,-0.783 -0.788,-0.783 -0.445,0 -0.78,0.347 -0.78,0.777 0,0.43 0.337,0.781 0.785,0.781 0.448,0 0.783,-0.349 0.783,-0.775 m 0.204,0 c 0,0.533 -0.432,0.971 -0.987,0.971 -0.554,0 -0.99,-0.444 -0.99,-0.977 0,-0.535 0.43,-0.974 0.985,-0.974 0.553,0 0.992,0.445 0.992,0.98"
             style="fill:#ffffff;fill-opacity:1;fill-rule:nonzero;stroke:none"
             id="path148" />
        </g>
      </g>
    </g>
  </g>
  <g
     inkscape:groupmode="layer"
     id="layer4"
     inkscape:label="noise"
     style="opacity:0.16712329;display:none;filter:url(#filter3032)"
     sodipodi:insensitive="true"
     transform="translate(0,-176)">
    <rect
       style="fill:#144156;fill-opacity:1;fill-rule:nonzero;stroke:none;filter:url(#filter3024)"
       id="rect3020"
       width="1959.6959"
       height="1276.8328"
       x="-14.142136"
       y="-14.203351" />
  </g>
  <g
     inkscape:groupmode="layer"
     id="layer2"
     inkscape:label="net front"
     style="opacity:0.32327618;display:inline"
     transform="translate(0,-176)">
    <path
       id="path3824"
       style="fill:none;stroke:url(#linearGradient3892);stroke-width:0.68752331px;stroke-linecap:butt;stroke-linejoin:miter;stroke-opacity:1"
       d="m -302.99506,431.49625 c 86.70841,2.39193 186.64852,1.13615 261.893244,43.14053 55.843489,31.1739 94.914536,77.66845 126.899478,129.74967 63.969888,104.16245 99.595348,230.67161 184.367098,301.65569 96.08244,80.45509 267.29292,-167.92762 375.19627,-312.983 53.95167,-72.5277 92.07657,-119.22356 97.07028,-86.06696 50.45359,334.99589 249.56667,733.07392 646.14649,185.14481 M -302.60747,437.43522 c 90.00219,1.71276 193.75915,0.30803 271.16741,40.98945 56.13742,30.4944 95.513537,76.03298 127.580041,126.97797 63.941579,102.0403 99.725589,226.54045 184.042769,296.43174 95.47079,79.23076 265.09567,-165.66404 372.63851,-308.80008 53.97416,-71.58499 92.22508,-117.36759 97.71458,-84.28892 51.44827,331.49089 248.67776,726.24852 640.51656,183.48863 M -302.21987,443.37419 c 93.29596,1.03358 200.86976,-0.52009 280.441566,38.83837 56.43135,29.81491 96.112539,74.39752 128.260604,124.20627 63.91328,99.91814 99.85582,222.40929 183.71845,291.2078 94.85914,78.00642 262.89842,-163.40048 370.08075,-304.61716 53.99664,-70.64229 92.37359,-115.51162 98.35887,-82.51089 52.44295,327.98589 247.78883,719.42302 634.88663,181.83245 M -301.83228,449.31316 c 96.58975,0.35441 207.98039,-1.34822 289.715732,36.68728 56.725281,29.13542 96.71154,72.76207 128.941168,121.43458 63.88498,97.79599 99.98605,218.27813 183.39412,285.98385 94.24749,76.7821 260.70117,-161.13691 367.52299,-300.43423 54.01913,-69.69959 92.5221,-113.65565 99.00317,-80.73286 53.43764,324.48089 246.8999,712.59762 629.2568,180.17627 M -301.44469,455.25213 c 99.88353,-0.32477 215.091017,-2.17634 298.9898983,34.5362 57.0192117,28.45592 97.3105417,71.1266 129.6217317,118.66288 63.85667,95.67384 100.11628,214.14697 183.0698,280.7599 93.63584,75.55777 258.50391,-158.87334 364.96523,-296.2513 54.04161,-68.75689 92.67061,-111.79969 99.64746,-78.95483 54.43232,320.97588 246.01097,705.77222 623.62687,178.52009 M -301.0571,461.19109 c 103.17731,-1.00394 222.201644,-3.00445 308.2640644,32.38512 57.3131426,27.77644 97.9095456,69.49115 130.3022956,115.8912 63.82837,93.55167 100.24651,210.0158 182.74547,275.53594 93.02419,74.33344 256.30667,-156.60976 362.40747,-292.06838 54.0641,-67.81419 92.81912,-109.94371 100.29176,-77.17679 55.427,317.47088 245.12214,698.94682 617.99694,176.86392 M -300.6695,467.13006 c 106.47108,-1.68311 229.312261,-3.83257 317.53822,30.23404 57.607074,27.09694 98.50854,67.85569 130.98286,113.1195 63.80007,91.42952 100.37674,205.88464 182.42115,270.312 92.41253,73.10911 254.10941,-154.3462 359.84971,-287.88546 54.08658,-66.87149 92.96763,-108.08775 100.93605,-75.39876 56.42168,313.96588 244.23321,692.12142 612.36711,175.20774 M -300.28191,473.06903 c 109.76487,-2.36229 236.422888,-4.6607 326.812387,28.08296 57.901004,26.41744 99.107543,66.22023 131.663423,110.3478 63.77177,89.30737 100.50698,201.75348 182.09682,265.08805 91.80089,71.88478 251.91217,-152.08263 357.29195,-283.70253 54.10907,-65.92879 93.11614,-106.23178 101.58035,-73.62073 57.41636,310.46088 243.34428,685.29602 606.73718,173.55156 M -299.89432,479.008 c 113.05865,-3.04146 243.533515,-5.48882 336.086553,25.93187 58.194935,25.73796 99.706547,64.58477 132.343987,107.57611 63.74346,87.18522 100.63721,197.62232 181.77249,259.8641 91.18924,70.66045 249.71492,-149.81906 354.7342,-279.51961 54.13155,-64.98608 93.26465,-104.3758 102.22464,-71.84269 58.41104,306.95588 242.45535,678.47052 601.10725,171.89538 M -299.50672,484.94697 c 116.35242,-3.72064 250.644133,-6.31694 345.360709,23.78079 58.488861,25.05846 100.305551,62.94931 133.024541,104.80441 63.71517,85.06306 100.76745,193.49116 181.44818,254.64015 90.57759,69.43612 247.51766,-147.55549 352.17643,-275.33668 54.15404,-64.04338 93.41316,-102.51984 102.86894,-70.06466 59.40573,303.45087 241.56642,671.64512 595.47732,170.2392 M -299.11913,490.88594 c 119.6462,-4.39981 257.75476,-7.14506 354.634875,21.62971 58.782795,24.37896 100.904545,61.31385 133.705105,102.03271 63.68687,82.94091 100.89768,189.36 181.12385,249.41621 89.96594,68.21179 245.32042,-145.29192 349.61868,-271.15376 54.17652,-63.10069 93.56167,-100.66387 103.51323,-68.28663 60.40041,299.94587 240.67749,664.81972 589.84749,168.58302 M -298.73154,496.8249 c 122.93998,-5.07898 264.865387,-7.97318 363.909041,19.47863 59.076729,23.69948 101.503549,59.67839 134.385669,99.26102 63.65856,80.81876 101.02791,185.22884 180.79953,244.19226 89.35428,66.98746 243.12316,-143.02835 347.06091,-266.97083 54.19901,-62.15799 93.71018,-98.80791 104.15753,-66.5086 61.39509,296.44087 239.78866,657.99432 584.21756,166.92684 M -298.34394,502.76387 c 126.23376,-5.75816 271.976004,-8.8013 373.183197,17.32755 59.370663,23.01998 102.102553,58.04293 135.066233,96.48932 63.63026,78.69661 101.15814,181.09768 180.4752,238.96831 88.74264,65.76313 240.92591,-140.76478 344.50316,-262.78791 54.22149,-61.21528 93.85869,-96.95193 104.80182,-64.73056 62.38977,292.93587 238.89973,651.16892 578.58763,165.27066 M -297.95635,508.70284 c 129.52754,-6.43733 279.086631,-9.62942 382.457363,15.17647 59.664587,22.34048 102.701557,56.40747 135.746797,93.71762 63.60196,76.57445 101.28838,176.96652 180.15088,233.74436 88.13098,64.5388 238.72866,-138.50121 341.94539,-258.60498 54.24398,-60.27258 94.0072,-95.09597 105.44612,-62.95253 63.38445,289.43086 238.0108,644.34352 572.9578,163.61448 M -297.56876,514.64181 c 132.82132,-7.11651 286.197258,-10.45755 391.731529,13.02538 59.958521,21.661 103.300551,54.77201 136.427361,90.94593 63.57365,74.4523 101.41861,172.83536 179.82655,228.52042 87.51934,63.31447 236.53141,-136.23764 339.38763,-254.42206 54.26647,-59.32989 94.15572,-93.24 106.09042,-61.1745 64.37914,285.92586 237.12187,637.51802 567.32787,161.9583 M -297.18117,520.58078 c 136.1151,-7.79568 293.3078856,-11.28567 401.0057,10.8743 60.25245,20.9815 103.89955,53.13655 137.10792,88.17424 63.54535,72.33014 101.54884,168.70419 179.50223,223.29646 86.90768,62.09014 234.33416,-133.97407 336.82987,-250.23913 54.28895,-58.38719 94.30422,-91.38403 106.73471,-59.39646 65.37382,282.42085 236.23294,630.69261 561.69794,160.30211 M -296.79357,526.51975 c 139.40888,-8.47486 300.4185028,-12.11379 410.27985,8.72321 60.54638,20.30201 104.49856,51.5011 137.78849,85.40255 63.51705,70.20798 101.67907,164.57303 179.1779,218.07251 86.29603,60.86581 232.13691,-131.7105 334.27211,-246.05621 54.31144,-57.44448 94.45274,-89.52806 107.37901,-57.61842 66.3685,278.91585 235.34401,623.86721 556.06811,158.64593 M -296.40598,532.45872 c 142.70266,-9.15403 307.52913,-12.94191 419.55402,6.57213 60.84031,19.62252 105.09756,49.86564 138.46905,82.63085 63.48875,68.08583 101.8093,160.44187 178.85357,212.84856 85.68439,59.64149 229.93966,-129.44693 331.71436,-241.87328 54.33392,-56.50178 94.60124,-87.67209 108.0233,-55.84039 67.36318,275.41085 234.45518,617.04181 550.43818,156.98975 M -296.01839,538.39768 c 145.99644,-9.8332 314.639757,-13.77003 428.82818,4.42106 61.13425,18.94302 105.69656,48.23017 139.14962,79.85915 63.46044,65.96368 101.93954,156.31071 178.52925,207.62461 85.07273,58.41716 227.74241,-127.18336 329.15659,-237.69035 54.35641,-55.55908 94.74976,-85.81613 108.6676,-54.06236 68.35786,271.90584 233.56625,610.21641 544.80825,155.33357 M -295.63079,544.33665 c 149.29021,-10.51238 321.750374,-14.59815 438.10234,2.26997 61.42817,18.26353 106.29556,46.59472 139.83018,77.08746 63.43214,63.84153 102.06977,152.17955 178.20492,202.40067 84.46109,57.19282 225.54516,-124.91979 326.59884,-233.50744 54.37889,-54.61638 94.89827,-83.96015 109.31189,-52.28432 69.35254,268.40084 232.67732,603.39101 539.17832,153.67739 M -295.2432,550.27562 c 152.58399,-11.19155 328.861001,-15.42627 447.37651,0.11889 61.7221,17.58404 106.89456,44.95926 140.51074,74.31576 63.40384,61.71937 102.2,148.04839 177.8806,197.17672 83.84943,55.96849 223.3479,-122.65622 324.04107,-229.32451 54.40138,-53.67368 95.04678,-82.10419 109.95619,-50.50629 70.34723,264.89584 231.78839,596.56551 533.54849,152.02121 M -294.85561,556.21459 c 155.87778,-11.87073 335.971629,-16.25439 456.65067,-2.03219 62.01604,16.90454 107.49357,43.32379 141.19131,71.54406 63.37553,59.59722 102.33023,143.91723 177.55627,191.95277 83.23778,54.74417 221.15066,-120.39265 321.48332,-225.14158 54.42386,-52.73098 95.19529,-80.24822 110.60048,-48.72826 71.34191,261.39084 230.89946,589.74011 527.91856,150.36504 M -294.46801,562.15356 c 159.17155,-12.5499 343.082246,-17.08252 465.92483,-4.18328 62.30996,16.22505 108.09256,41.68834 141.87186,68.77237 63.34724,57.47507 102.46047,139.78607 177.23196,186.72882 82.62613,53.51984 218.9534,-118.12908 318.92555,-220.95865 54.44635,-51.78828 95.3438,-78.39225 111.24478,-46.95023 72.33659,257.88584 230.01053,582.91471 522.28863,148.70886 M -294.08042,568.09253 c 162.46533,-13.22908 350.192873,-17.91064 475.19899,-6.33436 62.6039,15.54556 108.69157,40.05288 142.55243,66.00067 63.31894,55.35292 102.5907,135.65491 176.90763,181.50488 82.01448,52.2955 216.75615,-115.86552 316.3678,-216.77574 54.46883,-50.84557 95.49231,-76.53628 111.88907,-45.17219 73.3313,254.38083 229.1216,576.08931 516.6588,147.05268 M -293.69283,574.03149 c 165.75911,-13.90824 357.3035,-18.73875 484.47316,-8.48543 62.89783,14.86606 109.29057,38.41742 143.23299,63.22898 63.29063,53.23075 102.72094,131.52374 176.5833,176.28092 81.40284,51.07117 214.55891,-113.60194 313.81004,-212.59281 54.49132,-49.90288 95.64082,-74.68031 112.53337,-43.39416 74.32597,250.87583 228.23277,569.26391 511.02887,145.3965 M -293.30524,579.97046 c 169.0529,-14.58742 364.414127,-19.56688 493.74733,-10.63652 63.19176,14.18657 109.88957,36.78196 143.91355,60.45729 63.26233,51.1086 102.85117,127.39258 176.25898,171.05697 80.79118,49.84685 212.36165,-111.33837 311.25228,-208.40988 54.5138,-48.96018 95.78933,-72.82435 113.17766,-41.61613 75.32064,247.37083 227.34384,562.43841 505.39894,143.74032 M -292.91764,585.90943 c 172.34667,-15.2666 371.524744,-20.395 503.02148,-12.7876 63.48569,13.50708 110.48857,35.1465 144.59412,57.68559 63.23403,48.98645 102.9814,123.26142 175.93465,165.83302 80.17953,48.62252 210.16441,-109.0748 308.69452,-204.22696 54.53629,-48.01747 95.93784,-70.96837 113.82196,-39.83809 76.31531,243.86583 226.45491,555.61301 499.76911,142.08414 M -292.53005,591.8484 c 175.64045,-15.94577 378.635372,-21.22312 512.29565,-14.93868 63.77962,12.82758 111.08757,33.51104 145.27468,54.91389 63.20573,46.86429 103.11163,119.13026 175.61033,160.60908 79.56788,47.39818 207.96715,-106.81124 306.13676,-200.04404 54.55877,-47.07477 96.08635,-69.11241 114.46625,-38.06006 77.30998,240.36082 225.56598,548.78761 494.13918,140.42796 M -292.14246,597.78737 c 178.93423,-16.62495 385.745999,-22.05124 521.56981,-17.08977 64.07356,12.14809 111.68658,31.87558 145.95525,52.1422 63.17742,44.74214 103.24186,114.9991 175.286,155.38513 78.95623,46.17386 205.7699,-104.54766 303.579,-195.86111 54.58126,-46.13207 96.23486,-67.25644 115.11055,-36.28203 78.30465,236.85582 224.67705,541.96221 488.50925,138.77178 M -291.75486,603.72634 c 182.228,-17.30412 392.85662,-22.87937 530.84397,-19.24085 64.36748,11.4686 112.28558,30.24012 146.63581,49.3705 63.14912,42.61999 103.37209,110.86794 174.96168,150.16118 78.34458,44.94953 203.57265,-102.28409 301.02123,-191.67818 54.60375,-45.18938 96.38338,-65.40047 115.75485,-34.504 79.29932,233.35082 223.78812,535.13681 482.87932,137.1156 M -291.36727,609.6653 c 185.52179,-17.98329 399.96724,-23.70748 540.11814,-21.39193 64.66141,10.78911 112.88457,28.60467 147.31637,46.59881 63.12082,40.49784 103.50233,106.73678 174.63735,144.93723 77.73293,43.7252 201.3754,-100.02052 298.46348,-187.49526 54.62623,-44.24667 96.53188,-63.5445 116.39914,-32.72596 80.29409,229.84582 222.89929,528.31141 477.24949,135.45942 M -290.97968,615.60427 c 188.81557,-18.66246 407.07787,-24.5356 549.3923,-23.54301 64.95535,10.10961 113.48358,26.9692 147.99694,43.82711 63.09251,38.37568 103.63256,102.60562 174.31303,139.71329 77.12127,42.50086 199.17814,-97.75696 295.90571,-183.31234 54.64872,-43.30397 96.6804,-61.68853 117.04344,-30.94793 81.28876,226.34082 222.01036,521.48591 471.61956,133.80324 M -290.59208,621.54324 c 192.109341,-19.34164 414.18849,-25.36372 558.66646,-25.69409 65.24927,9.43012 114.08258,25.33374 148.6775,41.05541 63.06421,36.25353 103.76279,98.47446 173.9887,134.48934 76.50963,41.27654 196.9809,-95.49339 293.34796,-179.12941 54.6712,-42.36127 96.8289,-59.83257 117.68776,-29.1699 82.2834,222.83581 221.1214,514.66051 465.9896,132.14706 M -290.20449,627.48221 c 195.403123,-20.02081 421.29911,-26.19185 567.94062,-27.84518 65.54321,8.75063 114.68159,23.69829 149.35807,38.28372 63.03591,34.13138 103.89302,94.34331 173.66437,129.26539 75.89798,40.05221 194.78365,-93.22981 290.7902,-174.94648 54.69369,-41.41857 96.97742,-57.9766 118.33203,-27.39187 83.2781,219.33081 220.2325,507.83511 460.3598,130.49088 M -289.8169,633.42118 c 198.696906,-20.69999 428.40974,-27.01997 577.21479,-29.99626 65.83714,8.07113 115.28058,22.06283 150.03863,35.51203 63.0076,32.00922 104.02325,90.21214 173.34005,124.04143 75.28633,38.82788 192.5864,-90.96624 288.23244,-170.76356 54.71617,-40.47587 97.12592,-56.12062 118.97629,-25.61383 84.2728,215.82581 219.3436,501.00971 454.7299,128.8347 M -289.42931,639.36015 c 201.990688,-21.37917 435.52037,-27.84809 586.48896,-32.14734 66.13106,7.39164 115.87958,20.42736 150.71918,32.74033 62.97931,29.88706 104.15349,86.08098 173.01573,118.81748 74.67468,37.60356 190.38915,-88.70267 285.67468,-166.58063 54.73865,-39.53317 97.27446,-54.26466 119.62066,-23.8358 85.2674,212.32081 218.4546,494.18431 449.0999,127.17852 m -1764.23151,-50.2336 c 205.28446,-22.05833 442.63099,-28.67621 595.76311,-34.29842 66.425,6.71215 116.47859,18.79191 151.39975,29.96864 62.95101,27.76491 104.28373,81.94982 172.69141,113.59354 74.06302,36.37922 188.19189,-86.43911 283.11692,-162.39771 54.76113,-38.59047 97.42292,-52.40869 120.26492,-22.05777 86.2621,208.81581 217.5658,487.35891 443.4701,125.52234 M -288.65412,651.23808 c 208.578242,-22.73751 449.74161,-29.50433 605.03728,-36.4495 66.71893,6.03265 117.07759,17.15645 152.08031,27.19694 62.92271,25.64276 104.41396,77.81866 172.36708,108.36959 73.45138,35.15489 185.99465,-84.17553 280.55916,-158.21479 54.78362,-37.64776 97.57149,-50.55272 120.90919,-20.27973 87.2568,205.3108 216.6769,480.53341 437.8402,123.86617 M -288.26653,657.17705 c 211.872024,-23.41668 456.85224,-30.33245 614.31144,-38.60058 67.01287,5.35316 117.67659,15.52098 152.76088,24.42524 62.8944,23.5206 104.54419,73.6875 172.04276,103.14564 72.83972,33.93056 183.79739,-81.91196 278.0014,-154.03186 54.8061,-36.70506 97.71995,-48.69675 121.55355,-18.5017 88.2514,201.8058 215.7879,473.70801 432.2102,122.20999 M -287.87893,663.11602 c 215.165797,-24.09586 463.96286,-31.16057 623.5856,-40.75167 67.30679,4.67367 118.27559,13.88553 153.44144,21.65355 62.8661,21.39845 104.67442,69.55634 171.71843,97.92169 72.22808,32.70624 181.60014,-79.64839 275.44364,-149.84893 54.82859,-35.76237 97.86852,-46.84079 122.19782,-16.72367 89.2462,198.3008 214.899,466.88261 426.5803,120.55381 M -287.49134,669.05499 c 218.459579,-24.77503 471.07348,-31.9887 632.85977,-42.90275 67.60072,3.99417 118.87459,12.25007 154.122,18.88185 62.8378,19.2763 104.80465,65.42518 171.3941,92.69775 71.61643,31.4819 179.4029,-77.38483 272.88589,-145.66601 54.85107,-34.81967 98.01698,-44.98482 122.84208,-14.94564 90.2409,194.7958 214.0101,460.05721 420.9505,118.89763 M -287.10375,674.99396 c 221.753361,-25.45421 478.18411,-32.81682 642.13393,-45.05384 67.89466,3.31469 119.4736,10.61462 154.80257,16.11016 62.80949,17.15415 104.93489,61.29402 171.06978,87.4738 71.00477,30.25757 177.20564,-75.12126 270.32812,-141.48309 54.87355,-33.87696 98.16545,-43.12884 123.48635,-13.1676 91.2356,191.29079 213.1212,453.23181 415.3206,117.24145 M -286.71615,680.93292 c 225.047133,-26.13338 485.29473,-33.64493 651.40809,-47.20491 68.18858,2.63519 120.07259,8.97915 155.48313,13.33846 62.78119,15.03199 105.06512,57.16286 170.74545,82.24985 70.39313,29.03324 175.00839,-72.85768 267.77037,-137.30016 54.89601,-32.93426 98.31401,-41.27288 124.13071,-11.38957 92.2302,187.78579 212.2322,446.40641 409.6906,115.58527 M -286.32856,686.87189 C -57.987644,660.05934 206.0768,652.39884 374.3537,637.5159 c 68.48251,1.95569 120.67159,7.34369 156.16369,10.56677 62.75289,12.90983 105.19535,53.03169 170.42113,77.02589 69.78147,27.80892 172.81114,-70.59411 265.2126,-133.11723 54.91858,-31.99156 98.46248,-39.41691 124.77498,-9.61154 93.2249,184.28079 211.3434,439.58091 404.0608,113.92909 m -1780.92787,-3.49802 c 231.634698,-27.49173 499.51598,-35.30118 669.95642,-51.50708 68.77645,1.27621 121.2706,5.70824 156.84426,7.79508 62.72458,10.78768 105.32558,48.90053 170.0968,71.80195 69.16983,26.58458 170.61389,-68.33055 262.65484,-128.93432 54.94105,-31.04886 98.61105,-37.56094 125.41925,-7.8335 94.2196,180.77579 210.4545,432.75551 398.4309,112.27291 m -1783.01488,2.34393 c 234.92848,-28.1709 506.62661,-36.1293 679.23059,-53.65816 69.07037,0.59671 121.8696,4.07277 157.52482,5.02338 62.69628,8.66553 105.45581,44.76937 169.77248,66.578 68.55817,25.36025 168.41664,-66.06698 260.09708,-124.75139 54.96351,-30.10616 98.75951,-35.70497 126.06361,-6.05547 95.2142,177.27079 209.5655,425.93011 392.8009,110.61673 m -1785.10188,8.18588 c 238.222252,-28.85008 513.73723,-36.95742 688.50474,-55.80924 69.36431,-0.0828 122.4686,2.43731 158.20539,2.25168 62.66798,6.54337 105.58604,40.63821 169.44815,61.35405 67.94652,24.13593 166.21939,-63.80341 257.53932,-120.56846 54.98598,-29.16346 98.90808,-33.84901 126.70788,-4.27744 96.2089,173.76578 208.6766,419.10471 387.1711,108.96055 m -1787.18899,14.02783 c 241.516034,-29.52925 520.84786,-37.78555 697.77891,-57.96033 69.65824,-0.76227 123.0676,0.80186 158.88594,-0.52001 62.63969,4.42122 105.71629,36.50705 169.12383,56.1301 67.33488,22.9116 164.02214,-61.53983 254.98157,-116.38553 55.00844,-28.22076 99.05654,-31.99304 127.35214,-2.49941 97.2037,170.26078 207.7877,412.27931 381.5412,107.30437 m -1789.276,19.86978 c 244.809817,-30.20843 527.95848,-38.61367 707.05308,-60.11141 69.95216,-1.44177 123.6666,-0.83361 159.5665,-3.29171 62.61138,2.29907 105.84652,32.37589 168.79951,50.90616 66.72322,21.68726 161.82489,-59.27627 252.42381,-112.20262 55.031,-27.27805 99.2051,-30.13706 127.9965,-0.72137 98.1983,166.75578 206.8987,405.45387 375.9112,105.64819 M -284.003,722.5057 c 248.103589,-30.8876 535.0691,-39.44178 716.32723,-62.26248 70.2461,-2.12127 124.26561,-2.46907 160.24707,-6.06341 62.58308,0.17691 105.97675,28.24473 168.47518,45.68221 66.11158,20.46293 159.62764,-57.0127 249.86602,-108.01969 55.0535,-26.33536 99.3536,-28.2811 128.6408,1.05666 99.193,163.25078 206.0099,398.62845 370.2813,103.99201 m -1793.45001,31.55367 c 251.397371,-31.56677 542.17973,-40.2699 725.6014,-64.41357 70.54003,-2.80075 124.8646,-4.10452 160.92763,-8.8351 62.55478,-1.94524 106.10698,24.11357 168.15086,40.45826 65.49992,19.23861 157.43038,-54.74913 247.30832,-103.83676 55.0759,-25.39266 99.5021,-26.42513 129.285,2.83469 100.1877,159.74578 205.121,391.80303 364.6515,102.33583 m -1795.53712,37.39562 c 254.691153,-32.24595 549.29035,-41.09803 734.87556,-66.56465 70.83397,-3.48025 125.46361,-5.73998 161.6082,-11.6068 62.52647,-4.06739 106.23721,19.98241 167.82653,35.23431 64.88827,18.01428 155.23314,-52.48555 244.75053,-99.65383 55.0984,-24.44996 99.6506,-24.56917 129.9293,4.61272 101.1824,156.24077 204.2321,384.97762 359.0216,100.67965 m -1797.62412,43.23757 c 257.984926,-32.92512 556.40097,-41.92615 744.14972,-68.71574 71.12789,-4.15974 126.06261,-7.37544 162.28876,-14.37848 62.49817,-6.18955 106.36744,15.85124 167.50221,30.01035 64.27662,16.78995 153.03588,-50.22198 242.19273,-95.47091 55.1209,-23.50725 99.7991,-22.71319 130.5737,6.39076 102.177,152.73577 203.3431,378.1522 353.3916,99.02347 m -1799.71113,49.07952 c 261.278708,-33.6043 563.5116,-42.75427 753.42389,-70.86682 71.42182,-4.83923 126.66161,-9.0109 162.96932,-17.15018 62.46987,-8.31171 106.49768,11.72008 167.17788,24.78641 63.66497,15.56561 150.83864,-47.95842 239.63504,-91.28799 55.1434,-22.56455 99.9476,-20.85723 131.2179,8.16879 103.1717,149.23077 202.4542,371.32678 347.7618,97.36729 m -1801.79824,54.92147 c 264.57249,-34.28347 570.62223,-43.58239 762.69805,-73.0179 71.71576,-5.51873 127.26061,-10.64636 163.64989,-19.92188 62.44156,-10.43386 106.62791,7.58892 166.85356,19.56246 63.05332,14.34129 148.64138,-45.69485 237.07724,-87.10506 55.1659,-21.62186 100.0961,-19.00126 131.8622,9.94682 104.1664,145.72577 201.5653,364.50137 342.1319,95.71112 m -1803.88525,60.7634 C -13.811178,723.17687 296.0554,713.729 490.29477,682.97053 c 72.00968,-6.19822 127.85961,-12.28182 164.33045,-22.69357 62.41326,-12.55601 106.75814,3.45776 166.52923,14.33851 62.44167,13.11696 146.44413,-43.43128 234.51945,-82.92214 55.1884,-20.67915 100.2447,-17.14528 132.5066,11.72486 105.161,142.22076 200.6764,357.67595 336.5019,94.05494 m -1805.97225,66.60535 c 271.160044,-35.64182 584.84347,-45.23863 781.24637,-77.32006 72.30362,-6.87771 128.45862,-13.91728 165.01102,-25.46527 62.38496,-14.67816 106.88837,-0.6734 166.2049,9.11456 61.83002,11.89263 144.24689,-41.1677 231.96176,-78.73921 55.2108,-19.73645 100.3931,-15.28932 133.1508,13.50289 106.1558,138.71576 199.7875,350.85053 330.872,92.39876 m -1808.05926,72.4473 c 274.4538267,-36.32099 591.9541,-46.06675 790.52054,-79.47114 72.59755,-7.55721 129.05762,-15.55274 165.69158,-28.23697 62.35666,-16.80032 107.0186,-4.80456 165.88058,3.89062 61.21837,10.6683 142.04963,-38.90414 229.40396,-74.55629 55.2333,-18.79375 100.5417,-13.43335 133.7951,15.28092 107.1505,135.21076 198.8986,344.02512 325.2422,90.74258 m -1810.14637,78.28925 c 277.7476089,-37.00017 599.06472,-46.89488 799.79471,-81.62223 72.89147,-8.2367 129.65661,-17.18819 166.37214,-31.00866 62.32835,-18.92247 107.14884,-8.93572 165.55625,-1.33333 60.60672,9.44397 139.85238,-36.64057 226.84617,-70.37336 55.2558,-17.85105 100.6902,-11.57739 134.4395,17.05895 108.1451,131.70576 198.0096,337.1997 319.6122,89.0864 m -1812.23337,84.1312 c 281.04138111,-37.67934 606.17534,-47.723 809.06886,-83.77331 73.18541,-8.91619 130.25562,-18.82366 167.05271,-33.78036 62.30005,-21.04462 107.27907,-13.06688 165.23193,-6.55728 59.99507,8.21964 137.65513,-34.377 224.28847,-66.19044 55.2783,-16.90835 100.8387,-9.72141 135.0837,18.83699 109.1398,128.20076 197.1207,330.37428 313.9823,87.43022 m -1814.32038,89.97315 c 284.3351633,-38.35852 613.28597,-48.55112 818.34303,-85.92439 73.47934,-9.59569 130.85462,-20.45912 167.73326,-36.55206 62.27176,-23.16678 107.40931,-17.19804 164.90761,-11.78123 59.38342,6.99531 135.45788,-32.11342 221.73068,-62.00751 55.3008,-15.96565 100.9872,-7.86545 135.728,20.61502 110.1345,124.69575 196.2318,323.54887 308.3525,85.77404 m -1816.40749,95.81509 c 287.6289456,-39.03768 620.3966,-49.37923 827.61719,-88.07547 73.77327,-10.27518 131.45363,-22.09457 168.41383,-39.32375 62.24345,-25.28893 107.53954,-21.3292 164.58329,-17.00517 58.77176,5.77098 133.26058,-29.84986 219.17288,-57.82459 55.3233,-15.02295 101.1358,-6.00948 136.3723,22.39305 111.1292,121.19075 195.343,316.72345 302.7226,84.11786 M -278.96429,799.71229 c 290.922718,-39.71686 627.50721,-50.20736 836.89135,-90.22655 74.0672,-10.95467 132.05262,-23.73004 169.09439,-42.09544 62.21515,-27.41109 107.66977,-25.46037 164.25896,-22.22913 58.16012,4.54665 131.06339,-27.58629 216.61519,-53.64167 55.3457,-14.08024 101.2842,-4.1535 137.0166,24.17109 112.1238,117.68575 194.454,309.89803 297.0926,82.46168 M -278.5767,805.65126 c 294.2165,-40.39603 634.61784,-51.03548 846.16552,-92.37763 74.36113,-11.63417 132.65162,-25.3655 169.77495,-44.86714 62.18685,-29.53324 107.8,-29.59153 163.93463,-27.45308 57.54847,3.32232 128.8661,-25.32272 214.0574,-49.45874 55.3682,-13.13755 101.4327,-2.29754 137.6609,25.94912 113.1185,114.18075 193.5651,303.07261 291.4628,80.8055 M -278.18911,811.59023 c 297.510282,-41.07521 641.72847,-51.8636 855.43968,-94.52872 74.65507,-12.31366 133.25063,-27.00095 170.45552,-47.63883 62.15854,-31.6554 107.93024,-33.72269 163.61031,-32.67703 56.93682,2.09799 126.6689,-23.05915 211.4996,-45.27581 55.3908,-12.19485 101.5813,-0.44157 138.3052,27.72715 114.1133,110.67575 192.6762,296.2472 285.8329,79.14932 M -277.80152,817.5292 c 300.804064,-41.75439 648.83909,-52.69172 864.71385,-96.6798 74.94899,-12.99315 133.84963,-28.63642 171.13608,-50.41053 62.13024,-33.77755 108.06047,-37.85385 163.28598,-37.90097 56.32517,0.87366 124.47161,-20.79558 208.94191,-41.09289 55.4132,-11.25215 101.7297,1.41439 138.9495,29.50518 115.1079,107.17074 191.7872,289.42178 280.2029,77.49314 M -277.41392,823.46817 c 304.097837,-42.43356 655.94971,-53.51985 873.98801,-98.83089 75.24292,-13.67264 134.44862,-30.27187 171.81664,-53.18222 62.10194,-35.8997 108.1907,-41.98501 162.96166,-43.12492 55.71351,-0.35067 122.27441,-18.53201 206.38411,-36.90997 55.4357,-10.30944 101.8783,3.27037 139.5938,31.28322 116.1026,103.66574 190.8983,282.59636 274.573,75.83696 M -277.02633,829.40713 C 30.365289,786.2944 386.03401,775.05917 606.23584,728.42517 c 75.53686,-14.35214 135.04763,-31.90733 172.49721,-55.95392 62.07364,-38.02185 108.32093,-46.11616 162.63733,-48.34887 55.10187,-1.575 120.07712,-16.26844 203.82642,-32.72704 55.4581,-9.36674 102.0267,5.12634 140.238,33.06125 117.0973,100.16074 190.0094,275.77095 268.9432,74.18078 M -276.63874,835.3461 C 34.046661,791.5542 393.53223,780.17002 615.8976,732.21306 c 75.83078,-15.03163 135.64663,-33.54279 173.17777,-58.72562 62.04533,-40.14401 108.45116,-50.24732 162.31301,-53.57282 54.49022,-2.79932 117.87992,-14.00487 201.26862,-28.54411 55.4806,-8.42405 102.1753,6.9823 140.8824,34.83928 118.0919,96.65574 189.1205,268.94553 263.3132,72.5246 M -276.25114,841.28507 c 313.979173,-44.47108 677.28158,-56.00421 901.81049,-105.28413 76.12472,-15.71112 136.24564,-35.17825 173.85834,-61.49731 62.01703,-42.26616 108.58139,-54.37848 161.98868,-58.79677 53.87853,-4.02365 115.68263,-11.74129 198.71083,-24.36119 55.5032,-7.48134 102.3238,8.83828 141.5267,36.61732 119.0866,93.15073 188.2316,262.12011 257.6833,70.86842 M -275.86355,847.22404 c 317.272956,-45.15025 684.39221,-56.83233 911.08466,-107.43521 76.41865,-16.39062 136.84463,-36.81371 174.5389,-64.26901 61.98873,-44.38831 108.71163,-58.50964 161.66436,-64.02071 53.26693,-5.24799 113.48533,-9.47773 196.15313,-20.17827 55.5256,-6.53864 102.4723,10.69424 142.1709,38.39535 120.0813,89.64573 187.3427,255.2947 252.0535,69.21225 M -275.47596,853.16301 c 320.566738,-45.82943 691.50284,-57.66045 920.35883,-109.58629 76.71257,-17.07011 137.44363,-38.44917 175.21946,-67.0407 61.96042,-46.51048 108.84186,-62.64081 161.34003,-69.24467 52.65524,-6.47232 111.28814,-7.21416 193.59534,-15.99534 55.5481,-5.59594 102.6208,12.55021 142.8152,40.17338 121.076,86.14073 186.4538,248.46928 246.4236,67.55607 M -275.08836,859.10198 C 48.77215,812.59337 423.52509,800.61341 654.54462,747.3646 c 77.00651,-17.7496 138.04264,-40.08463 175.90003,-69.81239 61.93212,-48.63263 108.97209,-66.77197 161.0157,-74.46862 52.04365,-7.69664 109.09085,-4.95059 191.03755,-11.81241 55.5706,-4.65324 102.7694,14.40617 143.4596,41.95142 122.0707,82.63572 185.5648,241.64385 240.7936,65.89988"
       inkscape:path-effect="#path-effect3827"
       inkscape:original-d="m -224.64174,468.97108 c 86.70841,2.39193 186.648518,1.13615 261.893244,43.14053 C 204.78197,605.6333 221.36046,837.04084 348.51808,943.51697 492.64174,1064.1996 805.80349,444.9972 820.78463,544.46701 871.23822,879.4629 1070.3513,1277.5409 1466.9311,729.61182 M -323.38839,1042.3807 C 108.42563,980.36923 630.71508,979.742 782.14462,860.83093 906.00887,763.56568 970.3045,788.27355 1134.1979,774.5499 c 222.2824,-18.61296 310.6148,342.1766 384.2532,107.8513"
       inkscape:connector-curvature="0"
       sodipodi:nodetypes="csssccssc"
       inkscape:export-xdpi="90"
       inkscape:export-ydpi="90" />
  </g>
  <g
     inkscape:groupmode="layer"
     id="layer3"
     inkscape:label="net back"
     style="opacity:0.13553114;display:inline"
     transform="translate(0,-176)">
    <path
       sodipodi:nodetypes="csssccssc"
       inkscape:connector-curvature="0"
       inkscape:original-d="m 1377.0069,853.29739 c -102.2022,2.04834 -220.4627,8.56035 -304.5535,-30.96774 C 885.22767,734.32127 892.29021,495.79828 754.27197,392.28294 597.8387,274.956 156.39648,931.84663 150.14884,829.728 129.108,485.81129 -60.36195,84.39133 -592.18306,671.90172 M 1559.764,254.9628 C 1042.2743,341.63637 424.9256,369.52822 232.25858,500.43857 74.663394,607.51893 1.5206708,585.31269 -193.76032,608.05838 -458.61247,638.90761 -521.44981,270.28348 -635.47278,516.53065"
       inkscape:path-effect="#path-effect3898"
       d="m 1480.9042,896.43327 c -102.2022,2.04834 -220.4627,8.56035 -304.5535,-30.96774 C 1113.9421,836.1294 1073.1211,790.06943 1041.3185,737.86051 977.71325,633.44267 950.18144,504.42904 858.16928,435.41882 753.88043,357.20086 522.92094,623.07959 378.68445,778.7656 306.5662,856.6086 256.1287,906.90342 254.04615,872.86388 233.00531,528.94717 43.53536,127.52721 -488.28575,715.0376 M 1480.8266,890.32363 c -106.1733,2.92274 -228.9619,9.78793 -315.7621,-28.25873 C 1102.2302,833.44703 1060.9386,788.39191 1028.9087,737.36266 965.09241,635.13868 937.14181,508.21162 845.541,440.30815 741.83401,363.32484 513.15026,625.51269 369.56093,779.19435 297.5247,856.06331 247.04345,905.41994 244.36598,871.48688 221.74581,531.24793 34.119538,133.16464 -491.50291,715.08024 M 1480.749,884.214 c -110.1443,3.79714 -237.4611,11.0155 -326.9707,-25.54972 C 1090.5184,830.76467 1048.756,786.71439 1016.4988,736.86482 952.47157,636.8347 924.10218,511.99419 832.91272,445.19749 729.78758,369.44882 503.37958,627.94579 360.43742,779.62309 288.4832,855.51802 237.95821,903.93646 234.68581,870.10988 210.48631,533.54869 24.703715,138.80207 -494.72006,715.12288 M 1480.6714,878.10437 C 1366.556,882.77591 1234.711,890.34744 1142.492,855.26366 1078.8065,828.0823 1036.5735,785.03687 1004.089,736.36697 939.85073,638.53072 911.06256,515.77676 820.28444,450.08682 717.74116,375.57281 493.6089,630.37888 351.3139,780.05184 279.4417,854.97273 228.87297,902.45298 225.00563,868.73289 199.22682,535.84945 15.287893,144.4395 -497.93722,715.16552 M 1480.5937,871.99474 c -118.0863,5.54594 -254.4595,13.47065 -349.3879,-20.13171 C 1067.0946,825.39994 1024.3909,783.35935 991.67917,735.86912 927.22989,640.22673 898.02293,519.55934 807.65615,454.97616 705.69473,381.69679 483.83822,632.81198 342.19039,780.48059 270.4002,854.42744 219.78773,900.9695 215.32546,867.35589 187.96732,538.15021 5.8720704,150.07693 -501.15438,715.20816 M 1480.5161,865.88511 c -122.0574,6.42034 -262.9587,14.69822 -360.5965,-17.4227 C 1055.3827,822.71757 1012.2084,781.68183 979.26933,735.37128 914.60905,641.92275 884.9833,523.34191 795.02787,459.8655 693.64831,387.82078 474.06753,635.24508 333.06687,780.90933 261.35871,853.88215 210.70248,899.48602 205.64529,865.9789 176.70782,540.45098 -3.543752,155.71437 -504.37154,715.2508 M 1480.4385,859.77548 C 1354.41,867.07022 1208.9806,875.70127 1108.6334,845.06179 1043.6708,820.03521 1000.0258,780.00431 966.85949,734.87343 901.98821,643.61876 871.94367,527.12448 782.39959,464.75483 681.60188,393.94476 464.29685,637.67817 323.94336,781.33808 252.31721,853.33686 201.61724,898.00255 195.96512,864.6019 165.44832,542.75174 -12.959574,161.3518 -507.58869,715.29344 M 1480.3609,853.66585 c -129.9995,8.16914 -279.9571,17.15336 -383.0138,-12.00468 C 1031.9589,817.35284 987.84324,778.32679 954.44966,734.37559 889.36736,645.31478 858.90404,530.90705 769.77131,469.64417 669.55546,400.06874 454.52617,640.11127 314.81984,781.76683 243.27571,852.79157 192.532,896.51907 186.28495,863.22491 154.18882,545.0525 -22.375397,166.98923 -510.80585,715.33608 M 1480.2833,847.55622 c -133.9706,9.04354 -288.4564,18.38094 -394.2224,-9.29568 C 1020.2471,814.67048 975.66069,776.64927 942.03982,733.87774 876.74652,647.01079 845.86441,534.68963 757.14303,474.5335 657.50903,406.19273 444.75549,642.54437 305.69633,782.19558 234.23421,852.24628 183.44676,895.03559 176.60478,861.84791 142.92933,547.35326 -31.791219,172.62666 -514.02301,715.37872 M 1480.2056,841.44659 c -137.9415,9.91794 -296.9555,19.60851 -405.4309,-6.58667 C 1008.5352,811.98811 963.47813,774.97175 929.62998,733.37989 864.12568,648.70681 832.82479,538.4722 744.51475,479.42284 645.4626,412.31671 434.98481,644.97747 296.57281,782.62432 225.19271,851.70099 174.36151,893.55211 166.9246,860.47092 131.66983,549.65402 -41.207042,178.26409 -517.24017,715.42136 M 1480.128,835.33696 C 1338.2154,846.1293 1174.6733,856.17304 1063.4884,831.4593 996.82328,809.30574 951.29557,773.29423 917.22015,732.88205 851.50484,650.40282 819.78516,542.25477 731.88646,484.31218 633.41618,418.4407 425.21413,647.41056 287.4493,783.05307 216.15122,851.1557 165.27627,892.06863 157.24443,859.09392 120.41033,551.95479 -50.622864,183.90153 -520.45732,715.464 M 1480.0504,829.22732 c -145.8837,11.66675 -313.9539,22.06366 -427.8482,-1.16865 C 985.1114,806.62338 939.11301,771.61671 904.81031,732.3842 838.884,652.09884 806.74553,546.03735 719.25818,489.20151 621.36975,424.56468 415.44345,649.84366 278.32578,783.48182 207.10972,850.61041 156.19103,890.58515 147.56426,857.71693 109.15083,554.25555 -60.038686,189.53896 -523.67448,715.50664 M 1479.9728,823.11769 c -149.8547,12.54115 -322.4531,23.29124 -439.0568,1.54036 C 973.39951,803.94101 926.93046,769.93919 892.40047,731.88636 826.26316,653.79486 793.7059,549.81992 706.6299,494.09085 609.32333,430.68866 405.67276,652.27676 269.20227,783.91057 198.06822,850.06512 147.10579,889.10167 137.88409,856.33993 97.891335,556.55631 -69.454509,195.17639 -526.89164,715.54928 M 1479.8952,817.00806 c -153.8258,13.41555 -330.9524,24.51881 -450.2654,4.24937 C 961.68763,801.25865 914.7479,768.26167 879.99064,731.38851 813.64232,655.49087 780.66627,553.60249 694.00162,498.98018 597.2769,436.81265 395.90208,654.70985 260.07875,784.33931 189.02672,849.51983 138.02054,887.61819 128.20392,854.96294 86.631837,558.85707 -78.870331,200.81382 -530.1088,715.59192 m 2009.9264,95.30651 c -157.7968,14.28995 -339.4516,25.74638 -461.4741,6.95838 C 949.97574,798.57628 902.56534,766.58415 867.5808,730.89067 801.02148,657.18689 767.62665,557.38507 681.37334,503.86952 585.23048,442.93663 386.1314,657.14295 250.95524,784.76806 179.98523,848.97454 128.9353,886.13472 118.52375,853.58594 75.372339,561.15784 -88.286154,206.45125 -533.32595,715.63456 M 1479.7399,804.7888 c -161.7678,15.16435 -347.9507,26.97395 -472.6826,9.66738 C 938.26385,795.89392 890.38279,764.90663 855.17096,730.39282 788.40064,658.8829 754.58702,561.16764 668.74506,508.75886 573.18405,449.06062 376.36072,659.57605 241.83172,785.19681 170.94373,848.42925 119.85006,884.65124 108.84357,852.20895 64.112841,563.4586 -97.701976,212.08869 -536.54311,715.6772 M 1479.6623,798.67917 C 1313.9234,814.71792 1123.2124,826.8807 995.77109,811.05556 926.55197,793.21155 878.20023,763.22911 842.76113,729.89497 775.77979,660.57892 741.54739,564.95021 656.11677,513.64819 561.13763,455.1846 366.59004,662.00914 232.70821,785.62556 161.90223,847.88396 110.76482,883.16776 99.163403,850.83195 52.853343,565.75936 -107.1178,217.72612 -539.76027,715.71984 m 2019.34497,76.8497 c -169.7099,16.91315 -364.9491,29.4291 -495.09984,15.0854 C 914.84008,790.52919 866.01767,761.55159 830.35129,729.39713 763.15895,662.27493 728.50776,568.73279 643.48849,518.53753 549.0912,461.30858 356.81936,664.44224 223.58469,786.0543 152.86073,847.33867 101.67957,881.68428 89.483231,849.45496 41.593845,568.06012 -116.53362,223.36355 -542.97743,715.76248 m 2022.48453,70.69743 c -173.681,17.78755 -373.4484,30.65667 -506.30846,17.79441 C 903.1282,787.84682 853.83512,759.87407 817.94145,728.89928 750.53811,663.97095 715.46813,572.51536 630.86021,523.42686 537.04478,467.43257 347.04868,666.87534 214.46118,786.48305 143.81923,846.79338 92.59433,880.2008 79.803059,848.07796 30.334347,570.36088 -125.94944,229.00098 -546.19458,715.80512 m 2025.62408,64.54516 c -177.652,18.66195 -381.9476,31.88424 -517.51709,20.50341 C 891.41631,785.16446 841.65256,758.19656 805.53162,728.40144 737.91727,665.66696 702.4285,576.29793 618.23193,528.3162 524.99835,473.55655 337.27799,669.30843 205.33766,786.9118 134.77774,846.24809 83.509088,878.71732 70.122888,846.70097 19.074849,572.66165 -135.36527,234.63841 -549.41174,715.84776 M 1479.3518,774.24065 C 1297.7288,793.777 1088.9051,807.35247 950.62618,797.45307 879.70443,782.48209 829.47,756.51904 793.12178,727.90359 725.29643,667.36298 689.38888,580.08051 605.60365,533.20554 512.95193,479.68054 327.50731,671.74153 196.21415,787.34055 125.73624,845.7028 74.423845,877.23384 60.442716,845.32397 7.8153511,574.96241 -144.78109,240.27585 -552.6289,715.8904 m 2031.9031,52.24062 C 1293.6801,788.54177 1080.3283,802.47041 939.33996,794.05245 867.99254,779.79972 817.28744,754.84152 780.71194,727.40574 712.67559,669.05899 676.34925,583.86308 592.97537,538.09487 500.9055,485.80452 317.73663,674.17463 187.09063,787.76929 116.69474,845.15751 65.338602,875.75036 50.762544,843.94698 -3.4441468,577.26317 -154.19691,245.91328 -555.84605,715.93304 M 1479.1966,762.02138 C 1289.6315,783.30654 1071.7515,797.58835 928.05373,790.65182 856.28066,777.11736 805.10489,753.164 768.30211,726.9079 700.05475,670.75501 663.30962,587.64565 580.34709,542.98421 488.85907,491.92851 307.96595,676.60773 177.96712,788.19804 107.65324,844.61222 56.25336,874.26689 41.082373,842.56998 -14.703645,579.56393 -163.61273,251.55071 -559.06321,715.97568 M 1479.119,755.91175 C 1285.5828,778.07131 1063.1746,792.70629 916.7675,787.2512 844.56877,774.43499 792.92233,751.48648 755.89227,726.41005 687.43391,672.45103 650.26999,591.42823 567.7188,547.87355 476.81265,498.05249 298.19527,679.04082 168.8436,788.62679 98.611743,844.06693 47.168117,872.78341 31.402201,841.19299 -25.963143,581.86469 -173.02856,257.18814 -562.28037,716.01832 m 2041.32177,33.7838 C 1281.5341,772.83607 1054.5978,787.82423 905.48128,783.85058 832.85689,771.75263 780.73977,749.80896 743.48244,725.91221 674.81306,674.14704 637.23036,595.2108 555.09052,552.76288 464.76622,504.17647 288.42459,681.47392 159.72009,789.05554 89.570245,843.52164 38.082875,871.29993 21.722029,839.81599 -37.222641,584.16546 -182.44438,262.82557 -565.49753,716.06096 M 1478.9638,743.69249 C 1277.4855,767.60084 1046.021,782.94218 894.19505,780.44996 821.145,769.07026 768.55722,748.13144 731.0726,725.41436 662.19222,675.84306 624.19074,598.99337 542.46224,557.65222 452.7198,510.30046 278.65391,683.90702 150.59658,789.48428 80.528747,842.97635 28.997632,869.81645 12.041857,838.43899 -48.482139,586.46622 -191.8602,268.46301 -568.71468,716.1036 M 1478.8861,737.58286 C 1273.4368,762.36561 1037.4442,778.06012 882.90882,777.04933 809.43312,766.3879 756.37466,746.45392 718.66276,724.91652 649.57138,677.53907 611.15111,602.77595 529.83396,562.54155 440.67337,516.42444 268.88322,686.34011 141.47306,789.91303 71.487249,842.43106 19.912389,868.33297 2.3616858,837.062 -59.741637,588.76698 -201.27602,274.10044 -571.93184,716.14624 M 1478.8085,731.47323 C 1269.3882,757.13038 1028.8674,773.17806 871.6226,773.64871 797.72123,763.70553 744.1921,744.7764 706.25293,724.41867 636.95054,679.23509 598.11148,606.55852 517.20568,567.43089 428.62695,522.54843 259.11254,688.77321 132.34955,790.34178 62.445751,841.88577 10.827147,866.84949 -7.3184859,835.685 -71.001134,591.06774 -210.69184,279.73787 -575.149,716.18888 m 2053.8799,9.17472 C 1265.3395,751.89515 1020.2905,768.296 860.33637,770.24809 786.00935,761.02317 732.00954,743.09888 693.84309,723.92082 624.3297,680.9311 585.07185,610.34109 504.5774,572.32023 416.58052,528.67241 249.34186,691.20631 123.22603,790.77053 53.404253,841.34048 1.7419043,865.36601 -16.998658,834.30801 -82.260632,593.3685 -220.10767,285.3753 -578.36616,716.23152 m 2057.01946,3.02245 C 1261.2908,746.65992 1011.7137,763.41395 849.05015,766.84746 774.29746,758.3408 719.82699,741.42136 681.43325,723.42298 611.70886,682.62712 572.03222,614.12367 491.94911,577.20956 404.5341,534.79639 239.57118,693.6394 114.10252,791.19927 44.362755,840.79519 -7.3433383,863.88253 -26.678829,832.93101 -93.52013,595.66927 -229.52349,291.01273 -581.58331,716.27416 m 2060.15901,-3.12982 c -221.3335,28.28035 -475.4388,45.38755 -640.81178,50.3025 -75.17834,-7.7884 -130.11949,-23.703 -168.7405,-40.52171 C 599.08802,684.32313 558.99259,617.90624 479.32083,582.0989 392.48767,540.92038 229.8005,696.0725 104.979,791.62802 35.321257,840.2499 -16.428581,862.39906 -36.359001,831.55402 -104.77963,597.97003 -238.93931,296.65017 -584.80047,716.3168 M 1478.498,707.03471 c -225.3045,29.15475 -483.93791,46.61512 -652.02031,53.01151 -75.604,-7.07015 -131.01582,-21.9799 -169.86411,-37.61893 C 586.46718,686.01915 545.95297,621.68881 466.69255,586.98823 380.44125,547.04436 220.02982,698.5056 95.855487,792.05677 26.279759,839.70461 -25.513823,860.91558 -46.039173,830.17702 -116.03913,600.27079 -248.35513,302.2876 -588.01763,716.35944 M 1478.4204,700.92507 C 1249.1449,730.95423 985.98327,748.76777 815.19147,756.6456 739.16181,750.29371 683.27932,736.3888 644.20374,721.92944 573.84633,687.71517 532.91334,625.47139 454.06427,591.87757 368.39482,553.16835 210.25913,700.93869 86.731972,792.48552 17.238261,839.15932 -34.599066,859.4321 -55.719344,828.80003 -127.29862,602.57155 -257.77096,307.92503 -591.23479,716.40208 M 1478.3428,694.81544 C 1245.0962,725.719 977.40645,743.88572 803.90524,753.24497 727.44992,747.61134 671.09676,734.71128 631.79391,721.43159 561.22549,689.41118 519.87371,629.25396 441.43599,596.76691 356.34839,559.29233 200.48845,703.37179 77.608457,792.91426 8.1967635,838.61403 -43.684309,857.94862 -65.399516,827.42303 -138.55812,604.87232 -267.18678,313.56246 -594.45194,716.44472 M 1478.2652,688.70581 C 1241.0475,720.48377 968.82963,739.00366 792.61901,749.84435 715.73803,744.92897 658.9142,733.03376 619.38407,720.93375 548.60465,691.1072 506.83408,633.03653 428.80771,601.65624 344.30197,565.41631 190.71777,705.80489 68.484942,793.34301 -0.84473447,838.06874 -52.769551,856.46514 -75.079688,826.04604 -149.81762,607.17308 -276.6026,319.19989 -597.6691,716.48736 M 1478.1876,682.59618 C 1236.9989,715.24854 960.25281,734.1216 781.33279,746.44373 704.02615,742.24661 646.73165,731.35624 606.97423,720.4359 535.98381,692.80321 493.79445,636.81911 416.17942,606.54558 332.25554,571.5403 180.94709,708.23799 59.361427,793.77176 -9.8862324,837.52345 -61.854794,854.98166 -84.75986,824.66904 -161.07712,609.47384 -286.01842,324.83733 -600.88626,716.53 M 1478.11,676.48655 C 1232.9502,710.01331 951.67599,729.23954 770.04656,743.0431 692.31426,739.56424 634.54909,729.67872 594.5644,719.93806 523.36297,694.49923 480.75482,640.60168 403.55114,611.43491 320.20912,577.66428 171.17641,710.67108 50.237913,794.20051 -18.92773,836.97816 -70.940036,853.49818 -94.440031,823.29205 -172.33662,611.7746 -295.43425,330.47476 -604.10341,716.57264 M 1478.0323,670.37692 C 1228.9016,704.77808 943.09917,724.35749 758.76033,739.64248 680.60238,736.88188 622.36653,728.0012 582.15456,719.44021 510.74213,696.19524 467.7152,644.38425 390.92286,616.32425 308.16269,583.78827 161.40573,713.10418 41.114398,794.62925 -27.969228,836.43287 -80.025279,852.0147 -104.1202,821.91505 -183.59611,614.07536 -304.85007,336.11219 -607.32057,716.61528 M 1477.9547,664.26729 C 1224.8529,699.54285 934.52235,719.47543 747.47411,736.24186 668.89049,734.19951 610.18397,726.32368 569.74472,718.94237 498.12129,697.89126 454.67557,648.16683 378.29458,621.21359 296.11627,589.91225 151.63505,715.53728 31.990883,795.058 -37.010726,835.88758 -89.110522,850.53123 -113.80037,820.53806 -194.85561,616.37613 -314.26589,341.74962 -610.53773,716.65792 M 1477.8771,658.15766 C 1220.8042,694.30762 925.94553,714.59337 736.18788,732.84124 657.17861,731.51715 598.00142,724.64616 557.33489,718.44452 485.50045,699.58727 441.63594,651.9494 365.6663,626.10292 284.06984,596.03623 141.86436,717.97037 22.867368,795.48675 -46.052224,835.34229 -98.195764,849.04775 -123.48055,819.16106 -206.11511,618.67689 -323.68171,347.38705 -613.75489,716.70056 M 1477.7995,652.04803 C 1216.7556,689.07239 917.36871,709.71131 724.90166,729.44061 645.46672,728.83478 585.81886,722.96864 544.92505,717.94667 472.87961,701.28329 428.59631,655.73197 353.03802,630.99226 272.02342,602.16022 132.09368,720.40347 13.743853,795.9155 -55.093722,834.797 -107.28101,847.56427 -133.16072,817.78407 -217.37461,620.97765 -333.09754,353.02449 -616.97204,716.7432 M 1477.7219,645.9384 c -265.015,37.89876 -568.93001,58.89086 -764.10647,80.10159 -79.86059,0.11243 -139.97913,-4.74886 -181.10022,-8.59116 C 460.25876,702.97931 415.55668,659.51455 340.40974,635.88159 259.97699,608.2842 122.323,722.83657 4.6203386,796.34424 -64.13522,834.25171 -116.36625,846.08079 -142.84089,816.40707 -228.63411,623.27841 -342.51336,358.66192 -620.1892,716.78584 m 2097.8334,-76.95707 c -268.9859,38.77316 -577.42913,60.11843 -775.315,82.8106 -80.28625,0.83068 -140.87545,-3.02576 -182.22382,-5.68839 C 447.63792,704.67532 402.51706,663.29712 327.78145,640.77093 247.93057,614.40819 112.55232,725.26966 -4.5031762,796.77299 -73.176718,833.70642 -125.45149,844.59731 -152.52106,815.03008 -239.8936,625.57917 -351.92918,364.29935 -623.40636,716.82848 M 1477.5666,633.71913 c -272.957,39.64757 -585.92835,61.34601 -786.52362,85.51962 -80.71191,1.54894 -141.77179,-1.30266 -183.34744,-2.78561 C 435.01708,706.37134 389.47743,667.07969 315.15317,645.66027 235.88414,620.53217 102.78164,727.70276 -13.626691,797.20174 -82.218216,833.16113 -134.53673,843.11383 -162.20123,813.65308 -251.1531,627.87994 -361.345,369.93678 -626.62352,716.87112 M 1477.489,627.6095 c -276.9281,40.52197 -594.42757,62.57358 -797.73225,88.22862 -81.13757,2.2672 -142.66812,0.42045 -184.47105,0.11717 C 422.39624,708.06735 376.4378,670.86227 302.52489,650.5496 223.83772,626.65615 93.010957,730.13586 -22.750206,797.63049 -91.259714,832.61584 -143.62198,841.63035 -171.8814,812.27609 -262.4126,630.1807 -370.76083,375.57421 -629.84067,716.91376 M 1477.4114,621.49987 c -280.8991,41.39637 -602.92679,63.80116 -808.94088,90.93763 -81.56322,2.98545 -143.56444,2.14355 -185.59465,3.01994 -73.10047,-5.69407 -119.4777,-40.8126 -192.97926,-60.0185 C 211.79129,632.78014 83.240275,732.56895 -31.873721,798.05923 -100.30121,832.07055 -152.70722,840.14687 -181.56158,810.89909 -273.6721,632.48146 -380.17665,381.21165 -633.05783,716.9564 M 1477.3338,615.39024 c -284.8702,42.27077 -611.42601,65.02873 -820.1495,93.64664 -81.98889,3.70371 -144.46078,3.86665 -186.71827,5.92272 C 397.15456,711.45938 350.35854,678.42741 277.26833,660.32827 199.74486,638.90412 73.469594,735.00205 -40.997235,798.48798 -109.34271,831.52526 -161.79246,838.66339 -191.24175,809.5221 -284.9316,634.78222 -389.59247,386.84908 -636.27499,716.99904 M 1477.2562,609.28061 c -288.8413,43.14516 -619.92523,66.2563 -831.35813,96.35564 -82.41454,4.42197 -145.35711,5.58976 -187.84188,8.8255 -73.52247,-1.30635 -120.73728,-32.25176 -193.41614,-49.24414 -76.94161,-20.1895 -200.941138,72.21754 -314.7608,133.69912 -68.26346,32.06324 -120.75695,38.26319 -150.80117,9.22837 -95.26917,-171.06212 -198.08637,-415.65859 -438.57023,-91.10342 M 1477.1785,603.17098 c -292.8122,44.01956 -628.42436,67.48387 -842.56666,99.06465 -82.8402,5.14023 -146.25344,7.31286 -188.96548,11.72828 -73.73348,0.8875 -121.36707,-27.97135 -193.6346,-43.85696 -76.35975,-18.95486 -198.083529,69.7613 -311.256025,129.23853 -68.181445,31.0892 -120.718685,36.35096 -151.357825,7.42262 -96.8485,-167.38435 -197.82202,-408.64416 -432.10721,-89.68378 M 1477.1009,597.06135 c -296.7833,44.89396 -636.92358,68.71145 -853.77528,101.77366 -83.26586,5.85848 -147.14977,9.03596 -190.0891,14.63105 -73.94449,3.08137 -121.99686,-23.69093 -193.85304,-38.46978 -75.77789,-17.7202 -195.22593,67.30506 -307.75126,124.77794 -68.09942,30.11517 -120.68041,34.43874 -151.91448,5.61689 -98.42783,-163.7066 -197.55768,-401.62974 -425.6442,-88.26415 M 1477.0233,590.95172 C 1176.269,636.72008 831.6005,660.89074 612.03939,695.43439 528.34787,702.01113 463.99329,706.19345 420.82668,712.96822 346.67119,718.24345 298.20003,693.5577 226.7552,679.88562 151.55916,663.40006 34.386868,744.73444 -77.491295,800.20297 -145.5087,829.3441 -198.13343,832.72948 -229.96244,804.01411 -329.96959,643.98527 -427.25576,409.39881 -649.14362,717.1696 M 1476.9457,584.84209 c -304.7254,46.64276 -653.92202,71.16659 -876.19253,107.19167 -84.11718,7.295 -148.94244,12.48217 -192.33632,20.43661 C 334.05035,719.93946 285.1604,697.34028 214.12692,684.77496 139.51274,669.52404 24.616187,747.16754 -86.614809,800.63172 -154.5502,828.79881 -207.21868,831.246 -239.64261,802.63712 -341.22909,646.28603 -436.67158,415.03624 -652.36078,717.21224 M 1476.8681,578.73246 C 1168.1716,626.24962 814.44686,651.12662 589.46694,688.63314 504.9241,696.6464 439.62818,702.83841 396.00701,711.97252 321.42951,721.63548 272.12077,701.12285 201.49864,689.66429 127.46631,675.64803 14.845505,749.60063 -95.738324,801.06047 -163.5917,828.25352 -216.30392,829.76252 -249.32278,801.26012 -352.48858,648.5868 -446.0874,420.67367 -655.57793,717.25488 M 1476.7904,572.62282 c -312.6674,48.39157 -670.92036,73.62175 -898.60969,112.6097 -84.9685,8.73151 -150.73509,15.92837 -194.58354,26.24216 -74.7885,11.85681 -124.51602,-6.56926 -194.72681,-16.92105 -73.45047,-12.78162 -183.7955364,57.4801 -293.7322,106.93558 -67.77136,26.21902 -120.52732,26.78983 -154.14111,-1.60608 C -363.74808,650.88756 -455.50323,426.3111 -658.79509,717.29752 M 1476.7128,566.51319 c -316.6385,49.26597 -679.41958,74.84932 -909.81831,115.3187 -85.39416,9.44978 -151.63143,17.65148 -195.70715,29.14494 -74.99951,14.05068 -125.14582,-2.28883 -194.94526,-11.53387 -72.86862,-11.54696 -180.9379379,55.02387 -290.22743,102.475 -67.68934,25.24498 -120.48905,24.8776 -154.69777,-3.41183 -106.32446,-145.31781 -196.23593,-366.5576 -393.32913,-81.16597 M 1476.6352,560.40356 c -320.6095,50.14037 -687.9188,76.07689 -921.02694,118.02771 -85.81982,10.16803 -152.52776,19.37458 -196.83076,32.04772 -75.21051,16.24453 -125.77561,1.99158 -195.16371,-6.14669 -72.286754,-10.31232 -178.080329,52.56762 -286.72266,98.01441 -67.60732,24.27094 -120.45078,22.96538 -155.25442,-5.21757 C -386.26708,655.48908 -474.33487,437.58597 -665.2294,717.3828 m 2141.787,-163.08887 c -324.5806,51.01477 -696.41802,77.30446 -932.23557,120.73672 -86.24547,10.88628 -153.42408,21.09768 -197.95436,34.95049 -75.42152,18.4384 -126.40541,6.272 -195.38216,-0.7595 -71.7049,-9.07768 -175.222731,50.11138 -283.21789,93.55382 -67.52531,23.2969 -120.41251,21.05315 -155.81109,-7.02332 -109.4831,-137.9623 -195.70722,-352.52874 -380.40309,-78.3267 M 1476.48,548.1843 c -328.5517,51.88917 -704.91724,78.53204 -943.44419,123.44573 -86.67114,11.60454 -154.32042,22.82078 -199.07798,37.85326 -75.63253,20.63226 -127.0352,10.55243 -195.6006,4.62768 -71.123045,-7.84302 -172.365132,47.65515 -279.71313,89.09323 -67.44329,22.32287 -120.37423,19.14093 -156.36774,-8.82905 C -408.78607,660.09061 -493.16652,448.86083 -671.66372,717.46808 M 1476.4024,542.07467 c -332.5227,52.76357 -713.41646,79.75961 -954.65282,126.15473 -87.09679,12.3228 -155.21675,24.54389 -200.20159,40.75605 -75.84353,22.82612 -127.66499,14.83284 -195.81904,10.01486 -70.54119,-6.60838 -169.507534,45.1989 -276.20836,84.63264 -67.36128,21.34883 -120.33596,17.2287 -156.9244,-10.6348 C -420.04557,662.39137 -502.58234,454.49826 -674.88088,717.51072 M 1476.3247,535.96504 c -336.4937,53.63797 -721.91558,80.98718 -965.86135,128.86374 -87.52245,13.04106 -156.11307,26.26699 -201.32519,43.65882 -76.05454,25.01998 -128.29478,19.11326 -196.03749,15.40204 -69.959336,-5.37372 -166.649935,42.74267 -272.7036,80.17206 -67.27925,20.37479 -120.29769,15.31647 -157.48105,-12.44054 -114.22109,-126.92903 -194.91418,-331.48547 -361.01405,-74.0678 M 1476.2471,529.85541 c -340.4647,54.51237 -730.4148,82.21475 -977.06997,131.57275 -87.94811,13.75931 -157.00941,27.99009 -202.44881,46.5616 -76.26554,27.21384 -128.92457,23.39368 -196.25593,20.78922 -69.377481,-4.13908 -163.792337,40.28643 -269.19883,75.71147 -67.19724,19.40075 -120.25942,13.40424 -158.03771,-14.24629 C -442.56457,666.99289 -521.41398,465.77313 -681.31519,717.596 M 1476.1695,523.74578 c -344.4358,55.38677 -738.91402,83.44233 -988.2786,134.28176 -88.37377,14.47757 -157.90574,29.71319 -203.57242,49.46437 -76.47654,29.40771 -129.55436,27.6741 -196.474376,26.17641 -68.795621,-2.90444 -160.934732,37.83019 -265.694064,71.25087 -67.11522,18.42672 -120.22114,11.49202 -158.59436,-16.05202 C -453.82406,669.29365 -530.82981,471.41056 -684.53235,717.63864 M 1476.0919,517.63615 C 1127.685,573.89732 728.67866,602.30605 476.60468,654.62691 387.80525,669.82274 317.80261,686.06321 271.90865,706.99407 195.2211,738.59563 141.72449,738.94858 75.215823,738.55765 7.002058,736.88787 -82.86131,773.9316 -186.97347,805.34794 -254.00668,822.80062 -307.15634,814.92773 -346.1245,787.49017 -465.08356,671.59442 -540.24563,477.04799 -687.74951,717.68129 M 1476.0143,511.52652 c -352.3779,57.13557 -755.91246,85.89747 -1010.69585,139.69977 -89.22509,15.91409 -159.6984,33.15941 -205.81964,55.26993 -76.89855,33.79543 -130.81395,36.23494 -196.911269,36.95077 -67.6319084,-0.43514 -155.219532,32.91771 -258.684531,62.3297 -66.95119,16.47864 -120.1446,7.66757 -159.70768,-19.66351 -120.53839,-112.218 -193.85678,-303.42776 -335.16199,-68.38925 M 1475.9366,505.41688 c -356.3489,58.00998 -764.41158,87.12505 -1021.90438,142.40879 -89.65074,16.63234 -160.59473,34.88251 -206.94325,58.1727 -77.10955,35.98929 -131.44373,40.51536 -197.129711,42.33795 -67.050052,0.79952 -152.361929,30.46148 -255.179759,57.86912 -66.86917,15.5046 -120.10633,5.75534 -160.26434,-21.46926 C -487.60256,676.19594 -559.07727,488.32285 -694.18382,717.76657 M 1475.859,499.30725 c -360.3199,58.88438 -772.9108,88.35263 -1033.113,145.11779 -90.07641,17.35061 -161.49107,36.60562 -208.06686,61.07549 -77.32056,38.18315 -132.07353,44.79577 -197.348162,47.72513 -66.468196,2.03416 -149.504328,28.00523 -251.674998,53.40852 -66.78715,14.53057 -120.06805,3.84312 -160.82099,-23.27499 C -498.86206,678.4967 -568.4931,493.96029 -697.40098,717.80921 M 1475.7814,493.19762 c -364.291,59.75878 -781.41002,89.5802 -1044.32163,147.8268 -90.50206,18.06886 -162.38739,38.32872 -209.19047,63.97826 -77.53157,40.37701 -132.703321,49.0762 -197.566604,53.11232 -65.88634,3.2688 -146.646736,25.54899 -248.170226,48.94793 -66.70514,13.55653 -120.02978,1.93089 -161.37765,-25.08074 C -510.12155,680.79747 -577.90892,499.59772 -700.61814,717.85185 M 1475.7038,487.08799 c -368.2621,60.63318 -789.90924,90.80777 -1055.53026,150.53581 -90.92772,18.78712 -163.28372,40.05182 -210.31408,66.88104 -77.74257,42.57087 -133.333109,53.35661 -197.785045,58.49949 -65.304484,4.50346 -143.789135,23.09276 -244.665465,44.48735 -66.62312,12.58249 -119.99151,0.0187 -161.9343,-26.88648 -126.8557,-97.50697 -192.79939,-275.37005 -309.30994,-62.71071 M 1475.6262,480.97836 C 1103.3931,542.48594 677.21774,573.0137 408.88732,634.22318 317.53394,653.72855 244.70726,675.9981 197.44963,704.00699 119.49605,748.77172 63.486722,761.64402 -0.55386691,767.89367 -65.276494,773.63177 -141.4854,788.53018 -241.71456,807.92043 -308.25567,819.52888 -361.6678,806.02686 -404.20553,779.2282 -532.64055,685.39899 -596.74056,510.87258 -707.05245,717.93713 M 1475.5486,474.86873 c -376.2042,62.38198 -806.90768,93.26292 -1077.94751,155.95382 -91.77904,20.22363 -165.07638,43.49803 -212.5613,72.68659 -78.16458,46.9586 -134.592696,61.91746 -198.221938,69.27386 -64.140772,6.97276 -138.073932,18.18028 -237.655932,35.56617 -66.45908,10.63442 -119.91496,-3.80579 -163.04762,-30.49796 -130.01435,-90.15146 -192.27069,-261.3412 -296.38391,-59.87144 M 1475.4709,468.7591 c -380.1752,63.25638 -815.4068,94.49049 -1089.15604,158.66283 -92.20469,20.94189 -165.97271,45.22113 -213.68491,75.58937 -78.375581,49.15246 -135.222484,66.19787 -198.44038,74.66104 -63.558915,8.2074 -135.21633,15.72404 -234.15116,31.10558 -66.37707,9.66038 -119.87669,-5.71802 -163.60428,-32.30371 -131.59368,-86.4737 -192.00634,-254.32676 -289.9209,-58.4518 M 1475.3933,462.64947 c -384.1462,64.13077 -823.90602,95.71806 -1100.36466,161.37184 -92.63036,21.66014 -166.86905,46.94423 -214.80852,78.49214 -78.586592,51.34632 -135.852282,70.47829 -198.658832,80.04823 -62.977058,9.44205 -132.358728,13.26779 -230.646398,26.64499 -66.29505,8.68634 -119.83842,-7.63024 -164.16093,-34.10946 -133.173,-82.79593 -191.74199,-247.31233 -283.45788,-57.03216 M 1475.3157,456.53984 c -388.1173,65.00517 -832.40524,96.94563 -1111.57329,164.08084 -93.05602,22.37841 -167.76538,48.66734 -215.93213,81.39493 -78.797593,53.54018 -136.48207,74.75871 -198.877273,85.4354 -62.395207,10.6767 -129.501127,10.81156 -227.141627,22.18441 -66.21304,7.7123 -119.80015,-9.54247 -164.71759,-35.9152 -134.75233,-79.11818 -191.47764,-240.29791 -276.99487,-55.61253"
       style="opacity:0.54212455;fill:none;stroke:url(#linearGradient3896);stroke-width:0.75833827;stroke-linecap:butt;stroke-linejoin:miter;stroke-miterlimit:4;stroke-opacity:1;stroke-dasharray:none;display:inline"
       id="path3894" />
  </g>
</svg>
