<?xml version="1.0" encoding="UTF-8" standalone="no"?>
<!-- Created with Inkscape (http://www.inkscape.org/) -->

<svg
   xmlns:dc="http://purl.org/dc/elements/1.1/"
   xmlns:cc="http://creativecommons.org/ns#"
   xmlns:rdf="http://www.w3.org/1999/02/22-rdf-syntax-ns#"
   xmlns:svg="http://www.w3.org/2000/svg"
   xmlns="http://www.w3.org/2000/svg"
   xmlns:xlink="http://www.w3.org/1999/xlink"
   xmlns:sodipodi="http://sodipodi.sourceforge.net/DTD/sodipodi-0.dtd"
   xmlns:inkscape="http://www.inkscape.org/namespaces/inkscape"
   width="1920"
   height="1080"
   id="svg2"
   version="1.1"
   inkscape:version="0.48.2 r9819"
   sodipodi:docname="Bg inkscape_green2.svg"
   inkscape:export-filename="/Users/zmarjanovic/Desktop/Bgs/Bg inkscape.png"
   inkscape:export-xdpi="90"
   inkscape:export-ydpi="90"
   style="enable-background:new">
  <defs
     id="defs4">
    <inkscape:path-effect
       trajectory-nodetypes="cc"
       steps="73"
       equidistant_spacing="true"
       trajectory="M 841.91334,604.83728 692.34003,571.65539"
       is_visible="true"
       id="path-effect3898"
       effect="interpolate" />
    <linearGradient
       id="linearGradient3872">
      <stop
         style="stop-color:#ffffff;stop-opacity:1;"
         offset="0"
         id="stop3874" />
      <stop
         style="stop-color:#ffffff;stop-opacity:1;"
         offset="1"
         id="stop3876" />
    </linearGradient>
    <inkscape:path-effect
       effect="interpolate"
       id="path-effect3827"
       is_visible="true"
       trajectory="m 900.52876,662.73005 129.93664,39.54779"
       equidistant_spacing="true"
       steps="73"
       trajectory-nodetypes="cc" />
    <inkscape:path-effect
       effect="interpolate"
       id="path-effect3820"
       is_visible="true"
       trajectory="M 979.96995,680.03758 964.2857,374.05961"
       equidistant_spacing="true"
       steps="22" />
    <inkscape:path-effect
       fuse_tolerance="0"
       vertical_pattern="false"
       prop_units="false"
       tang_offset="0"
       normal_offset="0"
       spacing="0"
       scale_y_rel="false"
       prop_scale="1"
       copytype="single_stretched"
       pattern="m 8.5714286,-9.2857143 c 0,-2.7599997 2.2400004,-4.9999997 5.0000004,-4.9999997 2.76,0 5,2.24 5,4.9999997 0,2.76 -2.24,5 -5,5 -2.76,0 -5.0000004,-2.24 -5.0000004,-5 z"
       is_visible="true"
       id="path-effect3817"
       effect="skeletal" />
    <inkscape:path-effect
       effect="skeletal"
       id="path-effect3813"
       is_visible="true"
       pattern="m -5.7142857,-315 c 0,-2.76 2.24,-5 4.99999999,-5 2.76000001,0 5.00000001,2.24 5.00000001,5 0,2.76 -2.24,5 -5.00000001,5 -2.75999999,0 -4.99999999,-2.24 -4.99999999,-5 z"
       copytype="single_stretched"
       prop_scale="1"
       scale_y_rel="false"
       spacing="0"
       normal_offset="0"
       tang_offset="0"
       prop_units="false"
       vertical_pattern="false"
       fuse_tolerance="0" />
    <inkscape:path-effect
       effect="interpolate"
       id="path-effect3809"
       is_visible="true"
       trajectory="m 980.00002,460.08105 37.14278,361.58746"
       equidistant_spacing="true"
       steps="36" />
    <inkscape:path-effect
       effect="interpolate"
       id="path-effect3805"
       is_visible="true"
       trajectory="M 0,0 0,0"
       equidistant_spacing="true"
       steps="5" />
    <inkscape:path-effect
       effect="interpolate"
       id="path-effect3803"
       is_visible="true"
       trajectory="M 0,0 0,0"
       equidistant_spacing="true"
       steps="18" />
    <inkscape:path-effect
       effect="skeletal"
       id="path-effect3794"
       is_visible="true"
       pattern="M 0,5 C 0,2.24 2.24,0 5,0 7.76,0 10,2.24 10,5 10,7.76 7.76,10 5,10 2.24,10 0,7.76 0,5 z"
       copytype="single_stretched"
       prop_scale="1"
       scale_y_rel="false"
       spacing="0"
       normal_offset="0"
       tang_offset="0"
       prop_units="false"
       vertical_pattern="false"
       fuse_tolerance="0" />
    <inkscape:path-effect
       effect="interpolate"
       id="path-effect3790"
       is_visible="true"
       trajectory="M 0,0 0,0"
       equidistant_spacing="true"
       steps="5" />
    <inkscape:path-effect
       effect="interpolate"
       id="path-effect3784"
       is_visible="true"
       trajectory="M 0,0 0,0"
       equidistant_spacing="true"
       steps="30" />
    <inkscape:path-effect
       fuse_tolerance="0"
       vertical_pattern="false"
       prop_units="false"
       tang_offset="0"
       normal_offset="0"
       spacing="0"
       scale_y_rel="false"
       prop_scale="1"
       copytype="single_stretched"
       pattern="m 122.85714,-97.857147 c 0,-2.760003 2.24,-5.000003 5,-5.000003 2.76,0 5,2.24 5,5.000003 0,2.76 -2.24,5 -5,5 -2.76,0 -5,-2.24 -5,-5 z"
       is_visible="true"
       id="path-effect3782"
       effect="skeletal" />
    <inkscape:path-effect
       effect="skeletal"
       id="path-effect3778"
       is_visible="true"
       pattern="m -60,-140.71429 c 0,-2.76 2.24,-5 5,-5 2.76,0 5,2.24 5,5 0,2.76 -2.24,5 -5,5 -2.76,0 -5,-2.24 -5,-5 z"
       copytype="single_stretched"
       prop_scale="1"
       scale_y_rel="false"
       spacing="0"
       normal_offset="0"
       tang_offset="0"
       prop_units="false"
       vertical_pattern="false"
       fuse_tolerance="0" />
    <linearGradient
       id="linearGradient3763">
      <stop
         id="stop3771"
         offset="0"
         style="stop-color:#7ac142;stop-opacity:1;" />
      <stop
         style="stop-color:#00843e;stop-opacity:1;"
         offset="1"
         id="stop3767" />
    </linearGradient>
    <linearGradient
       id="linearGradient3755">
      <stop
         style="stop-color:#2a7f6f;stop-opacity:1"
         offset="0"
         id="stop3757" />
      <stop
         style="stop-color:#0a2022;stop-opacity:1"
         offset="1"
         id="stop3759" />
    </linearGradient>
    <radialGradient
       inkscape:collect="always"
       xlink:href="#linearGradient3763"
       id="radialGradient3773"
       cx="-213.39397"
       cy="887.60498"
       fx="-213.39397"
       fy="887.60498"
       r="972.19574"
       gradientTransform="matrix(1.0482576,-0.85406601,0.75025722,0.88885986,464.9448,24.867713)"
       gradientUnits="userSpaceOnUse" />
    <linearGradient
       inkscape:collect="always"
       xlink:href="#linearGradient3872"
       id="linearGradient3892"
       gradientUnits="userSpaceOnUse"
       x1="-53.357166"
       y1="657.27307"
       x2="2216.2144"
       y2="577.27307"
       gradientTransform="matrix(0.94745431,0,0,0.90481434,-29.329975,140.40508)" />
    <linearGradient
       inkscape:collect="always"
       xlink:href="#linearGradient3872"
       id="linearGradient3896"
       gradientUnits="userSpaceOnUse"
       gradientTransform="matrix(-1.1197647,0.05636276,0.09138766,-0.93601717,1888.1267,1089.8587)"
       x1="-53.357166"
       y1="657.27307"
       x2="2216.2144"
       y2="577.27307" />
    <filter
       id="filter3024"
       inkscape:label="Desaturate"
       x="0"
       y="0"
       width="1"
       height="1"
       inkscape:menu="Color"
       inkscape:menu-tooltip="Render in shades of gray by reducing saturation to zero"
       color-interpolation-filters="sRGB">
      <feTurbulence
         id="feTurbulence3026"
         baseFrequency="0.40000000000000002"
         numOctaves="7"
         seed="797"
         result="fbSourceGraphic" />
      <feColorMatrix
         result="fbSourceGraphicAlpha"
         in="fbSourceGraphic"
         values="0 0 0 -1 0 0 0 0 -1 0 0 0 0 -1 0 0 0 0 1 0"
         id="feColorMatrix3028" />
      <feColorMatrix
         id="feColorMatrix3030"
         type="saturate"
         values="0"
         in="fbSourceGraphic" />
    </filter>
    <filter
       inkscape:collect="always"
       id="filter3032"
       color-interpolation-filters="sRGB">
      <feBlend
         inkscape:collect="always"
         mode="multiply"
         in2="BackgroundImage"
         id="feBlend3034" />
    </filter>
    <clipPath
       clipPathUnits="userSpaceOnUse"
       id="clipPath130">
      <path
         inkscape:connector-curvature="0"
         d="M 0,612 792,612 792,0 0,0 0,612 z"
         id="path132" />
    </clipPath>
    <linearGradient
       inkscape:collect="always"
       xlink:href="#linearGradient3763"
       id="linearGradient3893"
       x1="448.57141"
       y1="1149.505"
       x2="442.85715"
       y2="415.21933"
       gradientUnits="userSpaceOnUse"
       gradientTransform="matrix(1,0,0,0.87226299,0,106.1197)" />
  </defs>
  <sodipodi:namedview
     id="base"
     pagecolor="#ffffff"
     bordercolor="#666666"
     borderopacity="1.0"
     inkscape:pageopacity="0.0"
     inkscape:pageshadow="2"
     inkscape:zoom="0.35"
     inkscape:cx="1769.0242"
     inkscape:cy="519.73446"
     inkscape:document-units="px"
     inkscape:current-layer="layer2"
     showgrid="false"
     inkscape:window-width="1920"
     inkscape:window-height="1032"
     inkscape:window-x="0"
     inkscape:window-y="22"
     inkscape:window-maximized="1" />
  <metadata
     id="metadata7">
    <rdf:RDF>
      <cc:Work
         rdf:about="">
        <dc:format>image/svg+xml</dc:format>
        <dc:type
           rdf:resource="http://purl.org/dc/dcmitype/StillImage" />
        <dc:title></dc:title>
      </cc:Work>
    </rdf:RDF>
  </metadata>
  <g
     inkscape:label="BG"
     inkscape:groupmode="layer"
     id="layer1"
     transform="translate(0,27.63782)"
     style="display:inline"
     sodipodi:insensitive="true">
    <rect
       style="fill:url(#linearGradient3893);fill-opacity:1;fill-rule:nonzero;stroke:#0a2022;stroke-width:1.45710564;stroke-linecap:butt;stroke-linejoin:bevel;stroke-miterlimit:4;stroke-opacity:1;stroke-dasharray:none;stroke-dashoffset:0"
       id="rect2985"
       width="1942.8572"
       height="1097.8179"
       x="-8.5714283"
       y="-33.271603"
       inkscape:export-xdpi="90"
       inkscape:export-ydpi="90" />
  </g>
  <g
     inkscape:groupmode="layer"
     id="layer5"
     inkscape:label="logo"
     transform="translate(0,-120)"
     sodipodi:insensitive="true">
    <g
       style="display:inline"
       transform="matrix(2.6546234,0,0,-2.6546234,1206.1191,623.09252)"
       id="g126">
      <g
         id="g128"
         clip-path="url(#clipPath130)">
        <g
           id="g134"
           transform="translate(210.3418,147.9902)">
          <path
             inkscape:connector-curvature="0"
             d="m 0,0 c -0.049,0.006 -4.881,0.703 -4.926,0.711 -0.847,0.135 -1.281,0.557 -1.281,1.244 0,0.69 0.598,1.08 1.088,1.08 l 7.984,0 0,2.983 -7.969,0 c -2.531,0 -4.275,-1.922 -4.275,-4.063 0,-1.873 1.127,-3.812 3.699,-4.213 0.045,-0.006 4.881,-0.707 4.928,-0.715 0.848,-0.132 1.281,-0.55 1.281,-1.24 0,-0.691 -0.597,-1.078 -1.09,-1.078 l -5.835,0 0,-0.002 c -1.182,-0.041 -2.428,-0.945 -2.428,-2.721 l 0,-0.265 8.252,0 c 2.527,0 4.273,1.924 4.273,4.066 C 3.701,-2.34 2.578,-0.4 0,0 m 42.389,3.035 c 1.183,0.037 2.429,0.944 2.429,2.717 l 0,0.266 -8.64,0 C 33.646,6.018 31.9,4.096 31.9,1.955 l 0,-6.168 c 0,-2.142 1.746,-4.066 4.278,-4.066 l 8.64,0 0,0.265 c 0,1.776 -1.246,2.68 -2.429,2.721 l 0,0.002 -6.229,0 c -0.49,0 -1.086,0.387 -1.086,1.078 0,0.69 0.451,1.24 1.278,1.24 l 2.701,0 c 2.375,0.014 3.746,1.471 4.177,3.135 l -6.494,0 c -1.17,0 -1.662,-0.928 -1.662,-0.928 l 0,2.721 c 0,0.69 0.594,1.08 1.086,1.08 l 6.229,0 z m -28.381,2.986 0,-8.501 c 0,-1.774 -1.44,-3.217 -3.215,-3.217 -1.779,0 -3.215,1.443 -3.215,3.217 l 0,8.501 -3.099,0 0,-8.324 c 0,-3.484 2.826,-6.312 6.314,-6.312 3.484,0 6.312,2.828 6.312,6.312 l 0,8.324 -3.097,0 z M 31.086,-4.213 c 0,-2.142 -1.746,-4.066 -4.272,-4.066 l -7.972,0 0,2.988 7.988,0 c 0.492,0 1.084,0.387 1.084,1.078 0,0.69 -0.434,1.108 -1.281,1.24 -0.045,0.008 -4.881,0.709 -4.928,0.715 -2.576,0.401 -3.697,2.34 -3.697,4.213 0,2.141 1.744,4.063 4.273,4.063 l 7.973,0 0,-2.983 -7.988,0 c -0.491,0 -1.086,-0.39 -1.086,-1.08 0,-0.687 0.429,-1.109 1.279,-1.244 0.047,-0.008 4.883,-0.705 4.928,-0.711 2.576,-0.4 3.699,-2.34 3.699,-4.213"
             style="fill:#ffffff;fill-opacity:1;fill-rule:nonzero;stroke:none"
             id="path136" />
        </g>
        <g
           id="g138"
           transform="translate(222.125,166.3164)">
          <path
             inkscape:connector-curvature="0"
             d="M 0,0 C 0.018,0.625 0.283,1.205 0.74,1.631 1.195,2.057 1.791,2.277 2.416,2.258 3.705,2.211 4.719,1.125 4.676,-0.164 4.652,-0.789 4.391,-1.365 3.936,-1.793 3.479,-2.221 2.881,-2.441 2.256,-2.42 0.969,-2.371 -0.043,-1.287 0,0 m -3.758,4.523 c 0,0 -0.017,-1.134 -0.019,-1.261 -0.565,0.185 -4.625,1.498 -8.434,1.633 -3.225,0.111 -7.633,0.265 -13.863,-3.561 l -0.184,-0.117 c -2.928,-1.828 -4.949,-4.08 -6.01,-6.701 -0.332,-0.825 -0.777,-2.686 -0.337,-4.434 0.191,-0.764 0.548,-1.531 1.027,-2.223 1.082,-1.552 2.896,-2.584 4.851,-2.757 2.76,-0.245 4.852,0.994 5.596,3.314 0.512,1.604 0,3.951 -1.959,5.15 -1.594,0.977 -3.31,0.754 -4.303,0.098 -0.863,-0.572 -1.353,-1.461 -1.343,-2.439 0.021,-1.727 1.511,-2.649 2.582,-2.649 0.312,0 0.627,0.051 0.98,0.17 0.125,0.035 0.24,0.082 0.373,0.164 l 0.041,0.026 0.026,0.013 -0.008,-0.004 c 0.246,0.166 0.392,0.438 0.392,0.727 0,0.082 -0.013,0.16 -0.035,0.242 -0.125,0.436 -0.562,0.703 -1.011,0.619 l -0.057,-0.01 -0.082,-0.027 -0.121,-0.039 c -0.246,-0.064 -0.432,-0.068 -0.471,-0.07 -0.127,0.009 -0.746,0.195 -0.746,0.871 l 0,0.008 c 0.004,0.246 0.103,0.421 0.158,0.515 0.19,0.301 0.715,0.598 1.428,0.535 0.932,-0.08 1.601,-0.56 2.049,-1.459 0.412,-0.837 0.304,-1.867 -0.278,-2.623 -0.582,-0.754 -1.611,-1.072 -2.986,-0.922 -1.383,0.153 -2.553,0.95 -3.211,2.19 -0.639,1.209 -0.676,2.646 -0.092,3.752 1.403,2.644 4.051,2.615 5.498,2.367 2.065,-0.355 5.194,-2.205 6.364,-6.484 l 2.853,0 c -0.351,1.092 -0.555,4.248 2.656,4.248 3.524,0 3.969,-2.481 4.963,-4.248 l 3.024,0 c -0.795,1.138 -1.352,2.404 -1.174,3.47 0.26,1.571 1.51,1.43 3.244,1.235 0.564,-0.067 1.209,-0.139 1.875,-0.155 1.861,-0.011 3.549,0.333 4.781,0.87 0.799,0.349 1.307,0.58 1.629,0.869 0.113,0.095 0.174,0.252 0.235,0.416 l 0.041,0.113 c 0.056,0.133 0.119,0.418 0.162,0.572 0.082,0.315 -0.2,0.149 -0.2,0.149 C 5.607,-3.65 4.248,-4.268 2.982,-4.293 1.41,-4.326 -1.756,-2.715 -2.09,-2.541 l -0.029,0.037 c -0.08,0.188 -0.557,1.315 -0.654,1.551 2.279,-1.504 4.169,-2.332 5.619,-2.461 1.611,-0.145 2.869,0.736 3.406,1.111 0.053,0.039 0.269,0.18 0.221,0.356 C 6.262,-1.215 5.537,1.238 4.934,1.859 4.758,2.041 4.621,2.215 4.33,2.381 2.027,3.725 -3.439,4.537 -3.697,4.574 c 0,0 -0.061,0.016 -0.061,-0.051"
             style="fill:#ffffff;fill-opacity:1;fill-rule:nonzero;stroke:none"
             id="path140" />
        </g>
        <g
           id="g142"
           transform="translate(224.7891,166.0996)">
          <path
             inkscape:connector-curvature="0"
             d="m 0,0 c -0.4,0 -0.725,0.217 -0.725,0.482 0,0.27 0.325,0.485 0.725,0.485 0.4,0 0.725,-0.215 0.725,-0.485 C 0.725,0.217 0.4,0 0,0 M -0.266,1.787 C -0.703,1.803 -1.119,1.646 -1.432,1.35 -1.754,1.053 -1.938,0.648 -1.949,0.215 c -0.031,-0.903 0.672,-1.66 1.57,-1.692 0.438,-0.013 0.852,0.141 1.172,0.438 0.318,0.297 0.504,0.699 0.518,1.137 0.029,0.9 -0.676,1.656 -1.577,1.689"
             style="fill:#ffffff;fill-opacity:1;fill-rule:nonzero;stroke:none"
             id="path144" />
        </g>
        <g
           id="g146"
           transform="translate(257.1514,140.8809)">
          <path
             inkscape:connector-curvature="0"
             d="m 0,0 c 0,-0.08 -0.057,-0.135 -0.161,-0.135 l -0.21,0 0,0.272 0.205,0 C -0.063,0.137 0,0.09 0,0 m 0.208,0.014 c 0,0.191 -0.141,0.304 -0.368,0.304 l -0.418,0 0,-0.929 0.207,0 0,0.298 0.164,0 0.202,-0.298 0.243,0 -0.231,0.334 c 0.122,0.043 0.201,0.136 0.201,0.291 m 0.364,-0.182 c 0,-0.432 -0.339,-0.783 -0.788,-0.783 -0.445,0 -0.78,0.347 -0.78,0.777 0,0.43 0.337,0.781 0.785,0.781 0.448,0 0.783,-0.349 0.783,-0.775 m 0.204,0 c 0,0.533 -0.432,0.971 -0.987,0.971 -0.554,0 -0.99,-0.444 -0.99,-0.977 0,-0.535 0.43,-0.974 0.985,-0.974 0.553,0 0.992,0.445 0.992,0.98"
             style="fill:#ffffff;fill-opacity:1;fill-rule:nonzero;stroke:none"
             id="path148" />
        </g>
      </g>
    </g>
  </g>
  <g
     inkscape:groupmode="layer"
     id="layer4"
     inkscape:label="noise"
     style="opacity:0.16712329;display:none;filter:url(#filter3032)"
     sodipodi:insensitive="true"
     transform="translate(0,-120)">
    <rect
       style="fill:#144156;fill-opacity:1;fill-rule:nonzero;stroke:none;filter:url(#filter3024)"
       id="rect3020"
       width="1959.6959"
       height="1276.8328"
       x="-14.142136"
       y="-14.203351" />
  </g>
  <g
     inkscape:groupmode="layer"
     id="layer2"
     inkscape:label="net front"
     style="opacity:0.32327624;display:inline"
     transform="translate(0,-120)">
    <path
       id="path3824"
       style="fill:none;stroke:url(#linearGradient3892);stroke-width:0.92588884px;stroke-linecap:butt;stroke-linejoin:miter;stroke-opacity:1"
       d="m -166.03411,280.39785 c 109.341991,3.44006 235.369562,1.63401 330.25548,62.0444 70.42038,44.83409 119.69018,111.70222 160.02418,186.60506 80.66801,149.80569 125.59282,331.75024 232.49261,433.83898 121.16294,115.71011 337.0647,-241.51217 473.13414,-450.12982 68.0347,-104.30882 116.1114,-171.46649 122.4085,-123.7809 63.6236,481.78869 314.7114,1054.30163 814.8108,266.27396 M -165.54535,288.93923 c 113.495556,2.46328 244.336287,0.44302 341.9505,58.95074 70.79103,43.85684 120.44553,109.3501 160.88239,182.61882 80.63231,146.75362 125.75704,325.80883 232.08362,426.32594 120.39163,113.94927 334.2939,-238.25673 469.90874,-444.11397 68.0631,-102.95304 116.2986,-168.79725 123.221,-121.22375 64.8779,476.74783 313.5904,1044.48539 807.7113,263.89206 M -165.05658,297.48062 c 117.649111,1.48649 253.303002,-0.74799 353.6455,55.85706 71.16169,42.8796 121.20089,106.998 161.7406,178.63259 80.59663,143.70156 125.92128,319.86742 231.67465,418.81289 119.62031,112.18844 331.52309,-235.00128 466.68333,-438.09812 68.0914,-101.59725 116.4859,-166.12801 124.0335,-118.66659 66.1322,471.70696 312.4695,1034.66905 800.6118,261.51015 M -164.56781,306.022 c 121.802666,0.50971 262.269716,-1.93898 365.3405,52.76339 71.53235,41.90236 121.95626,104.64589 162.59882,174.64636 80.56094,140.64949 126.0855,313.92602 231.26566,411.29985 118.849,110.4276 328.75229,-231.74584 463.45793,-432.08227 68.1197,-100.24146 116.6732,-163.45877 124.8459,-116.10943 67.3866,466.66608 311.3486,1024.8528 793.5124,259.12824 M -164.07904,314.56338 c 125.95622,-0.46706 271.23643,-3.12997 377.03551,49.66972 71.903,40.92512 122.71161,102.29379 163.45702,170.66013 80.52525,137.59742 126.24973,307.98461 230.85668,403.7868 118.07769,108.66677 325.98149,-228.49038 460.23253,-426.06641 68.1481,-98.88568 116.8604,-160.78953 125.6584,-113.55228 68.6409,461.62521 310.2276,1015.03656 786.4129,256.74633 M -163.59028,323.10476 c 130.109785,-1.44384 280.20316,-4.32097 388.73052,46.57605 72.27365,39.94788 123.46697,99.94169 164.31524,166.6739 80.48956,134.54535 126.41395,302.0432 230.44769,396.27376 117.30638,106.90593 323.21069,-225.23494 457.00703,-420.05057 68.1765,-97.52989 117.0478,-158.12029 126.471,-110.99512 69.8952,456.58434 309.1066,1005.22032 779.3134,254.36443 M -163.10151,331.64614 c 134.26334,-2.42062 289.16987,-5.51196 400.42553,43.48239 72.6443,38.97063 124.22233,97.58957 165.17344,162.68766 80.45387,131.49329 126.57819,296.1018 230.03871,388.76071 116.53507,105.1451 320.43989,-221.97949 453.78163,-414.03471 68.2049,-96.17411 117.235,-155.45105 127.2834,-108.43797 71.1496,451.54347 307.9857,995.40398 772.2139,251.98252 M -162.61274,340.18752 c 138.416895,-3.3974 298.13658,-6.70296 412.12053,40.38872 73.01496,37.99339 124.97769,95.23747 166.03166,158.70143 80.41818,128.44122 126.74241,290.16039 229.62973,381.24767 115.76376,103.38426 317.66908,-218.72404 450.55622,-408.01887 68.2332,-94.81832 117.4223,-152.7818 128.0959,-105.88081 72.4038,446.50261 306.8647,985.58774 765.1144,249.60061 M -162.12397,348.7289 c 142.570449,-4.37418 307.1033,-7.89395 423.81553,37.29505 73.38562,37.01615 125.73305,92.88536 166.88987,154.7152 80.38249,125.38915 126.90664,284.21899 229.22075,373.73462 114.99245,101.62343 314.89827,-215.46859 447.33082,-402.00301 68.2616,-93.46254 117.6096,-150.11256 128.9083,-103.32366 73.6582,441.46174 305.7438,975.7715 758.015,247.21871 M -161.63521,357.27028 c 146.724014,-5.35096 316.07002,-9.08495 435.51055,34.20138 73.75627,36.03891 126.48841,90.53326 167.74807,150.72897 80.34681,122.33709 127.07088,278.27758 228.81177,366.22157 114.22114,99.8627 312.12747,-212.21314 444.10542,-395.98715 68.2899,-92.10676 117.7968,-147.44333 129.7208,-100.76651 74.9125,436.42087 304.6229,965.95526 750.9155,244.8368 M -161.14644,365.81166 c 150.877569,-6.32774 325.03674,-10.27594 447.20555,31.10772 74.12693,35.06166 127.24377,88.18115 168.60629,146.74272 80.31112,119.28503 127.2351,272.33618 228.40278,358.70854 113.44983,98.10186 309.35667,-208.9577 440.88002,-389.97131 68.3182,-90.75096 117.9841,-144.77408 130.5333,-98.20935 76.1668,431.38 303.5019,956.13892 743.816,242.4549 M -160.65767,374.35305 c 155.0311236,-7.30453 334.00345,-11.46695 458.90056,28.01404 74.49758,34.08442 127.99912,85.82904 169.46449,142.75649 80.27543,116.23296 127.39933,266.39478 227.9938,351.19549 112.67852,96.34101 306.58592,-205.70224 437.65462,-383.95545 68.3466,-89.39518 118.1714,-142.10484 131.3457,-95.6522 77.4212,426.33913 302.381,946.32268 736.7166,240.07299 M -160.1689,382.89443 c 159.18467833,-8.28131 342.97017,-12.65794 470.59556,24.92037 74.86824,33.10718 128.75449,83.47694 170.32271,138.77026 80.23974,113.18089 127.56356,260.45337 227.58481,343.68245 111.90721,94.58018 303.81512,-202.4468 434.42912,-377.93961 68.375,-88.03939 118.3587,-139.4356 132.1583,-93.09504 78.6755,421.29826 301.26,936.50644 729.617,237.69109 M -159.68014,391.43581 c 163.3382431,-9.25809 351.93689,-13.84894 482.29058,21.8267 75.23889,32.12994 129.50984,81.12483 171.18091,134.78403 80.20405,110.12883 127.72779,254.51196 227.17584,336.1694 111.1359,92.81936 301.04431,-199.19135 431.20371,-371.92375 68.4034,-86.68361 118.546,-136.76636 132.9708,-90.53789 79.9298,416.2574 300.139,926.6902 722.5175,235.30918 M -159.19137,399.97719 c 167.4917978,-10.23487 360.90361,-15.03993 493.98558,18.73304 75.60955,31.15269 130.2652,78.77272 172.03913,130.79779 80.16836,107.07676 127.89201,248.57056 226.76685,328.65636 110.36459,91.05853 298.27351,-195.9359 427.97831,-365.90791 68.4317,-85.32782 118.7333,-134.09711 133.7832,-87.98073 81.1842,411.21653 299.0181,916.87386 715.4181,232.92728 M -158.7026,408.51857 c 171.645353,-11.21165 369.87032,-16.23092 505.68058,15.63937 75.98021,30.17545 131.02057,76.42062 172.89734,126.81156 80.13268,104.02469 128.05625,242.62915 226.35787,321.14331 109.59328,89.29771 295.50261,-192.68045 424.75291,-359.89205 68.46,-83.97204 118.9205,-131.42788 134.5957,-85.42358 82.4385,406.17566 297.8971,907.05762 708.3186,230.54537 M -158.21383,417.05995 c 175.798907,-12.18843 378.83703,-17.42192 517.37559,12.5457 76.35086,29.19821 131.77592,74.06851 173.75555,122.82533 80.09698,100.97263 128.22047,236.68774 225.94888,313.63027 108.82197,87.53688 292.73181,-189.42501 421.52751,-353.8762 68.4884,-82.61625 119.1078,-128.75864 135.4082,-82.86643 83.6927,401.13479 296.7762,897.24138 701.2191,228.16346 M -157.72507,425.60133 c 179.952472,-13.16521 387.80376,-18.61291 529.0706,9.45203 76.72152,28.22097 132.53128,71.71641 174.61376,118.8391 80.0613,97.92056 128.3847,230.74634 225.5399,306.11722 108.05066,85.77606 289.96101,-186.16956 418.30211,-347.86035 68.5167,-81.26046 119.2951,-126.08939 136.2206,-80.30927 84.9471,396.09392 295.6553,887.42514 694.1197,225.78156 M -157.2363,434.14271 c 184.106027,-14.14199 396.77047,-19.80391 540.76561,6.35836 77.09217,27.24373 133.28663,69.3643 175.47197,114.85287 80.0256,94.86849 128.54892,224.80493 225.13092,298.60418 107.27934,84.01523 287.1902,-182.91411 415.0767,-341.8445 68.5451,-79.90468 119.4823,-123.42015 137.0331,-77.75211 86.2014,391.05304 294.5343,877.60889 687.0201,223.39964 M -156.74753,442.68409 c 188.259581,-15.11877 405.73719,-20.9949 552.46061,3.2647 77.46283,26.26648 134.042,67.01219 176.33018,110.86663 79.98992,91.81643 128.71316,218.86353 224.72194,291.09113 106.50803,82.25441 284.4194,-179.65866 411.8513,-335.82865 68.5734,-78.54889 119.6696,-120.75091 137.8456,-75.19495 87.4557,386.01218 293.4133,867.79255 679.9206,221.01774 M -156.25876,451.22548 c 192.413136,-16.09556 414.7039,-22.18591 564.15561,0.17102 77.83349,25.28924 134.79736,64.66008 177.1884,106.8804 79.95423,88.76436 128.87738,212.92212 224.31295,283.57809 105.73673,80.49358 281.6486,-176.40322 408.6258,-329.8128 68.6019,-77.19311 119.8569,-118.08167 138.6581,-72.6378 88.7101,380.97131 292.2924,857.97631 672.8212,218.63583 M -155.77,459.76686 c 196.566701,-17.07234 423.67063,-23.3769 575.85063,-2.92265 78.20414,24.312 135.55271,62.30798 178.0466,102.89417 79.91854,85.71229 129.04161,206.98071 223.90397,276.06504 104.96542,78.73276 278.8778,-173.14777 405.4004,-323.79694 68.6302,-75.83733 120.0442,-115.41243 139.4706,-70.08065 89.9644,375.93044 291.1714,848.16007 665.7217,216.25393 M -155.28123,468.30824 c 200.720256,-18.04912 432.63734,-24.5679 587.54563,-6.01632 78.5748,23.33476 136.30808,59.95588 178.90482,98.90794 79.88285,82.66022 129.20584,201.03931 223.49498,268.552 104.19411,76.97193 276.107,-169.89232 402.175,-317.7811 68.6585,-74.48154 120.2315,-112.74319 140.2831,-67.52349 91.2187,370.88957 290.0504,838.34383 658.6222,213.87202 M -154.79246,476.84962 c 204.87381,-19.0259 441.60406,-25.75889 599.24064,-9.10998 78.94545,22.35751 137.06343,57.60376 179.76302,94.9217 79.84716,79.60816 129.37007,195.0979 223.08601,261.03895 C 950.72,898.9114 1120.6334,657.06342 1246.2468,511.93505 c 68.6869,-73.12575 120.4187,-110.07395 141.0955,-64.96634 92.4731,365.8487 288.9296,828.52749 651.5228,211.49012 M -154.30369,485.391 c 209.027365,-20.00268 450.57077,-26.94988 610.93564,-12.20365 79.31611,21.38027 137.81879,55.25166 180.62124,90.93547 79.81147,76.55609 129.53429,189.15649 222.67702,253.5259 102.65148,73.45029 270.56539,-163.38142 395.72419,-305.74939 68.7152,-71.76996 120.606,-107.4047 141.908,-62.40918 93.7273,360.80784 287.8086,818.71125 644.4232,209.10821 M -153.81493,493.93238 C 59.366,472.95292 305.72257,465.7915 468.81572,478.63506 c 79.68677,20.40303 138.57416,52.89955 181.47945,86.94923 79.77578,73.50403 129.69853,183.2151 222.26804,246.01287 101.88017,71.68947 267.79459,-160.12597 392.49879,-299.73354 68.7436,-70.41418 120.7933,-104.73547 142.7204,-59.85203 94.9817,355.76697 286.6877,808.89501 637.3238,206.7263 M -153.32616,502.47376 c 217.334485,-21.95624 468.50421,-29.33187 634.32566,-18.39099 80.05742,19.42579 139.32951,50.54745 182.33766,82.963 79.74009,70.45197 129.86275,177.27369 221.85905,238.49982 101.10887,69.92865 265.02379,-156.87052 389.27339,-293.71769 68.7719,-69.05839 120.9805,-102.06622 143.5329,-57.29487 96.236,350.7261 285.5667,799.07877 630.2243,204.3444 M -152.83739,511.01514 c 221.488039,-22.93302 477.47092,-30.52287 646.02066,-21.48465 80.42808,18.44854 140.08487,48.19534 183.19587,78.97676 79.70441,67.3999 130.02698,171.33228 221.45007,230.98678 100.33756,68.16782 262.25299,-153.61508 386.04789,-287.70184 68.8003,-67.70261 121.1679,-99.39698 144.3455,-54.73772 97.4903,345.68523 284.4457,789.26243 623.1248,201.96249 M -152.34863,519.55652 c 225.641604,-23.90979 486.43765,-31.71386 657.71568,-24.57832 80.79873,17.4713 140.84023,45.84323 184.05408,74.99053 79.66871,64.34783 130.19121,165.39088 221.04108,223.47373 99.56629,66.407 259.48219,-150.35963 382.82249,-281.68598 68.8287,-66.34683 121.3552,-96.72774 145.1579,-52.18057 98.7447,340.64436 283.3248,779.44619 616.0254,199.58059 M -151.85986,528.09791 c 229.795159,-24.88658 495.40436,-32.90487 669.41068,-27.672 81.16939,16.49406 141.59559,43.49113 184.91229,71.0043 79.63303,61.29576 130.35544,159.44947 220.63211,215.96069 98.79488,64.64617 256.71138,-147.10418 379.59708,-275.67014 68.857,-64.99104 121.5424,-94.0585 145.9704,-49.62341 99.999,335.60349 282.2038,769.62995 608.9259,197.19868 M -151.37109,536.63929 c 233.948714,-25.86336 504.37108,-34.09586 681.10568,-30.76567 81.54005,15.51682 142.35095,41.13902 185.77051,67.01807 79.59733,58.2437 130.51966,153.50807 220.22312,208.44764 98.02358,62.88535 253.94058,-143.84873 376.37168,-269.65428 68.8854,-63.63525 121.7297,-91.38926 146.7829,-47.06626 101.2533,330.56263 281.0829,759.81371 601.8263,194.81678 M -150.88232,545.18067 c 238.102268,-26.84014 513.33779,-35.28686 692.80069,-33.85934 81.9107,14.53958 143.10631,38.78692 186.62871,63.03184 79.56165,55.19163 130.68389,147.56666 219.81414,200.9346 97.25228,61.12452 251.16978,-140.59329 373.14628,-263.63844 68.9137,-62.27946 121.9169,-88.72001 147.5953,-44.5091 102.5077,325.52176 279.962,749.99737 594.7269,192.43487 M -150.39356,553.72205 c 242.255833,-27.81692 522.30452,-36.47785 704.4957,-36.953 82.28136,13.56233 143.86167,36.43481 187.48693,59.0456 79.52596,52.13956 130.84812,141.62525 219.40515,193.42155 96.48098,59.3637 248.39898,-137.33783 369.92088,-257.62258 68.9421,-60.92368 122.1042,-86.05078 148.4078,-41.95195 103.7619,320.48089 278.841,740.18113 587.6274,190.05297 M -149.90479,562.26343 c 246.409388,-28.7937 531.27123,-37.66885 716.19071,-40.04667 82.65201,12.58509 144.61702,34.0827 188.34513,55.05937 79.49027,49.0875 131.01235,135.68385 218.99617,185.90851 95.70968,57.60287 245.62818,-134.08239 366.69548,-251.60673 68.9704,-59.5679 122.2915,-83.38154 149.2203,-39.3948 105.0162,315.44002 277.72,730.36489 580.5279,187.67106 M -149.41602,570.80481 c 250.56294,-29.77048 540.23795,-38.85984 727.88571,-43.14034 83.02267,11.60785 145.37239,31.7306 189.20335,51.07314 79.45458,46.03543 131.17657,129.74244 218.58719,178.39546 94.93837,55.84205 242.85737,-130.82694 363.47007,-245.59088 68.9987,-58.21211 122.4787,-80.71229 150.0327,-36.83763 106.2706,310.39914 276.5991,720.54864 573.4285,185.28914 M -148.92725,579.34619 c 254.7165,-30.74726 549.20466,-40.05083 739.58071,-46.23401 83.39333,10.63061 146.12775,29.37849 190.06156,47.08691 79.41889,42.98336 131.34081,123.80103 218.17821,170.88242 94.16707,54.08122 240.08657,-127.5715 360.24457,-239.57503 69.0272,-56.85633 122.6661,-78.04306 150.8453,-34.28048 107.5249,305.35827 275.4781,710.7323 566.329,182.90724 M -148.43849,587.88757 c 258.87006,-31.72404 558.17139,-41.24183 751.27573,-49.32767 83.76398,9.65336 146.8831,27.02638 190.91977,43.10067 79.3832,39.93129 131.50503,117.85963 217.76919,163.36937 93.3958,52.3204 237.3158,-124.31604 357.0192,-233.55918 69.0555,-55.50054 122.8534,-75.37381 151.6578,-31.72332 108.7792,300.31741 274.3571,700.91606 559.2294,180.52533 M -147.94972,596.42895 c 263.02362,-32.70082 567.1381,-42.43282 762.97073,-52.42134 84.13464,8.67612 147.63846,24.67427 191.77798,39.11444 79.34751,36.87923 131.66926,111.91822 217.36021,155.85632 92.6245,50.55958 234.545,-121.06059 353.7938,-227.54332 69.0839,-54.14475 123.0406,-72.70457 152.4702,-29.16617 110.0336,295.27654 273.2362,691.09982 552.13,178.14343 M -147.46095,604.97034 c 267.17717,-33.67761 576.10481,-43.62383 774.66574,-55.51502 84.50529,7.69888 148.39382,22.32217 192.63619,35.12821 79.31182,33.82716 131.83349,105.97681 216.95122,148.34328 91.8532,48.79875 231.7742,-117.80515 350.5684,-221.52748 69.1122,-52.78896 123.2279,-70.03532 153.2827,-26.60901 111.2879,290.23567 272.1153,681.28358 545.0305,175.76152 M -146.97218,613.51172 c 271.33073,-34.65439 585.07153,-44.81482 786.36074,-58.60869 84.87595,6.72164 149.14918,19.97007 193.4944,31.14198 79.27614,30.77509 131.99772,100.03541 216.54224,140.83023 91.0819,47.03793 229.0034,-114.54969 347.343,-215.51162 69.1405,-51.43318 123.4152,-67.36609 154.0952,-24.05186 112.5422,285.1948 270.9943,671.46724 537.931,173.37962 M -146.48342,622.0531 c 275.48429,-35.63117 594.03825,-46.00582 798.05575,-61.70235 85.24661,5.74439 149.90454,17.61795 194.35262,27.15573 79.24044,27.72304 132.16194,94.09401 216.13325,133.3172 90.3106,45.2771 226.2326,-111.29425 344.1176,-209.49577 69.1689,-50.0774 123.6024,-64.69685 154.9076,-21.49471 113.7966,280.15393 269.8734,661.651 530.8316,170.99771 M -145.99465,630.59448 c 279.63785,-36.60795 603.00497,-47.19681 809.75076,-64.79602 85.61726,4.76715 150.6599,15.26585 195.21082,23.1695 79.20476,24.67097 132.32617,88.15261 215.72427,125.80415 89.5392,43.51628 223.4618,-108.0388 340.8922,-203.47992 69.1972,-48.72161 123.7897,-62.0276 155.7201,-18.93755 115.0508,275.11307 268.7524,651.83476 523.7321,168.61581 M -145.50588,639.13586 c 283.7914,-37.58473 611.97168,-48.38781 821.44576,-67.88969 85.98792,3.78991 151.41526,12.91374 196.06903,19.18327 79.16907,21.6189 132.49039,82.2112 215.31529,118.29111 88.7679,41.75546 220.691,-104.78336 337.6668,-197.46407 69.2256,-47.36583 123.9769,-59.35837 156.5325,-16.3804 116.3052,270.0722 267.6315,642.01852 516.6326,166.2339 M -145.01711,647.67724 c 287.94496,-38.56151 620.9384,-49.5788 833.14077,-70.98336 86.35857,2.81267 152.17061,10.56164 196.92724,15.19704 79.13338,18.56683 132.6546,76.26979 214.9063,110.77806 87.9966,39.99464 217.9202,-101.5279 334.4413,-191.44822 69.254,-46.01003 124.1643,-56.68912 157.3451,-13.82324 117.5595,265.03133 266.5105,632.20218 509.5331,163.85199 m -2245.80505,-5.03089 c 292.09852,-39.53829 629.90512,-50.7698 844.83578,-74.07703 86.72923,1.83543 152.92598,8.20954 197.78545,11.21081 79.0977,15.51477 132.81882,70.32839 214.49732,103.26502 87.2253,38.23381 215.1494,-98.27246 331.2159,-185.43237 69.2823,-44.65425 124.3516,-54.01988 158.1576,-11.26609 118.8138,259.99046 265.3895,622.38594 502.4336,161.47009 M -144.03958,664.76 c 296.25207,-40.51507 638.87184,-51.96079 856.53078,-77.17069 87.09989,0.85818 153.68134,5.85742 198.64367,7.22457 79.062,12.4627 132.98313,64.38698 214.08833,95.75197 86.454,36.47299 212.3786,-95.01701 327.9905,-179.41651 69.3107,-43.29847 124.5388,-51.35065 158.97,-8.70894 120.0682,254.94959 264.2687,612.5697 495.3342,159.08818 m -2251.06871,11.7728 c 300.40563,-41.49185 647.83855,-53.15178 868.22579,-80.26436 87.47054,-0.11906 154.43669,3.50532 199.50187,3.23834 79.02635,9.41063 133.14735,58.44557 213.67935,88.23893 85.6827,34.71216 209.6078,-91.76156 324.7651,-173.40067 69.339,-41.94268 124.7261,-48.6814 159.7825,-6.15178 121.3225,249.90872 263.1477,602.75346 488.2347,156.70628 m -2253.70054,20.17465 c 304.55918,-42.46864 656.80526,-54.34279 879.92079,-83.35804 87.8412,-1.0963 155.19206,1.15321 200.36009,-0.74789 78.99066,6.35857 133.31156,52.50417 213.27046,80.72588 84.9113,32.95134 206.8369,-88.50611 321.5396,-167.38481 69.3674,-40.5869 124.9134,-46.01216 160.595,-3.59463 122.5768,244.86786 262.0267,592.93712 481.1352,154.32437 m -2256.33238,28.5765 c 308.71275,-43.44542 665.77199,-55.53378 891.61581,-86.45171 88.21185,-2.07354 155.94741,-1.19889 201.21829,-4.73412 78.95498,3.3065 133.47578,46.56276 212.86148,73.21284 84.14,31.19051 204.0661,-85.25067 318.3142,-161.36897 69.3957,-39.23111 125.1006,-43.34291 161.4074,-1.03747 123.8312,239.82699 260.9058,583.12088 474.0358,151.94247 m -2258.96421,36.97834 c 312.8663,-44.4222 674.7387,-56.72478 903.31081,-89.54537 88.58251,-3.05079 156.70277,-3.551 202.07651,-8.72036 78.91929,0.25443 133.63999,40.62135 212.45249,65.69979 83.3687,29.42969 201.2953,-81.99522 315.0888,-155.35311 69.4241,-37.87533 125.2879,-40.67368 162.2199,1.51969 125.0854,234.78611 259.7848,573.30463 466.9362,149.56055 m -2261.59594,45.38019 c 317.01986,-45.39898 683.70542,-57.91577 915.00581,-92.63904 88.95317,-4.02803 157.45814,-5.90311 202.93472,-12.70659 78.88361,-2.79764 133.80421,34.67995 212.04351,58.18674 82.5974,27.66887 198.5245,-78.73976 311.8633,-149.33726 69.4525,-36.51953 125.4753,-38.00443 163.0325,4.07685 126.3397,229.74524 258.6638,563.48839 459.8367,147.17865 m -2264.22778,53.78203 c 321.17342,-46.37576 692.67214,-59.10677 926.70083,-95.73271 89.32382,-5.00527 158.21349,-8.25521 203.79293,-16.69282 78.84782,-5.8497 133.96842,28.73854 211.63452,50.6737 81.8261,25.90804 195.7537,-75.48432 308.6379,-143.32141 69.4808,-35.16375 125.6625,-35.33519 163.8449,6.634 127.5941,224.70437 257.5429,553.67205 452.7373,144.79674 m -2266.85961,62.18388 c 325.32698,-47.35253 701.63886,-60.29776 938.39583,-98.82638 89.69448,-5.98251 158.96885,-10.60732 204.65118,-20.67905 78.8121,-8.90177 134.1326,22.79714 211.2255,43.16065 81.0548,24.14722 192.9829,-72.22887 305.4125,-137.30555 69.5092,-33.80797 125.8498,-32.66596 164.6574,9.19115 128.8484,219.6635 256.422,543.85581 445.6378,142.41483 m -2269.49144,70.58573 c 329.48053,-48.32931 710.60557,-61.48876 950.09084,-101.92004 90.06513,-6.95976 159.72421,-12.95943 205.5093,-24.66529 78.7765,-11.95384 134.297,16.85573 210.8166,35.64761 80.2834,22.38639 190.2121,-68.97343 302.1871,-131.28971 69.5375,-32.45218 126.037,-29.99671 165.4699,11.74831 130.1027,214.62264 255.301,534.03957 438.5383,140.03293 m -2272.12327,78.98757 c 333.63409,-49.30609 719.57229,-62.67975 961.78584,-105.01371 90.43579,-7.937 160.47957,-15.31154 206.36753,-28.65152 78.7408,-15.0059 134.4612,10.91432 210.4076,28.13456 79.5121,20.62557 187.4413,-65.71797 298.9617,-125.27385 69.5659,-31.0964 126.2243,-27.32747 166.2823,14.30546 131.3571,209.58177 254.1801,524.22333 431.4389,137.65102 m -2274.75511,87.38942 c 337.78765,-50.28287 728.53901,-63.87074 973.48085,-108.10738 90.80645,-8.91424 161.23493,-17.66364 207.22576,-32.63776 78.7051,-18.05796 134.6254,4.97293 209.9986,20.62153 78.7408,18.86474 184.6705,-62.46253 295.7363,-119.25801 69.5942,-29.74061 126.4116,-24.65823 167.0948,16.86262 132.6114,204.5409 253.0591,514.40699 424.3393,135.26912 M -138.66314,758.7152 c 341.94121,-51.25966 737.50573,-65.06175 985.17586,-111.20106 91.17709,-9.89148 161.99028,-20.01574 208.08398,-36.62399 78.6694,-21.11003 134.7896,-0.96848 209.5896,13.10848 77.9695,17.10392 181.8997,-59.20708 292.5109,-113.24215 69.6225,-28.38483 126.5988,-21.98899 167.9073,19.41977 133.8657,199.50003 251.9381,504.59075 417.2398,132.88721 M -138.17437,767.25658 c 346.09476,-52.23644 746.47244,-66.25274 996.87086,-114.29473 91.54775,-10.86872 162.74561,-22.36785 208.94221,-40.61022 78.6337,-24.16209 134.9538,-6.90989 209.1806,5.59544 77.1982,15.34309 179.1289,-55.95163 289.2855,-107.2263 69.6509,-27.02904 126.7861,-19.31975 168.7197,21.97692 135.12,194.45916 250.8172,494.77451 410.1404,130.50531 M -137.6856,775.79796 c 350.24832,-53.21322 755.43915,-67.44374 1008.56587,-117.38839 91.9184,-11.84597 163.50103,-24.71996 209.80043,-44.59646 78.598,-27.21416 135.118,-12.85129 208.7716,-1.91761 76.4269,13.58228 176.3581,-52.69618 286.06,-101.21045 69.6793,-25.67325 126.9735,-16.6505 169.5323,24.53408 136.3743,189.4183 249.6962,484.95827 403.0409,128.1234 M -137.19684,784.33934 c 354.40188,-54.19 764.40588,-68.63473 1020.26088,-120.48206 92.28906,-12.82321 164.25636,-27.07207 210.65866,-48.58269 78.5623,-30.26623 135.2822,-18.7927 208.3626,-9.43065 75.6556,11.82145 173.5873,-49.44074 282.8346,-95.1946 69.7077,-24.31747 127.1607,-13.98127 170.3447,27.09123 137.6287,184.37743 248.5754,475.14193 395.9415,125.7415 M -136.70807,792.88072 c 358.55544,-55.16678 773.37259,-69.82573 1031.95588,-123.57573 92.65972,-13.80045 165.01169,-29.42417 211.51679,-52.56892 78.5267,-33.3183 135.4466,-24.73411 207.9537,-16.9437 74.8843,10.06063 170.8165,-46.18529 279.6092,-89.17875 69.736,-22.96168 127.348,-11.31202 171.1572,29.64839 138.883,179.33656 247.4544,465.32569 388.842,123.35959 m -2290.546,137.8005 c 362.70899,-56.14356 782.33931,-71.01672 1043.65089,-126.6694 93.03041,-14.77769 165.76711,-31.77627 212.37501,-56.55515 78.491,-36.37036 135.6108,-30.67551 207.5447,-24.45674 74.113,8.2998 168.0457,-42.92984 276.3838,-83.1629 69.7644,-21.6059 127.5353,-8.64278 171.9697,32.20554 140.1373,174.29569 246.3334,455.50944 381.7424,120.97768 M -135.73053,809.96348 c 366.86255,-57.12034 791.30602,-72.20772 1055.34589,-129.76306 93.40104,-15.75494 166.52244,-34.12839 213.23324,-60.54139 78.4553,-39.42243 135.775,-36.61692 207.1357,-31.96979 73.3417,6.53898 165.2749,-39.67439 273.1584,-77.14704 69.7927,-20.25012 127.7225,-5.97355 172.7821,34.76269 141.3917,169.25482 245.2125,445.69318 374.643,118.59578 M -135.24177,818.50486 c 371.01611,-58.09712 800.27275,-73.39871 1067.04091,-132.85673 93.77166,-16.73218 167.27776,-36.48049 214.09146,-64.52762 78.4196,-42.4745 135.9392,-42.55832 206.7267,-39.48284 72.5704,4.77816 162.5041,-36.41894 269.933,-71.13119 69.821,-18.89432 127.9098,-3.3043 173.5946,37.31985 142.646,164.21395 244.0915,435.87691 367.5435,116.21387 M -134.753,827.04624 c 375.16966,-59.0739 809.23946,-74.58971 1078.73591,-135.9504 94.14239,-17.70942 168.03319,-38.8326 214.94969,-68.51385 78.3839,-45.52656 136.1034,-48.49973 206.3177,-46.99588 71.7991,3.01733 159.7333,-33.16349 266.7076,-65.11534 69.8494,-17.53854 128.097,-0.63506 174.4071,39.877 143.9003,159.17309 242.9705,426.06065 360.444,113.83197 M -134.26423,835.58763 c 379.32322,-60.05069 818.20618,-75.78071 1090.43092,-139.04408 94.51301,-18.68666 168.78851,-41.1847 215.80791,-72.50008 78.3482,-48.57863 136.2676,-54.44114 205.9087,-54.50893 71.0277,1.25651 156.9625,-29.90804 263.4822,-59.09949 69.8777,-16.18275 128.2843,2.03418 175.2195,42.43417 145.1547,154.13221 241.8496,416.24438 353.3446,111.45005 M -133.77546,844.12901 c 383.47677,-61.02747 827.17289,-76.9717 1102.12592,-142.13774 94.88364,-19.66391 169.54384,-43.53681 216.66614,-76.48632 78.3125,-51.6307 136.4318,-60.38254 205.4997,-62.02197 70.2564,-0.50432 154.1917,-26.6526 260.2567,-53.08364 69.9062,-14.82697 128.4717,4.70342 176.0321,44.99132 146.4089,149.09134 240.7287,406.42811 346.2451,109.06815 M -133.2867,852.67039 c 387.63034,-62.00425 836.13961,-78.1627 1113.82093,-145.23141 95.25427,-20.64115 170.29927,-45.88892 217.52427,-80.47255 78.2769,-54.68277 136.5961,-66.32395 205.0908,-69.53502 69.4851,-2.26514 151.4209,-23.39715 257.0313,-47.06779 69.9345,-13.47118 128.6589,7.37267 176.8446,47.54848 147.6632,144.05047 239.6077,396.61185 339.1455,106.68624 M -132.79793,861.21177 C 258.98596,798.23074 712.3084,781.85808 992.71801,712.88669 1088.343,691.2683 1163.7726,664.64567 1211.1005,628.42791 c 78.2412,-57.73483 136.7604,-72.26536 204.6818,-77.04806 68.7138,-4.02597 148.6501,-20.1417 253.8059,-41.05194 69.9628,-12.1154 128.8462,10.04191 177.657,50.10563 148.9176,139.0096 238.4868,386.79558 332.0461,104.30434 M -132.30916,869.75315 C 263.62829,805.79534 721.76388,789.20846 1004.9018,718.3344 c 95.9956,-22.59563 171.8099,-50.59313 219.2407,-88.44501 78.2055,-60.7869 136.9246,-78.20676 204.2728,-84.56111 67.9425,-5.78679 145.8793,-16.88625 250.5805,-35.03608 69.9912,-10.75962 129.0335,12.71114 178.4695,52.66278 150.1719,133.96873 237.3658,376.97932 324.9466,101.92243 M -131.82039,878.29453 c 400.091,-64.93459 863.03976,-81.73568 1148.90599,-154.51242 96.3662,-23.57287 172.5653,-52.94523 220.0989,-92.43125 78.1698,-63.83896 137.0888,-84.14816 203.8638,-92.07414 67.1712,-7.54762 143.1085,-13.63081 247.3551,-29.02024 70.0195,-9.40382 129.2207,15.38039 179.282,55.21994 151.4262,128.92787 236.2448,367.16305 317.8471,99.54052 M -131.33163,886.83591 c 404.24457,-65.91137 872.00648,-82.92668 1160.60093,-157.60608 96.737,-24.55012 173.3207,-55.29734 220.9572,-96.41749 78.1341,-66.89102 137.253,-90.08957 203.4548,-99.58719 66.3999,-9.30844 140.3377,-10.37535 244.1297,-23.00438 70.0479,-8.04804 129.408,18.04963 180.0944,57.77709 152.6806,123.887 235.1239,357.34679 310.7477,97.15862 M -130.84286,895.37729 c 408.39812,-66.88815 880.9732,-84.11767 1172.29596,-160.69975 97.1076,-25.52736 174.076,-57.64945 221.8154,-100.40372 78.0984,-69.94309 137.4172,-96.03097 203.0458,-107.10023 65.6286,-11.06927 137.5669,-7.11991 240.9043,-16.98854 70.0762,-6.69225 129.5953,20.71887 180.9069,60.33425 153.9349,118.84613 234.0029,347.53052 303.6482,94.77671"
       inkscape:path-effect="#path-effect3827"
       inkscape:original-d="m -67.228145,334.29386 c 109.341994,3.44006 235.369565,1.63401 330.255485,62.0444 211.26112,134.50225 232.1671,467.31092 392.51679,620.44404 181.7444,173.5651 576.65117,-716.9675 595.54267,-573.91072 63.6236,481.78869 314.7114,1054.30162 814.8108,266.27396 M -191.75072,1158.9674 C 352.78011,1069.7832 1011.4033,1068.881 1202.3606,897.86393 1358.5574,757.97774 1439.636,793.51241 1646.3107,773.77516 c 280.305,-26.76902 391.6948,492.11604 484.5551,155.11096"
       inkscape:connector-curvature="0"
       sodipodi:nodetypes="csssccssc"
       inkscape:export-xdpi="90"
       inkscape:export-ydpi="90" />
  </g>
  <g
     inkscape:groupmode="layer"
     id="layer3"
     inkscape:label="Layer#1"
     style="opacity:0.13553114;display:inline"
     transform="translate(0,-120)">
    <path
       sodipodi:nodetypes="csssccssc"
       inkscape:connector-curvature="0"
       inkscape:original-d="m 1952.5003,887.02923 c -128.88,2.9459 -278.0102,12.31147 -384.0513,-44.53757 C 1332.3515,715.91862 1341.2576,372.87656 1167.2123,224.00153 969.94517,55.262762 413.27285,999.99821 405.39438,853.13191 378.86123,358.51333 139.93376,-218.80598 -530.70912,626.14728 M 2182.9627,26.508684 C 1530.3923,151.162 751.89639,191.27587 508.9373,379.5502 310.20489,533.5524 217.96967,501.61556 -28.285718,534.32823 -362.27248,578.69539 -441.5123,48.542767 -585.29879,402.69371"
       inkscape:path-effect="#path-effect3898"
       d="m 2083.5181,949.06694 c -128.8801,2.9459 -278.0102,12.31147 -384.0514,-44.53757 C 1620.7676,862.33835 1569.291,796.09523 1529.1869,721.00873 1448.9787,570.83573 1414.2603,385.28926 1298.23,286.03924 1166.7186,173.54672 875.47157,555.93164 693.58488,779.83815 602.64154,891.7914 539.03829,964.12505 536.41213,915.16962 509.87898,420.55104 270.95151,-156.76827 -399.69137,688.18499 M 2083.4202,940.28011 c -133.8876,4.20346 -288.728,14.07696 -398.1857,-40.64149 -79.236,-41.15803 -131.306,-105.95599 -171.6968,-179.34589 C 1433.0634,573.27493 1397.8169,390.72933 1282.3054,293.07105 1151.5277,182.3542 863.15044,559.4309 682.07985,780.45477 591.23993,891.00717 527.58151,961.99152 524.20513,913.18923 495.6804,423.85998 259.07787,-148.66056 -403.74831,688.24631 M 2083.3223,931.49328 c -138.8952,5.46101 -299.4457,15.84245 -412.3201,-36.74542 C 1591.2295,854.62284 1538.5659,791.27003 1497.8886,719.57673 1417.1482,575.71413 1381.3735,396.1694 1266.3807,300.10285 1136.3368,191.16167 850.82931,562.93017 670.57481,781.07139 579.83832,890.22294 516.12474,959.85799 511.99814,911.20885 481.48183,427.16892 247.20422,-140.55284 -407.80524,688.30764 M 2083.2244,922.70645 c -143.9028,6.71857 -310.1635,17.60793 -426.4545,-32.84934 C 1576.4604,850.76508 1523.2033,788.85744 1482.2394,718.86073 1401.2329,578.15333 1364.9301,401.60947 1250.4561,307.13466 1121.1459,199.96914 838.50817,566.42943 659.06978,781.68801 568.43671,889.4387 504.66797,957.72446 499.79114,909.22846 467.28325,430.47786 235.33058,-132.44513 -411.86218,688.36896 M 2083.1265,913.91963 c -148.9104,7.97612 -320.8812,19.37341 -440.5889,-28.95327 C 1561.6914,846.90732 1507.8407,786.44484 1466.5902,718.14474 1385.3176,580.59253 1348.4868,407.04954 1234.5314,314.16647 1105.955,208.77661 826.18704,569.92869 647.56474,782.30463 557.0351,888.65447 493.2112,955.59094 487.58414,907.24808 453.08468,433.7868 223.45693,-124.33742 -415.91911,688.43029 M 2083.0287,905.1328 c -153.9181,9.23368 -331.599,21.1389 -454.7234,-25.05719 C 1546.9223,843.04956 1492.4781,784.03224 1450.941,717.42874 1369.4024,583.03172 1332.0434,412.48961 1218.6068,321.19828 1090.7641,217.58408 813.86591,573.42796 636.05971,782.92126 545.63349,887.87024 481.75442,953.45741 475.37715,905.26769 438.8861,437.09574 211.58329,-116.2297 -419.97605,688.49161 M 2082.9308,896.34597 C 1924.0051,906.83721 1740.614,919.25036 1614.0731,875.18486 1532.1533,839.1918 1477.1155,781.61965 1435.2918,716.71274 1353.4871,585.47092 1315.6,417.92968 1202.6821,328.23009 1075.5731,226.39155 801.54478,576.92722 624.55467,783.53788 534.23188,887.08601 470.29765,951.32388 463.17015,903.28731 424.68752,440.40468 199.70965,-108.12199 -424.03298,688.55294 m 2506.86588,199.0062 c -163.9333,11.7488 -353.0345,24.66988 -482.9921,-17.26503 C 1517.3842,835.33404 1461.753,779.20705 1419.6426,715.99674 1337.5718,587.91012 1299.1566,423.36975 1186.7575,335.2619 1060.3822,235.19902 789.22364,580.42648 613.04964,784.1545 522.83027,886.30178 458.84088,949.19035 450.96315,901.30692 410.48895,443.71362 187.836,-100.01427 -428.08992,688.61426 M 2082.735,878.77232 c -168.9408,13.00635 -363.7522,26.43536 -497.1265,-13.36896 -82.9933,-33.92708 -139.2181,-88.6089 -181.6151,-150.12262 C 1321.6565,590.34932 1282.7133,428.80982 1170.8328,342.29371 1045.1913,244.00649 776.90251,583.92574 601.5446,784.77112 511.42866,885.51754 447.38411,947.05682 438.75616,899.32654 396.29037,447.02256 175.96236,-91.906557 -432.14685,688.67559 m 2514.78395,181.3099 c -173.9484,14.26391 -374.47,28.20085 -511.2609,-9.47289 -83.5301,-32.89407 -140.3484,-86.13074 -183.032,-145.94785 C 1305.7413,592.78851 1266.2699,434.24989 1154.9082,349.32551 1030.0004,252.81396 764.58138,587.42501 590.03957,785.38774 500.02705,884.73331 435.92733,944.92329 426.54916,897.34616 382.0918,450.3315 164.08872,-83.798843 -436.20379,688.73691 M 2082.5393,861.19866 C 1903.5832,876.72013 1697.3515,891.165 1557.1439,855.62185 1473.0771,823.76077 1415.6652,771.96926 1372.695,713.84875 1289.826,595.22771 1249.8265,439.68996 1138.9835,356.35732 1014.8095,261.62143 752.26025,590.92427 578.53453,786.00436 488.62544,883.94908 424.47056,942.78976 414.34216,895.36577 367.89322,453.64044 152.21507,-75.691128 -440.26072,688.79824 M 2082.4414,852.41183 C 1898.4777,869.19086 1686.5359,884.14366 1542.9117,850.7311 1458.308,819.90301 1400.3026,769.55667 1357.0459,713.13275 1273.9107,597.66691 1233.3831,445.13003 1123.0589,363.38913 999.61856,270.4289 739.93912,594.42353 567.0295,786.62098 477.22384,883.16485 413.01379,940.65624 402.13517,893.38539 353.69465,456.94938 140.34143,-67.583414 -444.31766,688.85956 M 2082.3435,843.62501 c -188.9713,18.03658 -406.6233,33.49731 -553.6641,2.21534 -85.1404,-29.7951 -143.7393,-78.69628 -187.2827,-133.4236 C 1257.9955,600.10611 1216.9398,450.5701 1107.1342,370.42094 984.42764,279.23637 727.61798,597.9228 555.52446,787.23761 465.82223,882.38062 401.55702,938.52271 389.92817,891.405 339.49607,460.25832 128.46778,-59.475699 -448.37459,688.92089 M 2082.2456,834.83818 c -193.9789,19.29414 -417.341,35.2628 -567.7985,6.11142 C 1428.7699,812.18749 1369.5775,764.73147 1325.7475,711.70075 1242.0802,602.5453 1200.4964,456.01017 1091.2096,377.45275 969.23673,288.04384 715.29685,601.42206 544.01943,787.85423 454.42062,881.59638 390.10024,936.38918 377.72117,889.42462 325.29749,463.56726 116.59414,-51.367985 -452.43153,688.98221 M 2082.1477,826.05135 c -198.9865,20.5517 -428.0588,37.02829 -581.9329,10.0075 C 1414.0009,808.32973 1354.2149,762.31888 1310.0983,710.98476 1226.1649,604.9845 1184.053,461.45024 1075.2849,384.48456 954.04581,296.85131 702.97572,604.92132 532.51439,788.47085 443.01901,880.81215 378.64347,934.25565 365.51418,887.44423 311.09892,466.8762 104.7205,-43.26027 -456.48846,689.04354 M 2082.0499,817.26452 C 1878.0557,839.07378 1643.2733,856.0583 1485.9825,831.1681 1399.2318,804.47197 1338.8523,759.90628 1294.4491,710.26876 1210.2496,607.4237 1167.6096,466.89031 1059.3602,391.51637 938.8549,305.65878 690.65459,608.42058 521.00936,789.08747 431.6174,880.02792 367.1867,932.12212 353.30718,885.46385 296.90034,470.18514 92.846852,-35.152555 -460.5454,689.10486 M 2081.952,808.4777 c -209.0017,23.0668 -449.4943,40.55926 -610.2018,17.79965 C 1384.4628,800.61422 1323.4897,757.49368 1278.7999,709.55276 1194.3344,609.8629 1151.1663,472.33038 1043.4356,398.54817 923.66398,314.46625 678.33345,611.91985 509.50432,789.70409 420.21579,879.24369 355.72993,929.98859 341.10018,883.48346 282.70177,473.49408 80.973208,-27.044841 -464.60234,689.16619 M 2081.8541,799.69087 C 1867.8448,824.01523 1621.642,842.01562 1457.518,821.38659 1369.6937,796.75646 1308.1271,755.08109 1263.1507,708.83676 1178.4191,612.3021 1134.7229,477.77045 1027.5109,405.57998 908.47306,323.27372 666.01232,615.41911 497.99929,790.32071 408.81418,878.45945 344.27315,927.85506 328.89319,881.50308 268.50319,476.80302 69.099564,-18.937126 -468.65927,689.22751 M 2081.7562,790.90404 c -219.0169,25.58192 -470.9298,44.09024 -638.4705,25.5918 C 1354.9247,792.8987 1292.7646,752.66849 1247.5015,708.12076 1162.5038,614.74129 1118.2795,483.21052 1011.5863,412.61179 893.28215,332.0812 653.69119,618.91837 486.49425,790.93734 397.41257,877.67522 332.81638,925.72154 316.68619,879.52269 254.30461,480.11196 57.225921,-10.829412 -472.71621,689.28883 m 2554.37461,92.82838 c -224.0246,26.83948 -481.6476,45.85573 -652.605,29.48788 C 1340.1556,789.04094 1277.402,750.2559 1231.8524,707.40477 1146.5886,617.18049 1101.8361,488.65059 995.66163,419.6436 878.09123,340.88867 641.37006,622.41764 474.98922,791.55396 386.01096,876.89099 321.35961,923.58801 304.47919,877.54231 240.10604,483.4209 45.352277,-2.7216973 -476.77314,689.35016 M 2081.5605,773.33039 C 1852.5283,801.42742 1589.1951,820.9516 1414.8211,806.71434 1325.3866,785.18318 1262.0394,747.8433 1216.2032,706.68877 1130.6733,619.61969 1085.3928,494.09066 979.73698,426.67541 862.90032,349.69614 629.04893,625.9169 463.48418,792.17058 374.60935,876.10676 309.90283,921.45448 292.2722,875.56192 225.90746,486.72984 33.478633,5.3860173 -480.83008,689.41148 m 2562.29268,75.13208 c -234.0398,29.35459 -503.0831,49.3867 -680.8738,37.28003 C 1310.6175,781.32542 1246.6768,745.4307 1200.554,705.97277 1114.758,622.05889 1068.9494,499.53073 963.81232,433.70722 847.7094,358.50361 616.72779,629.41616 451.97915,792.7872 363.20774,875.32253 298.44606,919.32095 280.0652,873.58154 211.70889,490.03878 21.604989,13.493732 -484.88701,689.47281 m 2566.25171,66.28392 c -239.0474,30.61215 -513.8008,51.15219 -695.0081,41.17611 -90.5081,-19.46518 -155.0424,-53.91473 -201.4518,-91.67607 C 1098.8427,624.49808 1052.506,504.9708 947.88767,440.73903 832.51849,367.31108 604.40666,632.91542 440.47411,793.40382 351.80613,874.53829 286.98929,917.18742 267.8582,871.60116 197.51031,493.34772 9.7313452,21.601446 -488.94395,689.53413 M 2081.2668,746.9699 c -244.055,31.86971 -524.5186,52.91767 -709.1425,45.07219 -91.0449,-18.43218 -156.1726,-51.43658 -202.8687,-87.50132 C 1082.9275,626.93728 1036.0626,510.41087 931.96301,447.77084 817.32757,376.11855 592.08553,636.41469 428.96908,794.02044 340.40452,873.75406 275.53252,915.05389 255.65121,869.62077 183.31174,496.65666 -2.1422986,29.709161 -493.00088,689.59546 M 2081.169,738.18308 c -249.0626,33.12726 -535.2364,54.68315 -723.277,48.96826 -91.5816,-17.39919 -157.3029,-48.95843 -204.2856,-83.32656 C 1067.0122,629.37648 1019.6193,515.85094 916.03836,454.80264 802.13665,384.92602 579.7644,639.91395 417.46404,794.63707 329.00291,872.96983 264.07574,912.92036 243.44421,867.64039 169.11316,499.9656 -14.015943,37.816875 -497.05782,689.65678 m 2578.12892,39.73947 c -254.0702,34.38482 -545.9541,56.44864 -737.4114,52.86433 -92.1184,-16.36619 -158.4332,-46.48026 -205.7025,-79.1518 C 1051.0969,631.81568 1003.1759,521.29101 900.11371,461.83445 786.94574,393.73349 567.44326,643.41321 405.95901,795.25369 317.6013,872.1856 252.61897,910.78684 231.23721,865.66 154.91458,503.27454 -25.889586,45.92459 -501.11475,689.71811 m 2582.08795,30.89131 c -259.0778,35.64238 -556.6719,58.21413 -751.5458,56.76041 -92.6551,-15.3332 -159.5635,-44.00211 -207.1194,-74.97705 C 1035.1817,634.25488 986.7325,526.73108 884.18905,468.86626 771.75482,402.54096 555.12213,646.91248 394.45397,795.87031 306.1997,871.40137 241.1622,908.65331 219.03022,863.67962 140.71601,506.58348 -37.76323,54.032305 -505.17169,689.77943 m 2586.04699,22.04316 c -264.0854,36.89994 -567.3896,59.97962 -765.6801,60.65649 -93.192,-14.30021 -160.6939,-41.52396 -208.5364,-70.8023 C 1019.2664,636.69407 970.28913,532.17115 868.2644,475.89807 756.56391,411.34843 542.801,650.41174 382.94894,796.48693 294.79809,870.61713 229.70543,906.51978 206.82322,861.69923 126.51743,509.89242 -49.636874,62.140019 -509.22862,689.84076 m 2590.00602,13.19501 c -269.093,38.15749 -578.1074,61.7451 -779.8145,64.55256 -93.7287,-13.26722 -161.8242,-39.0458 -209.9532,-66.62755 C 1003.3511,639.13327 953.84575,537.61122 852.33975,482.92988 741.37299,420.1559 530.47987,653.911 371.4439,797.10355 283.39648,869.8329 218.24865,904.38625 194.61623,859.71885 112.31886,513.20136 -61.510518,70.247734 -513.28556,689.90208 m 2593.96516,4.34686 c -274.1007,39.41504 -588.8252,63.51059 -793.949,68.44864 -94.2655,-12.23423 -162.9544,-36.56765 -211.3701,-62.45279 C 987.43584,641.57247 937.40238,543.05129 836.41509,489.96169 726.18208,428.96337 518.15874,657.41026 359.93886,797.72017 271.99487,869.04867 206.79188,902.25272 182.40923,857.73846 98.12028,516.5103 -73.384162,78.355448 -517.3425,689.96341 m 2597.9242,-4.5013 c -279.1083,40.6726 -599.5429,65.27608 -808.0834,72.34472 -94.8022,-11.20123 -164.0847,-34.08949 -212.787,-58.27804 C 971.52057,644.01167 920.95901,548.49136 820.49044,496.9935 710.99116,437.77084 505.8376,660.90953 348.43383,798.33679 260.59326,868.26444 195.33511,900.11919 170.20223,855.75808 83.921704,519.81924 -85.257806,86.463163 -521.39943,690.02473 M 2080.4838,676.67528 c -284.1159,41.93016 -610.2607,67.04157 -822.2178,76.2408 -95.339,-10.16824 -165.215,-31.61134 -214.2039,-54.10329 C 955.6053,646.45086 904.51563,553.93143 804.56578,504.0253 695.80024,446.57831 493.51647,664.40879 336.92879,798.95342 249.19165,867.48021 183.87834,897.98566 157.99524,853.77769 69.723128,523.12818 -97.131449,94.570877 -525.45637,690.08606 m 2605.84227,-22.1976 c -289.1234,43.18771 -620.9784,68.80705 -836.3522,80.13687 -95.8757,-9.13525 -166.3453,-29.13319 -215.6208,-49.92854 C 939.69003,648.89006 888.07226,559.3715 788.64113,511.05711 680.60933,455.38578 481.19534,667.90805 325.42376,799.57004 237.79004,866.69597 172.42156,895.85214 145.78824,851.79731 55.524553,526.43712 -109.00509,102.67859 -529.5133,690.14738 M 2080.288,659.10163 c -294.131,44.44527 -631.6961,70.57254 -850.4865,84.03294 -96.4126,-8.10225 -167.4757,-26.65502 -217.0378,-45.75378 C 923.77476,651.32926 871.62888,564.81157 772.71648,518.08892 665.41841,464.19325 468.87421,671.40732 313.91872,800.18666 226.38843,865.91174 160.96479,893.71861 133.58124,849.81693 41.325977,529.74606 -120.87874,110.78631 -533.57024,690.20871 M 2080.1902,650.3148 c -299.1387,45.70283 -642.414,72.33803 -864.621,87.92902 C 1118.6199,731.17456 1046.9633,714.06695 997.11453,696.6648 907.85949,653.76846 855.18551,570.25164 756.79182,525.12073 650.2275,473.00073 456.55307,674.90658 302.41369,800.80328 214.98682,865.12751 149.50802,891.58508 121.37425,847.83654 27.127401,533.055 -132.75238,118.89402 -537.62717,690.27003 M 2080.0923,641.52797 c -304.1463,46.96039 -653.1317,74.10352 -878.7554,91.8251 C 1103.8508,727.3168 1031.6007,711.65435 981.46534,695.9488 891.94421,656.20765 838.74213,575.69171 740.86717,532.15254 635.03658,481.8082 444.23194,678.40584 290.90865,801.4199 203.58521,864.34328 138.05125,889.45155 109.16725,845.85616 12.928825,536.36394 -144.62602,127.00174 -541.68411,690.33136 M 2079.9944,632.74115 c -309.1539,48.21794 -663.8494,75.869 -892.8898,95.72117 C 1089.0818,723.45904 1016.2381,709.24176 965.81615,695.2328 876.02894,658.64685 822.29876,581.13178 724.94252,539.18435 619.84567,490.61567 431.91081,681.9051 279.40362,802.03652 192.1836,863.55905 126.59447,887.31802 96.960252,843.87577 -1.2697509,539.67288 -156.49967,135.10945 -545.74104,690.39268 M 2079.8965,623.95432 c -314.1615,49.4755 -674.5672,77.63449 -907.0242,99.61725 C 1074.3127,719.60129 1000.8755,706.82916 950.16696,694.5168 860.11367,661.08605 805.85538,586.57185 709.01786,546.21616 604.65475,499.42314 419.58968,685.40437 267.89858,802.65315 180.78199,862.77481 115.1377,885.18449 84.753256,841.89539 -15.468327,542.98182 -168.37331,143.21716 -549.79798,690.45401 M 2079.7987,615.16749 c -319.1692,50.73306 -685.285,79.39998 -921.1586,103.51333 C 1059.5437,715.74353 985.51293,704.41656 934.51778,693.8008 844.1984,663.52525 789.41201,592.01192 693.09321,553.24797 589.46384,508.23061 407.26855,688.90363 256.39355,803.26977 169.38038,861.99058 103.68093,883.05096 72.546259,839.915 -29.666903,546.29076 -180.24696,151.32488 -553.85491,690.51533 M 2079.7008,606.38066 c -324.1767,51.99062 -696.0027,81.16547 -935.293,107.40941 -99.6332,-1.9043 -174.25745,-11.7861 -225.53921,-20.70526 C 828.28313,665.96445 772.96863,597.45199 677.16856,560.27977 574.27292,517.03808 394.94741,692.40289 244.88851,803.88639 157.97877,861.20635 92.224155,880.91744 60.339262,837.93462 -43.865479,549.5997 -192.1206,159.43259 -557.91185,690.57666 M 2079.6029,597.59384 c -329.1843,53.24817 -706.7205,82.93095 -949.4274,111.30547 -100.1699,-0.8713 -175.38773,-9.30794 -226.9561,-16.5305 C 812.36786,668.40364 756.52526,602.89206 661.2439,567.31158 559.082,525.84555 382.62628,695.90216 233.38348,804.50301 146.57716,860.42212 80.767383,878.78391 48.132266,835.95423 -58.064054,552.90864 -203.99424,167.54031 -561.96878,690.63798 M 2079.505,588.80701 c -334.1919,54.50573 -717.4382,84.69644 -963.5618,115.20155 -100.7067,0.16169 -176.51802,-6.82978 -228.37299,-12.35575 C 796.45259,670.84284 740.08188,608.33213 645.31925,574.34339 543.89109,534.65302 370.30515,699.40142 221.87844,805.11963 135.17556,859.63788 69.31061,876.65038 35.925269,833.97385 -72.26263,556.21758 -215.86789,175.64802 -566.02572,690.69931 M 2079.4071,580.02018 c -339.1995,55.76328 -728.156,86.46193 -977.6962,119.09763 -101.2434,1.19468 -177.6483,-4.35163 -229.78988,-8.181 C 780.53731,673.28204 723.63851,613.7722 629.39459,581.3752 528.70017,543.46049 357.98402,702.90068 210.37341,805.73625 123.77395,858.85365 57.853838,874.51685 23.718273,831.99346 -86.461206,559.52652 -227.74153,183.75574 -570.08265,690.76063 M 2079.3093,571.23335 c -344.2072,57.02084 -738.8738,88.22741 -991.8306,122.99371 -101.78027,2.22767 -178.77868,-1.87348 -231.20686,-4.00625 C 764.62204,675.72124 707.19513,619.21227 613.46994,588.40701 513.50926,552.26796 345.66289,706.39994 198.86837,806.35288 112.37234,858.06942 46.397065,872.38332 11.511276,830.01308 -100.65978,562.83546 -239.61518,191.86345 -574.13959,690.82196 M 2079.2114,562.44653 c -349.2148,58.27839 -749.5915,89.99289 -1005.965,126.88978 -102.31702,3.26067 -179.90896,0.60468 -232.62375,0.16851 C 748.70677,678.16043 690.75176,624.65235 597.54529,595.43882 498.31834,561.07543 333.34175,709.89921 187.36334,806.9695 100.97073,857.28519 34.940293,870.24979 -0.69572062,828.03269 -114.85836,566.1444 -251.48882,199.97117 -578.19653,690.88328 M 2079.1135,553.6597 c -354.2224,59.53595 -760.3093,91.75838 -1020.0994,130.78586 -102.85377,4.29366 -181.03924,3.08283 -234.04064,4.34326 C 732.7915,680.59963 674.30838,630.09242 581.62063,602.47063 483.12743,569.8829 321.02062,713.39847 175.8583,807.58612 89.569118,856.50096 23.48352,868.11627 -12.902717,826.05231 -129.05693,569.45334 -263.36246,208.07888 -582.25346,690.94461 M 2079.0156,544.87287 c -359.23,60.79351 -771.027,93.52387 -1034.2338,134.68194 -103.39052,5.32665 -182.16953,5.56098 -235.45753,8.51801 C 716.87623,683.03883 657.86501,635.53249 565.69598,609.50243 467.93651,578.69037 308.69949,716.89773 164.35327,808.20274 78.167509,855.71672 12.026747,865.98274 -25.109714,824.07193 -143.25551,572.76228 -275.23611,216.1866 -586.3104,691.00593 M 2078.9177,536.08604 C 1714.6802,598.13711 1297.173,631.3754 1030.5495,674.66406 926.62223,681.0237 847.24969,682.7032 793.67508,687.35682 700.96096,685.47803 641.42163,640.97256 549.77133,616.53424 452.74559,587.49784 296.37836,720.39699 152.84823,808.81936 66.7659,854.93249 0.56997473,863.84921 -37.31671,822.09154 -157.45409,576.07122 -287.10975,224.29431 -590.36733,691.06726 M 2078.8199,527.29922 C 1709.5747,590.60784 1286.3573,624.35406 1016.3172,669.7733 911.85318,677.16594 831.88711,680.2906 778.02589,686.64082 685.04569,687.91723 624.97826,646.41263 533.84667,623.56605 437.55468,596.30531 284.05722,723.89626 141.3432,809.43598 55.36429,854.14826 -10.886798,861.71568 -49.523707,820.11116 -171.65266,579.38016 -298.98339,232.40202 -594.42427,691.12858 M 2078.722,518.51239 C 1704.4692,583.07857 1275.5417,617.33272 1002.085,664.88255 897.08413,673.30818 816.52453,677.878 762.37671,685.92483 669.13041,690.35642 608.53488,651.8527 517.92202,630.59786 422.36376,605.11278 271.73609,727.39552 129.83816,810.0526 43.962681,853.36403 -22.34357,859.58215 -61.730704,818.13077 -185.85124,582.6891 -310.85704,240.50974 -598.4812,691.18991 M 2078.6241,509.72556 C 1699.3637,575.5493 1264.7261,610.31138 987.85269,659.9918 882.31507,669.45042 801.16195,675.46541 746.72752,685.20883 653.21514,692.79562 592.09151,657.29277 501.99736,637.62967 407.17285,613.92025 259.41496,730.89478 118.33313,810.66923 32.561072,852.5798 -33.800343,857.44862 -73.9377,816.15039 -200.04981,585.99804 -322.73068,248.61745 -602.53814,691.25123 M 2078.5262,500.93873 C 1694.2582,568.02003 1253.9104,603.29004 973.6204,655.10105 867.54602,665.59266 785.79937,673.05281 731.07833,684.49283 637.29987,695.23482 575.64813,662.73284 486.07271,644.66148 391.98193,622.72773 247.09383,734.39405 106.82809,811.28585 21.159462,851.79556 -45.257116,855.31509 -86.144697,814.17 -214.24839,589.30698 -334.60433,256.72517 -606.59507,691.31256 M 2078.4284,492.15191 C 1689.1527,560.49076 1243.0948,596.2687 959.38812,650.2103 852.77697,661.73491 770.43678,670.64022 715.42914,683.77683 621.3846,697.67402 559.20476,668.17291 470.14806,651.69329 376.79102,631.5352 234.7727,737.89331 95.323058,811.90247 9.757853,851.01133 -56.713888,853.18157 -98.351693,812.18962 -228.44696,592.61592 -346.47797,264.83288 -610.65201,691.37388 M 2078.3305,483.36508 C 1684.0472,552.96149 1232.2792,589.24736 945.15584,645.31955 838.00792,657.87715 755.0742,668.22762 699.77995,683.06083 605.46933,700.11321 542.76138,673.61298 454.2234,658.7251 361.6001,640.34267 222.45156,741.39257 83.818023,812.51909 -1.6437564,850.2271 -68.170661,851.04804 -110.55869,810.20923 -242.64554,595.92486 -358.35161,272.9406 -614.70894,691.43521 M 2078.2326,474.57825 C 1678.9417,545.43222 1221.4635,582.22602 930.92356,640.4288 823.23887,654.01939 739.71162,665.81502 684.13076,682.34484 589.55406,702.55241 526.31801,679.05305 438.29875,665.7569 346.40918,649.15014 210.13043,744.89183 72.312988,813.13571 -13.045366,849.44287 -79.627433,848.91451 -122.76569,808.22885 -256.84412,599.2338 -370.22526,281.04831 -618.76588,691.49653 M 2078.1347,465.79142 C 1673.8363,537.90294 1210.6479,575.20468 916.69128,635.53805 808.46982,650.16163 724.34904,663.40243 668.48158,681.62884 573.63879,704.99161 509.87463,684.49312 422.3741,672.78871 331.21827,657.95761 197.8093,748.3911 60.807953,813.75233 -24.446975,848.65864 -91.084206,846.78098 -134.97268,806.24846 -271.04269,602.54274 -382.0989,289.15603 -622.82281,691.55786 M 2078.0368,457.0046 C 1668.7308,530.37367 1199.8322,568.18334 902.459,630.64729 793.70077,646.30387 708.98646,660.98983 652.83239,680.91284 557.72351,707.43081 493.43126,689.93319 406.44944,679.82052 316.02735,666.76508 185.48817,751.89036 49.302918,814.36896 -35.848584,847.8744 -102.54098,844.64745 -147.17968,804.26808 -285.24127,605.85168 -393.97255,297.26374 -626.87975,691.61918 M 2077.939,448.21777 C 1663.6253,522.8444 1189.0166,561.162 888.22672,625.75654 778.93172,642.44611 693.62387,658.57723 637.1832,680.19684 541.80824,709.87 476.98788,695.37326 390.52479,686.85233 300.83644,675.57255 173.16703,755.38962 37.797883,814.98558 -47.250194,847.09017 -113.99775,842.51392 -159.38668,802.2877 -299.43984,609.16062 -405.84619,305.37146 -630.93668,691.68051 M 2077.8411,439.43094 C 1658.5198,515.31513 1178.201,554.14066 873.99444,620.86579 764.16267,638.58835 678.26129,656.16464 621.53401,679.48084 525.89297,712.3092 460.54451,700.81333 374.60013,693.88414 285.64552,684.38002 160.8459,758.88889 26.292848,815.6022 -58.651803,846.30594 -125.45452,840.38039 -171.59367,800.30731 -313.63842,612.46956 -417.71983,313.47917 -634.99362,691.74183 M 2077.7432,430.64411 C 1653.4143,507.78586 1167.3853,547.11932 859.76215,615.97504 749.39362,634.7306 662.89871,653.75204 605.88482,678.76485 509.9777,714.7484 444.10114,706.2534 358.67548,700.91595 270.45461,693.18749 148.52477,762.38815 14.787813,816.21882 -70.053412,845.52171 -136.9113,838.24687 -183.80067,798.32693 -327.837,615.7785 -429.59348,321.58688 -639.05056,691.80316 M 2077.6453,421.85729 c -429.3365,78.3993 -921.0756,118.24069 -1232.11543,189.227 -110.9053,19.78855 -197.99374,40.25515 -255.29424,66.96456 -96.1732,39.13875 -162.57787,33.64462 -247.4848,29.89891 C 255.26369,701.99496 136.20364,765.88741 3.2827778,816.83544 -81.455022,844.73748 -148.36807,836.11334 -196.00767,796.34654 -342.03557,619.08744 -441.46712,329.6946 -643.10749,691.86448 M 2077.5474,413.07046 C 1643.2033,492.72732 1145.7541,533.07664 831.29759,606.19354 719.85552,627.01508 632.17355,648.92685 574.58645,677.33285 478.14716,719.6268 411.21439,717.13354 326.82617,714.97956 240.07278,710.80243 123.88251,769.38667 -8.2222573,817.45206 -92.856631,843.95324 -159.82484,833.97981 -208.21466,794.36616 -356.23415,622.39638 -453.34077,337.80231 -647.16443,691.92581 M 2077.4496,404.28363 C 1638.0978,485.19805 1134.9384,526.0553 817.06531,601.30279 705.08647,623.15732 616.81097,646.51425 558.93726,676.61685 462.23188,722.06599 394.77101,722.57361 310.90152,722.01137 224.88186,719.6099 111.56137,772.88594 -19.727292,818.06868 -104.25824,843.16901 -171.28161,831.84628 -220.42166,792.38577 -370.43272,625.70532 -465.21441,345.91003 -651.22136,691.98713 M 2077.3517,395.4968 C 1632.9924,477.66878 1124.1228,519.03395 802.83303,596.41204 690.31742,619.29956 601.44838,644.10166 543.28807,675.90085 446.31661,724.50519 378.32764,728.01368 294.97687,729.04318 209.69094,728.41737 99.240241,776.3852 -31.232327,818.68531 -115.65985,842.38478 -182.73839,829.71275 -232.62866,790.40539 -384.6313,629.01426 -477.08805,354.01774 -655.2783,692.04846 M 2077.2538,386.70997 C 1627.8869,470.13951 1113.3072,512.01261 788.60075,591.52128 675.54837,615.4418 586.0858,641.68906 527.63888,675.18486 430.40134,726.94439 361.88426,733.45375 279.05221,736.07499 194.50003,737.22484 86.919109,779.88446 -42.737362,819.30193 -127.06146,841.60055 -194.19516,827.57922 -244.83565,788.425 -398.82987,632.3232 -488.9617,362.12546 -659.33523,692.10978 M 2077.1559,377.92315 c -454.3745,84.68709 -974.6644,127.06812 -1302.78743,208.70738 -113.58915,24.95351 -203.64525,52.64593 -262.37878,87.83833 -97.50362,54.91473 -166.5488,64.42496 -248.86213,68.63794 -83.81845,2.92551 -188.529584,40.27693 -317.369958,76.81175 -84.220672,20.89777 -151.409532,5.52714 -202.800252,-33.47393 -155.9858,-150.81248 -243.79269,-416.21145 -406.34952,-94.27351 M 2077.058,369.13632 C 1617.6759,455.08097 1091.6759,497.96993 760.13619,581.73978 646.01027,607.72629 555.36064,636.86387 496.3405,673.75286 398.5708,731.82278 328.99751,744.33389 247.20291,750.13861 164.1182,754.83978 62.276844,786.88299 -65.747433,820.53517 -149.86468,840.03208 -217.1087,823.31217 -269.24965,784.46423 -427.22703,638.94108 -512.70898,378.34089 -667.4491,692.23243 M 2076.9602,360.34949 c -464.3898,87.20221 -996.0999,130.5991 -1331.0563,216.49954 -114.66268,27.0195 -205.90584,57.60224 -265.21258,96.18783 -98.03579,61.22512 -168.13718,76.7371 -249.41307,84.13356 -82.35097,6.47684 -181.322538,33.21183 -308.530718,63.98137 -84.013822,18.09606 -151.313012,0.0268 -204.204172,-38.66794 C -441.4256,642.25002 -524.58263,386.4486 -671.50604,692.29376 M 2076.8623,351.56266 C 1607.4649,440.02242 1070.0446,483.92725 731.67162,571.95828 616.47217,600.01077 524.63547,632.03867 465.04213,672.32086 366.74026,736.70118 296.11076,755.21403 215.3536,764.20222 133.73637,772.45473 37.63458,793.88151 -88.757503,821.76841 -172.6679,838.46362 -240.02225,819.04511 -293.66364,780.50346 -455.62418,645.55896 -536.45627,394.55632 -675.56297,692.35508 M 2076.7644,342.77584 c -474.405,89.71731 -1017.5354,134.13007 -1359.32506,224.29169 -115.73622,29.08548 -208.16645,62.55855 -268.0464,104.53733 -98.56796,67.53552 -169.72555,89.04924 -249.964,99.62917 -80.88349,10.02817 -174.115492,26.14675 -299.69148,51.15101 -83.80697,15.29435 -151.21648,-5.47346 -205.6081,-43.86196 C -469.82275,648.8679 -548.32992,402.66403 -679.61991,692.41641 M 2076.6665,333.98901 c -479.4126,90.97487 -1028.2532,135.89556 -1373.45944,228.18777 -116.27299,30.11847 -209.29675,65.0367 -269.46331,108.71209 -98.83404,70.69071 -170.51974,95.2053 -250.23946,107.37697 -80.14976,11.80383 -170.511975,22.6142 -295.27186,44.73582 -83.70354,13.89349 -151.16822,-8.22361 -206.31006,-46.45896 -165.9437,-124.36586 -242.12593,-365.77096 -365.59921,-84.06497 M 2076.5687,325.20218 C 1592.1485,417.43461 1037.5977,462.86323 688.97478,557.28602 572.16502,588.43749 478.54773,624.80088 418.09456,670.17287 318.99444,744.01877 246.78064,771.53424 167.57964,785.29765 88.163619,798.87714 0.67118321,804.3793 -123.27261,823.61828 -206.87272,836.11092 -274.39257,812.64452 -330.28463,774.56231 -498.21991,655.48578 -572.0772,418.87946 -687.73378,692.53906 M 2076.4708,316.41535 C 1587.043,409.90534 1026.7821,455.84189 674.7425,552.39527 c -117.34653,32.18446 -211.55735,69.99302 -272.29713,117.0616 -99.3662,77.0011 -172.10811,107.51744 -250.79039,122.87259 -78.682277,15.35515 -163.304929,15.54911 -286.43262,31.90544 -83.49669,11.09179 -151.0717,-13.72391 -207.71399,-51.65297 -169.92685,-113.78721 -241.45922,-345.59476 -349.29908,-79.98155"
       style="opacity:0.54212455;fill:none;stroke:url(#linearGradient3896);stroke-width:1.02125537;stroke-linecap:butt;stroke-linejoin:miter;stroke-miterlimit:4;stroke-opacity:1;stroke-dasharray:none;display:inline"
       id="path3894" />
  </g>
</svg>
