<?xml version="1.0" encoding="UTF-8" standalone="no"?>
<!-- Created with Inkscape (http://www.inkscape.org/) -->

<svg
   xmlns:dc="http://purl.org/dc/elements/1.1/"
   xmlns:cc="http://creativecommons.org/ns#"
   xmlns:rdf="http://www.w3.org/1999/02/22-rdf-syntax-ns#"
   xmlns:svg="http://www.w3.org/2000/svg"
   xmlns="http://www.w3.org/2000/svg"
   xmlns:xlink="http://www.w3.org/1999/xlink"
   xmlns:sodipodi="http://sodipodi.sourceforge.net/DTD/sodipodi-0.dtd"
   xmlns:inkscape="http://www.inkscape.org/namespaces/inkscape"
   width="1920"
   height="1200"
   id="svg2"
   version="1.1"
   inkscape:version="0.48.2 r9819"
   sodipodi:docname="background-1610.svg"
   enable-background="new"
   inkscape:export-filename="/Users/zmarjanovic/Desktop/Bgs/Bg inkscape.png"
   inkscape:export-xdpi="90"
   inkscape:export-ydpi="90">
  <defs
     id="defs4">
    <inkscape:path-effect
       trajectory-nodetypes="cc"
       steps="73"
       equidistant_spacing="true"
       trajectory="M 899.01267,558.4895 741.14406,521.8169"
       is_visible="true"
       id="path-effect3898"
       effect="interpolate" />
    <linearGradient
       id="linearGradient3872">
      <stop
         style="stop-color:#ffffff;stop-opacity:1;"
         offset="0"
         id="stop3874" />
      <stop
         style="stop-color:#ffffff;stop-opacity:1;"
         offset="1"
         id="stop3876" />
    </linearGradient>
    <inkscape:path-effect
       effect="interpolate"
       id="path-effect3827"
       is_visible="true"
       trajectory="m 960.87889,622.47253 137.14291,43.7082"
       equidistant_spacing="true"
       steps="73"
       trajectory-nodetypes="cc" />
    <inkscape:path-effect
       effect="interpolate"
       id="path-effect3820"
       is_visible="true"
       trajectory="M 979.96995,680.03758 964.2857,374.05961"
       equidistant_spacing="true"
       steps="22" />
    <inkscape:path-effect
       fuse_tolerance="0"
       vertical_pattern="false"
       prop_units="false"
       tang_offset="0"
       normal_offset="0"
       spacing="0"
       scale_y_rel="false"
       prop_scale="1"
       copytype="single_stretched"
       pattern="m 8.5714286,-9.2857143 c 0,-2.7599997 2.2400004,-4.9999997 5.0000004,-4.9999997 2.76,0 5,2.24 5,4.9999997 0,2.76 -2.24,5 -5,5 -2.76,0 -5.0000004,-2.24 -5.0000004,-5 z"
       is_visible="true"
       id="path-effect3817"
       effect="skeletal" />
    <inkscape:path-effect
       effect="skeletal"
       id="path-effect3813"
       is_visible="true"
       pattern="m -5.7142857,-315 c 0,-2.76 2.24,-5 4.99999999,-5 2.76000001,0 5.00000001,2.24 5.00000001,5 0,2.76 -2.24,5 -5.00000001,5 -2.75999999,0 -4.99999999,-2.24 -4.99999999,-5 z"
       copytype="single_stretched"
       prop_scale="1"
       scale_y_rel="false"
       spacing="0"
       normal_offset="0"
       tang_offset="0"
       prop_units="false"
       vertical_pattern="false"
       fuse_tolerance="0" />
    <inkscape:path-effect
       effect="interpolate"
       id="path-effect3809"
       is_visible="true"
       trajectory="m 980.00002,460.08105 37.14278,361.58746"
       equidistant_spacing="true"
       steps="36" />
    <inkscape:path-effect
       effect="interpolate"
       id="path-effect3805"
       is_visible="true"
       trajectory="M 0,0 0,0"
       equidistant_spacing="true"
       steps="5" />
    <inkscape:path-effect
       effect="interpolate"
       id="path-effect3803"
       is_visible="true"
       trajectory="M 0,0 0,0"
       equidistant_spacing="true"
       steps="18" />
    <inkscape:path-effect
       effect="skeletal"
       id="path-effect3794"
       is_visible="true"
       pattern="M 0,5 C 0,2.24 2.24,0 5,0 7.76,0 10,2.24 10,5 10,7.76 7.76,10 5,10 2.24,10 0,7.76 0,5 z"
       copytype="single_stretched"
       prop_scale="1"
       scale_y_rel="false"
       spacing="0"
       normal_offset="0"
       tang_offset="0"
       prop_units="false"
       vertical_pattern="false"
       fuse_tolerance="0" />
    <inkscape:path-effect
       effect="interpolate"
       id="path-effect3790"
       is_visible="true"
       trajectory="M 0,0 0,0"
       equidistant_spacing="true"
       steps="5" />
    <inkscape:path-effect
       effect="interpolate"
       id="path-effect3784"
       is_visible="true"
       trajectory="M 0,0 0,0"
       equidistant_spacing="true"
       steps="30" />
    <inkscape:path-effect
       fuse_tolerance="0"
       vertical_pattern="false"
       prop_units="false"
       tang_offset="0"
       normal_offset="0"
       spacing="0"
       scale_y_rel="false"
       prop_scale="1"
       copytype="single_stretched"
       pattern="m 122.85714,-97.857147 c 0,-2.760003 2.24,-5.000003 5,-5.000003 2.76,0 5,2.24 5,5.000003 0,2.76 -2.24,5 -5,5 -2.76,0 -5,-2.24 -5,-5 z"
       is_visible="true"
       id="path-effect3782"
       effect="skeletal" />
    <inkscape:path-effect
       effect="skeletal"
       id="path-effect3778"
       is_visible="true"
       pattern="m -60,-140.71429 c 0,-2.76 2.24,-5 5,-5 2.76,0 5,2.24 5,5 0,2.76 -2.24,5 -5,5 -2.76,0 -5,-2.24 -5,-5 z"
       copytype="single_stretched"
       prop_scale="1"
       scale_y_rel="false"
       spacing="0"
       normal_offset="0"
       tang_offset="0"
       prop_units="false"
       vertical_pattern="false"
       fuse_tolerance="0" />
    <linearGradient
       id="linearGradient3763">
      <stop
         id="stop3771"
         offset="0"
         style="stop-color:#7ac142;stop-opacity:1;" />
      <stop
         style="stop-color:#00843e;stop-opacity:1;"
         offset="1"
         id="stop3767" />
    </linearGradient>
    <linearGradient
       id="linearGradient3755">
      <stop
         style="stop-color:#2a7f6f;stop-opacity:1"
         offset="0"
         id="stop3757" />
      <stop
         style="stop-color:#0a2022;stop-opacity:1"
         offset="1"
         id="stop3759" />
    </linearGradient>
    <radialGradient
       inkscape:collect="always"
       xlink:href="#linearGradient3763"
       id="radialGradient3773"
       cx="-213.39397"
       cy="887.60498"
       fx="-213.39397"
       fy="887.60498"
       r="972.19574"
       gradientTransform="matrix(1.0482576,-0.85406601,0.75025722,0.88885986,464.9448,24.867713)"
       gradientUnits="userSpaceOnUse" />
    <linearGradient
       inkscape:collect="always"
       xlink:href="#linearGradient3872"
       id="linearGradient3892"
       gradientUnits="userSpaceOnUse"
       x1="-53.357166"
       y1="657.27307"
       x2="2216.2144"
       y2="577.27307"
       gradientTransform="translate(-20.54968,45.199446)" />
    <linearGradient
       inkscape:collect="always"
       xlink:href="#linearGradient3872"
       id="linearGradient3896"
       gradientUnits="userSpaceOnUse"
       gradientTransform="matrix(-1.1818667,0.06229207,0.09645601,-1.0344854,2003.2489,1094.5349)"
       x1="-53.357166"
       y1="657.27307"
       x2="2216.2144"
       y2="577.27307" />
    <filter
       id="filter3024"
       inkscape:label="Desaturate"
       x="0"
       y="0"
       width="1"
       height="1"
       inkscape:menu="Color"
       inkscape:menu-tooltip="Render in shades of gray by reducing saturation to zero"
       color-interpolation-filters="sRGB">
      <feTurbulence
         id="feTurbulence3026"
         baseFrequency="0.40000000000000002"
         numOctaves="7"
         seed="797"
         result="fbSourceGraphic" />
      <feColorMatrix
         result="fbSourceGraphicAlpha"
         in="fbSourceGraphic"
         values="0 0 0 -1 0 0 0 0 -1 0 0 0 0 -1 0 0 0 0 1 0"
         id="feColorMatrix3028" />
      <feColorMatrix
         id="feColorMatrix3030"
         type="saturate"
         values="0"
         in="fbSourceGraphic" />
    </filter>
    <filter
       inkscape:collect="always"
       id="filter3032">
      <feBlend
         inkscape:collect="always"
         mode="multiply"
         in2="BackgroundImage"
         id="feBlend3034" />
    </filter>
    <clipPath
       clipPathUnits="userSpaceOnUse"
       id="clipPath130">
      <path
         inkscape:connector-curvature="0"
         d="M 0,612 792,612 792,0 0,0 0,612 z"
         id="path132" />
    </clipPath>
    <linearGradient
       inkscape:collect="always"
       xlink:href="#linearGradient3763"
       id="linearGradient3893"
       x1="448.57141"
       y1="1149.505"
       x2="442.85715"
       y2="415.21933"
       gradientUnits="userSpaceOnUse" />
  </defs>
  <sodipodi:namedview
     id="base"
     pagecolor="#ffffff"
     bordercolor="#666666"
     borderopacity="1.0"
     inkscape:pageopacity="0.0"
     inkscape:pageshadow="2"
     inkscape:zoom="0.59910568"
     inkscape:cx="801.96708"
     inkscape:cy="582.87343"
     inkscape:document-units="px"
     inkscape:current-layer="layer5"
     showgrid="false"
     inkscape:window-width="1920"
     inkscape:window-height="1032"
     inkscape:window-x="0"
     inkscape:window-y="22"
     inkscape:window-maximized="1" />
  <metadata
     id="metadata7">
    <rdf:RDF>
      <cc:Work
         rdf:about="">
        <dc:format>image/svg+xml</dc:format>
        <dc:type
           rdf:resource="http://purl.org/dc/dcmitype/StillImage" />
        <dc:title />
      </cc:Work>
    </rdf:RDF>
  </metadata>
  <g
     inkscape:label="Layer 1"
     inkscape:groupmode="layer"
     id="layer1"
     transform="translate(0,147.63782)"
     style="display:inline">
    <rect
       style="fill:url(#linearGradient3893);fill-opacity:1;fill-rule:nonzero;stroke:#0a2022;stroke-width:1.56015348000000009;stroke-linecap:butt;stroke-linejoin:bevel;stroke-miterlimit:4;stroke-opacity:1;stroke-dasharray:none;stroke-dashoffset:0"
       id="rect2985"
       width="1942.8572"
       height="1258.5859"
       x="-8.5714283"
       y="-159.80421"
       inkscape:export-xdpi="90"
       inkscape:export-ydpi="90" />
  </g>
  <g
     inkscape:groupmode="layer"
     id="layer5"
     inkscape:label="logo"
     style="opacity:1">
    <g
       style="display:inline"
       transform="matrix(2.6546234,0,0,-2.6546234,1146.1191,541.09252)"
       id="g126">
      <g
         id="g128"
         clip-path="url(#clipPath130)">
        <g
           id="g134"
           transform="translate(210.3418,147.9902)">
          <path
             inkscape:connector-curvature="0"
             d="m 0,0 c -0.049,0.006 -4.881,0.703 -4.926,0.711 -0.847,0.135 -1.281,0.557 -1.281,1.244 0,0.69 0.598,1.08 1.088,1.08 l 7.984,0 0,2.983 -7.969,0 c -2.531,0 -4.275,-1.922 -4.275,-4.063 0,-1.873 1.127,-3.812 3.699,-4.213 0.045,-0.006 4.881,-0.707 4.928,-0.715 0.848,-0.132 1.281,-0.55 1.281,-1.24 0,-0.691 -0.597,-1.078 -1.09,-1.078 l -5.835,0 0,-0.002 c -1.182,-0.041 -2.428,-0.945 -2.428,-2.721 l 0,-0.265 8.252,0 c 2.527,0 4.273,1.924 4.273,4.066 C 3.701,-2.34 2.578,-0.4 0,0 m 42.389,3.035 c 1.183,0.037 2.429,0.944 2.429,2.717 l 0,0.266 -8.64,0 C 33.646,6.018 31.9,4.096 31.9,1.955 l 0,-6.168 c 0,-2.142 1.746,-4.066 4.278,-4.066 l 8.64,0 0,0.265 c 0,1.776 -1.246,2.68 -2.429,2.721 l 0,0.002 -6.229,0 c -0.49,0 -1.086,0.387 -1.086,1.078 0,0.69 0.451,1.24 1.278,1.24 l 2.701,0 c 2.375,0.014 3.746,1.471 4.177,3.135 l -6.494,0 c -1.17,0 -1.662,-0.928 -1.662,-0.928 l 0,2.721 c 0,0.69 0.594,1.08 1.086,1.08 l 6.229,0 z m -28.381,2.986 0,-8.501 c 0,-1.774 -1.44,-3.217 -3.215,-3.217 -1.779,0 -3.215,1.443 -3.215,3.217 l 0,8.501 -3.099,0 0,-8.324 c 0,-3.484 2.826,-6.312 6.314,-6.312 3.484,0 6.312,2.828 6.312,6.312 l 0,8.324 -3.097,0 z M 31.086,-4.213 c 0,-2.142 -1.746,-4.066 -4.272,-4.066 l -7.972,0 0,2.988 7.988,0 c 0.492,0 1.084,0.387 1.084,1.078 0,0.69 -0.434,1.108 -1.281,1.24 -0.045,0.008 -4.881,0.709 -4.928,0.715 -2.576,0.401 -3.697,2.34 -3.697,4.213 0,2.141 1.744,4.063 4.273,4.063 l 7.973,0 0,-2.983 -7.988,0 c -0.491,0 -1.086,-0.39 -1.086,-1.08 0,-0.687 0.429,-1.109 1.279,-1.244 0.047,-0.008 4.883,-0.705 4.928,-0.711 2.576,-0.4 3.699,-2.34 3.699,-4.213"
             style="fill:#ffffff;fill-opacity:1;fill-rule:nonzero;stroke:none"
             id="path136" />
        </g>
        <g
           id="g138"
           transform="translate(222.125,166.3164)">
          <path
             inkscape:connector-curvature="0"
             d="M 0,0 C 0.018,0.625 0.283,1.205 0.74,1.631 1.195,2.057 1.791,2.277 2.416,2.258 3.705,2.211 4.719,1.125 4.676,-0.164 4.652,-0.789 4.391,-1.365 3.936,-1.793 3.479,-2.221 2.881,-2.441 2.256,-2.42 0.969,-2.371 -0.043,-1.287 0,0 m -3.758,4.523 c 0,0 -0.017,-1.134 -0.019,-1.261 -0.565,0.185 -4.625,1.498 -8.434,1.633 -3.225,0.111 -7.633,0.265 -13.863,-3.561 l -0.184,-0.117 c -2.928,-1.828 -4.949,-4.08 -6.01,-6.701 -0.332,-0.825 -0.777,-2.686 -0.337,-4.434 0.191,-0.764 0.548,-1.531 1.027,-2.223 1.082,-1.552 2.896,-2.584 4.851,-2.757 2.76,-0.245 4.852,0.994 5.596,3.314 0.512,1.604 0,3.951 -1.959,5.15 -1.594,0.977 -3.31,0.754 -4.303,0.098 -0.863,-0.572 -1.353,-1.461 -1.343,-2.439 0.021,-1.727 1.511,-2.649 2.582,-2.649 0.312,0 0.627,0.051 0.98,0.17 0.125,0.035 0.24,0.082 0.373,0.164 l 0.041,0.026 0.026,0.013 -0.008,-0.004 c 0.246,0.166 0.392,0.438 0.392,0.727 0,0.082 -0.013,0.16 -0.035,0.242 -0.125,0.436 -0.562,0.703 -1.011,0.619 l -0.057,-0.01 -0.082,-0.027 -0.121,-0.039 c -0.246,-0.064 -0.432,-0.068 -0.471,-0.07 -0.127,0.009 -0.746,0.195 -0.746,0.871 l 0,0.008 c 0.004,0.246 0.103,0.421 0.158,0.515 0.19,0.301 0.715,0.598 1.428,0.535 0.932,-0.08 1.601,-0.56 2.049,-1.459 0.412,-0.837 0.304,-1.867 -0.278,-2.623 -0.582,-0.754 -1.611,-1.072 -2.986,-0.922 -1.383,0.153 -2.553,0.95 -3.211,2.19 -0.639,1.209 -0.676,2.646 -0.092,3.752 1.403,2.644 4.051,2.615 5.498,2.367 2.065,-0.355 5.194,-2.205 6.364,-6.484 l 2.853,0 c -0.351,1.092 -0.555,4.248 2.656,4.248 3.524,0 3.969,-2.481 4.963,-4.248 l 3.024,0 c -0.795,1.138 -1.352,2.404 -1.174,3.47 0.26,1.571 1.51,1.43 3.244,1.235 0.564,-0.067 1.209,-0.139 1.875,-0.155 1.861,-0.011 3.549,0.333 4.781,0.87 0.799,0.349 1.307,0.58 1.629,0.869 0.113,0.095 0.174,0.252 0.235,0.416 l 0.041,0.113 c 0.056,0.133 0.119,0.418 0.162,0.572 0.082,0.315 -0.2,0.149 -0.2,0.149 C 5.607,-3.65 4.248,-4.268 2.982,-4.293 1.41,-4.326 -1.756,-2.715 -2.09,-2.541 l -0.029,0.037 c -0.08,0.188 -0.557,1.315 -0.654,1.551 2.279,-1.504 4.169,-2.332 5.619,-2.461 1.611,-0.145 2.869,0.736 3.406,1.111 0.053,0.039 0.269,0.18 0.221,0.356 C 6.262,-1.215 5.537,1.238 4.934,1.859 4.758,2.041 4.621,2.215 4.33,2.381 2.027,3.725 -3.439,4.537 -3.697,4.574 c 0,0 -0.061,0.016 -0.061,-0.051"
             style="fill:#ffffff;fill-opacity:1;fill-rule:nonzero;stroke:none"
             id="path140" />
        </g>
        <g
           id="g142"
           transform="translate(224.7891,166.0996)">
          <path
             inkscape:connector-curvature="0"
             d="m 0,0 c -0.4,0 -0.725,0.217 -0.725,0.482 0,0.27 0.325,0.485 0.725,0.485 0.4,0 0.725,-0.215 0.725,-0.485 C 0.725,0.217 0.4,0 0,0 M -0.266,1.787 C -0.703,1.803 -1.119,1.646 -1.432,1.35 -1.754,1.053 -1.938,0.648 -1.949,0.215 c -0.031,-0.903 0.672,-1.66 1.57,-1.692 0.438,-0.013 0.852,0.141 1.172,0.438 0.318,0.297 0.504,0.699 0.518,1.137 0.029,0.9 -0.676,1.656 -1.577,1.689"
             style="fill:#ffffff;fill-opacity:1;fill-rule:nonzero;stroke:none"
             id="path144" />
        </g>
        <g
           id="g146"
           transform="translate(257.1514,140.8809)">
          <path
             inkscape:connector-curvature="0"
             d="m 0,0 c 0,-0.08 -0.057,-0.135 -0.161,-0.135 l -0.21,0 0,0.272 0.205,0 C -0.063,0.137 0,0.09 0,0 m 0.208,0.014 c 0,0.191 -0.141,0.304 -0.368,0.304 l -0.418,0 0,-0.929 0.207,0 0,0.298 0.164,0 0.202,-0.298 0.243,0 -0.231,0.334 c 0.122,0.043 0.201,0.136 0.201,0.291 m 0.364,-0.182 c 0,-0.432 -0.339,-0.783 -0.788,-0.783 -0.445,0 -0.78,0.347 -0.78,0.777 0,0.43 0.337,0.781 0.785,0.781 0.448,0 0.783,-0.349 0.783,-0.775 m 0.204,0 c 0,0.533 -0.432,0.971 -0.987,0.971 -0.554,0 -0.99,-0.444 -0.99,-0.977 0,-0.535 0.43,-0.974 0.985,-0.974 0.553,0 0.992,0.445 0.992,0.98"
             style="fill:#ffffff;fill-opacity:1;fill-rule:nonzero;stroke:none"
             id="path148" />
        </g>
      </g>
    </g>
  </g>
  <g
     inkscape:groupmode="layer"
     id="layer4"
     inkscape:label="noise"
     style="opacity:0.16712329;display:none;filter:url(#filter3032)"
     sodipodi:insensitive="true">
    <rect
       style="fill:#144156;fill-opacity:1;fill-rule:nonzero;stroke:none;filter:url(#filter3024)"
       id="rect3020"
       width="1959.6959"
       height="1276.8328"
       x="-14.142136"
       y="-14.203351" />
  </g>
  <g
     inkscape:groupmode="layer"
     id="layer2"
     inkscape:label="Layer"
     style="opacity:0.32327586;display:inline">
    <path
       id="path3824"
       style="fill:none;stroke:url(#linearGradient3892);stroke-width:1px;stroke-linecap:butt;stroke-linejoin:miter;stroke-opacity:1"
       d="m -164.8354,199.91934 c 115.406087,3.80196 248.423129,1.8059 348.57142,68.57142 74.32587,49.55059 126.32817,123.45318 168.89909,206.23574 85.14184,165.56512 132.55818,366.65008 245.38662,479.47848 127.88261,127.88262 355.7582,-266.91909 499.37407,-497.48311 71.8079,-115.28201 122.5509,-189.5046 129.1974,-136.80253 67.1521,532.47243 332.1651,1165.21316 860,294.28573 M -164.31953,209.35927 c 119.790004,2.72242 257.887143,0.48961 360.91503,65.1523 74.71709,48.47054 127.12542,120.85363 169.8049,201.83016 C 451.50457,638.5337 499.13192,836.42537 611.35535,947.5168 738.42387,1073.4533 964.18909,684.19562 1107.3251,456.6824 1179.163,342.8988 1230.0737,270.12784 1237.38,322.70604 1305.856,849.6073 1568.362,1477.0703 2089.8868,614.35929 M -163.80365,218.7992 c 124.173911,1.64288 267.35115,-0.82668 373.25864,61.73317 75.10829,47.39049 127.92267,118.25409 170.7107,197.42458 85.0665,158.81883 132.90485,353.5172 244.52329,462.87166 126.25443,123.99049 349.90927,-259.72326 492.56552,-484.18569 71.8677,-112.28518 122.9462,-183.60451 130.9124,-131.15019 69.7999,521.3301 329.7989,1143.51527 845.0136,289.02077 M -163.28778,228.23913 c 128.557828,0.56334 276.81516,-2.14297 385.60225,58.31405 75.49951,46.31044 128.71992,115.65454 171.61651,193.019 85.02884,155.44569 133.07819,346.95076 244.09163,454.56825 125.44034,122.04437 346.98479,-256.12534 489.16119,-477.53698 71.8977,-110.78677 123.1439,-180.65447 131.77,-128.32403 71.1237,515.75894 328.6157,1132.66638 837.5203,286.38829 M -162.7719,237.67905 c 132.941735,-0.51619 286.27916,-3.45926 397.94585,54.89494 75.89073,45.23039 129.51718,113.05499 172.52232,188.61341 84.99117,152.07255 133.25153,340.38433 243.65996,446.26484 124.62626,120.09836 344.06033,-252.52742 485.75687,-470.88826 71.9276,-109.28836 123.3416,-177.70443 132.6275,-125.49786 72.4477,510.18777 327.4327,1121.81748 830.0272,283.75581 M -162.25603,247.11898 c 137.325652,-1.59574 295.74318,-4.77555 410.28947,51.47581 76.28193,44.15035 130.31443,110.45545 173.42813,184.20784 84.95349,148.69941 133.42485,333.81789 243.22829,437.96143 C 788.50203,1038.9164 1005.8257,671.83455 1147.0424,456.52451 1219,348.73456 1270.5817,281.77012 1280.5275,333.85281 1354.2991,838.46942 1606.777,1444.8213 2103.0614,614.97614 M -161.74016,256.55891 c 141.709569,-2.67528 305.20719,-6.09184 422.63308,48.05669 76.67315,43.0703 131.11168,107.8559 174.33394,179.80225 84.91582,145.32627 133.59819,327.25146 242.79662,429.65802 122.99809,116.20623 338.21142,-245.33158 478.94832,-457.59083 71.9875,-106.29153 123.7369,-171.80435 134.3426,-119.84554 75.0954,499.04545 325.0664,1100.1196 815.0407,278.49085 M -161.22428,265.99884 c 146.093476,-3.75482 314.6712,-7.40813 434.97669,44.63756 77.06436,41.99026 131.90893,105.25636 175.23974,175.39668 84.87815,141.95312 133.77152,320.68502 242.36496,421.35461 122.184,114.26021 335.28689,-241.73367 475.54399,-450.94212 72.0174,-104.79312 123.9346,-168.8543 135.2001,-117.01937 76.4194,493.47428 323.8833,1089.2707 807.5475,275.85837 M -160.70841,275.43876 c 150.477393,-4.83435 324.13521,-8.72441 447.3203,41.21845 77.45557,40.9102 132.70618,102.65681 176.14555,170.99109 84.84049,138.57999 133.94486,314.11859 241.93329,413.0512 121.36992,112.3141 332.36247,-238.13574 472.13967,-444.29341 72.0474,-103.2947 124.1323,-165.90425 136.0577,-114.1932 77.7432,487.90312 322.7002,1078.42171 800.0543,273.22589 M -160.19253,284.87869 c 154.8612996,-5.91389 333.59921,-10.04071 459.6639,37.79932 77.84679,39.83016 133.50344,100.05727 177.05136,166.58552 84.80282,135.20684 134.1182,307.55215 241.50163,404.74778 120.55582,110.36809 329.43794,-234.53782 468.73544,-437.64469 72.0772,-101.79629 124.3298,-162.95421 136.9152,-111.36704 79.0671,482.33196 321.517,1067.57282 792.561,270.59341 M -159.67666,294.31862 c 159.24521651,-6.99344 343.06323,-11.357 472.00752,34.3802 78.23799,38.75011 134.30068,97.45772 177.95716,162.17993 84.76515,131.8337 134.29153,300.98571 241.06996,396.44438 119.74174,108.422 326.51352,-230.93991 465.33112,-430.99598 72.1072,-100.29788 124.5275,-160.00417 137.7727,-108.54087 80.391,476.76079 320.334,1056.72392 785.0679,267.96092 M -159.16079,303.75855 c 163.6291335,-8.07298 352.52724,-12.67329 484.35113,30.96107 78.62921,37.67007 135.09794,94.85818 178.86297,157.77436 84.72748,128.46056 134.46487,294.41927 240.6383,388.14096 118.92765,106.47594 323.58909,-227.34198 461.92679,-424.34726 72.1371,-98.79947 124.7252,-157.05413 138.6303,-105.71471 81.7149,471.18963 319.1508,1045.87493 777.5746,265.32845 M -158.64491,313.19847 c 168.0130404,-9.15251 361.99124,-13.98957 496.69473,27.54196 79.02043,36.59002 135.89519,92.25863 179.76878,153.36877 84.68981,125.08742 134.63821,287.85284 240.20663,379.83756 118.11357,104.52987 320.66457,-223.74407 458.52257,-417.69855 72.167,-97.30106 124.9228,-154.10409 139.4878,-102.88855 83.0387,465.61847 317.9677,1035.02604 770.0814,262.69597 M -158.12904,322.6384 c 172.396957,-10.23205 371.45526,-15.30587 509.03835,24.12283 79.41163,35.50998 136.69244,89.65909 180.67459,148.9632 84.65214,121.71428 134.81153,281.2864 239.77496,371.53414 117.29948,102.58382 317.74014,-220.14615 455.11824,-411.04983 72.197,-95.80265 125.1205,-151.15405 140.3453,-100.06238 84.3627,460.0473 316.7846,1024.17714 762.5882,260.06348 M -157.61316,332.07833 c 176.780864,-11.31159 380.91926,-16.62216 521.38195,20.70371 79.80285,34.42992 137.48969,87.05954 181.5804,144.55761 84.61447,118.34114 134.98487,274.71997 239.3433,363.23074 116.48539,100.63775 314.81561,-216.54823 451.71391,-404.40113 72.2269,-94.30422 125.3182,-148.204 141.2029,-97.23621 85.6865,454.47614 315.6015,1013.32815 755.095,257.43101 M -157.09729,341.51826 c 181.164781,-12.39114 390.38328,-17.93845 533.72557,17.28458 80.19406,33.34988 138.28694,84.46 182.4862,140.15204 84.5768,114.96799 135.15821,268.15353 238.91163,354.92732 115.67131,98.6917 311.89119,-212.95031 448.30959,-397.75241 72.2569,-92.80581 125.5159,-145.25396 142.0605,-94.41005 87.0104,448.90498 314.4183,1002.47926 747.6017,254.79853 M -156.58142,350.95818 c 185.548698,-13.47067 399.84729,-19.25473 546.06918,13.86547 80.58527,32.26983 139.08419,81.86045 183.39201,135.74645 84.53913,111.59486 135.33154,261.5871 238.47997,346.62391 114.85722,96.74564 308.96666,-209.35239 444.90536,-391.10369 72.2867,-91.3074 125.7135,-142.30392 142.9179,-91.58388 88.3344,443.33381 313.2353,991.63036 740.1086,252.16604 M -156.06554,360.39811 c 189.932605,-14.55021 409.31129,-20.57103 558.41278,10.44634 80.97649,31.18979 139.88145,79.26091 184.29782,131.34088 84.50146,108.22171 135.50488,255.02065 238.0483,338.3205 114.04313,94.79957 306.04224,-205.75447 441.50104,-384.45498 72.3167,-89.80899 125.9112,-139.35387 143.7755,-88.75772 89.6582,437.76265 312.0521,980.78137 732.6154,249.53356 M -155.54967,369.83804 c 194.316522,-15.62975 418.77531,-21.88732 570.7564,7.02722 81.36769,30.10974 140.67869,76.66136 185.20362,126.93529 84.46379,104.84858 135.67822,248.45422 237.61664,330.01709 113.22904,92.85352 303.11771,-202.15655 438.09671,-377.80626 72.3466,-88.31058 126.1089,-136.40383 144.6331,-85.93156 90.9821,432.19149 310.869,969.93248 725.1221,246.90109 M -155.03379,379.27797 c 198.700429,-16.70929 428.23931,-23.20361 583.1,3.6081 81.75891,29.02969 141.47595,74.06181 186.10943,122.52971 84.42613,101.47543 135.85155,241.88778 237.18497,321.71368 112.41496,90.90745 300.19329,-198.55863 434.69249,-371.15755 72.3765,-86.81217 126.3065,-133.45379 145.4905,-83.10539 92.306,426.62032 309.6859,959.08358 717.629,244.2686 M -154.51792,388.71789 C 48.566426,370.92907 283.1854,364.198 440.9257,388.90687 c 82.15012,27.94964 142.27319,71.46227 187.01523,118.12413 84.38846,98.10229 136.02489,235.32135 236.75331,313.41027 111.60087,88.9614 297.26886,-194.96071 431.28816,-364.50884 72.4065,-85.31375 126.5042,-130.50374 146.3481,-80.27922 93.6299,421.04915 308.5028,948.23459 710.1357,241.63612 M -154.00205,398.15782 c 207.468263,-18.86837 447.16734,-25.83618 607.78723,-3.23014 82.54133,26.86959 143.07045,68.86272 187.92104,113.71855 84.35079,94.72915 136.19823,228.75491 236.32164,305.10686 110.78679,87.01533 294.34434,-191.3628 427.88384,-357.86013 72.4364,-83.81533 126.7019,-127.5537 147.2057,-77.45306 94.9537,415.47799 307.3196,937.3857 702.6425,239.00365 M -153.48617,407.59775 c 211.85217,-19.94791 456.63134,-27.15248 620.13083,-6.64927 82.93255,25.78955 143.8677,66.26318 188.82686,109.31297 84.31311,91.35601 136.37155,222.18848 235.88997,296.80345 109.97271,85.06928 291.41991,-187.76487 424.47961,-351.21141 72.4663,-82.31692 126.8995,-124.60366 148.0631,-74.62689 96.2777,409.90682 306.1366,926.5368 695.1493,236.37116 M -152.9703,417.03768 c 216.236087,-21.02745 466.09535,-28.46877 632.47445,-10.06839 83.32375,24.7095 144.66495,63.66363 189.73266,104.90739 84.27544,87.98287 136.54489,215.62204 235.4583,288.50004 109.15859,83.12321 288.49539,-184.16696 421.07529,-344.5627 72.4962,-80.81851 127.0971,-121.65362 148.9207,-71.80073 97.6015,404.33566 304.9535,915.68781 687.6561,233.73868 M -152.45442,426.4776 c 220.619994,-22.10698 475.55936,-29.78505 644.81805,-13.48751 83.71497,23.62946 145.4622,61.06409 190.63847,100.50181 84.23778,84.60973 136.71823,209.0556 235.02664,280.19663 108.34456,81.17715 285.57096,-180.56904 417.67096,-337.91398 72.5262,-79.3201 127.2948,-118.70358 149.7783,-68.97457 98.9254,398.7645 303.7703,904.83892 680.1628,231.10621 M -151.93855,435.91753 c 225.003911,-23.18652 485.02337,-31.10134 657.16166,-16.90663 84.10619,22.5494 146.25946,58.46454 191.54428,96.09623 84.20011,81.23658 136.89156,202.48916 234.59498,271.89321 107.53043,79.2311 282.64643,-176.97111 414.26663,-331.26526 72.5561,-77.82169 127.4925,-115.75354 150.6358,-66.1484 100.2494,393.19333 302.5873,893.99002 672.6697,228.47372 M -151.42268,445.35746 C 77.965148,421.09139 343.06471,412.93982 518.0826,425.0317 c 84.49739,21.46936 147.0567,55.865 192.45008,91.69065 84.16244,77.86345 137.0649,195.92273 234.16331,263.58981 106.71631,77.28503 279.72201,-173.3732 410.86241,-324.61656 72.586,-76.32327 127.6901,-112.80348 151.4933,-63.32223 101.5732,387.62217 301.4041,883.14103 665.1764,225.84124 M -150.9068,454.79738 c 233.771735,-25.3456 503.95139,-33.73392 681.84888,-23.74487 84.88861,20.38931 147.85396,53.26545 193.35589,87.28507 84.12477,74.4903 137.23824,189.35629 233.73165,255.28639 105.90228,75.33898 276.79748,-169.77528 407.45808,-317.96784 72.616,-74.82486 127.8878,-109.85344 152.3509,-60.49607 102.8971,382.05101 300.221,872.29214 657.6832,223.20876 M -150.39093,464.23731 c 238.155652,-26.42514 513.4154,-35.05021 694.1925,-27.164 85.27982,19.30927 148.65121,50.66591 194.26169,82.87949 84.0871,71.11717 137.41157,182.78986 233.29998,246.98299 105.08816,73.39291 273.87306,-166.17736 404.05376,-311.31913 72.6459,-73.32644 128.0855,-106.9034 153.2084,-57.6699 104.221,376.47984 299.0379,861.44324 650.19,220.57628 M -149.87505,473.67724 c 242.539559,-27.50468 522.87941,-36.3665 706.5361,-30.58312 85.67103,18.22922 149.44846,48.06636 195.1675,78.47391 84.04944,67.74402 137.58491,176.22342 232.86832,238.67957 104.27413,71.44685 270.94863,-162.57944 400.64953,-304.67041 72.6758,-71.82803 128.2831,-103.95336 154.0659,-54.84374 105.5449,370.90868 297.8548,850.59425 642.6968,217.9438 M -149.35918,483.11717 c 246.923476,-28.58422 532.34342,-37.6828 718.87971,-34.00225 86.06225,17.14918 150.24572,45.46682 196.07332,74.06833 84.01176,64.37088 137.75824,169.65699 232.43664,230.37617 103.46001,69.50079 268.02411,-158.98152 397.24521,-298.0217 72.7057,-70.32962 128.4808,-101.00332 154.9235,-52.01758 106.8687,365.33752 296.6716,839.74536 635.2035,215.31132 M -148.84331,492.55709 c 251.30739,-29.66376 541.80743,-38.99908 731.22333,-37.42136 86.45345,16.06912 151.04296,42.86727 196.97912,69.66275 83.97409,60.99774 137.93157,163.09055 232.00496,222.07275 102.6459,67.55473 265.0997,-155.3836 393.8409,-291.37298 72.7357,-68.83121 128.6785,-98.05328 155.781,-49.19141 108.1927,359.76635 295.4886,828.89646 627.7104,212.67884 M -148.32743,501.99702 c 255.6913,-30.7433 551.27144,-40.31537 743.56693,-40.84049 86.84467,14.98908 151.84022,40.26773 197.88493,65.25717 83.93642,57.6246 138.10491,156.52411 231.57327,213.76935 101.8319,65.60867 262.1752,-151.78569 390.4367,-284.72428 72.7655,-67.33279 128.8761,-95.10323 156.6385,-46.36524 109.5165,354.19519 294.3054,818.04747 620.2171,210.04636 M -147.81156,511.43695 c 260.07522,-31.82284 560.73545,-41.63166 755.91054,-44.25961 87.23589,13.90903 152.63747,37.66818 198.79074,60.85159 83.89875,54.25146 138.27824,149.95767 231.14168,205.46593 101.0177,63.66261 259.2507,-148.18776 387.0323,-278.07556 72.7955,-65.83438 129.0738,-92.15319 157.4961,-43.53908 110.8404,348.62403 293.1223,807.19858 612.7239,207.41388 M -147.29568,520.87688 c 264.45912,-32.90238 570.19946,-42.94796 768.25415,-47.67873 87.62709,12.82898 153.43472,35.06863 199.69654,56.446 83.86108,50.87832 138.45158,143.39124 230.70999,197.16252 100.2037,61.71656 256.3262,-144.58984 383.628,-271.42684 72.8255,-64.33597 129.2715,-89.20315 158.3536,-40.71291 112.1644,343.05286 291.9392,796.34968 605.2307,204.7814 M -146.77981,530.3168 c 268.84304,-33.98191 579.66347,-44.26424 780.59776,-51.09785 88.01831,11.74894 154.23197,32.46909 200.60235,52.04043 83.82342,47.50517 138.62492,136.8248 230.2783,188.85911 99.3896,59.77049 253.4018,-140.99193 380.2238,-264.77813 72.8553,-62.83756 129.4691,-86.25311 159.2111,-37.88675 113.4882,337.4817 290.7561,785.50069 597.7375,202.14892 m -2348.13494,-79.8458 c 273.22696,-35.06146 589.12748,-45.58053 792.94138,-54.51697 88.40951,10.66889 155.02922,29.86954 201.50815,47.63484 83.78575,44.13204 138.79825,130.25837 229.84661,180.5557 98.5755,57.82443 250.4774,-137.394 376.8195,-258.12941 72.8853,-61.33914 129.6667,-83.30306 160.0687,-35.06059 114.8121,331.91054 289.5729,774.6518 590.2442,199.51644 M -145.74806,549.19666 c 277.61086,-36.141 598.59149,-46.89682 805.28498,-57.9361 88.80073,9.58884 155.82647,27.27 202.41396,43.22927 83.74808,40.75889 138.97162,123.69193 229.41502,172.25229 97.7614,55.87837 247.5528,-133.79609 373.4151,-251.4807 72.9152,-59.84073 129.8644,-80.35302 160.9262,-32.23442 116.136,326.33937 288.3899,763.8029 582.7511,196.88395 M -145.23219,558.63659 c 281.99478,-37.22054 608.0555,-48.21311 817.62859,-61.35522 89.19195,8.50879 156.62373,24.67045 203.31977,38.82368 83.71041,37.38575 139.14493,117.1255 228.98333,163.94888 96.9473,53.93231 244.6284,-130.19817 370.0108,-244.83199 72.9452,-58.34231 130.0621,-77.40297 161.7838,-29.40825 117.4599,320.76821 287.2067,752.95391 575.2578,194.25148 M -144.71632,568.07651 c 286.3787,-38.30007 617.51951,-49.5294 829.97221,-64.77434 89.58315,7.42875 157.42097,22.07091 204.22558,34.41811 83.67273,34.01261 139.31823,110.55905 228.55163,155.64547 96.1332,51.98625 241.7039,-126.60025 366.6066,-238.18328 72.975,-56.8439 130.2597,-74.45293 162.6413,-26.58209 118.7837,315.19705 286.0236,742.10502 567.7646,191.619 M -144.20044,577.51644 c 290.76261,-39.37961 626.98352,-50.84569 842.31581,-68.19346 89.97437,6.3487 158.21823,19.47136 205.13139,30.01253 83.63507,30.63946 139.49164,103.99261 228.11994,147.34205 95.3192,50.04019 238.7795,-123.00233 363.2023,-231.53456 73.005,-55.34549 130.4574,-71.50289 163.4988,-23.75592 120.1077,309.62588 284.8405,731.25612 560.2714,188.98651 M -143.68457,586.95637 c 295.14652,-40.45916 636.44753,-52.16198 854.65942,-71.61259 90.36559,5.26866 159.01548,16.87182 206.0372,25.60695 83.59735,27.26633 139.66495,97.42618 227.68835,139.03864 94.505,48.09413 235.8549,-119.4044 359.7979,-224.88584 73.035,-53.84708 130.6551,-68.55285 164.3564,-20.92976 121.4315,304.05471 283.6574,720.40713 552.7782,186.35404 M -143.16869,596.3963 c 299.53043,-41.5387 645.91154,-53.47827 867.00303,-75.03171 90.75679,4.18861 159.81273,14.27227 206.943,21.20137 83.55976,23.89318 139.83826,90.85974 227.25666,130.73523 93.691,46.14807 232.9305,-115.80649 356.3937,-218.23713 73.0648,-52.34867 130.8527,-65.60281 165.2139,-18.1036 122.7554,298.48355 282.4742,709.55824 545.2849,183.72156 m -2367.57932,-14.8458 c 303.91435,-42.61823 655.37555,-54.79456 879.34664,-78.45083 91.14801,3.10856 160.60998,11.67273 207.84881,16.79579 83.52207,20.52004 140.01157,84.29331 226.82497,122.43182 92.8769,44.20201 230.006,-112.20857 352.9894,-211.58841 73.0948,-50.85025 131.0504,-62.65277 166.0714,-15.27743 124.0793,292.91238 281.2912,698.70934 537.7918,181.08907 m -2370.35715,-5.56008 c 308.29826,-43.69777 664.83956,-56.11085 891.69026,-81.86995 91.53921,2.02851 161.40723,9.07318 208.75461,12.39021 83.48438,17.1469 140.18498,77.72687 226.39328,114.12841 92.0628,42.25595 227.0816,-108.61065 349.5851,-204.93971 73.1247,-49.35183 131.2481,-59.70272 166.929,-12.45126 125.4032,287.34122 280.108,687.86035 530.2985,178.4566 m -2373.13487,3.72563 C 171.0611,579.93877 532.6825,567.28894 762.41279,539.427 c 91.93043,0.94847 162.20448,6.47364 209.66042,7.98463 83.44669,13.77376 140.35829,71.16044 225.96169,105.825 91.2487,40.30989 224.1571,-105.01273 346.1808,-198.29099 73.1546,-47.85342 131.4457,-56.75267 167.7865,-9.6251 126.7271,281.77006 278.9249,677.01146 522.8053,175.82412 m -2375.9127,13.01135 c 317.06609,-45.85686 683.76758,-58.74343 916.37747,-88.7082 92.32165,-0.13158 163.00174,3.87409 210.56623,3.57905 83.4091,10.40062 140.5316,64.59399 225.53,97.52159 90.4346,38.36383 221.2326,-101.41482 342.7765,-191.64228 73.1845,-46.35501 131.6434,-53.80263 168.644,-6.79893 128.051,276.19889 277.7418,666.16256 515.3121,173.19163 m -2378.69042,22.29706 c 321.44999,-46.93639 693.23158,-60.05972 928.72108,-92.12732 92.71285,-1.21162 163.79898,1.27455 211.47204,-0.82653 83.3714,7.02748 140.7049,58.02756 225.0983,89.21818 89.6206,36.41777 218.3082,-97.81689 339.3722,-184.99356 73.2145,-44.8566 131.8411,-50.85259 169.5016,-3.97277 129.3749,270.62773 276.5587,655.31357 507.8189,170.55915 m -2381.46825,31.58278 c 325.83391,-48.01593 702.6956,-61.37601 941.06469,-95.54644 93.10407,-2.29167 164.59624,-1.325 212.37786,-5.23211 83.3337,3.65433 140.8783,51.46112 224.6667,80.91477 88.8064,34.4717 215.3836,-94.21898 335.9678,-178.34485 73.2445,-43.35819 132.0388,-47.90255 170.3592,-1.14661 130.6987,265.05657 275.3755,644.46468 500.3256,167.92668 m -2384.24598,40.86849 c 330.21783,-49.09547 712.15961,-62.6923 953.40831,-98.96556 93.49528,-3.37173 165.39348,-3.92455 213.28367,-9.6377 83.296,0.2812 141.0516,44.89469 224.235,72.61136 87.9923,32.52565 212.4592,-90.62105 332.5636,-171.69613 73.2743,-41.85978 132.2364,-44.95251 171.2166,1.67956 132.0227,259.4854 274.1925,633.61578 492.8325,165.29419 m -2387.0238,50.15421 c 334.60173,-50.17501 721.62362,-64.00859 965.75191,-102.38469 93.88649,-4.45177 166.19074,-6.52409 214.18949,-14.04327 83.2583,-3.09195 141.2249,38.32825 223.8033,64.30794 87.1783,30.57959 209.5347,-87.02313 329.1593,-165.04741 73.3043,-40.36137 132.434,-42.00247 172.0742,4.50572 133.3465,253.91424 273.0093,622.76679 485.3392,162.66171 m -2389.80153,59.43992 c 338.98565,-51.25455 731.08763,-65.32487 978.09552,-105.8038 94.27771,-5.53182 166.98801,-9.12364 215.09531,-18.44886 83.2207,-6.46508 141.3982,31.76182 223.3716,56.00454 86.3642,28.63353 206.6103,-83.42522 325.755,-158.39871 73.3342,-38.86294 132.6317,-39.05242 172.9318,7.33189 134.6704,248.34308 271.8262,611.9179 477.846,160.02924 m -2392.57935,68.72563 c 343.36956,-52.33409 740.55163,-66.64117 990.43913,-109.22293 94.66891,-6.61186 167.78522,-11.72318 216.00112,-22.85443 83.183,-9.83823 141.5716,25.19538 222.94,47.70112 85.5501,26.68747 203.6858,-79.82729 322.3507,-151.74999 73.3641,-37.36453 132.8293,-36.10238 173.7892,10.15806 135.9943,242.77191 270.6431,601.069 470.3528,157.39675 M -137.49408,700.2355 C 210.2594,646.82187 612.52157,632.27804 865.28866,587.59345 c 95.06013,-7.69191 168.58254,-14.32273 216.90684,-27.26002 83.1454,-13.21137 141.745,18.62894 222.5084,39.39772 84.736,24.7414 200.7613,-76.22938 318.9464,-145.10128 73.394,-35.86612 133.027,-33.15234 174.6468,12.98422 137.3182,237.20075 269.46,590.22001 462.8596,154.76427 m -2398.13491,87.29707 c 352.13739,-54.49317 759.47966,-69.27375 1015.12635,-116.06118 95.45135,-8.77195 169.37976,-16.92227 217.81266,-31.66559 83.1077,-16.58451 141.9183,12.0625 222.0767,31.0943 83.9219,22.79535 197.8369,-72.63146 315.5421,-138.45256 73.424,-34.36771 133.2247,-30.20229 175.5044,15.81038 138.6421,231.62959 268.2768,579.37112 455.3664,152.1318 m -2400.91273,96.58277 c 356.5213,-55.5727 768.94366,-70.59003 1027.46996,-119.48029 95.84255,-9.85201 170.17697,-19.52182 218.71847,-36.07118 83.0701,-19.95765 142.0916,5.49607 221.645,22.7909 83.1079,20.84928 194.9124,-69.03354 312.1379,-131.80385 73.4539,-32.8693 133.4223,-27.25225 176.3618,18.63655 139.966,226.05842 267.0938,568.52222 447.8732,149.49931 M -135.94646,728.55528 c 360.90522,-56.65224 778.40768,-71.90633 1039.81357,-122.89942 96.23379,-10.93205 170.97429,-22.12136 219.62429,-40.47675 83.0324,-23.33079 142.265,-1.07037 221.2134,14.48748 82.2937,18.90323 191.9879,-65.43562 308.7335,-125.15513 73.4838,-31.37089 133.62,-24.30221 177.2194,21.46271 141.2899,220.48726 265.9106,557.67323 440.38,146.86683 M -135.43058,737.99521 C 229.85854,680.26342 652.4411,664.77259 916.7266,611.67667 c 96.625,-12.0121 171.7715,-24.72091 220.5301,-44.88234 82.9947,-26.70393 142.4383,-7.6368 220.7817,6.18408 81.4796,16.95716 189.0634,-61.83771 305.3292,-118.50643 73.5138,-29.87247 133.8177,-21.35216 178.077,24.28888 142.6137,214.9161 264.7275,546.82434 432.8867,144.23435 M -134.91471,747.43513 c 369.67304,-58.81132 797.3357,-74.5389 1064.50079,-129.73766 97.01622,-13.09214 172.56872,-27.32045 221.43592,-49.28791 82.957,-30.07708 142.6116,-14.20324 220.35,-2.11934 80.6656,15.01111 186.139,-58.23978 301.925,-111.85771 73.5436,-28.37405 134.0153,-18.40212 178.9344,27.11505 143.9377,209.34493 263.5444,535.97544 425.3936,141.60187 M -134.39884,756.87506 c 374.05696,-59.89086 806.79971,-75.85519 1076.8444,-133.15678 97.40744,-14.17219 173.36604,-29.92 222.34174,-53.6935 82.9193,-33.45021 142.785,-20.76967 219.9183,-10.42275 79.8515,13.06505 183.2145,-54.64186 298.5207,-105.20899 73.5736,-26.87564 134.213,-15.45208 179.792,29.94121 145.2615,203.77377 262.3613,525.12645 417.9003,138.96939 M -133.88296,766.31499 C 244.5579,705.34459 682.38075,689.1435 955.30505,629.73908 c 97.79865,-15.25223 174.16325,-32.51954 223.24755,-58.09907 82.8817,-36.82336 142.9583,-27.33611 219.4867,-18.72616 79.0374,11.11898 180.29,-51.04394 295.1163,-98.56028 73.6035,-25.37723 134.4107,-12.50204 180.6496,32.76737 146.5854,198.20261 261.1781,514.27756 410.4071,136.33691 M -133.36709,775.75492 C 249.45769,713.70498 692.36064,697.26714 968.16453,635.75989 1066.3544,619.4276 1143.125,600.6408 1192.3179,573.25523 c 82.844,-40.19649 143.1316,-33.90255 219.055,-27.02957 78.2233,9.17293 177.3656,-47.44602 291.712,-91.91156 73.6335,-23.87882 134.6084,-9.552 181.5071,35.59354 147.9093,192.63144 259.9951,503.42862 402.9139,133.70443 M -132.85121,785.19484 c 387.20869,-63.12948 835.19173,-79.80406 1113.87522,-143.41415 98.58109,-17.41233 175.75779,-37.71863 225.05919,-66.91023 82.8063,-43.56964 143.3049,-40.46899 218.6233,-35.33298 77.4092,7.22686 174.4411,-43.84811 288.3078,-85.26285 73.6634,-22.38041 134.806,-6.60196 182.3646,38.4197 149.2332,187.06027 258.8119,492.57969 395.4207,131.07195 M -132.33534,794.63477 C 259.25726,730.42575 712.3204,713.51442 993.8835,647.8015 c 98.9723,-18.49238 176.555,-40.31818 225.965,-71.31582 82.7686,-46.94278 143.4783,-47.03542 218.1916,-43.63639 76.5952,5.28081 171.5167,-40.25018 284.9035,-78.61414 73.6933,-20.88199 135.0037,-3.65191 183.2222,41.24587 150.557,181.48911 257.6288,481.73077 387.9274,128.43947 M -131.81947,804.0747 C 264.15705,738.78614 722.30029,721.63806 1006.743,653.8223 c 99.3634,-19.57242 177.3522,-42.91772 226.8707,-75.72139 82.7311,-50.31592 143.6517,-53.60186 217.7601,-51.9398 75.781,3.33474 168.5921,-36.65227 281.4991,-71.96543 73.7233,-19.38358 135.2013,-0.70186 184.0797,44.07204 151.881,175.91794 256.4457,470.88184 380.4343,125.80699 M -131.30359,813.51463 c 400.36043,-66.3681 863.58376,-83.75294 1150.90609,-153.67152 99.7546,-20.65247 178.1495,-45.51727 227.7765,-80.12698 82.6934,-53.68906 143.825,-60.16829 217.3284,-60.24321 74.967,1.38868 165.6677,-33.05435 278.0949,-65.31671 73.7531,-17.88517 135.3989,2.24818 184.9372,46.8982 153.2049,170.34678 255.2626,460.03291 372.941,123.17451 M -130.78772,822.95455 c 404.74435,-67.44763 873.04778,-85.06922 1163.24962,-157.09063 100.1459,-21.73253 178.9468,-48.11682 228.6824,-84.53256 82.6557,-57.0622 143.9983,-66.73473 216.8967,-68.54663 74.1529,-0.55737 162.7432,-29.45642 274.6906,-58.66799 73.7831,-16.38675 135.5966,5.19822 185.7948,49.72436 154.5287,164.77562 254.0794,449.18399 365.4478,120.54203 M -130.27184,832.39448 C 278.85641,763.8673 752.23994,746.00897 1045.3214,671.88472 c 100.5371,-22.81257 179.744,-50.71636 229.5882,-88.93814 82.618,-60.43534 144.1717,-73.30116 216.465,-76.85003 73.3388,-2.50344 159.8188,-25.85851 271.2863,-52.01928 73.813,-14.88834 135.7943,8.14826 186.6523,52.55053 155.8527,159.20445 252.8964,438.33506 357.9546,117.90954 M -129.75597,841.83441 c 413.51217,-69.60672 891.97579,-87.7018 1187.93687,-163.92888 100.9283,-23.89262 180.5413,-53.31591 230.494,-93.34372 82.5803,-63.80849 144.345,-79.86761 216.0334,-85.15345 72.5247,-4.44949 156.8943,-22.26059 267.882,-45.37056 73.8429,-13.38993 135.9919,11.0983 187.5098,55.37669 157.1765,153.63329 251.7132,427.48613 350.4614,115.27707 M -129.2401,851.27434 c 417.89609,-70.68626 901.43981,-89.0181 1200.2805,-167.34801 101.3195,-24.97266 181.3385,-55.91545 231.3998,-97.7493 82.5427,-67.18162 144.5183,-86.43404 215.6017,-93.45685 71.7106,-6.39556 153.9698,-18.66267 264.4777,-38.72186 73.8729,-11.89151 136.1896,14.04835 188.3674,58.20286 158.5004,148.06213 250.5301,416.63721 342.9681,112.64459 M -128.72422,860.71426 c 422.27999,-71.76579 910.90381,-90.33438 1212.62412,-170.76712 101.7107,-26.05271 182.1358,-58.515 232.3056,-102.15488 82.505,-70.55477 144.6916,-93.00048 215.17,-101.76027 70.8965,-8.34161 151.0454,-15.06475 261.0734,-32.07314 73.9028,-10.3931 136.3873,16.99839 189.2249,61.02903 159.8243,142.49096 249.347,405.78828 335.475,110.0121 M -128.20835,870.15419 c 426.66391,-72.84533 920.36782,-91.65067 1224.96775,-174.18625 102.1019,-27.13275 182.933,-61.11454 233.2114,-106.56046 82.4673,-73.92791 144.865,-99.56691 214.7383,-110.06367 70.0825,-10.28768 148.1209,-11.46683 257.6691,-25.42443 73.9328,-8.89469 136.585,19.94843 190.0825,63.85519 161.1482,136.9198 248.1639,394.93935 327.9817,107.37963 M -127.69247,879.59412 c 431.04782,-73.92488 929.83183,-92.96696 1237.31137,-177.60537 102.4931,-28.21281 183.7302,-63.71409 234.1172,-110.96604 82.4296,-77.30105 145.0383,-106.13335 214.3067,-118.36709 69.2683,-12.23374 145.1964,-7.86891 254.2648,-18.77571 73.9626,-7.39628 136.7826,22.89847 190.94,66.68135 162.472,131.34864 246.9807,384.09043 320.4885,104.74715"
       inkscape:path-effect="#path-effect3827"
       inkscape:original-d="m -60.549678,259.48516 c 115.406086,3.80196 248.423128,1.8059 348.571418,68.57142 222.97762,148.65175 245.04305,516.47161 414.28571,685.71422 191.82391,191.8239 608.63205,-792.39187 628.57145,-634.28564 67.1521,532.47243 332.1651,1165.21314 860,294.28573 M -191.97825,1170.9137 c 574.73043,-98.5665 1269.88075,-99.5636 1471.42855,-288.57141 164.8593,-154.6021 250.4347,-115.3292 468.5715,-137.1428 295.8506,-29.5851 413.4182,543.88621 511.4285,171.4285"
       inkscape:connector-curvature="0"
       sodipodi:nodetypes="csssccssc"
       inkscape:export-xdpi="90"
       inkscape:export-ydpi="90" />
  </g>
  <g
     inkscape:groupmode="layer"
     id="layer3"
     inkscape:label="Layer#1"
     style="opacity:0.13553114;display:inline"
     sodipodi:insensitive="true">
    <path
       sodipodi:nodetypes="csssccssc"
       inkscape:connector-curvature="0"
       inkscape:original-d="M 2071.1927,870.3678 C 1935.1649,873.6236 1777.764,883.9744 1665.8419,821.1449 1416.6505,681.2565 1426.0505,302.12672 1242.3527,137.59017 1034.1451,-48.899765 446.59983,995.221 438.28443,832.9045 410.27975,286.25249 158.1014,-351.8003 -549.73524,582.0413 M 2314.4365,-80.678745 C 1625.6745,57.087985 804.00338,101.42179 547.56983,309.50241 337.81575,479.70552 240.46516,444.40894 -19.447509,480.56297 -371.95712,529.5975 -455.59158,-56.326695 -607.35245,335.0806"
       inkscape:path-effect="#path-effect3898"
       d="m 2209.4766,938.93182 c -136.0278,3.2558 -293.4287,13.6066 -405.3508,-49.2229 C 1721.062,843.07945 1666.7306,769.86761 1624.4023,686.88208 1539.7458,520.91102 1503.1018,315.84522 1380.6366,206.15419 1241.8316,81.827564 934.43199,504.43903 742.45789,751.9003 646.47084,875.63093 579.34017,955.57402 576.56837,901.46852 548.56369,354.81651 296.38534,-283.23628 -411.4513,650.60532 m 2620.8246,278.6153 c -141.3131,4.64565 -304.7408,15.55782 -420.2691,-44.91696 C 1705.4739,838.81586 1650.516,767.20121 1607.8853,686.09076 1522.9479,523.60682 1485.7465,321.85758 1363.8288,213.92574 1225.7982,91.561573 921.42753,508.30641 730.31479,752.58179 634.4369,874.7642 567.24801,953.21604 563.68438,899.2798 533.57766,358.47355 283.85319,-274.27564 -415.73323,650.67309 M 2209.27,919.50943 c -146.5984,6.0355 -316.053,17.50903 -435.1874,-40.61102 C 1689.8858,834.55227 1634.3014,764.53481 1591.3682,685.29944 1506.1499,526.30262 1468.3912,327.86994 1347.021,221.69728 1209.7648,101.29558 908.42307,512.17379 718.17169,753.26328 622.40296,873.89747 555.15584,950.85807 550.80038,897.09108 518.59164,362.13058 271.32103,-265.315 -420.01516,650.74087 M 2209.1667,909.79824 C 2057.2829,917.22359 1881.8015,929.25848 1759.061,873.49316 1674.2976,830.28868 1618.0869,761.86841 1574.8511,684.50812 1489.352,528.99842 1451.0359,333.8823 1330.2131,229.46883 1193.7314,111.02959 895.41861,516.04118 706.02858,753.94477 610.36902,873.03073 543.06368,948.5001 537.91639,894.90236 503.60561,365.78762 258.78888,-256.35437 -424.2971,650.80865 m 2633.3605,249.27839 c -157.1691,8.8152 -338.6773,21.41146 -465.024,-31.99914 C 1658.7095,826.02508 1601.8723,759.20201 1558.334,683.7168 1472.5541,531.69422 1433.6806,339.89466 1313.4053,237.24038 1177.698,120.7636 882.41415,519.90856 693.88548,754.62626 598.33508,872.164 530.97152,946.14212 525.03239,892.71364 488.61958,369.44466 246.25672,-247.39373 -428.57903,650.87642 M 2208.9601,890.37585 C 2046.5057,900.5809 1858.9706,913.73852 1729.0178,862.68265 1643.1213,821.76149 1585.6577,756.53561 1541.8169,682.92548 1455.7561,534.39002 1416.3252,345.90702 1296.5975,245.01193 1161.6646,130.49761 869.40969,523.77594 681.74238,755.30775 586.30114,871.29727 518.87935,943.78415 512.1484,890.52492 473.63356,373.10169 233.72457,-238.43309 -432.86096,650.9442 M 2208.8568,880.66465 C 2041.117,892.25956 1847.5551,905.97854 1713.9962,857.27739 1627.5332,817.4979 1569.4431,753.86921 1525.2998,682.13416 1438.9582,537.08582 1398.9699,351.91938 1279.7896,252.78348 1145.6312,140.23162 856.40523,527.64332 669.59928,755.98924 574.2672,870.43054 506.78719,941.42617 499.2644,888.3362 458.64753,376.75873 221.19241,-229.47245 -437.14289,651.01197 M 2208.7535,870.95346 c -173.0251,12.98475 -372.6138,27.2651 -509.7789,-19.08132 C 1611.9451,813.23431 1553.2285,751.20281 1508.7827,681.34284 1422.1603,539.78162 1381.6146,357.93174 1262.9818,260.55503 1129.5978,149.96562 843.40077,531.5107 657.45618,756.67073 562.23326,869.5638 494.69503,939.0682 486.38041,886.14748 443.6615,380.41577 208.66026,-220.51181 -441.42483,651.07975 M 2208.6502,861.24226 C 2030.3398,875.61687 1824.7242,890.45858 1683.953,846.46688 1596.3569,808.97072 1537.0139,748.53641 1492.2656,680.55152 1405.3624,542.47741 1364.2593,363.94411 1246.174,268.32658 1113.5644,159.69963 830.39631,535.37809 645.31307,757.35222 550.19932,868.69707 482.60286,936.71023 473.49641,883.95876 428.67548,384.07281 196.12811,-211.55117 -445.70676,651.14753 M 2208.5469,851.53107 C 2024.9511,867.29553 1813.3087,882.6986 1668.9314,841.06163 1580.7688,804.70713 1520.7993,745.87001 1475.7485,679.76019 1388.5644,545.17321 1346.9039,369.95647 1229.3661,276.09812 1097.531,169.43364 817.39185,539.24547 633.16997,758.03371 538.16538,867.83034 470.5107,934.35225 460.61242,881.77004 413.68945,387.72984 183.59595,-202.59053 -449.98869,651.2153 M 2208.4436,841.81988 c -188.8811,17.1543 -406.5504,33.11875 -554.5338,-6.1635 C 1565.1806,800.44354 1504.5847,743.20361 1459.2314,678.96887 1371.7665,547.86901 1329.5486,375.96883 1212.5583,283.86967 1081.4976,179.16765 804.38739,543.11285 621.02687,758.71519 526.13144,866.96361 458.41854,931.99428 447.72842,879.58132 398.70343,391.38688 171.0638,-193.62989 -454.27062,651.28308 m 2662.61092,180.8256 c -194.1665,18.54416 -417.8625,35.06997 -569.4521,-1.85756 C 1549.5925,796.17994 1488.3701,740.53721 1442.7144,678.17755 1354.9686,550.56481 1312.1933,381.98119 1195.7505,291.64122 1065.4642,188.90166 791.38293,546.98023 608.88377,759.39668 514.0975,866.09687 446.32637,929.63631 434.84443,877.3926 383.7174,395.04392 158.53164,-184.66926 -458.55255,651.35085 M 2208.237,822.39749 c -199.4518,19.93401 -429.1747,37.02118 -584.3704,2.44838 -89.8622,-32.92952 -151.711,-86.97506 -197.6693,-147.45964 C 1338.1706,553.26061 1294.838,387.99355 1178.9426,299.41277 1049.4308,198.63567 778.37847,550.84761 596.74066,760.07817 502.06356,865.23014 434.23421,927.27833 421.96043,875.20389 368.73137,398.70096 145.99949,-175.70862 -462.83449,651.41863 M 2208.1336,812.68629 c -204.737,21.32386 -440.4868,38.9724 -599.2886,6.75432 -90.4288,-31.78785 -152.904,-84.2362 -199.1648,-142.8457 -88.3075,-120.6385 -132.1975,-282.589 -247.5454,-369.41059 C 1033.3974,208.36967 765.37401,554.715 584.59756,760.75966 490.02962,864.36341 422.14205,924.92036 409.07644,873.01517 353.74535,402.35799 133.46734,-166.74798 -467.11642,651.4864 M 2208.0303,802.9751 c -210.0224,22.71371 -451.7989,40.92361 -614.2069,11.06026 -90.9953,-30.64619 -154.097,-81.49735 -200.6603,-138.23177 C 1304.5748,558.65221 1260.1273,400.01827 1145.327,314.95587 1017.364,218.10368 752.36955,558.58238 572.45446,761.44115 477.99568,863.49668 410.04988,922.56238 396.19245,870.82645 338.75932,406.01503 120.93518,-157.78734 -471.39835,651.55418 M 2207.927,793.26391 c -215.3077,24.10356 -463.1111,42.87482 -629.1252,15.3662 -91.5619,-29.50453 -155.29,-78.75849 -202.1558,-133.61784 C 1287.7768,561.34801 1242.772,406.03063 1128.5191,322.72741 1001.3306,227.83769 739.36509,562.44976 560.31136,762.12264 465.96174,862.62994 397.95772,920.20441 383.30845,868.63773 323.77329,409.67207 108.40303,-148.8267 -475.68028,651.62196 M 2207.8237,783.55271 c -220.593,25.49341 -474.4233,44.82604 -644.0435,19.67214 -92.1284,-28.36286 -156.483,-76.01963 -203.6513,-129.0039 C 1270.9789,564.04381 1225.4167,412.04299 1111.7113,330.49896 985.29715,237.5717 726.36063,566.31714 548.16825,762.80413 453.9278,861.76321 385.86556,917.84644 370.42446,866.44901 308.78727,413.32911 95.870873,-139.86606 -479.96221,651.68973 M 2207.7204,773.84152 C 1981.842,800.72478 1721.985,820.61877 1548.7586,797.8196 1456.0637,770.59839 1391.0826,724.53882 1343.6118,673.42963 1254.181,566.73961 1208.0614,418.05535 1094.9035,338.27051 969.26375,247.30571 713.35617,570.18453 536.02515,763.48562 441.89385,860.89648 373.7734,915.48846 357.54046,864.26029 293.80124,416.98614 83.338719,-130.90542 -484.24415,651.75751 M 2207.6171,764.13032 C 1976.4534,792.40343 1710.5695,812.85879 1533.737,792.41434 1440.4755,766.3348 1374.868,721.87242 1327.0947,672.63831 1237.3831,569.4354 1190.706,424.06771 1078.0956,346.04206 953.23035,257.03972 700.35171,574.05191 523.88205,764.16711 429.85991,860.02975 361.68123,913.13049 344.65647,862.07157 278.81521,420.64318 70.806564,-121.94478 -488.52608,651.82528 M 2207.5138,754.41913 c -236.449,29.66296 -508.3598,50.67968 -688.7984,32.58996 -93.828,-24.93788 -160.062,-67.80307 -208.1378,-115.1621 C 1220.5851,572.1312 1173.3507,430.08007 1061.2878,353.81361 937.19695,266.77373 687.34725,577.91929 511.73895,764.8486 417.82597,859.16301 349.58907,910.77251 331.77247,859.88285 263.82919,424.30022 58.27441,-112.98414 -492.80801,651.89306 m 2700.21851,92.81487 c -241.7344,31.05282 -519.6719,52.6309 -703.7167,36.89591 -94.3946,-23.79622 -161.255,-65.06422 -209.6333,-110.54817 C 1203.7872,574.827 1155.9954,436.09243 1044.48,361.58516 921.16355,276.50773 674.34278,581.78667 499.59585,765.53009 405.79203,858.29628 337.49691,908.41454 318.88848,857.69413 248.84316,427.95726 45.742256,-104.02351 -497.08994,651.96084 m 2704.39714,83.0359 c -247.0197,32.44266 -530.9841,54.58211 -718.635,41.20184 C 1393.7111,753.54403 1326.2243,713.87322 1277.5435,670.26435 1186.9893,577.5228 1138.6401,442.10479 1027.6721,369.35671 905.13014,286.24174 661.33832,585.65405 487.45274,766.21158 393.75809,857.42955 325.40474,906.05657 306.00448,855.50541 233.85713,431.61429 33.210102,-95.062867 -501.37188,652.02861 m 2708.57578,73.25694 c -252.3051,33.83251 -542.2963,56.53332 -733.5533,45.50778 C 1378.123,749.28044 1310.0097,711.20682 1261.0264,669.47303 1170.1913,580.2186 1121.2848,448.11715 1010.8643,377.12825 889.09674,295.97575 648.33386,589.52144 475.30964,766.89307 381.72415,856.56282 313.31258,903.69859 293.12049,853.31669 218.87111,435.27133 20.677948,-86.102228 -505.65381,652.09639 M 2207.1006,715.57435 C 1949.5102,750.79672 1653.4921,774.0589 1458.629,765.38807 1362.5348,745.01685 1293.7951,708.54042 1244.5093,668.68171 1153.3934,582.9144 1103.9294,454.12951 994.05648,384.8998 873.06334,305.70976 635.3294,593.38882 463.16654,767.57456 369.69021,855.69608 301.22042,901.34062 280.23649,851.12797 203.88508,438.92837 8.1457934,-77.14159 -509.93574,652.16416 m 2716.93304,53.699 c -262.8757,36.61221 -564.9206,60.43576 -763.3899,54.11966 -96.6607,-19.22957 -166.0269,-54.1088 -215.6152,-92.09244 C 1136.5955,585.6102 1086.5741,460.14187 977.24865,392.67135 857.02994,315.44377 622.32494,597.2562 451.02344,768.25605 357.65627,854.82935 289.12825,898.98264 267.3525,848.93925 188.89905,442.58541 -4.3863608,-68.180951 -514.21767,652.23194 M 2206.894,696.15196 c -268.1611,38.00207 -576.2328,62.38698 -778.3082,58.42561 -97.2273,-18.08791 -167.2199,-51.36995 -217.1107,-87.47851 C 1119.7975,588.306 1069.2188,466.15423 960.44082,400.4429 840.99654,325.17778 609.32048,601.12358 438.88033,768.93754 345.62233,853.96262 277.03609,896.62467 254.46851,846.75053 173.91303,446.24244 -16.918515,-59.220312 -518.4996,652.29972 m 2725.2903,34.14105 c -273.4464,39.39192 -587.545,64.33819 -793.2265,62.73154 C 1315.7704,732.22607 1245.1513,700.54122 1194.958,666.30774 1102.9996,591.0018 1051.8635,472.1666 943.63298,408.21445 824.96314,334.91179 596.31602,604.99096 426.73723,769.61903 333.58839,853.09589 264.94393,894.2667 241.58451,844.56181 158.927,449.89948 -29.450669,-50.259673 -522.78154,652.36749 m 2729.46894,24.36209 c -278.7317,40.78176 -598.8571,66.2894 -808.1448,67.03748 -98.3603,-15.80458 -169.6059,-45.89224 -220.1017,-78.25064 C 1086.2017,593.6976 1034.5081,478.17896 926.82515,415.986 808.92974,344.64579 583.31156,608.85835 414.59413,770.30052 321.55445,852.22915 252.85176,891.90872 228.70052,842.3731 143.94098,453.55652 -41.982823,-41.299034 -527.06347,652.43527 M 2206.584,667.01838 C 1922.567,709.19 1596.4148,735.259 1383.521,738.3618 1284.5941,723.69889 1212.7221,695.20842 1161.9238,664.7251 1069.4038,596.39339 1017.1528,484.19132 910.01732,423.75755 792.89634,354.3798 570.3071,612.72573 402.45103,770.98201 309.52051,851.36242 240.7596,889.55075 215.81652,840.18438 128.95495,457.21356 -54.514978,-32.338395 -531.3454,652.50304 m 2737.8261,4.80415 c -289.3023,43.56147 -621.4814,70.19183 -837.9813,75.64936 C 1269.006,719.4353 1196.5076,692.54202 1145.4067,663.93378 1052.6058,599.08919 999.7975,490.20368 893.20948,431.52909 776.86293,364.11381 557.30264,616.59311 390.30793,771.6635 297.48657,850.49569 228.66744,887.19278 202.93253,837.99566 113.96892,460.87059 -67.047132,-23.377757 -535.62733,652.57082 m 2742.00473,-4.97483 c -294.5876,44.95132 -632.7935,72.14305 -852.8996,79.9553 C 1253.4179,715.1717 1180.293,689.87562 1128.8896,663.14246 1035.8079,601.78499 982.44218,496.21604 876.40165,439.30064 760.82953,373.84782 544.29818,620.46049 378.16482,772.34499 285.45263,849.62895 216.57527,884.8348 190.04853,835.80694 98.982896,464.52763 -79.579286,-14.417118 -539.90926,652.6386 M 2206.2741,637.8848 c -299.873,46.34117 -644.1057,74.09426 -867.8179,84.26124 -100.6265,-11.23793 -174.3778,-34.93682 -226.0836,-59.7949 C 1019.01,604.48079 965.08686,502.2284 859.59382,447.07219 744.79613,383.58183 531.29372,624.32787 366.02172,773.02648 273.41869,848.76222 204.48311,882.47683 177.16454,833.61822 83.99687,468.18467 -92.11144,-5.456479 -544.1912,652.70637 m 2750.362,-24.53277 c -305.1583,47.73103 -655.4179,76.04548 -882.7362,88.56719 -101.193,-10.09627 -175.5708,-32.19797 -227.5791,-55.18097 C 1002.212,607.17659 947.73154,508.24076 842.78599,454.84374 728.76273,393.31584 518.28926,628.19526 353.87862,773.70797 261.38475,847.89549 192.39095,880.11885 164.28054,831.4295 69.010843,471.84171 -104.64359,3.5041598 -548.47313,652.77415 M 2206.0675,618.46241 c -310.4437,49.12087 -666.73,77.99669 -897.6545,92.87312 -101.7596,-8.9546 -176.7638,-29.45911 -229.0746,-50.56703 C 985.4141,609.87239 930.37621,514.25312 825.97815,462.61529 712.72933,403.04984 505.2848,632.06264 341.73552,774.38946 249.35081,847.02876 180.29878,877.76088 151.39655,829.24078 54.024817,475.49874 -117.17575,12.464799 -552.75506,652.84192 m 2758.71926,-44.0907 c -315.729,50.51072 -678.0422,79.9479 -912.5728,97.17906 -102.3261,-7.81294 -177.9568,-26.72026 -230.5701,-45.9531 C 968.61617,612.56819 913.02089,520.26548 809.17032,470.38684 696.69593,412.78385 492.28034,635.93002 329.59241,775.07095 237.31686,846.16202 168.20662,875.40291 138.51255,827.05206 39.03879,479.15578 -129.7079,21.425437 -557.03699,652.9097 M 2205.8609,599.04002 c -321.0143,51.90058 -689.3544,81.89912 -927.4911,101.485 C 1175.4772,693.85375 1099.22,676.54362 1046.3042,659.18586 951.81824,615.26399 895.66557,526.27784 792.36249,478.15838 680.66253,422.51786 479.27588,639.7974 317.44931,775.75244 225.28292,845.29529 156.11446,873.04493 125.62856,824.86334 24.052764,482.81282 -142.24006,30.386076 -561.31893,652.97747 M 2205.7576,589.32883 C 1879.4579,642.61925 1505.091,673.17917 1263.3482,695.11977 1159.889,689.59016 1083.0054,673.87722 1029.7871,658.39454 935.02031,617.95979 878.31025,532.2902 775.55465,485.92993 664.62912,432.25187 466.27142,643.66478 305.30621,776.43393 213.24898,844.42856 144.02229,870.68696 112.74456,822.67462 9.0667372,486.46986 -154.77221,39.346715 -565.60086,653.04525 M 2205.6543,579.61763 c -331.585,54.68028 -711.9787,85.80156 -957.3277,110.09689 -104.0257,-4.38796 -181.5358,-18.5037 -235.0566,-32.1113 C 918.22238,620.65558 860.95493,538.30256 758.74682,493.70148 648.59572,441.98588 453.26696,647.53217 293.16311,777.11542 201.21504,843.56183 131.93013,868.32898 99.86057,820.4859 -5.9192893,490.12689 -167.30437,48.307354 -569.88279,653.11303 M 2205.551,569.90644 C 1868.6807,625.97656 1482.2601,657.65921 1233.305,684.30926 1128.7127,681.06297 1050.5763,668.54442 996.75292,656.8119 901.42445,623.35138 843.5996,544.31492 741.93899,501.47303 632.56232,451.71989 440.2625,651.39955 281.02,777.79691 189.1811,842.69509 119.83797,865.97101 86.976575,818.29718 -20.905316,493.78393 -179.83652,57.267993 -574.16472,653.1808 M 2205.4477,560.19525 C 1863.292,617.65522 1470.8446,649.89923 1218.2834,678.90401 1113.1246,676.79938 1034.3617,665.87803 980.23583,656.02058 884.62652,626.04718 826.24428,550.32728 725.13115,509.24458 616.52892,461.4539 427.25804,655.26693 268.8769,778.4784 177.14716,841.82836 107.7458,863.61304 74.092581,816.10846 -35.891342,497.44097 -192.36867,66.228632 -578.44665,653.24858 M 2205.3444,550.48405 c -347.441,58.84983 -745.9152,91.6552 -1002.0826,123.0147 -105.7253,-0.96296 -185.1147,-10.28712 -239.54306,-18.2695 C 867.82859,628.74298 808.88896,556.33964 708.32332,517.01613 600.49552,471.1879 414.25358,659.13431 256.7338,779.15988 165.11322,840.96163 95.653641,861.25506 61.208586,813.91974 -50.877369,501.09801 -204.90083,75.18927 -582.72859,653.31635 M 2205.2411,540.77286 C 1852.5148,601.01253 1448.0137,634.37927 1188.2402,668.0935 1081.9483,668.2722 1001.9325,660.54523 947.20165,654.43793 851.03066,631.43878 791.53364,562.352 691.51549,524.78768 584.46212,480.92191 401.24912,663.00169 244.5907,779.84137 153.07928,840.0949 83.561478,858.89709 48.324592,811.73102 -65.863395,504.75504 -217.43298,84.149909 -587.01052,653.38413 M 2205.1377,531.06166 c -358.0116,61.62953 -768.5395,95.55763 -1031.9191,131.62659 -106.8584,1.32036 -187.5007,-4.80942 -242.53404,-9.04164 C 834.23273,634.13458 774.17832,568.36436 674.70766,532.55922 568.42872,490.65592 388.24466,666.86908 232.4476,780.52286 141.04534,839.22816 71.469314,856.53911 35.440597,809.54231 -80.849422,508.41208 -229.96514,93.110548 -591.29245,653.45191 M 2205.0344,521.35047 c -363.2969,63.01938 -779.8516,97.50884 -1046.8374,135.93252 -107.425,2.46202 -188.69368,-2.07056 -244.02953,-4.4277 C 817.4348,636.83038 756.82299,574.37673 657.89982,540.33077 552.39531,500.38993 375.2402,670.73646 220.30449,781.20435 129.0114,838.36143 59.377151,854.18114 22.556602,807.35359 -95.835448,512.06912 -242.49729,102.07119 -595.57438,653.51968 M 2204.9311,511.63927 c -368.5823,64.40923 -791.1638,99.46006 -1061.7557,140.23847 -107.9915,3.60368 -189.88667,0.66829 -245.52502,0.18623 C 800.63687,639.52618 739.46767,580.38909 641.09199,548.10232 536.36191,510.12394 362.23574,674.60384 208.16139,781.88584 116.97746,837.4947 47.284988,851.82317 9.6726078,805.16487 -110.82147,515.72616 -255.02944,111.03183 -599.85631,653.58746 M 2204.8278,501.92808 c -373.8676,65.79908 -802.476,101.41127 -1076.674,144.5444 -108.558,4.74535 -191.07966,3.40715 -247.02051,4.80017 C 783.83894,642.22198 722.11235,586.40145 624.28416,555.87387 520.32851,519.85795 349.23128,678.47122 196.01829,782.56733 104.94352,836.62797 35.192825,849.46519 -3.2113868,802.97615 -125.8075,519.38319 -267.5616,119.99246 -604.13825,653.65523 M 2204.7245,492.21689 c -379.1529,67.18893 -813.7881,103.36248 -1091.5923,148.85034 -109.1246,5.88701 -192.27265,6.146 -248.516,9.4141 C 767.04101,644.91778 704.75703,592.41381 607.47632,563.64542 504.29511,529.59196 336.22682,682.3386 183.87519,783.24882 92.909578,835.76123 23.100661,847.10722 -16.095381,800.78743 -140.79353,523.04023 -280.09375,128.9531 -608.42018,653.72301 M 2204.6212,482.50569 c -384.4383,68.57878 -825.1003,105.3137 -1106.5106,153.15629 -109.69112,7.02867 -193.46564,8.88485 -250.01149,14.02803 C 750.24308,647.61357 687.40171,598.42617 590.66849,571.41697 488.26171,539.32596 323.22236,686.20599 171.73208,783.93031 80.875638,834.8945 11.008498,844.74925 -28.979376,798.59871 -155.77955,526.69727 -292.62591,137.91374 -612.70211,653.79079 M 2204.5179,472.7945 C 1814.7943,542.76313 1368.1054,580.05941 1083.089,630.25672 972.83134,638.42706 888.43037,641.88043 831.58202,648.89869 733.44515,650.30937 670.04638,604.43853 573.86066,579.18852 472.22831,549.05997 310.2179,690.07337 159.58898,784.6118 68.841697,834.02777 -1.083665,842.39127 -41.863371,796.40999 -170.76558,530.35431 -305.15806,146.87438 -616.98404,653.85856 M 2204.4146,463.0833 c -395.0089,71.35849 -847.7247,109.21614 -1136.3472,161.76817 -110.8242,9.312 -195.85161,14.36256 -253.00247,23.2559 -98.41771,4.8978 -162.37387,-37.65648 -258.01211,-61.14731 C 456.19491,558.79398 297.21344,693.94075 147.44588,785.29329 56.807756,833.16104 -13.175828,840.0333 -54.747365,794.22127 -185.75161,534.01134 -317.69022,155.83502 -621.26598,653.92634 M 2204.3113,453.37211 C 1804.017,526.12044 1345.2745,564.53946 1053.0458,619.44621 941.65506,629.89987 856.0012,636.54763 798.54784,647.31605 699.84929,655.70097 635.33574,616.46325 540.24499,594.73161 440.16151,568.52799 284.20898,697.80813 135.30278,785.97478 44.773816,832.2943 -25.267992,837.67532 -67.63136,792.03255 -200.73763,537.66838 -330.22237,164.79566 -625.54791,653.99411 M 2204.208,443.66092 C 1798.6284,517.7991 1333.859,556.77948 1038.0242,614.04096 926.06692,625.63628 839.78661,633.88123 782.03075,646.52473 683.05136,658.39677 617.98042,622.47561 523.43716,602.50316 424.1281,578.262 271.20452,701.67552 123.15967,786.65627 32.739875,831.42757 -37.360155,835.31735 -80.515354,789.84383 -215.72366,541.32542 -342.75452,173.7563 -629.82984,654.06189 M 2204.1047,433.94972 C 1793.2398,509.47776 1322.4435,549.0195 1023.0026,608.6357 910.47878,621.37269 823.57202,631.21483 765.51366,645.73341 666.25343,661.09257 600.6251,628.48797 506.62933,610.27471 408.0947,587.99601 258.20006,705.5429 111.01657,787.33776 20.705935,830.56084 -49.452318,832.95938 -93.399349,787.65511 -230.70969,544.98246 -355.28668,182.71694 -634.11177,654.12967 M 2204.0014,424.23853 C 1787.8511,501.15641 1311.0281,541.25952 1007.981,603.23045 894.89064,617.1091 807.35743,628.54843 748.99657,644.94209 649.4555,663.78837 583.26978,634.50033 489.82149,618.04626 392.0613,597.73001 245.1956,709.41028 98.87347,788.01925 8.6719941,829.69411 -61.544481,830.6014 -106.28334,785.46639 -245.69571,548.63949 -367.81883,191.67757 -638.3937,654.19744 M 2203.8981,414.52733 C 1782.4625,492.83507 1299.6126,533.49954 992.95936,597.8252 879.3025,612.84551 791.14284,625.88203 732.47948,644.15077 632.65757,666.48417 565.91445,640.51269 473.01366,625.81781 376.0279,607.46402 232.19114,713.27766 86.730367,788.70074 -3.3619465,828.82737 -73.636644,828.24343 -119.16734,783.27767 -260.68174,552.29653 -380.35099,200.63821 -642.67564,654.26522 M 2203.7948,404.81614 c -426.7209,79.69759 -915.5977,120.92342 -1225.85704,187.6038 -114.2234,16.16198 -203.0095,30.79569 -261.97537,50.9395 -100.10275,25.82053 -167.40326,3.16561 -259.75656,-9.77009 C 359.9945,617.19803 219.18668,717.14504 74.587265,789.38223 -15.395887,827.96064 -85.728808,825.88545 -132.05133,781.08895 -275.66777,555.95357 -392.88314,209.59885 -646.95757,654.33299 M 2203.6914,395.10495 C 1771.6852,476.19238 1276.7817,517.97958 962.91615,587.01469 848.12622,604.31832 758.71367,620.54923 699.4453,642.56812 599.06171,671.87577 531.20381,652.53741 439.39799,641.3609 343.9611,626.93204 206.18222,721.01243 62.444163,790.06372 -27.429828,827.09391 -97.820971,823.52748 -144.93533,778.90023 -290.65379,559.61061 -405.4153,218.55949 -651.2395,654.40077 M 2203.5881,385.39375 C 1766.2966,467.87104 1265.3662,510.2196 947.89455,581.60943 832.53808,600.05473 742.49908,617.88283 682.92821,641.7768 582.26378,674.57156 513.84849,658.54977 422.59016,649.13245 327.9277,636.66605 193.17776,724.87981 50.301061,790.74521 -39.463768,826.22718 -109.91313,821.16951 -157.81932,776.71152 -305.63982,563.26764 -417.94745,227.52013 -655.52143,654.46854 M 2203.4848,375.68256 C 1760.9079,459.5497 1253.9507,502.45962 932.87295,576.20418 816.94994,595.79114 726.28449,615.21643 666.41112,640.98548 565.46585,677.26736 496.49317,664.56213 405.78233,656.904 311.89429,646.40006 180.1733,728.74719 38.157958,791.4267 -51.497709,825.36044 -122.0053,818.81153 -170.70332,774.5228 -320.62585,566.92468 -430.4796,236.48077 -659.80336,654.53632 M 2203.3815,365.97136 C 1755.5193,451.22835 1242.5353,494.69964 917.85135,570.79893 801.3618,591.52755 710.0699,612.55003 649.89403,640.19416 548.66792,679.96316 479.13784,670.57449 388.97449,664.67555 295.86089,656.13407 167.16884,732.61457 26.014856,792.10819 -63.531649,824.49371 -134.09746,816.45356 -183.58731,772.33408 -335.61187,570.58172 -443.01176,245.44141 -664.0853,654.6041 M 2203.2782,356.26017 C 1750.1307,442.90701 1231.1198,486.93966 902.82975,565.39367 785.77366,587.26396 693.85531,609.88363 633.37694,639.40284 531.86999,682.65896 461.78252,676.58685 372.16666,672.4471 279.82749,665.86807 154.16438,736.48195 13.871754,792.78968 -75.56559,823.62698 -146.18962,814.09558 -196.47131,770.14536 -350.5979,574.23875 -455.54391,254.40205 -668.36723,654.67187 M 2203.1749,346.54897 C 1744.742,434.58566 1219.7043,479.17968 887.80815,559.98842 770.18552,583.00037 677.64072,607.21723 616.85985,638.61152 515.07206,685.35476 444.4272,682.59922 355.35883,680.21865 263.79409,675.60208 141.15992,740.34934 1.7286513,793.47117 -87.59953,822.76024 -158.28179,811.73761 -209.3553,767.95664 -365.58392,577.89579 -468.07607,263.36269 -672.64916,654.73965 M 2203.0716,336.83778 C 1739.3534,426.26432 1208.2888,471.41971 872.78655,554.58316 754.59738,578.73678 661.42614,604.55083 600.34276,637.8202 498.27413,688.05056 427.07188,688.61158 338.551,687.99019 247.76069,685.33609 128.15546,744.21672 -10.414451,794.15266 -99.633471,821.89351 -170.37395,809.37964 -222.23929,765.76792 -380.56995,581.55283 -480.60822,272.32332 -676.93109,654.80742 M 2202.9683,327.12659 C 1733.9648,417.94298 1196.8734,463.65973 857.76494,549.17791 739.00924,574.47318 645.21155,601.88444 583.82567,637.02888 481.4762,690.74636 409.71656,694.62394 321.74316,695.76174 231.72729,695.0701 115.151,748.0841 -22.557553,794.83415 -111.66741,821.02678 -182.46611,807.02166 -235.12329,763.5792 -395.55598,585.20987 -493.14037,281.28396 -681.21303,654.8752 M 2202.865,317.41539 C 1728.5761,409.62163 1185.4579,455.89975 842.74334,543.77266 723.4211,570.20959 628.99696,599.21804 567.30858,636.23756 464.67827,693.44216 392.36123,700.6363 304.93533,703.53329 215.69389,704.80411 102.14654,751.95148 -34.700656,795.51564 -123.70135,820.16005 -194.55828,804.66369 -248.00728,761.39048 -410.542,588.8669 -505.67253,290.2446 -685.49496,654.94298 M 2202.7617,307.7042 C 1723.1875,401.30029 1174.0424,448.13977 827.72174,538.3674 707.83297,565.946 612.78237,596.55164 550.79149,635.44624 447.88034,696.13796 375.00591,706.64866 288.1275,711.30484 199.66048,714.53812 89.142081,755.81886 -46.843758,796.19713 -135.73529,819.29331 -206.65044,802.30572 -260.89128,759.20176 -425.52803,592.52394 -518.20468,299.20524 -689.77689,655.01075 M 2202.6584,297.993 C 1717.7989,392.97895 1162.627,440.37979 812.70014,532.96215 692.24483,561.68241 596.56778,593.88524 534.2744,634.65492 c -103.19199,64.17883 -176.62381,78.0061 -262.95474,84.42147 -87.69258,5.19574 -195.182039,40.60986 -330.30652,77.80223 -88.78237,21.54796 -159.75574,3.06912 -214.78841,-39.86558 C -440.51406,596.18098 -530.73684,308.16588 -694.05882,655.07853 M 2202.5551,288.28181 C 1712.4102,384.6576 1151.2115,432.61981 797.67854,527.55689 676.65669,557.41882 580.35319,591.21884 517.75731,633.8636 414.28448,701.52955 340.29527,718.67338 254.51183,726.84794 167.59368,734.00613 63.133161,763.55363 -71.129962,797.56011 -159.80317,817.55985 -230.83477,797.58977 -286.65927,754.82432 -455.50008,599.83802 -543.26899,317.12652 -698.34075,655.1463 M 2202.4518,278.57062 C 1707.0216,376.33626 1139.796,424.85983 782.65694,522.15164 661.06855,553.15523 564.13861,588.55244 501.24022,633.07228 397.48655,704.22535 322.93995,724.68574 237.704,734.61948 151.56028,743.74014 50.128701,767.42101 -83.273065,798.2416 -171.83711,816.69312 -242.92693,795.23179 -299.54326,752.6356 -470.48611,603.49505 -555.80115,326.08716 -702.62269,655.21408 M 2202.3485,268.85942 C 1701.6329,368.01492 1128.3806,417.09985 767.63533,516.74639 645.48041,548.89163 547.92402,585.88604 484.72313,632.28096 380.68862,706.92115 305.58462,730.6981 220.89617,742.39103 135.52688,753.47415 37.124241,771.28839 -95.416167,798.92308 -183.87106,815.82638 -255.01909,792.87382 -312.42726,750.44688 -485.47214,607.15209 -568.3333,335.0478 -706.90462,655.28186 M 2202.2451,259.14823 C 1696.2443,359.69357 1116.9651,409.33987 752.61373,511.34113 629.89227,544.62804 531.70943,583.21964 468.20604,631.48964 363.89069,709.61695 288.2293,736.71046 204.08833,750.16258 c -84.59485,13.04558 -179.968549,24.99319 -311.6476,49.44199 -88.34573,15.35508 -159.55199,-9.08872 -217.75198,-51.34641 -175.14691,-137.44903 -255.5542,-404.24973 -385.8753,-92.90853 M 2202.1418,249.43703 C 1690.8557,351.37223 1105.5496,401.57989 737.59213,505.93588 614.30413,540.36445 515.49484,580.55324 451.68895,630.69831 347.09276,712.31275 270.87398,742.72282 187.2805,757.93413 103.46008,772.94217 11.115321,779.02316 -119.70237,800.28606 -207.93894,814.09292 -279.20342,788.15787 -338.19525,746.06944 -515.44419,614.46617 -593.39761,352.96907 -715.46848,655.41741 M 2202.0385,239.72584 C 1685.467,343.05089 1094.1342,393.81991 722.57053,500.53062 598.71599,536.10086 499.28025,577.88684 435.17187,629.90699 330.29482,715.00855 253.51866,748.73518 170.47267,765.70568 87.426675,782.67618 -1.8891395,782.89054 -131.84547,800.96755 -219.97288,813.22619 -291.29558,785.7999 -351.07924,743.88072 -530.43022,618.1232 -605.92976,361.92971 -719.75042,655.48518"
       style="opacity:0.54212455;fill:none;stroke:url(#linearGradient3896);stroke-width:1.10300004;stroke-linecap:butt;stroke-linejoin:miter;stroke-miterlimit:4;stroke-opacity:1;stroke-dasharray:none;display:inline"
       id="path3894" />
  </g>
</svg>
