<?xml version="1.0" encoding="UTF-8" standalone="no"?>
<!-- Generator: Adobe Illustrator 15.0.2, SVG Export Plug-In . SVG Version: 6.00 Build 0)  -->

<svg
   xmlns:dc="http://purl.org/dc/elements/1.1/"
   xmlns:cc="http://creativecommons.org/ns#"
   xmlns:rdf="http://www.w3.org/1999/02/22-rdf-syntax-ns#"
   xmlns:svg="http://www.w3.org/2000/svg"
   xmlns="http://www.w3.org/2000/svg"
   xmlns:xlink="http://www.w3.org/1999/xlink"
   xmlns:sodipodi="http://sodipodi.sourceforge.net/DTD/sodipodi-0.dtd"
   xmlns:inkscape="http://www.inkscape.org/namespaces/inkscape"
   version="1.1"
   id="Layer_1"
   x="0px"
   y="0px"
   width="239.47078"
   height="123.80968"
   viewBox="0 0 239.47078 123.80968"
   enable-background="new 0 0 792 612"
   xml:space="preserve"
   inkscape:version="0.48.2 r9819"
   sodipodi:docname="logo.svg"><metadata
   id="metadata33"><rdf:RDF><cc:Work
       rdf:about=""><dc:format>image/svg+xml</dc:format><dc:type
         rdf:resource="http://purl.org/dc/dcmitype/StillImage" /><dc:title /></cc:Work></rdf:RDF></metadata><defs
   id="defs31">
	
	
	
	
	
	
	
<linearGradient
   inkscape:collect="always"
   xlink:href="#linearGradient5612-3"
   id="linearGradient156896"
   gradientUnits="userSpaceOnUse"
   x1="638.18335"
   y1="378.62103"
   x2="1309.0907"
   y2="471.55508"
   gradientTransform="translate(5.42753e-5,0.714289)" /><linearGradient
   id="linearGradient5612-3"><stop
     id="stop5614-4"
     offset="0"
     style="stop-color:#ffffff;stop-opacity:0;" /><stop
     style="stop-color:#ffffff;stop-opacity:0.86274511;"
     offset="0.5"
     id="stop156670" /><stop
     id="stop5616-1"
     offset="1"
     style="stop-color:#ffffff;stop-opacity:0;" /></linearGradient><linearGradient
   y2="471.55508"
   x2="1309.0907"
   y1="378.62103"
   x1="638.18335"
   gradientTransform="translate(-798.60577,-356.6998)"
   gradientUnits="userSpaceOnUse"
   id="linearGradient6243"
   xlink:href="#linearGradient5612-3"
   inkscape:collect="always" /></defs><sodipodi:namedview
   pagecolor="#ffffff"
   bordercolor="#666666"
   borderopacity="1"
   objecttolerance="10"
   gridtolerance="10"
   guidetolerance="10"
   inkscape:pageopacity="0"
   inkscape:pageshadow="2"
   inkscape:window-width="1434"
   inkscape:window-height="826"
   id="namedview29"
   showgrid="false"
   fit-margin-top="5"
   fit-margin-left="5"
   fit-margin-right="5"
   fit-margin-bottom="5"
   inkscape:zoom="1.1276736"
   inkscape:cx="-110.51794"
   inkscape:cy="-79.492472"
   inkscape:window-x="1920"
   inkscape:window-y="124"
   inkscape:window-maximized="0"
   inkscape:current-layer="layer2" />

<g
   inkscape:groupmode="layer"
   id="layer1"
   inkscape:label="background"
   style="display:none"
   sodipodi:insensitive="true"
   transform="translate(-41.658832,-33.757565)"><rect
     style="opacity:0.65;fill:#008000;fill-opacity:1"
     id="rect3139"
     width="407.03268"
     height="257.16663"
     x="-44.339077"
     y="-16.072052" /></g><g
   inkscape:groupmode="layer"
   id="layer2"
   inkscape:label="foreground"
   transform="translate(-41.658832,-33.757565)"><path
     clip-rule="evenodd"
     d="m 252.32852,58.440187 c -2.5352,-0.0913 -4.9388,0.80433 -6.7757,2.52714 -1.837,1.72281 -2.9206,4.05659 -2.9971,6.583739 -0.176,5.22213 3.9129,9.61576 9.1229,9.80778 2.5339,0.0765 4.9496,-0.8191 6.7973,-2.54191 1.845,-1.73087 2.9058,-4.06599 2.9863,-6.58373 0.1759,-5.220799 -3.9115,-9.607709 -9.1337,-9.793019 z m 1.5469,10.344909 c -2.3203,0 -4.1949,-1.25552 -4.1949,-2.794359 0,-1.55362 1.8746,-2.80242 4.1949,-2.80242 2.3204,0 4.2003,1.2488 4.2003,2.80242 0,1.538839 -1.8813,2.794359 -4.2003,2.794359 z m 20.7892,12.09591 c 0.6164,-0.40687 1.0689,-0.74391 1.2596,-0.81911 l 0.2054,-0.32092 c -0.521,-3.27643 -5.4048,-19.163059 -9.0988,-22.983309 -1.0178,-1.04067 -1.8329,-2.06657 -3.4832,-3.03204 -13.3635,-7.786881 -45.06691,-12.486671 -46.55211,-12.701511 l -0.2524,0.0698 -0.095,0.22962 c 0,0 -0.1222,6.568961 -0.141,7.303471 -3.2374,-1.087661 -26.7753,-8.690581 -48.8401,-9.455971 -18.71186,-0.65797 -45.96258,-3.07769 -82.071725,19.125451 l -1.06753,0.66468 c -16.98906,10.597359 -28.718391,23.665459 -34.849601,38.847119 -1.92289,4.777664 -4.50911,15.557634 -1.94572,25.701124 1.10378,4.43391 3.16229,8.88931 5.93785,12.87742 6.27355,9.01151 16.801081,14.99098 28.135621,16.00076 16.004801,1.43143 28.123545,-5.75657 32.433925,-19.21676 2.96355,-9.28678 0,-22.91348 -11.36141,-29.86514 -9.241124,-5.658544 -19.177825,-4.372144 -24.942455,-0.55861 -5.00057,3.31537 -7.83253,8.46768 -7.78285,14.12623 0.11548,10.0374 8.76175,15.37233 14.9789,15.38845 1.80606,0 3.62018,-0.31422 5.665261,-0.98025 0.7278,-0.22156 1.41262,-0.49683 2.16727,-0.96412 l 0.23634,-0.13831 0.14905,-0.0994 -0.0497,0.0295 c 1.41665,-0.96547 2.26933,-2.5352 2.26933,-4.21906 0,-0.45924 -0.0644,-0.92519 -0.19605,-1.39383 -0.73451,-2.54191 -3.24554,-4.07941 -5.847881,-3.60541 l -0.35181,0.0833 -0.47535,0.14502 -0.6902,0.23767 c -1.43142,0.35182 -2.50297,0.3827 -2.73259,0.39076 -0.7278,-0.047 -4.30635,-1.11855 -4.30635,-5.03818 v -0.0537 c 0,-1.43948 0.5774,-2.44926 0.89565,-3.00115 1.11317,-1.74563 4.16132,-3.45904 8.279681,-3.10052 5.40476,0.4673 9.30155,3.23883 11.882414,8.46768 2.39555,4.86092 1.76846,10.8404 -1.61538,15.2206 -3.361034,4.33992 -9.344534,6.18492 -17.301945,5.32822 -8.02456,-0.88759 -14.80702,-5.50547 -18.60714,-12.69346 -3.718201,-7.02685 -3.920961,-15.35757 -0.52503,-21.75734 8.12258,-15.334724 23.46537,-15.174934 31.878001,-13.720684 12.449064,2.15921 26.611544,13.642804 31.634954,26.902924 0.81104,2.11356 1.22463,3.78937 1.58584,5.3215 l 0.54249,2.28947 14.06445,6.86707 0.18397,0.1383 0.34107,-0.0309 0.0618,-0.40552 c -0.0873,-0.31422 -0.29138,-0.60426 -0.61634,-4.54 -0.26722,-3.49262 -0.81105,-13.05467 4.00288,-17.7934 1.86917,-1.85172 4.71724,-3.5047 6.96643,-4.03376 9.21828,-2.25187 20.02778,-0.69826 30.24788,11.13178 5.2906,6.10973 7.8701,8.89603 9.1645,10.14349 l 0.4512,0.40687 0.5318,0.39746 c 0.4243,0.23097 17.5744,8.13198 17.5744,8.13198 l 0.3531,-0.0846 0.01,-0.36659 c -0.1142,-0.13025 -10.8713,-14.03222 -8.9565,-25.47957 1.508,-9.11758 8.7644,-8.29177 18.8018,-7.15845 3.2765,0.3827 7.0068,0.81105 10.8686,0.89699 10.78271,0.0685 22.39791,-1.92288 29.55631,-5.054284 4.6313,-2.01285 7.5868,-3.35296 9.4386,-5.03683 0.666,-0.55189 1.0111,-1.44753 1.371,-2.41166 l 0.2524,-0.63648 c 0.2994,-0.78151 0.7399,-2.42778 0.9332,-3.33014 0.078,-0.39747 0.1236,-0.81776 -0.1597,-1.04067 l -0.991,0.18396 c -3.1435,1.89201 -11.0016,5.47459 -18.348,5.62767 -9.1216,0.18396 -27.48441,-9.17265 -29.39921,-10.16766 l -0.184,-0.21351 c -0.4511,-1.10243 -3.2079,-7.61768 -3.7974,-8.99539 13.2225,8.71206 24.18911,13.52733 32.58431,14.2699 9.3459,0.83253 16.6306,-4.26741 19.7418,-6.44811 z m -36.2501,-13.35143 c 0.1343,-3.621519 1.6503,-6.982539 4.2983,-9.447919 2.6493,-2.47343 6.1057,-3.75177 9.7299,-3.63629 7.4726,0.26722 13.3447,6.57567 13.0882,14.040279 -0.141,3.62153 -1.657,6.98255 -4.2983,9.43986 -2.6493,2.48821 -6.0976,3.76655 -9.7379,3.64435 -7.4647,-0.27527 -13.33,-6.56896 -13.0802,-14.04028 z"
     id="path5"
     style="opacity:0.6;fill:url(#linearGradient6243);fill-opacity:1;fill-rule:evenodd"
     inkscape:connector-curvature="0" /></g></svg>