<?xml version="1.0" encoding="UTF-8" standalone="no"?>
<!-- Generator: Adobe Illustrator 15.0.2, SVG Export Plug-In . SVG Version: 6.00 Build 0)  -->

<svg
   xmlns:dc="http://purl.org/dc/elements/1.1/"
   xmlns:cc="http://creativecommons.org/ns#"
   xmlns:rdf="http://www.w3.org/1999/02/22-rdf-syntax-ns#"
   xmlns:svg="http://www.w3.org/2000/svg"
   xmlns="http://www.w3.org/2000/svg"
   xmlns:sodipodi="http://sodipodi.sourceforge.net/DTD/sodipodi-0.dtd"
   xmlns:inkscape="http://www.inkscape.org/namespaces/inkscape"
   version="1.1"
   id="Layer_1"
   x="0px"
   y="0px"
   width="320"
   height="200.30261"
   viewBox="0 0 320 200.30262"
   enable-background="new 0 0 792 612"
   xml:space="preserve"
   inkscape:version="0.48.2 r9819"
   sodipodi:docname="logo.svg"><metadata
   id="metadata33"><rdf:RDF><cc:Work
       rdf:about=""><dc:format>image/svg+xml</dc:format><dc:type
         rdf:resource="http://purl.org/dc/dcmitype/StillImage" /><dc:title /></cc:Work></rdf:RDF></metadata><defs
   id="defs31">
	
	
	
	
	
	
	
</defs><sodipodi:namedview
   pagecolor="#ffffff"
   bordercolor="#666666"
   borderopacity="1"
   objecttolerance="10"
   gridtolerance="10"
   guidetolerance="10"
   inkscape:pageopacity="0"
   inkscape:pageshadow="2"
   inkscape:window-width="1434"
   inkscape:window-height="826"
   id="namedview29"
   showgrid="false"
   fit-margin-top="0"
   fit-margin-left="0"
   fit-margin-right="0"
   fit-margin-bottom="0"
   inkscape:zoom="1.1276736"
   inkscape:cx="152.83625"
   inkscape:cy="-36.757099"
   inkscape:window-x="0"
   inkscape:window-y="26"
   inkscape:window-maximized="0"
   inkscape:current-layer="layer2" />

<g
   inkscape:groupmode="layer"
   id="layer1"
   inkscape:label="background"
   style="display:none"
   sodipodi:insensitive="true"><rect
     style="opacity:0.65;fill:#008000;fill-opacity:1"
     id="rect3139"
     width="407.03268"
     height="257.16663"
     x="-44.339077"
     y="-16.072052" /></g><g
   inkscape:groupmode="layer"
   id="layer2"
   inkscape:label="foreground"><path
     inkscape:connector-curvature="0"
     style="fill:#ffffff;fill-opacity:0.65;fill-rule:evenodd"
     id="Gecko"
     d="m 280.09642,27.688782 c -3.24206,-0.116768 -6.31583,1.028599 -8.66495,3.231754 -2.34911,2.203157 -3.73489,5.187635 -3.83277,8.419389 -0.22495,6.678158 5.00389,12.296806 11.6666,12.542364 3.24033,0.09788 6.32956,-1.047487 8.69241,-3.250642 2.35942,-2.213459 3.716,-5.199654 3.81903,-8.419389 0.22496,-6.676439 -5.00217,-12.286503 -11.68032,-12.523476 z m 1.97819,13.229242 c -2.9673,0 -5.36449,-1.605574 -5.36449,-3.573475 0,-1.986791 2.39719,-3.583779 5.36449,-3.583779 2.9673,0 5.37137,1.596988 5.37137,3.583779 -0.002,1.967901 -2.40578,3.573475 -5.37137,3.573475 z m 26.58557,15.468458 c 0.78819,-0.520309 1.36688,-0.951324 1.61072,-1.047487 l 0.26273,-0.410408 C 309.86736,50.73864 303.62194,30.422551 298.89795,25.537142 297.59631,24.206319 296.55398,22.894385 294.44354,21.659725 277.35407,11.701732 236.81117,5.6915617 234.91195,5.4168107 l -0.32282,0.08929 -0.12193,0.29364 c 0,0 -0.15626,8.4005003 -0.1803,9.3398043 C 230.14675,13.748619 200.0461,4.0258817 171.82922,3.0470827 147.90017,2.2056597 113.0515,-0.88871927 66.874496,27.505039 l -1.36517,0.85001 c -21.7259,13.552074 -36.72557,30.263777 -44.56626,49.678344 -2.45902,6.109766 -5.76633,19.895377 -2.48821,32.867027 1.41153,5.67017 4.04398,11.36781 7.59342,16.46786 8.02271,11.52409 21.48549,19.17074 35.9803,20.46207 20.46721,1.83053 35.96486,-7.3616 41.477044,-24.57473 3.78985,-11.8761 0,-29.302147 -14.529154,-38.192047 -11.81771,-7.236244 -24.52493,-5.591175 -31.89683,-0.714352 -6.39482,4.239746 -10.01638,10.828609 -9.95284,18.064849 0.14768,12.836 11.20467,19.6584 19.15527,19.679 2.30962,0 4.62954,-0.40182 7.24483,-1.25354 0.93071,-0.28334 1.80648,-0.63537 2.77154,-1.23295 l 0.30223,-0.17687 0.19061,-0.12707 -0.0635,0.0378 c 1.81163,-1.23466 2.90205,-3.24206 2.90205,-5.39542 0,-0.58728 -0.0824,-1.18315 -0.25071,-1.78244 -0.9393,-3.25064 -4.15045,-5.21683 -7.47837,-4.61066 l -0.4499,0.10647 -0.60789,0.18546 -0.88263,0.30394 c -1.83053,0.4499 -3.20085,0.4894 -3.49449,0.4997 -0.93072,-0.0601 -5.50703,-1.43042 -5.50703,-6.4429 v -0.0686 c 0,-1.84083 0.73839,-3.132155 1.14537,-3.837921 1.42355,-2.232349 5.32157,-4.423485 10.5882,-3.964995 6.91169,0.597583 11.89498,4.141866 15.19542,10.828606 3.06347,6.21624 2.26154,13.86288 -2.06578,19.46436 -4.29813,5.54996 -11.94993,7.90938 -22.12601,6.81382 -10.26194,-1.13511 -18.93547,-7.04053 -23.79512,-16.23265 -4.7549,-8.98607 -5.0142,-19.639509 -0.67142,-27.823643 10.38729,-19.610324 30.00792,-19.405978 40.76612,-17.54626 15.92008,2.761244 34.031304,17.446662 40.455324,34.403923 1.03718,2.70286 1.56607,4.84591 2.02799,6.80522 l 0.69375,2.92782 17.98586,8.78171 0.23526,0.17687 0.43617,-0.0395 0.079,-0.51858 c -0.11163,-0.40183 -0.37264,-0.77274 -0.7882,-5.80583 -0.34172,-4.46642 -1.03718,-16.694525 5.11895,-22.754492 2.39033,-2.368008 6.03249,-4.48187 8.90878,-5.158444 11.78852,-2.879729 25.6119,-0.892939 38.68144,14.235506 6.76574,7.81322 10.06447,11.3764 11.71984,12.97166 l 0.57697,0.52031 0.68001,0.50829 c 0.54263,0.29535 22.4746,10.39931 22.4746,10.39931 l 0.45162,-0.10818 0.009,-0.4688 c -0.14596,-0.16656 -13.90238,-17.94464 -11.45366,-32.583689 1.9284,-11.659729 11.20811,-10.603656 24.04411,-9.154347 4.18994,0.4894 8.96031,1.037183 13.89894,1.147084 13.78906,0.08758 28.64276,-2.459019 37.7971,-6.463508 5.9226,-2.57407 9.70214,-4.287826 12.07014,-6.441184 0.85173,-0.705766 1.29305,-1.851132 1.75326,-3.084076 l 0.32282,-0.813948 c 0.38295,-0.999406 0.94618,-3.104684 1.19346,-4.258637 0.0996,-0.508288 0.15798,-1.045769 -0.20435,-1.330823 l -1.26729,0.235255 c -4.01994,2.419523 -14.06895,7.000991 -23.4637,7.196751 -11.66509,0.235299 -35.14768,-11.730092 -37.5964,-13.00253 l -0.23525,-0.273033 c -0.57698,-1.409814 -4.10238,-9.741626 -4.85622,-11.503463 16.90918,11.141135 30.93349,17.298983 41.66936,18.24859 11.95166,1.064658 21.26742,-5.457234 25.24616,-8.245952 z M 262.30289,39.31245 c 0.17171,-4.631264 2.11042,-8.929394 5.49672,-12.082158 3.38802,-3.163066 7.80807,-4.797832 12.44277,-4.650153 9.55616,0.341721 17.06545,8.409085 16.73746,17.954951 -0.18031,4.631266 -2.11902,8.929394 -5.49674,12.071854 -3.38802,3.181955 -7.79776,4.816721 -12.45306,4.660457 -9.54586,-0.352024 -17.04655,-8.400499 -16.72715,-17.954951 z"
     clip-rule="evenodd" /><g
     id="text"><path
       inkscape:connector-curvature="0"
       style="opacity:0.65;fill:#ffffff;fill-opacity:1"
       id="path7"
       d="m 135.91712,140.41942 c -7.6209,0 -11.81256,6.4429 -11.81256,10.89729 v 5.71825 c 0,6.55967 5.35935,10.62426 10.3289,10.62426 h 17.44667 c 2.198,0 2.65821,1.43901 2.65821,2.65306 v 3.69025 c 0,0.39152 -0.079,3.9358 -2.65821,3.9358 h -23.79512 c -2.36457,0 -4.07318,1.64507 -4.07318,3.89631 v 1.02001 c 0,2.24265 1.70861,3.87742 4.07318,3.87742 h 25.08816 c 6.55795,0 10.78911,-4.56258 10.78911,-11.63054 v -6.16987 c 0,-6.63694 -4.76864,-9.60425 -9.50293,-9.60425 h -17.16676 c -2.58438,0 -3.7555,-1.93871 -3.7555,-3.30903 v -3.4069 c 0,-2.14477 1.43385,-3.38802 3.94095,-3.38802 h 19.00244 c 2.33023,0 4.08348,-1.67426 4.08348,-3.88772 v -1.0183 c 0,-2.22204 -1.78244,-3.89802 -4.16247,-3.89802 h -20.48437 z" /><path
       inkscape:connector-curvature="0"
       style="opacity:0.65;fill:#ffffff;fill-opacity:1"
       id="path9"
       d="m 207.2561,140.41942 c -2.25296,0 -4.06803,1.83053 -4.06803,4.08348 v 29.21457 c 0,2.34054 -1.90951,4.22086 -4.22085,4.22086 h -13.26187 c -2.31993,0 -4.21914,-1.88032 -4.21914,-4.22086 V 144.5029 c 0,-2.25295 -1.83053,-4.08348 -4.08176,-4.08348 h -1.28275 c -2.28558,0 -4.08348,1.80305 -4.08348,4.08348 v 30.32045 c 0,7.05937 5.55512,12.18003 13.20692,12.18003 h 14.18228 c 7.6415,0 13.19318,-5.11894 13.19318,-12.18003 V 144.5029 c 0,-2.28043 -1.79103,-4.08348 -4.07317,-4.08348 h -1.29133 z" /><path
       inkscape:connector-curvature="0"
       style="opacity:0.65;fill:#ffffff;fill-opacity:1"
       id="path11"
       d="m 232.64649,140.41942 c -7.61746,0 -11.82115,6.4429 -11.82115,10.89729 v 5.71825 c 0,6.55967 5.36966,10.62426 10.34265,10.62426 h 17.44151 c 2.20144,0 2.66336,1.43901 2.66336,2.65306 v 3.69025 c 0,0.39152 -0.079,3.9358 -2.66336,3.9358 h -23.80543 c -2.35426,0 -4.07317,1.64507 -4.07317,3.89631 v 1.02001 c 0,2.24265 1.71891,3.87742 4.07317,3.87742 h 25.09675 c 6.55967,0 10.80972,-4.56258 10.80972,-11.63054 v -6.16987 c 0,-6.63694 -4.78237,-9.60425 -9.51667,-9.60425 h -17.16676 c -2.59124,0 -3.75893,-1.93871 -3.75893,-3.30903 v -3.4069 c 0,-2.14477 1.43385,-3.38802 3.94095,-3.38802 h 19.01274 c 2.32508,0 4.07146,-1.67426 4.07146,-3.88772 v -1.0183 c 0,-2.22204 -1.78073,-3.89802 -4.17106,-3.89802 h -20.47578 z" /><path
       inkscape:connector-curvature="0"
       style="opacity:0.65;fill:#ffffff;fill-opacity:1"
       id="path13"
       d="m 272.75493,140.41942 c -2.26154,0 -3.97014,1.67598 -3.97014,3.89802 v 38.53549 c 0,2.21174 1.66911,3.87742 3.88085,3.87742 h 30.70853 c 2.36457,0 4.07318,-1.63477 4.07318,-3.87742 v -1.02001 c 0,-2.25124 -1.70861,-3.89631 -4.07318,-3.89631 0,0 -24.02007,0 -25.14998,0 0,-0.9994 0,-8.82293 0,-9.81031 1.1196,0 18.42889,0 18.42889,0 2.35942,0 4.07318,-1.65537 4.07318,-3.89802 v -1.0183 c 0,-2.25295 -1.71376,-3.88772 -4.07318,-3.88772 0,0 -17.30929,0 -18.42889,0 0,-1.00799 0,-9.09596 0,-10.10395 1.1196,0 23.87239,0 23.87239,0 2.35598,0 4.07318,-1.62447 4.07318,-3.88772 v -1.0183 c 0,-2.25295 -1.7172,-3.89802 -4.07318,-3.89802 h -29.34165 z" /><g
       transform="matrix(1.7171912,0,0,1.7171912,-831.85747,-535.63018)"
       style="opacity:0.65;fill:#ffffff;fill-opacity:1"
       id="g15"><path
         inkscape:connector-curvature="0"
         style="fill:#ffffff;fill-opacity:1"
         id="path17"
         d="m 491.254,404.369 c -2.241,0 -4.065,1.744 -4.065,3.894 v 8.461 c 0,2.184 1.765,3.963 3.929,3.963 h 5.473 c 2.164,0 3.929,-1.779 3.929,-3.963 v -8.461 c 0,-2.149 -1.825,-3.894 -4.065,-3.894 h -5.201 z m -1.184,12.019 v -7.726 c 0,-0.906 0.744,-1.647 1.654,-1.647 h 4.264 c 0.89,0 1.648,0.758 1.648,1.647 v 7.726 c 0,0.912 -0.738,1.653 -1.648,1.653 h -4.296 c -0.912,0 -1.622,-0.725 -1.622,-1.653 z" /><path
         inkscape:connector-curvature="0"
         style="fill:#ffffff;fill-opacity:1"
         id="path19"
         d="m 512.91,404.271 c -1.578,0 -2.768,0.564 -3.723,1.026 -0.582,0.279 -1.086,0.52 -1.477,0.52 -0.177,0 -0.328,-0.08 -0.408,-0.211 l -0.364,-0.696 c -0.091,-0.183 -0.456,-0.541 -0.907,-0.541 h -0.541 c -0.52,0 -0.936,0.467 -0.936,1.037 v 21.461 c 0,0.673 0.531,1.203 1.203,1.203 h 0.468 c 0.667,0 1.209,-0.536 1.209,-1.203 v -7.121 c 0,-0.211 0.137,-0.439 0.276,-0.439 0.391,0 0.895,0.229 1.477,0.496 0.955,0.439 2.145,0.98 3.723,0.98 h 0.505 c 2.794,0 4.532,-1.597 4.532,-4.162 v -8.192 c 0,-2.526 -1.775,-4.157 -4.532,-4.157 h -0.505 z m -5.475,11.952 v -7.39 c 0,-1.021 0.798,-1.818 1.818,-1.818 h 3.997 c 1.021,0 1.818,0.798 1.818,1.818 v 7.39 c 0,1.003 -0.818,1.818 -1.818,1.818 h -3.997 c -1.001,0 -1.818,-0.815 -1.818,-1.818 z" /><path
         inkscape:connector-curvature="0"
         style="fill:#ffffff;fill-opacity:1"
         id="path21"
         d="m 526.044,404.369 c -2.241,0 -4.06,1.744 -4.06,3.894 v 8.398 c 0,2.178 1.768,4.025 3.854,4.025 h 5.647 c 0.698,0 1.203,-0.484 1.203,-1.141 v -0.37 c 0,-0.661 -0.505,-1.135 -1.203,-1.135 h -4.639 c -1.3,0 -1.986,-0.639 -1.986,-1.854 0,0 0,-2.115 0,-2.457 0.379,0 8.369,0 8.369,0 1.346,0 2.142,-0.821 2.142,-2.212 v -3.256 c 0,-2.149 -1.822,-3.894 -4.054,-3.894 h -5.273 z m -1.183,4.265 c 0,-0.907 0.713,-1.619 1.621,-1.619 h 4.396 c 0.906,0 1.613,0.712 1.613,1.619 0,0 0,2.28 0,2.622 -0.364,0 -7.258,0 -7.631,0 10e-4,-0.342 10e-4,-2.622 10e-4,-2.622 z" /><path
         inkscape:connector-curvature="0"
         style="fill:#ffffff;fill-opacity:1"
         id="path23"
         d="m 546.997,404.271 c -1.573,0 -2.76,0.564 -3.718,1.021 -0.596,0.28 -1.105,0.525 -1.521,0.525 -0.183,0 -0.257,-0.023 -0.399,-0.269 l -0.331,-0.604 c -0.19,-0.382 -0.513,-0.575 -0.949,-0.575 h -0.465 c -0.562,0 -0.972,0.438 -0.972,1.037 v 14.077 c 0,0.667 0.527,1.203 1.206,1.203 h 0.465 c 0.667,0 1.211,-0.542 1.211,-1.203 v -10.65 c 0,-0.998 0.815,-1.818 1.813,-1.818 h 3.999 c 1.001,0 1.816,0.82 1.816,1.818 v 10.65 c 0,0.667 0.53,1.203 1.203,1.203 h 0.47 c 0.667,0 1.209,-0.542 1.209,-1.203 v -11.055 c 0,-2.526 -1.776,-4.157 -4.535,-4.157 h -0.502 z" /></g><g
       transform="matrix(1.7171912,0,0,1.7171912,-831.85747,-535.63018)"
       style="opacity:0.65;fill:#ffffff;fill-opacity:1"
       id="g25"><path
         inkscape:connector-curvature="0"
         style="fill:#ffffff;fill-opacity:1"
         id="path27"
         d="m 667.456,415.229 c 1.218,0 2.188,0.99 2.188,2.229 0,1.257 -0.971,2.237 -2.198,2.237 -1.218,0 -2.208,-0.98 -2.208,-2.237 0,-1.238 0.99,-2.229 2.208,-2.229 h 0.01 z m -0.01,0.346 c -0.98,0 -1.782,0.842 -1.782,1.882 0,1.06 0.802,1.891 1.792,1.891 0.99,0.011 1.782,-0.831 1.782,-1.881 0,-1.05 -0.792,-1.892 -1.782,-1.892 h -0.01 z m -0.416,3.179 h -0.396 v -2.485 c 0.208,-0.03 0.406,-0.06 0.703,-0.06 0.377,0 0.624,0.079 0.772,0.188 0.149,0.108 0.229,0.276 0.229,0.515 0,0.326 -0.218,0.524 -0.485,0.604 v 0.021 c 0.218,0.039 0.366,0.237 0.416,0.604 0.06,0.387 0.118,0.535 0.158,0.614 h -0.416 c -0.06,-0.079 -0.119,-0.307 -0.168,-0.634 -0.06,-0.316 -0.218,-0.436 -0.535,-0.436 h -0.277 v 1.069 z m 0,-1.377 h 0.287 c 0.327,0 0.604,-0.118 0.604,-0.426 0,-0.218 -0.158,-0.436 -0.604,-0.436 -0.129,0 -0.218,0.01 -0.287,0.021 v 0.841 z" /></g></g></g></svg>