<?xml version="1.0" encoding="UTF-8" standalone="no"?>
<!-- Generator: Adobe Illustrator 15.0.2, SVG Export Plug-In . SVG Version: 6.00 Build 0)  -->

<svg
   xmlns:dc="http://purl.org/dc/elements/1.1/"
   xmlns:cc="http://creativecommons.org/ns#"
   xmlns:rdf="http://www.w3.org/1999/02/22-rdf-syntax-ns#"
   xmlns:svg="http://www.w3.org/2000/svg"
   xmlns="http://www.w3.org/2000/svg"
   xmlns:sodipodi="http://sodipodi.sourceforge.net/DTD/sodipodi-0.dtd"
   xmlns:inkscape="http://www.inkscape.org/namespaces/inkscape"
   version="1.1"
   id="Layer_1"
   x="0px"
   y="0px"
   width="320"
   height="200.30261"
   viewBox="0 0 320 200.30262"
   enable-background="new 0 0 792 612"
   xml:space="preserve"
   inkscape:version="0.48.1 r9760"
   sodipodi:docname="opensuse_logo_white.svg"><metadata
   id="metadata33"><rdf:RDF><cc:Work
       rdf:about=""><dc:format>image/svg+xml</dc:format><dc:type
         rdf:resource="http://purl.org/dc/dcmitype/StillImage" /><dc:title></dc:title></cc:Work></rdf:RDF></metadata><defs
   id="defs31">
	
	
	
	
	
	
	
</defs><sodipodi:namedview
   pagecolor="#ffffff"
   bordercolor="#666666"
   borderopacity="1"
   objecttolerance="10"
   gridtolerance="10"
   guidetolerance="10"
   inkscape:pageopacity="0"
   inkscape:pageshadow="2"
   inkscape:window-width="1485"
   inkscape:window-height="879"
   id="namedview29"
   showgrid="false"
   fit-margin-top="0"
   fit-margin-left="0"
   fit-margin-right="0"
   fit-margin-bottom="0"
   inkscape:zoom="1.1276736"
   inkscape:cx="264.57071"
   inkscape:cy="-36.757099"
   inkscape:window-x="0"
   inkscape:window-y="26"
   inkscape:window-maximized="0"
   inkscape:current-layer="Layer_1" />
<path
   inkscape:connector-curvature="0"
   style="fill:#ffffff;fill-opacity:1;fill-rule:evenodd"
   id="path5"
   d="m 280.85743,25.707891 c -3.31129,-0.119262 -6.45069,1.050561 -8.84997,3.300759 -2.39927,2.250199 -3.81464,5.298403 -3.91461,8.599162 -0.22975,6.820751 5.11074,12.559372 11.91571,12.810173 3.30953,0.09997 6.46472,-1.069853 8.87802,-3.320051 2.4098,-2.260722 3.79535,-5.31068 3.90058,-8.599162 0.22976,-6.818997 -5.10898,-12.548849 -11.92973,-12.790881 z m 2.02044,13.511716 c -3.03067,0 -5.47905,-1.639856 -5.47905,-3.649777 0,-2.029213 2.44838,-3.6603 5.47905,-3.6603 3.03066,0 5.48606,1.631087 5.48606,3.6603 -0.002,2.009921 -2.45715,3.649777 -5.48606,3.649777 z m 27.15322,15.798746 c 0.80502,-0.531419 1.39607,-0.971637 1.64511,-1.069853 l 0.26834,-0.419172 c -0.68049,-4.279412 -7.05927,-25.029296 -11.88413,-30.01902 -1.32943,-1.359239 -2.39402,-2.699186 -4.54951,-3.960209 C 278.05652,9.3794807 236.64795,3.2409805 234.70818,2.9603633 l -0.32972,0.091201 -0.12453,0.2999096 c 0,0 -0.1596,8.5798695 -0.18415,9.5392295 C 229.84123,11.470078 199.09786,1.539739 170.27848,0.54004038 145.83848,-0.31934965 110.24571,-3.4798003 63.082731,25.520228 l -1.394316,0.86816 C 39.498613,40.229829 24.178671,57.298367 16.170559,77.127477 13.659035,83.367701 10.281106,97.447666 13.62922,110.6963 c 1.44167,5.79124 4.130333,11.61054 7.755556,16.81949 8.194021,11.77014 21.944262,19.58007 36.74857,20.89897 20.904224,1.86961 36.732785,-7.51879 42.362664,-25.09945 3.87077,-12.12968 0,-29.927823 -14.839383,-39.007542 C 73.586582,76.917014 60.608039,78.597209 53.07873,83.578163 46.547365,87.908437 42.848481,94.637987 42.913373,102.02874 c 0.150832,13.11008 11.443919,20.07816 19.564277,20.0992 2.358938,0 4.728399,-0.4104 7.399524,-1.28031 0.950591,-0.28939 1.845058,-0.64893 2.830725,-1.25927 l 0.308679,-0.18065 0.194679,-0.12978 -0.06489,0.0386 c 1.850319,-1.26102 2.964018,-3.31128 2.964018,-5.51062 0,-0.59982 -0.08419,-1.20841 -0.256063,-1.8205 -0.95936,-3.32005 -4.239073,-5.32822 -7.638048,-4.70911 l -0.45951,0.10874 -0.620866,0.18942 -0.901482,0.31043 c -1.869612,0.45951 -3.26919,0.49985 -3.5691,0.51037 -0.95059,-0.0614 -5.62462,-1.46096 -5.62462,-6.58047 v -0.0701 c 0,-1.880139 0.754159,-3.199039 1.169823,-3.919875 1.453947,-2.280014 5.435203,-4.517936 10.814283,-4.049656 7.059276,0.610342 12.148969,4.230304 15.519883,11.059821 3.128881,6.34897 2.30983,14.15889 -2.10989,19.87997 -4.389905,5.66847 -12.205093,8.07827 -22.59845,6.95931 -10.481051,-1.1593 -19.339784,-7.19082 -24.3032,-16.57921 -4.85643,-9.17794 -5.121263,-20.058868 -0.685758,-28.417751 10.609082,-20.029049 30.648655,-19.82034 41.63657,-17.920913 16.26001,2.820203 34.757946,17.819189 41.319126,35.138534 1.05933,2.76057 1.59951,4.94938 2.0713,6.95053 l 0.70856,2.99033 18.3699,8.96922 0.24028,0.18065 0.44548,-0.0403 0.0807,-0.52966 c -0.11401,-0.41041 -0.38059,-0.78924 -0.80503,-5.92979 -0.34901,-4.56179 -1.05932,-17.051004 5.22825,-23.240366 2.44137,-2.418569 6.1613,-4.577567 9.09901,-5.268587 12.04023,-2.941218 26.15878,-0.912006 39.50739,14.539473 6.9102,7.98005 10.27936,11.61931 11.97008,13.24864 l 0.58929,0.53142 0.69453,0.51914 c 0.55422,0.30166 22.95448,10.62136 22.95448,10.62136 l 0.46127,-0.11049 0.009,-0.47881 c -0.14908,-0.17012 -14.19923,-18.3278 -11.69823,-33.279436 1.96958,-11.90869 11.44743,-10.830068 24.55751,-9.349813 4.27941,0.49985 9.15163,1.05933 14.19572,1.171577 14.08347,0.08945 29.25434,-2.511524 38.60415,-6.601519 6.04905,-2.629032 9.90929,-4.379381 12.32786,-6.578718 0.86991,-0.720835 1.32066,-1.890658 1.79069,-3.149928 l 0.32972,-0.831328 c 0.39112,-1.020745 0.96638,-3.170974 1.21894,-4.349566 0.10172,-0.519141 0.16135,-1.068099 -0.20871,-1.359239 l -1.29435,0.240278 c -4.10578,2.471185 -14.36935,7.150476 -23.9647,7.350416 -11.91396,0.240278 -35.89795,-11.980599 -38.39895,-13.280207 l -0.24028,-0.278863 c -0.5893,-1.439917 -4.18997,-9.949632 -4.95991,-11.749089 17.27023,11.379025 31.59398,17.668357 42.5591,18.63824 12.20684,1.087391 21.72152,-5.573758 25.78521,-8.422022 z M 262.68396,37.579751 c 0.17538,-4.730153 2.15549,-9.120058 5.61409,-12.34014 3.46036,-3.230605 7.97479,-4.900277 12.70845,-4.749445 9.76022,0.349018 17.42984,8.588639 17.09485,18.338331 -0.18416,4.730153 -2.16426,9.120057 -5.6141,12.329616 -3.46036,3.249897 -7.96426,4.919569 -12.71897,4.759968 -9.74969,-0.35954 -17.41054,-8.579869 -17.08432,-18.33833 z"
   clip-rule="evenodd" />
</svg>