<?xml version="1.0" encoding="UTF-8" standalone="no"?>
<!-- Created with Inkscape (http://www.inkscape.org/) -->
<svg
   xmlns:dc="http://purl.org/dc/elements/1.1/"
   xmlns:cc="http://creativecommons.org/ns#"
   xmlns:rdf="http://www.w3.org/1999/02/22-rdf-syntax-ns#"
   xmlns:svg="http://www.w3.org/2000/svg"
   xmlns="http://www.w3.org/2000/svg"
   xmlns:xlink="http://www.w3.org/1999/xlink"
   xmlns:sodipodi="http://sodipodi.sourceforge.net/DTD/sodipodi-0.dtd"
   xmlns:inkscape="http://www.inkscape.org/namespaces/inkscape"
   inkscape:export-ydpi="90.000000"
   inkscape:export-xdpi="90.000000"
   inkscape:export-filename="/home/jimmac/Desktop/wi-fi.png"
   width="48px"
   height="48px"
   id="svg11300"
   sodipodi:version="0.32"
   inkscape:version="0.45+devel"
   sodipodi:docbase="/home/jimmac/src/cvs/gnome/ximian-artwork/icons/Industrial/scalable/status"
   sodipodi:docname="folder-visiting.svg"
   inkscape:output_extension="org.inkscape.output.svg.inkscape">
  <defs
     id="defs3">
    <filter
       inkscape:collect="always"
       id="filter6100"
       x="-0.043193193"
       width="1.0863864"
       y="-0.56483406"
       height="2.1296681">
      <feGaussianBlur
         inkscape:collect="always"
         stdDeviation="0.76487946"
         id="feGaussianBlur6102" />
    </filter>
    <filter
       inkscape:collect="always"
       id="filter6016"
       x="-0.058716578"
       width="1.1174332"
       y="-0.76783217"
       height="2.5356643">
      <feGaussianBlur
         inkscape:collect="always"
         stdDeviation="1.0397727"
         id="feGaussianBlur6018" />
    </filter>
    <filter
       inkscape:collect="always"
       x="-0.1336675"
       width="1.267335"
       y="-0.78817734"
       height="2.5763547"
       id="filter5943">
      <feGaussianBlur
         inkscape:collect="always"
         stdDeviation="2.8571429"
         id="feGaussianBlur5945" />
    </filter>
    <linearGradient
       id="linearGradient8860">
      <stop
         style="stop-color:#000000;stop-opacity:0.36082473;"
         offset="0"
         id="stop8862" />
      <stop
         id="stop8868"
         offset="0.5"
         style="stop-color:#000000;stop-opacity:0;" />
      <stop
         style="stop-color:#000000;stop-opacity:0;"
         offset="0.66666669"
         id="stop8870" />
      <stop
         style="stop-color:#000000;stop-opacity:1;"
         offset="1"
         id="stop8864" />
    </linearGradient>
    <linearGradient
       id="linearGradient5521">
      <stop
         style="stop-color:#ffffff;stop-opacity:1;"
         offset="0"
         id="stop5523" />
      <stop
         style="stop-color:#ffffff;stop-opacity:0;"
         offset="1"
         id="stop5525" />
    </linearGradient>
    <linearGradient
       id="linearGradient5513">
      <stop
         id="stop5515"
         offset="0"
         style="stop-color:#ffffff;stop-opacity:1;" />
      <stop
         id="stop5517"
         offset="1"
         style="stop-color:#c0c0c0;stop-opacity:1;" />
    </linearGradient>
    <linearGradient
       inkscape:collect="always"
       id="linearGradient3598">
      <stop
         style="stop-color:#000000;stop-opacity:1;"
         offset="0"
         id="stop3600" />
      <stop
         style="stop-color:#000000;stop-opacity:0;"
         offset="1"
         id="stop3602" />
    </linearGradient>
    <radialGradient
       inkscape:collect="always"
       xlink:href="#linearGradient3598"
       id="radialGradient3604"
       cx="31.6875"
       cy="45.625"
       fx="31.6875"
       fy="45.625"
       r="12.125"
       gradientTransform="matrix(1.000000,0.000000,0.000000,0.268041,9.801092e-17,33.39562)"
       gradientUnits="userSpaceOnUse" />
    <linearGradient
       id="linearGradient3584">
      <stop
         style="stop-color:#e5e5e5;stop-opacity:1;"
         offset="0"
         id="stop3586" />
      <stop
         style="stop-color:#b8b8b8;stop-opacity:1;"
         offset="1"
         id="stop3588" />
    </linearGradient>
    <linearGradient
       id="linearGradient11520">
      <stop
         id="stop11522"
         offset="0.0000000"
         style="stop-color:#ffffff;stop-opacity:1.0000000;" />
      <stop
         id="stop11524"
         offset="1.0000000"
         style="stop-color:#dcdcdc;stop-opacity:1.0000000;" />
    </linearGradient>
    <linearGradient
       id="linearGradient11508"
       inkscape:collect="always">
      <stop
         id="stop11510"
         offset="0"
         style="stop-color:#000000;stop-opacity:1;" />
      <stop
         id="stop11512"
         offset="1"
         style="stop-color:#000000;stop-opacity:0;" />
    </linearGradient>
    <linearGradient
       id="linearGradient11494"
       inkscape:collect="always">
      <stop
         id="stop11496"
         offset="0"
         style="stop-color:#ef2929;stop-opacity:1;" />
      <stop
         id="stop11498"
         offset="1"
         style="stop-color:#ef2929;stop-opacity:0;" />
    </linearGradient>
    <linearGradient
       id="linearGradient11415">
      <stop
         id="stop11417"
         offset="0.0000000"
         style="stop-color:#204a87;stop-opacity:0.0000000;" />
      <stop
         style="stop-color:#204a87;stop-opacity:1.0000000;"
         offset="0.50000000"
         id="stop11423" />
      <stop
         id="stop11419"
         offset="1"
         style="stop-color:#204a87;stop-opacity:0;" />
    </linearGradient>
    <linearGradient
       id="linearGradient11399"
       inkscape:collect="always">
      <stop
         id="stop11401"
         offset="0"
         style="stop-color:#000000;stop-opacity:1;" />
      <stop
         id="stop11403"
         offset="1"
         style="stop-color:#000000;stop-opacity:0;" />
    </linearGradient>
    <linearGradient
       gradientTransform="translate(-60.28571,-0.285714)"
       y2="34.462429"
       x2="43.615788"
       y1="3.7744560"
       x1="15.828360"
       gradientUnits="userSpaceOnUse"
       id="linearGradient11425"
       xlink:href="#linearGradient11415"
       inkscape:collect="always" />
    <linearGradient
       gradientTransform="translate(-60.57143,0.000000)"
       y2="39.033859"
       x2="35.679932"
       y1="9.3458843"
       x1="9.6957054"
       gradientUnits="userSpaceOnUse"
       id="linearGradient11427"
       xlink:href="#linearGradient11415"
       inkscape:collect="always" />
    <linearGradient
       y2="33.462429"
       x2="26.758644"
       y1="19.774456"
       x1="13.267134"
       gradientTransform="translate(-60.85714,0.428571)"
       gradientUnits="userSpaceOnUse"
       id="linearGradient11439"
       xlink:href="#linearGradient11415"
       inkscape:collect="always" />
    <radialGradient
       r="8.5000000"
       fy="39.142857"
       fx="12.071428"
       cy="39.142857"
       cx="12.071428"
       gradientTransform="matrix(1.000000,0.000000,0.000000,0.487395,0.000000,20.06483)"
       gradientUnits="userSpaceOnUse"
       id="radialGradient11441"
       xlink:href="#linearGradient11399"
       inkscape:collect="always" />
    <radialGradient
       gradientTransform="matrix(1.243453,2.106784e-16,-2.106784e-16,1.243453,-6.713754,-3.742847)"
       gradientUnits="userSpaceOnUse"
       r="3.8335034"
       fy="15.048258"
       fx="27.577173"
       cy="15.048258"
       cx="27.577173"
       id="radialGradient11500"
       xlink:href="#linearGradient11494"
       inkscape:collect="always" />
    <radialGradient
       r="3.8335034"
       fy="16.049133"
       fx="27.577173"
       cy="16.049133"
       cx="27.577173"
       gradientTransform="matrix(1.243453,2.106784e-16,-2.106784e-16,1.243453,-6.713754,-3.742847)"
       gradientUnits="userSpaceOnUse"
       id="radialGradient11504"
       xlink:href="#linearGradient11494"
       inkscape:collect="always" />
    <radialGradient
       gradientUnits="userSpaceOnUse"
       gradientTransform="matrix(1.000000,0.000000,0.000000,0.338462,2.166583e-14,29.48178)"
       r="6.5659914"
       fy="44.565483"
       fx="30.203562"
       cy="44.565483"
       cx="30.203562"
       id="radialGradient11514"
       xlink:href="#linearGradient11508"
       inkscape:collect="always" />
    <radialGradient
       gradientTransform="matrix(1.995058,-1.651527e-32,0.000000,1.995058,-24.32488,-35.70087)"
       gradientUnits="userSpaceOnUse"
       r="20.530962"
       fy="35.878170"
       fx="24.445690"
       cy="35.878170"
       cx="24.445690"
       id="radialGradient11526"
       xlink:href="#linearGradient11520"
       inkscape:collect="always" />
    <radialGradient
       r="6.5659914"
       fy="44.565483"
       fx="30.203562"
       cy="44.565483"
       cx="30.203562"
       gradientTransform="matrix(1.000000,0.000000,0.000000,0.338462,3.185827e-15,29.48178)"
       gradientUnits="userSpaceOnUse"
       id="radialGradient11532"
       xlink:href="#linearGradient11508"
       inkscape:collect="always" />
    <radialGradient
       inkscape:collect="always"
       xlink:href="#linearGradient11508"
       id="radialGradient1348"
       gradientUnits="userSpaceOnUse"
       gradientTransform="matrix(1.000000,0.000000,0.000000,0.338462,-1.353344e-14,29.48178)"
       cx="30.203562"
       cy="44.565483"
       fx="30.203562"
       fy="44.565483"
       r="6.5659914" />
    <radialGradient
       inkscape:collect="always"
       xlink:href="#linearGradient11520"
       id="radialGradient1350"
       gradientUnits="userSpaceOnUse"
       gradientTransform="matrix(1.995058,-1.651527e-32,0.000000,1.995058,-24.32488,-35.70087)"
       cx="24.445690"
       cy="35.878170"
       fx="24.445690"
       fy="35.878170"
       r="20.530962" />
    <radialGradient
       inkscape:collect="always"
       xlink:href="#linearGradient11494"
       id="radialGradient1352"
       gradientUnits="userSpaceOnUse"
       gradientTransform="matrix(1.243453,2.106784e-16,-2.106784e-16,1.243453,-6.713754,-3.742847)"
       cx="27.577173"
       cy="16.049133"
       fx="27.577173"
       fy="16.049133"
       r="3.8335034" />
    <radialGradient
       inkscape:collect="always"
       xlink:href="#linearGradient11494"
       id="radialGradient1354"
       gradientUnits="userSpaceOnUse"
       gradientTransform="matrix(1.243453,2.106784e-16,-2.106784e-16,1.243453,-6.713754,-3.742847)"
       cx="27.577173"
       cy="15.048258"
       fx="27.577173"
       fy="15.048258"
       r="3.8335034" />
    <radialGradient
       inkscape:collect="always"
       xlink:href="#linearGradient11508"
       id="radialGradient1356"
       gradientUnits="userSpaceOnUse"
       gradientTransform="matrix(1.000000,0.000000,0.000000,0.338462,2.220359e-14,29.48178)"
       cx="30.203562"
       cy="44.565483"
       fx="30.203562"
       fy="44.565483"
       r="6.5659914" />
    <radialGradient
       inkscape:collect="always"
       xlink:href="#linearGradient11520"
       id="radialGradient1366"
       gradientUnits="userSpaceOnUse"
       gradientTransform="matrix(2.049266,-1.696401e-32,0.000000,2.049266,-25.65002,-37.31089)"
       cx="24.445690"
       cy="35.878170"
       fx="24.445690"
       fy="35.878170"
       r="20.530962" />
    <linearGradient
       inkscape:collect="always"
       xlink:href="#linearGradient5513"
       id="linearGradient3925"
       gradientUnits="userSpaceOnUse"
       x1="26.715637"
       y1="36.848858"
       x2="26.715637"
       y2="4.3829641"
       gradientTransform="matrix(1.219464,0,0,1.17365,-7.830021,-0.14904)" />
  </defs>
  <sodipodi:namedview
     stroke="#888a85"
     fill="#eeeeec"
     id="base"
     pagecolor="#ffffff"
     bordercolor="#666666"
     borderopacity="0.25490196"
     inkscape:pageopacity="0.0"
     inkscape:pageshadow="2"
     inkscape:zoom="1"
     inkscape:cx="50.341206"
     inkscape:cy="7.9178124"
     inkscape:current-layer="layer1"
     showgrid="false"
     inkscape:grid-bbox="true"
     inkscape:document-units="px"
     inkscape:showpageshadow="false"
     inkscape:window-width="1007"
     inkscape:window-height="698"
     inkscape:window-x="150"
     inkscape:window-y="246" />
  <metadata
     id="metadata4">
    <rdf:RDF>
      <cc:Work
         rdf:about="">
        <dc:format>image/svg+xml</dc:format>
        <dc:type
           rdf:resource="http://purl.org/dc/dcmitype/StillImage" />
        <dc:creator>
          <cc:Agent>
            <dc:title>Jakub Steiner</dc:title>
          </cc:Agent>
        </dc:creator>
        <dc:source>http://jimmac.musichall.cz</dc:source>
        <cc:license
           rdf:resource="http://creativecommons.org/licenses/by-sa/2.0/" />
        <dc:title />
      </cc:Work>
      <cc:License
         rdf:about="http://creativecommons.org/licenses/by-sa/2.0/">
        <cc:permits
           rdf:resource="http://web.resource.org/cc/Reproduction" />
        <cc:permits
           rdf:resource="http://web.resource.org/cc/Distribution" />
        <cc:requires
           rdf:resource="http://web.resource.org/cc/Notice" />
        <cc:requires
           rdf:resource="http://web.resource.org/cc/Attribution" />
        <cc:permits
           rdf:resource="http://web.resource.org/cc/DerivativeWorks" />
        <cc:requires
           rdf:resource="http://web.resource.org/cc/ShareAlike" />
      </cc:License>
    </rdf:RDF>
  </metadata>
  <g
     id="layer1"
     inkscape:label="Layer 1"
     inkscape:groupmode="layer">
    <g
       id="g5876"
       style="opacity:0.57731958000000005"
       transform="matrix(1,0,0,1.2216428,0,-9.3921122)">
      <rect
         ry="1.625"
         rx="1.7708334"
         y="40.75"
         x="3"
         height="3.25"
         width="42.5"
         id="rect5207"
         style="opacity:0.52061857;fill:#000000;fill-opacity:1;fill-rule:evenodd;stroke:none;stroke-width:2;stroke-linecap:round;stroke-linejoin:miter;marker:none;marker-start:none;marker-mid:none;marker-end:none;stroke-miterlimit:4;stroke-dasharray:none;stroke-dashoffset:0;stroke-opacity:1;visibility:visible;display:inline;overflow:visible;filter:url(#filter6016);enable-background:accumulate"
         transform="matrix(1.0411765,0,0,1.0411765,-0.9985294,-1.7448529)" />
      <rect
         style="opacity:0.96391757;fill:#000000;fill-opacity:1;fill-rule:evenodd;stroke:none;stroke-width:2;stroke-linecap:round;stroke-linejoin:miter;marker:none;marker-start:none;marker-mid:none;marker-end:none;stroke-miterlimit:4;stroke-dasharray:none;stroke-dashoffset:0;stroke-opacity:1;visibility:visible;display:inline;overflow:visible;filter:url(#filter6100);enable-background:accumulate"
         id="rect5818"
         width="42.5"
         height="3.25"
         x="3"
         y="40.75"
         rx="1.7708334"
         ry="1.625"
         transform="matrix(0.9740834,0,0,0.519335,0.6284771,20.368178)" />
    </g>
    <path
       style="fill:url(#linearGradient3925);fill-opacity:1;fill-rule:nonzero;stroke:#888a85;stroke-width:0.99999952;stroke-miterlimit:4;stroke-dasharray:none;stroke-opacity:1"
       d="M 6.28125 5.5 C 6.2663081 5.503836 6.233543 5.5266404 6.21875 5.53125 C 6.1966889 5.5387286 6.1466089 5.5533935 6.125 5.5625 C 6.1107094 5.5689184 6.0765375 5.5866582 6.0625 5.59375 C 6.0486002 5.6011677 6.0136021 5.6169519 6 5.625 C 5.9865579 5.6333525 5.9505997 5.6473101 5.9375 5.65625 C 5.8599959 5.7115872 5.7796413 5.8026426 5.71875 5.875 C 5.7138153 5.8811247 5.6922914 5.900034 5.6875 5.90625 C 5.6364111 5.9755916 5.5931001 6.0788907 5.5625 6.15625 C 5.5573197 6.1704049 5.5356414 6.2044375 5.53125 6.21875 C 5.5212857 6.2547013 5.5046147 6.3072167 5.5 6.34375 C 5.4979067 6.3657076 5.5 6.4154941 5.5 6.4375 L 5.5 20.4375 L 3.59375 20.4375 C 3.5720642 20.4375 3.5230083 20.434002 3.5 20.4375 C 3.4767456 20.442072 3.4296584 20.461232 3.40625 20.46875 C 3.3597201 20.485566 3.2907189 20.505682 3.25 20.53125 C 3.2434885 20.535701 3.224954 20.557875 3.21875 20.5625 C 3.212886 20.567284 3.1929916 20.588823 3.1875 20.59375 C 3.1824132 20.598806 3.1608995 20.619832 3.15625 20.625 C 3.1520703 20.630266 3.1286775 20.650902 3.125 20.65625 C 3.1155717 20.672496 3.0977818 20.702178 3.09375 20.71875 C 3.0935825 20.721513 3.0937412 20.74724 3.09375 20.75 C 3.0941235 20.752748 3.093188 20.778512 3.09375 20.78125 C 3.0956521 20.786679 3.1222873 20.807134 3.125 20.8125 C 3.1250001 20.812501 5.15625 42.21875 5.15625 42.21875 C 5.1634649 42.23067 5.1794065 42.238128 5.1875 42.25 C 5.1917558 42.255907 5.2142923 42.275384 5.21875 42.28125 C 5.2234025 42.287063 5.2451598 42.306751 5.25 42.3125 C 5.3453946 42.420282 5.4900359 42.524051 5.625 42.5625 C 5.639284 42.565931 5.6731041 42.591622 5.6875 42.59375 C 5.7019305 42.595192 5.7355428 42.59375 5.75 42.59375 L 43 42.59375 C 43.036268 42.59173 43.088847 42.573473 43.125 42.5625 C 43.139393 42.557487 43.173303 42.53742 43.1875 42.53125 C 43.201569 42.524548 43.236245 42.507674 43.25 42.5 C 43.263568 42.491885 43.299365 42.477653 43.3125 42.46875 C 43.396281 42.408617 43.479921 42.321415 43.53125 42.25 C 43.534937 42.244547 43.559084 42.224147 43.5625 42.21875 C 43.562502 42.218749 45.375 20.8125 45.375 20.8125 C 45.38295 20.79596 45.4032 20.766847 45.40625 20.75 C 45.406739 20.744379 45.40628 20.724363 45.40625 20.71875 C 45.40571 20.71316 45.407293 20.693053 45.40625 20.6875 C 45.403178 20.676497 45.379996 20.635712 45.375 20.625 C 45.369067 20.614476 45.351505 20.603813 45.34375 20.59375 C 45.33943 20.588855 45.317255 20.567244 45.3125 20.5625 C 45.30732 20.557921 45.286848 20.535649 45.28125 20.53125 C 45.275243 20.527044 45.256407 20.503998 45.25 20.5 C 45.236401 20.492449 45.202616 20.475327 45.1875 20.46875 C 45.116179 20.441535 45.003836 20.4375 44.90625 20.4375 L 42.59375 20.4375 L 42.53125 11.21875 C 42.53125 11.101385 42.505529 10.996207 42.46875 10.90625 C 42.463883 10.895225 42.442901 10.854334 42.4375 10.84375 C 42.431835 10.833387 42.412436 10.822418 42.40625 10.8125 C 42.396584 10.797957 42.385807 10.763532 42.375 10.75 C 42.371273 10.745602 42.347601 10.723035 42.34375 10.71875 C 42.204522 10.580801 41.977886 10.5 41.71875 10.5 L 27.5 10.5 C 27.355189 10.5 27.209248 10.464449 27.0625 10.40625 C 27.008599 10.38359 26.927185 10.343942 26.875 10.3125 C 26.837958 10.28912 26.785661 10.246835 26.75 10.21875 C 26.629837 10.119994 26.500451 9.9701077 26.40625 9.8125 C 26.341145 9.698665 26.26448 9.5522787 26.21875 9.40625 L 24.96875 6.625 C 24.887725 6.4183867 24.770958 6.2142982 24.625 6.0625 C 24.509548 5.9468621 24.351512 5.8310049 24.21875 5.75 C 23.971182 5.6042427 23.682415 5.5200321 23.46875 5.5 C 23.444514 5.4982645 23.397865 5.5 23.375 5.5 L 6.46875 5.5 C 6.4611284 5.5 6.4451198 5.4997726 6.4375 5.5 C 6.4222716 5.5009026 6.3901837 5.4982235 6.375 5.5 C 6.3522746 5.5033041 6.3037577 5.4948424 6.28125 5.5 z "
       id="path2481" />
  </g>
</svg>
