<?xml version="1.0" encoding="UTF-8" standalone="no"?>
<!-- Created with Inkscape (http://www.inkscape.org/) -->
<svg
   xmlns:dc="http://purl.org/dc/elements/1.1/"
   xmlns:cc="http://creativecommons.org/ns#"
   xmlns:rdf="http://www.w3.org/1999/02/22-rdf-syntax-ns#"
   xmlns:svg="http://www.w3.org/2000/svg"
   xmlns="http://www.w3.org/2000/svg"
   xmlns:sodipodi="http://sodipodi.sourceforge.net/DTD/sodipodi-0.dtd"
   xmlns:inkscape="http://www.inkscape.org/namespaces/inkscape"
   width="180"
   height="34"
   id="svg6337"
   sodipodi:version="0.32"
   inkscape:version="0.46"
   version="1.0"
   sodipodi:docname="logo.svg"
   inkscape:output_extension="org.inkscape.output.svg.inkscape">
  <defs
     id="defs6339">
    <filter
       inkscape:collect="always"
       id="filter14833">
      <feBlend
         inkscape:collect="always"
         mode="screen"
         in2="BackgroundImage"
         id="feBlend14835" />
    </filter>
    <inkscape:perspective
       sodipodi:type="inkscape:persp3d"
       inkscape:vp_x="0 : 526.18109 : 1"
       inkscape:vp_y="0 : 1000 : 0"
       inkscape:vp_z="744.09448 : 526.18109 : 1"
       inkscape:persp3d-origin="372.04724 : 350.78739 : 1"
       id="perspective6345" />
  </defs>
  <sodipodi:namedview
     id="base"
     pagecolor="#ffffff"
     bordercolor="#666666"
     borderopacity="1.0"
     gridtolerance="10000"
     guidetolerance="10"
     objecttolerance="10"
     inkscape:pageopacity="0.0"
     inkscape:pageshadow="2"
     inkscape:zoom="1"
     inkscape:cx="52.857143"
     inkscape:cy="43.428571"
     inkscape:document-units="px"
     inkscape:current-layer="layer1"
     showgrid="false"
     borderlayer="true"
     inkscape:showpageshadow="false"
     inkscape:window-width="641"
     inkscape:window-height="652"
     inkscape:window-x="0"
     inkscape:window-y="0" />
  <metadata
     id="metadata6342">
    <rdf:RDF>
      <cc:Work
         rdf:about="">
        <dc:format>image/svg+xml</dc:format>
        <dc:type
           rdf:resource="http://purl.org/dc/dcmitype/StillImage" />
      </cc:Work>
    </rdf:RDF>
  </metadata>
  <g
     inkscape:label="Layer 1"
     inkscape:groupmode="layer"
     id="layer1"
     transform="translate(-478.57143,-641.11795)">
    <g
       style="display:inline;filter:url(#filter14833);enable-background:new"
       id="logo"
       transform="matrix(0.9234077,0,0,0.9214357,110.661,478.98874)"
       inkscape:label="#g9326"
       inkscape:export-xdpi="90"
       inkscape:export-ydpi="90"
       inkscape:export-filename="/home/jimmac/gfx/novell/products/openSUSE11/boot/logo.png">
      <g
         id="g7135"
         transform="translate(0,-23.400052)">
        <g
           id="g6881"
           style="fill:#eeeeec"
           transform="matrix(0.7832073,0,0,0.7832073,368.82473,-102.63546)">
          <path
             id="path9265"
             d="M 141.72658,385.83248 C 135.70314,385.83248 132.36773,390.93484 132.36773,394.46938 L 132.36773,398.99955 C 132.36773,404.18921 136.61147,407.41248 140.55668,407.41248 L 154.37083,407.41248 C 156.10082,407.41248 156.46179,408.54478 156.46179,409.50311 L 156.46179,412.42785 C 156.46179,412.73881 156.41209,415.55173 154.37083,415.55173 L 135.51645,415.55173 C 133.64945,415.55173 132.29318,416.84588 132.29318,418.62556 L 132.29318,419.4345 C 132.29318,421.20176 133.63703,422.50866 135.51645,422.50866 L 155.40404,422.50866 C 160.5937,422.50866 163.95397,418.89925 163.95397,413.29891 L 163.95397,408.40809 C 163.95397,403.15599 160.1706,400.80409 156.42452,400.80409 L 142.83435,400.80409 C 140.78066,400.80409 139.85991,399.28564 139.85991,398.19061 L 139.85991,395.50228 C 139.85991,393.79746 140.99221,392.82669 142.98345,392.82669 L 158.04235,392.82669 C 159.88419,392.82669 161.26563,391.50738 161.26563,389.75253 L 161.26563,388.9436 C 161.26563,387.20119 159.85933,385.86975 157.98024,385.86975 L 141.75143,385.86975"
             style="fill:#eeeeec;fill-opacity:1;stroke:none" />
          <path
             id="path9267"
             d="M 198.2655,385.83248 C 196.4858,385.83248 195.04224,387.27605 195.04224,389.05574 L 195.04224,412.20389 C 195.04224,414.0457 193.53623,415.5393 191.70682,415.5393 L 181.20293,415.5393 C 179.3611,415.5393 177.8675,414.0457 177.8675,412.20389 L 177.8675,389.05574 C 177.8675,387.27605 176.43637,385.83248 174.64424,385.83248 L 173.62377,385.83248 C 171.83165,385.83248 170.4005,387.2512 170.4005,389.05574 L 170.4005,413.08736 C 170.4005,418.67528 174.79367,422.73263 180.85438,422.73263 L 192.08022,422.73263 C 198.14093,422.73263 202.53409,418.67528 202.53409,413.08736 L 202.53409,389.05574 C 202.53409,387.2512 201.11538,385.83248 199.31083,385.83248 L 198.29035,385.83248"
             style="fill:#eeeeec;fill-opacity:1;stroke:none" />
          <path
             id="path9269"
             d="M 218.38949,385.83248 C 212.36607,385.83248 209.03065,390.93484 209.03065,394.46938 L 209.03065,398.99955 C 209.03065,404.18921 213.28682,407.41248 217.2196,407.41248 L 231.03374,407.41248 C 232.76374,407.41248 233.13714,408.54478 233.13714,409.50311 L 233.13714,412.42785 C 233.13714,412.73881 233.075,415.55173 231.03374,415.55173 L 212.17937,415.55173 C 210.31238,415.55173 208.9561,416.84588 208.9561,418.62556 L 208.9561,419.4345 C 208.9561,421.20176 210.31238,422.50866 212.17937,422.50866 L 232.05453,422.50866 C 237.25662,422.50866 240.60414,418.89925 240.60414,413.29891 L 240.60414,408.40809 C 240.60414,403.15599 236.83353,400.80409 233.075,400.80409 L 219.48452,400.80409 C 217.43115,400.80409 216.5104,399.28564 216.5104,398.19061 L 216.5104,395.50228 C 216.5104,393.79746 217.6427,392.82669 219.62152,392.82669 L 234.68043,392.82669 C 236.50983,392.82669 237.9037,391.50738 237.9037,389.75253 L 237.9037,388.9436 C 237.9037,387.20119 236.4974,385.86975 234.60557,385.86975 L 218.38949,385.86975"
             style="fill:#eeeeec;fill-opacity:1;stroke:none" />
          <path
             id="path9271"
             d="M 250.16212,385.83248 C 248.38274,385.83248 247.01372,387.15148 247.01372,388.90631 L 247.01372,419.4345 C 247.01372,421.17691 248.33272,422.50866 250.09999,422.50866 L 274.43045,422.50866 C 276.29744,422.50866 277.65404,421.21419 277.65404,419.4345 L 277.65404,418.62556 C 277.65404,416.8583 276.30987,415.55173 274.43045,415.55173 C 274.43045,415.55173 255.4018,415.55173 254.50558,415.55173 C 254.50558,414.75523 254.50558,408.56994 254.50558,407.77344 C 255.4018,407.77344 269.10412,407.77344 269.10412,407.77344 C 270.97079,407.77344 272.32738,406.47898 272.32738,404.68685 L 272.32738,403.89036 C 272.32738,402.11066 270.97079,400.80409 269.10412,400.80409 C 269.10412,400.80409 255.4018,400.80409 254.50558,400.80409 C 254.50558,400.0076 254.50558,393.61075 254.50558,392.81426 C 255.4018,392.81426 273.4224,392.81426 273.4224,392.81426 C 275.2894,392.81426 276.64599,391.5198 276.64599,389.7401 L 276.64599,388.93118 C 276.64599,387.15148 275.2894,385.85734 273.4224,385.85734 L 250.17487,385.85734"
             style="fill:#eeeeec;fill-opacity:1;stroke:none" />
          <path
             id="path9273"
             d="M 43.309295,400.35583 C 40.272644,400.35583 37.796032,402.72046 37.796032,405.6452 L 37.796032,417.15715 C 37.796032,420.11916 40.185526,422.53351 43.122629,422.53351 L 50.564881,422.53351 C 53.501984,422.53351 55.903901,420.11916 55.903901,417.15715 L 55.903901,405.6452 C 55.903901,402.73289 53.427302,400.35583 50.39064,400.35583 L 43.309295,400.35583 z M 41.703842,416.70888 L 41.703842,406.2053 C 41.703842,404.97296 42.711922,403.96491 43.944009,403.96491 L 49.743501,403.96491 C 50.950705,403.96491 51.983635,404.9857 51.983635,406.2053 L 51.983635,416.70888 C 51.983635,417.94123 50.975587,418.94926 49.743501,418.94926 L 43.894211,418.94926 C 42.662125,418.94926 41.703842,417.96608 41.703842,416.70888"
             style="fill:#eeeeec;fill-opacity:1;stroke:none" />
          <path
             id="path9275"
             d="M 72.779808,400.21914 C 70.626718,400.21914 69.021238,400.99079 67.714468,401.61301 C 66.930428,401.9861 66.245948,402.30979 65.710798,402.30979 C 65.486788,402.30979 65.275208,402.21039 65.163188,402.03611 L 64.677835,401.09019 C 64.565816,400.84136 64.068005,400.35583 63.445749,400.35583 L 62.723931,400.35583 C 62.026995,400.35583 61.454504,400.97836 61.454504,401.76211 L 61.454504,430.94644 C 61.454504,431.85476 62.163897,432.57671 63.08484,432.57671 L 63.719552,432.57671 C 64.615612,432.57671 65.349888,431.84234 65.349888,430.94644 L 65.349888,421.26389 C 65.349888,420.97779 65.536558,420.67894 65.710798,420.67894 C 66.245948,420.67894 66.930428,420.97779 67.726928,421.35119 C 69.021238,421.93613 70.639148,422.68261 72.792238,422.68261 L 73.464158,422.68261 C 77.259948,422.68261 79.624598,420.51741 79.624598,417.03258 L 79.624598,405.89403 C 79.624598,402.45921 77.210248,400.23156 73.464158,400.23156 L 72.779808,400.23156 L 72.779808,400.23156 L 72.779808,400.21914 z M 65.337428,416.4849 L 65.337428,406.4417 C 65.337428,405.06026 66.420188,403.97734 67.801608,403.97734 L 73.227758,403.97734 C 74.609208,403.97734 75.691808,405.06026 75.691808,406.4417 L 75.691808,416.4849 C 75.691808,417.84149 74.596778,418.94926 73.227758,418.94926 L 67.801608,418.94926 C 66.445068,418.94926 65.337428,417.84149 65.337428,416.4849"
             style="fill:#eeeeec;fill-opacity:1;stroke:none" />
          <path
             id="path9277"
             d="M 90.650998,400.35583 C 87.614428,400.35583 85.137958,402.72046 85.137958,405.6452 L 85.137958,417.06985 C 85.137958,420.03186 87.539868,422.54593 90.377318,422.54593 L 98.056188,422.54593 C 99.001798,422.54593 99.686468,421.89854 99.686468,421.00264 L 99.686468,420.50466 C 99.686468,419.60876 99.001798,418.9617 98.056188,418.9617 L 91.758758,418.9617 C 89.991488,418.9617 89.057998,418.10275 89.057998,416.44763 C 89.057998,416.44763 89.057998,413.5729 89.057998,413.11221 C 89.568398,413.11221 100.43326,413.11221 100.43326,413.11221 C 102.25023,413.11221 103.34526,411.99234 103.34526,410.1005 L 103.34526,405.67006 C 103.34526,402.75774 100.86879,400.38099 97.832218,400.38099 L 90.663738,400.38099 L 90.650998,400.35583 z M 89.045568,406.15529 C 89.045568,404.93568 90.003918,403.96491 91.235938,403.96491 L 97.222098,403.96491 C 98.454438,403.96491 99.412468,404.92325 99.412468,406.15529 C 99.412468,406.15529 99.412468,409.25429 99.412468,409.71468 C 98.927248,409.71468 89.531118,409.71468 89.045568,409.71468 C 89.045568,409.25429 89.045568,406.15529 89.045568,406.15529"
             style="fill:#eeeeec;fill-opacity:1;stroke:none" />
          <path
             id="path9279"
             d="M 119.17581,400.21914 C 117.03515,400.21914 115.4173,400.97836 114.12283,401.60059 C 113.31391,401.97368 112.61713,402.30979 112.05703,402.30979 C 111.80821,402.30979 111.70849,402.28494 111.52179,401.94881 L 111.07384,401.12746 C 110.82501,400.61739 110.38949,400.35583 109.79211,400.35583 L 109.15714,400.35583 C 108.39824,400.35583 107.85057,400.94076 107.85057,401.76211 L 107.85057,420.90291 C 107.85057,421.81156 108.5722,422.54593 109.48084,422.54593 L 110.11549,422.54593 C 111.01171,422.54593 111.74576,421.81156 111.74576,420.90291 L 111.74576,406.41685 C 111.74576,405.06026 112.85353,403.95249 114.21013,403.95249 L 119.63619,403.95249 C 120.99278,403.95249 122.10024,405.06026 122.10024,406.41685 L 122.10024,420.90291 C 122.10024,421.81156 122.82218,422.54593 123.73083,422.54593 L 124.36548,422.54593 C 125.26138,422.54593 125.99575,421.81156 125.99575,420.90291 L 125.99575,405.8816 C 125.99575,402.44679 123.5814,400.21914 119.83531,400.21914 L 119.15096,400.21914"
             style="fill:#eeeeec;fill-opacity:1;stroke:none" />
        </g>
        <path
           style="font-size:8.03233433px;font-style:normal;font-variant:normal;font-weight:normal;font-stretch:normal;text-indent:0;text-align:start;text-decoration:none;line-height:125%;letter-spacing:normal;word-spacing:normal;text-transform:none;direction:ltr;block-progression:tb;writing-mode:lr-tb;text-anchor:start;fill:#f1f2f0;fill-opacity:1;fill-rule:evenodd;stroke:none;stroke-width:0.59860146;stroke-linecap:butt;stroke-linejoin:miter;marker:none;marker-start:none;marker-mid:none;marker-end:none;stroke-miterlimit:4;stroke-dashoffset:0;stroke-opacity:1;visibility:visible;display:inline;overflow:visible;enable-background:accumulate;font-family:Sans;-inkscape-font-specification:Sans"
           d="M 590.39979,199.35287 C 590.89658,199.35288 591.38161,199.481 591.85487,199.73723 C 592.32812,199.99086 592.6968,200.35561 592.96089,200.83148 C 593.22496,201.30474 593.35701,201.79892 593.35701,202.31401 C 593.35701,202.82388 593.22627,203.31413 592.96481,203.78477 C 592.70595,204.25542 592.3412,204.62148 591.87056,204.88294 C 591.40252,205.1418 590.91227,205.27123 590.39979,205.27123 C 589.88731,205.27123 589.39575,205.1418 588.92511,204.88294 C 588.45708,204.62148 588.09233,204.25542 587.83086,203.78477 C 587.56939,203.31413 587.43866,202.82388 587.43866,202.31401 C 587.43866,201.79892 587.5707,201.30474 587.83478,200.83148 C 588.10148,200.35561 588.47146,199.99086 588.94472,199.73723 C 589.41798,199.481 589.903,199.35288 590.39979,199.35287 M 590.39979,199.84312 C 589.98406,199.84313 589.57878,199.95033 589.18396,200.16473 C 588.79176,200.37653 588.48453,200.68114 588.26228,201.07857 C 588.04003,201.47339 587.92891,201.8852 587.92891,202.31401 C 587.92891,202.74021 588.03742,203.14941 588.25444,203.54161 C 588.47407,203.9312 588.77999,204.23581 589.1722,204.45544 C 589.5644,204.67246 589.9736,204.78097 590.39979,204.78097 C 590.82599,204.78097 591.23518,204.67246 591.62739,204.45544 C 592.01959,204.23581 592.3242,203.9312 592.54123,203.54161 C 592.75824,203.14941 592.86675,202.74021 592.86676,202.31401 C 592.86675,201.8852 592.75563,201.47339 592.53338,201.07857 C 592.31374,200.68114 592.00652,200.37653 591.6117,200.16473 C 591.21688,199.95033 590.81291,199.84313 590.39979,199.84312 M 589.1016,203.9495 L 589.1016,200.7648 L 590.19585,200.7648 C 590.56975,200.76481 590.84037,200.79488 591.00771,200.85501 C 591.17505,200.91254 591.3084,201.01451 591.40776,201.16093 C 591.50711,201.30736 591.55679,201.46293 591.5568,201.62765 C 591.55679,201.86036 591.47312,202.063 591.30579,202.23557 C 591.14106,202.40814 590.92142,202.50488 590.64688,202.5258 C 590.75931,202.57287 590.84952,202.62908 590.9175,202.69445 C 591.04562,202.81995 591.2025,203.03044 591.38815,203.32589 L 591.77643,203.9495 L 591.1489,203.9495 L 590.86652,203.44748 C 590.64426,203.05266 590.46516,202.80557 590.3292,202.70621 C 590.23507,202.633 590.09779,202.5964 589.91738,202.5964 L 589.61539,202.5964 L 589.61539,203.9495 L 589.1016,203.9495 M 589.61539,202.15713 L 590.23899,202.15713 C 590.53706,202.15713 590.7397,202.11268 590.84691,202.02378 C 590.95672,201.93488 591.01163,201.81722 591.01163,201.67079 C 591.01163,201.57667 590.98548,201.493 590.93319,201.41978 C 590.88089,201.34396 590.80768,201.28775 590.71356,201.25114 C 590.62204,201.21453 590.45078,201.19623 590.19977,201.19623 L 589.61539,201.19623 L 589.61539,202.15713"
           id="text7129" />
      </g>
    </g>
  </g>
</svg>
