<?xml version="1.0" encoding="UTF-8" standalone="no"?>
<svg
   xmlns:dc="http://purl.org/dc/elements/1.1/"
   xmlns:cc="http://creativecommons.org/ns#"
   xmlns:rdf="http://www.w3.org/1999/02/22-rdf-syntax-ns#"
   xmlns:svg="http://www.w3.org/2000/svg"
   xmlns="http://www.w3.org/2000/svg"
   style="fill-rule:evenodd;stroke-width:28.22200012;stroke-linejoin:round"
   id="svg59"
   xml:space="preserve"
   preserveAspectRatio="xMidYMid"
   viewBox="0 0 600 600"
   height="600"
   width="600"
   version="1.2"><metadata
   id="metadata63"><rdf:RDF><cc:Work
       rdf:about=""><dc:format>image/svg+xml</dc:format><dc:type
         rdf:resource="http://purl.org/dc/dcmitype/StillImage" /><dc:title></dc:title></cc:Work></rdf:RDF></metadata>
 <defs
   id="defs8"
   class="ClipPathGroup">
  <clipPath
   clipPathUnits="userSpaceOnUse"
   id="presentation_clip_path">
   <rect
   id="rect2"
   height="17639"
   width="17145"
   y="0"
   x="0" />
  </clipPath>
  <clipPath
   clipPathUnits="userSpaceOnUse"
   id="presentation_clip_path_shrink">
   <rect
   id="rect5"
   height="17604"
   width="17111"
   y="17"
   x="17" />
  </clipPath>
 </defs>
 <defs
   id="defs10"
   class="TextShapeIndex" />
 <defs
   id="defs42"
   class="EmbeddedBulletChars">
  <g
   transform="matrix(4.8828125e-4,0,0,-4.8828125e-4,0,0)"
   id="bullet-char-template-57356">
   <path
   id="path12"
   d="M 580,1141 1163,571 580,0 -4,571 Z" />
  </g>
  <g
   transform="matrix(4.8828125e-4,0,0,-4.8828125e-4,0,0)"
   id="bullet-char-template-57354">
   <path
   id="path15"
   d="M 8,1128 H 1137 V 0 H 8 Z" />
  </g>
  <g
   transform="matrix(4.8828125e-4,0,0,-4.8828125e-4,0,0)"
   id="bullet-char-template-10146">
   <path
   id="path18"
   d="M 174,0 602,739 174,1481 1456,739 Z M 1358,739 309,1346 659,739 Z" />
  </g>
  <g
   transform="matrix(4.8828125e-4,0,0,-4.8828125e-4,0,0)"
   id="bullet-char-template-10132">
   <path
   id="path21"
   d="M 2015,739 1276,0 H 717 l 543,543 H 174 v 393 h 1086 l -543,545 h 557 z" />
  </g>
  <g
   transform="matrix(4.8828125e-4,0,0,-4.8828125e-4,0,0)"
   id="bullet-char-template-10007">
   <path
   id="path24"
   d="m 0,-2 c -7,16 -16,29 -25,39 l 381,530 c -94,256 -141,385 -141,387 0,25 13,38 40,38 9,0 21,-2 34,-5 21,4 42,12 65,25 l 27,-13 111,-251 280,301 64,-25 24,25 c 21,-10 41,-24 62,-43 C 886,937 835,863 770,784 769,783 710,716 594,584 L 774,223 c 0,-27 -21,-55 -63,-84 l 16,-20 C 717,90 699,76 672,76 641,76 570,178 457,381 L 164,-76 c -22,-34 -53,-51 -92,-51 -42,0 -63,17 -64,51 -7,9 -10,24 -10,44 0,9 1,19 2,30 z" />
  </g>
  <g
   transform="matrix(4.8828125e-4,0,0,-4.8828125e-4,0,0)"
   id="bullet-char-template-10004">
   <path
   id="path27"
   d="M 285,-33 C 182,-33 111,30 74,156 52,228 41,333 41,471 c 0,78 14,145 41,201 34,71 87,106 158,106 53,0 88,-31 106,-94 l 23,-176 c 8,-64 28,-97 59,-98 l 735,706 c 11,11 33,17 66,17 42,0 63,-15 63,-46 V 965 c 0,-36 -10,-64 -30,-84 L 442,47 C 390,-6 338,-33 285,-33 Z" />
  </g>
  <g
   transform="matrix(4.8828125e-4,0,0,-4.8828125e-4,0,0)"
   id="bullet-char-template-9679">
   <path
   id="path30"
   d="M 813,0 C 632,0 489,54 383,161 276,268 223,411 223,592 c 0,181 53,324 160,431 106,107 249,161 430,161 179,0 323,-54 432,-161 108,-107 162,-251 162,-431 0,-180 -54,-324 -162,-431 C 1136,54 992,0 813,0 Z" />
  </g>
  <g
   transform="matrix(4.8828125e-4,0,0,-4.8828125e-4,0,0)"
   id="bullet-char-template-8226">
   <path
   id="path33"
   d="m 346,457 c -73,0 -137,26 -191,78 -54,51 -81,114 -81,188 0,73 27,136 81,188 54,52 118,78 191,78 73,0 134,-26 185,-79 51,-51 77,-114 77,-187 0,-75 -25,-137 -76,-188 -50,-52 -112,-78 -186,-78 z" />
  </g>
  <g
   transform="matrix(4.8828125e-4,0,0,-4.8828125e-4,0,0)"
   id="bullet-char-template-8211">
   <path
   id="path36"
   d="M -4,459 H 1135 V 606 H -4 Z" />
  </g>
  <g
   transform="matrix(4.8828125e-4,0,0,-4.8828125e-4,0,0)"
   id="bullet-char-template-61548">
   <path
   id="path39"
   d="m 173,740 c 0,163 58,303 173,419 116,115 255,173 419,173 163,0 302,-58 418,-173 116,-116 174,-256 174,-419 0,-163 -58,-303 -174,-418 C 1067,206 928,148 765,148 601,148 462,206 346,322 231,437 173,577 173,740 Z" />
  </g>
 </defs>
 <defs
   id="defs44"
   class="TextEmbeddedBitmaps" />
 <g
   transform="matrix(0.00166145,0,0,0.00166145,3.0264279,559.11175)"
   id="g49">
  <g
   class="Master_Slide"
   id="id2">
   <g
   class="Background"
   id="bg-id2" />
   <g
   class="BackgroundObjects"
   id="bo-id2" />
  </g>
 </g>
 <g
   transform="matrix(0.00166145,0,0,0.00166145,3.0264279,559.11175)"
   id="g57"
   class="SlideGroup">
  <g
   id="g55">
   <g
   id="container-id1">
    <g
   clip-path="url(#presentation_clip_path)"
   class="Slide"
   id="id1">
     <g
   id="g51"
   class="Page" />
    </g>
   </g>
  </g>
 </g>
<path
   id="Geeko"
   d="m 538.07866,460.75917 c -2.41535,0.0155 -4.8818,0.1344 -7.39629,0.35927 -22.79513,2.03052 -43.96622,14.0554 -56.58245,32.17779 -5.58162,8.01902 -9.72102,16.97926 -11.94075,25.89586 -5.15506,20.39902 0.0454,42.07808 3.9125,51.68614 4.11525,10.18977 9.48655,19.90543 16.08474,29.12177 H 600 v -38.13058 c -12.27234,11.33144 -27.19486,19.49104 -41.0616,21.89631 -16.91808,2.92349 -47.77337,3.24591 -64.10792,-27.5926 -6.82922,-12.87072 -6.42152,-29.62409 1.05602,-43.75466 7.64146,-14.45515 21.28153,-23.74169 37.41901,-25.52686 16.00195,-1.72288 28.0349,1.98743 34.79401,10.71481 6.80492,8.80891 8.06609,20.83355 3.24861,30.60927 -5.19028,10.51564 -13.02719,16.08961 -23.89632,17.02872 -8.28167,0.72145 -14.41128,-2.72408 -16.65001,-6.23518 -0.63992,-1.10986 -1.80138,-3.14062 -1.80138,-6.03565 v -0.1078 c 0,-7.88211 7.19652,-10.03688 8.66017,-10.13149 0.46181,0.0162 2.61673,0.0785 5.49538,0.78612 l 1.38798,0.47731 0.95601,0.29166 0.7074,0.1676 c 5.23343,0.95296 10.28316,-2.13878 11.76021,-7.25046 0.26495,-0.9422 0.39444,-1.87983 0.39444,-2.80279 0,-3.38651 -1.71455,-6.54311 -4.56343,-8.48519 l 0.1,0.0616 -0.30001,-0.2 -0.475,-0.27824 c -1.51766,-0.93989 -2.89475,-1.49326 -4.35834,-1.93936 -4.11264,-1.33907 -7.76111,-1.9713 -11.39306,-1.9713 -12.5023,0.0323 -29.89057,10.7611 -30.1227,30.94631 -0.10022,11.38014 5.59471,21.74194 15.65093,28.40882 11.59228,7.66905 31.5762,10.25669 50.16023,-1.12269 22.8474,-13.98059 28.80705,-41.38451 22.84724,-60.06068 -7.99125,-24.9535 -29.32806,-39.18741 -57.82922,-39.00373 z"
   style="fill:#73ba25;fill-opacity:1;stroke-width:43.45296478;opacity:0.5" /></svg>