<?xml version="1.0" encoding="UTF-8" standalone="no"?>
<svg xmlns:dc="http://purl.org/dc/elements/1.1/" xmlns:cc="http://creativecommons.org/ns#" xmlns:rdf="http://www.w3.org/1999/02/22-rdf-syntax-ns#" xmlns:svg="http://www.w3.org/2000/svg" xmlns="http://www.w3.org/2000/svg" id="svg8" version="1.1" viewBox="0 0 256 256.00001" height="256" width="256">
  <defs id="defs2"/>
  <metadata id="metadata5">
    <rdf:RDF>
      <cc:Work rdf:about="">
        <dc:format>image/svg+xml</dc:format>
        <dc:type rdf:resource="http://purl.org/dc/dcmitype/StillImage"/>
        <dc:title/>
      </cc:Work>
    </rdf:RDF>
  </metadata>
  <g transform="translate(0,-866.51965)" id="layer1">
    <path id="rect1180" d="m 49.529203,1047.7773 c -4.715437,0 -8.511769,3.7963 -8.511769,8.5117 0,4.7041 3.778272,8.4928 8.477921,8.5109 H 31.002691 28.755847 c -4.715442,0 -8.510919,3.7964 -8.510919,8.5118 0,4.7154 3.795477,8.5117 8.510919,8.5117 h 1.095075 1.151769 32.994322 c 4.715442,0 8.510924,3.7964 8.510924,8.5118 0,4.7155 -3.795482,8.5119 -8.510924,8.5119 H 29.850922 c -0.01048,0 -0.02083,-8e-4 -0.03131,-10e-4 H 19.161705 c -4.715445,0 -8.511771,3.7963 -8.511771,8.5119 0,4.7154 3.796326,8.5117 8.511771,8.5117 h 34.145243 127.172162 31.02591 3.11935 c 4.71544,0 8.51177,-3.7963 8.51177,-8.5117 0,-4.7051 -3.77963,-8.4941 -8.48046,-8.5109 h 25.88481 c 4.71544,0 8.51178,-3.7964 8.51178,-8.5119 0,-4.7154 -3.79634,-8.5118 -8.51178,-8.5118 h -17.28164 c -4.71544,0 -8.51178,-3.7963 -8.51178,-8.5117 0,-4.7154 3.79634,-8.5118 8.51178,-8.5118 h 17.57191 c 4.71544,0 8.51178,-3.7963 8.51178,-8.5117 0,-4.7154 -3.79634,-8.5109 -8.51178,-8.5109 H 235.677 65.414511 54.744757 Z m 146.529717,17.0226 c 4.71544,0 8.51177,3.7964 8.51177,8.5118 0,4.7154 -3.79633,8.5081 -8.51177,8.5117 h -2.62344 c -4.71544,0 -8.51176,-3.7963 -8.51176,-8.5117 0,-4.7154 3.79632,-8.5118 8.51176,-8.5118 z m -80.08831,17.0235 h 18.51974 c 4.71444,-0.098 8.51177,3.7964 8.51177,8.5118 0,4.7155 -3.79733,8.4141 -8.51177,8.5119 h -18.51974 c -4.71544,-6e-4 -8.51177,-3.7963 -8.51177,-8.5119 0,-4.7154 3.79633,-8.5122 8.51177,-8.5117 z" style="opacity:1;fill:#21a4df;fill-opacity:1;stroke:none;stroke-width:2;stroke-linecap:round;stroke-linejoin:round;stroke-miterlimit:4;stroke-dasharray:none;stroke-opacity:1"/>
    <path id="path844-7" d="m 94.14622,933.23566 c -7.307155,-2.87505 -12.941973,-2.11482 -19.376946,-3.07108 -1.508949,-6.35316 -3.885358,-11.18825 -6.142117,-16.23275 0.431169,-0.57486 2.225744,-12.09151 -2.924819,-12.43046 -3.305291,-0.21759 -1.788959,8.90643 -1.977926,11.06263 -0.212611,-2.17643 -3.319912,-13.29693 -8.551422,-11.20887 -5.570719,2.22347 2.339853,17.8414 2.339853,17.8414 2.818171,4.74561 7.21915,9.68904 11.553035,14.62408 9.744376,2.52072 17.968569,6.44474 29.97942,6.87334" style="opacity:1;fill:#4a7718;fill-opacity:1;stroke:#4a7718;stroke-width:2;stroke-linecap:round;stroke-linejoin:round;stroke-miterlimit:4;stroke-dasharray:none;stroke-opacity:1"/>
    <ellipse ry="9.3232937" rx="9.2198858" cy="901.25543" cx="78.914078" id="path897-6" style="opacity:1;fill:#5d971e;fill-opacity:1;stroke:#4a7718;stroke-width:2;stroke-linecap:round;stroke-linejoin:round;stroke-miterlimit:4;stroke-dasharray:none;stroke-opacity:1"/>
    <ellipse ry="10.94056" rx="40.945858" cy="1063.6974" cx="135.9632" id="path1251" style="opacity:1;fill:#1a84b3;fill-opacity:1;stroke:#1a84b3;stroke-width:2;stroke-linecap:round;stroke-linejoin:round;stroke-miterlimit:4;stroke-dasharray:none;stroke-opacity:1"/>
    <rect y="876.9364" x="137.5452" height="49.753548" width="28.166264" id="rect834" style="opacity:1;fill:#12323f;fill-opacity:1;stroke:#0c212a;stroke-width:2;stroke-linecap:round;stroke-linejoin:round;stroke-miterlimit:4;stroke-dasharray:none;stroke-opacity:1"/>
    <path id="rect826" d="m 131.95196,877.18292 -3.09375,185.12228 c -0.0905,5.4152 13.57542,5.2535 13.47429,0 L 138.77,877.24542 c -0.0962,-4.99829 -6.72837,-5.42787 -6.81804,-0.0625 z" style="opacity:1;fill:#664242;fill-opacity:1;stroke:#402929;stroke-width:2;stroke-linecap:round;stroke-linejoin:round;stroke-miterlimit:4;stroke-dasharray:none;stroke-opacity:1"/>
    <path id="rect826-3" d="m 129.96755,1027.284 -0.43749,10.2939 c -0.22996,5.4109 11.92709,8.0877 11.97564,2.8335 l 0.1236,-13.3774 c -0.97599,-4.1716 -7.31692,0.5603 -11.66175,0.25 z" style="opacity:1;fill:#402929;fill-opacity:1;stroke:#402929;stroke-width:2;stroke-linecap:round;stroke-linejoin:round;stroke-miterlimit:4;stroke-dasharray:none;stroke-opacity:1"/>
    <rect y="885.98254" x="192.84976" height="49.75354" width="20.35372" id="rect832" style="opacity:1;fill:#12323f;fill-opacity:1;stroke:#0c212a;stroke-width:2;stroke-linecap:round;stroke-linejoin:round;stroke-miterlimit:4;stroke-dasharray:none;stroke-opacity:1"/>
    <path id="path836" d="m 80.858322,974.24344 c -1.753869,-14.61231 -1.195575,-30.09161 1.462401,-46.35835 -6.381909,-0.6118 -10.069694,-3.51392 -9.578775,-7.38515 1.380416,-10.88549 -0.139986,-17.02799 12.503619,-31.8074 6.243004,-2.69592 15.334693,-6.22126 22.104703,-3.64718 l 1.46242,8.04328 c 16.82239,5.04391 26.97407,22.38748 27.90968,80.56982 z" style="opacity:1;fill:#73ba25;fill-opacity:1;stroke:#4a7718;stroke-width:2;stroke-linecap:round;stroke-linejoin:round;stroke-miterlimit:4;stroke-dasharray:none;stroke-opacity:1"/>
    <ellipse ry="9.3232937" rx="9.2198858" cy="902.18622" cx="97.113869" id="path897" style="opacity:1;fill:#5d971e;fill-opacity:1;stroke:#4a7718;stroke-width:2;stroke-linecap:round;stroke-linejoin:round;stroke-miterlimit:4;stroke-dasharray:none;stroke-opacity:1"/>
    <path id="path836-5" d="m 79.300501,960.8106 c 26.291229,-3.77869 43.990109,-2.6409 54.413439,-27.74184 1.71795,10.6307 2.74065,23.9377 3.00843,40.5897 z" style="opacity:1;fill:#4a7718;fill-opacity:1;stroke:#4a7718;stroke-width:2;stroke-linecap:round;stroke-linejoin:round;stroke-miterlimit:4;stroke-dasharray:none;stroke-opacity:1"/>
    <path id="rect828" d="m 79.300501,960.8106 c -3.423482,0.37345 -6.924389,2.84614 -6.216467,6.21657 l 10.960338,52.18033 c 0.707916,3.3701 2.947455,5.133 6.216465,6.2163 29.077553,9.636 57.914333,7.7204 86.959523,0.3949 3.33926,-0.8422 5.46237,-2.8562 6.21647,-6.2164 l 11.79869,-52.57513 c 0.7541,-3.36029 -2.81392,-5.68489 -6.21645,-6.21657 -36.71079,-5.7364 -73.23608,-3.97972 -109.718569,0 z" style="opacity:1;fill:#664242;fill-opacity:1;stroke:#402929;stroke-width:2;stroke-linecap:round;stroke-linejoin:round;stroke-miterlimit:4;stroke-dasharray:none;stroke-opacity:1"/>
    <path id="path838" d="m 82.320723,927.88509 c 8.751275,0.8914 15.336735,-1.46591 21.936167,-3.80226" style="opacity:1;fill:none;stroke:#4a7718;stroke-width:2;stroke-linecap:round;stroke-linejoin:round;stroke-miterlimit:4;stroke-dasharray:none;stroke-opacity:1"/>
    <path id="path840" d="m 73.034427,920.49994 c 9.740982,-3.13646 26.031081,0.46179 34.387073,-3.33371" style="opacity:1;fill:none;stroke:#4a7718;stroke-width:2;stroke-linecap:round;stroke-linejoin:round;stroke-miterlimit:4;stroke-dasharray:none;stroke-opacity:1"/>
    <path id="path842" d="m 119.61219,930.0787 -2.55921,-0.53012" style="opacity:1;fill:none;stroke:#4a7718;stroke-width:2;stroke-linecap:round;stroke-linejoin:round;stroke-miterlimit:4;stroke-dasharray:none;stroke-opacity:1"/>
    <path id="path897-9" d="m 90.797763,908.97861 c 1.65018,1.56957 3.872376,2.53115 6.316655,2.5309 5.091862,-1.1e-4 9.219592,-4.17421 9.219662,-9.32317 -5e-5,-2.36295 -0.86938,-4.52062 -2.30231,-6.16375 2.30231,6.16375 -6.917352,15.48692 -13.234007,12.95602 z" style="opacity:1;fill:#4a7718;fill-opacity:1;stroke:#4a7718;stroke-width:2;stroke-linecap:round;stroke-linejoin:round;stroke-miterlimit:4;stroke-dasharray:none;stroke-opacity:1"/>
    <path id="path846" d="m 96.390068,899.44576 -51.083553,-3.56758 -0.620447,28.02356 52.53127,-17.06231 c 2.44625,-0.92617 1.04116,-7.27208 -0.82727,-7.39367 z" style="opacity:1;fill:#ffcc00;fill-opacity:1;stroke:#aa8800;stroke-width:2;stroke-linecap:round;stroke-linejoin:round;stroke-miterlimit:4;stroke-dasharray:none;stroke-opacity:1"/>
    <path id="path848" d="m 60.550317,918.7575 c 8.301682,-1.84921 9.4206,-21.72768 -1.822186,-21.95492" style="opacity:1;fill:none;stroke:#aa8800;stroke-width:2;stroke-linecap:round;stroke-linejoin:round;stroke-miterlimit:4;stroke-dasharray:none;stroke-opacity:1"/>
    <path id="path852" d="m 90.073392,960.34047 0.333764,3.46701" style="opacity:1;fill:none;stroke:#402929;stroke-width:2;stroke-linecap:round;stroke-linejoin:round;stroke-miterlimit:4;stroke-dasharray:none;stroke-opacity:1"/>
    <path id="path854" d="m 90.938808,966.83386 0.50223,4.22736" style="opacity:1;fill:none;stroke:#402929;stroke-width:2;stroke-linecap:round;stroke-linejoin:round;stroke-miterlimit:4;stroke-dasharray:none;stroke-opacity:1"/>
    <path id="path856" d="m 91.961229,974.44064 6.461709,51.20286" style="opacity:1;fill:none;stroke:#402929;stroke-width:2;stroke-linecap:round;stroke-linejoin:round;stroke-miterlimit:4;stroke-dasharray:none;stroke-opacity:1"/>
    <path id="path866" d="m 130.34878,958.00938 0.14985,24.24021 m 0.12006,3.56204 -5.7e-4,1.95973 m 0.12434,4.30165 -0.0115,1.41649 m 0.12435,3.40652 0.61224,30.13798" style="opacity:1;fill:none;stroke:#402929;stroke-width:2;stroke-linecap:round;stroke-linejoin:round;stroke-miterlimit:4;stroke-dasharray:none;stroke-opacity:1"/>
    <path id="path870" d="m 164.83927,958.6018 -4.58043,67.1235" style="opacity:1;fill:none;stroke:#402929;stroke-width:2;stroke-linecap:round;stroke-linejoin:round;stroke-miterlimit:4;stroke-dasharray:none;stroke-opacity:1"/>
    <path id="path874" d="m 108.81268,893.08864 1.74429,7.54629" style="opacity:1;fill:none;stroke:#4a7718;stroke-width:2;stroke-linecap:round;stroke-linejoin:round;stroke-miterlimit:4;stroke-dasharray:none;stroke-opacity:1"/>
    <ellipse cx="41.32531" cy="909.83826" rx="10.909535" ry="15.718009" id="path879" style="opacity:1;fill:#ffcc00;fill-opacity:1;stroke:#aa8800;stroke-width:2;stroke-linecap:round;stroke-linejoin:round;stroke-miterlimit:4;stroke-dasharray:none;stroke-opacity:1"/>
    <path id="path879-3" d="m 40.799729,895.88804 c -5.62105,2.8e-4 -12.090808,5.98248 -12.091009,13.93599 -2.65e-4,7.95398 6.555293,14.03143 12.17667,14.03172 5.621855,6.2e-4 9.680142,-6.07707 9.679871,-14.03172 -1.99e-4,-7.95417 -4.144011,-13.93663 -9.765532,-13.93599 z" style="opacity:1;fill:#5d971e;fill-opacity:1;stroke:#4a7718;stroke-width:2;stroke-linecap:round;stroke-linejoin:round;stroke-miterlimit:4;stroke-dasharray:none;stroke-opacity:1"/>
    <path id="path838-2" d="m 104.25689,924.08283 c -6.599432,2.33635 -13.184892,4.69366 -21.936167,3.80226 l -1.49357,11.32101 c 12.473989,-2.11248 16.284105,-9.66507 23.429737,-15.12327 z" style="opacity:1;fill:#4a7718;fill-opacity:1;stroke:#4a7718;stroke-width:2;stroke-linecap:round;stroke-linejoin:round;stroke-miterlimit:4;stroke-dasharray:none;stroke-opacity:1"/>
    <path id="path846-2" d="m 96.390068,899.44576 c -5.592305,9.53285 -38.877225,19.75077 -51.704,24.45598 l 52.53127,-17.06231 c 2.44625,-0.92617 1.04116,-7.27208 -0.82727,-7.39367 z" style="opacity:1;fill:#aa8800;fill-opacity:1;stroke:#aa8800;stroke-width:2;stroke-linecap:round;stroke-linejoin:round;stroke-miterlimit:4;stroke-dasharray:none;stroke-opacity:1"/>
    <path id="path844" d="m 113.28757,928.74871 c -7.30714,-2.87505 -13.403492,-4.82571 -19.838472,-5.78199 -3.176256,-5.35275 -5.979541,-6.65972 -4.986236,-13.65422 0.431169,-0.57489 2.22574,-12.09152 -2.924816,-12.43048 -3.305298,-0.2176 -1.78898,8.90644 -1.977946,11.06262 -0.212612,-2.17641 -3.31991,-13.29691 -8.551412,-11.20885 -5.570723,2.22346 2.339847,17.8414 2.339847,17.8414 2.818177,4.74559 7.219167,9.68901 11.55305,14.62407 9.744393,2.52074 17.968555,6.44474 29.979415,6.87333" style="opacity:1;fill:#73ba25;fill-opacity:1;stroke:#4a7718;stroke-width:2;stroke-linecap:round;stroke-linejoin:round;stroke-miterlimit:4;stroke-dasharray:none;stroke-opacity:1"/>
    <path id="path850" d="m 27.313528,910.14848 7.203969,0.1161" style="opacity:1;fill:none;stroke:#4a7718;stroke-width:4;stroke-linecap:round;stroke-linejoin:round;stroke-miterlimit:4;stroke-dasharray:none;stroke-opacity:1"/>
    <path id="path1046" d="m 165.71148,876.93645 -15.21388,3.0839 v 48.10881 l 15.21388,-1.43914 z" style="fill:#0c212a;fill-opacity:1;stroke:#0c212a;stroke-width:2;stroke-linecap:round;stroke-linejoin:round;stroke-miterlimit:4;stroke-dasharray:none;stroke-opacity:1"/>
    <path id="path1044" d="m 192.84977,885.98255 4.93426,-5.9622 v 48.10881 l -4.93426,7.60694 z" style="fill:#0c212a;fill-opacity:1;stroke:#0c212a;stroke-width:2;stroke-linecap:round;stroke-linejoin:round;stroke-miterlimit:4;stroke-dasharray:none;stroke-opacity:1"/>
    <rect y="880.02032" x="150.49759" height="48.108791" width="47.286419" id="rect830" style="opacity:1;fill:#173f4f;fill-opacity:1;stroke:#0c212a;stroke-width:2;stroke-linecap:round;stroke-linejoin:round;stroke-miterlimit:4;stroke-dasharray:none;stroke-opacity:1"/>
    <path id="rect828-5" d="m 90.260837,1025.4238 c 29.131323,7.9029 58.060073,8.5068 86.959523,0.3949 3.31569,-0.9307 5.46237,-2.8562 6.21647,-6.2164 l 11.79869,-52.57531 c -28.5404,34.26741 -42.58914,51.01521 -104.974683,58.39681 z" style="opacity:1;fill:#402929;fill-opacity:1;stroke:#402929;stroke-width:2;stroke-linecap:round;stroke-linejoin:round;stroke-miterlimit:4;stroke-dasharray:none;stroke-opacity:1"/>
    <path id="path879-3-1" d="m 33.844116,920.93444 c 2.139557,1.84277 4.673177,2.92117 7.041078,2.9213 5.621854,6.3e-4 9.679807,-6.07706 9.679536,-14.03171 -9.3e-5,-3.659 -0.876892,-6.90062 -2.371002,-9.33456 2.371002,9.33456 -7.308534,23.36627 -14.349612,20.44497 z" style="opacity:1;fill:#4a7718;fill-opacity:1;stroke:#4a7718;stroke-width:2;stroke-linecap:round;stroke-linejoin:round;stroke-miterlimit:4;stroke-dasharray:none;stroke-opacity:1"/>
    <g style="stroke-width:0.12212773;stroke-miterlimit:4;stroke-dasharray:none" transform="matrix(16.376297,0,0,16.376297,-187.9542,482.50405)" id="g1063">
      <g style="fill:#ffffff;stroke:none;stroke-width:2.4910128;stroke-miterlimit:4;stroke-dasharray:none" id="g10" transform="matrix(0.04902734,0,0,0.04902734,19.671875,34.48393)">
        <path id="path4" style="stroke:none;stroke-width:2.4910128;stroke-miterlimit:4;stroke-dasharray:none;paint-order:fill markers stroke" d="m 39.048,-200.5 -0.10443,0.0318 -0.0402,0.0895 c 0,0 -0.55772,3.158 -0.56326,3.471 -0.46978,5.4734 -0.69586,9.1015 -0.76519,11.83 0.99382,2.7736 2.5591,5.3258 2.5525,6.1874 -0.0023,0.45169 -0.22448,2.4786 -1.1704,3.9148 0.53469,0.96174 1.1409,0.97245 2.5659,1.131 1.398,0.15987 2.9919,0.34321 4.6369,0.38007 4.5956,0.0269 9.5405,-0.81643 12.592,-2.1569 1.973,-0.86978 2.6681,-1.2808 3.4578,-2.003 0.28472,-0.23477 0.43446,-0.62673 0.58683,-1.0337 l 0.10397,-0.2749 c 0.1279,-0.32869 0.31187,-1.0359 0.39414,-1.4216 0.0367,-0.16884 0.05432,-0.3503 -0.06468,-0.44421 l -0.42603,0.0807 c -0.26911,0.11202 -0.54831,0.21911 -0.83219,0.3238 l -0.47916,0.17205 c -0.50115,0.17311 0.02305,0.0216 -0.51231,0.17346 l -0.2715,0.83093 -0.75179,-0.52813 c -0.5206,0.13801 -1.0523,0.26726 -1.5951,0.38561 l -0.55772,0.11993 c -0.70134,0.14231 -1.416,0.26855 -2.1385,0.37733 l -0.60208,0.89388 -0.59607,-0.72326 c -0.57069,0.0769 -0.62569,0.0735 -1.1995,0.12869 l -0.65567,0.059 c -0.46888,0.0383 -0.937,0.0704 -1.4024,0.0936 l -0.50782,0.77308 -0.5228,-0.75001 c -0.56344,0.0214 -0.59988,0.0333 -1.1504,0.0318 l -0.44821,-0.006 c -0.56757,-0.008 -0.86408,-0.0256 -1.4087,-0.0595 l -0.65217,0.93361 -0.59146,-1.0291 c -0.78028,-0.058 -0.9396,-0.0694 -1.6491,-0.18357 l -0.41818,-0.0706 c -0.16838,-0.0305 -0.33498,-0.062 -0.49811,-0.096 l -0.13076,-1.589 c 0.21108,0.0131 0.41845,0.0289 0.62887,0.0429 l 0.41817,-0.80258 0.50696,0.86236 c 0.75184,0.0512 0.99061,0.0731 1.7336,0.12334 l 0.38814,0.0264 c 0.56053,0.0368 1.1175,0.0692 1.6727,0.0973 l 0.44821,-0.81091 0.40134,0.83351 c 0.56077,0.0251 0.71684,0.0417 1.2718,0.0503 l 0.50782,0.005 c 0.45082,0.002 0.89921,-0.005 1.346,-0.0194 l 0.62981,-0.76057 0.44926,0.71231 c 0.54672,-0.0282 0.66738,-0.0518 1.2077,-0.11176 l 0.68202,-0.0858 c 0.70909,-0.0993 1.4125,-0.23128 2.1098,-0.40269 l 0.47732,-0.80953 0.48907,0.52671 c 0.43995,-0.12234 0.4654,-0.12572 0.90038,-0.28315 l 0.53138,-0.20433 c 0.51368,-0.20511 1.0235,-0.43863 1.5299,-0.70021 l 0.95523,-0.56215 c 0.54029,-0.30014 0.58025,-0.31779 1.1116,-0.69385 0.25915,-0.17777 0.45713,-0.31746 0.53831,-0.34733 0.10977,-0.12396 0.07296,-0.23627 0.04772,-0.36543 -0.3654,-1.7846 -2.3381,-8.0651 -3.8404,-9.6264 -0.43599,-0.44831 -0.78292,-0.88489 -1.4869,-1.3008 -5.6922,-3.3355 -19.208,-5.3439 -19.84,-5.4367 z m 1.882,2.1495 c 0.16004,0.007 0.3394,0.037 0.53415,0.0738 1.9592,0.37109 5.4367,1.1737 7.0087,1.3866 0.41792,0.037 0.45544,0.44782 0.18483,0.69374 -3.4445,4.0272 -5.2221,6.5962 -6.895,11.673 -0.25233,0.44274 -0.7286,0.3786 -0.92321,-0.0978 -1.4239,-3.9196 -1.3092,-8.4125 -0.69957,-13.081 0.08502,-0.46688 0.3105,-0.62534 0.63673,-0.64668 0.04894,-0.003 0.10006,-0.003 0.15341,-0.001 z m 12.936,3.6015 c 0.09591,-0.003 0.19271,-0.003 0.28926,0 3.1886,0.11517 5.694,2.8151 5.585,6.0181 -0.05673,1.5492 -0.70657,2.9807 -1.8321,4.0384 -1.1289,1.0632 -2.5958,1.6177 -4.1461,1.5674 -3.1831,-0.11964 -5.6885,-2.8196 -5.585,-6.0181 0.0545,-1.5518 0.70776,-2.9924 1.84,-4.0467 1.0573,-0.99674 2.4103,-1.5374 3.849,-1.5591 z m 8.0442,8.1478 c 0.04358,0.003 0.08439,0.0139 0.12199,0.0314 0.36467,0.17022 0.35743,0.95402 -0.01618,1.7505 -0.3735,0.79634 -0.9718,1.3038 -1.3363,1.1333 -0.36436,-0.17061 -0.3569,-0.9543 0.01663,-1.7505 0.32903,-0.70144 0.8414,-1.193 1.2139,-1.1647 z"/>
        <path style="stroke:none;stroke-width:2.4910128;stroke-miterlimit:4;stroke-dasharray:none" id="path6" d="m 65.375,-176.04 c -2.5209,0.0321 -4.3207,1.3411 -3.7861,4.5525 l -11.584,4.5798 4.3115,1.7556 9.7682,-3.6726 c 2.4039,2.9677 5.6545,2.381 5.8942,-0.85896 0.24474,-3.3085 -1.6261,-1.7993 -2.7105,-2.7916 -0.85654,-0.78382 0.51304,-3.5954 -1.893,-3.5647 z m -20.908,11.444 -8.9509,3.4167 c -1.6957,-1.3553 -4.2094,-2.4534 -5.1097,-0.26293 -0.74864,1.8215 0.47904,1.1725 1.7382,2.5794 0.93558,1.0454 -0.88268,2.3261 0.21477,2.6134 1.5076,0.39458 3.7436,0.61558 3.434,-1.9382 l 12.872,-4.7929 z"/>
        <path style="stroke:none;stroke-width:2.4910128;stroke-miterlimit:4;stroke-dasharray:none" id="path8" d="m 64.484,-160.67 -26.072,-10.308 c 0.53464,-3.2114 -1.2652,-4.5205 -3.7861,-4.5525 -2.4061,-0.0306 -1.0365,2.7809 -1.893,3.5647 -1.0844,0.99233 -2.9552,-0.51683 -2.7105,2.7917 0.23968,3.24 3.4904,3.8267 5.8942,0.85896 l 28.29,10.636 c -0.30964,2.5538 1.9264,2.3328 3.434,1.9383 1.0975,-0.28723 -0.72084,-1.568 0.21475,-2.6134 1.2592,-1.4069 2.4869,-0.75796 1.7382,-2.5794 -0.9003,-2.1905 -3.414,-1.0924 -5.1097,0.26289 z"/>
      </g>
    </g>
    <path id="path1293" d="m 97.187808,991.87914 a 3.5867859,5.69666 0 0 1 3.586792,5.69661 3.5867859,5.69666 0 0 1 -3.586792,5.69665 3.5867859,5.69666 0 0 1 -0.14506,-0.012 l -1.043944,-11.05719 a 3.5867859,5.69666 0 0 1 1.189004,-0.3295 z" style="opacity:1;fill:#402929;fill-opacity:1;stroke:#402929;stroke-width:2;stroke-linecap:round;stroke-linejoin:round;stroke-miterlimit:4;stroke-dasharray:none;stroke-opacity:1"/>
    <ellipse ry="1.7582284" rx="1.8988867" cy="965.56427" cx="99.718071" id="path1298" style="opacity:1;fill:#402929;fill-opacity:1;stroke:none;stroke-width:2;stroke-linecap:round;stroke-linejoin:round;stroke-miterlimit:4;stroke-dasharray:none;stroke-opacity:1"/>
    <ellipse ry="1.7582284" rx="1.8988867" cy="964.59271" cx="122.32076" id="path1298-9" style="opacity:1;fill:#402929;fill-opacity:1;stroke:none;stroke-width:2;stroke-linecap:round;stroke-linejoin:round;stroke-miterlimit:4;stroke-dasharray:none;stroke-opacity:1"/>
    <ellipse ry="1.7582284" rx="1.8988867" cy="964.99054" cx="135.84738" id="path1298-4" style="opacity:1;fill:#402929;fill-opacity:1;stroke:none;stroke-width:2;stroke-linecap:round;stroke-linejoin:round;stroke-miterlimit:4;stroke-dasharray:none;stroke-opacity:1"/>
    <ellipse ry="1.7582284" rx="1.8988867" cy="964.99054" cx="158.32544" id="path1298-7" style="opacity:1;fill:#402929;fill-opacity:1;stroke:none;stroke-width:2;stroke-linecap:round;stroke-linejoin:round;stroke-miterlimit:4;stroke-dasharray:none;stroke-opacity:1"/>
    <ellipse ry="1.7582284" rx="1.8988867" cy="966.38287" cx="170.85745" id="path1298-8" style="opacity:1;fill:#402929;fill-opacity:1;stroke:none;stroke-width:2;stroke-linecap:round;stroke-linejoin:round;stroke-miterlimit:4;stroke-dasharray:none;stroke-opacity:1"/>
    <ellipse ry="1.7582284" rx="1.8988867" cy="967.57642" cx="188.95921" id="path1298-45" style="opacity:1;fill:#402929;fill-opacity:1;stroke:none;stroke-width:2;stroke-linecap:round;stroke-linejoin:round;stroke-miterlimit:4;stroke-dasharray:none;stroke-opacity:1"/>
    <ellipse ry="1.7582284" rx="1.8988867" cy="967.17859" cx="83.133339" id="path1298-0" style="opacity:1;fill:#402929;fill-opacity:1;stroke:none;stroke-width:2;stroke-linecap:round;stroke-linejoin:round;stroke-miterlimit:4;stroke-dasharray:none;stroke-opacity:1"/>
    <ellipse ry="1.7582284" rx="1.8988867" cy="1018.5221" cx="90.504951" id="path1298-3" style="opacity:1;fill:#402929;fill-opacity:1;stroke:none;stroke-width:2;stroke-linecap:round;stroke-linejoin:round;stroke-miterlimit:4;stroke-dasharray:none;stroke-opacity:1"/>
    <ellipse ry="1.7582284" rx="1.8988867" cy="1018.2408" cx="104.00815" id="path1298-6" style="opacity:1;fill:#402929;fill-opacity:1;stroke:none;stroke-width:2;stroke-linecap:round;stroke-linejoin:round;stroke-miterlimit:4;stroke-dasharray:none;stroke-opacity:1"/>
    <ellipse ry="1.5625" rx="1.6875" cy="880.64465" cx="135.625" id="path1298-1" style="opacity:1;fill:#402929;fill-opacity:1;stroke:none;stroke-width:2;stroke-linecap:round;stroke-linejoin:round;stroke-miterlimit:4;stroke-dasharray:none;stroke-opacity:1"/>
    <ellipse ry="1.5625" rx="1.6875" cy="922.39465" cx="135.375" id="path1298-06" style="opacity:1;fill:#402929;fill-opacity:1;stroke:none;stroke-width:2;stroke-linecap:round;stroke-linejoin:round;stroke-miterlimit:4;stroke-dasharray:none;stroke-opacity:1"/>
    <path id="path842-3" d="m 111.57072,905.57582 -0.37389,-1.5942" style="opacity:1;fill:none;stroke:#4a7718;stroke-width:2;stroke-linecap:round;stroke-linejoin:round;stroke-miterlimit:4;stroke-dasharray:none;stroke-opacity:1"/>
  </g>
</svg>