<?xml version="1.0" encoding="UTF-8" standalone="no"?>
<!-- Created with Inkscape (http://www.inkscape.org/) -->

<svg
   xmlns:dc="http://purl.org/dc/elements/1.1/"
   xmlns:cc="http://creativecommons.org/ns#"
   xmlns:rdf="http://www.w3.org/1999/02/22-rdf-syntax-ns#"
   xmlns:svg="http://www.w3.org/2000/svg"
   xmlns="http://www.w3.org/2000/svg"
   xmlns:xlink="http://www.w3.org/1999/xlink"
   xmlns:sodipodi="http://sodipodi.sourceforge.net/DTD/sodipodi-0.dtd"
   xmlns:inkscape="http://www.inkscape.org/namespaces/inkscape"
   width="200"
   height="150"
   viewBox="0 0 52.916665 39.687501"
   version="1.1"
   id="svg8"
   inkscape:version="0.92.2 5c3e80d, 2017-08-06"
   sodipodi:docname="splash.svg">
  <defs
     id="defs2">
    <linearGradient
       id="linearGradient4380">
      <stop
         offset="0"
         style="stop-color:#000000"
         id="stop4382" />
      <stop
         offset="1"
         style="stop-color:#000000;stop-opacity:0"
         id="stop4384" />
    </linearGradient>
    <linearGradient
       id="linearGradient3694">
      <stop
         offset="0"
         style="stop-color:#b7b7b7"
         id="stop3702" />
      <stop
         offset="1"
         style="stop-color:#000000"
         id="stop3698" />
    </linearGradient>
    <linearGradient
       id="linearGradient3743">
      <stop
         offset="0"
         style="stop-color:#ffffff"
         id="stop3745" />
      <stop
         offset="0.5"
         style="stop-color:#7fd4ee"
         id="stop3751" />
      <stop
         offset="1"
         style="stop-color:#00aade"
         id="stop3747" />
    </linearGradient>
    <linearGradient
       id="linearGradient3652">
      <stop
         offset="0"
         style="stop-color:#ffffff"
         id="stop3654" />
      <stop
         offset="0.49903482"
         style="stop-color:#d5e2ec"
         id="stop3662" />
      <stop
         offset="1"
         style="stop-color:#d5e2ec"
         id="stop3656" />
    </linearGradient>
    <filter
       id="filter3729"
       color-interpolation-filters="sRGB">
      <feGaussianBlur
         id="feGaussianBlur3731"
         stdDeviation="6.4154088" />
    </filter>
    <linearGradient
       gradientTransform="translate(-1581.6355,147.78233)"
       gradientUnits="userSpaceOnUse"
       xlink:href="#linearGradient3652"
       id="linearGradient3737"
       y2="663.80927"
       x2="1557.8665"
       y1="17.489901"
       x1="965.02625" />
    <linearGradient
       gradientUnits="userSpaceOnUse"
       xlink:href="#linearGradient3743"
       id="linearGradient3966"
       y2="581.41302"
       x2="159.24117"
       y1="441.98093"
       x1="33.526711" />
    <linearGradient
       gradientTransform="translate(-0.38239847,2.6767893)"
       gradientUnits="userSpaceOnUse"
       xlink:href="#linearGradient3743"
       id="linearGradient3968"
       y2="531.48969"
       x2="305.39166"
       y1="426.95151"
       x1="245.51741" />
    <linearGradient
       gradientUnits="userSpaceOnUse"
       xlink:href="#linearGradient3743"
       id="linearGradient3970"
       y2="543.35834"
       x2="668.81775"
       y1="434.94836"
       x1="601.53467" />
    <linearGradient
       gradientTransform="translate(-0.50986462,6.1183754)"
       gradientUnits="userSpaceOnUse"
       xlink:href="#linearGradient3743"
       id="linearGradient3972"
       y2="535.30469"
       x2="486.95523"
       y1="455.93307"
       x1="440.52084" />
    <linearGradient
       gradientUnits="userSpaceOnUse"
       xlink:href="#linearGradient4380"
       id="linearGradient4386"
       y2="254.24648"
       x2="291.87143"
       y1="254.24648"
       x1="118.25153" />
    <filter
       id="filter4631"
       color-interpolation-filters="sRGB">
      <feGaussianBlur
         stdDeviation="2.3336003"
         id="feGaussianBlur4633" />
    </filter>
    <linearGradient
       gradientTransform="matrix(3.7524926,0,0,3.7524926,-424.92228,-686.03042)"
       gradientUnits="userSpaceOnUse"
       xlink:href="#linearGradient3694"
       id="linearGradient4162"
       y2="253.70575"
       x2="236.40213"
       y1="164.16707"
       x1="174.28104" />
    <filter
       id="filter4223"
       color-interpolation-filters="sRGB">
      <feGaussianBlur
         stdDeviation="4.6672006"
         id="feGaussianBlur4225" />
    </filter>
    <filter
       id="filter4266"
       color-interpolation-filters="sRGB">
      <feGaussianBlur
         stdDeviation="1.308628"
         id="feGaussianBlur4268" />
    </filter>
  </defs>
  <sodipodi:namedview
     id="base"
     pagecolor="#ffffff"
     bordercolor="#666666"
     borderopacity="1.0"
     inkscape:pageopacity="0.0"
     inkscape:pageshadow="2"
     inkscape:zoom="2"
     inkscape:cx="95.461042"
     inkscape:cy="59.976893"
     inkscape:document-units="px"
     inkscape:current-layer="layer1"
     showgrid="false"
     showguides="false"
     inkscape:guide-bbox="true"
     units="px"
     inkscape:lockguides="true"
     inkscape:window-width="800"
     inkscape:window-height="700"
     inkscape:window-x="566"
     inkscape:window-y="27"
     inkscape:window-maximized="0">
    <sodipodi:guide
       position="53.026161,2.0392578e-05"
       orientation="0,1"
       id="guide909"
       inkscape:locked="true" />
    <sodipodi:guide
       position="87.129864,33.943231"
       orientation="1,0"
       id="guide911"
       inkscape:locked="true" />
    <sodipodi:guide
       position="53.02616,39.687491"
       orientation="0,1"
       id="guide913"
       inkscape:locked="true" />
    <sodipodi:guide
       position="26.458333,18.142858"
       orientation="1,0"
       id="guide915"
       inkscape:locked="true"
       inkscape:label=""
       inkscape:color="rgb(0,0,255)" />
    <sodipodi:guide
       position="52.916666,31.749991"
       orientation="0,1"
       id="guide1056"
       inkscape:locked="true" />
    <sodipodi:guide
       position="55.694791,26.458333"
       orientation="0,1"
       id="guide1058"
       inkscape:locked="true"
       inkscape:label=""
       inkscape:color="rgb(0,0,255)" />
    <sodipodi:guide
       position="52.916666,5.2916666"
       orientation="0,1"
       id="guide1060"
       inkscape:locked="true"
       inkscape:label=""
       inkscape:color="rgb(0,0,255)" />
    <sodipodi:guide
       position="13.229167,10.102788"
       orientation="1,0"
       id="guide1062"
       inkscape:locked="true"
       inkscape:label=""
       inkscape:color="rgb(0,0,255)" />
    <sodipodi:guide
       position="39.6875,13.002663"
       orientation="1,0"
       id="guide1064"
       inkscape:locked="true"
       inkscape:label=""
       inkscape:color="rgb(0,0,255)" />
    <sodipodi:guide
       position="18.520833,13.330068"
       orientation="1,0"
       id="guide1066"
       inkscape:locked="true"
       inkscape:label=""
       inkscape:color="rgb(0,0,255)" />
    <sodipodi:guide
       position="34.395833,12.634371"
       orientation="1,0"
       id="guide1070"
       inkscape:locked="true"
       inkscape:label=""
       inkscape:color="rgb(0,0,255)" />
  </sodipodi:namedview>
  <metadata
     id="metadata5">
    <rdf:RDF>
      <cc:Work
         rdf:about="">
        <dc:format>image/svg+xml</dc:format>
        <dc:type
           rdf:resource="http://purl.org/dc/dcmitype/StillImage" />
        <dc:title />
      </cc:Work>
    </rdf:RDF>
  </metadata>
  <g
     inkscape:label="Layer 1"
     inkscape:groupmode="layer"
     id="layer1"
     transform="translate(0,-257.31249)">
    <rect
       style="opacity:1;fill:#00a489;fill-opacity:1;fill-rule:nonzero;stroke:none;stroke-width:0.1888881;stroke-linecap:round;stroke-linejoin:round;stroke-miterlimit:4;stroke-dasharray:none;stroke-dashoffset:0;stroke-opacity:1"
       id="rect815"
       width="52.916668"
       height="39.687481"
       x="0"
       y="257.3125" />
    <rect
       style="opacity:0.5;fill:#000000;fill-opacity:1;fill-rule:nonzero;stroke:none;stroke-width:0.4716199;stroke-linecap:round;stroke-linejoin:round;stroke-miterlimit:4;stroke-dasharray:none;stroke-dashoffset:0;stroke-opacity:1"
       id="rect1036"
       width="52.916668"
       height="7.9375"
       x="0"
       y="257.3125" />
    <path
       style="fill:#000000;fill-opacity:1;fill-rule:evenodd;stroke:none;stroke-width:0.03294349"
       id="path14-3"
       d="m 14.423883,272.77643 c -0.112405,0.0616 0.896551,0.72277 2.787321,1.50117 1.890888,0.77841 4.504795,2.74916 4.299992,3.06762 -0.614164,0.86501 -0.975641,1.90206 -0.725625,3.67418 0.04508,0.31193 -0.926681,0.85387 -0.85616,1.32454 0.05896,0.35811 1.085813,-0.35579 1.197856,-0.21498 0.06857,0.25278 -0.548742,1.53259 -0.299465,1.62403 0.182322,0.0541 1.784285,-1.52361 1.877408,-1.49733 2.643144,0.79905 6.083943,0.1981 6.150531,0.1729 -0.0062,-0.0143 2.471883,1.1661 2.687497,1.02506 0.543889,-0.58895 -1.030402,-1.4191 -0.767859,-1.75073 0.115108,-0.17345 1.919124,0.6515 2.007947,0.42619 0.129253,-0.39007 -0.837513,-1.20861 -0.982855,-1.45126 -0.126418,-0.22357 -0.151464,-0.58401 0.172761,-0.81007 0.324344,-0.22616 3.640498,-1.49472 3.501421,-2.47636 -0.240433,-1.78363 -4.209111,-1.90002 -4.273119,-2.05016 -0.0301,-0.07 0.177941,-2.55054 -0.979016,-2.09238 -0.712327,0.26505 -0.134374,1.84585 -0.08831,2.05016 0.04251,0.18807 -0.316233,0.16717 -0.383928,0.0844 -0.151118,-0.18463 -0.647764,-1.83366 -1.236251,-1.53955 -0.825352,0.45508 -0.05041,1.87741 -0.215012,1.9235 -0.305793,0.17091 -0.288557,0.58901 -0.533657,0.9291 -0.404201,0.57926 -3.4298,-0.27109 -4.407496,-0.33019 -0.715768,-0.042 -1.398145,0.54311 -1.462769,0.4684 -0.871548,-0.87277 -2.673952,-2.39384 -4.64937,-2.89867 -1.107804,-0.3006 -2.755774,-1.17051 -2.821869,-1.15945 z m 20.175425,1.59717 c -0.06598,0.0285 -0.33226,1.40016 -0.203475,1.46275 0.114125,0.0855 0.311503,-1.38301 0.207312,-1.45894 -0.0016,-10e-4 -0.0016,-0.005 -0.0037,-0.005 z m 0.979013,0.18807 c -0.149687,-0.002 -0.947898,1.27285 -0.764012,1.40903 0.114125,0.0856 0.824432,-1.35692 0.775532,-1.40519 -0.0035,-0.002 -0.0068,-0.005 -0.01152,-0.005 z m -3.869991,1.5549 c 0.189104,0 0.341694,0.17233 0.341694,0.38779 0,0.21527 -0.152578,0.39157 -0.341694,0.39157 -0.189108,0 -0.341696,-0.17634 -0.341696,-0.39157 0,-0.21529 0.152579,-0.38779 0.341696,-0.38779 z m -0.76786,0.23416 c 0.145479,0.62793 0.370597,0.82629 1.05197,0.80626 -0.867255,0.79525 -1.392409,-0.56558 -1.05197,-0.80626 z m 1.835176,1.64322 c 0.05398,-0.005 0.09531,0.005 0.118991,0.0257 0.341665,0.12397 -1.466084,0.77543 -1.478128,0.68342 -0.01802,-0.0635 0.981273,-0.67965 1.359106,-0.71029 z m 0.222685,0.41463 c 0.01861,-10e-4 0.0361,0.005 0.04988,0.0117 0.322498,0.32041 -1.021001,1.03083 -1.005891,1.0059 -0.108274,-0.0652 0.675466,-0.99567 0.95598,-1.01745 z"
       inkscape:connector-curvature="0" />
    <path
       style="font-style:normal;font-variant:normal;font-weight:normal;font-stretch:normal;font-size:2.88402009px;line-height:1.25;font-family:'Source Sans Pro';-inkscape-font-specification:'Source Sans Pro';letter-spacing:0px;word-spacing:0px;fill:#ffffff;fill-opacity:1;stroke:none;stroke-width:0.07116918"
       d="m 28.96644,284.62092 c -1.252577,0 -2.269895,0.96414 -2.269895,2.5887 0,1.64733 0.986716,2.55811 2.239293,2.55811 0.637674,0 1.161589,-0.2582 1.563933,-0.72127 l -0.470302,-0.55396 c -0.280882,0.30365 -0.622727,0.50857 -1.063029,0.50857 -0.83505,0 -1.366528,-0.68329 -1.366528,-1.8144 0,-1.11593 0.577208,-1.79909 1.389485,-1.79909 0.38716,0 0.683006,0.17445 0.941113,0.43256 l 0.470815,-0.56926 c -0.311248,-0.33401 -0.812391,-0.62996 -1.434885,-0.62996 z m -10.354811,0.0908 1.321131,2.4066 -1.411927,2.55863 h 0.933463 l 0.592214,-1.16913 c 0.121462,-0.25812 0.23515,-0.50892 0.364203,-0.81258 h 0.0306 c 0.151828,0.30366 0.273407,0.55446 0.402461,0.81258 l 0.607005,1.16913 h 0.979373 l -1.411928,-2.52036 1.320622,-2.44487 h -0.933464 l -0.523861,1.10078 c -0.113872,0.22773 -0.212647,0.46346 -0.334109,0.75953 h -0.03009 c -0.151827,-0.29607 -0.258555,-0.5318 -0.380018,-0.75953 l -0.546306,-1.10078 z m 4.547446,0 v 4.96523 h 0.880415 v -2.07251 h 1.806735 v -0.74422 H 24.03949 v -1.40428 h 2.11789 v -0.74422 z m 8.169591,0 v 4.96523 h 3.067167 v -0.74424 h -2.186754 v -1.46497 h 1.784292 v -0.74423 h -1.784292 v -1.26757 h 2.11075 v -0.74422 z"
       id="text870"
       inkscape:connector-curvature="0" />
    <path
       style="font-style:normal;font-variant:normal;font-weight:normal;font-stretch:normal;font-size:40px;line-height:1.25;font-family:'Source Sans Pro';-inkscape-font-specification:'Source Sans Pro';letter-spacing:0px;word-spacing:0px;fill:#35b9ab;fill-opacity:1;stroke:none;stroke-width:0.26600039"
       d="M 65.658203 8.8730469 L 65.658203 20.349609 L 66.248047 20.349609 L 66.328125 19.566406 L 66.361328 19.566406 C 67.079529 20.156927 67.924042 20.541016 68.658203 20.541016 C 70.461686 20.541016 72.042969 19.007734 72.042969 16.40625 C 72.042969 14.028207 71.021399 12.496094 68.978516 12.496094 C 68.036874 12.496094 67.110166 13.038998 66.328125 13.693359 L 66.361328 12.193359 L 66.361328 8.8730469 L 65.658203 8.8730469 z M 74.292969 8.8730469 L 74.292969 19.328125 C 74.292969 20.158046 74.611934 20.541016 75.234375 20.541016 C 75.457815 20.541016 75.602454 20.508818 75.746094 20.460938 L 75.617188 19.886719 C 75.457587 19.918639 75.393918 19.917969 75.330078 19.917969 C 75.138558 19.917969 74.996094 19.758989 74.996094 19.423828 L 74.996094 8.8730469 L 74.292969 8.8730469 z M 117.36523 8.8730469 L 117.36523 12.033203 L 117.39844 13.4375 C 116.63236 12.846979 116.00967 12.496094 115.08398 12.496094 C 113.26454 12.496094 111.68359 14.061353 111.68359 16.535156 C 111.68359 19.12068 112.93017 20.541016 114.86133 20.541016 C 115.88277 20.541016 116.72717 19.981816 117.34961 19.359375 L 117.39844 19.359375 L 117.46094 20.349609 L 118.06836 20.349609 L 118.06836 8.8730469 L 117.36523 8.8730469 z M 35.632812 9.8320312 L 35.632812 10.46875 L 38.984375 10.46875 L 38.984375 20.349609 L 39.716797 20.349609 L 39.716797 10.46875 L 43.068359 10.46875 L 43.068359 9.8320312 L 35.632812 9.8320312 z M 55.818359 12.496094 C 54.972478 12.496094 54.094484 13.087099 53.408203 13.869141 L 53.361328 13.869141 L 53.296875 12.6875 L 52.691406 12.6875 L 52.691406 20.349609 L 53.392578 20.349609 L 53.392578 14.570312 C 54.238459 13.612711 55.005125 13.134766 55.691406 13.134766 C 56.872448 13.134766 57.414062 13.901374 57.414062 15.529297 L 57.414062 20.349609 L 58.117188 20.349609 L 58.117188 14.570312 C 58.963069 13.612711 59.697815 13.134766 60.416016 13.134766 C 61.581097 13.134766 62.123047 13.901374 62.123047 15.529297 L 62.123047 20.349609 L 62.841797 20.349609 L 62.841797 15.433594 C 62.841797 13.454551 62.075131 12.496094 60.542969 12.496094 C 59.665167 12.496094 58.819208 13.102945 57.941406 14.060547 C 57.670086 13.118905 57.047281 12.496094 55.818359 12.496094 z M 80.792969 12.496094 C 79.085246 12.496094 77.457031 14.029433 77.457031 16.535156 C 77.457031 19.04088 79.036917 20.541016 81 20.541016 C 82.117202 20.541016 82.803675 20.158096 83.410156 19.791016 L 83.123047 19.248047 C 82.548486 19.663007 81.894374 19.933594 81.064453 19.933594 C 79.340771 19.933594 78.207701 18.544444 78.175781 16.613281 L 83.697266 16.613281 C 83.729186 16.421761 83.730469 16.230583 83.730469 16.039062 C 83.730469 13.788699 82.612411 12.496094 80.792969 12.496094 z M 99.621094 12.496094 C 97.913371 12.496094 96.285156 14.029433 96.285156 16.535156 C 96.285156 19.04088 97.865042 20.541016 99.828125 20.541016 C 100.94533 20.541016 101.6318 20.158096 102.23828 19.791016 L 101.95117 19.248047 C 101.37661 19.663007 100.7225 19.933594 99.892578 19.933594 C 98.168896 19.933594 97.035826 18.544444 97.003906 16.613281 L 102.52539 16.613281 C 102.55731 16.421761 102.55859 16.230583 102.55859 16.039062 C 102.55859 13.788699 101.44054 12.496094 99.621094 12.496094 z M 107.32031 12.496094 C 105.61259 12.496094 103.98438 14.029433 103.98438 16.535156 C 103.98438 19.04088 105.56426 20.541016 107.52734 20.541016 C 108.64455 20.541016 109.33102 20.158096 109.9375 19.791016 L 109.65039 19.248047 C 109.07583 19.663007 108.42172 19.933594 107.5918 19.933594 C 105.86811 19.933594 104.73505 18.544444 104.70312 16.613281 L 110.22461 16.613281 C 110.25653 16.421761 110.25781 16.230583 110.25781 16.039062 C 110.25781 13.788699 109.13976 12.496094 107.32031 12.496094 z M 44.130859 12.6875 L 44.130859 17.603516 C 44.130859 19.582559 44.86527 20.541016 46.445312 20.541016 C 47.498674 20.541016 48.296754 19.950067 49.046875 19.072266 L 49.080078 19.072266 L 49.158203 20.349609 L 49.75 20.349609 L 49.75 12.6875 L 49.046875 12.6875 L 49.046875 18.337891 C 48.153114 19.423172 47.48394 19.902344 46.574219 19.902344 C 45.345297 19.902344 44.833984 19.135735 44.833984 17.507812 L 44.833984 12.6875 L 44.130859 12.6875 z M 84.896484 12.6875 L 87.164062 20.349609 L 88.009766 20.349609 L 89.333984 15.625 C 89.573385 14.890839 89.765846 14.156371 89.941406 13.40625 L 90.003906 13.40625 C 90.227347 14.156371 90.372263 14.857636 90.595703 15.591797 L 91.935547 20.349609 L 92.861328 20.349609 L 95.064453 12.6875 L 94.345703 12.6875 L 92.988281 17.652344 C 92.812721 18.354585 92.620873 19.009031 92.445312 19.695312 L 92.382812 19.695312 C 92.191292 19.009031 92.000114 18.354585 91.808594 17.652344 L 90.419922 12.6875 L 89.574219 12.6875 L 88.185547 17.652344 C 87.994027 18.354585 87.802513 19.009031 87.626953 19.695312 L 87.5625 19.695312 C 87.4029 19.009031 87.226677 18.354585 87.035156 17.652344 L 85.664062 12.6875 L 84.896484 12.6875 z M 80.808594 13.103516 C 82.181156 13.103516 83.058594 14.07598 83.058594 16.039062 L 78.175781 16.039062 C 78.335381 14.20366 79.499872 13.103516 80.808594 13.103516 z M 99.636719 13.103516 C 101.00928 13.103516 101.88672 14.07598 101.88672 16.039062 L 97.003906 16.039062 C 97.163506 14.20366 98.327997 13.103516 99.636719 13.103516 z M 107.33594 13.103516 C 108.7085 13.103516 109.58594 14.07598 109.58594 16.039062 L 104.70312 16.039062 C 104.86273 14.20366 106.02722 13.103516 107.33594 13.103516 z M 68.867188 13.119141 C 70.62279 13.119141 71.292969 14.522967 71.292969 16.40625 C 71.292969 18.481053 70.175075 19.917969 68.626953 19.917969 C 68.036432 19.917969 67.207209 19.645935 66.361328 18.927734 L 66.361328 14.378906 C 67.271049 13.564945 68.101106 13.119141 68.867188 13.119141 z M 115.13086 13.119141 C 115.88098 13.119141 116.55127 13.389221 117.36523 14.107422 L 117.36523 18.65625 C 116.55127 19.470211 115.80291 19.917969 114.95703 19.917969 C 113.32911 19.917969 112.43359 18.562079 112.43359 16.535156 C 112.43359 14.603993 113.5987 13.119141 115.13086 13.119141 z "
       transform="matrix(0.26458333,0,0,0.26458333,0,257.31249)"
       id="flowRoot888" />
    <path
       style="font-style:normal;font-variant:normal;font-weight:normal;font-stretch:normal;font-size:0.66797036px;line-height:1.25;font-family:'Source Sans Pro';-inkscape-font-specification:'Source Sans Pro';letter-spacing:0px;word-spacing:0px;fill:#ffffff;fill-opacity:1;stroke:none;stroke-width:0.01723794"
       d="m 21.252016,289.99118 v 1.32185 h 0.08055 v -0.24111 l 0.198972,-0.23151 0.292321,0.47262 h 0.09014 l -0.334995,-0.53343 0.286987,-0.34887 h -0.09389 l -0.435815,0.53504 h -0.0037 v -0.97459 z m 6.499361,0.0805 c -0.04046,0 -0.07361,0.0277 -0.07361,0.0736 0,0.0423 0.03317,0.0721 0.07361,0.0721 0.04045,0 0.07361,-0.0297 0.07361,-0.0721 0,-0.0459 -0.03317,-0.0736 -0.07361,-0.0736 z m -9.230544,0.0299 v 1.21144 h 0.283253 c 0.37142,0 0.547837,-0.2425 0.547837,-0.61025 0,-0.3659 -0.176178,-0.60119 -0.549437,-0.60119 z m 6.475358,0 v 1.21144 h 0.681728 v -0.0736 h -0.597446 v -0.53289 h 0.485425 v -0.0736 h -0.485425 v -0.45822 h 0.57931 v -0.0731 z m -6.390542,0.0716 h 0.187236 c 0.329129,0 0.471022,0.21527 0.471022,0.52969 0,0.31626 -0.141893,0.53877 -0.471022,0.53877 h -0.187236 z m 3.50893,0.002 -0.0112,0.25606 -0.13976,0.007 v 0.0625 h 0.138159 v 0.56864 c 0,0.15812 0.04931,0.26618 0.220309,0.26618 0.03677,0 0.092,-0.0147 0.143494,-0.0331 l -0.02187,-0.0662 c -0.03126,0.0147 -0.07733,0.0277 -0.110421,0.0277 -0.121355,0 -0.148829,-0.0756 -0.148829,-0.18776 v -0.57558 h 0.255516 v -0.0694 h -0.255516 v -0.25605 z m 11.930255,0 -0.0112,0.25606 -0.139761,0.007 v 0.0625 h 0.13816 v 0.56864 c 0,0.15812 0.04931,0.26618 0.220309,0.26618 0.03677,0 0.092,-0.0147 0.143493,-0.0331 l -0.02188,-0.0662 c -0.03126,0.0147 -0.07733,0.0277 -0.110421,0.0277 -0.121355,0 -0.148828,-0.0756 -0.148828,-0.18776 v -0.57558 h 0.255516 v -0.0694 h -0.255516 v -0.25605 z M 19.9323,290.40873 c -0.196742,0 -0.384607,0.17647 -0.384607,0.46515 0,0.28869 0.182449,0.46142 0.408612,0.46142 0.128709,0 0.207514,-0.0441 0.277385,-0.0864 l -0.03308,-0.0625 c -0.0662,0.0478 -0.141765,0.079 -0.237379,0.079 -0.19858,0 -0.328651,-0.15999 -0.332329,-0.38247 h 0.635853 c 0.0037,-0.0221 0.0037,-0.0441 0.0037,-0.0662 0,-0.25926 -0.128584,-0.40808 -0.338197,-0.40808 z m 0.793216,0 c -0.183872,0 -0.284854,0.10653 -0.284854,0.23525 0,0.15077 0.146894,0.20451 0.28112,0.25232 0.10113,0.0367 0.214974,0.0844 0.214974,0.1947 0,0.0937 -0.07173,0.17443 -0.209639,0.17443 -0.126871,0 -0.205733,-0.0495 -0.28112,-0.11202 l -0.04801,0.0608 c 0.07906,0.0662 0.193246,0.12108 0.323794,0.12108 0.191227,0 0.297658,-0.11565 0.297658,-0.24804 0,-0.17284 -0.150685,-0.21897 -0.288588,-0.27045 -0.104807,-0.0386 -0.207506,-0.077 -0.207506,-0.17817 0,-0.081 0.06237,-0.16003 0.198436,-0.16003 0.09009,0 0.152402,0.0347 0.211241,0.079 l 0.04427,-0.0571 c -0.06435,-0.0534 -0.158006,-0.0917 -0.251781,-0.0917 z m 2.230822,0 c -0.211452,0 -0.395274,0.16912 -0.395274,0.46515 0,0.29236 0.183822,0.46142 0.395274,0.46142 0.21329,0 0.396874,-0.16906 0.396875,-0.46142 0,-0.29603 -0.183585,-0.46515 -0.396875,-0.46515 z m 1.044463,0 c -0.108483,0 -0.213369,0.0643 -0.299789,0.13229 h -0.0054 l -0.0074,-0.10988 h -0.06989 v 1.28131 h 0.08109 v -0.48543 c 0.09193,0.068 0.18184,0.10828 0.264584,0.10828 0.207773,0 0.389939,-0.17611 0.389939,-0.47581 0,-0.27398 -0.117777,-0.45076 -0.353134,-0.45076 z m 2.320439,0 c -0.121354,0 -0.213426,0.0683 -0.303523,0.15843 h -0.0059 l -0.0069,-0.13602 h -0.06989 v 0.8823 h 0.08055 v -0.66573 c 0.108485,-0.11032 0.183781,-0.16536 0.288589,-0.16536 0.143419,0 0.202705,0.0883 0.202705,0.27578 v 0.55531 h 0.08055 v -0.56651 c 0,-0.228 -0.08415,-0.3382 -0.266183,-0.3382 z m 2.140674,0 c -0.104809,0 -0.191345,0.0771 -0.250183,0.18564 h -0.0054 l -0.0074,-0.16323 h -0.06988 v 0.8823 h 0.08109 v -0.60118 c 0.06804,-0.16549 0.161513,-0.22619 0.240578,-0.22619 0.03493,0 0.05167,0.003 0.08109,0.0145 l 0.01814,-0.0731 c -0.02942,-0.0148 -0.05492,-0.0187 -0.08801,-0.0187 z m 0.552634,0 c -0.21145,0 -0.395272,0.16912 -0.395272,0.46515 0,0.29236 0.183822,0.46142 0.395272,0.46142 0.213293,0 0.397409,-0.16906 0.397409,-0.46142 0,-0.29603 -0.184116,-0.46515 -0.397409,-0.46515 z m 1.048735,0 c -0.121356,0 -0.213429,0.0683 -0.303525,0.15843 h -0.0059 l -0.0069,-0.13602 h -0.06989 v 0.8823 h 0.08055 v -0.66573 c 0.108483,-0.11032 0.184313,-0.16536 0.28912,-0.16536 0.14342,0 0.20217,0.0883 0.20217,0.27578 v 0.55531 h 0.08055 v -0.56651 c 0,-0.228 -0.08415,-0.3382 -0.266184,-0.3382 z m 0.951113,0 c -0.09745,0 -0.198855,0.0683 -0.277921,0.15843 h -0.0054 l -0.0074,-0.13602 h -0.06989 v 0.8823 h 0.08109 v -0.66573 c 0.09745,-0.11032 0.185519,-0.16536 0.264584,-0.16536 0.136064,0 0.198436,0.0883 0.198436,0.27578 v 0.55531 h 0.08108 v -0.66573 c 0.09745,-0.11032 0.181843,-0.16536 0.264584,-0.16536 0.134226,0 0.196836,0.0883 0.196836,0.27578 v 0.55531 h 0.08269 v -0.56651 c 0,-0.228 -0.08807,-0.3382 -0.264583,-0.3382 -0.101131,0 -0.19866,0.07 -0.299791,0.1803 -0.03126,-0.10848 -0.10273,-0.1803 -0.244312,-0.1803 z m 1.444006,0 c -0.196743,0 -0.384073,0.17647 -0.384073,0.46515 0,0.28869 0.181916,0.46142 0.408077,0.46142 0.12871,0 0.207516,-0.0441 0.277385,-0.0864 l -0.03308,-0.0625 c -0.06619,0.0478 -0.141231,0.079 -0.236845,0.079 -0.198582,0 -0.329184,-0.15999 -0.332863,-0.38247 h 0.635856 c 0.0037,-0.0221 0.0037,-0.0441 0.0037,-0.0662 0,-0.25926 -0.128584,-0.40808 -0.338197,-0.40808 z m 0.962316,0 c -0.121358,0 -0.212896,0.0683 -0.302992,0.15843 h -0.0059 l -0.0074,-0.13602 h -0.06989 v 0.8823 h 0.08109 v -0.66573 c 0.108483,-0.11032 0.183781,-0.16536 0.288588,-0.16536 0.143419,0 0.20217,0.0883 0.20217,0.27578 v 0.55531 h 0.08109 v -0.56651 c 0,-0.228 -0.08468,-0.3382 -0.266716,-0.3382 z m -6.656194,0.0224 0.331262,0.8823 h 0.09549 l 0.326997,-0.8823 h -0.08269 l -0.198437,0.55317 c -0.02942,0.0846 -0.06073,0.17302 -0.09015,0.25391 h -0.0074 c -0.02758,-0.081 -0.06044,-0.16933 -0.08802,-0.25391 l -0.198438,-0.55317 z m 0.944178,0 v 0.8823 h 0.08109 v -0.8823 z m -7.774803,0.0475 c 0.15813,0 0.25925,0.11203 0.25925,0.3382 h -0.56224 c 0.01839,-0.21146 0.152217,-0.3382 0.30299,-0.3382 z m 12.526636,0 c 0.15813,0 0.259249,0.11203 0.259249,0.3382 H 32.15701 c 0.01839,-0.21146 0.152749,-0.3382 0.303525,-0.3382 z m -9.504197,0.002 c 0.178354,0 0.312592,0.15961 0.312592,0.39313 0,0.23168 -0.134238,0.38994 -0.312592,0.38994 -0.178355,0 -0.310992,-0.15826 -0.310992,-0.38994 0,-0.23352 0.132637,-0.39313 0.310992,-0.39313 z m 1.031662,0 c 0.202258,0 0.279519,0.16176 0.279519,0.37873 0,0.23903 -0.128903,0.40434 -0.307258,0.40434 -0.06804,0 -0.159719,-0.0314 -0.260849,-0.11415 v -0.52383 c 0.106645,-0.0937 0.200329,-0.14509 0.288588,-0.14509 z m 5.026548,0 c 0.178358,0 0.312593,0.15961 0.312593,0.39313 0,0.23168 -0.134235,0.38994 -0.312593,0.38994 -0.178352,0 -0.310458,-0.15826 -0.310458,-0.38994 0,-0.23352 0.132106,-0.39313 0.310458,-0.39313 z"
       id="text870-5"
       inkscape:connector-curvature="0" />
    <path
       id="path1091"
       d="m 6.7170458,259.99747 c -0.2715998,0 -0.5356496,0.0785 -0.770801,0.21251 -0.2287155,0.13026 -0.4280371,0.30699 -0.6055763,0.5 a 4.3206562,4.3206562 0 0 0 -0.2023537,0.23744 6.8509454,6.8509454 0 0 0 -0.1814997,0.24053 c -0.030013,0.0413 -0.05984,0.0828 -0.089729,0.12433 -0.059592,0.0828 -0.1202365,0.16566 -0.1896061,0.24066 a 5.3059398,5.3059398 0 0 1 -0.1976508,0.20254 c -0.1685663,0.1638 -0.348457,0.31949 -0.5471598,0.44586 -0.1571181,0.0999 -0.3409074,0.19505 -0.5316893,0.19505 -0.5115778,0 -0.9701847,-0.40564 -0.9701847,-1.02303 0,-0.61734 0.4409707,-0.95249 0.9701847,-0.95249 0.3066248,0 0.5777295,0.13082 0.8407895,0.35718 l -0.1407813,0.14481 0.3443107,0.087 0.344249,0.087 -0.096783,-0.34166 -0.096783,-0.34164 -0.1540241,0.15848 c -0.2691245,-0.24071 -0.6035962,-0.43341 -1.0233412,-0.43341 -0.6880028,-7e-5 -1.2524278,0.49387 -1.2524278,1.25236 0,0.72322 0.564425,1.25231 1.1995188,1.25231 0.2627505,0 0.517147,-0.0783 0.7427067,-0.21109 0.20223,-0.11924 0.378779,-0.27648 0.5408477,-0.44517 0.054703,-0.0569 0.1078602,-0.11523 0.1606454,-0.17383 0.06838,-0.0761 0.1326129,-0.15149 0.1899155,-0.23781 l 0.075558,-0.11374 c 0.046349,-0.0697 0.089172,-0.13886 0.138863,-0.20669 0.091523,-0.12499 0.1874403,-0.2469 0.2906593,-0.36244 0.1731455,-0.19387 0.3693111,-0.37426 0.6004401,-0.49666 0.1833559,-0.0971 0.3862666,-0.15149 0.5940662,-0.15149 0.7232754,0 1.1289114,0.50273 1.1289114,1.14655 0,0.59976 -0.3880616,1.09364 -1.0583658,1.09364 -0.3831112,0 -0.7190061,-0.1039 -1.0728469,-0.40985 l 0.1639253,-0.19932 -0.3502516,-0.0582 -0.3503134,-0.0582 0.124692,0.3325 0.1248159,0.33248 0.1392961,-0.16931 c 0.3428875,0.30855 0.7167161,0.5122 1.2030458,0.5122 0.8113334,0 1.3404861,-0.61739 1.3404861,-1.39352 0,-0.81139 -0.5467271,-1.37582 -1.3757586,-1.37582"
       inkscape:connector-curvature="0"
       style="fill:#35b9ab;stroke-width:0.0618819;fill-opacity:1" />
  </g>
</svg>
