<?xml version="1.0" encoding="UTF-8" standalone="no"?>
<!-- Created with Inkscape (http://www.inkscape.org/) -->

<svg
   xmlns:dc="http://purl.org/dc/elements/1.1/"
   xmlns:cc="http://creativecommons.org/ns#"
   xmlns:rdf="http://www.w3.org/1999/02/22-rdf-syntax-ns#"
   xmlns:svg="http://www.w3.org/2000/svg"
   xmlns="http://www.w3.org/2000/svg"
   xmlns:xlink="http://www.w3.org/1999/xlink"
   xmlns:sodipodi="http://sodipodi.sourceforge.net/DTD/sodipodi-0.dtd"
   xmlns:inkscape="http://www.inkscape.org/namespaces/inkscape"
   width="200"
   height="150"
   viewBox="0 0 52.916665 39.687501"
   version="1.1"
   id="svg8"
   sodipodi:docname="splash.svg"
   inkscape:version="0.92.2 5c3e80d, 2017-08-06"
   inkscape:export-filename="/home/lcp/leapxfce.png"
   inkscape:export-xdpi="168"
   inkscape:export-ydpi="168">
  <defs
     id="defs2">
    <linearGradient
       id="linearGradient4380">
      <stop
         offset="0"
         style="stop-color:#000000"
         id="stop4382" />
      <stop
         offset="1"
         style="stop-color:#000000;stop-opacity:0"
         id="stop4384" />
    </linearGradient>
    <linearGradient
       id="linearGradient3694">
      <stop
         offset="0"
         style="stop-color:#b7b7b7"
         id="stop3702" />
      <stop
         offset="1"
         style="stop-color:#000000"
         id="stop3698" />
    </linearGradient>
    <linearGradient
       id="linearGradient3743">
      <stop
         offset="0"
         style="stop-color:#ffffff"
         id="stop3745" />
      <stop
         offset="0.5"
         style="stop-color:#7fd4ee"
         id="stop3751" />
      <stop
         offset="1"
         style="stop-color:#00aade"
         id="stop3747" />
    </linearGradient>
    <linearGradient
       id="linearGradient3652">
      <stop
         offset="0"
         style="stop-color:#ffffff"
         id="stop3654" />
      <stop
         offset="0.49903482"
         style="stop-color:#d5e2ec"
         id="stop3662" />
      <stop
         offset="1"
         style="stop-color:#d5e2ec"
         id="stop3656" />
    </linearGradient>
    <filter
       id="filter3729"
       color-interpolation-filters="sRGB">
      <feGaussianBlur
         id="feGaussianBlur3731"
         stdDeviation="6.4154088" />
    </filter>
    <linearGradient
       gradientTransform="translate(-1581.6355,147.78233)"
       gradientUnits="userSpaceOnUse"
       xlink:href="#linearGradient3652"
       id="linearGradient3737"
       y2="663.80927"
       x2="1557.8665"
       y1="17.489901"
       x1="965.02625" />
    <linearGradient
       gradientUnits="userSpaceOnUse"
       xlink:href="#linearGradient3743"
       id="linearGradient3966"
       y2="581.41302"
       x2="159.24117"
       y1="441.98093"
       x1="33.526711" />
    <linearGradient
       gradientTransform="translate(-0.38239847,2.6767893)"
       gradientUnits="userSpaceOnUse"
       xlink:href="#linearGradient3743"
       id="linearGradient3968"
       y2="531.48969"
       x2="305.39166"
       y1="426.95151"
       x1="245.51741" />
    <linearGradient
       gradientUnits="userSpaceOnUse"
       xlink:href="#linearGradient3743"
       id="linearGradient3970"
       y2="543.35834"
       x2="668.81775"
       y1="434.94836"
       x1="601.53467" />
    <linearGradient
       gradientTransform="translate(-0.50986462,6.1183754)"
       gradientUnits="userSpaceOnUse"
       xlink:href="#linearGradient3743"
       id="linearGradient3972"
       y2="535.30469"
       x2="486.95523"
       y1="455.93307"
       x1="440.52084" />
    <linearGradient
       gradientUnits="userSpaceOnUse"
       xlink:href="#linearGradient4380"
       id="linearGradient4386"
       y2="254.24648"
       x2="291.87143"
       y1="254.24648"
       x1="118.25153" />
    <filter
       id="filter4631"
       color-interpolation-filters="sRGB">
      <feGaussianBlur
         stdDeviation="2.3336003"
         id="feGaussianBlur4633" />
    </filter>
    <linearGradient
       gradientTransform="matrix(3.7524926,0,0,3.7524926,-424.92228,-686.03042)"
       gradientUnits="userSpaceOnUse"
       xlink:href="#linearGradient3694"
       id="linearGradient4162"
       y2="253.70575"
       x2="236.40213"
       y1="164.16707"
       x1="174.28104" />
    <filter
       id="filter4223"
       color-interpolation-filters="sRGB">
      <feGaussianBlur
         stdDeviation="4.6672006"
         id="feGaussianBlur4225" />
    </filter>
    <filter
       id="filter4266"
       color-interpolation-filters="sRGB">
      <feGaussianBlur
         stdDeviation="1.308628"
         id="feGaussianBlur4268" />
    </filter>
  </defs>
  <sodipodi:namedview
     id="base"
     pagecolor="#ffffff"
     bordercolor="#666666"
     borderopacity="1.0"
     inkscape:pageopacity="0.0"
     inkscape:pageshadow="2"
     inkscape:zoom="2"
     inkscape:cx="39.777274"
     inkscape:cy="64.405089"
     inkscape:document-units="px"
     inkscape:current-layer="layer1"
     showgrid="false"
     showguides="false"
     inkscape:guide-bbox="true"
     units="px"
     inkscape:lockguides="true"
     inkscape:window-width="1366"
     inkscape:window-height="713"
     inkscape:window-x="0"
     inkscape:window-y="27"
     inkscape:window-maximized="1">
    <sodipodi:guide
       position="53.026161,2.0392578e-05"
       orientation="0,1"
       id="guide909"
       inkscape:locked="true" />
    <sodipodi:guide
       position="87.129864,33.943231"
       orientation="1,0"
       id="guide911"
       inkscape:locked="true" />
    <sodipodi:guide
       position="53.02616,39.687491"
       orientation="0,1"
       id="guide913"
       inkscape:locked="true" />
    <sodipodi:guide
       position="26.458333,18.142858"
       orientation="1,0"
       id="guide915"
       inkscape:locked="true"
       inkscape:label=""
       inkscape:color="rgb(0,0,255)" />
    <sodipodi:guide
       position="52.916666,31.749991"
       orientation="0,1"
       id="guide1056"
       inkscape:locked="true" />
    <sodipodi:guide
       position="55.694791,26.458333"
       orientation="0,1"
       id="guide1058"
       inkscape:locked="true"
       inkscape:label=""
       inkscape:color="rgb(0,0,255)" />
    <sodipodi:guide
       position="52.916666,5.2916666"
       orientation="0,1"
       id="guide1060"
       inkscape:locked="true"
       inkscape:label=""
       inkscape:color="rgb(0,0,255)" />
    <sodipodi:guide
       position="13.229167,10.102788"
       orientation="1,0"
       id="guide1062"
       inkscape:locked="true"
       inkscape:label=""
       inkscape:color="rgb(0,0,255)" />
    <sodipodi:guide
       position="39.6875,13.002663"
       orientation="1,0"
       id="guide1064"
       inkscape:locked="true"
       inkscape:label=""
       inkscape:color="rgb(0,0,255)" />
    <sodipodi:guide
       position="18.520833,13.330068"
       orientation="1,0"
       id="guide1066"
       inkscape:locked="true"
       inkscape:label=""
       inkscape:color="rgb(0,0,255)" />
    <sodipodi:guide
       position="34.395833,12.634371"
       orientation="1,0"
       id="guide1070"
       inkscape:locked="true"
       inkscape:label=""
       inkscape:color="rgb(0,0,255)" />
  </sodipodi:namedview>
  <metadata
     id="metadata5">
    <rdf:RDF>
      <cc:Work
         rdf:about="">
        <dc:format>image/svg+xml</dc:format>
        <dc:type
           rdf:resource="http://purl.org/dc/dcmitype/StillImage" />
        <dc:title></dc:title>
      </cc:Work>
    </rdf:RDF>
  </metadata>
  <g
     inkscape:label="Layer 1"
     inkscape:groupmode="layer"
     id="layer1"
     transform="translate(0,-257.31249)">
    <rect
       style="opacity:1;fill:#6da741;fill-opacity:1;fill-rule:nonzero;stroke:none;stroke-width:0.1888881;stroke-linecap:round;stroke-linejoin:round;stroke-miterlimit:4;stroke-dasharray:none;stroke-dashoffset:0;stroke-opacity:1"
       id="rect815"
       width="52.916668"
       height="39.687481"
       x="0"
       y="257.3125" />
    <rect
       style="opacity:0.5;fill:#000000;fill-opacity:1;fill-rule:nonzero;stroke:none;stroke-width:0.4716199;stroke-linecap:round;stroke-linejoin:round;stroke-miterlimit:4;stroke-dasharray:none;stroke-dashoffset:0;stroke-opacity:1"
       id="rect1036"
       width="52.916668"
       height="7.9375"
       x="-1.1518564e-15"
       y="257.3125" />
    <path
       style="fill:#000000;fill-opacity:1;fill-rule:evenodd;stroke:none;stroke-width:0.03294349"
       id="path14-3"
       d="m 14.423883,272.77643 c -0.112405,0.0616 0.896551,0.72277 2.787321,1.50117 1.890888,0.77841 4.504795,2.74916 4.299992,3.06762 -0.614164,0.86501 -0.975641,1.90206 -0.725625,3.67418 0.04508,0.31193 -0.926681,0.85387 -0.85616,1.32454 0.05896,0.35811 1.085813,-0.35579 1.197856,-0.21498 0.06857,0.25278 -0.548742,1.53259 -0.299465,1.62403 0.182322,0.0541 1.784285,-1.52361 1.877408,-1.49733 2.643144,0.79905 6.083943,0.1981 6.150531,0.1729 -0.0062,-0.0143 2.471883,1.1661 2.687497,1.02506 0.543889,-0.58895 -1.030402,-1.4191 -0.767859,-1.75073 0.115108,-0.17345 1.919124,0.6515 2.007947,0.42619 0.129253,-0.39007 -0.837513,-1.20861 -0.982855,-1.45126 -0.126418,-0.22357 -0.151464,-0.58401 0.172761,-0.81007 0.324344,-0.22616 3.640498,-1.49472 3.501421,-2.47636 -0.240433,-1.78363 -4.209111,-1.90002 -4.273119,-2.05016 -0.0301,-0.07 0.177941,-2.55054 -0.979016,-2.09238 -0.712327,0.26505 -0.134374,1.84585 -0.08831,2.05016 0.04251,0.18807 -0.316233,0.16717 -0.383928,0.0844 -0.151118,-0.18463 -0.647764,-1.83366 -1.236251,-1.53955 -0.825352,0.45508 -0.05041,1.87741 -0.215012,1.9235 -0.305793,0.17091 -0.288557,0.58901 -0.533657,0.9291 -0.404201,0.57926 -3.4298,-0.27109 -4.407496,-0.33019 -0.715768,-0.042 -1.398145,0.54311 -1.462769,0.4684 -0.871548,-0.87277 -2.673952,-2.39384 -4.64937,-2.89867 -1.107804,-0.3006 -2.755774,-1.17051 -2.821869,-1.15945 z m 20.175425,1.59717 c -0.06598,0.0285 -0.33226,1.40016 -0.203475,1.46275 0.114125,0.0855 0.311503,-1.38301 0.207312,-1.45894 -0.0016,-10e-4 -0.0016,-0.005 -0.0037,-0.005 z m 0.979013,0.18807 c -0.149687,-0.002 -0.947898,1.27285 -0.764012,1.40903 0.114125,0.0856 0.824432,-1.35692 0.775532,-1.40519 -0.0035,-0.002 -0.0068,-0.005 -0.01152,-0.005 z m -3.869991,1.5549 c 0.189104,0 0.341694,0.17233 0.341694,0.38779 0,0.21527 -0.152578,0.39157 -0.341694,0.39157 -0.189108,0 -0.341696,-0.17634 -0.341696,-0.39157 0,-0.21529 0.152579,-0.38779 0.341696,-0.38779 z m -0.76786,0.23416 c 0.145479,0.62793 0.370597,0.82629 1.05197,0.80626 -0.867255,0.79525 -1.392409,-0.56558 -1.05197,-0.80626 z m 1.835176,1.64322 c 0.05398,-0.005 0.09531,0.005 0.118991,0.0257 0.341665,0.12397 -1.466084,0.77543 -1.478128,0.68342 -0.01802,-0.0635 0.981273,-0.67965 1.359106,-0.71029 z m 0.222685,0.41463 c 0.01861,-10e-4 0.0361,0.005 0.04988,0.0117 0.322498,0.32041 -1.021001,1.03083 -1.005891,1.0059 -0.108274,-0.0652 0.675466,-0.99567 0.95598,-1.01745 z"
       inkscape:connector-curvature="0" />
    <path
       style="font-style:normal;font-variant:normal;font-weight:normal;font-stretch:normal;font-size:2.88402009px;line-height:1.25;font-family:'Source Sans Pro';-inkscape-font-specification:'Source Sans Pro';letter-spacing:0px;word-spacing:0px;fill:#ffffff;fill-opacity:1;stroke:none;stroke-width:0.07116918"
       d="m 28.96644,284.62092 c -1.252577,0 -2.269895,0.96414 -2.269895,2.5887 0,1.64733 0.986716,2.55811 2.239293,2.55811 0.637674,0 1.161589,-0.2582 1.563933,-0.72127 l -0.470302,-0.55396 c -0.280882,0.30365 -0.622727,0.50857 -1.063029,0.50857 -0.83505,0 -1.366528,-0.68329 -1.366528,-1.8144 0,-1.11593 0.577208,-1.79909 1.389485,-1.79909 0.38716,0 0.683006,0.17445 0.941113,0.43256 l 0.470815,-0.56926 c -0.311248,-0.33401 -0.812391,-0.62996 -1.434885,-0.62996 z m -10.354811,0.0908 1.321131,2.4066 -1.411927,2.55863 h 0.933463 l 0.592214,-1.16913 c 0.121462,-0.25812 0.23515,-0.50892 0.364203,-0.81258 h 0.0306 c 0.151828,0.30366 0.273407,0.55446 0.402461,0.81258 l 0.607005,1.16913 h 0.979373 l -1.411928,-2.52036 1.320622,-2.44487 h -0.933464 l -0.523861,1.10078 c -0.113872,0.22773 -0.212647,0.46346 -0.334109,0.75953 h -0.03009 c -0.151827,-0.29607 -0.258555,-0.5318 -0.380018,-0.75953 l -0.546306,-1.10078 z m 4.547446,0 v 4.96523 h 0.880415 v -2.07251 h 1.806735 v -0.74422 H 24.03949 v -1.40428 h 2.11789 v -0.74422 z m 8.169591,0 v 4.96523 h 3.067167 v -0.74424 h -2.186754 v -1.46497 h 1.784292 v -0.74423 h -1.784292 v -1.26757 h 2.11075 v -0.74422 z"
       id="text870"
       inkscape:connector-curvature="0" />
    <g
       id="g886"
       transform="matrix(0.06794564,0,0,0.06794564,2.1515529,259.39777)"
       style="fill:#73ba25;fill-opacity:1">
      <path
         id="path872"
         d="M 34.526,38.787 59.721,19.179 34.691,0 9.495,19.608 Z"
         inkscape:connector-curvature="0"
         style="fill:#73ba25;fill-opacity:1" />
      <path
         id="path874"
         d="M 34.548,46.15 6.683,24.798 0,29.999 34.961,56.788 69.652,29.79 62.556,24.354 Z"
         inkscape:connector-curvature="0"
         style="fill:#73ba25;fill-opacity:1" />
    </g>
    <path
       style="font-style:normal;font-variant:normal;font-weight:normal;font-stretch:normal;font-size:40px;line-height:1.25;font-family:'Source Sans Pro';-inkscape-font-specification:'Source Sans Pro';letter-spacing:0px;word-spacing:0px;fill:#73ba25;fill-opacity:1;stroke:none;stroke-width:0.07037927"
       d="m 8.4744181,259.89735 v 2.78277 h 1.4779458 v -0.16898 H 8.6687214 v -2.61379 z m 2.6143109,0.70486 c -0.451835,0 -0.882634,0.4057 -0.882634,1.06867 0,0.66297 0.418012,1.05988 0.937411,1.05988 0.295593,0 0.477222,-0.10131 0.637687,-0.19843 l -0.07597,-0.14366 c -0.152019,0.10979 -0.325086,0.18138 -0.544669,0.18138 -0.456058,0 -0.755849,-0.36755 -0.764294,-0.8785 h 1.460892 c 0.0084,-0.0507 0.0088,-0.10125 0.0088,-0.15193 0,-0.59541 -0.295819,-0.93741 -0.777213,-0.93741 z m 1.966805,0 c -0.329375,0 -0.611936,0.16066 -0.75551,0.262 l 0.08423,0.13901 c 0.139351,-0.10135 0.375699,-0.23616 0.645955,-0.23616 0.401162,0 0.485847,0.33356 0.481624,0.64182 -0.903669,0.10135 -1.308963,0.31668 -1.308963,0.7643 0,0.38427 0.265598,0.55758 0.586527,0.55758 0.266034,0 0.511387,-0.14795 0.718302,-0.31264 h 0.0124 l 0.01705,0.262 h 0.160197 v -1.29656 c 0,-0.43494 -0.16465,-0.78135 -0.641821,-0.78135 z m 2.23914,0 c -0.249143,0 -0.489861,0.14762 -0.688331,0.30386 h -0.0124 l -0.01705,-0.25322 h -0.160714 v 2.94349 h 0.186035 v -1.11517 c 0.211138,0.15624 0.418208,0.24959 0.608232,0.24959 0.477171,0 0.895036,-0.40568 0.895036,-1.09399 0,-0.62919 -0.270291,-1.03456 -0.810803,-1.03456 z m -4.201811,0.16072 c 0.363157,0 0.595312,0.25729 0.595312,0.77669 h -1.29191 c 0.04223,-0.48561 0.350332,-0.77669 0.696598,-0.77669 z m 4.172355,0.004 c 0.464503,0 0.641821,0.37143 0.641821,0.86971 0,0.54896 -0.295776,0.92915 -0.705383,0.92915 -0.156242,0 -0.367195,-0.072 -0.599447,-0.262 v -1.20355 c 0.24492,-0.21536 0.460317,-0.33331 0.663009,-0.33331 z m -1.753382,0.78548 v 0.68833 c -0.253365,0.21536 -0.456078,0.32918 -0.688329,0.32918 -0.232252,0 -0.430982,-0.11377 -0.430982,-0.40514 0,-0.32093 0.283206,-0.51525 1.119311,-0.61237 z"
       id="flowRoot888"
       inkscape:connector-curvature="0" />
    <path
       style="font-style:normal;font-variant:normal;font-weight:normal;font-stretch:normal;font-size:0.66797036px;line-height:1.25;font-family:'Source Sans Pro';-inkscape-font-specification:'Source Sans Pro';letter-spacing:0px;word-spacing:0px;fill:#ffffff;fill-opacity:1;stroke:none;stroke-width:0.01723794"
       d="m 21.252016,289.99118 v 1.32185 h 0.08055 v -0.24111 l 0.198972,-0.23151 0.292321,0.47262 h 0.09014 l -0.334995,-0.53343 0.286987,-0.34887 h -0.09389 l -0.435815,0.53504 h -0.0037 v -0.97459 z m 6.499361,0.0805 c -0.04046,0 -0.07361,0.0277 -0.07361,0.0736 0,0.0423 0.03317,0.0721 0.07361,0.0721 0.04045,0 0.07361,-0.0297 0.07361,-0.0721 0,-0.0459 -0.03317,-0.0736 -0.07361,-0.0736 z m -9.230544,0.0299 v 1.21144 h 0.283253 c 0.37142,0 0.547837,-0.2425 0.547837,-0.61025 0,-0.3659 -0.176178,-0.60119 -0.549437,-0.60119 z m 6.475358,0 v 1.21144 h 0.681728 v -0.0736 h -0.597446 v -0.53289 h 0.485425 v -0.0736 h -0.485425 v -0.45822 h 0.57931 v -0.0731 z m -6.390542,0.0716 h 0.187236 c 0.329129,0 0.471022,0.21527 0.471022,0.52969 0,0.31626 -0.141893,0.53877 -0.471022,0.53877 h -0.187236 z m 3.50893,0.002 -0.0112,0.25606 -0.13976,0.007 v 0.0625 h 0.138159 v 0.56864 c 0,0.15812 0.04931,0.26618 0.220309,0.26618 0.03677,0 0.092,-0.0147 0.143494,-0.0331 l -0.02187,-0.0662 c -0.03126,0.0147 -0.07733,0.0277 -0.110421,0.0277 -0.121355,0 -0.148829,-0.0756 -0.148829,-0.18776 v -0.57558 h 0.255516 v -0.0694 h -0.255516 v -0.25605 z m 11.930255,0 -0.0112,0.25606 -0.139761,0.007 v 0.0625 h 0.13816 v 0.56864 c 0,0.15812 0.04931,0.26618 0.220309,0.26618 0.03677,0 0.092,-0.0147 0.143493,-0.0331 l -0.02188,-0.0662 c -0.03126,0.0147 -0.07733,0.0277 -0.110421,0.0277 -0.121355,0 -0.148828,-0.0756 -0.148828,-0.18776 v -0.57558 h 0.255516 v -0.0694 h -0.255516 v -0.25605 z M 19.9323,290.40873 c -0.196742,0 -0.384607,0.17647 -0.384607,0.46515 0,0.28869 0.182449,0.46142 0.408612,0.46142 0.128709,0 0.207514,-0.0441 0.277385,-0.0864 l -0.03308,-0.0625 c -0.0662,0.0478 -0.141765,0.079 -0.237379,0.079 -0.19858,0 -0.328651,-0.15999 -0.332329,-0.38247 h 0.635853 c 0.0037,-0.0221 0.0037,-0.0441 0.0037,-0.0662 0,-0.25926 -0.128584,-0.40808 -0.338197,-0.40808 z m 0.793216,0 c -0.183872,0 -0.284854,0.10653 -0.284854,0.23525 0,0.15077 0.146894,0.20451 0.28112,0.25232 0.10113,0.0367 0.214974,0.0844 0.214974,0.1947 0,0.0937 -0.07173,0.17443 -0.209639,0.17443 -0.126871,0 -0.205733,-0.0495 -0.28112,-0.11202 l -0.04801,0.0608 c 0.07906,0.0662 0.193246,0.12108 0.323794,0.12108 0.191227,0 0.297658,-0.11565 0.297658,-0.24804 0,-0.17284 -0.150685,-0.21897 -0.288588,-0.27045 -0.104807,-0.0386 -0.207506,-0.077 -0.207506,-0.17817 0,-0.081 0.06237,-0.16003 0.198436,-0.16003 0.09009,0 0.152402,0.0347 0.211241,0.079 l 0.04427,-0.0571 c -0.06435,-0.0534 -0.158006,-0.0917 -0.251781,-0.0917 z m 2.230822,0 c -0.211452,0 -0.395274,0.16912 -0.395274,0.46515 0,0.29236 0.183822,0.46142 0.395274,0.46142 0.21329,0 0.396874,-0.16906 0.396875,-0.46142 0,-0.29603 -0.183585,-0.46515 -0.396875,-0.46515 z m 1.044463,0 c -0.108483,0 -0.213369,0.0643 -0.299789,0.13229 h -0.0054 l -0.0074,-0.10988 h -0.06989 v 1.28131 h 0.08109 v -0.48543 c 0.09193,0.068 0.18184,0.10828 0.264584,0.10828 0.207773,0 0.389939,-0.17611 0.389939,-0.47581 0,-0.27398 -0.117777,-0.45076 -0.353134,-0.45076 z m 2.320439,0 c -0.121354,0 -0.213426,0.0683 -0.303523,0.15843 h -0.0059 l -0.0069,-0.13602 h -0.06989 v 0.8823 h 0.08055 v -0.66573 c 0.108485,-0.11032 0.183781,-0.16536 0.288589,-0.16536 0.143419,0 0.202705,0.0883 0.202705,0.27578 v 0.55531 h 0.08055 v -0.56651 c 0,-0.228 -0.08415,-0.3382 -0.266183,-0.3382 z m 2.140674,0 c -0.104809,0 -0.191345,0.0771 -0.250183,0.18564 h -0.0054 l -0.0074,-0.16323 h -0.06988 v 0.8823 h 0.08109 v -0.60118 c 0.06804,-0.16549 0.161513,-0.22619 0.240578,-0.22619 0.03493,0 0.05167,0.003 0.08109,0.0145 l 0.01814,-0.0731 c -0.02942,-0.0148 -0.05492,-0.0187 -0.08801,-0.0187 z m 0.552634,0 c -0.21145,0 -0.395272,0.16912 -0.395272,0.46515 0,0.29236 0.183822,0.46142 0.395272,0.46142 0.213293,0 0.397409,-0.16906 0.397409,-0.46142 0,-0.29603 -0.184116,-0.46515 -0.397409,-0.46515 z m 1.048735,0 c -0.121356,0 -0.213429,0.0683 -0.303525,0.15843 h -0.0059 l -0.0069,-0.13602 h -0.06989 v 0.8823 h 0.08055 v -0.66573 c 0.108483,-0.11032 0.184313,-0.16536 0.28912,-0.16536 0.14342,0 0.20217,0.0883 0.20217,0.27578 v 0.55531 h 0.08055 v -0.56651 c 0,-0.228 -0.08415,-0.3382 -0.266184,-0.3382 z m 0.951113,0 c -0.09745,0 -0.198855,0.0683 -0.277921,0.15843 h -0.0054 l -0.0074,-0.13602 h -0.06989 v 0.8823 h 0.08109 v -0.66573 c 0.09745,-0.11032 0.185519,-0.16536 0.264584,-0.16536 0.136064,0 0.198436,0.0883 0.198436,0.27578 v 0.55531 h 0.08108 v -0.66573 c 0.09745,-0.11032 0.181843,-0.16536 0.264584,-0.16536 0.134226,0 0.196836,0.0883 0.196836,0.27578 v 0.55531 h 0.08269 v -0.56651 c 0,-0.228 -0.08807,-0.3382 -0.264583,-0.3382 -0.101131,0 -0.19866,0.07 -0.299791,0.1803 -0.03126,-0.10848 -0.10273,-0.1803 -0.244312,-0.1803 z m 1.444006,0 c -0.196743,0 -0.384073,0.17647 -0.384073,0.46515 0,0.28869 0.181916,0.46142 0.408077,0.46142 0.12871,0 0.207516,-0.0441 0.277385,-0.0864 l -0.03308,-0.0625 c -0.06619,0.0478 -0.141231,0.079 -0.236845,0.079 -0.198582,0 -0.329184,-0.15999 -0.332863,-0.38247 h 0.635856 c 0.0037,-0.0221 0.0037,-0.0441 0.0037,-0.0662 0,-0.25926 -0.128584,-0.40808 -0.338197,-0.40808 z m 0.962316,0 c -0.121358,0 -0.212896,0.0683 -0.302992,0.15843 h -0.0059 l -0.0074,-0.13602 h -0.06989 v 0.8823 h 0.08109 v -0.66573 c 0.108483,-0.11032 0.183781,-0.16536 0.288588,-0.16536 0.143419,0 0.20217,0.0883 0.20217,0.27578 v 0.55531 h 0.08109 v -0.56651 c 0,-0.228 -0.08468,-0.3382 -0.266716,-0.3382 z m -6.656194,0.0224 0.331262,0.8823 h 0.09549 l 0.326997,-0.8823 h -0.08269 l -0.198437,0.55317 c -0.02942,0.0846 -0.06073,0.17302 -0.09015,0.25391 h -0.0074 c -0.02758,-0.081 -0.06044,-0.16933 -0.08802,-0.25391 l -0.198438,-0.55317 z m 0.944178,0 v 0.8823 h 0.08109 v -0.8823 z m -7.774803,0.0475 c 0.15813,0 0.25925,0.11203 0.25925,0.3382 h -0.56224 c 0.01839,-0.21146 0.152217,-0.3382 0.30299,-0.3382 z m 12.526636,0 c 0.15813,0 0.259249,0.11203 0.259249,0.3382 H 32.15701 c 0.01839,-0.21146 0.152749,-0.3382 0.303525,-0.3382 z m -9.504197,0.002 c 0.178354,0 0.312592,0.15961 0.312592,0.39313 0,0.23168 -0.134238,0.38994 -0.312592,0.38994 -0.178355,0 -0.310992,-0.15826 -0.310992,-0.38994 0,-0.23352 0.132637,-0.39313 0.310992,-0.39313 z m 1.031662,0 c 0.202258,0 0.279519,0.16176 0.279519,0.37873 0,0.23903 -0.128903,0.40434 -0.307258,0.40434 -0.06804,0 -0.159719,-0.0314 -0.260849,-0.11415 v -0.52383 c 0.106645,-0.0937 0.200329,-0.14509 0.288588,-0.14509 z m 5.026548,0 c 0.178358,0 0.312593,0.15961 0.312593,0.39313 0,0.23168 -0.134235,0.38994 -0.312593,0.38994 -0.178352,0 -0.310458,-0.15826 -0.310458,-0.38994 0,-0.23352 0.132106,-0.39313 0.310458,-0.39313 z"
       id="text870-5"
       inkscape:connector-curvature="0" />
  </g>
</svg>
