<?xml version="1.0" encoding="UTF-8" standalone="no"?>
<!-- Created with Inkscape (http://www.inkscape.org/) -->
<svg
   xmlns:dc="http://purl.org/dc/elements/1.1/"
   xmlns:cc="http://creativecommons.org/ns#"
   xmlns:rdf="http://www.w3.org/1999/02/22-rdf-syntax-ns#"
   xmlns:svg="http://www.w3.org/2000/svg"
   xmlns="http://www.w3.org/2000/svg"
   xmlns:xlink="http://www.w3.org/1999/xlink"
   xmlns:sodipodi="http://sodipodi.sourceforge.net/DTD/sodipodi-0.dtd"
   xmlns:inkscape="http://www.inkscape.org/namespaces/inkscape"
   inkscape:export-ydpi="90.000000"
   inkscape:export-xdpi="90.000000"
   inkscape:export-filename="/home/jimmac/Desktop/wi-fi.png"
   width="400"
   height="300"
   id="svg11300"
   sodipodi:version="0.32"
   inkscape:version="0.45.17116"
   sodipodi:docbase="/home/jimmac/src/cvs/gnome/ximian-artwork/icons/Industrial/scalable/places"
   sodipodi:docname="folder-visiting.svg"
   inkscape:output_extension="org.inkscape.output.svg.inkscape"
   version="1.0"
   style="enable-background:new">
  <defs
     id="defs3">
    <inkscape:perspective
       sodipodi:type="inkscape:persp3d"
       inkscape:vp_x="-50 : 600 : 1"
       inkscape:vp_y="0 : 1000 : 0"
       inkscape:vp_z="700 : 600 : 1"
       inkscape:persp3d-origin="300 : 400 : 1"
       id="perspective67" />
    <inkscape:perspective
       sodipodi:type="inkscape:persp3d"
       id="perspective66"
       inkscape:vp_x="-50 : 600 : 1"
       inkscape:vp_y="0 : 1000 : 0"
       inkscape:vp_z="700 : 600 : 1"
       inkscape:persp3d-origin="300 : 400 : 1" />
    <linearGradient
       inkscape:collect="always"
       id="linearGradient5859">
      <stop
         style="stop-color:#ffffff;stop-opacity:1"
         offset="0"
         id="stop5861" />
      <stop
         style="stop-color:#d8d8d3;stop-opacity:1"
         offset="1"
         id="stop5863" />
    </linearGradient>
    <filter
       inkscape:collect="always"
       id="filter6100"
       x="-0.043193191"
       width="1.0863864"
       y="-0.56483406"
       height="2.129668">
      <feGaussianBlur
         inkscape:collect="always"
         stdDeviation="0.76487946"
         id="feGaussianBlur6102" />
    </filter>
    <filter
       inkscape:collect="always"
       id="filter6016"
       x="-0.058716577"
       width="1.1174332"
       y="-0.76783216"
       height="2.5356643">
      <feGaussianBlur
         inkscape:collect="always"
         stdDeviation="1.0397727"
         id="feGaussianBlur6018" />
    </filter>
    <linearGradient
       id="linearGradient5521">
      <stop
         style="stop-color:#ffffff;stop-opacity:1;"
         offset="0"
         id="stop5523" />
      <stop
         style="stop-color:#ffffff;stop-opacity:0;"
         offset="1"
         id="stop5525" />
    </linearGradient>
    <filter
       height="1.5955876"
       y="-0.29779381"
       width="1.0455449"
       x="-0.022772469"
       id="filter5815"
       inkscape:collect="always">
      <feGaussianBlur
         id="feGaussianBlur5817"
         stdDeviation="0.40326246"
         inkscape:collect="always" />
    </filter>
    <filter
       inkscape:collect="always"
       id="filter6666"
       x="-0.092777357"
       width="1.1855547"
       y="-0.54706651"
       height="2.0941329">
      <feGaussianBlur
         inkscape:collect="always"
         stdDeviation="1.6525967"
         id="feGaussianBlur6668" />
    </filter>
    <linearGradient
       id="linearGradient5217">
      <stop
         style="stop-color:#ffffff;stop-opacity:1;"
         offset="0"
         id="stop5219" />
      <stop
         style="stop-color:#c0c0c0;stop-opacity:1;"
         offset="1"
         id="stop5221" />
    </linearGradient>
    <linearGradient
       inkscape:collect="always"
       xlink:href="#linearGradient5217"
       id="linearGradient5280"
       gradientUnits="userSpaceOnUse"
       gradientTransform="matrix(1.219464,0,0,1.17365,-7.580021,-0.39904)"
       x1="26.715637"
       y1="36.848858"
       x2="26.715637"
       y2="4.3829641" />
    <radialGradient
       inkscape:collect="always"
       xlink:href="#linearGradient5521"
       id="radialGradient5896"
       gradientUnits="userSpaceOnUse"
       gradientTransform="matrix(1,0,0,0.6017315,0,9.6112201)"
       cx="25.558281"
       cy="6.612885"
       fx="25.558281"
       fy="6.612885"
       r="20.701151" />
    <linearGradient
       inkscape:collect="always"
       xlink:href="#linearGradient5859"
       id="linearGradient5916"
       gradientUnits="userSpaceOnUse"
       x1="25.440651"
       y1="33.554771"
       x2="25.335943"
       y2="8.5892773"
       gradientTransform="matrix(6.7530761,0,0,6.5143739,-29.47318,9.355758)" />
    <clipPath
       clipPathUnits="userSpaceOnUse"
       id="clipPath5923">
      <path
         style="fill:url(#linearGradient5927);fill-opacity:1;fill-rule:nonzero;stroke:none;stroke-width:0.1507692;stroke-miterlimit:4;stroke-dasharray:none;stroke-opacity:1"
         d="M 29.75,20.625 C 27.04877,20.624999 24.34375,23.238 24.34375,25.84375 L 24.34375,104.3125 L 12.71875,104.3125 C 11.437786,104.3125 9.6015671,105.46565 10.15625,106.40625 C 10.15625,106.40625 21.5,224.4375 21.5,224.4375 C 22.139271,225.48965 23.406536,226.5625 24.6875,226.5625 L 230.9375,226.5625 C 232.21846,226.5625 233.56935,225.37769 234.125,224.4375 C 234.125,224.4375 244.1875,106.40625 244.1875,106.40625 C 244.65713,105.43293 243.54644,104.3125 241.625,104.3125 L 229.75,104.3125 L 229.375,52.46875 C 229.37501,49.863001 227.63873,48.4375 224.9375,48.4375 L 146.25,48.4375 C 143.54877,48.437502 140.47562,46.729106 139.125,42.40625 L 132.25,26.90625 C 130.65464,22.828696 126.10748,20.625 123.40625,20.625 L 29.75,20.625 z"
         id="path5925" />
    </clipPath>
    <linearGradient
       inkscape:collect="always"
       xlink:href="#linearGradient5859"
       id="linearGradient5927"
       gradientUnits="userSpaceOnUse"
       gradientTransform="matrix(6.7530761,0,0,6.5143739,-49.47318,-10.644242)"
       x1="25.440651"
       y1="33.554771"
       x2="25.335943"
       y2="8.5892773" />
    <filter
       inkscape:collect="always"
       id="filter5949">
      <feGaussianBlur
         inkscape:collect="always"
         stdDeviation="1.2364544"
         id="feGaussianBlur5951" />
    </filter>
    <linearGradient
       y2="11.804284"
       x2="26.715637"
       y1="35.756279"
       x1="26.715637"
       gradientTransform="matrix(0.8460496,0,0,-0.8157978,-6.5876888,33.259725)"
       gradientUnits="userSpaceOnUse"
       id="linearGradient6401"
       xlink:href="#linearGradient6403"
       inkscape:collect="always" />
    <linearGradient
       id="linearGradient6403">
      <stop
         id="stop6405"
         offset="0"
         style="stop-color:#c4c4c4;stop-opacity:1;" />
      <stop
         id="stop6407"
         offset="1"
         style="stop-color:#ffffff;stop-opacity:1;" />
    </linearGradient>
    <linearGradient
       inkscape:collect="always"
       xlink:href="#linearGradient6403"
       id="linearGradient6158"
       gradientUnits="userSpaceOnUse"
       gradientTransform="matrix(0.8460496,0,0,-0.8157978,13.412311,53.259725)"
       x1="351.14688"
       y1="-195.80865"
       x2="351.14688"
       y2="-207.17688" />
    <linearGradient
       inkscape:collect="always"
       xlink:href="#linearGradient6403"
       id="linearGradient4947"
       gradientUnits="userSpaceOnUse"
       gradientTransform="matrix(0.8460496,0,0,-0.8157978,13.412311,53.259725)"
       x1="353.51083"
       y1="-146.164"
       x2="353.51083"
       y2="-158.44118" />
  </defs>
  <sodipodi:namedview
     stroke="#ef2929"
     fill="#f57900"
     id="base"
     pagecolor="#ffffff"
     bordercolor="#666666"
     borderopacity="0.25490196"
     inkscape:pageopacity="0.0"
     inkscape:pageshadow="2"
     inkscape:zoom="1"
     inkscape:cx="325.76232"
     inkscape:cy="120.14198"
     inkscape:current-layer="layer3"
     showgrid="true"
     inkscape:grid-bbox="true"
     inkscape:document-units="px"
     inkscape:showpageshadow="false"
     inkscape:window-width="1056"
     inkscape:window-height="926"
     inkscape:window-x="0"
     inkscape:window-y="0"
     width="400px"
     height="300px"
     inkscape:snap-nodes="false"
     inkscape:snap-bbox="true"
     gridtolerance="10000">
    <inkscape:grid
       type="xygrid"
       id="grid5883"
       spacingx="1px"
       spacingy="1px"
       enabled="true"
       visible="true" />
  </sodipodi:namedview>
  <metadata
     id="metadata4">
    <rdf:RDF>
      <cc:Work
         rdf:about="">
        <dc:format>image/svg+xml</dc:format>
        <dc:type
           rdf:resource="http://purl.org/dc/dcmitype/StillImage" />
        <dc:creator>
          <cc:Agent>
            <dc:title>Jakub Steiner</dc:title>
          </cc:Agent>
        </dc:creator>
        <dc:source>http://jimmac.musichall.cz</dc:source>
        <cc:license
           rdf:resource="http://creativecommons.org/licenses/by-sa/3.0/" />
        <dc:title>Folder Visiting</dc:title>
        <dc:subject>
          <rdf:Bag>
            <rdf:li>open</rdf:li>
            <rdf:li>spatial</rdf:li>
            <rdf:li>visiting</rdf:li>
            <rdf:li>status</rdf:li>
            <rdf:li>folder</rdf:li>
          </rdf:Bag>
        </dc:subject>
        <dc:date></dc:date>
        <dc:rights>
          <cc:Agent>
            <dc:title></dc:title>
          </cc:Agent>
        </dc:rights>
        <dc:publisher>
          <cc:Agent>
            <dc:title></dc:title>
          </cc:Agent>
        </dc:publisher>
        <dc:identifier></dc:identifier>
        <dc:relation></dc:relation>
        <dc:language></dc:language>
        <dc:coverage></dc:coverage>
        <dc:description></dc:description>
        <dc:contributor>
          <cc:Agent>
            <dc:title></dc:title>
          </cc:Agent>
        </dc:contributor>
      </cc:Work>
      <cc:License
         rdf:about="http://creativecommons.org/licenses/by-sa/3.0/">
        <cc:permits
           rdf:resource="http://creativecommons.org/ns#Reproduction" />
        <cc:permits
           rdf:resource="http://creativecommons.org/ns#Distribution" />
        <cc:requires
           rdf:resource="http://creativecommons.org/ns#Notice" />
        <cc:requires
           rdf:resource="http://creativecommons.org/ns#Attribution" />
        <cc:permits
           rdf:resource="http://creativecommons.org/ns#DerivativeWorks" />
        <cc:requires
           rdf:resource="http://creativecommons.org/ns#ShareAlike" />
      </cc:License>
    </rdf:RDF>
  </metadata>
  <g
     inkscape:groupmode="layer"
     id="layer3"
     inkscape:label="plate"
     style="display:none">
    <rect
       style="opacity:1;fill:#eeeeec;fill-opacity:1;fill-rule:nonzero;stroke:none;stroke-width:2;stroke-linecap:butt;stroke-linejoin:miter;marker:none;marker-start:none;marker-mid:none;marker-end:none;stroke-miterlimit:4;stroke-dasharray:none;stroke-dashoffset:0;stroke-opacity:1;visibility:visible;display:inline;overflow:visible;enable-background:accumulate"
       id="rect6282"
       width="256"
       height="256"
       x="20"
       y="20"
       inkscape:label="256x256/status/folder-visiting.png" />
    <rect
       inkscape:label="48x48/status/folder-visiting.png"
       y="39.99633"
       x="296.0625"
       height="48"
       width="48"
       id="rect6284"
       style="opacity:1;fill:#eeeeec;fill-opacity:1;fill-rule:nonzero;stroke:none;stroke-width:2;stroke-linecap:butt;stroke-linejoin:miter;marker:none;marker-start:none;marker-mid:none;marker-end:none;stroke-miterlimit:4;stroke-dasharray:none;stroke-dashoffset:0;stroke-opacity:1;visibility:visible;display:inline;overflow:visible;enable-background:accumulate" />
    <rect
       style="opacity:1;fill:#eeeeec;fill-opacity:1;fill-rule:nonzero;stroke:none;stroke-width:2;stroke-linecap:butt;stroke-linejoin:miter;marker:none;marker-start:none;marker-mid:none;marker-end:none;stroke-miterlimit:4;stroke-dasharray:none;stroke-dashoffset:0;stroke-opacity:1;visibility:visible;display:inline;overflow:visible;enable-background:accumulate"
       id="rect6592"
       width="32"
       height="32"
       x="303"
       y="115.99633"
       inkscape:label="32x32/status/folder-visiting.png" />
    <rect
       inkscape:label="22x22/status/folder-visiting.png"
       y="167.05884"
       x="303"
       height="22"
       width="22"
       id="rect6749"
       style="opacity:1;fill:#eeeeec;fill-opacity:1;fill-rule:nonzero;stroke:none;stroke-width:2;stroke-linecap:butt;stroke-linejoin:miter;marker:none;marker-start:none;marker-mid:none;marker-end:none;stroke-miterlimit:4;stroke-dasharray:none;stroke-dashoffset:0;stroke-opacity:1;visibility:visible;display:inline;overflow:visible;enable-background:accumulate" />
    <rect
       style="opacity:1;fill:#eeeeec;fill-opacity:1;fill-rule:nonzero;stroke:none;stroke-width:2;stroke-linecap:butt;stroke-linejoin:miter;marker:none;marker-start:none;marker-mid:none;marker-end:none;stroke-miterlimit:4;stroke-dasharray:none;stroke-dashoffset:0;stroke-opacity:1;visibility:visible;display:inline;overflow:visible;enable-background:accumulate"
       id="rect6833"
       width="16"
       height="16"
       x="303"
       y="209"
       inkscape:label="16x16/status/folder-visiting.png" />
    <rect
       style="opacity:1;fill:#eeeeec;fill-opacity:1;fill-rule:nonzero;stroke:none;stroke-width:2;stroke-linecap:butt;stroke-linejoin:miter;marker:none;marker-start:none;marker-mid:none;marker-end:none;stroke-miterlimit:4;stroke-dasharray:none;stroke-dashoffset:0;stroke-opacity:1;visibility:visible;display:inline;overflow:visible;enable-background:accumulate"
       id="rect8104"
       width="24"
       height="24"
       x="302"
       y="166"
       inkscape:label="24x24/status/folder-visiting.png" />
  </g>
  <g
     id="layer1"
     inkscape:label="artwork"
     inkscape:groupmode="layer"
     style="display:inline">
    <rect
       transform="matrix(0.4266683,0,0,0.4262218,303.48253,167.77782)"
       ry="8.504961"
       rx="8.4960613"
       y="37"
       x="3"
       height="7.25"
       width="42.75"
       id="rect6753"
       style="opacity:0.58285714;fill:#000000;fill-opacity:1;fill-rule:nonzero;stroke:none;stroke-width:1;stroke-linecap:square;stroke-linejoin:round;marker:none;marker-start:none;marker-mid:none;marker-end:none;stroke-miterlimit:10;stroke-dasharray:none;stroke-dashoffset:0;stroke-opacity:1;visibility:visible;display:inline;overflow:visible;filter:url(#filter6666);enable-background:accumulate" />
    <path
       style="opacity:1;fill:url(#linearGradient4947);fill-opacity:1;fill-rule:nonzero;stroke:#888a85;stroke-width:0.99999952;stroke-linecap:butt;stroke-linejoin:miter;marker:none;marker-start:none;marker-mid:none;marker-end:none;stroke-miterlimit:4;stroke-dasharray:none;stroke-dashoffset:0;stroke-opacity:1;visibility:visible;display:inline;overflow:visible;enable-background:accumulate"
       d="M 306,169.59375 C 305.7779,169.59374 305.5625,169.79294 305.5625,170 L 305.5625,175.5 L 304.6875,175.5 C 304.58538,175.50001 304.45577,175.60901 304.5,175.6875 C 304.5,175.6875 305.40625,186.34375 305.40625,186.34375 C 305.45721,186.43155 305.55412,186.53125 305.65625,186.53125 L 322.40625,186.53125 C 322.50838,186.53125 322.61195,186.42221 322.65625,186.34375 C 322.65626,186.34375 323.46875,175.6875 323.46875,175.6875 C 323.5062,175.60627 323.40319,175.5 323.25,175.5 L 322.5,175.5 L 322.46875,171.84375 C 322.46874,171.63669 322.31583,171.53125 322.09375,171.53125 L 315.5625,171.53125 C 315.34044,171.53125 315.11104,171.40599 315,171.0625 L 314.40625,170.09375 C 314.2751,169.76974 313.90957,169.59375 313.6875,169.59375 L 306,169.59375 z"
       id="path6757" />
    <path
       style="opacity:1;fill:url(#linearGradient6158);fill-opacity:1;fill-rule:nonzero;stroke:#888a85;stroke-width:0.99999952;stroke-linecap:butt;stroke-linejoin:miter;marker:none;marker-start:none;marker-mid:none;marker-end:none;stroke-miterlimit:4;stroke-dasharray:none;stroke-dashoffset:0;stroke-opacity:1;visibility:visible;display:inline;overflow:visible;enable-background:accumulate"
       d="M 303.9375,209.53125 C 303.75604,209.53125 303.59375,209.7225 303.59375,209.90625 L 303.59375,214.65625 C 303.55794,214.68648 303.54443,214.71517 303.5625,214.75 C 303.56251,214.75 303.58798,221.52805 303.59375,223.28125 C 303.59451,223.51244 303.59375,224.40625 303.59375,224.40625 C 303.6354,224.48418 303.69779,224.5625 303.78125,224.5625 L 317.5,224.5625 C 317.58344,224.56251 317.6513,224.47588 317.6875,224.40625 C 318.24538,224.6852 319.06493,214.93871 318.6875,214.75 C 318.7181,214.67792 318.65643,214.59375 318.53125,214.59375 L 317.4375,214.59375 L 317.40625,211.79642 C 317.40625,211.61268 317.27521,211.51517 317.09375,211.51517 L 311.78125,211.51517 C 311.59978,211.51517 311.37199,211.41375 311.28125,211.10892 L 310.84375,209.96875 C 310.73658,209.68121 310.43147,209.53125 310.25,209.53125 L 303.9375,209.53125 z"
       id="path6841"
       sodipodi:nodetypes="cccsscccccccccccccc" />
    <g
       id="g6684"
       style="opacity:0.49484534"
       transform="matrix(5.5377413,0,0,6.7807591,13.88745,-43.948147)">
      <rect
         ry="1.9681004"
         rx="1.8229069"
         y="40.75"
         x="3"
         height="3.25"
         width="42.5"
         id="rect6686"
         style="opacity:0.26804127;fill:#000000;fill-opacity:1;fill-rule:evenodd;stroke:none;stroke-width:2;stroke-linecap:round;stroke-linejoin:miter;marker:none;marker-start:none;marker-mid:none;marker-end:none;stroke-miterlimit:4;stroke-dasharray:none;stroke-dashoffset:0;stroke-opacity:1;visibility:visible;display:inline;overflow:visible;filter:url(#filter6016);enable-background:accumulate"
         transform="matrix(1.0114341,0,0,0.8596674,-0.2772755,5.9465936)" />
      <rect
         style="opacity:0.7525773;fill:#000000;fill-opacity:1;fill-rule:evenodd;stroke:none;stroke-width:2;stroke-linecap:round;stroke-linejoin:miter;marker:none;marker-start:none;marker-mid:none;marker-end:none;stroke-miterlimit:4;stroke-dasharray:none;stroke-dashoffset:0;stroke-opacity:1;visibility:visible;display:inline;overflow:visible;filter:url(#filter5815);enable-background:accumulate"
         id="rect6688"
         width="42.5"
         height="3.25"
         x="3"
         y="40.75"
         rx="1.8348622"
         ry="1.625"
         transform="matrix(0.9400921,0,0,0.519335,1.4527673,20.368178)" />
    </g>
    <path
       style="fill:url(#linearGradient5916);fill-opacity:1;fill-rule:nonzero;stroke:none;stroke-width:0.1507692;stroke-miterlimit:4;stroke-dasharray:none;stroke-opacity:1"
       d="M 49.75,40.625 C 47.04877,40.624999 44.34375,43.238 44.34375,45.84375 L 44.34375,124.3125 L 32.71875,124.3125 C 31.437786,124.3125 29.601567,125.46565 30.15625,126.40625 C 30.15625,126.40625 41.5,244.4375 41.5,244.4375 C 42.139271,245.48965 43.406536,246.5625 44.6875,246.5625 L 250.9375,246.5625 C 252.21846,246.5625 253.56935,245.37769 254.125,244.4375 C 254.125,244.4375 264.1875,126.40625 264.1875,126.40625 C 264.65713,125.43293 263.54644,124.3125 261.625,124.3125 L 249.75,124.3125 L 249.375,72.46875 C 249.37501,69.863001 247.63873,68.4375 244.9375,68.4375 L 166.25,68.4375 C 163.54877,68.437502 160.47562,66.729106 159.125,62.40625 L 152.25,46.90625 C 150.65464,42.828696 146.10748,40.625 143.40625,40.625 L 49.75,40.625 z"
       id="path6692" />
    <g
       transform="matrix(5.6503292,0,0,4.908396,-20.399254,46.863207)"
       id="g6694"
       style="fill:none;fill-opacity:1;fill-rule:nonzero;stroke:url(#radialGradient5896);stroke-width:0.37977234;stroke-miterlimit:4;stroke-dasharray:none;stroke-opacity:1" />
    <g
       style="display:inline"
       inkscape:label="Layer 1"
       id="g5265"
       transform="translate(295.75,40.279898)">
      <g
         transform="matrix(1,0,0,1.2216428,0,-9.3921122)"
         style="opacity:0.57731958"
         id="g5267">
        <rect
           transform="matrix(1.0411765,0,0,1.0411765,-0.9985294,-1.7448529)"
           style="opacity:0.52061857;fill:#000000;fill-opacity:1;fill-rule:evenodd;stroke:none;stroke-width:2;stroke-linecap:round;stroke-linejoin:miter;marker:none;marker-start:none;marker-mid:none;marker-end:none;stroke-miterlimit:4;stroke-dasharray:none;stroke-dashoffset:0;stroke-opacity:1;visibility:visible;display:inline;overflow:visible;filter:url(#filter6016);enable-background:accumulate"
           id="rect5269"
           width="42.5"
           height="3.25"
           x="3"
           y="40.75"
           rx="1.7708334"
           ry="1.625" />
        <rect
           transform="matrix(0.9740834,0,0,0.519335,0.6284771,20.368178)"
           ry="1.625"
           rx="1.7708334"
           y="40.75"
           x="3"
           height="3.25"
           width="42.5"
           id="rect5271"
           style="opacity:0.96391757;fill:#000000;fill-opacity:1;fill-rule:evenodd;stroke:none;stroke-width:2;stroke-linecap:round;stroke-linejoin:miter;marker:none;marker-start:none;marker-mid:none;marker-end:none;stroke-miterlimit:4;stroke-dasharray:none;stroke-dashoffset:0;stroke-opacity:1;visibility:visible;display:inline;overflow:visible;filter:url(#filter6100);enable-background:accumulate" />
      </g>
      <path
         id="path5273"
         d="M 6.53125,5.25 C 6.5163081,5.253836 6.483543,5.2766404 6.46875,5.28125 C 6.4466889,5.2887286 6.3966089,5.3033935 6.375,5.3125 C 6.3607094,5.3189184 6.3265375,5.3366582 6.3125,5.34375 C 6.2986002,5.3511677 6.2636021,5.3669519 6.25,5.375 C 6.2365579,5.3833525 6.2005997,5.3973101 6.1875,5.40625 C 6.1099959,5.4615872 6.0296413,5.5526426 5.96875,5.625 C 5.9638153,5.6311247 5.9422914,5.650034 5.9375,5.65625 C 5.8864111,5.7255916 5.8431001,5.8288907 5.8125,5.90625 C 5.8073197,5.9204049 5.7856414,5.9544375 5.78125,5.96875 C 5.7712857,6.0047013 5.7546147,6.0572167 5.75,6.09375 C 5.7479067,6.1157076 5.75,6.1654941 5.75,6.1875 L 5.75,20.1875 L 3.84375,20.1875 C 3.8220642,20.1875 3.7730083,20.184002 3.75,20.1875 C 3.7267456,20.192072 3.6796584,20.211232 3.65625,20.21875 C 3.6097201,20.235566 3.5407189,20.255682 3.5,20.28125 C 3.4934885,20.285701 3.474954,20.307875 3.46875,20.3125 C 3.462886,20.317284 3.4429916,20.338823 3.4375,20.34375 C 3.4324132,20.348806 3.4108995,20.369832 3.40625,20.375 C 3.4020703,20.380266 3.3786775,20.400902 3.375,20.40625 C 3.3655717,20.422496 3.3477818,20.452178 3.34375,20.46875 C 3.3435825,20.471513 3.3437412,20.49724 3.34375,20.5 C 3.3441235,20.502748 3.343188,20.528512 3.34375,20.53125 C 3.3456521,20.536679 3.3722873,20.557134 3.375,20.5625 C 3.3750001,20.562501 5.40625,41.96875 5.40625,41.96875 C 5.4134649,41.98067 5.4294065,41.988128 5.4375,42 C 5.4417558,42.005907 5.4642923,42.025384 5.46875,42.03125 C 5.4734025,42.037063 5.4951598,42.056751 5.5,42.0625 C 5.5953946,42.170282 5.7400359,42.274051 5.875,42.3125 C 5.889284,42.315931 5.9231041,42.341622 5.9375,42.34375 C 5.9519305,42.345192 5.9855428,42.34375 6,42.34375 L 43.25,42.34375 C 43.286268,42.34173 43.338847,42.323473 43.375,42.3125 C 43.389393,42.307487 43.423303,42.28742 43.4375,42.28125 C 43.451569,42.274548 43.486245,42.257674 43.5,42.25 C 43.513568,42.241885 43.549365,42.227653 43.5625,42.21875 C 43.646281,42.158617 43.729921,42.071415 43.78125,42 C 43.784937,41.994547 43.809084,41.974147 43.8125,41.96875 C 43.812502,41.968749 45.625,20.5625 45.625,20.5625 C 45.63295,20.54596 45.6532,20.516847 45.65625,20.5 C 45.656739,20.494379 45.65628,20.474363 45.65625,20.46875 C 45.65571,20.46316 45.657293,20.443053 45.65625,20.4375 C 45.653178,20.426497 45.629996,20.385712 45.625,20.375 C 45.619067,20.364476 45.601505,20.353813 45.59375,20.34375 C 45.58943,20.338855 45.567255,20.317244 45.5625,20.3125 C 45.55732,20.307921 45.536848,20.285649 45.53125,20.28125 C 45.525243,20.277044 45.506407,20.253998 45.5,20.25 C 45.486401,20.242449 45.452616,20.225327 45.4375,20.21875 C 45.366179,20.191535 45.253836,20.1875 45.15625,20.1875 L 42.84375,20.1875 L 42.78125,10.96875 C 42.78125,10.851385 42.755529,10.746207 42.71875,10.65625 C 42.713883,10.645225 42.692901,10.604334 42.6875,10.59375 C 42.681835,10.583387 42.662436,10.572418 42.65625,10.5625 C 42.646584,10.547957 42.635807,10.513532 42.625,10.5 C 42.621273,10.495602 42.597601,10.473035 42.59375,10.46875 C 42.454522,10.330801 42.227886,10.25 41.96875,10.25 L 27.75,10.25 C 27.605189,10.25 27.459248,10.214449 27.3125,10.15625 C 27.258599,10.13359 27.177185,10.093942 27.125,10.0625 C 27.087958,10.03912 27.035661,9.996835 27,9.96875 C 26.879837,9.869994 26.750451,9.7201077 26.65625,9.5625 C 26.591145,9.448665 26.51448,9.3022787 26.46875,9.15625 L 25.21875,6.375 C 25.137725,6.1683867 25.020958,5.9642982 24.875,5.8125 C 24.759548,5.6968621 24.601512,5.5810049 24.46875,5.5 C 24.221182,5.3542427 23.932415,5.2700321 23.71875,5.25 C 23.694514,5.2482645 23.647865,5.25 23.625,5.25 L 6.71875,5.25 C 6.7111284,5.25 6.6951198,5.2497726 6.6875,5.25 C 6.6722716,5.2509026 6.6401837,5.2482235 6.625,5.25 C 6.6022746,5.2533041 6.5537577,5.2448424 6.53125,5.25 z"
         style="fill:url(#linearGradient5280);fill-opacity:1;fill-rule:nonzero;stroke:#888a85;stroke-width:0.99999952;stroke-miterlimit:4;stroke-dasharray:none;stroke-opacity:1" />
    </g>
    <path
       id="path5919"
       d="M 29.75,20.625 C 27.04877,20.624999 24.34375,23.238 24.34375,25.84375 L 24.34375,104.3125 L 12.71875,104.3125 C 11.437786,104.3125 9.6015671,105.46565 10.15625,106.40625 C 10.15625,106.40625 21.5,224.4375 21.5,224.4375 C 22.139271,225.48965 23.406536,226.5625 24.6875,226.5625 L 230.9375,226.5625 C 232.21846,226.5625 233.56935,225.37769 234.125,224.4375 C 234.125,224.4375 244.1875,106.40625 244.1875,106.40625 C 244.65713,105.43293 243.54644,104.3125 241.625,104.3125 L 229.75,104.3125 L 229.375,52.46875 C 229.37501,49.863001 227.63873,48.4375 224.9375,48.4375 L 146.25,48.4375 C 143.54877,48.437502 140.47562,46.729106 139.125,42.40625 L 132.25,26.90625 C 130.65464,22.828696 126.10748,20.625 123.40625,20.625 L 29.75,20.625 z"
       style="opacity:0.44827594;fill:none;fill-opacity:1;fill-rule:nonzero;stroke:#000000;stroke-width:1;stroke-miterlimit:4;stroke-dasharray:none;stroke-opacity:1;filter:url(#filter5949)"
       clip-path="url(#clipPath5923)"
       transform="translate(20,20)" />
    <g
       inkscape:label="Layer 1"
       id="g6057"
       transform="translate(304.16743,116.03715)">
      <g
         transform="matrix(0.6885322,0,0,1.0387969,-0.7523445,-16.007122)"
         style="opacity:0.57731958"
         id="g6059">
        <rect
           transform="matrix(1.0411765,0,0,1.0411765,-0.9985294,-1.7448529)"
           style="opacity:0.52061857;fill:#000000;fill-opacity:1;fill-rule:evenodd;stroke:none;stroke-width:2;stroke-linecap:round;stroke-linejoin:miter;marker:none;marker-start:none;marker-mid:none;marker-end:none;stroke-miterlimit:4;stroke-dasharray:none;stroke-dashoffset:0;stroke-opacity:1;visibility:visible;display:inline;overflow:visible;filter:url(#filter6016);enable-background:accumulate"
           id="rect6061"
           width="42.5"
           height="3.25"
           x="3"
           y="40.75"
           rx="1.7708334"
           ry="1.625" />
        <rect
           transform="matrix(0.9740834,0,0,0.519335,0.6284771,20.368178)"
           ry="1.625"
           rx="1.7708334"
           y="40.75"
           x="3"
           height="3.25"
           width="42.5"
           id="rect6063"
           style="opacity:0.96391757;fill:#000000;fill-opacity:1;fill-rule:evenodd;stroke:none;stroke-width:2;stroke-linecap:round;stroke-linejoin:miter;marker:none;marker-start:none;marker-mid:none;marker-end:none;stroke-miterlimit:4;stroke-dasharray:none;stroke-dashoffset:0;stroke-opacity:1;visibility:visible;display:inline;overflow:visible;filter:url(#filter6100);enable-background:accumulate" />
      </g>
      <path
         id="path6065"
         d="M 3.34375,2.65625 C 3.0053303,2.65625 2.65625,2.9861809 2.65625,3.3125 L 2.65625,12.46875 L 1.3125,12.46875 C 1.1515456,12.46875 0.93030329,12.626295 1,12.75 C 1.0000001,12.75 2.4375,28.25 2.4375,28.25 C 2.517825,28.388375 2.6827956,28.53125 2.84375,28.53125 L 28.75,28.53125 C 28.910954,28.531249 29.086432,28.373651 29.15625,28.25 C 29.156249,28.249999 30.40625,12.75 30.40625,12.75 C 30.465259,12.621991 30.335181,12.46875 30.09375,12.46875 L 28.46875,12.46875 L 28.4375,7 C 28.437501,6.6736811 28.21342,6.5 27.875,6.5 L 17.9375,6.5 C 17.59908,6.5 17.20046,6.2913531 17.03125,5.75 L 16.1875,3.4375 C 15.987628,2.9268662 15.40092,2.65625 15.0625,2.65625 L 3.34375,2.65625 z"
         style="opacity:1;fill:url(#linearGradient6401);fill-opacity:1;fill-rule:nonzero;stroke:#888a85;stroke-width:0.99999952;stroke-linecap:butt;stroke-linejoin:miter;marker:none;marker-start:none;marker-mid:none;marker-end:none;stroke-miterlimit:4;stroke-dasharray:none;stroke-dashoffset:0;stroke-opacity:1;visibility:visible;display:inline;overflow:visible;enable-background:accumulate" />
    </g>
  </g>
</svg>
