<?xml version="1.0" encoding="UTF-8" standalone="no"?>
<svg
   xmlns:dc="http://purl.org/dc/elements/1.1/"
   xmlns:cc="http://creativecommons.org/ns#"
   xmlns:rdf="http://www.w3.org/1999/02/22-rdf-syntax-ns#"
   xmlns:svg="http://www.w3.org/2000/svg"
   xmlns="http://www.w3.org/2000/svg"
   xmlns:sodipodi="http://sodipodi.sourceforge.net/DTD/sodipodi-0.dtd"
   xmlns:inkscape="http://www.inkscape.org/namespaces/inkscape"
   width="1350"
   height="1080"
   viewBox="0 0 1350 1080"
   version="1.1"
   id="SVGRoot"
   sodipodi:docname="desktop-1350x1080.svg"
   inkscape:version="1.0.1 (3bc2e813f5, 2020-09-07)"
   inkscape:export-filename="/home/lkocman/Pictures/leap155/FHD_1920x1080.png"
   inkscape:export-xdpi="96"
   inkscape:export-ydpi="96">
  <defs
     id="defs10" />
  <sodipodi:namedview
     id="base"
     pagecolor="#ffffff"
     bordercolor="#666666"
     borderopacity="1.0"
     inkscape:pageopacity="0.0"
     inkscape:pageshadow="2"
     inkscape:zoom="1.586894"
     inkscape:cx="947.41714"
     inkscape:cy="299.93899"
     inkscape:document-units="px"
     inkscape:current-layer="layer1"
     inkscape:document-rotation="0"
     showgrid="false"
     inkscape:window-width="1920"
     inkscape:window-height="1011"
     inkscape:window-x="1920"
     inkscape:window-y="32"
     inkscape:window-maximized="1"
     showguides="true"
     inkscape:guide-bbox="true">
    <sodipodi:guide
       position="2395.9718,296"
       orientation="0,1"
       id="guide855"
       inkscape:label=""
       inkscape:locked="false"
       inkscape:color="rgb(0,0,255)" />
    <sodipodi:guide
       position="507.00009,303.98745"
       orientation="1,0"
       id="guide863" />
    <sodipodi:guide
       position="573.00903,290.43952"
       orientation="1,0"
       id="guide867" />
    <sodipodi:guide
       position="829.0827,289.93444"
       orientation="1,0"
       id="guide871" />
    <sodipodi:guide
       position="1187.0828,296"
       orientation="1,0"
       id="guide875" />
    <sodipodi:guide
       position="-1.3613191,283"
       orientation="0,1"
       id="guide879"
       inkscape:label=""
       inkscape:locked="false"
       inkscape:color="rgb(0,0,255)" />
    <sodipodi:guide
       position="-2.1781414,251"
       orientation="0,1"
       id="guide881"
       inkscape:label=""
       inkscape:locked="false"
       inkscape:color="rgb(0,0,255)" />
    <sodipodi:guide
       position="1493.511,229.39266"
       orientation="-1,0"
       id="guide910"
       inkscape:label=""
       inkscape:locked="false"
       inkscape:color="rgb(0,0,255)" />
    <sodipodi:guide
       position="1562.2124,227.57564"
       orientation="1,0"
       id="guide912" />
    <sodipodi:guide
       position="1920,92.556619"
       orientation="-1,0"
       id="guide916"
       inkscape:label=""
       inkscape:locked="false"
       inkscape:color="rgb(0,0,255)" />
    <sodipodi:guide
       position="736.25126,251"
       orientation="0,1"
       id="guide918"
       inkscape:label=""
       inkscape:locked="false"
       inkscape:color="rgb(0,0,255)" />
    <sodipodi:guide
       position="159.41964,206"
       orientation="0,1"
       id="guide920"
       inkscape:label=""
       inkscape:locked="false"
       inkscape:color="rgb(0,0,255)" />
    <sodipodi:guide
       position="507,315.71428"
       orientation="-1,0"
       id="guide922"
       inkscape:label=""
       inkscape:locked="false"
       inkscape:color="rgb(0,0,255)" />
    <sodipodi:guide
       position="535.71429,450"
       orientation="1,0"
       id="guide924" />
    <sodipodi:guide
       position="512,374.91352"
       orientation="-1,0"
       id="guide926"
       inkscape:label=""
       inkscape:locked="false"
       inkscape:color="rgb(0,0,255)" />
    <sodipodi:guide
       position="332,861.80705"
       orientation="-1,0"
       id="guide928"
       inkscape:label=""
       inkscape:locked="false"
       inkscape:color="rgb(0,0,255)" />
    <sodipodi:guide
       position="0,283"
       orientation="-1,0"
       id="guide930"
       inkscape:label=""
       inkscape:locked="false"
       inkscape:color="rgb(0,0,255)" />
    <sodipodi:guide
       position="554.82629,238"
       orientation="1,0"
       id="guide959" />
    <sodipodi:guide
       position="1800,206"
       orientation="1,0"
       id="guide963" />
    <sodipodi:guide
       position="453.75,193"
       orientation="0,1"
       id="guide967"
       inkscape:label=""
       inkscape:locked="false"
       inkscape:color="rgb(0,0,255)" />
    <sodipodi:guide
       position="521.42857,161"
       orientation="0,1"
       id="guide969"
       inkscape:label=""
       inkscape:locked="false"
       inkscape:color="rgb(0,0,255)" />
    <sodipodi:guide
       position="114,238"
       orientation="-1,0"
       id="guide971"
       inkscape:label=""
       inkscape:locked="false"
       inkscape:color="rgb(0,0,255)" />
    <sodipodi:guide
       position="869,193"
       orientation="-1,0"
       id="guide978"
       inkscape:label=""
       inkscape:locked="false"
       inkscape:color="rgb(0,0,255)" />
    <sodipodi:guide
       position="1051,407.14286"
       orientation="-1,0"
       id="guide982"
       inkscape:label=""
       inkscape:locked="false"
       inkscape:color="rgb(0,0,255)" />
    <sodipodi:guide
       position="1406,251"
       orientation="-1,0"
       id="guide986"
       inkscape:label=""
       inkscape:locked="false"
       inkscape:color="rgb(0,0,255)" />
    <sodipodi:guide
       position="1585,418.57143"
       orientation="-1,0"
       id="guide994"
       inkscape:label=""
       inkscape:locked="false"
       inkscape:color="rgb(0,0,255)" />
    <sodipodi:guide
       position="1370.5558,998.07917"
       orientation="0,1"
       id="guide1000"
       inkscape:label=""
       inkscape:locked="false"
       inkscape:color="rgb(0,0,255)" />
    <sodipodi:guide
       position="1884,1156.7716"
       orientation="-1,0"
       id="guide1002"
       inkscape:label=""
       inkscape:locked="false"
       inkscape:color="rgb(0,0,255)" />
    <sodipodi:guide
       position="1978.8232,1020"
       orientation="0,1"
       id="guide1050"
       inkscape:label=""
       inkscape:locked="false"
       inkscape:color="rgb(0,0,255)" />
    <sodipodi:guide
       position="1715,1112.83"
       orientation="-1,0"
       id="guide1052"
       inkscape:label=""
       inkscape:locked="false"
       inkscape:color="rgb(0,0,255)" />
    <sodipodi:guide
       position="252.06473,114"
       orientation="0,1"
       id="guide35782"
       inkscape:label=""
       inkscape:locked="false"
       inkscape:color="rgb(0,0,255)" />
    <sodipodi:guide
       position="1092.7006,944"
       orientation="0,1"
       id="guide60"
       inkscape:label=""
       inkscape:locked="false"
       inkscape:color="rgb(0,0,255)" />
    <sodipodi:guide
       position="1245,928.84556"
       orientation="-1,0"
       id="guide72"
       inkscape:label=""
       inkscape:locked="false"
       inkscape:color="rgb(0,0,255)" />
    <sodipodi:guide
       position="1146.1571,904.00271"
       orientation="0,-1"
       id="guide69" />
  </sodipodi:namedview>
  <metadata
     id="metadata13">
    <rdf:RDF>
      <cc:Work
         rdf:about="">
        <dc:format>image/svg+xml</dc:format>
        <dc:type
           rdf:resource="http://purl.org/dc/dcmitype/StillImage" />
        <dc:title />
      </cc:Work>
    </rdf:RDF>
  </metadata>
  <g
     inkscape:label="Layer 1"
     inkscape:groupmode="layer"
     id="layer1">
    <path
       id="rect25"
       style="fill:#173f4f;fill-opacity:1;stroke-width:0.838523"
       d="M 0,0 H 1349.9999 V 1080.0001 H 0 Z" />
    <rect
       style="fill:#35b9ab;fill-opacity:1;stroke-width:0.735988"
       id="rect859"
       width="354.9064"
       height="10.833332"
       x="0"
       y="795.32184" />
    <rect
       style="fill:#173f4f;fill-opacity:1;stroke-width:0.989373"
       id="rect865"
       width="46.429028"
       height="10.833332"
       x="354.90631"
       y="795.32184" />
    <rect
       style="fill:#ffffff;fill-opacity:1;stroke-width:1.73575"
       id="rect869"
       width="180.08838"
       height="10.833332"
       x="401.34174"
       y="795.32184" />
    <rect
       style="fill:#21a4df;fill-opacity:1;stroke-width:1.58601"
       id="rect873"
       width="251.8423"
       height="10.833332"
       x="581.48193"
       y="795.32184" />
    <rect
       style="fill:#9adcd5;fill-opacity:1;stroke-width:0.60997"
       id="rect877"
       width="516.67535"
       height="10.833332"
       x="833.32434"
       y="795.32184" />
    <rect
       style="fill:#35b9ab;fill-opacity:1;stroke-width:0.740127"
       id="rect859-3"
       width="358.90897"
       height="10.833332"
       x="0"
       y="832.82172" />
    <rect
       style="fill:#173f4f;fill-opacity:1;stroke-width:0.989373"
       id="rect865-6"
       width="46.429028"
       height="10.833332"
       x="1065.5494"
       y="832.82172" />
    <rect
       style="fill:#9adcd5;fill-opacity:1;stroke-width:1.73575"
       id="rect869-7"
       width="180.08838"
       height="10.833332"
       x="868.92676"
       y="832.82172" />
    <rect
       style="fill:#35b9ab;fill-opacity:1;stroke-width:1.58863"
       id="rect873-5"
       width="252.6801"
       height="10.833332"
       x="1097.3196"
       y="832.82172" />
    <rect
       style="fill:#59bbe7;fill-opacity:1;stroke-width:0.60811"
       id="rect877-3"
       width="513.53326"
       height="10.833332"
       x="358.90891"
       y="832.82172" />
    <rect
       style="fill:#73ba25;fill-opacity:1;stroke-width:0.585359"
       id="rect932"
       width="232.34647"
       height="10.833332"
       x="0"
       y="870.32184" />
    <rect
       style="fill:#59bbe7;fill-opacity:1;stroke-width:0.689113"
       id="rect937"
       width="123.04686"
       height="10.833332"
       x="232.34641"
       y="870.32184" />
    <rect
       style="fill:#173f4f;fill-opacity:1;stroke-width:0.70076"
       id="rect957"
       width="33.749996"
       height="10.833332"
       x="355.39331"
       y="870.32184" />
    <rect
       style="fill:#35b9ab;fill-opacity:1;stroke-width:3.24558"
       id="rect961"
       width="875.39044"
       height="10.833332"
       x="389.14331"
       y="870.32184" />
    <rect
       style="fill:#73ba25;fill-opacity:1;stroke-width:0.770787"
       id="rect965"
       width="85.46595"
       height="10.833332"
       x="1264.5337"
       y="870.32184" />
    <rect
       style="fill:#21a4df;fill-opacity:1;stroke-width:0.696664"
       id="rect976"
       width="79.106369"
       height="10.833332"
       x="0"
       y="907.82172" />
    <rect
       style="fill:#00a489;fill-opacity:1;stroke-width:0.614592"
       id="rect980"
       width="530.85931"
       height="10.833332"
       x="79.065186"
       y="907.82172" />
    <rect
       style="fill:#173f4f;fill-opacity:1;stroke-width:0.683035"
       id="rect984"
       width="127.96873"
       height="10.833332"
       x="609.9245"
       y="907.82172" />
    <rect
       style="fill:#21a4df;fill-opacity:1;stroke-width:0.504349"
       id="rect992"
       width="249.60933"
       height="10.833332"
       x="737.89319"
       y="907.82172" />
    <rect
       style="fill:#9adcd5;fill-opacity:1;stroke-width:0.511825"
       id="rect996"
       width="125.85935"
       height="10.833332"
       x="987.50262"
       y="907.82172" />
    <rect
       style="fill:#35b9ab;fill-opacity:1;stroke-width:0.716446"
       id="rect998"
       width="236.63783"
       height="10.833332"
       x="1113.3622"
       y="907.82172" />
    <g
       transform="matrix(0.09933226,0,0,0.09933226,338.5273,749.98021)"
       fill="#73ba25"
       id="g64"
       style="fill:#ffffff">
      <path
         id="Geeko"
         d="m 523.71,467.88 c -3.3113,-0.11926 -6.4507,1.0506 -8.8499,3.3008 -2.3993,2.2502 -3.8147,5.2984 -3.9147,8.5991 -0.2297,6.8207 5.1108,12.559 11.916,12.81 3.3095,0.1 6.4647,-1.0698 8.878,-3.32 2.4098,-2.2607 3.7953,-5.3107 3.9006,-8.5991 0.2297,-6.819 -5.109,-12.549 -11.93,-12.791 z m 2.0205,13.512 c -3.0307,0 -5.4791,-1.6398 -5.4791,-3.6498 0,-2.0292 2.4484,-3.6603 5.4791,-3.6603 3.0306,0 5.486,1.6311 5.486,3.6603 0,2.0099 -2.4571,3.6498 -5.486,3.6498 z m 28.798,14.729 c 0.0887,-0.0692 0.29521,-0.25105 0.2683,-0.41918 -0.68471,-4.2787 -7.0592,-25.029 -11.884,-30.019 -1.3294,-1.3592 -2.394,-2.6992 -4.5495,-3.9602 -17.454,-10.171 -58.863,-16.309 -60.803,-16.59 0,0 -0.19473,-0.0406 -0.3297,0.0912 -0.1048,0.10237 -0.1246,0.29991 -0.1246,0.29991 0,0 -0.1596,8.5798 -0.1841,9.5392 -4.2286,-1.4206 -34.972,-11.351 -63.791,-12.351 -24.44,-0.85939 -60.033,-4.0198 -107.2,24.98 l -1.3943,0.86815 c -22.19,13.841 -37.51,30.91 -45.518,50.739 -2.5116,6.2402 -5.8895,20.32 -2.5414,33.569 1.4417,5.7912 4.1304,11.61 7.7556,16.819 8.194,11.77 21.944,19.58 36.749,20.899 20.904,1.8696 36.733,-7.5188 42.363,-25.099 3.8708,-12.13 0,-29.928 -14.839,-39.007 -12.07,-7.3907 -25.049,-5.7106 -32.578,-0.7296 -6.5313,4.3303 -10.23,11.06 -10.165,18.451 0.1508,13.11 11.444,20.078 19.564,20.099 2.3589,0 4.7284,-0.41041 7.3995,-1.2803 0.9506,-0.28939 1.845,-0.64893 2.8307,-1.2593 l 0.3087,-0.18064 0.1947,-0.12978 -0.065,0.0386 c 1.8503,-1.261 2.964,-3.3113 2.964,-5.5106 0,-0.59981 -0.084,-1.2084 -0.2561,-1.8205 -0.9593,-3.32 -4.239,-5.3282 -7.638,-4.7091 l -0.4595,0.10874 -0.6209,0.18942 -0.9015,0.31043 c -1.8696,0.4595 -3.2692,0.49984 -3.5691,0.51037 -0.9506,-0.0614 -5.6246,-1.461 -5.6246,-6.5805 v -0.0702 c 0,-1.8801 0.7542,-3.199 1.1698,-3.9198 1.454,-2.28 5.4352,-4.5179 10.814,-4.0496 7.0593,0.61034 12.149,4.2303 15.52,11.06 3.1289,6.349 2.3098,14.159 -2.1099,19.88 -4.3899,5.6684 -12.205,8.0782 -22.598,6.9593 -10.481,-1.1593 -19.34,-7.1908 -24.303,-16.579 -4.8565,-9.1779 -5.1213,-20.059 -0.6858,-28.418 10.609,-20.029 30.649,-19.82 41.637,-17.921 16.26,2.8202 34.758,17.819 41.319,35.138 1.0593,2.7606 1.5995,4.9494 2.0713,6.9505 l 0.7085,2.9903 18.37,8.9692 c 0.39458,0.19266 0.52796,0.25778 0.6858,0.14034 0.18941,-0.14093 0.081,-0.52966 0.081,-0.52966 -0.114,-0.4104 -0.3806,-0.78924 -0.805,-5.9298 -0.3491,-4.5618 -1.0594,-17.051 5.2282,-23.24 2.4414,-2.4186 6.1613,-4.5776 9.099,-5.2686 12.04,-2.9412 26.159,-0.912 39.507,14.539 6.9102,7.98 10.279,11.619 11.97,13.249 0,0 0.38494,0.36349 0.5893,0.53142 0.22331,0.1835 0.36878,0.33789 0.6945,0.51914 0.55786,0.31042 22.954,10.621 22.954,10.621 0,0 0.26534,0.13182 0.4612,-0.11049 0.19362,-0.23953 0.01,-0.47879 0.01,-0.47879 -0.1491,-0.17013 -14.199,-18.328 -11.698,-33.279 1.9696,-11.909 11.447,-10.83 24.558,-9.3498 4.2794,0.49984 9.1516,1.0593 14.196,1.1716 14.084,0.0895 29.254,-2.5115 38.604,-6.6015 6.049,-2.629 9.9093,-4.3794 12.328,-6.5787 0.8699,-0.72084 1.3207,-1.8907 1.7907,-3.1499 l 0.3297,-0.83133 c 0.3911,-1.0207 0.9664,-3.171 1.219,-4.3496 0.1017,-0.51914 0.2208,-1.0274 -0.2087,-1.3592 -0.39265,-0.30337 -1.2944,0.24026 -1.2944,0.24026 -4.1058,2.4712 -14.369,7.1505 -23.965,7.3504 -11.914,0.24027 -36.054,-12.061 -38.555,-13.36 -1.6739,-3.9857 -3.3458,-7.9724 -5.0438,-11.948 17.27,11.379 31.594,17.668 42.559,18.638 12.207,1.0874 21.723,-5.5724 25.853,-8.3432 0.54064,-0.35944 1.0799,-0.76184 1.5756,-1.1486 z m -48.992,-16.369 c 0.1753,-4.7302 2.1554,-9.12 5.6141,-12.34 3.4603,-3.2306 7.9747,-4.9003 12.708,-4.7494 9.7602,0.34902 17.43,8.5886 17.095,18.338 -0.1841,4.7302 -2.1642,9.12 -5.6141,12.33 -3.4603,3.2499 -7.9642,4.9196 -12.719,4.76 -9.7497,-0.35954 -17.411,-8.5798 -17.084,-18.338 z"
         clip-rule="evenodd"
         fill-rule="evenodd"
         style="fill:#ffffff" />
      <g
         transform="matrix(1.7539,0,0,1.7539,-692,-166.47)"
         id="g62"
         style="fill:#ffffff">
        <path
           d="m 667.46,415.23 c 1.218,0 2.188,0.99 2.188,2.229 0,1.257 -0.971,2.237 -2.198,2.237 -1.218,0 -2.208,-0.98 -2.208,-2.237 0,-1.238 0.99,-2.229 2.208,-2.229 z m -0.01,0.346 c -0.98,0 -1.782,0.842 -1.782,1.882 0,1.06 0.802,1.891 1.792,1.891 0.99,0.011 1.782,-0.831 1.782,-1.881 0,-1.05 -0.792,-1.892 -1.782,-1.892 z m -0.416,3.179 h -0.396 v -2.485 c 0.208,-0.03 0.406,-0.06 0.703,-0.06 0.377,0 0.624,0.079 0.772,0.188 0.149,0.108 0.229,0.276 0.229,0.515 0,0.326 -0.218,0.524 -0.485,0.604 v 0.021 c 0.218,0.039 0.366,0.237 0.416,0.604 0.06,0.387 0.118,0.535 0.158,0.614 h -0.416 c -0.06,-0.079 -0.119,-0.307 -0.168,-0.634 -0.06,-0.316 -0.218,-0.436 -0.535,-0.436 h -0.277 v 1.069 z m 0,-1.377 h 0.287 c 0.327,0 0.604,-0.118 0.604,-0.426 0,-0.218 -0.158,-0.436 -0.604,-0.436 -0.129,0 -0.218,0.01 -0.287,0.021 z"
           fill="#73ba25"
           id="path60"
           style="fill:#ffffff" />
      </g>
    </g>
    <path
       d="m 1197.5747,84.33472 a 1.3184142,1.3337168 0 0 0 -0.8697,0.38418 l -14.5013,14.669371 a 1.3184142,1.3337168 0 0 0 0,1.885739 l 14.5013,14.66918 a 1.3184142,1.3337168 0 0 0 1.8638,0 l 14.501,-14.66918 a 1.3184142,1.3337168 0 0 0 0,-1.885739 L 1198.5688,84.7189 a 1.3184142,1.3337168 0 0 0 -0.9939,-0.38418 z m 0.061,3.214107 12.6371,12.783633 -12.6371,12.78355 -12.6366,-12.78355 z m -15.8189,20.783993 v 1.33368 a 1.3182737,1.3335747 0 0 0 0.3873,0.94284 l 14.5012,14.6692 a 1.3184142,1.3337168 0 0 0 1.8639,0 l 14.501,-14.6692 a 1.3182737,1.3335747 0 0 0 0.3873,-0.94284 1.3182737,1.3335747 0 0 0 0,-0.0602 v -1.27129 h -1.3185 a 1.3182737,1.3335747 0 0 0 -0.9318,0.39221 l -13.569,13.7264 -13.5687,-13.7264 a 1.3182737,1.3335747 0 0 0 -0.9318,-0.38416 v -0.002 z"
       color="#000000"
       color-rendering="auto"
       dominant-baseline="auto"
       fill="#fbc75d"
       image-rendering="auto"
       shape-rendering="auto"
       solid-color="#000000"
       stop-color="#000000"
       style="font-variant-ligatures:normal;font-variant-position:normal;font-variant-caps:normal;font-variant-numeric:normal;font-variant-alternates:normal;font-variant-east-asian:normal;font-feature-settings:normal;font-variation-settings:normal;text-indent:0;text-decoration:none;text-decoration-line:none;text-decoration-style:solid;text-decoration-color:#000000;text-transform:none;text-orientation:mixed;white-space:normal;shape-padding:0;shape-margin:0;inline-size:0;isolation:auto;mix-blend-mode:normal;fill:#ffffff;fill-opacity:1;stroke-width:0.176787"
       id="path64-3" />
    <g
       aria-label="Leap"
       id="text323-6"
       style="font-style:normal;font-weight:normal;font-size:42.4582px;line-height:1.25;font-family:sans-serif;fill:#ffffff;fill-opacity:1;stroke:none;stroke-width:1.06146">
      <path
         d="m 1233.3718,118.92344 h 15.7095 v -3.01453 h -12.1855 V 91.070861 h -3.524 z"
         style="font-style:normal;font-variant:normal;font-weight:normal;font-stretch:normal;font-family:'Source Sans Pro';-inkscape-font-specification:'Source Sans Pro';fill:#ffffff;stroke-width:1.06146"
         id="path5358" />
      <path
         d="m 1261.5216,119.43294 c 2.8022,0 5.0101,-0.97654 6.7933,-2.12291 l -1.2313,-2.29275 c -1.5285,0.97654 -3.1843,1.61342 -5.1374,1.61342 -3.9486,0 -6.6235,-2.80224 -6.8782,-7.17544 h 13.9262 c 0.085,-0.5095 0.1274,-1.27375 0.1274,-1.99553 0,-5.90169 -2.9721,-9.680474 -8.2369,-9.680474 -4.7128,0 -9.2559,4.118444 -9.2559,10.869294 0,6.75086 4.3732,10.78439 9.8928,10.78439 z m -6.4961,-12.48271 c 0.4246,-4.07599 3.057,-6.41119 5.9441,-6.41119 3.2269,0 5.095,2.25028 5.095,6.41119 z"
         style="font-style:normal;font-variant:normal;font-weight:normal;font-stretch:normal;font-family:'Source Sans Pro';-inkscape-font-specification:'Source Sans Pro';fill:#ffffff;stroke-width:1.06146"
         id="path5360" />
      <path
         d="m 1278.3775,119.43294 c 2.59,0 4.8827,-1.35866 6.8358,-2.97208 h 0.1274 l 0.2972,2.46258 h 2.8871 V 106.2709 c 0,-5.13745 -2.1229,-8.491644 -7.1754,-8.491644 -3.3117,0 -6.1989,1.443579 -8.1095,2.674864 l 1.3586,2.42012 c 1.6135,-1.10391 3.7788,-2.20783 6.1565,-2.20783 3.3966,0 4.2458,2.5475 4.2458,5.1799 -8.7888,0.97654 -12.6525,3.22683 -12.6525,7.7274 0,3.69386 2.5899,5.85923 6.029,5.85923 z m 1.019,-2.80224 c -2.038,0 -3.6514,-0.97654 -3.6514,-3.31174 0,-2.63241 2.3777,-4.33074 9.2559,-5.1799 v 5.73185 c -1.9955,1.78325 -3.6089,2.75979 -5.6045,2.75979 z"
         style="font-style:normal;font-variant:normal;font-weight:normal;font-stretch:normal;font-family:'Source Sans Pro';-inkscape-font-specification:'Source Sans Pro';fill:#ffffff;stroke-width:1.06146"
         id="path5362" />
      <path
         d="m 1295.0211,127.62737 h 3.4816 v -6.96314 l -0.085,-3.60895 c 1.9106,1.48604 3.8212,2.37766 5.7318,2.37766 4.7129,0 8.9163,-4.11845 8.9163,-11.12405 0,-6.41119 -2.8447,-10.529634 -8.152,-10.529634 -2.4201,0 -4.7129,1.316204 -6.581,2.887154 h -0.1274 l -0.2972,-2.377655 h -2.8872 z m 8.5341,-11.12405 c -1.3586,0 -3.1843,-0.59441 -5.0525,-2.16537 v -10.82684 c 2.038,-1.8257 3.7788,-2.80224 5.5196,-2.80224 3.9061,0 5.4346,3.05699 5.4346,7.60002 0,5.09498 -2.505,8.19443 -5.9017,8.19443 z"
         style="font-style:normal;font-variant:normal;font-weight:normal;font-stretch:normal;font-family:'Source Sans Pro';-inkscape-font-specification:'Source Sans Pro';fill:#ffffff;stroke-width:1.06146"
         id="path5364" />
    </g>
  </g>
</svg>
