<?xml version="1.0" encoding="UTF-8" standalone="no"?>
<svg
   xmlns:dc="http://purl.org/dc/elements/1.1/"
   xmlns:cc="http://creativecommons.org/ns#"
   xmlns:rdf="http://www.w3.org/1999/02/22-rdf-syntax-ns#"
   xmlns:svg="http://www.w3.org/2000/svg"
   xmlns="http://www.w3.org/2000/svg"
   xmlns:sodipodi="http://sodipodi.sourceforge.net/DTD/sodipodi-0.dtd"
   xmlns:inkscape="http://www.inkscape.org/namespaces/inkscape"
   width="3840"
   height="2400"
   viewBox="0 0 3840.0001 2399.9999"
   version="1.1"
   id="SVGRoot"
   sodipodi:docname="desktop-3840x2400.svg"
   inkscape:version="1.0.1 (3bc2e813f5, 2020-09-07)"
   inkscape:export-filename="/home/lkocman/Pictures/leap155/FHD_1920x1080.png"
   inkscape:export-xdpi="96"
   inkscape:export-ydpi="96">
  <defs
     id="defs10" />
  <sodipodi:namedview
     id="base"
     pagecolor="#ffffff"
     bordercolor="#666666"
     borderopacity="1.0"
     inkscape:pageopacity="0.0"
     inkscape:pageshadow="2"
     inkscape:zoom="0.3535534"
     inkscape:cx="2785.7774"
     inkscape:cy="528.05976"
     inkscape:document-units="px"
     inkscape:current-layer="layer1"
     inkscape:document-rotation="0"
     showgrid="false"
     inkscape:window-width="1920"
     inkscape:window-height="1011"
     inkscape:window-x="1920"
     inkscape:window-y="32"
     inkscape:window-maximized="1"
     showguides="true"
     inkscape:guide-bbox="true"
     units="px">
    <sodipodi:guide
       position="2395.9718,296"
       orientation="0,1"
       id="guide855"
       inkscape:label=""
       inkscape:locked="false"
       inkscape:color="rgb(0,0,255)" />
    <sodipodi:guide
       position="507.00009,303.98745"
       orientation="1,0"
       id="guide863" />
    <sodipodi:guide
       position="573.00903,290.43952"
       orientation="1,0"
       id="guide867" />
    <sodipodi:guide
       position="829.0827,289.93444"
       orientation="1,0"
       id="guide871" />
    <sodipodi:guide
       position="1187.0828,296"
       orientation="1,0"
       id="guide875" />
    <sodipodi:guide
       position="-1.3613191,283"
       orientation="0,1"
       id="guide879"
       inkscape:label=""
       inkscape:locked="false"
       inkscape:color="rgb(0,0,255)" />
    <sodipodi:guide
       position="-2.1781414,251"
       orientation="0,1"
       id="guide881"
       inkscape:label=""
       inkscape:locked="false"
       inkscape:color="rgb(0,0,255)" />
    <sodipodi:guide
       position="1493.511,229.39266"
       orientation="-1,0"
       id="guide910"
       inkscape:label=""
       inkscape:locked="false"
       inkscape:color="rgb(0,0,255)" />
    <sodipodi:guide
       position="1562.2124,227.57564"
       orientation="1,0"
       id="guide912" />
    <sodipodi:guide
       position="1920,92.556619"
       orientation="-1,0"
       id="guide916"
       inkscape:label=""
       inkscape:locked="false"
       inkscape:color="rgb(0,0,255)" />
    <sodipodi:guide
       position="736.25126,251"
       orientation="0,1"
       id="guide918"
       inkscape:label=""
       inkscape:locked="false"
       inkscape:color="rgb(0,0,255)" />
    <sodipodi:guide
       position="159.41964,206"
       orientation="0,1"
       id="guide920"
       inkscape:label=""
       inkscape:locked="false"
       inkscape:color="rgb(0,0,255)" />
    <sodipodi:guide
       position="507,315.71428"
       orientation="-1,0"
       id="guide922"
       inkscape:label=""
       inkscape:locked="false"
       inkscape:color="rgb(0,0,255)" />
    <sodipodi:guide
       position="535.71429,450"
       orientation="1,0"
       id="guide924" />
    <sodipodi:guide
       position="512,374.91352"
       orientation="-1,0"
       id="guide926"
       inkscape:label=""
       inkscape:locked="false"
       inkscape:color="rgb(0,0,255)" />
    <sodipodi:guide
       position="332,861.80705"
       orientation="-1,0"
       id="guide928"
       inkscape:label=""
       inkscape:locked="false"
       inkscape:color="rgb(0,0,255)" />
    <sodipodi:guide
       position="0,283"
       orientation="-1,0"
       id="guide930"
       inkscape:label=""
       inkscape:locked="false"
       inkscape:color="rgb(0,0,255)" />
    <sodipodi:guide
       position="554.82629,238"
       orientation="1,0"
       id="guide959" />
    <sodipodi:guide
       position="1800,206"
       orientation="1,0"
       id="guide963" />
    <sodipodi:guide
       position="453.75,193"
       orientation="0,1"
       id="guide967"
       inkscape:label=""
       inkscape:locked="false"
       inkscape:color="rgb(0,0,255)" />
    <sodipodi:guide
       position="521.42857,161"
       orientation="0,1"
       id="guide969"
       inkscape:label=""
       inkscape:locked="false"
       inkscape:color="rgb(0,0,255)" />
    <sodipodi:guide
       position="114,238"
       orientation="-1,0"
       id="guide971"
       inkscape:label=""
       inkscape:locked="false"
       inkscape:color="rgb(0,0,255)" />
    <sodipodi:guide
       position="869,193"
       orientation="-1,0"
       id="guide978"
       inkscape:label=""
       inkscape:locked="false"
       inkscape:color="rgb(0,0,255)" />
    <sodipodi:guide
       position="1051,407.14286"
       orientation="-1,0"
       id="guide982"
       inkscape:label=""
       inkscape:locked="false"
       inkscape:color="rgb(0,0,255)" />
    <sodipodi:guide
       position="1406,251"
       orientation="-1,0"
       id="guide986"
       inkscape:label=""
       inkscape:locked="false"
       inkscape:color="rgb(0,0,255)" />
    <sodipodi:guide
       position="1585,418.57143"
       orientation="-1,0"
       id="guide994"
       inkscape:label=""
       inkscape:locked="false"
       inkscape:color="rgb(0,0,255)" />
    <sodipodi:guide
       position="391.93919,996"
       orientation="0,1"
       id="guide1000"
       inkscape:label=""
       inkscape:locked="false"
       inkscape:color="rgb(0,0,255)" />
    <sodipodi:guide
       position="1884,1156.7716"
       orientation="-1,0"
       id="guide1002"
       inkscape:label=""
       inkscape:locked="false"
       inkscape:color="rgb(0,0,255)" />
    <sodipodi:guide
       position="1978.8232,1020"
       orientation="0,1"
       id="guide1050"
       inkscape:label=""
       inkscape:locked="false"
       inkscape:color="rgb(0,0,255)" />
    <sodipodi:guide
       position="1715,1112.83"
       orientation="-1,0"
       id="guide1052"
       inkscape:label=""
       inkscape:locked="false"
       inkscape:color="rgb(0,0,255)" />
    <sodipodi:guide
       position="3392,2220"
       orientation="0,1"
       id="guide71"
       inkscape:label=""
       inkscape:locked="false"
       inkscape:color="rgb(0,0,255)" />
    <sodipodi:guide
       position="3775,2220"
       orientation="-1,0"
       id="guide73"
       inkscape:label=""
       inkscape:locked="false"
       inkscape:color="rgb(0,0,255)" />
    <sodipodi:guide
       position="5033.0002,2971.9999"
       orientation="1,0"
       id="guide78" />
    <sodipodi:guide
       position="4948.5002,2960.9999"
       orientation="0,-1"
       id="guide80" />
    <sodipodi:guide
       position="4870.5517,2852.8105"
       orientation="0,-1"
       id="guide82" />
  </sodipodi:namedview>
  <metadata
     id="metadata13">
    <rdf:RDF>
      <cc:Work
         rdf:about="">
        <dc:format>image/svg+xml</dc:format>
        <dc:type
           rdf:resource="http://purl.org/dc/dcmitype/StillImage" />
        <dc:title />
      </cc:Work>
    </rdf:RDF>
  </metadata>
  <g
     inkscape:label="Layer 1"
     inkscape:groupmode="layer"
     id="layer1">
    <path
       id="rect25"
       style="fill:#173f4f;fill-opacity:1;stroke-width:2.10818"
       d="M 3.5170898e-5,0 H 3840 V 2399.9997 H 3.5170898e-5 Z"
       inkscape:export-xdpi="95.900002"
       inkscape:export-ydpi="95.900002" />
    <rect
       style="fill:#35b9ab;fill-opacity:1;stroke-width:2.027"
       id="rect859"
       width="1009.5116"
       height="28.888887"
       x="0"
       y="1739.5612"
       inkscape:export-xdpi="95.900002"
       inkscape:export-ydpi="95.900002" />
    <rect
       style="fill:#173f4f;fill-opacity:1;stroke-width:2.72486"
       id="rect865"
       width="132.0648"
       height="28.888887"
       x="1009.5117"
       y="1739.5612"
       inkscape:export-xdpi="95.900002"
       inkscape:export-ydpi="95.900002" />
    <rect
       style="fill:#ffffff;fill-opacity:1;stroke-width:4.78048"
       id="rect869"
       width="512.2514"
       height="28.888887"
       x="1141.5945"
       y="1739.5612"
       inkscape:export-xdpi="95.900002"
       inkscape:export-ydpi="95.900002" />
    <rect
       style="fill:#21a4df;fill-opacity:1;stroke-width:4.36804"
       id="rect873"
       width="716.35156"
       height="28.888887"
       x="1653.9934"
       y="1739.5612"
       inkscape:export-xdpi="95.900002"
       inkscape:export-ydpi="95.900002" />
    <rect
       style="fill:#9adcd5;fill-opacity:1;stroke-width:1.67993"
       id="rect877"
       width="1469.6545"
       height="28.888887"
       x="2370.345"
       y="1739.5612"
       inkscape:export-xdpi="95.900002"
       inkscape:export-ydpi="95.900002" />
    <rect
       style="fill:#35b9ab;fill-opacity:1;stroke-width:2.0384"
       id="rect859-3"
       width="1020.8967"
       height="28.888887"
       x="0"
       y="1839.561"
       inkscape:export-xdpi="95.900002"
       inkscape:export-ydpi="95.900002" />
    <rect
       style="fill:#173f4f;fill-opacity:1;stroke-width:2.72486"
       id="rect865-6"
       width="132.0648"
       height="28.888887"
       x="3030.8967"
       y="1839.561"
       inkscape:export-xdpi="95.900002"
       inkscape:export-ydpi="95.900002" />
    <rect
       style="fill:#9adcd5;fill-opacity:1;stroke-width:4.78048"
       id="rect869-7"
       width="512.2514"
       height="28.888887"
       x="2471.6138"
       y="1839.561"
       inkscape:export-xdpi="95.900002"
       inkscape:export-ydpi="95.900002" />
    <rect
       style="fill:#35b9ab;fill-opacity:1;stroke-width:4.37528"
       id="rect873-5"
       width="718.73456"
       height="28.888887"
       x="3121.2651"
       y="1839.561"
       inkscape:export-xdpi="95.900002"
       inkscape:export-ydpi="95.900002" />
    <rect
       style="fill:#59bbe7;fill-opacity:1;stroke-width:1.67481"
       id="rect877-3"
       width="1460.7169"
       height="28.888887"
       x="1020.8967"
       y="1839.561"
       inkscape:export-xdpi="95.900002"
       inkscape:export-ydpi="95.900002" />
    <rect
       style="fill:#73ba25;fill-opacity:1;stroke-width:1.61215"
       id="rect932"
       width="660.89667"
       height="28.888887"
       x="0"
       y="1939.561"
       inkscape:export-xdpi="95.900002"
       inkscape:export-ydpi="95.900002" />
    <rect
       style="fill:#59bbe7;fill-opacity:1;stroke-width:1.8979"
       id="rect937"
       width="349.99997"
       height="28.888887"
       x="660.89667"
       y="1939.561"
       inkscape:export-xdpi="95.900002"
       inkscape:export-ydpi="95.900002" />
    <rect
       style="fill:#173f4f;fill-opacity:1;stroke-width:1.92998"
       id="rect957"
       width="95.999985"
       height="28.888887"
       x="1010.8966"
       y="1939.561"
       inkscape:export-xdpi="95.900002"
       inkscape:export-ydpi="95.900002" />
    <rect
       style="fill:#35b9ab;fill-opacity:1;stroke-width:8.93872"
       id="rect961"
       width="2489.9998"
       height="28.888887"
       x="1106.8966"
       y="1939.561"
       inkscape:export-xdpi="95.900002"
       inkscape:export-ydpi="95.900002" />
    <rect
       style="fill:#73ba25;fill-opacity:1;stroke-width:2.12284"
       id="rect965"
       width="243.10313"
       height="28.888887"
       x="3596.8967"
       y="1939.561"
       inkscape:export-xdpi="95.900002"
       inkscape:export-ydpi="95.900002" />
    <rect
       style="fill:#21a4df;fill-opacity:1;stroke-width:1.9187"
       id="rect976"
       width="225.01369"
       height="28.888887"
       x="0"
       y="2039.5609"
       inkscape:export-xdpi="95.900002"
       inkscape:export-ydpi="95.900002" />
    <rect
       style="fill:#00a489;fill-opacity:1;stroke-width:1.69266"
       id="rect980"
       width="1509.9999"
       height="28.888887"
       x="224.89673"
       y="2039.5609"
       inkscape:export-xdpi="95.900002"
       inkscape:export-ydpi="95.900002" />
    <rect
       style="fill:#173f4f;fill-opacity:1;stroke-width:1.88116"
       id="rect984"
       width="363.99997"
       height="28.888887"
       x="1734.8965"
       y="2039.5609"
       inkscape:export-xdpi="95.900002"
       inkscape:export-ydpi="95.900002" />
    <rect
       style="fill:#21a4df;fill-opacity:1;stroke-width:1.38904"
       id="rect992"
       width="709.99994"
       height="28.888887"
       x="2098.8965"
       y="2039.5609"
       inkscape:export-xdpi="95.900002"
       inkscape:export-ydpi="95.900002" />
    <rect
       style="fill:#9adcd5;fill-opacity:1;stroke-width:1.40963"
       id="rect996"
       width="357.99997"
       height="28.888887"
       x="2808.8965"
       y="2039.5609"
       inkscape:export-xdpi="95.900002"
       inkscape:export-ydpi="95.900002" />
    <rect
       style="fill:#35b9ab;fill-opacity:1;stroke-width:1.97318"
       id="rect998"
       width="673.10321"
       height="28.888887"
       x="3166.8965"
       y="2039.5609"
       inkscape:export-xdpi="95.900002"
       inkscape:export-ydpi="95.900002" />
    <g
       transform="matrix(0.21527243,0,0,0.21527243,990.78443,1643.4098)"
       fill="#73ba25"
       id="g64"
       style="fill:#ffffff"
       inkscape:export-xdpi="95.900002"
       inkscape:export-ydpi="95.900002">
      <path
         id="Geeko"
         d="m 523.71,467.88 c -3.3113,-0.11926 -6.4507,1.0506 -8.8499,3.3008 -2.3993,2.2502 -3.8147,5.2984 -3.9147,8.5991 -0.2297,6.8207 5.1108,12.559 11.916,12.81 3.3095,0.1 6.4647,-1.0698 8.878,-3.32 2.4098,-2.2607 3.7953,-5.3107 3.9006,-8.5991 0.2297,-6.819 -5.109,-12.549 -11.93,-12.791 z m 2.0205,13.512 c -3.0307,0 -5.4791,-1.6398 -5.4791,-3.6498 0,-2.0292 2.4484,-3.6603 5.4791,-3.6603 3.0306,0 5.486,1.6311 5.486,3.6603 0,2.0099 -2.4571,3.6498 -5.486,3.6498 z m 28.798,14.729 c 0.0887,-0.0692 0.29521,-0.25105 0.2683,-0.41918 -0.68471,-4.2787 -7.0592,-25.029 -11.884,-30.019 -1.3294,-1.3592 -2.394,-2.6992 -4.5495,-3.9602 -17.454,-10.171 -58.863,-16.309 -60.803,-16.59 0,0 -0.19473,-0.0406 -0.3297,0.0912 -0.1048,0.10237 -0.1246,0.29991 -0.1246,0.29991 0,0 -0.1596,8.5798 -0.1841,9.5392 -4.2286,-1.4206 -34.972,-11.351 -63.791,-12.351 -24.44,-0.85939 -60.033,-4.0198 -107.2,24.98 l -1.3943,0.86815 c -22.19,13.841 -37.51,30.91 -45.518,50.739 -2.5116,6.2402 -5.8895,20.32 -2.5414,33.569 1.4417,5.7912 4.1304,11.61 7.7556,16.819 8.194,11.77 21.944,19.58 36.749,20.899 20.904,1.8696 36.733,-7.5188 42.363,-25.099 3.8708,-12.13 0,-29.928 -14.839,-39.007 -12.07,-7.3907 -25.049,-5.7106 -32.578,-0.7296 -6.5313,4.3303 -10.23,11.06 -10.165,18.451 0.1508,13.11 11.444,20.078 19.564,20.099 2.3589,0 4.7284,-0.41041 7.3995,-1.2803 0.9506,-0.28939 1.845,-0.64893 2.8307,-1.2593 l 0.3087,-0.18064 0.1947,-0.12978 -0.065,0.0386 c 1.8503,-1.261 2.964,-3.3113 2.964,-5.5106 0,-0.59981 -0.084,-1.2084 -0.2561,-1.8205 -0.9593,-3.32 -4.239,-5.3282 -7.638,-4.7091 l -0.4595,0.10874 -0.6209,0.18942 -0.9015,0.31043 c -1.8696,0.4595 -3.2692,0.49984 -3.5691,0.51037 -0.9506,-0.0614 -5.6246,-1.461 -5.6246,-6.5805 v -0.0702 c 0,-1.8801 0.7542,-3.199 1.1698,-3.9198 1.454,-2.28 5.4352,-4.5179 10.814,-4.0496 7.0593,0.61034 12.149,4.2303 15.52,11.06 3.1289,6.349 2.3098,14.159 -2.1099,19.88 -4.3899,5.6684 -12.205,8.0782 -22.598,6.9593 -10.481,-1.1593 -19.34,-7.1908 -24.303,-16.579 -4.8565,-9.1779 -5.1213,-20.059 -0.6858,-28.418 10.609,-20.029 30.649,-19.82 41.637,-17.921 16.26,2.8202 34.758,17.819 41.319,35.138 1.0593,2.7606 1.5995,4.9494 2.0713,6.9505 l 0.7085,2.9903 18.37,8.9692 c 0.39458,0.19266 0.52796,0.25778 0.6858,0.14034 0.18941,-0.14093 0.081,-0.52966 0.081,-0.52966 -0.114,-0.4104 -0.3806,-0.78924 -0.805,-5.9298 -0.3491,-4.5618 -1.0594,-17.051 5.2282,-23.24 2.4414,-2.4186 6.1613,-4.5776 9.099,-5.2686 12.04,-2.9412 26.159,-0.912 39.507,14.539 6.9102,7.98 10.279,11.619 11.97,13.249 0,0 0.38494,0.36349 0.5893,0.53142 0.22331,0.1835 0.36878,0.33789 0.6945,0.51914 0.55786,0.31042 22.954,10.621 22.954,10.621 0,0 0.26534,0.13182 0.4612,-0.11049 0.19362,-0.23953 0.01,-0.47879 0.01,-0.47879 -0.1491,-0.17013 -14.199,-18.328 -11.698,-33.279 1.9696,-11.909 11.447,-10.83 24.558,-9.3498 4.2794,0.49984 9.1516,1.0593 14.196,1.1716 14.084,0.0895 29.254,-2.5115 38.604,-6.6015 6.049,-2.629 9.9093,-4.3794 12.328,-6.5787 0.8699,-0.72084 1.3207,-1.8907 1.7907,-3.1499 l 0.3297,-0.83133 c 0.3911,-1.0207 0.9664,-3.171 1.219,-4.3496 0.1017,-0.51914 0.2208,-1.0274 -0.2087,-1.3592 -0.39265,-0.30337 -1.2944,0.24026 -1.2944,0.24026 -4.1058,2.4712 -14.369,7.1505 -23.965,7.3504 -11.914,0.24027 -36.054,-12.061 -38.555,-13.36 -1.6739,-3.9857 -3.3458,-7.9724 -5.0438,-11.948 17.27,11.379 31.594,17.668 42.559,18.638 12.207,1.0874 21.723,-5.5724 25.853,-8.3432 0.54064,-0.35944 1.0799,-0.76184 1.5756,-1.1486 z m -48.992,-16.369 c 0.1753,-4.7302 2.1554,-9.12 5.6141,-12.34 3.4603,-3.2306 7.9747,-4.9003 12.708,-4.7494 9.7602,0.34902 17.43,8.5886 17.095,18.338 -0.1841,4.7302 -2.1642,9.12 -5.6141,12.33 -3.4603,3.2499 -7.9642,4.9196 -12.719,4.76 -9.7497,-0.35954 -17.411,-8.5798 -17.084,-18.338 z"
         clip-rule="evenodd"
         fill-rule="evenodd"
         style="fill:#ffffff" />
      <g
         transform="matrix(1.7539,0,0,1.7539,-692,-166.47)"
         id="g62"
         style="fill:#ffffff">
        <path
           d="m 667.46,415.23 c 1.218,0 2.188,0.99 2.188,2.229 0,1.257 -0.971,2.237 -2.198,2.237 -1.218,0 -2.208,-0.98 -2.208,-2.237 0,-1.238 0.99,-2.229 2.208,-2.229 z m -0.01,0.346 c -0.98,0 -1.782,0.842 -1.782,1.882 0,1.06 0.802,1.891 1.792,1.891 0.99,0.011 1.782,-0.831 1.782,-1.881 0,-1.05 -0.792,-1.892 -1.782,-1.892 z m -0.416,3.179 h -0.396 v -2.485 c 0.208,-0.03 0.406,-0.06 0.703,-0.06 0.377,0 0.624,0.079 0.772,0.188 0.149,0.108 0.229,0.276 0.229,0.515 0,0.326 -0.218,0.524 -0.485,0.604 v 0.021 c 0.218,0.039 0.366,0.237 0.416,0.604 0.06,0.387 0.118,0.535 0.158,0.614 h -0.416 c -0.06,-0.079 -0.119,-0.307 -0.168,-0.634 -0.06,-0.316 -0.218,-0.436 -0.535,-0.436 h -0.277 v 1.069 z m 0,-1.377 h 0.287 c 0.327,0 0.604,-0.118 0.604,-0.426 0,-0.218 -0.158,-0.436 -0.604,-0.436 -0.129,0 -0.218,0.01 -0.287,0.021 z"
           fill="#73ba25"
           id="path60"
           style="fill:#ffffff" />
      </g>
    </g>
    <path
       d="m 3547.0612,179.25008 a 2.5831041,2.6130859 0 0 0 -1.7039,0.75271 l -28.4117,28.74098 a 2.5831041,2.6130859 0 0 0 0,3.69464 l 28.4117,28.74061 a 2.5831041,2.6130859 0 0 0 3.6516,0 l 28.4111,-28.74061 a 2.5831041,2.6130859 0 0 0 0,-3.69464 l -28.4111,-28.74098 a 2.5831041,2.6130859 0 0 0 -1.9472,-0.75271 z m 0.1199,6.29724 24.7594,25.04635 -24.7594,25.04618 -24.7583,-25.04618 z m -30.9931,40.72107 v 2.613 a 2.5828288,2.6128073 0 0 0 0.7588,1.84728 l 28.4116,28.74063 a 2.5831041,2.6130859 0 0 0 3.6517,0 l 28.4111,-28.74063 a 2.5828288,2.6128073 0 0 0 0.7588,-1.84728 2.5828288,2.6128073 0 0 0 0,-0.11799 v -2.49077 h -2.5832 a 2.5828288,2.6128073 0 0 0 -1.8257,0.76843 l -26.585,26.89346 -26.5846,-26.89346 a 2.5828288,2.6128073 0 0 0 -1.8255,-0.75267 v -0.004 z"
       color="#000000"
       color-rendering="auto"
       dominant-baseline="auto"
       fill="#fbc75d"
       image-rendering="auto"
       shape-rendering="auto"
       solid-color="#000000"
       stop-color="#000000"
       style="font-variant-ligatures:normal;font-variant-position:normal;font-variant-caps:normal;font-variant-numeric:normal;font-variant-alternates:normal;font-variant-east-asian:normal;font-feature-settings:normal;font-variation-settings:normal;text-indent:0;text-decoration:none;text-decoration-line:none;text-decoration-style:solid;text-decoration-color:#000000;text-transform:none;text-orientation:mixed;white-space:normal;shape-padding:0;shape-margin:0;inline-size:0;isolation:auto;mix-blend-mode:normal;fill:#fbc75d;stroke-width:0.34637;fill-opacity:1"
       id="path64-3" />
    <text
       xml:space="preserve"
       style="font-style:normal;font-weight:normal;font-size:83.1862px;line-height:1.25;font-family:sans-serif;fill:#ffffff;fill-opacity:1;stroke:none;stroke-width:2.07966"
       x="3609.7097"
       y="247.01807"
       id="text323-6"><tspan
         sodipodi:role="line"
         id="tspan321-7"
         x="3609.7097"
         y="247.01807"
         style="font-style:normal;font-variant:normal;font-weight:normal;font-stretch:normal;font-family:'Source Sans Pro';-inkscape-font-specification:'Source Sans Pro';fill:#ffffff;stroke-width:2.07966">Leap</tspan></text>
  </g>
</svg>
