<?xml version="1.0" encoding="UTF-8" standalone="no"?>
<svg
   xmlns:dc="http://purl.org/dc/elements/1.1/"
   xmlns:cc="http://creativecommons.org/ns#"
   xmlns:rdf="http://www.w3.org/1999/02/22-rdf-syntax-ns#"
   xmlns:svg="http://www.w3.org/2000/svg"
   xmlns="http://www.w3.org/2000/svg"
   xmlns:sodipodi="http://sodipodi.sourceforge.net/DTD/sodipodi-0.dtd"
   xmlns:inkscape="http://www.inkscape.org/namespaces/inkscape"
   width="5120"
   height="3200"
   viewBox="0 0 5120.0002 3199.9999"
   version="1.1"
   id="SVGRoot"
   sodipodi:docname="desktop-5120x3200.svg"
   inkscape:version="1.0.1 (3bc2e813f5, 2020-09-07)"
   inkscape:export-filename="/home/lkocman/Pictures/leap155/FHD_1920x1080.png"
   inkscape:export-xdpi="96"
   inkscape:export-ydpi="96">
  <defs
     id="defs10" />
  <sodipodi:namedview
     id="base"
     pagecolor="#ffffff"
     bordercolor="#666666"
     borderopacity="1.0"
     inkscape:pageopacity="0.0"
     inkscape:pageshadow="2"
     inkscape:zoom="0.70710678"
     inkscape:cx="4259.2364"
     inkscape:cy="444.20773"
     inkscape:document-units="px"
     inkscape:current-layer="text323-6"
     inkscape:document-rotation="0"
     showgrid="false"
     inkscape:window-width="1920"
     inkscape:window-height="1011"
     inkscape:window-x="1920"
     inkscape:window-y="32"
     inkscape:window-maximized="1"
     showguides="true"
     inkscape:guide-bbox="true"
     units="px">
    <sodipodi:guide
       position="2395.9718,296"
       orientation="0,1"
       id="guide855"
       inkscape:label=""
       inkscape:locked="false"
       inkscape:color="rgb(0,0,255)" />
    <sodipodi:guide
       position="507.00009,303.98745"
       orientation="1,0"
       id="guide863" />
    <sodipodi:guide
       position="573.00903,290.43952"
       orientation="1,0"
       id="guide867" />
    <sodipodi:guide
       position="829.0827,289.93444"
       orientation="1,0"
       id="guide871" />
    <sodipodi:guide
       position="1187.0828,296"
       orientation="1,0"
       id="guide875" />
    <sodipodi:guide
       position="-1.3613191,283"
       orientation="0,1"
       id="guide879"
       inkscape:label=""
       inkscape:locked="false"
       inkscape:color="rgb(0,0,255)" />
    <sodipodi:guide
       position="-2.1781414,251"
       orientation="0,1"
       id="guide881"
       inkscape:label=""
       inkscape:locked="false"
       inkscape:color="rgb(0,0,255)" />
    <sodipodi:guide
       position="1493.511,229.39266"
       orientation="-1,0"
       id="guide910"
       inkscape:label=""
       inkscape:locked="false"
       inkscape:color="rgb(0,0,255)" />
    <sodipodi:guide
       position="1562.2124,227.57564"
       orientation="1,0"
       id="guide912" />
    <sodipodi:guide
       position="1920,92.556619"
       orientation="-1,0"
       id="guide916"
       inkscape:label=""
       inkscape:locked="false"
       inkscape:color="rgb(0,0,255)" />
    <sodipodi:guide
       position="736.25126,251"
       orientation="0,1"
       id="guide918"
       inkscape:label=""
       inkscape:locked="false"
       inkscape:color="rgb(0,0,255)" />
    <sodipodi:guide
       position="159.41964,206"
       orientation="0,1"
       id="guide920"
       inkscape:label=""
       inkscape:locked="false"
       inkscape:color="rgb(0,0,255)" />
    <sodipodi:guide
       position="507,315.71428"
       orientation="-1,0"
       id="guide922"
       inkscape:label=""
       inkscape:locked="false"
       inkscape:color="rgb(0,0,255)" />
    <sodipodi:guide
       position="535.71429,450"
       orientation="1,0"
       id="guide924" />
    <sodipodi:guide
       position="512,374.91352"
       orientation="-1,0"
       id="guide926"
       inkscape:label=""
       inkscape:locked="false"
       inkscape:color="rgb(0,0,255)" />
    <sodipodi:guide
       position="332,861.80705"
       orientation="-1,0"
       id="guide928"
       inkscape:label=""
       inkscape:locked="false"
       inkscape:color="rgb(0,0,255)" />
    <sodipodi:guide
       position="0,283"
       orientation="-1,0"
       id="guide930"
       inkscape:label=""
       inkscape:locked="false"
       inkscape:color="rgb(0,0,255)" />
    <sodipodi:guide
       position="554.82629,238"
       orientation="1,0"
       id="guide959" />
    <sodipodi:guide
       position="1800,206"
       orientation="1,0"
       id="guide963" />
    <sodipodi:guide
       position="453.75,193"
       orientation="0,1"
       id="guide967"
       inkscape:label=""
       inkscape:locked="false"
       inkscape:color="rgb(0,0,255)" />
    <sodipodi:guide
       position="521.42857,161"
       orientation="0,1"
       id="guide969"
       inkscape:label=""
       inkscape:locked="false"
       inkscape:color="rgb(0,0,255)" />
    <sodipodi:guide
       position="114,238"
       orientation="-1,0"
       id="guide971"
       inkscape:label=""
       inkscape:locked="false"
       inkscape:color="rgb(0,0,255)" />
    <sodipodi:guide
       position="869,193"
       orientation="-1,0"
       id="guide978"
       inkscape:label=""
       inkscape:locked="false"
       inkscape:color="rgb(0,0,255)" />
    <sodipodi:guide
       position="1051,407.14286"
       orientation="-1,0"
       id="guide982"
       inkscape:label=""
       inkscape:locked="false"
       inkscape:color="rgb(0,0,255)" />
    <sodipodi:guide
       position="1406,251"
       orientation="-1,0"
       id="guide986"
       inkscape:label=""
       inkscape:locked="false"
       inkscape:color="rgb(0,0,255)" />
    <sodipodi:guide
       position="1585,418.57143"
       orientation="-1,0"
       id="guide994"
       inkscape:label=""
       inkscape:locked="false"
       inkscape:color="rgb(0,0,255)" />
    <sodipodi:guide
       position="391.93919,996"
       orientation="0,1"
       id="guide1000"
       inkscape:label=""
       inkscape:locked="false"
       inkscape:color="rgb(0,0,255)" />
    <sodipodi:guide
       position="1884,1156.7716"
       orientation="-1,0"
       id="guide1002"
       inkscape:label=""
       inkscape:locked="false"
       inkscape:color="rgb(0,0,255)" />
    <sodipodi:guide
       position="1978.8232,1020"
       orientation="0,1"
       id="guide1050"
       inkscape:label=""
       inkscape:locked="false"
       inkscape:color="rgb(0,0,255)" />
    <sodipodi:guide
       position="1715,1112.83"
       orientation="-1,0"
       id="guide1052"
       inkscape:label=""
       inkscape:locked="false"
       inkscape:color="rgb(0,0,255)" />
    <sodipodi:guide
       position="3392,2220"
       orientation="0,1"
       id="guide71"
       inkscape:label=""
       inkscape:locked="false"
       inkscape:color="rgb(0,0,255)" />
    <sodipodi:guide
       position="3775,2220"
       orientation="-1,0"
       id="guide73"
       inkscape:label=""
       inkscape:locked="false"
       inkscape:color="rgb(0,0,255)" />
    <sodipodi:guide
       position="5033.0002,2971.9999"
       orientation="1,0"
       id="guide78" />
    <sodipodi:guide
       position="4948.5002,2960.9999"
       orientation="0,-1"
       id="guide80" />
    <sodipodi:guide
       position="4870.5517,2852.8105"
       orientation="0,-1"
       id="guide82" />
  </sodipodi:namedview>
  <metadata
     id="metadata13">
    <rdf:RDF>
      <cc:Work
         rdf:about="">
        <dc:format>image/svg+xml</dc:format>
        <dc:type
           rdf:resource="http://purl.org/dc/dcmitype/StillImage" />
        <dc:title />
      </cc:Work>
    </rdf:RDF>
  </metadata>
  <g
     inkscape:label="Layer 1"
     inkscape:groupmode="layer"
     id="layer1">
    <path
       id="rect25"
       style="fill:#173f4f;fill-opacity:1;stroke-width:2.81091"
       d="M 4.6894531e-5,0 H 5120 V 3199.9996 H 4.6894531e-5 Z"
       inkscape:export-xdpi="95.900002"
       inkscape:export-ydpi="95.900002" />
    <rect
       style="fill:#35b9ab;fill-opacity:1;stroke-width:2.70267"
       id="rect859"
       width="1346.0155"
       height="38.518517"
       x="0"
       y="2319.4148"
       inkscape:export-xdpi="95.900002"
       inkscape:export-ydpi="95.900002" />
    <rect
       style="fill:#173f4f;fill-opacity:1;stroke-width:3.63315"
       id="rect865"
       width="176.08641"
       height="38.518517"
       x="1346.0156"
       y="2319.4148"
       inkscape:export-xdpi="95.900002"
       inkscape:export-ydpi="95.900002" />
    <rect
       style="fill:#ffffff;fill-opacity:1;stroke-width:6.37397"
       id="rect869"
       width="683.00189"
       height="38.518517"
       x="1522.126"
       y="2319.4148"
       inkscape:export-xdpi="95.900002"
       inkscape:export-ydpi="95.900002" />
    <rect
       style="fill:#21a4df;fill-opacity:1;stroke-width:5.82405"
       id="rect873"
       width="955.13538"
       height="38.518517"
       x="2205.3245"
       y="2319.4148"
       inkscape:export-xdpi="95.900002"
       inkscape:export-ydpi="95.900002" />
    <rect
       style="fill:#9adcd5;fill-opacity:1;stroke-width:2.23991"
       id="rect877"
       width="1959.5393"
       height="38.518517"
       x="3160.46"
       y="2319.4148"
       inkscape:export-xdpi="95.900002"
       inkscape:export-ydpi="95.900002" />
    <rect
       style="fill:#35b9ab;fill-opacity:1;stroke-width:2.71787"
       id="rect859-3"
       width="1361.1956"
       height="38.518517"
       x="0"
       y="2452.748"
       inkscape:export-xdpi="95.900002"
       inkscape:export-ydpi="95.900002" />
    <rect
       style="fill:#173f4f;fill-opacity:1;stroke-width:3.63315"
       id="rect865-6"
       width="176.08641"
       height="38.518517"
       x="4041.1956"
       y="2452.748"
       inkscape:export-xdpi="95.900002"
       inkscape:export-ydpi="95.900002" />
    <rect
       style="fill:#9adcd5;fill-opacity:1;stroke-width:6.37397"
       id="rect869-7"
       width="683.00189"
       height="38.518517"
       x="3295.4849"
       y="2452.748"
       inkscape:export-xdpi="95.900002"
       inkscape:export-ydpi="95.900002" />
    <rect
       style="fill:#35b9ab;fill-opacity:1;stroke-width:5.83371"
       id="rect873-5"
       width="958.31274"
       height="38.518517"
       x="4161.687"
       y="2452.748"
       inkscape:export-xdpi="95.900002"
       inkscape:export-ydpi="95.900002" />
    <rect
       style="fill:#59bbe7;fill-opacity:1;stroke-width:2.23308"
       id="rect877-3"
       width="1947.6226"
       height="38.518517"
       x="1361.1956"
       y="2452.748"
       inkscape:export-xdpi="95.900002"
       inkscape:export-ydpi="95.900002" />
    <rect
       style="fill:#73ba25;fill-opacity:1;stroke-width:2.14953"
       id="rect932"
       width="881.19556"
       height="38.518517"
       x="0"
       y="2586.0813"
       inkscape:export-xdpi="95.900002"
       inkscape:export-ydpi="95.900002" />
    <rect
       style="fill:#59bbe7;fill-opacity:1;stroke-width:2.53053"
       id="rect937"
       width="466.66663"
       height="38.518517"
       x="881.19556"
       y="2586.0813"
       inkscape:export-xdpi="95.900002"
       inkscape:export-ydpi="95.900002" />
    <rect
       style="fill:#173f4f;fill-opacity:1;stroke-width:2.57331"
       id="rect957"
       width="127.99998"
       height="38.518517"
       x="1347.8622"
       y="2586.0813"
       inkscape:export-xdpi="95.900002"
       inkscape:export-ydpi="95.900002" />
    <rect
       style="fill:#35b9ab;fill-opacity:1;stroke-width:11.9183"
       id="rect961"
       width="3319.9998"
       height="38.518517"
       x="1475.8622"
       y="2586.0813"
       inkscape:export-xdpi="95.900002"
       inkscape:export-ydpi="95.900002" />
    <rect
       style="fill:#73ba25;fill-opacity:1;stroke-width:2.83045"
       id="rect965"
       width="324.13751"
       height="38.518517"
       x="4795.8623"
       y="2586.0813"
       inkscape:export-xdpi="95.900002"
       inkscape:export-ydpi="95.900002" />
    <rect
       style="fill:#21a4df;fill-opacity:1;stroke-width:2.55827"
       id="rect976"
       width="300.01825"
       height="38.518517"
       x="0"
       y="2719.4146"
       inkscape:export-xdpi="95.900002"
       inkscape:export-ydpi="95.900002" />
    <rect
       style="fill:#00a489;fill-opacity:1;stroke-width:2.25688"
       id="rect980"
       width="2013.3331"
       height="38.518517"
       x="299.8623"
       y="2719.4146"
       inkscape:export-xdpi="95.900002"
       inkscape:export-ydpi="95.900002" />
    <rect
       style="fill:#173f4f;fill-opacity:1;stroke-width:2.50821"
       id="rect984"
       width="485.33328"
       height="38.518517"
       x="2313.1953"
       y="2719.4146"
       inkscape:export-xdpi="95.900002"
       inkscape:export-ydpi="95.900002" />
    <rect
       style="fill:#21a4df;fill-opacity:1;stroke-width:1.85205"
       id="rect992"
       width="946.66656"
       height="38.518517"
       x="2798.5286"
       y="2719.4146"
       inkscape:export-xdpi="95.900002"
       inkscape:export-ydpi="95.900002" />
    <rect
       style="fill:#9adcd5;fill-opacity:1;stroke-width:1.87951"
       id="rect996"
       width="477.33328"
       height="38.518517"
       x="3745.1953"
       y="2719.4146"
       inkscape:export-xdpi="95.900002"
       inkscape:export-ydpi="95.900002" />
    <rect
       style="fill:#35b9ab;fill-opacity:1;stroke-width:2.63091"
       id="rect998"
       width="897.47095"
       height="38.518517"
       x="4222.5288"
       y="2719.4146"
       inkscape:export-xdpi="95.900002"
       inkscape:export-ydpi="95.900002" />
    <g
       transform="matrix(0.2870299,0,0,0.2870299,1321.0459,2191.2131)"
       fill="#73ba25"
       id="g64"
       style="fill:#ffffff"
       inkscape:export-xdpi="95.900002"
       inkscape:export-ydpi="95.900002">
      <path
         id="Geeko"
         d="m 523.71,467.88 c -3.3113,-0.11926 -6.4507,1.0506 -8.8499,3.3008 -2.3993,2.2502 -3.8147,5.2984 -3.9147,8.5991 -0.2297,6.8207 5.1108,12.559 11.916,12.81 3.3095,0.1 6.4647,-1.0698 8.878,-3.32 2.4098,-2.2607 3.7953,-5.3107 3.9006,-8.5991 0.2297,-6.819 -5.109,-12.549 -11.93,-12.791 z m 2.0205,13.512 c -3.0307,0 -5.4791,-1.6398 -5.4791,-3.6498 0,-2.0292 2.4484,-3.6603 5.4791,-3.6603 3.0306,0 5.486,1.6311 5.486,3.6603 0,2.0099 -2.4571,3.6498 -5.486,3.6498 z m 28.798,14.729 c 0.0887,-0.0692 0.29521,-0.25105 0.2683,-0.41918 -0.68471,-4.2787 -7.0592,-25.029 -11.884,-30.019 -1.3294,-1.3592 -2.394,-2.6992 -4.5495,-3.9602 -17.454,-10.171 -58.863,-16.309 -60.803,-16.59 0,0 -0.19473,-0.0406 -0.3297,0.0912 -0.1048,0.10237 -0.1246,0.29991 -0.1246,0.29991 0,0 -0.1596,8.5798 -0.1841,9.5392 -4.2286,-1.4206 -34.972,-11.351 -63.791,-12.351 -24.44,-0.85939 -60.033,-4.0198 -107.2,24.98 l -1.3943,0.86815 c -22.19,13.841 -37.51,30.91 -45.518,50.739 -2.5116,6.2402 -5.8895,20.32 -2.5414,33.569 1.4417,5.7912 4.1304,11.61 7.7556,16.819 8.194,11.77 21.944,19.58 36.749,20.899 20.904,1.8696 36.733,-7.5188 42.363,-25.099 3.8708,-12.13 0,-29.928 -14.839,-39.007 -12.07,-7.3907 -25.049,-5.7106 -32.578,-0.7296 -6.5313,4.3303 -10.23,11.06 -10.165,18.451 0.1508,13.11 11.444,20.078 19.564,20.099 2.3589,0 4.7284,-0.41041 7.3995,-1.2803 0.9506,-0.28939 1.845,-0.64893 2.8307,-1.2593 l 0.3087,-0.18064 0.1947,-0.12978 -0.065,0.0386 c 1.8503,-1.261 2.964,-3.3113 2.964,-5.5106 0,-0.59981 -0.084,-1.2084 -0.2561,-1.8205 -0.9593,-3.32 -4.239,-5.3282 -7.638,-4.7091 l -0.4595,0.10874 -0.6209,0.18942 -0.9015,0.31043 c -1.8696,0.4595 -3.2692,0.49984 -3.5691,0.51037 -0.9506,-0.0614 -5.6246,-1.461 -5.6246,-6.5805 v -0.0702 c 0,-1.8801 0.7542,-3.199 1.1698,-3.9198 1.454,-2.28 5.4352,-4.5179 10.814,-4.0496 7.0593,0.61034 12.149,4.2303 15.52,11.06 3.1289,6.349 2.3098,14.159 -2.1099,19.88 -4.3899,5.6684 -12.205,8.0782 -22.598,6.9593 -10.481,-1.1593 -19.34,-7.1908 -24.303,-16.579 -4.8565,-9.1779 -5.1213,-20.059 -0.6858,-28.418 10.609,-20.029 30.649,-19.82 41.637,-17.921 16.26,2.8202 34.758,17.819 41.319,35.138 1.0593,2.7606 1.5995,4.9494 2.0713,6.9505 l 0.7085,2.9903 18.37,8.9692 c 0.39458,0.19266 0.52796,0.25778 0.6858,0.14034 0.18941,-0.14093 0.081,-0.52966 0.081,-0.52966 -0.114,-0.4104 -0.3806,-0.78924 -0.805,-5.9298 -0.3491,-4.5618 -1.0594,-17.051 5.2282,-23.24 2.4414,-2.4186 6.1613,-4.5776 9.099,-5.2686 12.04,-2.9412 26.159,-0.912 39.507,14.539 6.9102,7.98 10.279,11.619 11.97,13.249 0,0 0.38494,0.36349 0.5893,0.53142 0.22331,0.1835 0.36878,0.33789 0.6945,0.51914 0.55786,0.31042 22.954,10.621 22.954,10.621 0,0 0.26534,0.13182 0.4612,-0.11049 0.19362,-0.23953 0.01,-0.47879 0.01,-0.47879 -0.1491,-0.17013 -14.199,-18.328 -11.698,-33.279 1.9696,-11.909 11.447,-10.83 24.558,-9.3498 4.2794,0.49984 9.1516,1.0593 14.196,1.1716 14.084,0.0895 29.254,-2.5115 38.604,-6.6015 6.049,-2.629 9.9093,-4.3794 12.328,-6.5787 0.8699,-0.72084 1.3207,-1.8907 1.7907,-3.1499 l 0.3297,-0.83133 c 0.3911,-1.0207 0.9664,-3.171 1.219,-4.3496 0.1017,-0.51914 0.2208,-1.0274 -0.2087,-1.3592 -0.39265,-0.30337 -1.2944,0.24026 -1.2944,0.24026 -4.1058,2.4712 -14.369,7.1505 -23.965,7.3504 -11.914,0.24027 -36.054,-12.061 -38.555,-13.36 -1.6739,-3.9857 -3.3458,-7.9724 -5.0438,-11.948 17.27,11.379 31.594,17.668 42.559,18.638 12.207,1.0874 21.723,-5.5724 25.853,-8.3432 0.54064,-0.35944 1.0799,-0.76184 1.5756,-1.1486 z m -48.992,-16.369 c 0.1753,-4.7302 2.1554,-9.12 5.6141,-12.34 3.4603,-3.2306 7.9747,-4.9003 12.708,-4.7494 9.7602,0.34902 17.43,8.5886 17.095,18.338 -0.1841,4.7302 -2.1642,9.12 -5.6141,12.33 -3.4603,3.2499 -7.9642,4.9196 -12.719,4.76 -9.7497,-0.35954 -17.411,-8.5798 -17.084,-18.338 z"
         clip-rule="evenodd"
         fill-rule="evenodd"
         style="fill:#ffffff" />
      <g
         transform="matrix(1.7539,0,0,1.7539,-692,-166.47)"
         id="g62"
         style="fill:#ffffff">
        <path
           d="m 667.46,415.23 c 1.218,0 2.188,0.99 2.188,2.229 0,1.257 -0.971,2.237 -2.198,2.237 -1.218,0 -2.208,-0.98 -2.208,-2.237 0,-1.238 0.99,-2.229 2.208,-2.229 z m -0.01,0.346 c -0.98,0 -1.782,0.842 -1.782,1.882 0,1.06 0.802,1.891 1.792,1.891 0.99,0.011 1.782,-0.831 1.782,-1.881 0,-1.05 -0.792,-1.892 -1.782,-1.892 z m -0.416,3.179 h -0.396 v -2.485 c 0.208,-0.03 0.406,-0.06 0.703,-0.06 0.377,0 0.624,0.079 0.772,0.188 0.149,0.108 0.229,0.276 0.229,0.515 0,0.326 -0.218,0.524 -0.485,0.604 v 0.021 c 0.218,0.039 0.366,0.237 0.416,0.604 0.06,0.387 0.118,0.535 0.158,0.614 h -0.416 c -0.06,-0.079 -0.119,-0.307 -0.168,-0.634 -0.06,-0.316 -0.218,-0.436 -0.535,-0.436 h -0.277 v 1.069 z m 0,-1.377 h 0.287 c 0.327,0 0.604,-0.118 0.604,-0.426 0,-0.218 -0.158,-0.436 -0.604,-0.436 -0.129,0 -0.218,0.01 -0.287,0.021 z"
           fill="#73ba25"
           id="path60"
           style="fill:#ffffff" />
      </g>
    </g>
    <path
       d="m 4729.415,239.00011 a 3.4441388,3.4841145 0 0 0 -2.2719,1.00361 l -37.8823,38.32131 a 3.4441388,3.4841145 0 0 0 0,4.92618 l 37.8823,38.32082 a 3.4441388,3.4841145 0 0 0 4.8687,0 l 37.8815,-38.32082 a 3.4441388,3.4841145 0 0 0 0,-4.92618 l -37.8815,-38.32131 a 3.4441388,3.4841145 0 0 0 -2.5962,-1.00361 z m 0.1598,8.39632 33.0125,33.39513 -33.0125,33.39491 -33.0111,-33.39491 z m -41.3241,54.29476 v 3.484 a 3.4437718,3.4837431 0 0 0 1.0117,2.46304 l 37.8821,38.32084 a 3.4441388,3.4841145 0 0 0 4.869,0 l 37.8814,-38.32084 a 3.4437718,3.4837431 0 0 0 1.0117,-2.46304 3.4437718,3.4837431 0 0 0 0,-0.15732 v -3.32103 h -3.4442 a 3.4437718,3.4837431 0 0 0 -2.4343,1.02457 l -35.4467,35.85795 -35.4461,-35.85795 a 3.4437718,3.4837431 0 0 0 -2.434,-1.00355 v -0.006 z"
       color="#000000"
       color-rendering="auto"
       dominant-baseline="auto"
       fill="#fbc75d"
       image-rendering="auto"
       shape-rendering="auto"
       solid-color="#000000"
       stop-color="#000000"
       style="font-variant-ligatures:normal;font-variant-position:normal;font-variant-caps:normal;font-variant-numeric:normal;font-variant-alternates:normal;font-variant-east-asian:normal;font-feature-settings:normal;font-variation-settings:normal;text-indent:0;text-decoration:none;text-decoration-line:none;text-decoration-style:solid;text-decoration-color:#000000;text-transform:none;text-orientation:mixed;white-space:normal;shape-padding:0;shape-margin:0;inline-size:0;isolation:auto;mix-blend-mode:normal;fill:#ffffff;stroke-width:0.461826"
       id="path64-3" />
    <g
       aria-label="Leap"
       id="text323-6"
       style="font-style:normal;font-weight:normal;font-size:110.915px;line-height:1.25;font-family:sans-serif;fill:#ffffff;fill-opacity:1;stroke:none;stroke-width:2.77288">
      <path
         id="path5308"
         style="font-style:normal;font-variant:normal;font-weight:normal;font-stretch:normal;font-family:'Source Sans Pro';-inkscape-font-specification:'Source Sans Pro';fill:#ffffff;stroke-width:2.77288"
         d="M 4822.9277 256.59766 L 4822.9277 329.35742 L 4863.9668 329.35742 L 4863.9668 321.48242 L 4832.1348 321.48242 L 4832.1348 256.59766 L 4822.9277 256.59766 z M 4894.8008 274.12109 C 4882.4892 274.12109 4870.623 284.88015 4870.623 302.51562 C 4870.623 320.15112 4882.0458 330.6875 4896.4648 330.6875 C 4903.7852 330.6875 4909.5525 328.13729 4914.2109 325.14258 L 4910.9961 319.15234 C 4907.0031 321.70339 4902.6763 323.36719 4897.5742 323.36719 C 4887.2591 323.36719 4880.271 316.04729 4879.6055 304.62305 L 4915.9863 304.62305 C 4916.2082 303.29207 4916.3184 301.29572 4916.3184 299.41016 C 4916.3184 283.99298 4908.5542 274.12109 4894.8008 274.12109 z M 4948.2637 274.12109 C 4939.6124 274.12109 4932.0692 277.89284 4927.0781 281.10938 L 4930.627 287.43164 C 4934.8418 284.54785 4940.4978 281.66406 4946.709 281.66406 C 4955.5822 281.66406 4957.8008 288.31858 4957.8008 295.19531 C 4934.8414 297.74636 4924.748 303.62582 4924.748 315.38281 C 4924.748 325.03242 4931.5139 330.6875 4940.498 330.6875 C 4947.2638 330.6875 4953.2534 327.1386 4958.3555 322.92383 L 4958.6895 322.92383 L 4959.4648 329.35742 L 4967.0078 329.35742 L 4967.0078 296.30469 C 4967.0078 282.88398 4961.4626 274.12109 4948.2637 274.12109 z M 5009.8203 274.12109 C 5003.4982 274.12109 4997.5092 277.56021 4992.6289 281.66406 L 4992.2969 281.66406 L 4991.5195 275.45312 L 4983.9766 275.45312 L 4983.9766 352.0957 L 4993.0723 352.0957 L 4993.0723 333.9043 L 4992.8496 324.47656 C 4997.8408 328.35859 5002.8331 330.6875 5007.8242 330.6875 C 5020.1358 330.6875 5031.1152 319.92989 5031.1152 301.62891 C 5031.1152 284.88075 5023.6847 274.12109 5009.8203 274.12109 z M 4895.0234 281.33203 C 4903.4529 281.33203 4908.334 287.21041 4908.334 298.08008 L 4879.4961 298.08008 C 4880.6052 287.43224 4887.4812 281.33203 4895.0234 281.33203 z M 5007.4922 281.77539 C 5017.6964 281.77539 5021.6875 289.76101 5021.6875 301.62891 C 5021.6875 314.93871 5015.1447 323.03516 5006.2715 323.03516 C 5002.7223 323.03516 4997.9525 321.48277 4993.0723 317.37891 L 4993.0723 289.0957 C 4998.3962 284.32635 5002.9447 281.77539 5007.4922 281.77539 z M 4957.8008 301.18555 L 4957.8008 316.1582 C 4952.5878 320.81663 4948.3732 323.36719 4943.1602 323.36719 C 4937.8363 323.36719 4933.6211 320.81713 4933.6211 314.7168 C 4933.6211 307.84007 4939.8326 303.40385 4957.8008 301.18555 z " />
    </g>
  </g>
</svg>
