<?xml version="1.0" encoding="UTF-8" standalone="no"?>
<!-- Created with Inkscape (http://www.inkscape.org/) -->

<svg
   xmlns:dc="http://purl.org/dc/elements/1.1/"
   xmlns:cc="http://creativecommons.org/ns#"
   xmlns:rdf="http://www.w3.org/1999/02/22-rdf-syntax-ns#"
   xmlns:svg="http://www.w3.org/2000/svg"
   xmlns="http://www.w3.org/2000/svg"
   xmlns:xlink="http://www.w3.org/1999/xlink"
   xmlns:sodipodi="http://sodipodi.sourceforge.net/DTD/sodipodi-0.dtd"
   xmlns:inkscape="http://www.inkscape.org/namespaces/inkscape"
   width="800"
   height="600"
   viewBox="0 0 211.66666 158.74999"
   version="1.1"
   id="svg885"
   inkscape:version="0.92.2 5c3e80d, 2017-08-06"
   sodipodi:docname="glow.svg"
   inkscape:export-filename="/home/lcp/MEGA/Pictures/openSUSE/plymouth/full.png"
   inkscape:export-xdpi="96.000008"
   inkscape:export-ydpi="96.000008">
  <defs
     id="defs879">
    <linearGradient
       inkscape:collect="always"
       id="linearGradient847">
      <stop
         style="stop-color:#ffffff;stop-opacity:0.21176471"
         offset="0"
         id="stop843" />
      <stop
         style="stop-color:#000000;stop-opacity:0.29441625"
         offset="1"
         id="stop845" />
    </linearGradient>
    <filter
       inkscape:collect="always"
       style="color-interpolation-filters:sRGB"
       id="filter1746"
       x="-0.10269711"
       width="1.2053941"
       y="-0.055431124"
       height="1.1108623">
      <feGaussianBlur
         inkscape:collect="always"
         stdDeviation="2.5546644"
         id="feGaussianBlur1748" />
    </filter>
    <filter
       inkscape:collect="always"
       style="color-interpolation-filters:sRGB"
       id="filter1750"
       x="-0.14453533"
       width="1.2890707"
       y="-0.097510569"
       height="1.1950212">
      <feGaussianBlur
         inkscape:collect="always"
         stdDeviation="2.5546644"
         id="feGaussianBlur1752" />
    </filter>
    <filter
       inkscape:collect="always"
       style="color-interpolation-filters:sRGB"
       id="filter1754"
       x="-0.15964213"
       width="1.3192843"
       y="-0.11329134"
       height="1.2265826">
      <feGaussianBlur
         inkscape:collect="always"
         stdDeviation="2.5546644"
         id="feGaussianBlur1756" />
    </filter>
    <radialGradient
       inkscape:collect="always"
       xlink:href="#linearGradient847"
       id="radialGradient849"
       cx="105.83333"
       cy="217.62503"
       fx="105.83333"
       fy="217.62503"
       r="105.83334"
       gradientTransform="matrix(1,0,0,0.74999998,6.4941406e-6,54.406246)"
       gradientUnits="userSpaceOnUse" />
    <filter
       inkscape:collect="always"
       style="color-interpolation-filters:sRGB"
       id="filter934"
       x="-0.13692963"
       width="1.2738593"
       y="-0.073908125"
       height="1.1478162">
      <feGaussianBlur
         inkscape:collect="always"
         stdDeviation="2.2004143"
         id="feGaussianBlur936" />
    </filter>
    <filter
       inkscape:collect="always"
       style="color-interpolation-filters:sRGB"
       id="filter938"
       x="-0.19271373"
       width="1.3854275"
       y="-0.13001403"
       height="1.2600281">
      <feGaussianBlur
         inkscape:collect="always"
         stdDeviation="2.2004143"
         id="feGaussianBlur940" />
    </filter>
    <filter
       inkscape:collect="always"
       style="color-interpolation-filters:sRGB"
       id="filter942"
       x="-0.21285652"
       width="1.425713"
       y="-0.15105431"
       height="1.3021086">
      <feGaussianBlur
         inkscape:collect="always"
         stdDeviation="2.2004143"
         id="feGaussianBlur944" />
    </filter>
  </defs>
  <sodipodi:namedview
     id="base"
     pagecolor="#ffffff"
     bordercolor="#666666"
     borderopacity="1.0"
     inkscape:pageopacity="0.0"
     inkscape:pageshadow="2"
     inkscape:zoom="0.7"
     inkscape:cx="298.55559"
     inkscape:cy="305.92817"
     inkscape:document-units="px"
     inkscape:current-layer="layer1"
     showgrid="false"
     units="px"
     inkscape:window-width="1366"
     inkscape:window-height="713"
     inkscape:window-x="0"
     inkscape:window-y="27"
     inkscape:window-maximized="1"
     showguides="false"
     inkscape:guide-bbox="true">
    <sodipodi:guide
       position="69.925592,61.988092"
       orientation="1,0"
       id="guide1481"
       inkscape:locked="false" />
  </sodipodi:namedview>
  <metadata
     id="metadata882">
    <rdf:RDF>
      <cc:Work
         rdf:about="">
        <dc:format>image/svg+xml</dc:format>
        <dc:type
           rdf:resource="http://purl.org/dc/dcmitype/StillImage" />
        <dc:title />
      </cc:Work>
    </rdf:RDF>
  </metadata>
  <g
     inkscape:label="Layer 1"
     inkscape:groupmode="layer"
     id="layer1"
     transform="translate(0,-138.25003)">
    <rect
       style="opacity:1;fill:#0d202f;fill-opacity:1;fill-rule:evenodd;stroke:none;stroke-width:6.34134817;stroke-linecap:round;stroke-linejoin:round;stroke-miterlimit:4;stroke-dasharray:none;stroke-opacity:1;paint-order:stroke fill markers"
       id="rect1483"
       width="211.66667"
       height="158.75"
       x="0"
       y="138.25003" />
    <path
       style="fill:#75df00;fill-opacity:1;stroke-width:0.09536625;filter:url(#filter1750)"
       d="m 62.015759,253.69883 c -0.356761,-0.12751 -0.381461,-0.29878 -0.381622,-2.64614 -6.92e-4,-9.97678 -2.211741,-19.66488 -7.248958,-31.76258 -1.424676,-3.4216 -2.864932,-6.57432 -5.328051,-11.66311 -0.845371,-1.74653 -1.537038,-3.21519 -1.537038,-3.26369 0,-0.17019 0.967,-2.33961 1.38319,-3.10313 2.082201,-3.81985 5.048146,-6.69474 8.630265,-8.36532 5.174218,-2.41308 11.936847,-2.67565 18.815344,-0.73054 l 1.029539,0.29113 0.431014,-0.47939 c 0.274725,-0.30555 0.661445,-0.59283 1.066511,-0.79224 0.616644,-0.30358 0.670936,-0.31279 1.829586,-0.31082 0.889344,0.002 1.352283,0.0484 1.813962,0.18383 1.623497,0.47613 3.45113,1.39117 4.81855,2.41253 0.79466,0.59354 1.23613,1.20531 1.94437,2.69443 0.92991,1.95518 0.87455,3.27263 -0.17122,4.07431 -0.60474,0.4636 -1.02571,0.55198 -2.58632,0.54298 -1.16117,-0.006 -1.61209,-0.0559 -2.813299,-0.30686 -1.919944,-0.40114 -3.68317,-0.91972 -3.835517,-1.12807 -0.280313,-0.38335 0.01072,-0.9901 0.473856,-0.98793 0.118014,5.8e-4 0.748305,0.15077 1.400643,0.33382 1.996789,0.5603 3.540017,0.83063 4.822007,0.8447 0.97004,0.0106 1.20251,-0.0165 1.52586,-0.17818 0.5316,-0.2658 0.66959,-0.59278 0.53821,-1.27531 -0.13087,-0.67989 -1.18338,-2.79668 -1.59546,-3.20877 -0.77907,-0.77906 -2.965011,-1.97961 -4.52168,-2.48336 -0.651346,-0.21078 -0.997981,-0.26379 -1.764273,-0.26981 -1.309105,-0.0103 -1.6778,0.18418 -2.376379,1.25344 -0.17362,0.26574 -0.379809,0.46461 -0.499486,0.48175 -0.112096,0.0161 -0.696608,-0.12021 -1.298913,-0.3028 -3.02771,-0.91785 -6.167424,-1.3924 -9.224765,-1.39427 -7.247119,-0.004 -12.741029,2.70486 -16.312505,8.04442 -0.666304,0.99616 -1.611012,2.76277 -2.029677,3.79551 l -0.141612,0.34931 0.906761,1.84411 c 8.149699,16.57432 11.688228,27.22121 12.863118,38.70317 0.09045,0.88395 0.172474,2.86468 0.204043,4.92726 l 0.05279,3.44909 c 0.0018,0.11613 -0.149374,0.24636 -0.149374,0.24636 -0.24479,0.24479 -0.459449,0.2781 -0.733466,0.18017 z"
       id="path1477-5"
       inkscape:connector-curvature="0"
       sodipodi:nodetypes="cssssscccccccsscccccccccccccccccccscssscc"
       transform="matrix(0.64599866,0,0,0.64599988,61.361037,69.792465)" />
    <path
       style="fill:#75df00;fill-opacity:1;stroke-width:0.09536625;filter:url(#filter1754)"
       d="m 75.103389,253.66525 c -0.118776,-0.0472 -0.258249,-0.19712 -0.309938,-0.33307 -0.05171,-0.136 -0.09398,-1.22095 -0.09398,-2.41218 0,-9.45312 2.080998,-19.0312 6.561328,-30.19942 1.679692,-4.18701 3.371956,-7.93863 6.447452,-14.29347 0.74355,-1.53638 0.89573,-1.92211 0.8026,-2.03431 -0.19192,-0.23126 -1.18451,-0.68819 -1.86676,-0.85934 -0.9464,-0.23743 -3.83119,-0.21148 -6.118945,0.055 -0.965766,0.11252 -2.151647,0.20457 -2.635289,0.20457 -0.831303,0 -0.882492,0.0117 -0.936853,0.21457 -0.180589,0.67385 0.0045,1.14469 0.984009,2.50336 1.123831,1.55885 1.346491,2.12846 0.966444,2.4724 -0.147045,0.13307 -0.431911,0.17571 -1.454335,0.21767 l -1.271474,0.0522 -1.192078,-1.0252 c -3.347906,-2.87921 -6.151032,-4.81614 -6.970271,-4.81639 -0.445956,-9e-5 -0.515089,0.31447 -0.523878,2.38408 -0.0044,1.0228 -0.01507,1.9123 -0.02384,1.97665 -0.0088,0.0643 -0.11499,0.1819 -0.236046,0.26123 -0.197315,0.12928 -0.413507,0.12545 -2.088451,-0.037 -1.027593,-0.0997 -1.950737,-0.22529 -2.051429,-0.27919 -0.137472,-0.0736 -0.268361,-0.44036 -0.525457,-1.47249 -0.771773,-3.09834 -1.625323,-4.26225 -3.615532,-4.93016 -0.438482,-0.14715 -1.1191,-0.32084 -1.512486,-0.38596 -0.620148,-0.10266 -0.797354,-0.0972 -1.332776,0.0414 -0.794188,0.2054 -1.358679,0.53935 -1.973382,1.16743 -0.685303,0.70023 -1.113651,1.60064 -1.161122,2.44077 -0.05783,1.02344 0.104253,1.44514 0.836807,2.17717 1.366992,1.36602 2.603884,1.47098 3.233444,0.27441 0.208693,-0.39666 0.219461,-0.497 0.169503,-1.57939 -0.04769,-1.03318 -0.03512,-1.17232 0.118439,-1.31129 0.195495,-0.17692 0.513766,-0.20079 0.779682,-0.0585 0.4485,0.24003 0.576298,2.28877 0.20263,3.2484 -0.8897,2.28485 -3.485536,2.40074 -5.522876,0.24656 -1.480585,-1.5655 -1.522364,-3.67271 -0.11262,-5.68011 0.988549,-1.40766 2.612149,-2.29869 4.188534,-2.29869 1.146051,0 3.075824,0.60505 4.098779,1.28511 1.241095,0.82508 2.016096,2.09007 2.630617,4.29382 0.190142,0.68187 0.359886,1.28759 0.37721,1.34604 0.01828,0.0617 0.404901,0.13451 0.921589,0.17355 0.489548,0.037 0.982251,0.0893 1.094893,0.11619 0.202371,0.0483 0.205202,0.0297 0.238415,-1.5633 0.03279,-1.57286 0.0406,-1.62582 0.319711,-2.17013 0.368783,-0.71917 0.904742,-1.04458 1.592712,-0.96703 1.301083,0.14668 4.028378,1.99486 8.005996,5.42537 0.488484,0.4213 0.57036,0.4589 0.874884,0.40177 l 0.335963,-0.0631 -0.556199,-0.75014 c -0.894114,-1.2059 -1.098198,-1.70106 -1.098198,-2.66454 0,-0.85422 0.108955,-1.19673 0.559784,-1.75969 0.193844,-0.24206 0.277352,-0.27624 0.59576,-0.24388 0.813236,0.0827 2.353188,0.0209 3.755818,-0.15061 2.048365,-0.2505 5.270494,-0.25463 6.321534,-0.008 1.4183,0.33267 3.11973,1.43579 3.11973,2.0227 0,0.12394 -0.54058,1.33257 -1.20129,2.68583 -6.552374,13.42068 -9.778899,22.0683 -11.574925,31.02269 -0.914641,4.56009 -1.453928,10.31479 -1.296638,13.83637 0.05603,1.25436 0.04533,1.41053 -0.108821,1.5891 -0.213055,0.24679 -0.487539,0.32189 -0.768376,0.21022 z"
       id="path1473-3"
       inkscape:connector-curvature="0"
       transform="matrix(0.64599866,0,0,0.64599988,61.361037,69.792465)" />
    <path
       style="fill:#00eed5;fill-opacity:1;stroke-width:0.09536625;filter:url(#filter1746)"
       d="m 68.697172,284.08897 c -0.656691,-0.0912 -1.73418,-0.40079 -2.069862,-0.59469 -0.112443,-0.0649 -0.496104,-0.48287 -0.852583,-0.92872 -2.019379,-2.52559 -3.642776,-3.94623 -5.68178,-4.97218 -0.437322,-0.22005 -0.87023,-0.46396 -0.962019,-0.54203 -0.228134,-0.19404 -0.215288,-0.7066 0.02311,-0.92235 0.203438,-0.18411 0.541966,-0.1776 2.623297,0.0504 1.474203,0.16147 6.714688,0.22434 8.344548,0.10011 3.412016,-0.26006 5.874424,-0.82739 7.724666,-1.77972 0.445834,-0.22949 0.977321,-0.55489 1.181082,-0.72313 l 0.370467,-0.30589 -0.0638,-0.90762 c -0.03509,-0.49918 -0.07761,-0.92142 -0.09449,-0.93829 -0.01688,-0.0169 -0.326538,0.10221 -0.688131,0.26465 -3.200828,1.43793 -7.897201,2.19402 -12.816644,2.06342 -2.27025,-0.0603 -3.258259,-0.14875 -5.085115,-0.45543 -2.216104,-0.37203 -4.801473,-1.16111 -5.072611,-1.54821 -0.115902,-0.16548 -0.14183,-0.61817 -0.14183,-2.47632 0,-1.42042 0.03797,-2.3448 0.101164,-2.46288 0.185712,-0.34701 0.483824,-0.37553 1.293881,-0.12382 5.041534,1.56663 11.471478,1.90061 16.438442,0.85385 1.717974,-0.36205 3.545414,-1.00023 5.125937,-1.79007 l 0.977503,-0.4885 v -1.12764 c 0,-0.6202 -0.02096,-1.12764 -0.04657,-1.12764 -0.02561,0 -0.422571,0.15617 -0.882137,0.34703 -2.482754,1.03115 -5.178922,1.70936 -8.178771,2.05734 -1.366678,0.15853 -5.597966,0.15331 -6.961739,-0.009 -1.480577,-0.17578 -3.437983,-0.54059 -4.711191,-0.87806 -1.375039,-0.36446 -2.854657,-0.92778 -2.959227,-1.12663 -0.04415,-0.084 -0.111005,-1.18262 -0.148559,-2.44145 -0.06797,-2.27833 -0.0673,-2.29003 0.146079,-2.55986 0.256905,-0.32488 0.276655,-0.32341 2.093973,0.15534 1.398475,0.3684 3.71431,0.75354 5.674291,0.94367 1.874028,0.18178 6.637832,0.15297 8.374607,-0.0506 5.250352,-0.61557 8.976463,-2.0035 11.451471,-4.26551 l 0.55731,-0.50935 -0.06681,-0.71915 c -0.146142,-1.5731 -0.213153,-4.61908 -0.139573,-6.34442 0.168384,-3.94833 0.758016,-7.15553 1.990198,-10.82541 1.03529,-3.08346 2.32166,-5.84647 5.12814,-11.0148 1.49208,-2.74778 2.93229,-5.60748 3.57814,-7.10479 1.7372,-4.02742 2.66996,-7.68355 3.03668,-11.90277 0.1691,-1.9454 0.0687,-5.87587 -0.18678,-7.31353 -0.53868,-3.03118 -1.36749,-5.52846 -2.7536,-8.29687 -3.86847,-7.72629 -10.567466,-13.414 -18.320406,-15.55474 -5.56441,-1.53645 -11.756942,-1.21438 -17.083906,0.88851 -5.13814,2.02835 -9.72159,5.6911 -13.185398,10.53679 -2.696649,3.77247 -4.54285,8.25834 -5.278529,12.82567 -0.203031,1.26049 -0.281239,4.95207 -0.141048,6.65773 0.416542,5.06791 1.593583,9.21965 4.05552,14.30494 0.482472,0.99658 1.686984,3.31398 2.676693,5.14978 3.579581,6.63973 4.965471,9.897 5.967063,14.02446 0.761765,3.13917 1.072309,5.84264 1.078374,9.38795 0.0053,3.07986 -0.163311,5.46942 -0.410407,5.81735 -0.230338,0.32433 -0.690267,0.36617 -0.968354,0.0881 -0.191572,-0.19157 -0.204065,-0.27063 -0.147809,-0.93544 0.478824,-5.65856 0.208963,-9.9385 -0.90566,-14.36356 -0.967278,-3.8401 -2.358946,-7.0596 -5.85369,-13.54201 -3.46234,-6.4223 -4.851363,-9.67067 -5.817179,-13.60404 -0.765608,-3.11798 -1.041813,-5.54189 -1.041601,-9.1408 1.34e-4,-2.35046 0.02923,-2.90352 0.215207,-4.09056 1.52508,-9.73446 8.036073,-18.76056 16.730462,-23.19323 4.068711,-2.07436 8.204491,-3.06116 12.849079,-3.06582 2.82838,-0.003 4.547941,0.20753 7.200148,0.8809 3.781939,0.96019 7.606088,2.89289 10.871751,5.49451 1.33082,1.06021 3.79283,3.51339 4.79002,4.77283 3.74924,4.73528 5.9944,9.73715 6.86374,15.29136 0.24335,1.55479 0.24147,6.31346 -0.004,8.29686 -0.76489,6.19826 -2.1686,10.02123 -6.88074,18.73947 -3.06315,5.66735 -4.40129,8.69483 -5.38179,12.17607 -1.28822,4.5738 -1.652447,8.89604 -1.22948,14.59006 l 0.11099,1.49406 -0.31437,0.36558 c -1.682355,1.95637 -4.871179,3.65815 -8.546157,4.56081 -2.735217,0.67185 -5.284713,0.94005 -8.91132,0.93748 -3.712957,-0.003 -6.80006,-0.32855 -9.658248,-1.01965 l -0.932237,-0.22541 0.02626,1.4388 0.02626,1.4388 0.476831,0.17795 c 1.683271,0.62818 4.604393,1.21129 7.057103,1.40871 1.721855,0.1386 4.952637,0.0636 6.532588,-0.15158 3.053969,-0.416 6.006069,-1.28281 8.318588,-2.44255 0.405333,-0.20328 0.796509,-0.3696 0.869275,-0.3696 0.07277,0 0.305059,-0.0304 0.443264,0.0783 0,0 0.191596,0.21045 0.191596,0.31701 0,2.03896 0,2.03896 0,2.03896 0,1.22319 -0.04013,2.12705 -0.100309,2.25913 -0.05517,0.12109 -0.237559,0.29925 -0.405307,0.39591 -2.664283,1.53538 -5.660541,2.50567 -9.174057,2.97084 -4.129966,0.54679 -9.872752,0.0746 -14.092886,-1.15872 -0.157867,-0.0462 -0.167617,0.0498 -0.14305,1.40746 l 0.02637,1.45697 0.971242,0.31272 c 2.236603,0.72012 4.69527,1.07178 8.009159,1.14555 5.435502,0.12101 9.906799,-0.68736 13.075393,-2.36391 0.486466,-0.25739 1.011182,-0.46799 1.166035,-0.46799 0.508571,0 0.559255,0.20639 0.580432,2.36344 0.02183,2.22288 0.08136,2.05581 -1.009729,2.83321 -2.722285,1.93962 -7.351562,2.82275 -14.111126,2.69199 l -2.762545,-0.0534 0.426071,0.34189 c 0.711331,0.57079 2.782921,2.69167 3.47038,3.55298 0.355851,0.44583 0.739127,0.85858 0.851723,0.91721 0.800293,0.41672 2.822993,0.49722 3.925276,0.15622 0.367861,-0.11381 0.882701,-0.35897 1.14409,-0.54481 0.539951,-0.38389 0.821233,-0.42167 1.09574,-0.14716 0.292423,0.29242 0.247195,0.72212 -0.110376,1.04871 -0.953325,0.87072 -3.119525,1.38165 -4.842891,1.14226 z"
       id="path1479-7"
       inkscape:connector-curvature="0"
       sodipodi:nodetypes="cccccccccccccscccscccccsscccscsccccsccssccccssssssssssccssssccscsssscsssccccsccccccsscsscccccccscsscccccccccccc"
       transform="matrix(0.64599866,0,0,0.64599988,61.361037,69.792465)" />
    <path
       style="fill:#b3e9e3;fill-opacity:1;stroke-width:0.06160654"
       d="m 105.73924,253.31406 c -0.42422,-0.0589 -1.12028,-0.25891 -1.33713,-0.38417 -0.0726,-0.0419 -0.32048,-0.31193 -0.55077,-0.59995 -1.30451,-1.63153 -2.35323,-2.54926 -3.67042,-3.21203 -0.282506,-0.14215 -0.562166,-0.29971 -0.621466,-0.35015 -0.14737,-0.12535 -0.13907,-0.45646 0.0149,-0.59584 0.13142,-0.11893 0.35011,-0.11473 1.694646,0.0326 0.95234,0.10431 4.33768,0.14493 5.39057,0.0647 2.20415,-0.16799 3.79487,-0.53449 4.99012,-1.14969 0.28801,-0.14825 0.63135,-0.35846 0.76298,-0.46715 l 0.23932,-0.1976 -0.0412,-0.58632 c -0.0227,-0.32247 -0.0501,-0.59524 -0.061,-0.60614 -0.0109,-0.0109 -0.21094,0.066 -0.44453,0.17097 -2.06773,0.9289 -5.10158,1.41733 -8.27954,1.33296 -1.46657,-0.0389 -2.10483,-0.0961 -3.28498,-0.2942 -1.431595,-0.24033 -3.101734,-0.75008 -3.276893,-1.00015 -0.0749,-0.1069 -0.0916,-0.39933 -0.0916,-1.5997 0,-0.91759 0.0245,-1.51474 0.0654,-1.59102 0.11997,-0.22416 0.312549,-0.24259 0.835849,-0.08 3.256814,1.01204 7.410554,1.22779 10.619204,0.55158 1.10981,-0.23388 2.29033,-0.64614 3.31135,-1.15638 l 0.63147,-0.31557 v -0.72846 c 0,-0.40066 -0.0135,-0.72846 -0.0301,-0.72846 -0.0165,0 -0.27298,0.10088 -0.56986,0.22418 -1.60386,0.66613 -3.34558,1.10426 -5.28347,1.32905 -0.88288,0.10241 -3.61628,0.099 -4.49728,-0.006 -0.95645,-0.11356 -2.22094,-0.34922 -3.043425,-0.56723 -0.888269,-0.23544 -1.844098,-0.59936 -1.911658,-0.72781 -0.0285,-0.0543 -0.0717,-0.76397 -0.096,-1.57718 -0.0439,-1.4718 -0.0435,-1.47936 0.0944,-1.65367 0.165959,-0.20987 0.178719,-0.20892 1.352708,0.10035 0.903409,0.23799 2.399435,0.48679 3.665585,0.60961 1.21062,0.11743 4.28803,0.0988 5.40999,-0.0327 3.39171,-0.39766 5.79878,-1.29426 7.39763,-2.75552 l 0.36002,-0.32904 -0.0432,-0.46457 c -0.0944,-1.01622 -0.13769,-2.98392 -0.0902,-4.09849 0.10878,-2.55062 0.48968,-4.62248 1.28567,-6.99322 0.6688,-1.99191 1.49978,-3.77682 3.31276,-7.11555 0.96389,-1.77507 1.89426,-3.62243 2.31148,-4.58969 1.12223,-2.60172 1.7248,-4.96358 1.96169,-7.6892 0.10924,-1.25672 0.0444,-3.7958 -0.12065,-4.72453 -0.34799,-1.95814 -0.8834,-3.57139 -1.77883,-5.35978 -2.49903,-4.99118 -6.82657,-8.66543 -11.83496,-10.04835 -3.5946,-0.99255 -7.59497,-0.78449 -11.036176,0.57398 -3.319233,1.31031 -6.280136,3.67644 -8.517752,6.80676 -1.742032,2.43701 -2.934675,5.33488 -3.409921,8.28538 -0.131158,0.81428 -0.181681,3.19903 -0.09112,4.30089 0.269084,3.27387 1.029451,5.95589 2.619859,9.24099 0.311677,0.64379 1.08979,2.14083 1.72914,3.32676 2.312405,4.28926 3.207688,6.39345 3.854715,9.05979 0.4921,2.02791 0.692711,3.77435 0.696629,6.06462 0.0034,1.98959 -0.105499,3.53324 -0.265123,3.758 -0.148798,0.20952 -0.445912,0.23655 -0.625555,0.0569 -0.123755,-0.12376 -0.131826,-0.17483 -0.09548,-0.6043 0.309319,-3.65542 0.13499,-6.42026 -0.585056,-9.27886 -0.62486,-2.4807 -1.523876,-4.56049 -3.781476,-8.74813 -2.236667,-4.1488 -3.133974,-6.24725 -3.757889,-8.78821 -0.49458,-2.01422 -0.673008,-3.58006 -0.672871,-5.90496 8.7e-5,-1.51839 0.01888,-1.87567 0.139024,-2.6425 0.985198,-6.28846 5.191291,-12.11932 10.807858,-14.98282 2.628374,-1.34003 5.300084,-1.97751 8.300484,-1.98052 1.82713,-0.002 2.93796,0.13407 4.65128,0.56906 2.44313,0.62029 4.91353,1.86881 7.02315,3.54945 0.8597,0.6849 2.45016,2.26965 3.09434,3.08325 2.42201,3.05899 3.87238,6.29019 4.43397,9.87822 0.1572,1.00439 0.15599,4.07849 -0.003,5.35977 -0.49412,4.00407 -1.40091,6.4737 -4.44495,12.10569 -1.9788,3.66111 -2.84322,5.61686 -3.47662,7.86574 -0.83219,2.95468 -1.06749,5.74684 -0.79425,9.42518 l 0.0717,0.96516 -0.20308,0.23616 c -1.0868,1.26382 -3.14678,2.36316 -5.52081,2.94628 -1.76695,0.43402 -3.41391,0.60727 -5.7567,0.60561 -2.39857,-0.002 -4.39283,-0.21224 -6.239215,-0.65869 l -0.602219,-0.14561 0.017,0.92946 0.017,0.92946 0.308029,0.11496 c 1.087389,0.4058 2.974425,0.7825 4.558875,0.91003 1.11232,0.0895 3.1994,0.0411 4.22005,-0.0979 1.97285,-0.26874 3.87991,-0.8287 5.37379,-1.57789 0.26185,-0.13132 0.51455,-0.23876 0.56155,-0.23876 0.047,0 0.19707,-0.0196 0.28635,0.0506 0,0 0.12377,0.13595 0.12377,0.20479 0,1.31716 0,1.31716 0,1.31716 0,0.79019 -0.0259,1.37409 -0.0648,1.45941 -0.0356,0.0782 -0.15346,0.19332 -0.26182,0.25576 -1.72113,0.99185 -3.65671,1.61866 -5.92643,1.91916 -2.66795,0.35322 -6.37779,0.0482 -9.103984,-0.74853 -0.10199,-0.0299 -0.10828,0.0322 -0.0924,0.90921 l 0.017,0.94121 0.627419,0.20201 c 1.444835,0.4652 3.033135,0.69237 5.173905,0.74003 3.51133,0.0782 6.39978,-0.44404 8.44668,-1.52709 0.31426,-0.16627 0.65323,-0.30232 0.75326,-0.30232 0.32854,0 0.36128,0.13333 0.37496,1.52678 0.0141,1.43598 0.0526,1.32806 -0.65228,1.83026 -1.7586,1.25299 -4.7491,1.82349 -9.11577,1.73902 l -1.7846,-0.0345 0.27524,0.22086 c 0.45952,0.36873 1.79776,1.73882 2.24186,2.29523 0.22988,0.288 0.47748,0.55464 0.55021,0.59251 0.51699,0.2692 1.82366,0.32121 2.53573,0.10092 0.23764,-0.0735 0.57022,-0.23189 0.73908,-0.35195 0.3488,-0.24799 0.53051,-0.27239 0.70784,-0.0951 0.1889,0.1889 0.15969,0.46649 -0.0713,0.67747 -0.61584,0.56248 -2.0152,0.89254 -3.1285,0.73789 z"
       id="path1479"
       inkscape:connector-curvature="0"
       sodipodi:nodetypes="cccccccccccccscccscccccsscccscsccccsccssccccssssssssssccssssccscsssscsssccccsccccccsscsscccccccscsscccccccccccc" />
    <path
       style="fill:#cfefad;fill-opacity:1;stroke-width:0.06160654"
       d="m 101.42313,233.68188 c -0.23047,-0.0824 -0.24642,-0.19302 -0.24653,-1.70941 -4.4e-4,-6.445 -1.428776,-12.70351 -4.682816,-20.51862 -0.920339,-2.21036 -1.850742,-4.24701 -3.441914,-7.53437 -0.546108,-1.12826 -0.992924,-2.07701 -0.992924,-2.10834 0,-0.10994 0.62468,-1.51139 0.893539,-2.00462 1.345099,-2.46762 3.261096,-4.32481 5.57514,-5.404 3.342535,-1.55885 7.711195,-1.72847 12.154685,-0.47193 l 0.66509,0.18807 0.27843,-0.30969 c 0.17747,-0.19738 0.42729,-0.38296 0.68897,-0.51178 0.39835,-0.19611 0.43342,-0.20206 1.18191,-0.20079 0.57451,0.001 0.87357,0.0313 1.17182,0.11875 1.04877,0.30758 2.22942,0.8987 3.11278,1.5585 0.51333,0.38342 0.79852,0.77862 1.25605,1.74061 0.60072,1.26304 0.56495,2.11411 -0.11061,2.632 -0.39066,0.29948 -0.66261,0.35658 -1.67075,0.35076 -0.75011,-0.004 -1.04141,-0.0361 -1.81739,-0.19823 -1.24028,-0.25914 -2.37933,-0.59414 -2.47774,-0.72873 -0.18108,-0.24765 0.007,-0.63961 0.30611,-0.6382 0.0762,3.7e-4 0.4834,0.0974 0.90481,0.21564 1.28993,0.36196 2.28685,0.53659 3.11501,0.54568 0.62664,0.007 0.77682,-0.0107 0.9857,-0.11511 0.34341,-0.1717 0.43255,-0.38293 0.34768,-0.82384 -0.0845,-0.43921 -0.76446,-1.80667 -1.03065,-2.07288 -0.50328,-0.50327 -1.9154,-1.27883 -2.921,-1.60425 -0.42077,-0.13616 -0.6447,-0.17041 -1.13972,-0.17429 -0.84569,-0.007 -1.08386,0.11898 -1.53514,0.80972 -0.11216,0.17167 -0.24536,0.30013 -0.32267,0.31121 -0.0724,0.0104 -0.45001,-0.0777 -0.8391,-0.19561 -1.9559,-0.59293 -3.98414,-0.89949 -5.95918,-0.9007 -4.68163,-0.003 -8.230694,1.74734 -10.537862,5.1967 -0.430432,0.64352 -1.040712,1.78475 -1.311169,2.4519 l -0.09148,0.22565 0.585767,1.1913 c 5.264699,10.70701 7.550584,17.58489 8.309564,25.00224 0.0584,0.57103 0.11141,1.85058 0.13181,3.18301 l 0.0341,2.22811 c 0.001,0.075 -0.0965,0.15915 -0.0965,0.15915 -0.15814,0.15813 -0.29681,0.17965 -0.47382,0.11639 z"
       id="path1477"
       inkscape:connector-curvature="0"
       sodipodi:nodetypes="cssssscccccccsscccccccccccccccccccscssscc" />
    <path
       style="fill:#c8eca0;fill-opacity:1;stroke-width:0.06160654"
       d="m 109.87772,233.66028 c -0.0767,-0.0305 -0.16683,-0.12734 -0.20022,-0.21516 -0.0334,-0.0879 -0.0607,-0.78873 -0.0607,-1.55827 0,-6.10671 1.34433,-12.29415 4.23861,-19.50881 1.08508,-2.70482 2.17829,-5.12836 4.16505,-9.23359 0.48033,-0.9925 0.57863,-1.24168 0.51848,-1.31416 -0.12399,-0.14939 -0.76519,-0.44457 -1.20592,-0.55513 -0.61138,-0.15338 -2.47495,-0.13662 -3.95284,0.0355 -0.62388,0.0727 -1.38996,0.13215 -1.70239,0.13215 -0.53702,0 -0.57009,0.008 -0.60521,0.13861 -0.11666,0.43531 0.003,0.73947 0.63567,1.61717 0.726,1.00702 0.86983,1.37498 0.62432,1.59717 -0.095,0.086 -0.27901,0.11351 -0.9395,0.14061 l -0.82137,0.0337 -0.77008,-0.66228 c -2.16273,-1.85997 -3.97355,-3.11123 -4.50278,-3.11139 -0.28809,-6e-5 -0.33275,0.20315 -0.33842,1.54012 -0.003,0.66072 -0.01,1.23534 -0.0154,1.27691 -0.006,0.0415 -0.0743,0.11751 -0.15249,0.16876 -0.12747,0.0835 -0.26713,0.081 -1.34914,-0.0239 -0.66382,-0.0644 -1.26017,-0.14553 -1.32522,-0.18035 -0.0888,-0.0476 -0.17336,-0.28448 -0.33945,-0.95123 -0.49856,-2.00153 -1.04995,-2.75341 -2.335626,-3.18488 -0.283259,-0.0951 -0.722929,-0.20726 -0.977059,-0.24933 -0.400619,-0.0663 -0.515089,-0.0628 -0.860969,0.0267 -0.513049,0.13269 -0.87771,0.34842 -1.274806,0.75416 -0.442706,0.45235 -0.719418,1.03401 -0.750084,1.57674 -0.03736,0.66114 0.06735,0.93356 0.540576,1.40645 0.883075,0.88245 1.682104,0.95025 2.088804,0.17727 0.13481,-0.25624 0.141769,-0.32106 0.1095,-1.02029 -0.0308,-0.66743 -0.0227,-0.75732 0.0765,-0.84709 0.12629,-0.11429 0.33189,-0.12971 0.50367,-0.0378 0.28973,0.15506 0.37229,1.47854 0.1309,2.09846 -0.57475,1.47602 -2.251654,1.55088 -3.567772,0.15928 -0.956456,-1.01131 -0.983445,-2.37257 -0.07275,-3.66935 0.638601,-0.90934 1.687444,-1.48495 2.705783,-1.48495 0.740349,0 1.986974,0.39086 2.647804,0.83018 0.80175,0.533 1.3024,1.35019 1.69938,2.77381 0.12283,0.44048 0.23249,0.83178 0.24368,0.86954 0.0118,0.0399 0.26156,0.0869 0.59534,0.11211 0.31625,0.0239 0.63454,0.0577 0.7073,0.0751 0.13074,0.0312 0.13256,0.0192 0.15402,-1.00989 0.0212,-1.01607 0.0262,-1.05028 0.20653,-1.4019 0.23824,-0.46459 0.58447,-0.6748 1.02889,-0.62471 0.8405,0.0948 2.60233,1.28868 5.17186,3.50479 0.31556,0.27216 0.36846,0.29645 0.56518,0.25954 l 0.21703,-0.0408 -0.3593,-0.48459 c -0.5776,-0.77901 -0.70944,-1.09888 -0.70944,-1.72129 0,-0.55183 0.0704,-0.77309 0.36162,-1.13676 0.12522,-0.15637 0.17917,-0.17845 0.38486,-0.15754 0.52535,0.0534 1.52016,0.0135 2.42626,-0.0973 1.32324,-0.16182 3.40473,-0.16449 4.0837,-0.005 0.91622,0.21491 2.01533,0.92752 2.01533,1.30667 0,0.0801 -0.34921,0.86084 -0.77602,1.73504 -4.23282,8.66976 -6.31716,14.25612 -7.47739,20.04065 -0.59086,2.94582 -0.93924,6.66336 -0.83763,8.9383 0.0362,0.81031 0.0293,0.9112 -0.0703,1.02655 -0.13763,0.15943 -0.31495,0.20794 -0.49637,0.13581 z"
       id="path1473"
       inkscape:connector-curvature="0" />
    <rect
       style="opacity:1;fill:url(#radialGradient849);fill-opacity:1;fill-rule:evenodd;stroke:none;stroke-width:6.34134817;stroke-linecap:round;stroke-linejoin:round;stroke-miterlimit:4;stroke-dasharray:none;stroke-opacity:1;paint-order:stroke fill markers"
       id="rect1483-3"
       width="211.66667"
       height="158.75"
       x="0"
       y="138.25002" />
    <path
       style="fill:#ffffff;fill-opacity:1;stroke-width:0.06160654;filter:url(#filter934)"
       d="m 108.92765,253.31402 c -0.42422,-0.0589 -1.12028,-0.25891 -1.33713,-0.38417 -0.0726,-0.0419 -0.32048,-0.31193 -0.55077,-0.59995 -1.30451,-1.63153 -2.35323,-2.54926 -3.67042,-3.21203 -0.28251,-0.14215 -0.56217,-0.29971 -0.62147,-0.35015 -0.14737,-0.12535 -0.13907,-0.45646 0.0149,-0.59584 0.13142,-0.11893 0.35011,-0.11473 1.69465,0.0326 0.95234,0.10431 4.33768,0.14493 5.39057,0.0647 2.20416,-0.16799 3.79488,-0.53449 4.99013,-1.14969 0.28801,-0.14825 0.63135,-0.35846 0.76298,-0.46715 l 0.23932,-0.1976 -0.0412,-0.58632 c -0.0227,-0.32247 -0.0501,-0.59524 -0.061,-0.60614 -0.0109,-0.0109 -0.21094,0.066 -0.44453,0.17097 -2.06773,0.9289 -5.10159,1.41733 -8.27955,1.33296 -1.46657,-0.0389 -2.10483,-0.0961 -3.28498,-0.2942 -1.4316,-0.24033 -3.10174,-0.75008 -3.2769,-1.00015 -0.0749,-0.1069 -0.0916,-0.39933 -0.0916,-1.5997 0,-0.91759 0.0245,-1.51474 0.0654,-1.59102 0.11997,-0.22416 0.31255,-0.24259 0.83585,-0.08 3.25682,1.01204 7.41056,1.22779 10.61922,0.55158 1.10981,-0.23388 2.29033,-0.64614 3.31135,-1.15638 l 0.63147,-0.31557 v -0.72846 c 0,-0.40066 -0.0135,-0.72846 -0.0301,-0.72846 -0.0165,0 -0.27298,0.10088 -0.56986,0.22418 -1.60386,0.66613 -3.34558,1.10426 -5.28348,1.32905 -0.88288,0.10241 -3.61628,0.099 -4.49728,-0.006 -0.95645,-0.11356 -2.22094,-0.34922 -3.04343,-0.56723 -0.88827,-0.23544 -1.8441,-0.59936 -1.91166,-0.72781 -0.0285,-0.0543 -0.0717,-0.76397 -0.096,-1.57718 -0.0439,-1.4718 -0.0435,-1.47936 0.0944,-1.65367 0.16596,-0.20987 0.17872,-0.20892 1.35271,0.10035 0.90341,0.23799 2.39944,0.48679 3.66559,0.60961 1.21062,0.11743 4.28803,0.0988 5.40999,-0.0327 3.39172,-0.39766 5.79879,-1.29426 7.39764,-2.75552 l 0.36002,-0.32904 -0.0432,-0.46457 c -0.0944,-1.01622 -0.13769,-2.98392 -0.0902,-4.09849 0.10878,-2.55062 0.48968,-4.62248 1.28567,-6.99322 0.6688,-1.99191 1.49979,-3.77682 3.31277,-7.11555 0.96389,-1.77507 1.89426,-3.62243 2.31148,-4.58969 1.12223,-2.60172 1.7248,-4.96358 1.96169,-7.6892 0.10924,-1.25672 0.0444,-3.7958 -0.12065,-4.72453 -0.34799,-1.95814 -0.8834,-3.57139 -1.77883,-5.35978 -2.49903,-4.99117 -6.82658,-8.66542 -11.83497,-10.04834 -3.59461,-0.99255 -7.59498,-0.78449 -11.03619,0.57398 -3.319236,1.31031 -6.280136,3.67644 -8.517756,6.80676 -1.74203,2.43701 -2.93468,5.33488 -3.409929,8.28538 -0.13115,0.81428 -0.18168,3.19903 -0.0911,4.30089 0.269089,3.27387 1.029459,5.95589 2.619869,9.24099 0.31167,0.64379 1.08979,2.14083 1.72914,3.32676 2.31241,4.28926 3.20769,6.39345 3.85472,9.05979 0.4921,2.02791 0.69271,3.77435 0.69663,6.06462 0.003,1.98959 -0.1055,3.53324 -0.26513,3.758 -0.14879,0.20952 -0.44591,0.23655 -0.62555,0.0569 -0.12376,-0.12376 -0.13183,-0.17483 -0.0955,-0.6043 0.30932,-3.65542 0.13499,-6.42026 -0.58506,-9.27886 -0.62486,-2.48071 -1.52388,-4.5605 -3.78148,-8.74814 -2.23667,-4.1488 -3.13398,-6.24725 -3.757889,-8.78821 -0.49458,-2.01422 -0.67301,-3.58006 -0.67287,-5.90496 8e-5,-1.51839 0.0189,-1.87567 0.13902,-2.6425 0.985199,-6.28846 5.191299,-12.11932 10.807865,-14.98282 2.62838,-1.34003 5.30009,-1.97751 8.30049,-1.98052 1.82713,-0.002 2.93797,0.13407 4.65129,0.56906 2.44313,0.62029 4.91353,1.86881 7.02315,3.54945 0.85971,0.6849 2.45017,2.26965 3.09435,3.08325 2.42201,3.05899 3.87238,6.29019 4.43397,9.87822 0.1572,1.00439 0.15599,4.07849 -0.003,5.35977 -0.49412,4.00407 -1.40091,6.4737 -4.44495,12.10569 -1.9788,3.66111 -2.84323,5.61686 -3.47663,7.86574 -0.83219,2.95468 -1.06749,5.74684 -0.79425,9.42518 l 0.0717,0.96516 -0.20308,0.23616 c -1.0868,1.26382 -3.14678,2.36316 -5.52081,2.94628 -1.76695,0.43402 -3.41392,0.60727 -5.75671,0.60561 -2.39857,-0.002 -4.39283,-0.21224 -6.23922,-0.65869 l -0.60222,-0.14561 0.017,0.92946 0.017,0.92946 0.30803,0.11496 c 1.0874,0.4058 2.97444,0.7825 4.55888,0.91003 1.11232,0.0895 3.1994,0.0411 4.22005,-0.0979 1.97286,-0.26874 3.87992,-0.8287 5.3738,-1.57789 0.26185,-0.13132 0.51456,-0.23876 0.56156,-0.23876 0.047,0 0.19707,-0.0196 0.28635,0.0506 0,0 0.12377,0.13595 0.12377,0.20479 0,1.31716 0,1.31716 0,1.31716 0,0.79019 -0.0259,1.37409 -0.0648,1.45941 -0.0356,0.0782 -0.15346,0.19332 -0.26182,0.25576 -1.72113,0.99185 -3.65671,1.61866 -5.92644,1.91916 -2.66795,0.35322 -6.37779,0.0482 -9.10399,-0.74853 -0.10199,-0.0299 -0.10828,0.0322 -0.0924,0.90921 l 0.017,0.94121 0.62742,0.20201 c 1.44484,0.4652 3.03314,0.69237 5.17391,0.74003 3.51133,0.0782 6.39979,-0.44404 8.44669,-1.52709 0.31426,-0.16627 0.65323,-0.30232 0.75326,-0.30232 0.32853,0 0.36128,0.13333 0.37496,1.52678 0.0141,1.43598 0.0526,1.32806 -0.65228,1.83026 -1.7586,1.25299 -4.74911,1.82349 -9.11578,1.73902 l -1.7846,-0.0345 0.27524,0.22086 c 0.45952,0.36873 1.79776,1.73882 2.24186,2.29523 0.22988,0.288 0.47748,0.55464 0.55021,0.59251 0.51699,0.2692 1.82366,0.32121 2.53573,0.10092 0.23764,-0.0735 0.57022,-0.23189 0.73908,-0.35195 0.34881,-0.24799 0.53052,-0.27239 0.70785,-0.0951 0.1889,0.1889 0.15969,0.46649 -0.0713,0.67747 -0.61585,0.56248 -2.01521,0.89254 -3.12851,0.73789 z"
       id="path1479-6"
       inkscape:connector-curvature="0"
       sodipodi:nodetypes="cccccccccccccscccscccccsscccscsccccsccssccccssssssssssccssssccscsssscsssccccsccccccsscsscccccccscsscccccccccccc"
       transform="matrix(0.99999895,0,0,1.0000001,-3.1883076,-1.5767486e-5)" />
    <path
       style="fill:#ffffff;fill-opacity:1;stroke-width:0.06160654;filter:url(#filter938)"
       d="m 104.61154,233.68184 c -0.23047,-0.0824 -0.24642,-0.19302 -0.24653,-1.70941 -4.5e-4,-6.445 -1.42878,-12.70351 -4.682816,-20.51862 -0.92034,-2.21036 -1.85075,-4.24701 -3.44192,-7.53437 -0.54611,-1.12826 -0.99292,-2.07701 -0.99292,-2.10834 0,-0.10994 0.62468,-1.51139 0.89354,-2.00462 1.3451,-2.46762 3.26109,-4.32481 5.575136,-5.404 3.34254,-1.55885 7.7112,-1.72847 12.1547,-0.47193 l 0.66509,0.18807 0.27843,-0.30969 c 0.17747,-0.19738 0.42729,-0.38296 0.68897,-0.51178 0.39835,-0.19611 0.43342,-0.20206 1.18191,-0.20079 0.57451,0.001 0.87357,0.0313 1.17182,0.11875 1.04877,0.30758 2.22942,0.8987 3.11278,1.5585 0.51334,0.38342 0.79853,0.77862 1.25606,1.74061 0.60072,1.26304 0.56495,2.11411 -0.11061,2.632 -0.39066,0.29948 -0.66261,0.35658 -1.67076,0.35076 -0.75011,-0.004 -1.04141,-0.0361 -1.81739,-0.19823 -1.24028,-0.25914 -2.37933,-0.59414 -2.47774,-0.72873 -0.18108,-0.24765 0.007,-0.63961 0.30611,-0.6382 0.0762,3.7e-4 0.4834,0.0974 0.90481,0.21564 1.28993,0.36196 2.28685,0.53659 3.11501,0.54568 0.62665,0.007 0.77683,-0.0107 0.98571,-0.11511 0.34341,-0.1717 0.43255,-0.38293 0.34768,-0.82384 -0.0845,-0.43921 -0.76446,-1.80667 -1.03066,-2.07288 -0.50328,-0.50327 -1.9154,-1.27883 -2.921,-1.60425 -0.42077,-0.13616 -0.6447,-0.17041 -1.13972,-0.17429 -0.84569,-0.007 -1.08386,0.11898 -1.53514,0.80972 -0.11216,0.17167 -0.24536,0.30013 -0.32267,0.31121 -0.0724,0.0104 -0.45001,-0.0777 -0.8391,-0.19561 -1.9559,-0.59293 -3.98415,-0.89949 -5.95919,-0.9007 -4.68163,-0.003 -8.230696,1.74734 -10.537866,5.1967 -0.43043,0.64352 -1.04071,1.78475 -1.31117,2.4519 l -0.0915,0.22565 0.58577,1.1913 c 5.264696,10.70701 7.550586,17.58489 8.309566,25.00224 0.0584,0.57103 0.11141,1.85058 0.13181,3.18301 l 0.0341,2.22811 c 0.001,0.075 -0.0965,0.15915 -0.0965,0.15915 -0.15814,0.15813 -0.29681,0.17965 -0.47382,0.11639 z"
       id="path1477-7"
       inkscape:connector-curvature="0"
       sodipodi:nodetypes="cssssscccccccsscccccccccccccccccccscssscc"
       transform="matrix(0.99999895,0,0,1.0000001,-3.1883076,-1.5767486e-5)" />
    <path
       style="fill:#ffffff;fill-opacity:1;stroke-width:0.06160654;filter:url(#filter942)"
       d="m 113.06614,233.66024 c -0.0767,-0.0305 -0.16683,-0.12734 -0.20022,-0.21516 -0.0334,-0.0879 -0.0607,-0.78873 -0.0607,-1.55827 0,-6.10671 1.34433,-12.29415 4.23861,-19.50881 1.08508,-2.70482 2.17829,-5.12836 4.16506,-9.23359 0.48033,-0.9925 0.57863,-1.24168 0.51848,-1.31416 -0.12399,-0.14939 -0.7652,-0.44457 -1.20593,-0.55513 -0.61138,-0.15338 -2.47495,-0.13662 -3.95284,0.0355 -0.62388,0.0727 -1.38996,0.13215 -1.70239,0.13215 -0.53702,0 -0.57009,0.008 -0.60521,0.13861 -0.11666,0.43531 0.003,0.73947 0.63567,1.61717 0.726,1.00702 0.86983,1.37498 0.62432,1.59717 -0.095,0.086 -0.27901,0.11351 -0.9395,0.14061 l -0.82137,0.0337 -0.77008,-0.66228 c -2.16274,-1.85997 -3.97356,-3.11123 -4.50279,-3.11139 -0.28809,-6e-5 -0.33275,0.20315 -0.33842,1.54012 -0.003,0.66072 -0.01,1.23534 -0.0154,1.27691 -0.006,0.0415 -0.0743,0.11751 -0.15249,0.16876 -0.12747,0.0835 -0.26713,0.081 -1.34914,-0.0239 -0.66382,-0.0644 -1.26017,-0.14553 -1.32522,-0.18035 -0.0888,-0.0476 -0.17336,-0.28448 -0.33945,-0.95123 -0.49856,-2.00153 -1.04995,-2.75341 -2.33563,-3.18488 -0.28326,-0.0951 -0.72293,-0.20726 -0.97706,-0.24933 -0.40062,-0.0663 -0.51509,-0.0628 -0.86097,0.0267 -0.51305,0.13269 -0.877706,0.34842 -1.274806,0.75416 -0.4427,0.45235 -0.71941,1.03401 -0.75008,1.57674 -0.0374,0.66114 0.0674,0.93356 0.54058,1.40645 0.883066,0.88245 1.682096,0.95025 2.088796,0.17727 0.13481,-0.25624 0.14177,-0.32106 0.1095,-1.02029 -0.0308,-0.66743 -0.0227,-0.75732 0.0765,-0.84709 0.12629,-0.11429 0.33189,-0.12971 0.50367,-0.0378 0.28973,0.15506 0.37229,1.47854 0.1309,2.09846 -0.57475,1.47602 -2.251646,1.55088 -3.567766,0.15928 -0.95646,-1.01131 -0.98345,-2.37257 -0.0728,-3.66935 0.6386,-0.90934 1.687436,-1.48495 2.705776,-1.48495 0.74035,0 1.98698,0.39086 2.64781,0.83018 0.80175,0.533 1.3024,1.35019 1.69938,2.77381 0.12283,0.44048 0.23249,0.83178 0.24368,0.86954 0.0118,0.0399 0.26156,0.0869 0.59534,0.11211 0.31625,0.0239 0.63454,0.0577 0.7073,0.0751 0.13074,0.0312 0.13256,0.0192 0.15402,-1.00989 0.0212,-1.01607 0.0262,-1.05028 0.20653,-1.4019 0.23824,-0.46459 0.58447,-0.6748 1.02889,-0.62471 0.8405,0.0948 2.60233,1.28868 5.17187,3.50479 0.31556,0.27216 0.36846,0.29645 0.56518,0.25954 l 0.21703,-0.0408 -0.3593,-0.48459 c -0.5776,-0.77901 -0.70944,-1.09888 -0.70944,-1.72129 0,-0.55183 0.0704,-0.77309 0.36162,-1.13676 0.12522,-0.15637 0.17917,-0.17845 0.38486,-0.15754 0.52535,0.0534 1.52016,0.0135 2.42626,-0.0973 1.32324,-0.16182 3.40473,-0.16449 4.0837,-0.005 0.91623,0.21491 2.01534,0.92752 2.01534,1.30667 0,0.0801 -0.34921,0.86084 -0.77602,1.73504 -4.23283,8.66976 -6.31717,14.25612 -7.4774,20.04065 -0.59086,2.94582 -0.93924,6.66336 -0.83763,8.9383 0.0362,0.81031 0.0293,0.9112 -0.0703,1.02655 -0.13763,0.15943 -0.31495,0.20794 -0.49637,0.13581 z"
       id="path1473-5"
       inkscape:connector-curvature="0"
       transform="matrix(0.99999895,0,0,1.0000001,-3.1883076,-1.5767486e-5)" />
  </g>
</svg>
