<?xml version="1.0" encoding="UTF-8" standalone="no"?>
<!-- Created with Inkscape (http://www.inkscape.org/) -->

<svg
   xmlns:dc="http://purl.org/dc/elements/1.1/"
   xmlns:cc="http://creativecommons.org/ns#"
   xmlns:rdf="http://www.w3.org/1999/02/22-rdf-syntax-ns#"
   xmlns:svg="http://www.w3.org/2000/svg"
   xmlns="http://www.w3.org/2000/svg"
   xmlns:xlink="http://www.w3.org/1999/xlink"
   xmlns:sodipodi="http://sodipodi.sourceforge.net/DTD/sodipodi-0.dtd"
   xmlns:inkscape="http://www.inkscape.org/namespaces/inkscape"
   width="800"
   height="600"
   viewBox="0 0 211.66666 158.74999"
   version="1.1"
   id="svg885"
   inkscape:version="0.92.2 5c3e80d, 2017-08-06"
   sodipodi:docname="off.svg"
   inkscape:export-filename="/home/lcp/MEGA/Pictures/openSUSE/plymouth/full.png"
   inkscape:export-xdpi="96.000008"
   inkscape:export-ydpi="96.000008">
  <defs
     id="defs879">
    <linearGradient
       inkscape:collect="always"
       id="linearGradient847">
      <stop
         style="stop-color:#000000;stop-opacity:0.21176471"
         offset="0"
         id="stop843" />
      <stop
         style="stop-color:#000000;stop-opacity:0.56345177"
         offset="1"
         id="stop845" />
    </linearGradient>
    <radialGradient
       inkscape:collect="always"
       xlink:href="#linearGradient847"
       id="radialGradient849"
       cx="105.83333"
       cy="217.62503"
       fx="105.83333"
       fy="217.62503"
       r="105.83334"
       gradientTransform="matrix(1,0,0,0.74999998,1e-5,54.406259)"
       gradientUnits="userSpaceOnUse" />
  </defs>
  <sodipodi:namedview
     id="base"
     pagecolor="#ffffff"
     bordercolor="#666666"
     borderopacity="1.0"
     inkscape:pageopacity="0.0"
     inkscape:pageshadow="2"
     inkscape:zoom="0.98994949"
     inkscape:cx="349.47706"
     inkscape:cy="361.94168"
     inkscape:document-units="px"
     inkscape:current-layer="layer1"
     showgrid="false"
     units="px"
     inkscape:window-width="1366"
     inkscape:window-height="713"
     inkscape:window-x="0"
     inkscape:window-y="27"
     inkscape:window-maximized="1"
     showguides="false"
     inkscape:guide-bbox="true">
    <sodipodi:guide
       position="69.925592,61.988092"
       orientation="1,0"
       id="guide1481"
       inkscape:locked="false" />
  </sodipodi:namedview>
  <metadata
     id="metadata882">
    <rdf:RDF>
      <cc:Work
         rdf:about="">
        <dc:format>image/svg+xml</dc:format>
        <dc:type
           rdf:resource="http://purl.org/dc/dcmitype/StillImage" />
        <dc:title />
      </cc:Work>
    </rdf:RDF>
  </metadata>
  <g
     inkscape:label="Layer 1"
     inkscape:groupmode="layer"
     id="layer1"
     transform="translate(0,-138.25003)">
    <rect
       style="opacity:1;fill:#0d202f;fill-opacity:1;fill-rule:evenodd;stroke:none;stroke-width:6.34134817;stroke-linecap:round;stroke-linejoin:round;stroke-miterlimit:4;stroke-dasharray:none;stroke-opacity:1;paint-order:stroke fill markers"
       id="rect1483"
       width="211.66667"
       height="158.75"
       x="0"
       y="138.25003" />
    <path
       style="fill:#000000;fill-opacity:1;stroke-width:0.06160654"
       d="m 105.73924,253.31393 c -0.42422,-0.0589 -1.12028,-0.25891 -1.33713,-0.38417 -0.0726,-0.0419 -0.32048,-0.31193 -0.55078,-0.59995 -1.30451,-1.63152 -2.35323,-2.54925 -3.67042,-3.21202 -0.282508,-0.14215 -0.562168,-0.29971 -0.621468,-0.35015 -0.14737,-0.12535 -0.13907,-0.45646 0.0149,-0.59584 0.13142,-0.11893 0.35011,-0.11473 1.694648,0.0326 0.95234,0.10431 4.33769,0.14493 5.39058,0.0647 2.20416,-0.16799 3.79488,-0.53449 4.99013,-1.14969 0.28801,-0.14825 0.63135,-0.35846 0.76298,-0.46715 l 0.23932,-0.1976 -0.0412,-0.58631 c -0.0227,-0.32247 -0.0501,-0.59524 -0.061,-0.60614 -0.0109,-0.0109 -0.21094,0.066 -0.44453,0.17097 -2.06773,0.92889 -5.10159,1.41732 -8.27956,1.33295 -1.46657,-0.0389 -2.10483,-0.0961 -3.28498,-0.2942 -1.431598,-0.24033 -3.101739,-0.75007 -3.276899,-1.00014 -0.0749,-0.1069 -0.0916,-0.39933 -0.0916,-1.5997 0,-0.91759 0.0245,-1.51474 0.0654,-1.59102 0.11997,-0.22416 0.31255,-0.24259 0.83585,-0.08 3.256819,1.01204 7.410569,1.22779 10.619229,0.55158 1.10981,-0.23388 2.29033,-0.64614 3.31135,-1.15638 l 0.63147,-0.31557 v -0.72846 c 0,-0.40064 -0.0135,-0.72844 -0.0301,-0.72844 -0.0165,0 -0.27298,0.10088 -0.56986,0.22418 -1.60386,0.66611 -3.34558,1.10424 -5.28348,1.32903 -0.88288,0.10241 -3.61629,0.099 -4.49729,-0.006 -0.95645,-0.11356 -2.22094,-0.34922 -3.043428,-0.56723 -0.888271,-0.23544 -1.844101,-0.59934 -1.911661,-0.72779 -0.0285,-0.0543 -0.0717,-0.76397 -0.096,-1.57718 -0.0439,-1.4718 -0.0435,-1.47936 0.0944,-1.65367 0.16596,-0.20987 0.17872,-0.20892 1.352711,0.10035 0.90341,0.23799 2.399438,0.48679 3.665588,0.60961 1.21062,0.11743 4.28804,0.0988 5.41,-0.0327 3.39172,-0.39766 5.79879,-1.29426 7.39764,-2.75551 l 0.36002,-0.32904 -0.0432,-0.46457 c -0.0944,-1.01622 -0.13769,-2.98392 -0.0902,-4.09849 0.10878,-2.55061 0.48968,-4.62246 1.28567,-6.99319 0.6688,-1.99191 1.49979,-3.77682 3.31277,-7.11554 0.9639,-1.77507 1.89427,-3.62242 2.31149,-4.58968 1.12223,-2.60171 1.7248,-4.96356 1.96169,-7.68918 0.10924,-1.25672 0.0444,-3.79579 -0.12065,-4.72452 -0.34799,-1.95814 -0.8834,-3.57137 -1.77883,-5.35976 -2.49904,-4.99117 -6.82659,-8.66541 -11.83498,-10.04833 -3.59461,-0.99255 -7.59499,-0.78449 -11.036198,0.57398 -3.319246,1.31031 -6.280154,3.67643 -8.517773,6.80675 -1.742035,2.437 -2.93468,5.33487 -3.409928,8.28535 -0.131158,0.81428 -0.181681,3.19902 -0.09112,4.30088 0.269085,3.27387 1.029453,5.95588 2.619864,9.24097 0.311678,0.64378 1.089792,2.14082 1.729143,3.32675 2.312409,4.28925 3.207693,6.39344 3.854722,9.05977 0.4921,2.0279 0.692711,3.77434 0.696629,6.0646 0.0034,1.98959 -0.105499,3.53324 -0.265123,3.758 -0.148798,0.20952 -0.445912,0.23655 -0.625556,0.0569 -0.123755,-0.12376 -0.131826,-0.17483 -0.09548,-0.6043 0.30932,-3.65542 0.13499,-6.42025 -0.585057,-9.27884 -0.624861,-2.48069 -1.523879,-4.56048 -3.781482,-8.74811 -2.236671,-4.14879 -3.13398,-6.24723 -3.757896,-8.78818 -0.494582,-2.01422 -0.67301,-3.58006 -0.672873,-5.90495 8.7e-5,-1.51839 0.01888,-1.87567 0.139024,-2.6425 0.985201,-6.28844 5.191302,-12.11929 10.807885,-14.98278 2.628379,-1.34003 5.300089,-1.97751 8.300499,-1.98052 1.82713,-0.002 2.93797,0.13407 4.65129,0.56906 2.44313,0.62029 4.91353,1.86881 7.02315,3.54944 0.85971,0.6849 2.45017,2.26965 3.09436,3.08325 2.42201,3.05898 3.87238,6.29018 4.43397,9.87819 0.1572,1.00439 0.15599,4.07848 -0.003,5.35976 -0.49412,4.00406 -1.40091,6.47369 -4.44495,12.10566 -1.97881,3.6611 -2.84324,5.61685 -3.47664,7.86572 -0.83219,2.95467 -1.06749,5.74682 -0.79425,9.42516 l 0.0717,0.96516 -0.20308,0.23616 c -1.0868,1.26381 -3.14678,2.36315 -5.52081,2.94627 -1.76695,0.43402 -3.41392,0.60727 -5.75671,0.60561 -2.39858,-0.002 -4.39284,-0.21224 -6.239228,-0.65869 l -0.602221,-0.14561 0.017,0.92946 0.017,0.92946 0.308031,0.11496 c 1.08739,0.4058 2.974428,0.78249 4.558878,0.91001 1.11233,0.0895 3.19941,0.0411 4.22006,-0.0979 1.97286,-0.26873 3.87992,-0.82869 5.3738,-1.57788 0.26185,-0.13132 0.51455,-0.23876 0.56155,-0.23876 0.047,0 0.19707,-0.0196 0.28635,0.0506 0,0 0.12377,0.13595 0.12377,0.20479 0,1.31716 0,1.31716 0,1.31716 0,0.79017 -0.0259,1.37407 -0.0648,1.45939 -0.0356,0.0782 -0.15346,0.19332 -0.26182,0.25576 -1.72113,0.99185 -3.65671,1.61866 -5.92644,1.91916 -2.66795,0.35322 -6.3778,0.0482 -9.103999,-0.74853 -0.10199,-0.0299 -0.10828,0.0322 -0.0924,0.90921 l 0.017,0.94121 0.627421,0.20201 c 1.444838,0.4652 3.033138,0.69237 5.173908,0.74003 3.51134,0.0782 6.3998,-0.44404 8.4467,-1.52709 0.31426,-0.16627 0.65323,-0.30232 0.75326,-0.30232 0.32854,0 0.36128,0.13333 0.37496,1.52678 0.0141,1.43597 0.0526,1.32805 -0.65228,1.83025 -1.7586,1.25299 -4.74911,1.82349 -9.11579,1.73902 l -1.7846,-0.0345 0.27524,0.22086 c 0.45952,0.36873 1.79776,1.73882 2.24187,2.29522 0.22988,0.288 0.47748,0.55464 0.55021,0.59251 0.51699,0.2692 1.82366,0.32121 2.53573,0.10092 0.23764,-0.0735 0.57022,-0.23189 0.73908,-0.35195 0.34881,-0.24799 0.53052,-0.27239 0.70785,-0.0951 0.1889,0.1889 0.15969,0.46649 -0.0713,0.67747 -0.61585,0.56248 -2.01521,0.89254 -3.12851,0.73789 z"
       id="path1479"
       inkscape:connector-curvature="0"
       sodipodi:nodetypes="cccccccccccccscccscccccsscccscsccccsccssccccssssssssssccssssccscsssscsssccccsccccccsscsscccccccscsscccccccccccc" />
    <path
       style="fill:#000000;fill-opacity:1;stroke-width:0.06160654"
       d="m 101.42304,233.68193 c -0.23047,-0.0824 -0.24642,-0.19302 -0.24653,-1.70941 -4.4e-4,-6.44498 -1.428778,-12.70348 -4.682827,-20.51857 -0.92034,-2.21035 -1.850745,-4.24699 -3.44192,-7.53435 -0.546109,-1.12826 -0.992925,-2.077 -0.992925,-2.10833 0,-0.10994 0.624681,-1.51139 0.89354,-2.00462 1.345101,-2.46762 3.261101,-4.32479 5.575154,-5.40398 3.342538,-1.55885 7.711208,-1.72847 12.154708,-0.47193 l 0.66509,0.18807 0.27843,-0.30969 c 0.17747,-0.19738 0.42729,-0.38296 0.68897,-0.51178 0.39835,-0.19611 0.43342,-0.20206 1.18191,-0.20079 0.57451,0.001 0.87357,0.0313 1.17182,0.11875 1.04877,0.30758 2.22942,0.8987 3.11278,1.5585 0.51334,0.38342 0.79853,0.77862 1.25606,1.7406 0.60072,1.26303 0.56495,2.1141 -0.11061,2.63199 -0.39066,0.29948 -0.66261,0.35658 -1.67076,0.35076 -0.75011,-0.004 -1.04141,-0.0361 -1.81739,-0.19823 -1.24028,-0.25914 -2.37933,-0.59414 -2.47774,-0.72873 -0.18108,-0.24765 0.007,-0.63961 0.30611,-0.6382 0.0762,3.7e-4 0.4834,0.0974 0.90481,0.21564 1.28993,0.36196 2.28685,0.53659 3.11501,0.54568 0.62665,0.007 0.77683,-0.0107 0.98571,-0.11511 0.34341,-0.1717 0.43255,-0.38293 0.34768,-0.82384 -0.0845,-0.43921 -0.76446,-1.80665 -1.03066,-2.07286 -0.50328,-0.50327 -1.9154,-1.27883 -2.921,-1.60425 -0.42077,-0.13616 -0.6447,-0.17041 -1.13972,-0.17429 -0.84569,-0.007 -1.08386,0.11898 -1.53514,0.80972 -0.11216,0.17167 -0.24536,0.30013 -0.32267,0.31121 -0.0724,0.0104 -0.45001,-0.0777 -0.8391,-0.19561 -1.9559,-0.59293 -3.98415,-0.89949 -5.95919,-0.9007 -4.68164,-0.003 -8.230713,1.74734 -10.537887,5.19668 -0.430432,0.64352 -1.040714,1.78475 -1.311171,2.4519 l -0.09148,0.22565 0.585768,1.19129 c 5.264712,10.70698 7.5506,17.58485 8.30958,25.00218 0.0584,0.57103 0.11141,1.85057 0.13181,3.183 l 0.0341,2.22811 c 0.001,0.075 -0.0965,0.15915 -0.0965,0.15915 -0.15814,0.15813 -0.29681,0.17965 -0.47382,0.11639 z"
       id="path1477"
       inkscape:connector-curvature="0"
       sodipodi:nodetypes="cssssscccccccsscccccccccccccccccccscssscc" />
    <path
       style="fill:#000000;fill-opacity:1;stroke-width:0.06160654"
       d="m 109.87765,233.66023 c -0.0767,-0.0305 -0.16683,-0.12734 -0.20022,-0.21516 -0.0334,-0.0879 -0.0607,-0.78873 -0.0607,-1.55827 0,-6.1067 1.34433,-12.29412 4.23861,-19.50876 1.08508,-2.70481 2.17829,-5.12834 4.16506,-9.23357 0.48033,-0.99249 0.57863,-1.24167 0.51848,-1.31415 -0.12399,-0.14939 -0.7652,-0.44457 -1.20593,-0.55513 -0.61138,-0.15338 -2.47495,-0.13662 -3.95284,0.0355 -0.62388,0.0727 -1.38996,0.13215 -1.70239,0.13215 -0.53702,0 -0.57009,0.008 -0.60521,0.13861 -0.11666,0.43531 0.003,0.73946 0.63567,1.61716 0.726,1.00702 0.86983,1.37498 0.62432,1.59717 -0.095,0.086 -0.27901,0.11351 -0.9395,0.14061 l -0.82137,0.0337 -0.77008,-0.66228 c -2.16274,-1.85997 -3.97356,-3.11122 -4.50279,-3.11138 -0.28809,-6e-5 -0.33275,0.20315 -0.33842,1.54011 -0.003,0.66072 -0.01,1.23534 -0.0154,1.27691 -0.006,0.0415 -0.0743,0.11751 -0.15249,0.16876 -0.12747,0.0835 -0.26713,0.081 -1.34915,-0.0239 -0.66382,-0.0644 -1.26017,-0.14553 -1.32522,-0.18035 -0.0888,-0.0476 -0.17336,-0.28448 -0.33945,-0.95123 -0.49856,-2.00152 -1.04995,-2.7534 -2.335628,-3.18487 -0.28326,-0.0951 -0.72293,-0.20726 -0.97706,-0.24933 -0.400621,-0.0663 -0.515091,-0.0628 -0.860971,0.0267 -0.51305,0.13269 -0.877716,0.34842 -1.274814,0.75416 -0.442706,0.45235 -0.719418,1.03401 -0.750084,1.57674 -0.03736,0.66113 0.06735,0.93355 0.540576,1.40644 0.883082,0.88245 1.682112,0.95025 2.088812,0.17727 0.134811,-0.25624 0.141771,-0.32106 0.1095,-1.02029 -0.0308,-0.66742 -0.0227,-0.75731 0.0765,-0.84708 0.12629,-0.11429 0.33189,-0.12971 0.50367,-0.0378 0.28973,0.15506 0.37229,1.47853 0.1309,2.09845 -0.57475,1.47602 -2.251662,1.55088 -3.567783,0.15928 -0.956458,-1.01131 -0.983447,-2.37256 -0.07275,-3.66934 0.638602,-0.90934 1.687452,-1.48495 2.705792,-1.48495 0.740351,0 1.986979,0.39086 2.647809,0.83018 0.80175,0.533 1.3024,1.35019 1.69938,2.7738 0.12283,0.44048 0.23249,0.83178 0.24368,0.86954 0.0118,0.0399 0.26156,0.0869 0.59534,0.11211 0.31625,0.0239 0.63454,0.0577 0.7073,0.0751 0.13075,0.0312 0.13257,0.0192 0.15403,-1.00989 0.0212,-1.01606 0.0262,-1.05027 0.20653,-1.40189 0.23824,-0.46459 0.58447,-0.6748 1.02889,-0.62471 0.8405,0.0948 2.60233,1.28868 5.17187,3.50478 0.31556,0.27216 0.36846,0.29645 0.56518,0.25954 l 0.21703,-0.0408 -0.3593,-0.48459 c -0.5776,-0.77901 -0.70944,-1.09888 -0.70944,-1.72128 0,-0.55183 0.0704,-0.77309 0.36162,-1.13676 0.12522,-0.15637 0.17917,-0.17845 0.38486,-0.15754 0.52535,0.0534 1.52016,0.0135 2.42626,-0.0973 1.32324,-0.16182 3.40473,-0.16449 4.0837,-0.005 0.91623,0.21491 2.01534,0.92752 2.01534,1.30667 0,0.0801 -0.34921,0.86083 -0.77602,1.73503 -4.23283,8.66974 -6.31717,14.25609 -7.4774,20.04061 -0.59086,2.9458 -0.93924,6.66333 -0.83763,8.93827 0.0362,0.81031 0.0293,0.9112 -0.0703,1.02655 -0.13763,0.15943 -0.31495,0.20794 -0.49637,0.13581 z"
       id="path1473"
       inkscape:connector-curvature="0" />
    <rect
       style="opacity:1;fill:url(#radialGradient849);fill-opacity:1;fill-rule:evenodd;stroke:none;stroke-width:6.34134817;stroke-linecap:round;stroke-linejoin:round;stroke-miterlimit:4;stroke-dasharray:none;stroke-opacity:1;paint-order:stroke fill markers"
       id="rect1483-3"
       width="211.66667"
       height="158.75"
       x="0"
       y="138.25003" />
  </g>
</svg>
