<?xml version="1.0" encoding="UTF-8" standalone="no"?>
<!-- Created with Inkscape (http://www.inkscape.org/) -->
<svg
   xmlns:dc="http://purl.org/dc/elements/1.1/"
   xmlns:cc="http://web.resource.org/cc/"
   xmlns:rdf="http://www.w3.org/1999/02/22-rdf-syntax-ns#"
   xmlns:svg="http://www.w3.org/2000/svg"
   xmlns="http://www.w3.org/2000/svg"
   xmlns:sodipodi="http://sodipodi.sourceforge.net/DTD/sodipodi-0.dtd"
   xmlns:inkscape="http://www.inkscape.org/namespaces/inkscape"
   width="140"
   height="30"
   id="svg4967"
   sodipodi:version="0.32"
   inkscape:version="0.45+devel"
   version="1.0"
   sodipodi:docname="logo.svg"
   inkscape:output_extension="org.inkscape.output.svg.inkscape">
  <defs
     id="defs4969">
    <filter
       inkscape:collect="always"
       id="filter5626">
      <feGaussianBlur
         inkscape:collect="always"
         stdDeviation="1.7026232"
         id="feGaussianBlur5628" />
    </filter>
  </defs>
  <sodipodi:namedview
     id="base"
     pagecolor="#ffffff"
     bordercolor="#666666"
     borderopacity="1.0"
     gridtolerance="10000"
     guidetolerance="10"
     objecttolerance="10"
     inkscape:pageopacity="0.0"
     inkscape:pageshadow="2"
     inkscape:zoom="2.8284271"
     inkscape:cx="64.664456"
     inkscape:cy="5.511428"
     inkscape:document-units="px"
     inkscape:current-layer="layer1"
     borderlayer="true"
     inkscape:showpageshadow="false"
     width="140px"
     height="30px"
     inkscape:window-width="641"
     inkscape:window-height="626"
     inkscape:window-x="605"
     inkscape:window-y="285" />
  <metadata
     id="metadata4972">
    <rdf:RDF>
      <cc:Work
         rdf:about="">
        <dc:format>image/svg+xml</dc:format>
        <dc:type
           rdf:resource="http://purl.org/dc/dcmitype/StillImage" />
      </cc:Work>
    </rdf:RDF>
  </metadata>
  <g
     inkscape:label="Layer 1"
     inkscape:groupmode="layer"
     id="layer1"
     transform="translate(-374.04243,-398.16875)">
    <g
       transform="matrix(0.4832272,0,0,0.4832272,250.61704,179.1133)"
       id="g4985"
       style="fill:#000000;fill-opacity:1;display:inline;filter:url(#filter5626);opacity:0.48192771">
      <path
         d="M 525.54912,468.81976 L 525.38699,468.81976 C 525.19961,468.81976 525.03715,468.6573 525.03715,468.46991 L 525.03715,465.95923 L 524.48744,466.79612 C 524.42506,466.88343 524.31251,466.92083 524.21273,466.92083 L 524.15005,466.92083 C 524.05027,466.92083 523.93771,466.88343 523.87536,466.79612 L 523.31315,465.95923 L 523.31315,468.46991 C 523.31315,468.6573 523.15069,468.81976 522.95083,468.81976 L 522.7887,468.81976 C 522.60132,468.81976 522.43886,468.6573 522.43886,468.46991 L 522.43886,465.47188 L 520.75226,465.47188 L 520.75226,468.46991 C 520.75226,468.6573 520.57732,468.81976 520.37779,468.81976 L 520.22781,468.81976 C 520.0404,468.81976 519.87797,468.6573 519.87797,468.46991 L 519.87797,465.47188 L 518.61637,465.47188 C 518.42899,465.47188 518.279,465.34681 518.279,465.14725 L 518.279,464.97235 C 518.279,464.77249 518.42899,464.64743 518.61637,464.64743 L 523.03843,464.64743 C 523.21337,464.64743 523.32563,464.70981 523.38831,464.80989 L 524.2252,466.07148 L 525.0621,464.80989 C 525.12445,464.72228 525.22453,464.64743 525.41194,464.64743 L 525.97415,464.64743 L 525.97415,468.49487 C 525.97415,468.68225 525.79921,468.84471 525.59935,468.84471"
         id="path4987"
         style="fill:#000000;fill-opacity:1;stroke:none" />
      <path
         d="M 380.95621,463.5608 C 374.91023,463.5608 371.56235,468.68225 371.56235,472.22999 L 371.56235,476.77712 C 371.56235,481.9862 375.82195,485.22153 379.78195,485.22153 L 393.64778,485.22153 C 395.38422,485.22153 395.74654,486.35806 395.74654,487.31999 L 395.74654,490.25568 C 395.74654,490.56779 395.69667,493.39122 393.64778,493.39122 L 374.72285,493.39122 C 372.84887,493.39122 371.48752,494.69022 371.48752,496.47656 L 371.48752,497.28854 C 371.48752,499.06241 372.83639,500.37421 374.72285,500.37421 L 394.68483,500.37421 C 399.89392,500.37421 403.26675,496.75128 403.26675,491.13 L 403.26675,486.22085 C 403.26675,480.94912 399.46925,478.58842 395.70914,478.58842 L 382.06812,478.58842 C 380.00676,478.58842 379.08256,477.06428 379.08256,475.96517 L 379.08256,473.26677 C 379.08256,471.55558 380.2191,470.58118 382.21778,470.58118 L 397.33303,470.58118 C 399.18176,470.58118 400.56835,469.25693 400.56835,467.49551 L 400.56835,466.68357 C 400.56835,464.93462 399.1568,463.5982 397.27068,463.5982 L 380.98116,463.5982"
         id="path4989"
         style="fill:#000000;fill-opacity:1;stroke:none" />
      <path
         d="M 437.70666,463.5608 C 435.92031,463.5608 434.47133,465.00978 434.47133,466.79612 L 434.47133,490.03086 C 434.47133,491.87956 432.9597,493.37875 431.12345,493.37875 L 420.58025,493.37875 C 418.73155,493.37875 417.23233,491.87956 417.23233,490.03086 L 417.23233,466.79612 C 417.23233,465.00978 415.79586,463.5608 413.99704,463.5608 L 412.97273,463.5608 C 411.17391,463.5608 409.7374,464.98482 409.7374,466.79612 L 409.7374,490.91763 C 409.7374,496.52647 414.14702,500.59899 420.2304,500.59899 L 431.49824,500.59899 C 437.58162,500.59899 441.99121,496.52647 441.99121,490.91763 L 441.99121,466.79612 C 441.99121,464.98482 440.56722,463.5608 438.75592,463.5608 L 437.73161,463.5608"
         id="path4991"
         style="fill:#000000;fill-opacity:1;stroke:none" />
      <path
         d="M 457.90593,463.5608 C 451.85998,463.5608 448.5121,468.68225 448.5121,472.22999 L 448.5121,476.77712 C 448.5121,481.9862 452.78418,485.22153 456.73167,485.22153 L 470.5975,485.22153 C 472.33397,485.22153 472.70877,486.35806 472.70877,487.31999 L 472.70877,490.25568 C 472.70877,490.56779 472.64641,493.39122 470.5975,493.39122 L 451.6726,493.39122 C 449.79862,493.39122 448.43727,494.69022 448.43727,496.47656 L 448.43727,497.28854 C 448.43727,499.06241 449.79862,500.37421 451.6726,500.37421 L 471.62211,500.37421 C 476.84367,500.37421 480.2037,496.75128 480.2037,491.13 L 480.2037,486.22085 C 480.2037,480.94912 476.419,478.58842 472.64641,478.58842 L 459.00507,478.58842 C 456.94403,478.58842 456.01983,477.06428 456.01983,475.96517 L 456.01983,473.26677 C 456.01983,471.55558 457.15637,470.58118 459.14257,470.58118 L 474.25782,470.58118 C 476.09408,470.58118 477.49318,469.25693 477.49318,467.49551 L 477.49318,466.68357 C 477.49318,464.93462 476.0816,463.5982 474.1827,463.5982 L 457.90593,463.5982"
         id="path4993"
         style="fill:#000000;fill-opacity:1;stroke:none" />
      <path
         d="M 489.79745,463.5608 C 488.0114,463.5608 486.63725,464.88471 486.63725,466.64614 L 486.63725,497.28854 C 486.63725,499.03745 487.9612,500.37421 489.7351,500.37421 L 514.15658,500.37421 C 516.03056,500.37421 517.39223,499.07488 517.39223,497.28854 L 517.39223,496.47656 C 517.39223,494.70269 516.04303,493.39122 514.15658,493.39122 C 514.15658,493.39122 495.05674,493.39122 494.15716,493.39122 C 494.15716,492.59175 494.15716,486.38331 494.15716,485.58385 C 495.05674,485.58385 508.81031,485.58385 508.81031,485.58385 C 510.68396,485.58385 512.04564,484.28452 512.04564,482.4857 L 512.04564,481.68623 C 512.04564,479.89989 510.68396,478.58842 508.81031,478.58842 C 508.81031,478.58842 495.05674,478.58842 494.15716,478.58842 C 494.15716,477.78895 494.15716,471.36817 494.15716,470.56871 C 495.05674,470.56871 513.14474,470.56871 513.14474,470.56871 C 515.01875,470.56871 516.3804,469.26938 516.3804,467.48303 L 516.3804,466.67109 C 516.3804,464.88471 515.01875,463.58575 513.14474,463.58575 L 489.81025,463.58575"
         id="path4995"
         style="fill:#000000;fill-opacity:1;stroke:none" />
      <path
         d="M 282.17071,478.13846 C 279.1227,478.13846 276.63682,480.51197 276.63682,483.44763 L 276.63682,495.00266 C 276.63682,497.97575 279.03525,500.39913 281.98335,500.39913 L 289.45345,500.39913 C 292.40152,500.39913 294.81243,497.97575 294.81243,495.00266 L 294.81243,483.44763 C 294.81243,480.52445 292.32658,478.13846 289.27854,478.13846 L 282.17071,478.13846 z M 280.55927,494.55271 L 280.55927,484.00984 C 280.55927,482.77289 281.5711,481.76106 282.8078,481.76106 L 288.629,481.76106 C 289.84072,481.76106 290.87751,482.78567 290.87751,484.00984 L 290.87751,494.55271 C 290.87751,495.78968 289.86568,496.80148 288.629,496.80148 L 282.75781,496.80148 C 281.52113,496.80148 280.55927,495.8146 280.55927,494.55271"
         id="path4997"
         style="fill:#000000;fill-opacity:1;stroke:none" />
      <path
         d="M 311.75149,478.00128 C 309.59034,478.00128 307.97884,478.77583 306.66719,479.40036 C 305.88023,479.77485 305.19317,480.09975 304.65604,480.09975 C 304.43119,480.09975 304.2188,479.99997 304.10636,479.82506 L 303.61919,478.87558 C 303.50676,478.62584 303.00708,478.13846 302.38252,478.13846 L 301.658,478.13846 C 300.95843,478.13846 300.38381,478.76335 300.38381,479.55001 L 300.38381,508.84354 C 300.38381,509.75526 301.09585,510.4799 302.02026,510.4799 L 302.65732,510.4799 C 303.55675,510.4799 304.29378,509.74279 304.29378,508.84354 L 304.29378,499.12476 C 304.29378,498.83759 304.48113,498.53763 304.65604,498.53763 C 305.19317,498.53763 305.88023,498.83759 306.6797,499.21239 C 307.97884,499.79952 309.60282,500.54878 311.76396,500.54878 L 312.4384,500.54878 C 316.24841,500.54878 318.62189,498.3755 318.62189,494.87763 L 318.62189,483.69739 C 318.62189,480.24973 316.1985,478.01376 312.4384,478.01376 L 311.75149,478.01376 L 311.75149,478.01376 L 311.75149,478.00128 z M 304.28127,494.3279 L 304.28127,484.24712 C 304.28127,482.86053 305.36808,481.77354 306.75465,481.77354 L 312.20111,481.77354 C 313.58774,481.77354 314.67437,482.86053 314.67437,484.24712 L 314.67437,494.3279 C 314.67437,495.68957 313.57526,496.80148 312.20111,496.80148 L 306.75465,496.80148 C 305.39306,496.80148 304.28127,495.68957 304.28127,494.3279"
         id="path4999"
         style="fill:#000000;fill-opacity:1;stroke:none" />
      <path
         d="M 329.68954,478.13846 C 326.6416,478.13846 324.15586,480.51197 324.15586,483.44763 L 324.15586,494.91503 C 324.15586,497.88814 326.56677,500.41161 329.41482,500.41161 L 337.12245,500.41161 C 338.07157,500.41161 338.75881,499.76179 338.75881,498.86255 L 338.75881,498.36269 C 338.75881,497.46344 338.07157,496.81396 337.12245,496.81396 L 330.80145,496.81396 C 329.02758,496.81396 328.09058,495.95181 328.09058,494.29047 C 328.09058,494.29047 328.09058,491.40502 328.09058,490.94259 C 328.60288,490.94259 339.5084,490.94259 339.5084,490.94259 C 341.33218,490.94259 342.43128,489.81853 342.43128,487.9196 L 342.43128,483.47261 C 342.43128,480.54937 339.94555,478.16374 336.89764,478.16374 L 329.70231,478.16374 L 329.68954,478.13846 z M 328.0781,483.95963 C 328.0781,482.73546 329.04003,481.76106 330.27667,481.76106 L 336.28522,481.76106 C 337.52217,481.76106 338.48379,482.72299 338.48379,483.95963 C 338.48379,483.95963 338.48379,487.07023 338.48379,487.53235 C 337.99674,487.53235 328.56548,487.53235 328.0781,487.53235 C 328.0781,487.07023 328.0781,483.95963 328.0781,483.95963"
         id="path5001"
         style="fill:#000000;fill-opacity:1;stroke:none" />
      <path
         d="M 358.32108,478.00128 C 356.17241,478.00128 354.5485,478.76335 353.2492,479.38791 C 352.43723,479.76238 351.73784,480.09975 351.17566,480.09975 C 350.9259,480.09975 350.82582,480.07479 350.63841,479.73743 L 350.18878,478.91301 C 349.93902,478.40103 349.50187,478.13846 348.90226,478.13846 L 348.26493,478.13846 C 347.50319,478.13846 346.95346,478.72559 346.95346,479.55001 L 346.95346,498.76244 C 346.95346,499.67449 347.6778,500.41161 348.58982,500.41161 L 349.22685,500.41161 C 350.12643,500.41161 350.86322,499.67449 350.86322,498.76244 L 350.86322,484.22217 C 350.86322,482.86053 351.97513,481.74858 353.3368,481.74858 L 358.78318,481.74858 C 360.14485,481.74858 361.25644,482.86053 361.25644,484.22217 L 361.25644,498.76244 C 361.25644,499.67449 361.98107,500.41161 362.89313,500.41161 L 363.53016,500.41161 C 364.42941,500.41161 365.16653,499.67449 365.16653,498.76244 L 365.16653,483.68492 C 365.16653,480.23725 362.74314,478.00128 358.98304,478.00128 L 358.29613,478.00128"
         id="path5003"
         style="fill:#000000;fill-opacity:1;stroke:none" />
    </g>
    <g
       style="fill:#ffffff;fill-opacity:1;display:inline"
       id="g5501"
       transform="matrix(0.4832272,0,0,0.4832272,250.61704,178.05265)">
      <path
         style="fill:#ffffff;fill-opacity:1;stroke:none"
         id="path2095"
         d="M 525.54912,468.81976 L 525.38699,468.81976 C 525.19961,468.81976 525.03715,468.6573 525.03715,468.46991 L 525.03715,465.95923 L 524.48744,466.79612 C 524.42506,466.88343 524.31251,466.92083 524.21273,466.92083 L 524.15005,466.92083 C 524.05027,466.92083 523.93771,466.88343 523.87536,466.79612 L 523.31315,465.95923 L 523.31315,468.46991 C 523.31315,468.6573 523.15069,468.81976 522.95083,468.81976 L 522.7887,468.81976 C 522.60132,468.81976 522.43886,468.6573 522.43886,468.46991 L 522.43886,465.47188 L 520.75226,465.47188 L 520.75226,468.46991 C 520.75226,468.6573 520.57732,468.81976 520.37779,468.81976 L 520.22781,468.81976 C 520.0404,468.81976 519.87797,468.6573 519.87797,468.46991 L 519.87797,465.47188 L 518.61637,465.47188 C 518.42899,465.47188 518.279,465.34681 518.279,465.14725 L 518.279,464.97235 C 518.279,464.77249 518.42899,464.64743 518.61637,464.64743 L 523.03843,464.64743 C 523.21337,464.64743 523.32563,464.70981 523.38831,464.80989 L 524.2252,466.07148 L 525.0621,464.80989 C 525.12445,464.72228 525.22453,464.64743 525.41194,464.64743 L 525.97415,464.64743 L 525.97415,468.49487 C 525.97415,468.68225 525.79921,468.84471 525.59935,468.84471" />
      <path
         style="fill:#ffffff;fill-opacity:1;stroke:none"
         id="path2097"
         d="M 380.95621,463.5608 C 374.91023,463.5608 371.56235,468.68225 371.56235,472.22999 L 371.56235,476.77712 C 371.56235,481.9862 375.82195,485.22153 379.78195,485.22153 L 393.64778,485.22153 C 395.38422,485.22153 395.74654,486.35806 395.74654,487.31999 L 395.74654,490.25568 C 395.74654,490.56779 395.69667,493.39122 393.64778,493.39122 L 374.72285,493.39122 C 372.84887,493.39122 371.48752,494.69022 371.48752,496.47656 L 371.48752,497.28854 C 371.48752,499.06241 372.83639,500.37421 374.72285,500.37421 L 394.68483,500.37421 C 399.89392,500.37421 403.26675,496.75128 403.26675,491.13 L 403.26675,486.22085 C 403.26675,480.94912 399.46925,478.58842 395.70914,478.58842 L 382.06812,478.58842 C 380.00676,478.58842 379.08256,477.06428 379.08256,475.96517 L 379.08256,473.26677 C 379.08256,471.55558 380.2191,470.58118 382.21778,470.58118 L 397.33303,470.58118 C 399.18176,470.58118 400.56835,469.25693 400.56835,467.49551 L 400.56835,466.68357 C 400.56835,464.93462 399.1568,463.5982 397.27068,463.5982 L 380.98116,463.5982" />
      <path
         style="fill:#ffffff;fill-opacity:1;stroke:none"
         id="path2099"
         d="M 437.70666,463.5608 C 435.92031,463.5608 434.47133,465.00978 434.47133,466.79612 L 434.47133,490.03086 C 434.47133,491.87956 432.9597,493.37875 431.12345,493.37875 L 420.58025,493.37875 C 418.73155,493.37875 417.23233,491.87956 417.23233,490.03086 L 417.23233,466.79612 C 417.23233,465.00978 415.79586,463.5608 413.99704,463.5608 L 412.97273,463.5608 C 411.17391,463.5608 409.7374,464.98482 409.7374,466.79612 L 409.7374,490.91763 C 409.7374,496.52647 414.14702,500.59899 420.2304,500.59899 L 431.49824,500.59899 C 437.58162,500.59899 441.99121,496.52647 441.99121,490.91763 L 441.99121,466.79612 C 441.99121,464.98482 440.56722,463.5608 438.75592,463.5608 L 437.73161,463.5608" />
      <path
         style="fill:#ffffff;fill-opacity:1;stroke:none"
         id="path2101"
         d="M 457.90593,463.5608 C 451.85998,463.5608 448.5121,468.68225 448.5121,472.22999 L 448.5121,476.77712 C 448.5121,481.9862 452.78418,485.22153 456.73167,485.22153 L 470.5975,485.22153 C 472.33397,485.22153 472.70877,486.35806 472.70877,487.31999 L 472.70877,490.25568 C 472.70877,490.56779 472.64641,493.39122 470.5975,493.39122 L 451.6726,493.39122 C 449.79862,493.39122 448.43727,494.69022 448.43727,496.47656 L 448.43727,497.28854 C 448.43727,499.06241 449.79862,500.37421 451.6726,500.37421 L 471.62211,500.37421 C 476.84367,500.37421 480.2037,496.75128 480.2037,491.13 L 480.2037,486.22085 C 480.2037,480.94912 476.419,478.58842 472.64641,478.58842 L 459.00507,478.58842 C 456.94403,478.58842 456.01983,477.06428 456.01983,475.96517 L 456.01983,473.26677 C 456.01983,471.55558 457.15637,470.58118 459.14257,470.58118 L 474.25782,470.58118 C 476.09408,470.58118 477.49318,469.25693 477.49318,467.49551 L 477.49318,466.68357 C 477.49318,464.93462 476.0816,463.5982 474.1827,463.5982 L 457.90593,463.5982" />
      <path
         style="fill:#ffffff;fill-opacity:1;stroke:none"
         id="path2103"
         d="M 489.79745,463.5608 C 488.0114,463.5608 486.63725,464.88471 486.63725,466.64614 L 486.63725,497.28854 C 486.63725,499.03745 487.9612,500.37421 489.7351,500.37421 L 514.15658,500.37421 C 516.03056,500.37421 517.39223,499.07488 517.39223,497.28854 L 517.39223,496.47656 C 517.39223,494.70269 516.04303,493.39122 514.15658,493.39122 C 514.15658,493.39122 495.05674,493.39122 494.15716,493.39122 C 494.15716,492.59175 494.15716,486.38331 494.15716,485.58385 C 495.05674,485.58385 508.81031,485.58385 508.81031,485.58385 C 510.68396,485.58385 512.04564,484.28452 512.04564,482.4857 L 512.04564,481.68623 C 512.04564,479.89989 510.68396,478.58842 508.81031,478.58842 C 508.81031,478.58842 495.05674,478.58842 494.15716,478.58842 C 494.15716,477.78895 494.15716,471.36817 494.15716,470.56871 C 495.05674,470.56871 513.14474,470.56871 513.14474,470.56871 C 515.01875,470.56871 516.3804,469.26938 516.3804,467.48303 L 516.3804,466.67109 C 516.3804,464.88471 515.01875,463.58575 513.14474,463.58575 L 489.81025,463.58575" />
      <path
         style="fill:#ffffff;fill-opacity:1;stroke:none"
         id="path2105"
         d="M 282.17071,478.13846 C 279.1227,478.13846 276.63682,480.51197 276.63682,483.44763 L 276.63682,495.00266 C 276.63682,497.97575 279.03525,500.39913 281.98335,500.39913 L 289.45345,500.39913 C 292.40152,500.39913 294.81243,497.97575 294.81243,495.00266 L 294.81243,483.44763 C 294.81243,480.52445 292.32658,478.13846 289.27854,478.13846 L 282.17071,478.13846 z M 280.55927,494.55271 L 280.55927,484.00984 C 280.55927,482.77289 281.5711,481.76106 282.8078,481.76106 L 288.629,481.76106 C 289.84072,481.76106 290.87751,482.78567 290.87751,484.00984 L 290.87751,494.55271 C 290.87751,495.78968 289.86568,496.80148 288.629,496.80148 L 282.75781,496.80148 C 281.52113,496.80148 280.55927,495.8146 280.55927,494.55271" />
      <path
         style="fill:#ffffff;fill-opacity:1;stroke:none"
         id="path2107"
         d="M 311.75149,478.00128 C 309.59034,478.00128 307.97884,478.77583 306.66719,479.40036 C 305.88023,479.77485 305.19317,480.09975 304.65604,480.09975 C 304.43119,480.09975 304.2188,479.99997 304.10636,479.82506 L 303.61919,478.87558 C 303.50676,478.62584 303.00708,478.13846 302.38252,478.13846 L 301.658,478.13846 C 300.95843,478.13846 300.38381,478.76335 300.38381,479.55001 L 300.38381,508.84354 C 300.38381,509.75526 301.09585,510.4799 302.02026,510.4799 L 302.65732,510.4799 C 303.55675,510.4799 304.29378,509.74279 304.29378,508.84354 L 304.29378,499.12476 C 304.29378,498.83759 304.48113,498.53763 304.65604,498.53763 C 305.19317,498.53763 305.88023,498.83759 306.6797,499.21239 C 307.97884,499.79952 309.60282,500.54878 311.76396,500.54878 L 312.4384,500.54878 C 316.24841,500.54878 318.62189,498.3755 318.62189,494.87763 L 318.62189,483.69739 C 318.62189,480.24973 316.1985,478.01376 312.4384,478.01376 L 311.75149,478.01376 L 311.75149,478.01376 L 311.75149,478.00128 z M 304.28127,494.3279 L 304.28127,484.24712 C 304.28127,482.86053 305.36808,481.77354 306.75465,481.77354 L 312.20111,481.77354 C 313.58774,481.77354 314.67437,482.86053 314.67437,484.24712 L 314.67437,494.3279 C 314.67437,495.68957 313.57526,496.80148 312.20111,496.80148 L 306.75465,496.80148 C 305.39306,496.80148 304.28127,495.68957 304.28127,494.3279" />
      <path
         style="fill:#ffffff;fill-opacity:1;stroke:none"
         id="path2109"
         d="M 329.68954,478.13846 C 326.6416,478.13846 324.15586,480.51197 324.15586,483.44763 L 324.15586,494.91503 C 324.15586,497.88814 326.56677,500.41161 329.41482,500.41161 L 337.12245,500.41161 C 338.07157,500.41161 338.75881,499.76179 338.75881,498.86255 L 338.75881,498.36269 C 338.75881,497.46344 338.07157,496.81396 337.12245,496.81396 L 330.80145,496.81396 C 329.02758,496.81396 328.09058,495.95181 328.09058,494.29047 C 328.09058,494.29047 328.09058,491.40502 328.09058,490.94259 C 328.60288,490.94259 339.5084,490.94259 339.5084,490.94259 C 341.33218,490.94259 342.43128,489.81853 342.43128,487.9196 L 342.43128,483.47261 C 342.43128,480.54937 339.94555,478.16374 336.89764,478.16374 L 329.70231,478.16374 L 329.68954,478.13846 z M 328.0781,483.95963 C 328.0781,482.73546 329.04003,481.76106 330.27667,481.76106 L 336.28522,481.76106 C 337.52217,481.76106 338.48379,482.72299 338.48379,483.95963 C 338.48379,483.95963 338.48379,487.07023 338.48379,487.53235 C 337.99674,487.53235 328.56548,487.53235 328.0781,487.53235 C 328.0781,487.07023 328.0781,483.95963 328.0781,483.95963" />
      <path
         style="fill:#ffffff;fill-opacity:1;stroke:none"
         id="path2111"
         d="M 358.32108,478.00128 C 356.17241,478.00128 354.5485,478.76335 353.2492,479.38791 C 352.43723,479.76238 351.73784,480.09975 351.17566,480.09975 C 350.9259,480.09975 350.82582,480.07479 350.63841,479.73743 L 350.18878,478.91301 C 349.93902,478.40103 349.50187,478.13846 348.90226,478.13846 L 348.26493,478.13846 C 347.50319,478.13846 346.95346,478.72559 346.95346,479.55001 L 346.95346,498.76244 C 346.95346,499.67449 347.6778,500.41161 348.58982,500.41161 L 349.22685,500.41161 C 350.12643,500.41161 350.86322,499.67449 350.86322,498.76244 L 350.86322,484.22217 C 350.86322,482.86053 351.97513,481.74858 353.3368,481.74858 L 358.78318,481.74858 C 360.14485,481.74858 361.25644,482.86053 361.25644,484.22217 L 361.25644,498.76244 C 361.25644,499.67449 361.98107,500.41161 362.89313,500.41161 L 363.53016,500.41161 C 364.42941,500.41161 365.16653,499.67449 365.16653,498.76244 L 365.16653,483.68492 C 365.16653,480.23725 362.74314,478.00128 358.98304,478.00128 L 358.29613,478.00128" />
    </g>
  </g>
</svg>
