<?xml version="1.0" encoding="UTF-8" standalone="no"?>
<!-- Created with Inkscape (http://www.inkscape.org/) -->

<svg
   xmlns:dc="http://purl.org/dc/elements/1.1/"
   xmlns:cc="http://creativecommons.org/ns#"
   xmlns:rdf="http://www.w3.org/1999/02/22-rdf-syntax-ns#"
   xmlns:svg="http://www.w3.org/2000/svg"
   xmlns="http://www.w3.org/2000/svg"
   xmlns:xlink="http://www.w3.org/1999/xlink"
   xmlns:sodipodi="http://sodipodi.sourceforge.net/DTD/sodipodi-0.dtd"
   xmlns:inkscape="http://www.inkscape.org/namespaces/inkscape"
   width="125"
   height="125"
   id="svg4087"
   version="1.1"
   inkscape:version="0.46+devel"
   sodipodi:docname="336x280.svg"
   inkscape:export-filename="/home/jimmac/gfx/novell/products/openSUSE11/web-banner/other-sizes/banner/728x90.png"
   inkscape:export-xdpi="90"
   inkscape:export-ydpi="90">
  <defs
     id="defs4089">
    <inkscape:path-effect
       fuse_tolerance="0"
       vertical_pattern="false"
       prop_units="false"
       tang_offset="0"
       normal_offset="0"
       spacing="0"
       scale_y_rel="false"
       prop_scale="0.5"
       copytype="single_stretched"
       pattern="m 0,13.320848 c 0,0 10.63472,-14.2062633 53.82708,-19.9343953 C 97.01944,-12.341679 150.76944,1.4083217 185,3.320848 c 43.07856,2.406881 55,5 55,5 0,0 -81.00879,-2.120527 -125,-3 -66.70665,-1.3336 -115,8 -115,8 z"
       is_visible="true"
       id="path-effect6636"
       effect="skeletal" />
    <inkscape:path-effect
       fuse_tolerance="0"
       vertical_pattern="false"
       prop_units="false"
       tang_offset="0"
       normal_offset="0"
       spacing="0"
       scale_y_rel="false"
       prop_scale="0.8"
       copytype="single_stretched"
       pattern="m 0,21.320848 c 0,0 10.63472,-14.2062633 53.82708,-19.9343953 43.19236,-5.728132 96.94236,8.021869 131.17292,9.9343953 43.07856,2.406881 55,5 55,5 0,0 -81.00879,-2.120527 -125,-3 -66.70665,-1.3336 -115,8 -115,8 z"
       is_visible="true"
       id="path-effect6630"
       effect="skeletal" />
    <inkscape:path-effect
       effect="spiro"
       id="path-effect6628"
       is_visible="true" />
    <inkscape:path-effect
       fuse_tolerance="0"
       vertical_pattern="false"
       prop_units="false"
       tang_offset="0"
       normal_offset="0"
       spacing="0"
       scale_y_rel="false"
       prop_scale="1"
       copytype="single_stretched"
       pattern="m -34,781.32085 c 0,0 10.63472,-14.20627 53.82708,-19.9344 43.19236,-5.72813 96.94236,8.02187 131.17292,9.9344 43.07856,2.40688 55,5 55,5 0,0 -81.00879,-2.12053 -125,-3 -66.70665,-1.3336 -115,8 -115,8 z"
       is_visible="true"
       id="path-effect6625"
       effect="skeletal" />
    <inkscape:path-effect
       effect="spiro"
       id="path-effect6623"
       is_visible="true" />
    <inkscape:path-effect
       fuse_tolerance="0"
       vertical_pattern="false"
       prop_units="false"
       tang_offset="0"
       normal_offset="0"
       spacing="0"
       scale_y_rel="false"
       prop_scale="1"
       copytype="single_stretched"
       pattern="m 0,21.320848 c 0,0 10.63472,-14.2062633 53.82708,-19.9343953 43.19236,-5.728132 96.94236,8.021869 131.17292,9.9343953 43.07856,2.406881 55,5 55,5 0,0 -81.00879,-2.120527 -125,-3 -66.70665,-1.3336 -115,8 -115,8 z"
       is_visible="true"
       id="path-effect6620"
       effect="skeletal" />
    <inkscape:path-effect
       is_visible="true"
       id="path-effect6618"
       effect="spiro" />
    <inkscape:path-effect
       is_visible="true"
       id="path-effect6615"
       effect="spiro" />
    <inkscape:path-effect
       is_visible="true"
       id="path-effect6603"
       effect="spiro" />
    <inkscape:perspective
       sodipodi:type="inkscape:persp3d"
       inkscape:vp_x="0 : 526.18109 : 1"
       inkscape:vp_y="0 : 1000 : 0"
       inkscape:vp_z="744.09448 : 526.18109 : 1"
       inkscape:persp3d-origin="372.04724 : 350.78739 : 1"
       id="perspective4095" />
    <inkscape:perspective
       id="perspective5381"
       inkscape:persp3d-origin="0.5 : 0.33333333 : 1"
       inkscape:vp_z="1 : 0.5 : 1"
       inkscape:vp_y="0 : 1000 : 0"
       inkscape:vp_x="0 : 0.5 : 1"
       sodipodi:type="inkscape:persp3d" />
    <radialGradient
       r="408.5"
       fy="502.04016"
       fx="395.21265"
       cy="184.33719"
       cx="387.11127"
       gradientTransform="matrix(1.0379133,0,0,0.79399732,-16.676648,-386.4227)"
       gradientUnits="userSpaceOnUse"
       id="radialGradient5218"
       xlink:href="#linearGradient4591"
       inkscape:collect="always" />
    <linearGradient
       inkscape:collect="always"
       id="linearGradient4591">
      <stop
         style="stop-color:#4a5d37;stop-opacity:1"
         offset="0"
         id="stop4593" />
      <stop
         style="stop-color:#303030;stop-opacity:1"
         offset="1"
         id="stop4595" />
    </linearGradient>
    <radialGradient
       r="408.5"
       fy="459.71243"
       fx="449.81339"
       cy="142.00943"
       cx="441.71191"
       gradientTransform="matrix(0.17539148,0,0,0.23461172,-16.042478,-1040.2516)"
       gradientUnits="userSpaceOnUse"
       id="radialGradient5390"
       xlink:href="#linearGradient4591"
       inkscape:collect="always" />
    <inkscape:perspective
       id="perspective5419"
       inkscape:persp3d-origin="0.5 : 0.33333333 : 1"
       inkscape:vp_z="1 : 0.5 : 1"
       inkscape:vp_y="0 : 1000 : 0"
       inkscape:vp_x="0 : 0.5 : 1"
       sodipodi:type="inkscape:persp3d" />
    <linearGradient
       inkscape:collect="always"
       id="linearGradient14415">
      <stop
         style="stop-color:#000000;stop-opacity:1;"
         offset="0"
         id="stop14417" />
      <stop
         style="stop-color:#000000;stop-opacity:0;"
         offset="1"
         id="stop14419" />
    </linearGradient>
    <linearGradient
       inkscape:collect="always"
       xlink:href="#linearGradient14415"
       id="linearGradient14445"
       gradientUnits="userSpaceOnUse"
       x1="72.796036"
       y1="154.00002"
       x2="558.07391"
       y2="154.00002" />
    <inkscape:perspective
       id="perspective5683"
       inkscape:persp3d-origin="0.5 : 0.33333333 : 1"
       inkscape:vp_z="1 : 0.5 : 1"
       inkscape:vp_y="0 : 1000 : 0"
       inkscape:vp_x="0 : 0.5 : 1"
       sodipodi:type="inkscape:persp3d" />
    <inkscape:path-effect
       is_visible="true"
       id="path-effect8530"
       effect="spiro" />
    <inkscape:path-effect
       effect="skeletal"
       id="path-effect8581"
       is_visible="true"
       pattern="m 0,21.320848 c 0,0 10.63472,-14.2062633 53.82708,-19.9343953 43.19236,-5.728132 96.94236,8.021869 131.17292,9.9343953 43.07856,2.406881 55,5 55,5 0,0 -81.00879,-2.120527 -125,-3 -66.70665,-1.3336 -115,8 -115,8 z"
       copytype="single_stretched"
       prop_scale="0.8"
       scale_y_rel="false"
       spacing="0"
       normal_offset="0"
       tang_offset="0"
       prop_units="false"
       vertical_pattern="false"
       fuse_tolerance="0" />
    <inkscape:path-effect
       is_visible="true"
       id="path-effect8532"
       effect="spiro" />
    <inkscape:path-effect
       effect="skeletal"
       id="path-effect8666"
       is_visible="true"
       pattern="m -34,781.32085 c 0,0 10.63472,-14.20627 53.82708,-19.9344 43.19236,-5.72813 96.94236,8.02187 131.17292,9.9344 43.07856,2.40688 55,5 55,5 0,0 -81.00879,-2.12053 -125,-3 -66.70665,-1.3336 -115,8 -115,8 z"
       copytype="single_stretched"
       prop_scale="1"
       scale_y_rel="false"
       spacing="0"
       normal_offset="0"
       tang_offset="0"
       prop_units="false"
       vertical_pattern="false"
       fuse_tolerance="0" />
    <inkscape:path-effect
       effect="spiro"
       id="path-effect8524"
       is_visible="true" />
    <inkscape:path-effect
       effect="skeletal"
       id="path-effect8697"
       is_visible="true"
       pattern="m 0,21.320848 c 0,0 10.63472,-14.2062633 53.82708,-19.9343953 43.19236,-5.728132 96.94236,8.021869 131.17292,9.9343953 43.07856,2.406881 55,5 55,5 0,0 -81.00879,-2.120527 -125,-3 -66.70665,-1.3336 -115,8 -115,8 z"
       copytype="single_stretched"
       prop_scale="1"
       scale_y_rel="false"
       spacing="0"
       normal_offset="0"
       tang_offset="0"
       prop_units="false"
       vertical_pattern="false"
       fuse_tolerance="0" />
    <inkscape:path-effect
       effect="spiro"
       id="path-effect5693"
       is_visible="true" />
    <inkscape:path-effect
       effect="skeletal"
       id="path-effect8706"
       is_visible="true"
       pattern="m 0,21.320848 c 0,0 10.63472,-14.2062633 53.82708,-19.9343953 43.19236,-5.728132 96.94236,8.021869 131.17292,9.9343953 43.07856,2.406881 55,5 55,5 0,0 -81.00879,-2.120527 -125,-3 -66.70665,-1.3336 -115,8 -115,8 z"
       copytype="single_stretched"
       prop_scale="1"
       scale_y_rel="false"
       spacing="0"
       normal_offset="0"
       tang_offset="0"
       prop_units="false"
       vertical_pattern="false"
       fuse_tolerance="0" />
    <inkscape:path-effect
       is_visible="true"
       id="path-effect8775"
       effect="spiro" />
    <inkscape:path-effect
       effect="skeletal"
       id="path-effect8715"
       is_visible="true"
       pattern="m 25,8.320848 c 0,0 10.63472,-14.2062633 53.82708,-19.934395 43.19236,-5.728132 96.94236,8.0218687 131.17292,9.934395 43.07856,2.406881 55,5 55,5 0,0 -81.00879,-2.120527 -125,-3 -66.70665,-1.3336 -115,8 -115,8 z"
       copytype="single_stretched"
       prop_scale="1"
       scale_y_rel="false"
       spacing="0"
       normal_offset="0"
       tang_offset="0"
       prop_units="false"
       vertical_pattern="false"
       fuse_tolerance="0" />
    <inkscape:path-effect
       effect="spiro"
       id="path-effect456"
       is_visible="true" />
    <inkscape:path-effect
       effect="spiro"
       id="path-effect1232"
       is_visible="true" />
    <inkscape:path-effect
       effect="skeletal"
       id="path-effect1247"
       is_visible="true"
       pattern="m -695,20.320848 c 0,0 10.63472,-14.2062633 53.82708,-19.9343953 43.19236,-5.7281317 96.94236,8.021869 131.17292,9.9343953 43.07856,2.406881 55,5 55,5 0,0 -81.00879,-2.120527 -125,-3 -66.70665,-1.3336 -115,8 -115,8 z"
       copytype="single_stretched"
       prop_scale="0.5"
       scale_y_rel="false"
       spacing="0"
       normal_offset="0"
       tang_offset="0"
       prop_units="false"
       vertical_pattern="false"
       fuse_tolerance="0" />
    <inkscape:path-effect
       effect="spiro"
       id="path-effect8459"
       is_visible="true" />
    <inkscape:path-effect
       effect="skeletal"
       id="path-effect8461"
       is_visible="true"
       pattern="m 15,-64 c 0,0 10.63472,-14.206263 53.82708,-19.934395 C 112.01944,-89.662527 165.76944,-75.912526 200,-74 c 43.07856,2.406881 55,5 55,5 0,0 -81.00879,-2.120527 -125,-3 -66.70665,-1.3336 -115,8 -115,8 z"
       copytype="single_stretched"
       prop_scale="1"
       scale_y_rel="false"
       spacing="0"
       normal_offset="0"
       tang_offset="0"
       prop_units="false"
       vertical_pattern="false"
       fuse_tolerance="0" />
    <inkscape:perspective
       id="perspective5810"
       inkscape:persp3d-origin="0.5 : 0.33333333 : 1"
       inkscape:vp_z="1 : 0.5 : 1"
       inkscape:vp_y="0 : 1000 : 0"
       inkscape:vp_x="0 : 0.5 : 1"
       sodipodi:type="inkscape:persp3d" />
    <inkscape:path-effect
       is_visible="true"
       id="path-effect8530-3"
       effect="spiro" />
    <inkscape:path-effect
       effect="skeletal"
       id="path-effect8581-6"
       is_visible="true"
       pattern="m 0,21.320848 c 0,0 10.63472,-14.2062633 53.82708,-19.9343953 43.19236,-5.728132 96.94236,8.021869 131.17292,9.9343953 43.07856,2.406881 55,5 55,5 0,0 -81.00879,-2.120527 -125,-3 -66.70665,-1.3336 -115,8 -115,8 z"
       copytype="single_stretched"
       prop_scale="0.8"
       scale_y_rel="false"
       spacing="0"
       normal_offset="0"
       tang_offset="0"
       prop_units="false"
       vertical_pattern="false"
       fuse_tolerance="0" />
    <inkscape:path-effect
       is_visible="true"
       id="path-effect8532-0"
       effect="spiro" />
    <inkscape:path-effect
       effect="skeletal"
       id="path-effect8666-6"
       is_visible="true"
       pattern="m -34,781.32085 c 0,0 10.63472,-14.20627 53.82708,-19.9344 43.19236,-5.72813 96.94236,8.02187 131.17292,9.9344 43.07856,2.40688 55,5 55,5 0,0 -81.00879,-2.12053 -125,-3 -66.70665,-1.3336 -115,8 -115,8 z"
       copytype="single_stretched"
       prop_scale="1"
       scale_y_rel="false"
       spacing="0"
       normal_offset="0"
       tang_offset="0"
       prop_units="false"
       vertical_pattern="false"
       fuse_tolerance="0" />
    <inkscape:path-effect
       effect="spiro"
       id="path-effect8524-2"
       is_visible="true" />
    <inkscape:path-effect
       effect="skeletal"
       id="path-effect8697-6"
       is_visible="true"
       pattern="m 0,21.320848 c 0,0 10.63472,-14.2062633 53.82708,-19.9343953 43.19236,-5.728132 96.94236,8.021869 131.17292,9.9343953 43.07856,2.406881 55,5 55,5 0,0 -81.00879,-2.120527 -125,-3 -66.70665,-1.3336 -115,8 -115,8 z"
       copytype="single_stretched"
       prop_scale="1"
       scale_y_rel="false"
       spacing="0"
       normal_offset="0"
       tang_offset="0"
       prop_units="false"
       vertical_pattern="false"
       fuse_tolerance="0" />
    <inkscape:path-effect
       effect="spiro"
       id="path-effect5820"
       is_visible="true" />
    <inkscape:path-effect
       effect="skeletal"
       id="path-effect8706-9"
       is_visible="true"
       pattern="m 0,21.320848 c 0,0 10.63472,-14.2062633 53.82708,-19.9343953 43.19236,-5.728132 96.94236,8.021869 131.17292,9.9343953 43.07856,2.406881 55,5 55,5 0,0 -81.00879,-2.120527 -125,-3 -66.70665,-1.3336 -115,8 -115,8 z"
       copytype="single_stretched"
       prop_scale="1"
       scale_y_rel="false"
       spacing="0"
       normal_offset="0"
       tang_offset="0"
       prop_units="false"
       vertical_pattern="false"
       fuse_tolerance="0" />
    <inkscape:path-effect
       is_visible="true"
       id="path-effect8775-9"
       effect="spiro" />
    <inkscape:path-effect
       effect="skeletal"
       id="path-effect8715-9"
       is_visible="true"
       pattern="m 25,8.320848 c 0,0 10.63472,-14.2062633 53.82708,-19.934395 43.19236,-5.728132 96.94236,8.0218687 131.17292,9.934395 43.07856,2.406881 55,5 55,5 0,0 -81.00879,-2.120527 -125,-3 -66.70665,-1.3336 -115,8 -115,8 z"
       copytype="single_stretched"
       prop_scale="1"
       scale_y_rel="false"
       spacing="0"
       normal_offset="0"
       tang_offset="0"
       prop_units="false"
       vertical_pattern="false"
       fuse_tolerance="0" />
    <inkscape:path-effect
       effect="spiro"
       id="path-effect456-3"
       is_visible="true" />
    <inkscape:path-effect
       effect="spiro"
       id="path-effect1232-7"
       is_visible="true" />
    <inkscape:path-effect
       effect="skeletal"
       id="path-effect1247-2"
       is_visible="true"
       pattern="m 0,13.320848 c 0,0 10.63472,-14.2062633 53.82708,-19.9343953 C 97.01944,-12.341679 150.76944,1.4083217 185,3.320848 c 43.07856,2.406881 55,5 55,5 0,0 -81.00879,-2.120527 -125,-3 -66.70665,-1.3336 -115,8 -115,8 z"
       copytype="single_stretched"
       prop_scale="0.5"
       scale_y_rel="false"
       spacing="0"
       normal_offset="0"
       tang_offset="0"
       prop_units="false"
       vertical_pattern="false"
       fuse_tolerance="0" />
    <inkscape:path-effect
       effect="spiro"
       id="path-effect8459-4"
       is_visible="true" />
    <inkscape:path-effect
       effect="skeletal"
       id="path-effect8461-6"
       is_visible="true"
       pattern="m 15,-64 c 0,0 10.63472,-14.206263 53.82708,-19.934395 C 112.01944,-89.662527 165.76944,-75.912526 200,-74 c 43.07856,2.406881 55,5 55,5 0,0 -81.00879,-2.120527 -125,-3 -66.70665,-1.3336 -115,8 -115,8 z"
       copytype="single_stretched"
       prop_scale="1"
       scale_y_rel="false"
       spacing="0"
       normal_offset="0"
       tang_offset="0"
       prop_units="false"
       vertical_pattern="false"
       fuse_tolerance="0" />
    <inkscape:perspective
       id="perspective6700"
       inkscape:persp3d-origin="0.5 : 0.33333333 : 1"
       inkscape:vp_z="1 : 0.5 : 1"
       inkscape:vp_y="0 : 1000 : 0"
       inkscape:vp_x="0 : 0.5 : 1"
       sodipodi:type="inkscape:persp3d" />
    <inkscape:path-effect
       is_visible="true"
       id="path-effect6615-6"
       effect="spiro" />
    <inkscape:path-effect
       effect="skeletal"
       id="path-effect8706-7"
       is_visible="true"
       pattern="m 0,21.320848 c 0,0 10.63472,-14.2062633 53.82708,-19.9343953 43.19236,-5.728132 96.94236,8.021869 131.17292,9.9343953 43.07856,2.406881 55,5 55,5 0,0 -81.00879,-2.120527 -125,-3 -66.70665,-1.3336 -115,8 -115,8 z"
       copytype="single_stretched"
       prop_scale="1"
       scale_y_rel="false"
       spacing="0"
       normal_offset="0"
       tang_offset="0"
       prop_units="false"
       vertical_pattern="false"
       fuse_tolerance="0" />
    <inkscape:path-effect
       is_visible="true"
       id="path-effect6603-3"
       effect="spiro" />
    <inkscape:path-effect
       fuse_tolerance="0"
       vertical_pattern="false"
       prop_units="false"
       tang_offset="0"
       normal_offset="0"
       spacing="0"
       scale_y_rel="false"
       prop_scale="0.5"
       copytype="single_stretched"
       pattern="m 0,13.320848 c 0,0 10.63472,-14.2062633 53.82708,-19.9343953 C 97.01944,-12.341679 150.76944,1.4083217 185,3.320848 c 43.07856,2.406881 55,5 55,5 0,0 -81.00879,-2.120527 -125,-3 -66.70665,-1.3336 -115,8 -115,8 z"
       is_visible="true"
       id="path-effect6636-0"
       effect="skeletal" />
  </defs>
  <sodipodi:namedview
     id="base"
     pagecolor="#ffffff"
     bordercolor="#666666"
     borderopacity="1.0"
     inkscape:pageopacity="0.0"
     inkscape:pageshadow="2"
     inkscape:zoom="1"
     inkscape:cx="87.534288"
     inkscape:cy="37.275728"
     inkscape:document-units="px"
     inkscape:current-layer="layer1"
     showgrid="false"
     borderlayer="true"
     inkscape:showpageshadow="false"
     inkscape:window-width="1077"
     inkscape:window-height="660"
     inkscape:window-x="1700"
     inkscape:window-y="278"
     inkscape:window-maximized="0"
     inkscape:snap-nodes="false">
    <inkscape:grid
       type="xygrid"
       id="grid6655"
       empspacing="5"
       visible="true"
       enabled="true"
       snapvisiblegridlinesonly="true" />
  </sodipodi:namedview>
  <metadata
     id="metadata4092">
    <rdf:RDF>
      <cc:Work
         rdf:about="">
        <dc:format>image/svg+xml</dc:format>
        <dc:type
           rdf:resource="http://purl.org/dc/dcmitype/StillImage" />
        <dc:title></dc:title>
      </cc:Work>
    </rdf:RDF>
  </metadata>
  <g
     inkscape:label="Layer 1"
     inkscape:groupmode="layer"
     id="layer1"
     transform="translate(0,-927.36218)">
    <rect
       style="color:#000000;fill:url(#radialGradient5390);fill-opacity:1;fill-rule:nonzero;stroke:none;stroke-width:5;marker:none;visibility:visible;display:inline;overflow:visible;filter:url(#filter9012);enable-background:accumulate"
       id="rect4589"
       width="139.04691"
       height="132.0825"
       x="-9.1005058"
       y="-1056.7827"
       transform="scale(1,-1)" />
    <g
       id="layer1-7"
       inkscape:label="Layer 1"
       transform="matrix(0.16547551,0,0,0.16547551,76.327474,933.7995)"
       style="fill:#eeeeec;fill-opacity:1">
      <g
         id="g6408"
         style="fill:#eeeeec;fill-opacity:1"
         transform="translate(-140.22588,0)">
        <path
           id="path1977"
           d="m 290.12328,115.07966 c -5.46064,-0.20052 -9.74704,-4.80372 -9.56466,-10.27218 0.0841,-2.64754 1.21583,-5.0947 3.13905,-6.90149 1.93101,-1.80627 4.45313,-2.74648 7.10068,-2.64688 5.46845,0.19137 9.75604,4.7869 9.57234,10.2637 -0.0828,2.6392 -1.19901,5.08622 -3.13004,6.90083 -1.94002,1.79845 -4.46215,2.7388 -7.11751,2.65602 l 1.4e-4,0 z m 2.2983,-8.98258 c 2.43032,0 4.40267,-1.31476 4.40267,-2.92951 0,-1.62323 -1.97247,-2.93866 -4.40267,-2.93866 -2.43154,0 -4.3962,1.31543 -4.3962,2.93866 0,1.61475 1.96466,2.92951 4.3962,2.92951"
           style="fill:#eeeeec;fill-opacity:1;fill-rule:nonzero;stroke:none" />
        <path
           id="path1979"
           d="m 177.77915,172.0346 0.35143,-0.033 0.057,-0.41614 c -0.09,-0.32674 -0.30193,-0.62036 -0.62933,-4.67085 -0.2779,-3.58485 -0.84123,-13.41571 4.10688,-18.29079 1.91955,-1.90255 4.85041,-3.59305 7.16205,-4.13988 9.48006,-2.311 21.7856,-0.71053 32.29451,11.44029 5.42256,6.27899 8.08447,9.14514 9.41536,10.42718 l 0.4568,0.42444 0.55566,0.40029 c 0.43263,0.24489 18.06175,8.36159 18.06175,8.36159 l 0.3591,-0.09 0.009,-0.38313 c -0.11419,-0.1307 -11.17005,-14.41297 -9.211,-26.17923 1.55162,-9.37406 9.01444,-8.53296 19.32807,-7.35745 3.3723,0.38378 7.21025,0.82473 11.17889,0.91476 11.0799,0.0654 23.01883,-1.96775 30.37628,-5.18533 4.76036,-2.08196 7.79775,-3.45417 9.7008,-5.18534 0.68506,-0.56333 1.04416,-1.49393 1.41208,-2.47405 l 0.25374,-0.66103 c 0.30959,-0.79237 0.75873,-2.49055 0.95543,-3.41349 0.09,-0.40795 0.13068,-0.84941 -0.15604,-1.0695 l -1.02013,0.18774 c -3.22511,1.9354 -11.30192,5.62627 -18.86243,5.77335 -9.36588,0.19539 -28.24469,-9.42356 -30.21258,-10.44433 l -0.18774,-0.22009 c -0.47445,-1.1273 -3.3076,-7.83127 -3.90392,-9.24336 13.58824,8.94909 24.85586,13.89785 33.48717,14.6654 9.6031,0.85708 17.09125,-4.38477 20.2922,-6.62289 0.62803,-0.42444 1.10249,-0.76755 1.29789,-0.84057 l 0.20423,-0.33493 c -0.53162,-3.37231 -5.55327,-19.70354 -9.34169,-23.62333 -1.05301,-1.07781 -1.89423,-2.12262 -3.59305,-3.11923 -13.72648,-8.001978 -46.3154,-12.83653 -47.8417,-13.056617 l -0.26139,0.07353 -0.0977,0.228399 c 0,0 -0.12302,6.761123 -0.13954,7.512835 -3.33177,-1.110809 -27.52531,-8.925574 -50.2105,-9.717299 -19.22893,-0.677658 -45.49818,-1.592418 -82.61907,21.22216 l -1.09431,0.68571 c -17.45789,10.892822 -29.510359,24.317372 -35.814037,39.929872 -1.97607,4.90744 -4.637854,15.98864 -2.00907,26.41582 1.143159,4.56497 3.258113,9.13748 6.116594,13.23681 6.442691,9.25934 17.261843,15.40894 28.914033,16.44543 16.44542,1.46925 28.90636,-5.9199 33.33998,-19.75304 3.04556,-9.54541 0,-23.54914 -11.67688,-30.69405 -9.49657,-5.8222 -19.72003,-4.4913 -25.64006,-0.57982 -5.14415,3.41297 -8.05901,8.70419 -8.00198,14.52651 0.1142,10.31299 9.00678,15.80025 15.39243,15.80856 1.86122,0 3.72309,-0.31843 5.82986,-1.00414 0.74353,-0.22905 1.45341,-0.50617 2.22916,-0.9883 l 0.23723,-0.15473 0.15473,-0.09 -0.057,0.0247 c 1.46159,-0.98011 2.34335,-2.59644 2.34335,-4.32774 0,-0.47381 -0.0735,-0.95542 -0.20423,-1.43742 -0.75107,-2.60474 -3.33178,-4.18873 -6.01006,-3.69906 l -0.3591,0.0735 -0.4898,0.16305 -0.71052,0.23723 c -1.46978,0.36729 -2.58059,0.39211 -2.80898,0.39964 -0.75107,-0.0489 -4.43428,-1.15069 -4.43428,-5.18469 l 0,-0.0488 c 0.009,-1.4781 0.60452,-2.51524 0.93126,-3.07857 1.13485,-1.79652 4.27058,-3.56005 8.50815,-3.18458 5.55326,0.47329 9.55425,3.32347 12.20785,8.69653 2.46639,4.99695 1.82134,11.13771 -1.65763,15.64487 -3.45417,4.46727 -9.60246,6.36149 -17.78464,5.47076 -8.2474,-0.90593 -15.22042,-5.65032 -19.123707,-13.04011 -3.821442,-7.21857 -4.03399,-15.7844 -0.54683,-22.36532 8.353417,-15.75972 24.120657,-15.59667 32.768467,-14.10208 12.80353,2.21266 24.42324,12.46028 29.59208,26.0892 0.82472,2.17211 1.24904,3.89497 1.61632,5.46258 l 0.55566,2.35985 14.46053,7.06305 0.19669,0.13888 3.9e-4,-1.3e-4 z M 280.56753,95.11467 c -2.72649,2.53108 -4.28708,5.98525 -4.41778,9.70899 -0.25242,7.67524 5.774,14.14261 13.44872,14.42882 3.74025,0.12238 7.28378,-1.19266 10.00273,-3.74024 2.71895,-2.53941 4.27942,-5.98525 4.41777,-9.70081 0.2614,-7.68354 -5.76515,-14.1591 -13.45624,-14.43636 -3.72374,-0.12237 -7.27625,1.19202 -9.9952,3.7396"
           style="fill:#eeeeec;fill-opacity:1;fill-rule:evenodd;stroke:none" />
        <path
           style="fill:#eeeeec;fill-opacity:1;stroke:none"
           d="m 176.72658,185.83248 c -6.02344,0 -9.35885,5.10236 -9.35885,8.6369 l 0,4.53017 c 0,5.18966 4.24374,8.41293 8.18895,8.41293 l 13.81415,0 c 1.72999,0 2.09096,1.1323 2.09096,2.09063 l 0,2.92474 c 0,0.31096 -0.0497,3.12388 -2.09096,3.12388 l -18.85438,0 c -1.867,0 -3.22327,1.29415 -3.22327,3.07383 l 0,0.80894 c 0,1.76726 1.34385,3.07416 3.22327,3.07416 l 19.88759,0 c 5.18966,0 8.54993,-3.60941 8.54993,-9.20975 l 0,-4.89082 c 0,-5.2521 -3.78337,-7.604 -7.52945,-7.604 l -13.59017,0 c -2.05369,0 -2.97444,-1.51845 -2.97444,-2.61348 l 0,-2.68833 c 0,-1.70482 1.1323,-2.67559 3.12354,-2.67559 l 15.0589,0 c 1.84184,0 3.22328,-1.31931 3.22328,-3.07416 l 0,-0.80893 c 0,-1.74241 -1.4063,-3.07385 -3.28539,-3.07385 l -16.22881,0"
           id="path2097" />
        <path
           style="fill:#eeeeec;fill-opacity:1;stroke:none"
           d="m 233.2655,185.83248 c -1.7797,0 -3.22326,1.44357 -3.22326,3.22326 l 0,23.14815 c 0,1.84181 -1.50601,3.33541 -3.33542,3.33541 l -10.50389,0 c -1.84183,0 -3.33543,-1.4936 -3.33543,-3.33541 l 0,-23.14815 c 0,-1.77969 -1.43113,-3.22326 -3.22326,-3.22326 l -1.02047,0 c -1.79212,0 -3.22327,1.41872 -3.22327,3.22326 l 0,24.03162 c 0,5.58792 4.39317,9.64527 10.45388,9.64527 l 11.22584,0 c 6.06071,0 10.45387,-4.05735 10.45387,-9.64527 l 0,-24.03162 c 0,-1.80454 -1.41871,-3.22326 -3.22326,-3.22326 l -1.02048,0"
           id="path2099" />
        <path
           style="fill:#eeeeec;fill-opacity:1;stroke:none"
           d="m 253.38949,185.83248 c -6.02342,0 -9.35884,5.10236 -9.35884,8.6369 l 0,4.53017 c 0,5.18966 4.25617,8.41293 8.18895,8.41293 l 13.81414,0 c 1.73,0 2.1034,1.1323 2.1034,2.09063 l 0,2.92474 c 0,0.31096 -0.0621,3.12388 -2.1034,3.12388 l -18.85437,0 c -1.86699,0 -3.22327,1.29415 -3.22327,3.07383 l 0,0.80894 c 0,1.76726 1.35628,3.07416 3.22327,3.07416 l 19.87516,0 c 5.20209,0 8.54961,-3.60941 8.54961,-9.20975 l 0,-4.89082 c 0,-5.2521 -3.77061,-7.604 -7.52914,-7.604 l -13.59048,0 c -2.05337,0 -2.97412,-1.51845 -2.97412,-2.61348 l 0,-2.68833 c 0,-1.70482 1.1323,-2.67559 3.11112,-2.67559 l 15.05891,0 c 1.8294,0 3.22327,-1.31931 3.22327,-3.07416 l 0,-0.80893 c 0,-1.74241 -1.4063,-3.07385 -3.29813,-3.07385 l -16.21608,0"
           id="path2101" />
        <path
           style="fill:#eeeeec;fill-opacity:1;stroke:none"
           d="m 285.16212,185.83248 c -1.77938,0 -3.1484,1.319 -3.1484,3.07383 l 0,30.52819 c 0,1.74241 1.319,3.07416 3.08627,3.07416 l 24.33046,0 c 1.86699,0 3.22359,-1.29447 3.22359,-3.07416 l 0,-0.80894 c 0,-1.76726 -1.34417,-3.07383 -3.22359,-3.07383 0,0 -19.02865,0 -19.92487,0 0,-0.7965 0,-6.98179 0,-7.77829 0.89622,0 14.59854,0 14.59854,0 1.86667,0 3.22326,-1.29446 3.22326,-3.08659 l 0,-0.79649 c 0,-1.7797 -1.35659,-3.08627 -3.22326,-3.08627 0,0 -13.70232,0 -14.59854,0 0,-0.79649 0,-7.19334 0,-7.98983 0.89622,0 18.91682,0 18.91682,0 1.867,0 3.22359,-1.29446 3.22359,-3.07416 l 0,-0.80892 c 0,-1.7797 -1.35659,-3.07384 -3.22359,-3.07384 l -23.24753,0"
           id="path2103" />
        <path
           style="fill:#eeeeec;fill-opacity:1;stroke:none"
           d="m 78.309297,200.35583 c -3.036651,0 -5.513263,2.36463 -5.513263,5.28937 l 0,11.51195 c 0,2.96201 2.389494,5.37636 5.326597,5.37636 l 7.442252,0 c 2.937103,0 5.33902,-2.41435 5.33902,-5.37636 l 0,-11.51195 c 0,-2.91231 -2.476599,-5.28937 -5.513261,-5.28937 l -7.081345,0 z m -1.605453,16.35305 0,-10.50358 c 0,-1.23234 1.00808,-2.24039 2.240167,-2.24039 l 5.799492,0 c 1.207204,0 2.240134,1.02079 2.240134,2.24039 l 0,10.50358 c 0,1.23235 -1.008048,2.24038 -2.240134,2.24038 l -5.84929,0 c -1.232086,0 -2.190369,-0.98318 -2.190369,-2.24038"
           id="path2105" />
        <path
           style="fill:#eeeeec;fill-opacity:1;stroke:none"
           d="m 107.77981,200.21914 c -2.15309,0 -3.75857,0.77165 -5.06534,1.39387 -0.78404,0.37309 -1.46852,0.69678 -2.00367,0.69678 -0.22401,0 -0.43559,-0.0994 -0.54761,-0.27368 l -0.485353,-0.94592 c -0.112019,-0.24883 -0.60983,-0.73436 -1.232086,-0.73436 l -0.721818,0 c -0.696936,0 -1.269427,0.62253 -1.269427,1.40628 l 0,29.18433 c 0,0.90832 0.709393,1.63027 1.630336,1.63027 l 0.634712,0 c 0.89606,0 1.630336,-0.73437 1.630336,-1.63027 l 0,-9.68255 c 0,-0.2861 0.18667,-0.58495 0.36091,-0.58495 0.53515,0 1.21963,0.29885 2.01613,0.67225 1.29431,0.58494 2.91222,1.33142 5.06531,1.33142 l 0.67192,0 c 3.79579,0 6.16044,-2.1652 6.16044,-5.65003 l 0,-11.13855 c 0,-3.43482 -2.41435,-5.66247 -6.16044,-5.66247 l -0.68435,0 0,0 0,-0.0124 z m -7.44238,16.26576 0,-10.0432 c 0,-1.38144 1.08276,-2.46436 2.46418,-2.46436 l 5.42615,0 c 1.38145,0 2.46405,1.08292 2.46405,2.46436 l 0,10.0432 c 0,1.35659 -1.09503,2.46436 -2.46405,2.46436 l -5.42615,0 c -1.35654,0 -2.46418,-1.10777 -2.46418,-2.46436"
           id="path2107" />
        <path
           style="fill:#eeeeec;fill-opacity:1;stroke:none"
           d="m 125.651,200.35583 c -3.03657,0 -5.51304,2.36463 -5.51304,5.28937 l 0,11.42465 c 0,2.96201 2.40191,5.47608 5.23936,5.47608 l 7.67887,0 c 0.94561,0 1.63028,-0.64739 1.63028,-1.54329 l 0,-0.49798 c 0,-0.8959 -0.68467,-1.54296 -1.63028,-1.54296 l -6.29743,0 c -1.76727,0 -2.70076,-0.85895 -2.70076,-2.51407 0,0 0,-2.87473 0,-3.33542 0.5104,0 11.37526,0 11.37526,0 1.81697,0 2.912,-1.11987 2.912,-3.01171 l 0,-4.43044 c 0,-2.91232 -2.47647,-5.28907 -5.51304,-5.28907 l -7.16848,0 -0.0127,-0.0252 z m -1.60543,5.79946 c 0,-1.21961 0.95835,-2.19038 2.19037,-2.19038 l 5.98616,0 c 1.23234,0 2.19037,0.95834 2.19037,2.19038 0,0 0,3.099 0,3.55939 -0.48522,0 -9.88135,0 -10.3669,0 0,-0.46039 0,-3.55939 0,-3.55939"
           id="path2109" />
        <path
           style="fill:#eeeeec;fill-opacity:1;stroke:none"
           d="m 154.17581,200.21914 c -2.14066,0 -3.75851,0.75922 -5.05298,1.38145 -0.80892,0.37309 -1.5057,0.7092 -2.0658,0.7092 -0.24882,0 -0.34854,-0.0248 -0.53524,-0.36098 l -0.44795,-0.82135 c -0.24883,-0.51007 -0.68435,-0.77163 -1.28173,-0.77163 l -0.63497,0 c -0.7589,0 -1.30657,0.58493 -1.30657,1.40628 l 0,19.1408 c 0,0.90865 0.72163,1.64302 1.63027,1.64302 l 0.63465,0 c 0.89622,0 1.63027,-0.73437 1.63027,-1.64302 l 0,-14.48606 c 0,-1.35659 1.10777,-2.46436 2.46437,-2.46436 l 5.42606,0 c 1.35659,0 2.46405,1.10777 2.46405,2.46436 l 0,14.48606 c 0,0.90865 0.72194,1.64302 1.63059,1.64302 l 0.63465,0 c 0.8959,0 1.63027,-0.73437 1.63027,-1.64302 l 0,-15.02131 c 0,-3.43481 -2.41435,-5.66246 -6.16044,-5.66246 l -0.68435,0"
           id="path2111" />
        <path
           style="font-size:18.71269226px;font-style:normal;font-variant:normal;font-weight:normal;font-stretch:normal;text-indent:0;text-align:start;text-decoration:none;line-height:125%;letter-spacing:normal;word-spacing:normal;text-transform:none;direction:ltr;block-progression:tb;writing-mode:lr-tb;text-anchor:start;fill:#eeeeec;fill-opacity:1;fill-rule:evenodd;stroke:none;stroke-width:1;marker:none;visibility:visible;display:inline;overflow:visible;enable-background:accumulate;font-family:Myriad;-inkscape-font-specification:Myriad"
           d="m 318.75767,185.66539 c -1.88704,0 -3.42124,1.53419 -3.42124,3.45194 0,1.94842 1.5342,3.46727 3.42124,3.46727 1.90241,0 3.40591,-1.51885 3.40591,-3.46727 0,-1.91775 -1.5035,-3.45194 -3.39056,-3.45194 l -0.0153,0 m 0.0153,0.53697 c 1.53419,0 2.76154,1.30407 2.76154,2.9303 0,1.62624 -1.22735,2.93031 -2.76154,2.91497 -1.53419,0 -2.77688,-1.28873 -2.77688,-2.9303 0,-1.6109 1.24269,-2.91497 2.76153,-2.91497 l 0.0153,0 m -0.6597,3.26783 0.42957,0 c 0.49094,0 0.73642,0.1841 0.82846,0.67504 0.0767,0.50629 0.16876,0.85915 0.26082,0.98188 l 0.64436,0 c -0.0614,-0.12273 -0.15343,-0.35286 -0.24547,-0.9512 -0.0767,-0.56765 -0.30684,-0.87448 -0.64437,-0.93585 l 0,-0.0307 c 0.41424,-0.12273 0.75176,-0.42957 0.75176,-0.93585 0,-0.36821 -0.12274,-0.62902 -0.35287,-0.79778 -0.23013,-0.16876 -0.61367,-0.2915 -1.19667,-0.2915 -0.46025,0 -0.76709,0.046 -1.08927,0.0921 l 0,3.85082 0.61368,0 0,-1.65692 m 0,-1.77966 c 0.10739,-0.0153 0.24547,-0.0307 0.44491,-0.0307 0.69039,0 0.93586,0.33752 0.93586,0.67505 0,0.47559 -0.42957,0.6597 -0.93586,0.6597 l -0.44491,0 0,-1.30406"
           id="text5975" />
      </g>
    </g>
    <g
       transform="matrix(-0.21698382,-0.04704296,-0.04704296,0.21698382,165.22493,946.56016)"
       id="g6538"
       style="opacity:0.22277228;display:inline;filter:url(#filter9012)">
      <path
         style="fill:#000000;fill-opacity:1;stroke:#000000;stroke-width:2.6198802;stroke-opacity:1"
         d="m -0.23165795,529.23615 c 0,0 1.22238685,-2.14272 4.99399325,-6.80421 1.8858031,-2.33074 4.4166464,-5.28752 7.8158417,-8.86549 3.399196,-3.57797 7.666746,-7.7794 13.070658,-12.52911 5.403913,-4.74971 11.945059,-10.0507 19.930036,-15.71802 7.984976,-5.66731 17.416071,-11.70477 28.615369,-17.76653 11.199298,-6.06177 24.171224,-12.15258 39.20377,-17.70146 15.03255,-5.54889 32.13319,-10.56159 51.46754,-14.16335 4.70782,-0.87608 9.54526,-1.66645 14.51187,-2.35727 14.23472,-1.97994 28.92348,-2.99483 43.84844,-2.96874 14.92496,0.0261 30.0854,1.09319 45.25179,3.23212 15.16639,2.13894 30.33793,5.34959 45.28488,9.61827 14.94695,4.26868 29.6685,9.59515 43.94677,15.92396 17.81929,7.91444 34.6878,17.19246 51.18729,26.38573 16.72163,9.30131 33.11768,18.52791 49.81403,26.31347 17.26506,8.04296 34.94705,14.51125 52.85139,18.17025 9.27362,1.8909 18.62463,3.02597 27.85068,3.24151 9.22605,0.21554 18.32689,-0.48897 27.12435,-2.22344 9.22288,-1.80933 18.06818,-4.78551 26.31631,-8.64645 8.24814,-3.86093 15.8987,-8.60632 22.79321,-13.96875 11.6388,-9.05316 21.13408,-19.88056 28.15393,-31.30838 2.29287,-3.73263 4.33711,-7.52334 6.1381,-11.34489 4.33686,-9.20713 7.2507,-18.54019 9.06705,-27.62935 1.81636,-9.08917 2.53492,-17.93756 2.43503,-26.32944 -0.12467,-10.6961 -1.57446,-20.67056 -3.86311,-29.72701 -2.28866,-9.05644 -5.41718,-17.20114 -9.00003,-24.42287 -3.77491,-7.59902 -8.01166,-14.16054 -12.30834,-19.83551 -4.29667,-5.67498 -8.65728,-10.46588 -12.83783,-14.54603 -4.18054,-4.08015 -8.18389,-7.45107 -11.87264,-10.27878 -3.68875,-2.82771 -7.06489,-5.11299 -10.06152,-6.99756 -5.99327,-3.76915 -10.44334,-5.96933 -13.30591,-7.34729 -2.86258,-1.37795 -4.15547,-1.92318 -4.15547,-1.92318 0,0 2.14876,0.78897 6.04663,2.56615 3.89787,1.77718 9.54851,4.56928 16.25923,8.91185 6.71072,4.34257 14.48677,10.26054 22.26728,18.23041 7.7805,7.96987 15.5655,18.00849 21.88157,30.21555 4.00927,7.76585 7.36928,16.36835 9.77805,25.62781 2.40878,9.25947 3.86545,19.17538 4.10513,29.43852 0.21777,9.07442 -0.51643,18.43324 -2.34848,27.78765 -1.83204,9.35441 -4.76224,18.70314 -8.89947,27.70229 -3.89569,8.45225 -8.83598,16.53837 -14.68556,24.03046 -5.84959,7.4921 -12.60757,14.38928 -20.08793,20.46664 -14.60348,11.87821 -32.03538,20.6395 -50.51903,24.86111 -19.13302,4.33821 -38.88803,3.97722 -57.48179,0.77644 -19.7119,-3.38572 -38.23706,-9.70641 -55.22923,-17.02197 -1e-5,0 -2e-5,-10e-6 -3e-5,-10e-6 -9.33052,-4.01489 -18.22775,-8.29337 -26.74483,-12.57331 -8.51709,-4.27993 -16.65441,-8.56045 -24.43714,-12.64271 -1e-5,0 -1e-5,0 -2e-5,-1e-5 -0.026,-0.0136 -0.052,-0.0273 -0.078,-0.0409 -17.12733,-8.97854 -33.90714,-17.64955 -50.83974,-24.71832 -16.41629,-6.85712 -32.9864,-12.22171 -49.39254,-16.24861 -16.40614,-4.02691 -32.64815,-6.71656 -48.4689,-8.25142 -15.82076,-1.53486 -31.2203,-1.91539 -46.003,-1.34502 -14.78269,0.57037 -28.94876,2.09117 -42.36215,4.3448 -14.38584,2.41548 -27.90514,5.67024 -40.47036,9.44277 -12.56521,3.77254 -24.17713,8.06256 -34.804736,12.57888 -21.255205,9.03265 -38.547992,18.93388 -52.094191,27.78824 -13.546199,8.85436 -23.381855,16.65964 -29.9016112,22.09472 -3.2598782,2.71753 -5.690093,4.85194 -7.3140541,6.29656 -1.62396122,1.44463 -2.44253565,2.19923 -2.44253565,2.19923 z"
         id="path6542"
         inkscape:path-effect="#path-effect8532;#path-effect8666"
         inkscape:original-d="m -7,521 c 87,61 326,42 361,-53 35,-95 168,-88 213,65 45,153 60,-172 79,-174 19,-2 -64,-57 -64,-57"
         sodipodi:nodetypes="csssc" />
      <path
         sodipodi:nodetypes="csssc"
         inkscape:original-d="M -79.879042,910.57372 C 7.1209579,971.57372 319,563 354,468 c 35,-95 171,-77 216,76 45,153 86,-193 105,-195 19,-2 -133,-98 -133,-98"
         inkscape:path-effect="#path-effect8524;#path-effect8697"
         id="path6544"
         d="m -70.161963,906.18931 c 0,0 -1.636601,-2.07494 -4.958804,-7.47909 -1.661101,-2.70207 -3.736197,-6.24319 -6.154417,-10.82299 -2.418221,-4.57981 -5.18175,-10.19902 -8.131925,-17.08144 -2.950175,-6.88242 -6.089649,-15.02992 -9.13569,-24.67138 -3.046041,-9.64146 -6.001771,-20.78051 -8.417031,-33.61033 -2.41527,-12.82982 -4.29363,-27.35655 -4.96718,-43.66519 -0.67355,-16.30865 -0.14625,-34.40876 2.52427,-54.16033 0,-1e-5 0,-2e-5 0,-3e-5 2.47118,-18.25394 6.78434,-37.89367 13.707786,-58.50902 6.923443,-20.61534 16.461296,-42.21778 29.43456,-63.96875 12.32103,-20.65743 27.25048,-40.43873 44.637971,-58.4994 23.1247188,-24.00434 50.515896,-44.84399 80.771622,-61.18771 30.255727,-16.34371 63.359341,-28.18377 97.563951,-34.52772 33.94007,-6.28409 68.80231,-7.12878 102.68355,-2.87719 33.88125,4.2516 66.7645,13.59295 96.98094,27.31 18.18664,8.26823 35.25143,17.93772 51.86853,27.55572 17.09446,9.88532 33.76638,19.72982 50.70577,28.2277 17.65528,8.85231 35.68137,16.18829 54.0156,20.8131 9.51254,2.39755 19.12603,4.05404 28.66733,4.80457 9.54131,0.75052 19.01034,0.59493 28.25449,-0.58872 10.84944,-1.38542 21.31056,-4.23801 31.11683,-8.20119 9.80627,-3.96318 18.95752,-9.03673 27.25645,-14.89507 8.55899,-6.04135 16.23756,-12.92113 22.92268,-20.33146 7.65423,-8.48457 14.03236,-17.635 19.1035,-27.10948 5.39773,-10.08909 9.32537,-20.4897 12.04244,-30.81696 2.71708,-10.32725 4.22343,-20.58296 4.75025,-30.50471 0.62475,-11.72969 -0.10372,-23.01172 -1.84627,-33.61439 -1.74256,-10.60266 -4.49957,-20.52853 -7.9815,-29.67032 -3.17488,-8.33161 -6.91861,-16.01084 -10.9997,-23.04534 -4.08108,-7.03449 -8.5003,-13.42507 -13.08082,-19.21033 -9.16104,-11.57052 -18.93439,-20.71065 -28.39979,-27.93724 -6.58902,-5.02842 -13.02966,-9.13039 -19.12912,-12.53415 -6.09946,-3.40375 -11.86025,-6.10962 -17.18131,-8.31265 -5.32106,-2.20302 -10.20418,-3.90329 -14.60778,-5.25931 -4.4036,-1.35601 -8.32893,-2.3677 -11.77128,-3.15685 -6.88471,-1.57831 -11.82818,-2.29665 -15.01788,-2.72874 -3.1897,-0.43209 -4.63456,-0.56687 -4.63456,-0.56687 0,0 2.15076,0.13547 6.22043,0.62614 4.06967,0.49066 10.06555,1.34969 17.64098,3.13497 7.57543,1.78528 16.74027,4.50989 26.89925,8.87072 10.15899,4.36082 21.32007,10.36913 32.50233,18.67673 10.37696,7.71395 20.72531,17.40413 30.06795,29.18446 9.34264,11.78034 17.67746,25.65452 23.8172,41.33743 3.78449,9.67634 6.68204,20.01932 8.4969,30.82268 1.81486,10.80335 2.54676,22.06663 2.01926,33.50967 -0.48102,10.5389 -2.04399,21.24397 -4.80397,31.8154 -2.75997,10.57142 -6.71709,21.00847 -11.96572,30.96712 -5.01445,9.49568 -11.19937,18.48736 -18.39476,26.72981 -7.19538,8.24246 -15.40068,15.73514 -24.41481,22.22675 -17.49325,12.61321 -38.16417,21.44539 -59.94794,24.59105 -19.65025,2.80393 -39.72412,1.15128 -58.85776,-3.3198 -19.44217,-4.5356 -38.01662,-11.77668 -55.64576,-20.19752 -17.89053,-8.54065 -34.90295,-18.1598 -51.61956,-27.39473 -17.3421,-9.57436 -34.41296,-18.74747 -51.62579,-26.17627 -15.93562,-6.88286 -32.00956,-12.28011 -47.82078,-16.35615 -15.81122,-4.07603 -31.3585,-6.83164 -46.30287,-8.49597 -33.98772,-3.78516 -67.74259,-2.19104 -99.5939,4.15186 -17.32044,3.44771 -34.07795,8.29254 -50.0926,14.29204 -16.014652,5.9995 -31.286454,13.15353 -45.67732,21.23212 -14.390867,8.07859 -27.90085,17.08161 -40.43329,26.79339 -12.532441,9.71179 -24.0874345,20.13224 -34.608657,31.06144 -12.952012,13.45114 -24.333708,27.66334 -34.220384,42.20857 -9.886676,14.54523 -18.278763,29.42362 -25.296633,44.28297 -7.017871,14.85936 -12.662016,29.69995 -17.090972,44.24259 -4.428956,14.54263 -7.643266,28.78771 -9.83186,42.52409 -2e-6,10e-6 -4e-6,2e-5 -6e-6,3e-5 -2.420038,15.16919 -3.594078,29.71675 -3.872028,43.43701 -0.27795,13.72027 0.33985,26.61441 1.53202,38.55968 1.192172,11.94527 2.958402,22.94296 5.010648,32.93483 2.052246,9.99186 4.39022,18.97926 6.763663,26.94868 2.373443,7.96943 4.78207,14.92222 7.017679,20.86946 2.235609,5.94725 4.297896,10.89019 6.025107,14.84513 1.727211,3.95494 3.118998,6.92293 4.064924,8.90823 0.945925,1.98529 1.445566,2.98865 1.445566,2.98865 z"
         style="color:#000000;fill:#000000;fill-opacity:1;fill-rule:nonzero;stroke:#000000;stroke-width:2.6198802px;stroke-opacity:1;marker:none;visibility:visible;display:inline;overflow:visible;enable-background:accumulate" />
      <path
         style="stroke-width:1px"
         d="m 564.02414,248.84785 c -14.42903,-1.1235 -28.07614,-2.95439 -47.928,6.8478 -6.92972,3.42168 -13.46511,-0.55578 -7.1565,-4.14843 10.63773,-6.058 34.2389,-9.12309 55.0845,-2.69937 z"
         id="path6548"
         sodipodi:nodetypes="cssc" />
      <path
         sodipodi:nodetypes="cssc"
         id="path6550"
         d="m 597.88877,303.76725 c -11.97234,-4.76655 -23.09296,-9.92809 -42.56224,-6.83681 -6.79619,1.07906 -11.30269,-4.02923 -4.98946,-5.41773 10.64546,-2.34137 31.5233,1.28632 47.5517,12.25454 z"
         style="stroke-width:1px" />
      <g
         id="g6552"
         transform="matrix(0.99215419,-0.12502022,0.12502022,0.99215419,-95.612302,34.373969)" />
      <path
         style="fill:none;stroke-width:1px"
         d="m 15,-64 c 0,0 10.63472,-14.206263 53.82708,-19.934395 C 112.01944,-89.662527 165.76944,-75.912526 200,-74 c 43.07856,2.406881 55,5 55,5 0,0 -81.00879,-2.120527 -125,-3 -66.70665,-1.3336 -115,8 -115,8 z"
         id="path6556"
         sodipodi:nodetypes="csscsc" />
      <path
         style="stroke:#000000;stroke-width:2.6198802px;stroke-opacity:1"
         d="m 408.17325,499.73126 c 0,0 0.8434,0.11489 2.71071,0.63734 1.86731,0.52246 4.75194,1.46013 8.8967,2.86994 4.14477,1.4098 9.54833,3.30287 16.5849,5.36596 3.51829,1.03154 7.44729,2.09902 11.84094,3.10991 4.39365,1.01088 9.25292,1.96644 14.62413,2.72033 9.01273,1.265 18.48031,1.97856 28.12938,1.68403 6.38235,-0.24082 12.86022,-0.86577 19.0662,-2.24996 6.20597,-1.3842 12.13697,-3.53594 17.4539,-6.78834 5.46132,-3.30498 10.27785,-7.67941 13.69958,-12.88811 0,0 0,0 0,0 3.61518,-5.50015 5.70196,-11.94799 5.75176,-18.2522 0.0358,-4.44483 -0.91651,-8.81253 -2.80244,-12.57517 -2.00024,-3.99101 -5.05285,-7.2749 -8.55595,-9.37154 -0.12911,-0.0773 -0.25877,-0.15307 -0.38898,-0.2274 -2.10816,-1.20299 -4.35182,-2.00329 -6.57675,-2.4248 -2.22493,-0.42151 -4.43209,-0.46458 -6.52362,-0.1679 -2.52813,0.36029 -4.85994,1.22724 -6.86494,2.40599 -2.005,1.17874 -3.68544,2.67025 -5.00055,4.33302 0,0 0,0 0,0 -2.04153,2.6016 -3.1196,5.52443 -3.5461,8.2528 -0.4265,2.72838 -0.20328,5.27664 0.38658,7.47851 0.41732,1.53169 1.00249,2.8772 1.65193,4.04841 0.64943,1.17121 1.36404,2.16893 2.07789,3.01976 1.4277,1.70166 2.83707,2.8193 3.98016,3.5979 1.14308,0.77859 2.03004,1.22354 2.60666,1.50101 0.57663,0.27748 0.84716,0.38641 0.84716,0.38641 0,0 -0.41257,-0.13048 -1.16323,-0.45019 -0.75067,-0.31971 -1.84095,-0.83503 -3.11645,-1.68898 -1.27551,-0.85394 -2.73877,-2.05349 -4.12335,-3.72388 -1.38458,-1.67038 -2.69241,-3.81742 -3.51038,-6.45141 -0.74617,-2.45286 -1.02697,-5.25227 -0.61206,-8.15435 0.4149,-2.90208 1.52691,-5.90729 3.4998,-8.5627 1.44564,-1.91666 3.28783,-3.58885 5.43228,-4.88879 2.14445,-1.29994 4.59073,-2.2273 7.18547,-2.64729 4.74428,-0.75901 9.82958,0.1315 14.21797,2.55244 4.17634,2.30845 7.65719,5.8811 9.9917,10.10464 2.28844,4.14255 3.50489,8.82425 3.71969,13.4899 0,0 0,0 0,1e-5 0.33216,7.2568 -1.67927,14.40357 -5.09729,20.35469 -3.70017,6.44086 -8.90545,11.48809 -14.26505,15.12722 -1.85085,1.25239 -3.71062,2.34216 -5.54794,3.29536 -5.44159,2.8231 -11.14023,4.72821 -16.82197,6.01681 -5.68174,1.28859 -11.34571,1.96045 -16.77213,2.25281 0,0 0,0 -10e-6,0 -12.93103,0.72024 -24.88205,-0.58662 -35.27166,-2.82595 -10.38961,-2.23932 -19.22539,-5.40763 -26.30806,-8.51279 -7.08267,-3.10515 -12.4305,-6.13762 -16.02654,-8.30379 -3.59604,-2.16617 -5.46004,-3.44966 -5.46004,-3.44966 z"
         id="path6560"
         inkscape:path-effect="#path-effect1232;#path-effect1247"
         inkscape:original-d="m 411.47991,495.55069 c 20.39019,-17.34495 101.60878,31.90345 79.70082,25.86176 -10.95399,-3.02084 48.2415,-29.07686 56.73465,-45.52952 8.49316,-16.45266 -48.06493,-11.99034 -36.73574,-17.26771 7.98165,-3.71802 7.93898,24.89734 7.93898,24.89734"
         sodipodi:nodetypes="csssc" />
      <path
         style="stroke-width:1px"
         d="m 506.97416,472.75738 c 4.64836,8.60272 9.41048,8.40617 16.34375,8.40824 6.54804,0.002 5.06284,7.83004 -1.00971,6.8626 -3.78397,-0.60284 -11.8483,-3.48537 -15.33404,-15.27084 z"
         id="path6562"
         sodipodi:nodetypes="cssc" />
      <g
         id="g6638"
         transform="matrix(0.60292879,0.41231946,-0.41231946,0.60292879,414.42199,-308.2576)">
        <g
           transform="translate(-617,38)"
           id="g6632">
          <path
             sodipodi:nodetypes="csssc"
             inkscape:original-d="m 825.45388,1123.9766 c 50.60602,35.4824 126.77432,-27.1883 147.13306,-82.4477 20.35876,-55.25947 33.79696,-55.16786 59.97246,33.8289 26.1755,88.9968 -56.42281,23.2672 -45.37092,22.1038 11.05189,-1.1633 12.79693,-24.4305 12.79693,-24.4305"
             inkscape:path-effect="#path-effect6615;#path-effect8706"
             id="path8534"
             d="m 834.63779,1129.3896 c 0,0 -0.31344,-1.2482 -0.26988,-4.0209 0.0436,-2.7728 0.43221,-7.0916 2.20694,-13.1499 0.88737,-3.0292 2.12838,-6.4902 3.89916,-10.3624 1.77077,-3.8723 4.07166,-8.1578 7.10839,-12.7752 3.03674,-4.6175 6.81041,-9.5693 11.54576,-14.6809 4.73536,-5.1117 10.43463,-10.3861 17.317,-15.5153 2.13338,-1.59 4.34457,-3.123 6.62734,-4.5923 6.26717,-4.0302 13.06046,-7.5683 20.21535,-10.523 7.15489,-2.9548 14.67053,-5.326 22.37182,-7.0686 7.70129,-1.7425 15.58733,-2.8565 23.48553,-3.3429 7.8982,-0.4863 15.80768,-0.3454 23.57172,0.3793 6.58817,0.5627 13.25142,1.644 19.65255,3.4205 6.40113,1.7765 12.53703,4.2486 18.12283,7.5269 5.8647,3.4693 10.991,7.8853 14.9447,12.9416 4.1779,5.3416 6.956,11.4038 8.1372,17.4483 0.6842,3.5024 0.816,6.9948 0.4748,10.3068 -0.3412,3.3121 -1.1552,6.4437 -2.3679,9.2835 -0.9496,2.2243 -2.1479,4.2665 -3.5091,6.0933 -2.5767,3.4581 -5.7991,6.0812 -9.2188,7.7303 -3.1068,1.502 -6.3849,2.2042 -9.4578,2.2713 -3.0729,0.067 -5.9443,-0.5005 -8.4131,-1.5438 -3.14839,-1.3186 -5.67595,-3.4058 -7.488,-5.6621 -1.81206,-2.2563 -2.91563,-4.6892 -3.39094,-6.9829 -0.54683,-2.5036 -0.41577,-4.8858 0.0388,-6.9171 0.45451,-2.0313 1.23524,-3.721 2.11723,-5.0508 0,0 0,0 0,0 1.19796,-1.8306 2.60144,-3.0715 3.83421,-3.9328 1.23278,-0.8613 2.31208,-1.3498 3.15177,-1.6594 0.83968,-0.3096 1.44818,-0.4417 1.84078,-0.5157 0.3926,-0.074 0.5723,-0.089 0.5723,-0.089 0,0 -0.2398,0.064 -0.6927,0.2281 -0.4529,0.1637 -1.12105,0.43 -1.94573,0.8845 -0.82467,0.4544 -1.809,1.101 -2.82134,2.0219 -1.01235,0.9209 -2.05577,2.1197 -2.87841,3.6178 -0.7579,1.3522 -1.35694,3.0121 -1.6329,4.879 -0.27596,1.8668 -0.22857,3.9423 0.3277,5.9686 0.5307,2.096 1.68823,4.2335 3.38999,6.1202 1.70176,1.8868 3.94775,3.5222 6.49799,4.4939 2.2488,0.8806 4.8302,1.2576 7.4913,1.0902 2.661,-0.1674 5.4004,-0.8793 7.8833,-2.1451 2.3317,-1.1753 4.489,-2.8816 6.3251,-4.9718 1.8362,-2.0901 3.3505,-4.5634 4.3877,-7.2335 2.0221,-5.1746 2.2388,-11.2826 0.7781,-16.9732 -1.3597,-5.3084 -4.2418,-10.3218 -7.9947,-14.5082 -3.8251,-4.2661 -8.6167,-7.675 -13.7208,-10.2379 0,0 0,0 0,0 -5.5576,-2.8112 -11.48232,-4.5522 -17.37243,-5.6511 -5.89011,-1.0989 -11.74203,-1.5606 -17.23895,-1.7448 -1.39283,-0.043 -2.7645,-0.066 -4.11293,-0.073 -15.3465,-0.074 -30.03591,2.2986 -43.3146,6.2782 -13.27868,3.9796 -25.14898,9.5576 -35.30982,15.8552 -11.21951,6.951 -20.37321,14.7572 -27.65838,22.2685 -7.28517,7.5113 -12.71779,14.7283 -16.7417,20.8542 -4.02391,6.1258 -6.65616,11.1665 -8.33774,14.6236 -1.68159,3.457 -2.42866,5.3373 -2.42866,5.3373 z"
             style="color:#000000;fill:#000000;fill-opacity:1;fill-rule:nonzero;stroke:#000000;stroke-width:3.58675575px;stroke-opacity:1;marker:none;visibility:visible;display:inline;overflow:visible;enable-background:accumulate" />
          <path
             style="stroke-width:1px"
             d="m 996.79904,1079.9922 c 4.09056,-1.3609 8.45166,-1.5601 14.52396,1.0129 3.6632,1.5522 6.1508,-3.2489 1.5942,-4.188 -3.5715,-0.7361 -10.5532,-0.1788 -16.11816,3.1751 z"
             id="path8579"
             sodipodi:nodetypes="cssc" />
        </g>
        <path
           style="stroke:#000000;stroke-width:3.58675575px;stroke-opacity:1"
           d="m 363.33435,1073.3034 c 0,0 0.7202,0.015 2.26856,0.2964 1.54836,0.2818 3.91935,0.8358 7.25446,1.7237 3.3351,0.8879 7.63213,2.1166 13.13114,3.4728 2.74951,0.6781 5.80146,1.3834 9.19299,2.0509 3.39153,0.6676 7.12329,1.2983 11.2292,1.7881 6.8831,0.821 14.05832,1.3178 21.37759,1.1179 4.84599,-0.1784 9.75212,-0.6014 14.45513,-1.5761 4.70301,-0.9748 9.20122,-2.5084 13.25294,-4.8863 4.16387,-2.4082 7.8823,-5.6233 10.56052,-9.5105 0,0 0,0 0,0 2.82894,-4.1026 4.53734,-8.9754 4.66933,-13.7939 0.0937,-3.3923 -0.57177,-6.754 -1.97623,-9.6681 -1.49022,-3.0923 -3.81527,-5.6604 -6.51291,-7.3037 -0.0978,-0.06 -0.19607,-0.1181 -0.29474,-0.1755 -1.62287,-0.9437 -3.35482,-1.5787 -5.07774,-1.9209 -1.72292,-0.3422 -3.43756,-0.3918 -5.06874,-0.177 -1.97171,0.2614 -3.79724,0.9182 -5.37403,1.8233 -1.57679,0.9051 -2.90656,2.0591 -3.95618,3.3541 -1e-5,0 -1e-5,0 -1e-5,0 -1.63116,2.0328 -2.51015,4.3271 -2.87268,6.4803 -0.36253,2.1532 -0.21024,4.1764 0.23748,5.9365 0.63668,2.4481 1.78053,4.2999 2.90243,5.6747 1.12191,1.3749 2.23804,2.2867 3.14681,2.9258 0.90876,0.639 1.61781,1.0097 2.07926,1.2419 0.46146,0.2321 0.6786,0.325 0.6786,0.325 0,0 -0.33298,-0.1065 -0.93784,-0.3658 -0.60486,-0.2594 -1.48265,-0.6767 -2.50733,-1.3659 -1.02468,-0.6893 -2.19808,-1.6559 -3.30625,-3.001 -1.10817,-1.345 -2.15248,-3.0731 -2.80601,-5.1959 -0.5933,-1.9779 -0.81154,-4.2252 -0.47039,-6.55 0.34115,-2.3247 1.2428,-4.7272 2.83512,-6.8545 1.16619,-1.529 2.64198,-2.8581 4.35457,-3.8877 1.71258,-1.0295 3.66163,-1.7593 5.7288,-2.0852 3.77754,-0.5867 7.79851,0.1308 11.2632,2.0584 3.29517,1.8379 6.0276,4.6574 7.85334,7.9843 1.78878,3.2621 2.73383,6.9311 2.89292,10.5807 0,0 0,0 0,0 0.24585,5.6845 -1.33551,11.2603 -4.01238,15.8958 -2.89735,5.0157 -6.95354,8.9328 -11.12406,11.7508 -1.43834,0.9676 -2.88212,1.8092 -4.30741,2.5451 -4.22888,2.1835 -8.64505,3.6605 -13.04455,4.6658 -4.3995,1.0052 -8.78155,1.5384 -12.97964,1.7808 -10e-6,0 -10e-6,0 -10e-6,0 -9.99192,0.6005 -19.24044,-0.3316 -27.30807,-1.9784 -8.06764,-1.6468 -14.9591,-4.0067 -20.5048,-6.3324 -5.5457,-2.3257 -9.75874,-4.6093 -12.59936,-6.2425 -2.84062,-1.6332 -4.32303,-2.6018 -4.32303,-2.6018 z"
           id="path1230-2"
           inkscape:path-effect="#path-effect6603;#path-effect6636"
           inkscape:original-d="m 366.6433,1069.1246 c 15.7053,-13.3786 78.2358,24.576 61.3671,19.9225 -8.4344,-2.3267 37.1547,-22.4309 43.6986,-35.1188 6.5439,-12.6879 -37.0093,-9.2341 -28.2841,-13.3059 6.147,-2.8686 6.1076,19.1954 6.1076,19.1954"
           sodipodi:nodetypes="csssc" />
        <path
           style="stroke-width:1px"
           d="m 440.1832,1051.5278 c 3.5775,6.6321 7.2445,6.4794 12.5835,6.4794 5.0422,0 3.8968,6.0362 -0.7791,5.2917 -2.9137,-0.464 -9.1229,-2.6847 -11.8044,-11.7711 z"
           id="path1256-8"
           sodipodi:nodetypes="cssc" />
      </g>
    </g>
    <text
       sodipodi:linespacing="125%"
       id="text5669"
       y="1003.1395"
       x="64.28054"
       style="font-size:17.65063667px;font-style:normal;font-variant:normal;font-weight:bold;font-stretch:normal;text-align:center;line-height:125%;writing-mode:lr-tb;text-anchor:middle;fill:#8aa370;fill-opacity:1;stroke:none;font-family:FifthLeg;-inkscape-font-specification:FifthLeg Bold"
       xml:space="preserve"><tspan
         y="1003.1395"
         x="64.28054"
         sodipodi:role="line"
         id="tspan5673"
         dx="0 0 -0.66189903 -1.7650641">11.2 out now!</tspan></text>
    <text
       xml:space="preserve"
       style="font-size:9.58522797px;font-style:normal;font-variant:normal;font-weight:bold;font-stretch:normal;text-align:start;line-height:125%;writing-mode:lr-tb;text-anchor:start;fill:#eeeeec;fill-opacity:1;stroke:none;font-family:FifthLeg;-inkscape-font-specification:FifthLeg Bold"
       x="18.291525"
       y="1017.7939"
       id="text5665"
       sodipodi:linespacing="125%"><tspan
         sodipodi:role="line"
         id="tspan5667"
         x="18.291525"
         y="1017.7939">Linux for open minds.</tspan></text>
  </g>
</svg>
