<?xml version="1.0" encoding="utf-8"?>
<!-- Generator: Adobe Illustrator 15.0.1, SVG Export Plug-In . SVG Version: 6.00 Build 0)  -->
<!DOCTYPE svg PUBLIC "-//W3C//DTD SVG 1.1//EN" "http://www.w3.org/Graphics/SVG/1.1/DTD/svg11.dtd">
<svg version="1.1" id="Ebene_1" xmlns="http://www.w3.org/2000/svg" xmlns:xlink="http://www.w3.org/1999/xlink" x="0px" y="0px"
	 width="800px" height="600px" viewBox="0 0 800 600" enable-background="new 0 0 800 600" xml:space="preserve">
<path d="M399.793,217.294c-46.195,0-83.649,37.45-83.649,83.648c0,46.199,37.455,83.65,83.649,83.65
	c46.193,0,83.648-37.451,83.648-83.65C483.441,254.744,445.986,217.294,399.793,217.294z M400.193,228.878
	c39.803,0,72.096,32.267,72.096,72.064c0,39.803-32.297,72.065-72.096,72.065c-21.492,0-40.777-9.419-53.979-24.34
	c5.428-4.214,14.51-3.186,25.695-1.911c5.36,0.61,11.471,1.309,17.777,1.449c17.62,0.102,36.579-3.113,48.28-8.227
	c7.564-3.318,12.408-5.502,15.436-8.258c1.092-0.895,1.664-2.391,2.248-3.943l0.4-1.047c0.49-1.254,1.195-3.951,1.51-5.423
	c0.141-0.644,0.211-1.337-0.246-1.694l-1.633,0.308c-5.135,3.079-17.961,8.942-29.979,9.182
	c-14.891,0.312-44.902-14.991-48.032-16.606l-0.308-0.37c-0.75-1.791-5.242-12.453-6.193-14.696
	c21.603,14.226,39.513,22.1,53.24,23.323c15.262,1.356,27.166-6.977,32.258-10.537c0.994-0.678,1.752-1.21,2.064-1.325l0.338-0.555
	c-0.844-5.363-8.852-31.322-14.881-37.557c-1.672-1.71-3-3.375-5.699-4.96c-21.824-12.72-73.644-20.381-76.07-20.735l-0.401,0.124
	l-0.154,0.339c0,0-0.194,10.76-0.216,11.954c-1.778-0.588-7.292-2.394-15.189-4.56C356.765,240.191,372.557,228.878,400.193,228.878
	z M419.234,267.021c0.367-0.006,0.738-0.013,1.109,0c12.225,0.439,21.83,10.736,21.412,22.953
	c-0.217,5.91-2.709,11.371-7.025,15.405c-4.328,4.055-9.953,6.169-15.896,5.977c-12.205-0.456-21.81-10.753-21.414-22.953
	c0.209-5.919,2.714-11.415,7.056-15.436C408.529,269.166,413.717,267.104,419.234,267.021z M418.648,273.553
	c-3.561,0.217-6.92,1.663-9.551,4.129c-2.998,2.814-4.768,6.625-4.898,10.753c-0.283,8.528,6.391,15.705,14.912,16.021
	c4.141,0.127,8.066-1.323,11.09-4.129c3.016-2.828,4.771-6.673,4.9-10.783c0.285-8.542-6.42-15.692-14.943-15.991
	C419.643,273.534,419.156,273.522,418.648,273.553z M422.715,281.286c3.787,0,6.84,2.058,6.84,4.591c0,2.521-3.053,4.591-6.84,4.591
	c-3.799,0-6.871-2.074-6.871-4.591C415.844,283.344,418.916,281.286,422.715,281.286z"/>
</svg>
