<?xml version="1.0" encoding="UTF-8" standalone="no"?>
<!-- Created with Inkscape (http://www.inkscape.org/) -->
<svg
   xmlns:dc="http://purl.org/dc/elements/1.1/"
   xmlns:cc="http://creativecommons.org/ns#"
   xmlns:rdf="http://www.w3.org/1999/02/22-rdf-syntax-ns#"
   xmlns:svg="http://www.w3.org/2000/svg"
   xmlns="http://www.w3.org/2000/svg"
   xmlns:xlink="http://www.w3.org/1999/xlink"
   xmlns:sodipodi="http://sodipodi.sourceforge.net/DTD/sodipodi-0.dtd"
   xmlns:inkscape="http://www.inkscape.org/namespaces/inkscape"
   width="750"
   height="50"
   id="svg7194"
   sodipodi:version="0.32"
   inkscape:version="0.46+devel"
   version="1.0"
   sodipodi:docname="progress.svg"
   inkscape:output_extension="org.inkscape.output.svg.inkscape">
  <defs
     id="defs7196">
    <filter
       inkscape:collect="always"
       id="filter14833">
      <feBlend
         inkscape:collect="always"
         mode="screen"
         in2="BackgroundImage"
         id="feBlend14835" />
    </filter>
    <inkscape:perspective
       sodipodi:type="inkscape:persp3d"
       inkscape:vp_x="0 : 526.18109 : 1"
       inkscape:vp_y="0 : 1000 : 0"
       inkscape:vp_z="744.09448 : 526.18109 : 1"
       inkscape:persp3d-origin="372.04724 : 350.78739 : 1"
       id="perspective7202" />
    <filter
       inkscape:collect="always"
       id="filter9034">
      <feGaussianBlur
         inkscape:collect="always"
         stdDeviation="1.3647726"
         id="feGaussianBlur9036" />
    </filter>
  </defs>
  <sodipodi:namedview
     id="base"
     pagecolor="#858585"
     bordercolor="#666666"
     borderopacity="1.0"
     gridtolerance="10000"
     guidetolerance="10"
     objecttolerance="10"
     inkscape:pageopacity="0"
     inkscape:pageshadow="2"
     inkscape:zoom="1"
     inkscape:cx="347.84314"
     inkscape:cy="27.577116"
     inkscape:document-units="px"
     inkscape:current-layer="g7135"
     showgrid="true"
     borderlayer="true"
     inkscape:showpageshadow="false"
     inkscape:snap-bbox="true"
     inkscape:snap-nodes="false"
     inkscape:window-width="1290"
     inkscape:window-height="1015"
     inkscape:window-x="624"
     inkscape:window-y="133">
    <inkscape:grid
       type="xygrid"
       id="grid7241"
       visible="true"
       enabled="true"
       empspacing="50"
       spacingx="3px"
       spacingy="3px" />
  </sodipodi:namedview>
  <metadata
     id="metadata7199">
    <rdf:RDF>
      <cc:Work
         rdf:about="">
        <dc:format>image/svg+xml</dc:format>
        <dc:type
           rdf:resource="http://purl.org/dc/dcmitype/StillImage" />
      </cc:Work>
    </rdf:RDF>
  </metadata>
  <g
     inkscape:label="Layer 1"
     inkscape:groupmode="layer"
     id="layer1"
     sodipodi:insensitive="true"
     transform="translate(32.620572,-20.461324)"
     style="display:none">
    <rect
       style="opacity:1;fill:#2e3436;fill-opacity:1;fill-rule:evenodd;stroke:none;stroke-width:0.59860146;stroke-linecap:butt;stroke-linejoin:miter;marker:none;marker-start:none;marker-mid:none;marker-end:none;stroke-miterlimit:4;stroke-dasharray:none;stroke-dashoffset:0;stroke-opacity:1;visibility:visible;display:inline;overflow:visible;enable-background:accumulate"
       id="rect7223"
       width="1408.5714"
       height="1220"
       x="-97.14286"
       y="-39.066387" />
  </g>
  <g
     inkscape:groupmode="layer"
     id="layer4"
     inkscape:label="asdf"
     style="display:inline"
     transform="translate(32.620572,-20.461324)">
    <g
       id="g5305"
       transform="matrix(0.73545,0,0,0.73545,-271.32852,-325.35236)"
       inkscape:export-xdpi="90"
       inkscape:export-ydpi="90"
       style="fill:#eeeeec;display:inline;filter:url(#filter14833)">
      <rect
         ry="1.3216399"
         rx="1.2258692"
         y="532.47308"
         x="331.37256"
         height="2"
         width="189"
         id="rect4744"
         style="opacity:0.15882353;fill:#eeeeec;fill-opacity:1;fill-rule:nonzero;stroke:none;stroke-width:3;marker:none;marker-start:none;marker-mid:none;marker-end:none;visibility:visible;display:inline;overflow:visible;enable-background:accumulate" />
    </g>
    <g
       style="display:inline;filter:url(#filter14833)"
       id="opensuse-logo"
       transform="matrix(0.7264941,0,0,0.7264941,-316.30692,-106.31193)"
       inkscape:label="#g9326"
       inkscape:export-xdpi="90"
       inkscape:export-ydpi="90">
      <g
         id="g7135"
         transform="translate(0,-23.400052)">
        <g
           transform="matrix(0.7832073,0,0,0.7832073,368.82473,-100.57074)"
           style="fill:#000000;fill-opacity:1;filter:url(#filter9034);opacity:0.68446602"
           id="g8238">
          <path
             style="fill:#000000;fill-opacity:1;stroke:none"
             d="m 141.72658,385.83248 c -6.02344,0 -9.35885,5.10236 -9.35885,8.6369 l 0,4.53017 c 0,5.18966 4.24374,8.41293 8.18895,8.41293 l 13.81415,0 c 1.72999,0 2.09096,1.1323 2.09096,2.09063 l 0,2.92474 c 0,0.31096 -0.0497,3.12388 -2.09096,3.12388 l -18.85438,0 c -1.867,0 -3.22327,1.29415 -3.22327,3.07383 l 0,0.80894 c 0,1.76726 1.34385,3.07416 3.22327,3.07416 l 19.88759,0 c 5.18966,0 8.54993,-3.60941 8.54993,-9.20975 l 0,-4.89082 c 0,-5.2521 -3.78337,-7.604 -7.52945,-7.604 l -13.59017,0 c -2.05369,0 -2.97444,-1.51845 -2.97444,-2.61348 l 0,-2.68833 c 0,-1.70482 1.1323,-2.67559 3.12354,-2.67559 l 15.0589,0 c 1.84184,0 3.22328,-1.31931 3.22328,-3.07416 l 0,-0.80893 c 0,-1.74241 -1.4063,-3.07385 -3.28539,-3.07385 l -16.22881,0"
             id="path8240" />
          <path
             style="fill:#000000;fill-opacity:1;stroke:none"
             d="m 198.2655,385.83248 c -1.7797,0 -3.22326,1.44357 -3.22326,3.22326 l 0,23.14815 c 0,1.84181 -1.50601,3.33541 -3.33542,3.33541 l -10.50389,0 c -1.84183,0 -3.33543,-1.4936 -3.33543,-3.33541 l 0,-23.14815 c 0,-1.77969 -1.43113,-3.22326 -3.22326,-3.22326 l -1.02047,0 c -1.79212,0 -3.22327,1.41872 -3.22327,3.22326 l 0,24.03162 c 0,5.58792 4.39317,9.64527 10.45388,9.64527 l 11.22584,0 c 6.06071,0 10.45387,-4.05735 10.45387,-9.64527 l 0,-24.03162 c 0,-1.80454 -1.41871,-3.22326 -3.22326,-3.22326 l -1.02048,0"
             id="path8242" />
          <path
             style="fill:#000000;fill-opacity:1;stroke:none"
             d="m 218.38949,385.83248 c -6.02342,0 -9.35884,5.10236 -9.35884,8.6369 l 0,4.53017 c 0,5.18966 4.25617,8.41293 8.18895,8.41293 l 13.81414,0 c 1.73,0 2.1034,1.1323 2.1034,2.09063 l 0,2.92474 c 0,0.31096 -0.0621,3.12388 -2.1034,3.12388 l -18.85437,0 c -1.86699,0 -3.22327,1.29415 -3.22327,3.07383 l 0,0.80894 c 0,1.76726 1.35628,3.07416 3.22327,3.07416 l 19.87516,0 c 5.20209,0 8.54961,-3.60941 8.54961,-9.20975 l 0,-4.89082 c 0,-5.2521 -3.77061,-7.604 -7.52914,-7.604 l -13.59048,0 c -2.05337,0 -2.97412,-1.51845 -2.97412,-2.61348 l 0,-2.68833 c 0,-1.70482 1.1323,-2.67559 3.11112,-2.67559 l 15.05891,0 c 1.8294,0 3.22327,-1.31931 3.22327,-3.07416 l 0,-0.80893 c 0,-1.74241 -1.4063,-3.07385 -3.29813,-3.07385 l -16.21608,0"
             id="path8244" />
          <path
             style="fill:#000000;fill-opacity:1;stroke:none"
             d="m 250.16212,385.83248 c -1.77938,0 -3.1484,1.319 -3.1484,3.07383 l 0,30.52819 c 0,1.74241 1.319,3.07416 3.08627,3.07416 l 24.33046,0 c 1.86699,0 3.22359,-1.29447 3.22359,-3.07416 l 0,-0.80894 c 0,-1.76726 -1.34417,-3.07383 -3.22359,-3.07383 0,0 -19.02865,0 -19.92487,0 0,-0.7965 0,-6.98179 0,-7.77829 0.89622,0 14.59854,0 14.59854,0 1.86667,0 3.22326,-1.29446 3.22326,-3.08659 l 0,-0.79649 c 0,-1.7797 -1.35659,-3.08627 -3.22326,-3.08627 0,0 -13.70232,0 -14.59854,0 0,-0.79649 0,-7.19334 0,-7.98983 0.89622,0 18.91682,0 18.91682,0 1.867,0 3.22359,-1.29446 3.22359,-3.07416 l 0,-0.80892 c 0,-1.7797 -1.35659,-3.07384 -3.22359,-3.07384 l -23.24753,0"
             id="path8246" />
          <path
             style="fill:#000000;fill-opacity:1;stroke:none"
             d="m 43.309295,400.35583 c -3.036651,0 -5.513263,2.36463 -5.513263,5.28937 l 0,11.51195 c 0,2.96201 2.389494,5.37636 5.326597,5.37636 l 7.442252,0 c 2.937103,0 5.33902,-2.41435 5.33902,-5.37636 l 0,-11.51195 c 0,-2.91231 -2.476599,-5.28937 -5.513261,-5.28937 l -7.081345,0 z m -1.605453,16.35305 0,-10.50358 c 0,-1.23234 1.00808,-2.24039 2.240167,-2.24039 l 5.799492,0 c 1.207204,0 2.240134,1.02079 2.240134,2.24039 l 0,10.50358 c 0,1.23235 -1.008048,2.24038 -2.240134,2.24038 l -5.84929,0 c -1.232086,0 -2.190369,-0.98318 -2.190369,-2.24038"
             id="path8248" />
          <path
             style="fill:#000000;fill-opacity:1;stroke:none"
             d="m 72.779808,400.21914 c -2.15309,0 -3.75857,0.77165 -5.06534,1.39387 -0.78404,0.37309 -1.46852,0.69678 -2.00367,0.69678 -0.22401,0 -0.43559,-0.0994 -0.54761,-0.27368 l -0.485353,-0.94592 c -0.112019,-0.24883 -0.60983,-0.73436 -1.232086,-0.73436 l -0.721818,0 c -0.696936,0 -1.269427,0.62253 -1.269427,1.40628 l 0,29.18433 c 0,0.90832 0.709393,1.63027 1.630336,1.63027 l 0.634712,0 c 0.89606,0 1.630336,-0.73437 1.630336,-1.63027 l 0,-9.68255 c 0,-0.2861 0.18667,-0.58495 0.36091,-0.58495 0.53515,0 1.21963,0.29885 2.01613,0.67225 1.29431,0.58494 2.91222,1.33142 5.06531,1.33142 l 0.67192,0 c 3.79579,0 6.16044,-2.1652 6.16044,-5.65003 l 0,-11.13855 c 0,-3.43482 -2.41435,-5.66247 -6.16044,-5.66247 l -0.68435,0 0,0 0,-0.0124 z m -7.44238,16.26576 0,-10.0432 c 0,-1.38144 1.08276,-2.46436 2.46418,-2.46436 l 5.42615,0 c 1.38145,0 2.46405,1.08292 2.46405,2.46436 l 0,10.0432 c 0,1.35659 -1.09503,2.46436 -2.46405,2.46436 l -5.42615,0 c -1.35654,0 -2.46418,-1.10777 -2.46418,-2.46436"
             id="path8250" />
          <path
             style="fill:#000000;fill-opacity:1;stroke:none"
             d="m 90.650998,400.35583 c -3.03657,0 -5.51304,2.36463 -5.51304,5.28937 l 0,11.42465 c 0,2.96201 2.40191,5.47608 5.23936,5.47608 l 7.67887,0 c 0.94561,0 1.63028,-0.64739 1.63028,-1.54329 l 0,-0.49798 c 0,-0.8959 -0.68467,-1.54296 -1.63028,-1.54296 l -6.29743,0 c -1.76727,0 -2.70076,-0.85895 -2.70076,-2.51407 0,0 0,-2.87473 0,-3.33542 0.5104,0 11.375262,0 11.375262,0 1.81697,0 2.912,-1.11987 2.912,-3.01171 l 0,-4.43044 c 0,-2.91232 -2.47647,-5.28907 -5.513042,-5.28907 l -7.16848,0 -0.01274,-0.0252 z m -1.60543,5.79946 c 0,-1.21961 0.95835,-2.19038 2.19037,-2.19038 l 5.98616,0 c 1.23234,0 2.19037,0.95834 2.19037,2.19038 0,0 0,3.099 0,3.55939 -0.48522,0 -9.88135,0 -10.3669,0 0,-0.46039 0,-3.55939 0,-3.55939"
             id="path8252" />
          <path
             style="fill:#000000;fill-opacity:1;stroke:none"
             d="m 119.17581,400.21914 c -2.14066,0 -3.75851,0.75922 -5.05298,1.38145 -0.80892,0.37309 -1.5057,0.7092 -2.0658,0.7092 -0.24882,0 -0.34854,-0.0249 -0.53524,-0.36098 l -0.44795,-0.82135 c -0.24883,-0.51007 -0.68435,-0.77163 -1.28173,-0.77163 l -0.63497,0 c -0.7589,0 -1.30657,0.58493 -1.30657,1.40628 l 0,19.1408 c 0,0.90865 0.72163,1.64302 1.63027,1.64302 l 0.63465,0 c 0.89622,0 1.63027,-0.73437 1.63027,-1.64302 l 0,-14.48606 c 0,-1.35659 1.10777,-2.46436 2.46437,-2.46436 l 5.42606,0 c 1.35659,0 2.46405,1.10777 2.46405,2.46436 l 0,14.48606 c 0,0.90865 0.72194,1.64302 1.63059,1.64302 l 0.63465,0 c 0.8959,0 1.63027,-0.73437 1.63027,-1.64302 l 0,-15.02131 c 0,-3.43481 -2.41435,-5.66246 -6.16044,-5.66246 l -0.68435,0"
             id="path8254" />
        </g>
        <g
           id="g6881"
           style="fill:#eeeeec"
           transform="matrix(0.7832073,0,0,0.7832073,368.82473,-102.63546)">
          <path
             id="path9265"
             d="m 141.72658,385.83248 c -6.02344,0 -9.35885,5.10236 -9.35885,8.6369 l 0,4.53017 c 0,5.18966 4.24374,8.41293 8.18895,8.41293 l 13.81415,0 c 1.72999,0 2.09096,1.1323 2.09096,2.09063 l 0,2.92474 c 0,0.31096 -0.0497,3.12388 -2.09096,3.12388 l -18.85438,0 c -1.867,0 -3.22327,1.29415 -3.22327,3.07383 l 0,0.80894 c 0,1.76726 1.34385,3.07416 3.22327,3.07416 l 19.88759,0 c 5.18966,0 8.54993,-3.60941 8.54993,-9.20975 l 0,-4.89082 c 0,-5.2521 -3.78337,-7.604 -7.52945,-7.604 l -13.59017,0 c -2.05369,0 -2.97444,-1.51845 -2.97444,-2.61348 l 0,-2.68833 c 0,-1.70482 1.1323,-2.67559 3.12354,-2.67559 l 15.0589,0 c 1.84184,0 3.22328,-1.31931 3.22328,-3.07416 l 0,-0.80893 c 0,-1.74241 -1.4063,-3.07385 -3.28539,-3.07385 l -16.22881,0"
             style="fill:#eeeeec;fill-opacity:1;stroke:none" />
          <path
             id="path9267"
             d="m 198.2655,385.83248 c -1.7797,0 -3.22326,1.44357 -3.22326,3.22326 l 0,23.14815 c 0,1.84181 -1.50601,3.33541 -3.33542,3.33541 l -10.50389,0 c -1.84183,0 -3.33543,-1.4936 -3.33543,-3.33541 l 0,-23.14815 c 0,-1.77969 -1.43113,-3.22326 -3.22326,-3.22326 l -1.02047,0 c -1.79212,0 -3.22327,1.41872 -3.22327,3.22326 l 0,24.03162 c 0,5.58792 4.39317,9.64527 10.45388,9.64527 l 11.22584,0 c 6.06071,0 10.45387,-4.05735 10.45387,-9.64527 l 0,-24.03162 c 0,-1.80454 -1.41871,-3.22326 -3.22326,-3.22326 l -1.02048,0"
             style="fill:#eeeeec;fill-opacity:1;stroke:none" />
          <path
             id="path9269"
             d="m 218.38949,385.83248 c -6.02342,0 -9.35884,5.10236 -9.35884,8.6369 l 0,4.53017 c 0,5.18966 4.25617,8.41293 8.18895,8.41293 l 13.81414,0 c 1.73,0 2.1034,1.1323 2.1034,2.09063 l 0,2.92474 c 0,0.31096 -0.0621,3.12388 -2.1034,3.12388 l -18.85437,0 c -1.86699,0 -3.22327,1.29415 -3.22327,3.07383 l 0,0.80894 c 0,1.76726 1.35628,3.07416 3.22327,3.07416 l 19.87516,0 c 5.20209,0 8.54961,-3.60941 8.54961,-9.20975 l 0,-4.89082 c 0,-5.2521 -3.77061,-7.604 -7.52914,-7.604 l -13.59048,0 c -2.05337,0 -2.97412,-1.51845 -2.97412,-2.61348 l 0,-2.68833 c 0,-1.70482 1.1323,-2.67559 3.11112,-2.67559 l 15.05891,0 c 1.8294,0 3.22327,-1.31931 3.22327,-3.07416 l 0,-0.80893 c 0,-1.74241 -1.4063,-3.07385 -3.29813,-3.07385 l -16.21608,0"
             style="fill:#eeeeec;fill-opacity:1;stroke:none" />
          <path
             id="path9271"
             d="m 250.16212,385.83248 c -1.77938,0 -3.1484,1.319 -3.1484,3.07383 l 0,30.52819 c 0,1.74241 1.319,3.07416 3.08627,3.07416 l 24.33046,0 c 1.86699,0 3.22359,-1.29447 3.22359,-3.07416 l 0,-0.80894 c 0,-1.76726 -1.34417,-3.07383 -3.22359,-3.07383 0,0 -19.02865,0 -19.92487,0 0,-0.7965 0,-6.98179 0,-7.77829 0.89622,0 14.59854,0 14.59854,0 1.86667,0 3.22326,-1.29446 3.22326,-3.08659 l 0,-0.79649 c 0,-1.7797 -1.35659,-3.08627 -3.22326,-3.08627 0,0 -13.70232,0 -14.59854,0 0,-0.79649 0,-7.19334 0,-7.98983 0.89622,0 18.91682,0 18.91682,0 1.867,0 3.22359,-1.29446 3.22359,-3.07416 l 0,-0.80892 c 0,-1.7797 -1.35659,-3.07384 -3.22359,-3.07384 l -23.24753,0"
             style="fill:#eeeeec;fill-opacity:1;stroke:none" />
          <path
             id="path9273"
             d="m 43.309295,400.35583 c -3.036651,0 -5.513263,2.36463 -5.513263,5.28937 l 0,11.51195 c 0,2.96201 2.389494,5.37636 5.326597,5.37636 l 7.442252,0 c 2.937103,0 5.33902,-2.41435 5.33902,-5.37636 l 0,-11.51195 c 0,-2.91231 -2.476599,-5.28937 -5.513261,-5.28937 l -7.081345,0 z m -1.605453,16.35305 0,-10.50358 c 0,-1.23234 1.00808,-2.24039 2.240167,-2.24039 l 5.799492,0 c 1.207204,0 2.240134,1.02079 2.240134,2.24039 l 0,10.50358 c 0,1.23235 -1.008048,2.24038 -2.240134,2.24038 l -5.84929,0 c -1.232086,0 -2.190369,-0.98318 -2.190369,-2.24038"
             style="fill:#eeeeec;fill-opacity:1;stroke:none" />
          <path
             id="path9275"
             d="m 72.779808,400.21914 c -2.15309,0 -3.75857,0.77165 -5.06534,1.39387 -0.78404,0.37309 -1.46852,0.69678 -2.00367,0.69678 -0.22401,0 -0.43559,-0.0994 -0.54761,-0.27368 l -0.485353,-0.94592 c -0.112019,-0.24883 -0.60983,-0.73436 -1.232086,-0.73436 l -0.721818,0 c -0.696936,0 -1.269427,0.62253 -1.269427,1.40628 l 0,29.18433 c 0,0.90832 0.709393,1.63027 1.630336,1.63027 l 0.634712,0 c 0.89606,0 1.630336,-0.73437 1.630336,-1.63027 l 0,-9.68255 c 0,-0.2861 0.18667,-0.58495 0.36091,-0.58495 0.53515,0 1.21963,0.29885 2.01613,0.67225 1.29431,0.58494 2.91222,1.33142 5.06531,1.33142 l 0.67192,0 c 3.79579,0 6.16044,-2.1652 6.16044,-5.65003 l 0,-11.13855 c 0,-3.43482 -2.41435,-5.66247 -6.16044,-5.66247 l -0.68435,0 0,0 0,-0.0124 z m -7.44238,16.26576 0,-10.0432 c 0,-1.38144 1.08276,-2.46436 2.46418,-2.46436 l 5.42615,0 c 1.38145,0 2.46405,1.08292 2.46405,2.46436 l 0,10.0432 c 0,1.35659 -1.09503,2.46436 -2.46405,2.46436 l -5.42615,0 c -1.35654,0 -2.46418,-1.10777 -2.46418,-2.46436"
             style="fill:#eeeeec;fill-opacity:1;stroke:none" />
          <path
             id="path9277"
             d="m 90.650998,400.35583 c -3.03657,0 -5.51304,2.36463 -5.51304,5.28937 l 0,11.42465 c 0,2.96201 2.40191,5.47608 5.23936,5.47608 l 7.67887,0 c 0.94561,0 1.63028,-0.64739 1.63028,-1.54329 l 0,-0.49798 c 0,-0.8959 -0.68467,-1.54296 -1.63028,-1.54296 l -6.29743,0 c -1.76727,0 -2.70076,-0.85895 -2.70076,-2.51407 0,0 0,-2.87473 0,-3.33542 0.5104,0 11.375262,0 11.375262,0 1.81697,0 2.912,-1.11987 2.912,-3.01171 l 0,-4.43044 c 0,-2.91232 -2.47647,-5.28907 -5.513042,-5.28907 l -7.16848,0 -0.01274,-0.0252 z m -1.60543,5.79946 c 0,-1.21961 0.95835,-2.19038 2.19037,-2.19038 l 5.98616,0 c 1.23234,0 2.19037,0.95834 2.19037,2.19038 0,0 0,3.099 0,3.55939 -0.48522,0 -9.88135,0 -10.3669,0 0,-0.46039 0,-3.55939 0,-3.55939"
             style="fill:#eeeeec;fill-opacity:1;stroke:none" />
          <path
             id="path9279"
             d="m 119.17581,400.21914 c -2.14066,0 -3.75851,0.75922 -5.05298,1.38145 -0.80892,0.37309 -1.5057,0.7092 -2.0658,0.7092 -0.24882,0 -0.34854,-0.0249 -0.53524,-0.36098 l -0.44795,-0.82135 c -0.24883,-0.51007 -0.68435,-0.77163 -1.28173,-0.77163 l -0.63497,0 c -0.7589,0 -1.30657,0.58493 -1.30657,1.40628 l 0,19.1408 c 0,0.90865 0.72163,1.64302 1.63027,1.64302 l 0.63465,0 c 0.89622,0 1.63027,-0.73437 1.63027,-1.64302 l 0,-14.48606 c 0,-1.35659 1.10777,-2.46436 2.46437,-2.46436 l 5.42606,0 c 1.35659,0 2.46405,1.10777 2.46405,2.46436 l 0,14.48606 c 0,0.90865 0.72194,1.64302 1.63059,1.64302 l 0.63465,0 c 0.8959,0 1.63027,-0.73437 1.63027,-1.64302 l 0,-15.02131 c 0,-3.43481 -2.41435,-5.66246 -6.16044,-5.66246 l -0.68435,0"
             style="fill:#eeeeec;fill-opacity:1;stroke:none" />
        </g>
        <path
           style="font-size:8.03233433px;font-style:normal;font-variant:normal;font-weight:normal;font-stretch:normal;text-indent:0;text-align:start;text-decoration:none;line-height:125%;letter-spacing:normal;word-spacing:normal;text-transform:none;direction:ltr;block-progression:tb;writing-mode:lr-tb;text-anchor:start;fill:#f1f2f0;fill-opacity:1;fill-rule:evenodd;stroke:none;stroke-width:0.59860146;marker:none;marker-start:none;marker-mid:none;marker-end:none;visibility:visible;display:inline;overflow:visible;enable-background:accumulate;font-family:Sans;-inkscape-font-specification:Sans"
           d="m 590.39979,199.35287 c 0.49679,1e-5 0.98182,0.12813 1.45508,0.38436 0.47325,0.25363 0.84193,0.61838 1.10602,1.09425 0.26407,0.47326 0.39612,0.96744 0.39612,1.48253 0,0.50987 -0.13074,1.00012 -0.3922,1.47076 -0.25886,0.47065 -0.62361,0.83671 -1.09425,1.09817 -0.46804,0.25886 -0.95829,0.38829 -1.47077,0.38829 -0.51248,0 -1.00404,-0.12943 -1.47468,-0.38829 -0.46803,-0.26146 -0.83278,-0.62752 -1.09425,-1.09817 -0.26147,-0.47064 -0.3922,-0.96089 -0.3922,-1.47076 0,-0.51509 0.13204,-1.00927 0.39612,-1.48253 0.2667,-0.47587 0.63668,-0.84062 1.10994,-1.09425 0.47326,-0.25623 0.95828,-0.38435 1.45507,-0.38436 m 0,0.49025 c -0.41573,1e-5 -0.82101,0.10721 -1.21583,0.32161 -0.3922,0.2118 -0.69943,0.51641 -0.92168,0.91384 -0.22225,0.39482 -0.33337,0.80663 -0.33337,1.23544 0,0.4262 0.10851,0.8354 0.32553,1.2276 0.21963,0.38959 0.52555,0.6942 0.91776,0.91383 0.3922,0.21702 0.8014,0.32553 1.22759,0.32553 0.4262,0 0.83539,-0.10851 1.2276,-0.32553 0.3922,-0.21963 0.69681,-0.52424 0.91384,-0.91383 0.21701,-0.3922 0.32552,-0.8014 0.32553,-1.2276 -10e-6,-0.42881 -0.11113,-0.84062 -0.33338,-1.23544 -0.21964,-0.39743 -0.52686,-0.70204 -0.92168,-0.91384 -0.39482,-0.2144 -0.79879,-0.3216 -1.21191,-0.32161 m -1.29819,4.10638 0,-3.1847 1.09425,0 c 0.3739,1e-5 0.64452,0.0301 0.81186,0.0902 0.16734,0.0575 0.30069,0.1595 0.40005,0.30592 0.0993,0.14643 0.14903,0.302 0.14904,0.46672 -10e-6,0.23271 -0.0837,0.43535 -0.25101,0.60792 -0.16473,0.17257 -0.38437,0.26931 -0.65891,0.29023 0.11243,0.0471 0.20264,0.10328 0.27062,0.16865 0.12812,0.1255 0.285,0.33599 0.47065,0.63144 l 0.38828,0.62361 -0.62753,0 -0.28238,-0.50202 c -0.22226,-0.39482 -0.40136,-0.64191 -0.53732,-0.74127 -0.0941,-0.0732 -0.23141,-0.10981 -0.41182,-0.10981 l -0.30199,0 0,1.3531 -0.51379,0 m 0.51379,-1.79237 0.6236,0 c 0.29807,0 0.50071,-0.0444 0.60792,-0.13335 0.10981,-0.0889 0.16472,-0.20656 0.16472,-0.35299 0,-0.0941 -0.0261,-0.17779 -0.0784,-0.25101 -0.0523,-0.0758 -0.12551,-0.13203 -0.21963,-0.16864 -0.0915,-0.0366 -0.26278,-0.0549 -0.51379,-0.0549 l -0.58438,0 0,0.9609"
           id="text7129" />
      </g>
    </g>
    <g
       style="fill:#eeeeec;display:inline;filter:url(#filter14833)"
       inkscape:export-ydpi="90"
       inkscape:export-xdpi="90"
       transform="matrix(0.73545,0,0,0.73545,-121.32852,-325.35236)"
       id="g7245">
      <rect
         style="opacity:0.15882353;fill:#eeeeec;fill-opacity:1;fill-rule:nonzero;stroke:none;stroke-width:3;marker:none;marker-start:none;marker-mid:none;marker-end:none;visibility:visible;display:inline;overflow:visible;enable-background:accumulate"
         id="rect7247"
         width="189"
         height="2"
         x="331.37256"
         y="532.47308"
         rx="1.2258692"
         ry="1.3216399" />
      <rect
         ry="0.720357"
         rx="0.720357"
         y="531.47308"
         x="331.37256"
         height="4"
         width="54.38847"
         id="rect7249"
         style="fill:#eeeeec;fill-opacity:1;fill-rule:nonzero;stroke:none;stroke-width:3;marker:none;marker-start:none;marker-mid:none;marker-end:none;visibility:visible;display:inline;overflow:visible;enable-background:accumulate" />
    </g>
    <g
       id="g7277"
       transform="matrix(0.73545,0,0,0.73545,28.67148,-325.35236)"
       inkscape:export-xdpi="90"
       inkscape:export-ydpi="90"
       style="fill:#eeeeec;display:inline;filter:url(#filter14833)">
      <rect
         ry="1.3216399"
         rx="1.2258692"
         y="532.47308"
         x="331.37256"
         height="2"
         width="189"
         id="rect7279"
         style="opacity:0.15882353;fill:#eeeeec;fill-opacity:1;fill-rule:nonzero;stroke:none;stroke-width:3;marker:none;marker-start:none;marker-mid:none;marker-end:none;visibility:visible;display:inline;overflow:visible;enable-background:accumulate" />
      <rect
         style="fill:#eeeeec;fill-opacity:1;fill-rule:nonzero;stroke:none;stroke-width:3;marker:none;marker-start:none;marker-mid:none;marker-end:none;visibility:visible;display:inline;overflow:visible;enable-background:accumulate"
         id="rect7281"
         width="99.258957"
         height="4"
         x="331.37256"
         y="531.47308"
         rx="1.0286222"
         ry="1.0286222" />
    </g>
    <g
       style="fill:#eeeeec;display:inline;filter:url(#filter14833)"
       inkscape:export-ydpi="90"
       inkscape:export-xdpi="90"
       transform="matrix(0.73545,0,0,0.73545,178.67148,-325.35236)"
       id="g7309">
      <rect
         style="opacity:0.15882353;fill:#eeeeec;fill-opacity:1;fill-rule:nonzero;stroke:none;stroke-width:3;marker:none;marker-start:none;marker-mid:none;marker-end:none;visibility:visible;display:inline;overflow:visible;enable-background:accumulate"
         id="rect7311"
         width="189"
         height="2"
         x="331.37256"
         y="532.47308"
         rx="1.2258692"
         ry="1.3216399" />
      <rect
         ry="0.94364011"
         rx="0.94364011"
         y="531.47308"
         x="331.37256"
         height="4"
         width="152.28772"
         id="rect7313"
         style="fill:#eeeeec;fill-opacity:1;fill-rule:nonzero;stroke:none;stroke-width:3;marker:none;marker-start:none;marker-mid:none;marker-end:none;visibility:visible;display:inline;overflow:visible;enable-background:accumulate" />
    </g>
    <g
       id="g7341"
       transform="matrix(0.73545,0,0,0.73545,328.67148,-325.35236)"
       inkscape:export-xdpi="90"
       inkscape:export-ydpi="90"
       style="fill:#eeeeec;display:inline;filter:url(#filter14833)">
      <rect
         style="fill:#eeeeec;fill-opacity:1;fill-rule:nonzero;stroke:none;stroke-width:3;marker:none;marker-start:none;marker-mid:none;marker-end:none;visibility:visible;display:inline;overflow:visible;enable-background:accumulate"
         id="rect7345"
         width="189.08492"
         height="4"
         x="331.37256"
         y="531.47308"
         rx="0.85865813"
         ry="0.85865813" />
    </g>
    <use
       x="0"
       y="0"
       xlink:href="#opensuse-logo"
       id="use8230"
       transform="translate(150,0)"
       width="750"
       height="50" />
    <use
       x="0"
       y="0"
       xlink:href="#opensuse-logo"
       id="use8232"
       transform="translate(300,0)"
       width="750"
       height="50" />
    <use
       x="0"
       y="0"
       xlink:href="#opensuse-logo"
       id="use8234"
       transform="translate(450,0)"
       width="750"
       height="50" />
    <use
       x="0"
       y="0"
       xlink:href="#opensuse-logo"
       id="use8236"
       transform="translate(600,0)"
       width="750"
       height="50" />
  </g>
</svg>
