<?xml version="1.0" encoding="UTF-8" standalone="no"?>
<!-- Created with Inkscape (http://www.inkscape.org/) -->
<svg
   xmlns:dc="http://purl.org/dc/elements/1.1/"
   xmlns:cc="http://creativecommons.org/ns#"
   xmlns:rdf="http://www.w3.org/1999/02/22-rdf-syntax-ns#"
   xmlns:svg="http://www.w3.org/2000/svg"
   xmlns="http://www.w3.org/2000/svg"
   xmlns:sodipodi="http://sodipodi.sourceforge.net/DTD/sodipodi-0.dtd"
   xmlns:inkscape="http://www.inkscape.org/namespaces/inkscape"
   width="1000"
   height="1000"
   id="svg2"
   sodipodi:version="0.32"
   inkscape:version="0.46"
   version="1.0"
   sodipodi:docname="Q.svg"
   inkscape:output_extension="org.inkscape.output.svg.inkscape"
   style="display:inline">
  <defs
     id="defs4">
    <inkscape:perspective
       sodipodi:type="inkscape:persp3d"
       inkscape:vp_x="0 : 526.18109 : 1"
       inkscape:vp_y="0 : 1000 : 0"
       inkscape:vp_z="744.09448 : 526.18109 : 1"
       inkscape:persp3d-origin="372.04724 : 350.78739 : 1"
       id="perspective10" />
    <inkscape:perspective
       id="perspective8089"
       inkscape:persp3d-origin="0.5 : 0.33333333 : 1"
       inkscape:vp_z="1 : 0.5 : 1"
       inkscape:vp_y="0 : 1000 : 0"
       inkscape:vp_x="0 : 0.5 : 1"
       sodipodi:type="inkscape:persp3d" />
    <inkscape:perspective
       id="perspective8102"
       inkscape:persp3d-origin="0.5 : 0.33333333 : 1"
       inkscape:vp_z="1 : 0.5 : 1"
       inkscape:vp_y="0 : 1000 : 0"
       inkscape:vp_x="0 : 0.5 : 1"
       sodipodi:type="inkscape:persp3d" />
    <inkscape:perspective
       id="perspective9638"
       inkscape:persp3d-origin="372.04724 : 350.78739 : 1"
       inkscape:vp_z="744.09448 : 526.18109 : 1"
       inkscape:vp_y="0 : 1000 : 0"
       inkscape:vp_x="0 : 526.18109 : 1"
       sodipodi:type="inkscape:persp3d" />
  </defs>
  <sodipodi:namedview
     id="base"
     pagecolor="#ffffff"
     bordercolor="#666666"
     borderopacity="1.0"
     gridtolerance="10000"
     guidetolerance="10"
     objecttolerance="10"
     inkscape:pageopacity="0.0"
     inkscape:pageshadow="2"
     inkscape:zoom="0.70710678"
     inkscape:cx="832.47541"
     inkscape:cy="423.17214"
     inkscape:document-units="px"
     inkscape:current-layer="layer1"
     showgrid="true"
     borderlayer="true"
     inkscape:showpageshadow="false"
     inkscape:snap-bbox="true"
     inkscape:snap-nodes="true"
     showguides="true"
     inkscape:guide-bbox="true"
     inkscape:window-width="1239"
     inkscape:window-height="1030"
     inkscape:window-x="239"
     inkscape:window-y="129">
    <sodipodi:guide
       orientation="0,1"
       position="565.71429,200"
       id="guide8078" />
    <sodipodi:guide
       orientation="0,1"
       position="880,800"
       id="guide8080" />
    <inkscape:grid
       type="xygrid"
       id="grid8979"
       visible="true"
       enabled="true" />
    <sodipodi:guide
       orientation="0,1"
       position="1357.645,620"
       id="guide8993" />
    <sodipodi:guide
       orientation="0,1"
       position="870,510"
       id="guide8997" />
    <sodipodi:guide
       orientation="0,1"
       position="597,310"
       id="guide8999" />
    <sodipodi:guide
       orientation="-0.37460659,0.92718385"
       position="460,186"
       id="guide9513" />
    <sodipodi:guide
       orientation="0.37460659,0.92718385"
       position="658,384"
       id="guide9515" />
    <sodipodi:guide
       orientation="1,0"
       position="515,375"
       id="guide9625" />
    <sodipodi:guide
       orientation="-0.27563736,0.9612617"
       position="398,724"
       id="guide9962" />
    <sodipodi:guide
       orientation="0,1"
       position="602.45498,438.4062"
       id="guide14482" />
  </sodipodi:namedview>
  <metadata
     id="metadata7">
    <rdf:RDF>
      <cc:Work
         rdf:about="">
        <dc:format>image/svg+xml</dc:format>
        <dc:type
           rdf:resource="http://purl.org/dc/dcmitype/StillImage" />
      </cc:Work>
    </rdf:RDF>
  </metadata>
  <g
     inkscape:label="Layer 1"
     inkscape:groupmode="layer"
     id="layer1"
     style="display:inline">
    <g
       id="g9629"
       transform="matrix(0.8901714,0,0,-0.8901714,-42.22279,801.94124)" />
    <path
       style="display:inline;opacity:1;fill:#000000;fill-opacity:1;fill-rule:nonzero;stroke:none;stroke-width:1;stroke-linecap:butt;stroke-linejoin:miter;marker:none;marker-start:none;marker-mid:none;marker-end:none;stroke-miterlimit:4;stroke-dasharray:none;stroke-dashoffset:0;stroke-opacity:1;visibility:visible;overflow:visible;enable-background:accumulate"
       d="M 431.15625,200 C 358.48958,200 300,258.48958 300,331.15625 L 300,668.84375 C 300,741.51042 358.48958,800 431.15625,800 L 600,800 C 618.67711,800 636.41716,796.13168 652.46875,789.15625 L 730.9375,841.90625 L 731,841.8125 C 747.98622,853.71046 771.54214,850.69232 784.875,834.375 C 784.87502,834.37503 808.65625,806.6875 808.65625,806.6875 C 808.65625,806.6875 763.30435,761.96026 720.84375,720.0625 C 727.4798,704.34313 731.15625,687.03536 731.15625,668.84375 L 731.15625,331.15625 C 731.15625,258.48958 672.66664,200 600,200 L 431.15625,200 z M 420,310 L 611.15625,310 C 616.65625,310 621.09375,314.4375 621.09375,319.9375 L 621.09375,647.5 C 595.99866,649.63448 577.09963,666.34647 570.21875,690 L 420,690 C 414.5,690 410.0625,685.5625 410.0625,680.0625 L 410.0625,319.9375 C 410.0625,314.4375 414.5,310 420,310 z"
       id="rect10077"
       sodipodi:nodetypes="ccccccccsccccccccccccccc" />
    <path
       sodipodi:nodetypes="cccccccccccccccccc"
       id="path8235"
       d="M 1971.1562,200 C 1898.4896,200 1840,258.48958 1840,331.15625 L 1840,668.84375 C 1840,741.51042 1898.4896,800 1971.1562,800 L 2140,800 C 2212.6667,800 2271.1562,741.51039 2271.1562,668.84375 L 2271.1562,331.15625 C 2271.1562,258.48958 2212.6666,200 2140,200 L 1971.1562,200 z M 1960,310 L 2151.1562,310 C 2156.6562,310 2161.0938,314.4375 2161.0938,319.9375 L 2161.0938,680.0625 C 2161.0938,685.5625 2156.6562,690 2151.1562,690 L 1960,690 C 1954.5,690 1950.0625,685.5625 1950.0625,680.0625 L 1950.0625,319.9375 C 1950.0625,314.4375 1954.5,310 1960,310 z"
       style="opacity:1;fill:#000000;fill-opacity:1;fill-rule:nonzero;stroke:none;stroke-width:1;stroke-linecap:butt;stroke-linejoin:miter;marker:none;marker-start:none;marker-mid:none;marker-end:none;stroke-miterlimit:4;stroke-dasharray:none;stroke-dashoffset:0;stroke-opacity:1;visibility:visible;display:inline;overflow:visible;enable-background:accumulate" />
    <path
       sodipodi:nodetypes="ccccccsccc"
       id="path8237"
       d="M 2121.2264,667.95123 C 2101.8808,691.6272 2105.1721,726.39728 2128.423,746.06789 L 2128.4033,746.09209 L 2128.5682,746.18652 L 2270.944,841.8999 L 2271.0033,841.8273 C 2287.9896,853.72523 2311.5524,850.67788 2324.8853,834.36056 C 2324.8853,834.36056 2348.6657,806.69507 2348.6657,806.69507 C 2348.6657,806.69507 2200,660 2200,660 C 2176.072,640.44847 2140.7779,644.02325 2121.2264,667.95123 z"
       style="fill:#000000;fill-opacity:1;fill-rule:nonzero;stroke:none;stroke-width:1.04586792;stroke-linecap:butt;stroke-linejoin:miter;marker:none;marker-start:none;marker-mid:none;marker-end:none;stroke-miterlimit:4;stroke-dashoffset:0;stroke-opacity:1;visibility:visible;display:inline;overflow:visible;enable-background:accumulate" />
  </g>
</svg>
