/* XPM */
static char * desktop_xpm[] = {
"20 20 3 1",
" 	c None",
".	c #222222",
"+	c #73BA25",
"                    ",
"                    ",
"                    ",
" ...................",
" ...................",
" +++++++++++++++++++",
" +++++++++++++++++++",
" +++++++++++++++++++",
" +++++++++++++++++++",
" +++++++++++++++++++",
" +++++++++++++++++++",
" +++++++++++++++++++",
" +++++++++++++++++++",
" +++++++++++++++++++",
" +++++++++++++++++++",
" +++++++++++++++++++",
" ++++++.......++++++",
" ++++++.......++++++",
"                    ",
"                    "};
