/* XPM */
static char * linux_backup_xpm[] = {
"60 20 3 1",
" 	c None",
".	c #333333",
"+	c #3B7DDD",
"............................................................",
"..........................++++++............................",
"..........................++++++............................",
"..........................++++++............................",
"..........................++++++............................",
"..........................++++++............................",
"..........................++++++............................",
"....................++++++..................................",
"....................++++++..................................",
"....................++++++..................................",
"....................++++++..................................",
"....................++++++..................................",
"....................++++++..................................",
"..........................++++++............................",
"..........................++++++............................",
"..........................++++++............................",
"..........................++++++............................",
"..........................++++++............................",
"..........................++++++............................",
"............................................................"};
