/* XPM */
static char * start_xpm[] = {
"22 22 3 1",
" 	c None",
".	c #333333",
"+	c #FFFFFF",
"......................",
"......................",
"..++++...++++...++++..",
"..++++...++++...++++..",
"..++++...++++...++++..",
"..++++...++++...++++..",
"......................",
"......................",
"......................",
"..++++...++++...++++..",
"..++++...++++...++++..",
"..++++...++++...++++..",
"..++++...++++...++++..",
"......................",
"......................",
"......................",
"..++++...++++...++++..",
"..++++...++++...++++..",
"..++++...++++...++++..",
"..++++...++++...++++..",
"......................",
"......................"};
