/* XPM */
static char * taskbarbg_xpm[] = {
"4 25 3 1",
" 	c None",
".	c #222222",
"+	c #333333",
"....",
"++++",
"++++",
"++++",
"++++",
"++++",
"++++",
"++++",
"++++",
"++++",
"++++",
"++++",
"++++",
"++++",
"++++",
"++++",
"++++",
"++++",
"++++",
"++++",
"++++",
"++++",
"++++",
"++++",
"++++"};
