/* XPM */
static char * windows_xpm[] = {
"20 20 5 1",
" 	c None",
".	c #B2B2B2",
"+	c #E0E0E0",
"@	c #C3C3C3",
"#	c #FFFFFF",
"                    ",
"   ................ ",
"   ................ ",
"   ................ ",
"   ++++++++++++++++ ",
"   ++++++++++++++++ ",
" @@@@@@@@@@@@@@@@++ ",
" @@@@@@@@@@@@@@@@++ ",
" @@@@@@@@@@@@@@@@++ ",
" ################++ ",
" ################++ ",
" ################++ ",
" ################++ ",
" ################++ ",
" ################   ",
" ################   ",
" ################   ",
" ################   ",
" ################   ",
"                    "};
