<?xml version="1.0" encoding="UTF-8" standalone="no"?>
<svg
   xmlns:dc="http://purl.org/dc/elements/1.1/"
   xmlns:cc="http://creativecommons.org/ns#"
   xmlns:rdf="http://www.w3.org/1999/02/22-rdf-syntax-ns#"
   xmlns:svg="http://www.w3.org/2000/svg"
   xmlns="http://www.w3.org/2000/svg"
   id="svg8"
   version="1.1"
   viewBox="0 0 180 80.000003"
   height="80"
   width="180">
  <defs
     id="defs2" />
  <metadata
     id="metadata5">
    <rdf:RDF>
      <cc:Work
         rdf:about="">
        <dc:format>image/svg+xml</dc:format>
        <dc:type
           rdf:resource="http://purl.org/dc/dcmitype/StillImage" />
        <dc:title></dc:title>
      </cc:Work>
    </rdf:RDF>
  </metadata>
  <g
     transform="translate(0,-1042.5197)"
     id="layer1">
    <g
       transform="matrix(0.21093748,0,0,0.20866795,-0.10703504,1063.6144)"
       id="g887">
      <path
         id="Geeko"
         style="fill:#ffffff"
         d="m 281.36486,27.426451 c -3.31129,-0.119262 -6.45069,1.050561 -8.84997,3.300759 -2.39927,2.250199 -3.81464,5.298403 -3.91461,8.599162 -0.22975,6.820751 5.11074,12.559372 11.91571,12.810173 3.30953,0.09997 6.46472,-1.069853 8.87802,-3.320051 2.4098,-2.260722 3.79535,-5.31068 3.90058,-8.599162 0.22976,-6.818997 -5.10898,-12.548849 -11.92973,-12.790881 z m 2.02044,13.511716 c -3.03067,0 -5.47905,-1.639856 -5.47905,-3.649777 0,-2.029213 2.44838,-3.6603 5.47905,-3.6603 3.03066,0 5.48606,1.631087 5.48606,3.6603 -0.002,2.009921 -2.45715,3.649777 -5.48606,3.649777 z m 27.15322,15.798746 c 0.80502,-0.531419 1.39607,-0.971637 1.64511,-1.069853 l 0.26834,-0.419172 c -0.68049,-4.279412 -7.05927,-25.029296 -11.88413,-30.01902 -1.32943,-1.359239 -2.39402,-2.699186 -4.54951,-3.960209 C 278.56395,11.098041 237.15538,4.9595405 235.21561,4.6789233 l -0.32972,0.091201 -0.12453,0.2999096 c 0,0 -0.1596,8.5798691 -0.18415,9.5392291 -4.22855,-1.420625 -34.97192,-11.3509636 -63.7913,-12.3506622 -24.44,-0.85939 -60.03277,-4.0198407 -107.195749,24.9801872 l -1.394316,0.86816 C 40.006043,41.948389 24.686101,59.016927 16.677989,78.846037 c -2.511524,6.240224 -5.889453,20.320189 -2.541339,33.568823 1.44167,5.79124 4.130333,11.61054 7.755556,16.81949 8.194021,11.77014 21.944262,19.58007 36.74857,20.89897 20.904224,1.86961 36.732785,-7.51879 42.362664,-25.09945 3.87077,-12.12968 0,-29.927823 -14.839383,-39.007542 C 74.094012,78.635574 61.115469,80.315769 53.58616,85.296723 47.054795,89.626997 43.355911,96.356547 43.420803,103.7473 c 0.150832,13.11008 11.443919,20.07816 19.564277,20.0992 2.358938,0 4.728399,-0.4104 7.399524,-1.28031 0.950591,-0.28939 1.845058,-0.64893 2.830725,-1.25927 l 0.308679,-0.18065 0.194679,-0.12978 -0.06489,0.0386 c 1.850319,-1.26102 2.964018,-3.31128 2.964018,-5.51062 0,-0.59982 -0.08419,-1.20841 -0.256063,-1.8205 -0.95936,-3.32005 -4.239073,-5.32822 -7.638048,-4.70911 l -0.45951,0.10874 -0.620866,0.18942 -0.901482,0.31043 c -1.869612,0.45951 -3.26919,0.49985 -3.5691,0.51037 -0.95059,-0.0614 -5.62462,-1.46096 -5.62462,-6.58047 v -0.0702 c 0,-1.88014 0.754159,-3.19904 1.169823,-3.919875 1.453947,-2.280014 5.435203,-4.517936 10.814283,-4.049656 7.059276,0.610342 12.148969,4.230304 15.519883,11.059821 3.128881,6.34897 2.30983,14.15889 -2.10989,19.87997 -4.389905,5.66847 -12.205093,8.07827 -22.59845,6.95931 -10.481051,-1.1593 -19.339784,-7.19082 -24.3032,-16.57921 -4.85643,-9.17794 -5.121263,-20.058868 -0.685758,-28.417751 10.609082,-20.029049 30.648655,-19.82034 41.63657,-17.920913 16.26001,2.820203 34.757943,17.819189 41.319123,35.138534 1.05933,2.76057 1.59951,4.94938 2.0713,6.95053 l 0.70856,2.99033 18.3699,8.96922 0.24028,0.18065 0.44548,-0.0403 0.0807,-0.52966 c -0.11401,-0.41041 -0.38059,-0.78924 -0.80503,-5.92979 -0.34901,-4.56179 -1.05932,-17.051 5.22825,-23.240366 2.44137,-2.418569 6.1613,-4.577567 9.09901,-5.268587 12.04023,-2.941218 26.15878,-0.912006 39.50739,14.539473 6.9102,7.98005 10.27936,11.61931 11.97008,13.24864 l 0.58929,0.53142 0.69453,0.51914 c 0.55422,0.30166 22.95448,10.62136 22.95448,10.62136 l 0.46127,-0.11049 0.009,-0.47881 c -0.14908,-0.17012 -14.19923,-18.3278 -11.69823,-33.279436 1.96958,-11.90869 11.44743,-10.830068 24.55751,-9.349813 4.27941,0.49985 9.15163,1.05933 14.19572,1.171577 14.08347,0.08945 29.25434,-2.511524 38.60415,-6.601519 6.04905,-2.629032 9.90929,-4.379381 12.32786,-6.578718 0.86991,-0.720835 1.32066,-1.890658 1.79069,-3.149928 l 0.32972,-0.831328 c 0.39112,-1.020745 0.96638,-3.170974 1.21894,-4.349566 0.10172,-0.519141 0.16135,-1.068099 -0.20871,-1.359239 l -1.29435,0.240278 c -4.10578,2.471185 -14.36935,7.150476 -23.9647,7.350416 -11.91421,0.240268 -35.8982,-11.980609 -38.3992,-13.280217 l -0.24028,-0.278863 c -0.5893,-1.439917 -4.18997,-9.949632 -4.95991,-11.749089 17.27023,11.379025 31.59398,17.668357 42.5591,18.63824 12.20684,1.087391 21.72152,-5.573758 25.78521,-8.422022 z M 263.19139,39.298311 c 0.17538,-4.730153 2.15549,-9.120058 5.61409,-12.34014 3.46036,-3.230605 7.97479,-4.900277 12.70845,-4.749445 9.76022,0.349018 17.42984,8.588639 17.09485,18.338331 -0.18416,4.730153 -2.16426,9.120057 -5.6141,12.329616 -3.46036,3.249897 -7.96426,4.919569 -12.71897,4.759968 -9.74969,-0.35954 -17.41054,-8.579869 -17.08432,-18.33833 z" />
      <path
         style="fill:#ffffff"
         d="m 134.48633,141.73234 c -7.78362,0 -12.06478,6.58047 -12.06478,11.12998 v 5.84034 c 0,6.69974 5.47379,10.85112 10.54945,10.85112 h 17.81919 c 2.24493,0 2.71497,1.46973 2.71497,2.70971 v 3.76904 c 0,0.39988 -0.0807,4.01984 -2.71497,4.01984 h -24.3032 c -2.41506,0 -4.16015,1.68019 -4.16015,3.9795 v 1.04179 c 0,2.29054 1.74509,3.96021 4.16015,3.96021 h 25.62385 c 6.69798,0 11.01949,-4.66 11.01949,-11.87888 v -6.3016 c 0,-6.77866 -4.87046,-9.80933 -9.70585,-9.80933 h -17.53331 c -2.63955,0 -3.83569,-1.9801 -3.83569,-3.37968 v -3.47965 c 0,-2.19057 1.46448,-3.46036 4.02511,-3.46036 h 19.40818 c 2.37998,0 4.17067,-1.71001 4.17067,-3.97074 v -1.04003 c 0,-2.2695 -1.8205,-3.98126 -4.25135,-3.98126 z"
         id="path865" />
      <path
         style="fill:#ffffff"
         d="m 207.34857,141.73234 c -2.30106,0 -4.15488,1.86961 -4.15488,4.17067 v 29.83838 c 0,2.3905 -1.95029,4.31098 -4.31098,4.31098 h -13.54504 c -2.36946,0 -4.30923,-1.92048 -4.30923,-4.31098 v -29.83838 c 0,-2.30106 -1.86961,-4.17067 -4.16892,-4.17067 h -1.31013 c -2.33438,0 -4.17067,1.84155 -4.17067,4.17067 v 30.96786 c 0,7.21011 5.67373,12.44011 13.48891,12.44011 h 14.48511 c 7.80466,0 13.47488,-5.22825 13.47488,-12.44011 v -30.96786 c 0,-2.32912 -1.82927,-4.17067 -4.16015,-4.17067 z"
         id="path867" />
      <path
         style="fill:#ffffff"
         d="m 233.28111,141.73234 c -7.78011,0 -12.07356,6.58047 -12.07356,11.12998 v 5.84034 c 0,6.69974 5.48432,10.85112 10.56349,10.85112 h 17.81392 c 2.24845,0 2.72024,1.46973 2.72024,2.70971 v 3.76904 c 0,0.39988 -0.0807,4.01984 -2.72024,4.01984 h -24.31372 c -2.40454,0 -4.16015,1.68019 -4.16015,3.9795 v 1.04179 c 0,2.29054 1.75561,3.96021 4.16015,3.96021 h 25.63262 c 6.69974,0 11.04054,-4.66 11.04054,-11.87888 v -6.3016 c 0,-6.77866 -4.8845,-9.80933 -9.71988,-9.80933 h -17.53331 c -2.64657,0 -3.8392,-1.9801 -3.8392,-3.37968 v -3.47965 c 0,-2.19057 1.46448,-3.46036 4.02511,-3.46036 h 19.4187 c 2.37473,0 4.1584,-1.71001 4.1584,-3.97074 v -1.04003 c 0,-2.2695 -1.81875,-3.98126 -4.26012,-3.98126 z"
         id="path869" />
      <path
         style="fill:#ffffff"
         d="m 274.24595,141.73234 c -2.30983,0 -4.05492,1.71176 -4.05492,3.98126 v 39.35831 c 0,2.25896 1.70475,3.96021 3.96372,3.96021 h 31.36423 c 2.41506,0 4.16015,-1.66968 4.16015,-3.96021 v -1.0418 c 0,-2.2993 -1.74509,-3.9795 -4.16015,-3.9795 0,0 -24.53296,0 -25.687,0 0,-1.02074 0,-9.01132 0,-10.01978 1.14352,0 18.8224,0 18.8224,0 2.4098,0 4.16015,-1.69072 4.16015,-3.98126 v -1.04004 c 0,-2.30106 -1.75035,-3.97073 -4.16015,-3.97073 0,0 -17.67888,0 -18.8224,0 0,-1.02951 0,-9.29018 0,-10.3197 1.14352,0 24.38213,0 24.38213,0 2.40629,0 4.16015,-1.65914 4.16015,-3.97073 v -1.04004 c 0,-2.30106 -1.75386,-3.98125 -4.16015,-3.98125 h -29.96816 z"
         id="path871" />
      <g
         style="fill:#ffffff"
         transform="matrix(1.7538572,0,0,1.7538572,-853.95251,-548.75247)"
         id="g881">
        <path
           style="fill:#ffffff"
           d="m 491.254,404.369 c -2.241,0 -4.065,1.744 -4.065,3.894 v 8.461 c 0,2.184 1.765,3.963 3.929,3.963 h 5.473 c 2.164,0 3.929,-1.779 3.929,-3.963 v -8.461 c 0,-2.149 -1.825,-3.894 -4.065,-3.894 z m -1.184,12.019 v -7.726 c 0,-0.906 0.744,-1.647 1.654,-1.647 h 4.264 c 0.89,0 1.648,0.758 1.648,1.647 v 7.726 c 0,0.912 -0.738,1.653 -1.648,1.653 h -4.296 c -0.912,0 -1.622,-0.725 -1.622,-1.653 z"
           id="path873" />
        <path
           style="fill:#ffffff"
           d="m 512.91,404.271 c -1.578,0 -2.768,0.564 -3.723,1.026 -0.582,0.279 -1.086,0.52 -1.477,0.52 -0.177,0 -0.328,-0.08 -0.408,-0.211 l -0.364,-0.696 c -0.091,-0.183 -0.456,-0.541 -0.907,-0.541 h -0.541 c -0.52,0 -0.936,0.467 -0.936,1.037 v 21.461 c 0,0.673 0.531,1.203 1.203,1.203 h 0.468 c 0.667,0 1.209,-0.536 1.209,-1.203 v -7.121 c 0,-0.211 0.137,-0.439 0.276,-0.439 0.391,0 0.895,0.229 1.477,0.496 0.955,0.439 2.145,0.98 3.723,0.98 h 0.505 c 2.794,0 4.532,-1.597 4.532,-4.162 v -8.192 c 0,-2.526 -1.775,-4.157 -4.532,-4.157 h -0.505 z m -5.475,11.952 v -7.39 c 0,-1.021 0.798,-1.818 1.818,-1.818 h 3.997 c 1.021,0 1.818,0.798 1.818,1.818 v 7.39 c 0,1.003 -0.818,1.818 -1.818,1.818 h -3.997 c -1.001,0 -1.818,-0.815 -1.818,-1.818 z"
           id="path875" />
        <path
           style="fill:#ffffff"
           d="m 526.044,404.369 c -2.241,0 -4.06,1.744 -4.06,3.894 v 8.398 c 0,2.178 1.768,4.025 3.854,4.025 h 5.647 c 0.698,0 1.203,-0.484 1.203,-1.141 v -0.37 c 0,-0.661 -0.505,-1.135 -1.203,-1.135 h -4.639 c -1.3,0 -1.986,-0.639 -1.986,-1.854 0,0 0,-2.115 0,-2.457 0.379,0 8.369,0 8.369,0 1.346,0 2.142,-0.821 2.142,-2.212 v -3.256 c 0,-2.149 -1.822,-3.894 -4.054,-3.894 h -5.273 z m -1.183,4.265 c 0,-0.907 0.713,-1.619 1.621,-1.619 h 4.396 c 0.906,0 1.613,0.712 1.613,1.619 0,0 0,2.28 0,2.622 -0.364,0 -7.258,0 -7.631,0 10e-4,-0.342 10e-4,-2.622 10e-4,-2.622 z"
           id="path877" />
        <path
           style="fill:#ffffff"
           d="m 546.997,404.271 c -1.573,0 -2.76,0.564 -3.718,1.021 -0.596,0.28 -1.105,0.525 -1.521,0.525 -0.183,0 -0.257,-0.023 -0.399,-0.269 l -0.331,-0.604 c -0.19,-0.382 -0.513,-0.575 -0.949,-0.575 h -0.465 c -0.562,0 -0.972,0.438 -0.972,1.037 v 14.077 c 0,0.667 0.527,1.203 1.206,1.203 h 0.465 c 0.667,0 1.211,-0.542 1.211,-1.203 v -10.65 c 0,-0.998 0.815,-1.818 1.813,-1.818 h 3.999 c 1.001,0 1.816,0.82 1.816,1.818 v 10.65 c 0,0.667 0.53,1.203 1.203,1.203 h 0.47 c 0.667,0 1.209,-0.542 1.209,-1.203 v -11.055 c 0,-2.526 -1.776,-4.157 -4.535,-4.157 z"
           id="path879" />
      </g>
      <g
         style="fill:#ffffff"
         transform="matrix(1.7538572,0,0,1.7538572,-853.95251,-548.75247)"
         id="g885">
        <path
           style="fill:#ffffff"
           d="m 667.456,415.229 c 1.218,0 2.188,0.99 2.188,2.229 0,1.257 -0.971,2.237 -2.198,2.237 -1.218,0 -2.208,-0.98 -2.208,-2.237 0,-1.238 0.99,-2.229 2.208,-2.229 z m -0.01,0.346 c -0.98,0 -1.782,0.842 -1.782,1.882 0,1.06 0.802,1.891 1.792,1.891 0.99,0.011 1.782,-0.831 1.782,-1.881 0,-1.05 -0.792,-1.892 -1.782,-1.892 z m -0.416,3.179 h -0.396 v -2.485 c 0.208,-0.03 0.406,-0.06 0.703,-0.06 0.377,0 0.624,0.079 0.772,0.188 0.149,0.108 0.229,0.276 0.229,0.515 0,0.326 -0.218,0.524 -0.485,0.604 v 0.021 c 0.218,0.039 0.366,0.237 0.416,0.604 0.06,0.387 0.118,0.535 0.158,0.614 h -0.416 c -0.06,-0.079 -0.119,-0.307 -0.168,-0.634 -0.06,-0.316 -0.218,-0.436 -0.535,-0.436 h -0.277 v 1.069 z m 0,-1.377 h 0.287 c 0.327,0 0.604,-0.118 0.604,-0.426 0,-0.218 -0.158,-0.436 -0.604,-0.436 -0.129,0 -0.218,0.01 -0.287,0.021 z"
           id="path883" />
      </g>
    </g>
    <path
       id="path910"
       d="m 84.9375,1056.2697 -2e-6,56.25"
       style="fill:none;stroke:#ffffff;stroke-width:1.12500894px;stroke-linecap:butt;stroke-linejoin:miter;stroke-opacity:1" />
    <path
       style="fill:#35b9ab;fill-opacity:1;stroke-width:0.51327938"
       d="m 154.55856,1064.7071 c -2.24683,0 -4.43121,0.6525 -6.37651,1.7673 -1.89206,1.0832 -3.54097,2.553 -5.00967,4.1583 a 35.742943,35.932671 0 0 0 -1.67398,1.9746 56.674942,56.975779 0 0 0 -1.50148,2.0004 c -0.24829,0.3438 -0.49502,0.6886 -0.74229,1.0338 -0.49298,0.6886 -0.99466,1.3777 -1.56853,2.0015 a 43.893772,44.126765 0 0 1 -1.63507,1.6845 c -1.39449,1.3622 -2.88265,2.657 -4.52642,3.708 -1.29978,0.8305 -2.82018,1.6221 -4.39844,1.6221 -4.23207,0 -8.02592,-3.3734 -8.02592,-8.508 0,-5.1341 3.64796,-7.9214 8.02592,-7.9214 2.53658,0 4.7793,1.088 6.95548,2.9706 l -1.16462,1.2041 2.84834,0.7237 2.84783,0.7235 -0.80065,-2.8413 -0.80064,-2.8413 -1.27419,1.318 c -2.22634,-2.0019 -4.99328,-3.6045 -8.46565,-3.6045 -5.69157,0 -10.3608,4.1074 -10.3608,10.4152 0,6.0147 4.66923,10.4148 9.9231,10.4148 2.17363,0 4.27814,-0.6511 6.1441,-1.7554 1.67295,-0.9917 3.13347,-2.2995 4.47419,-3.7023 0.45255,-0.473 0.89229,-0.9583 1.32895,-1.4457 0.56568,-0.6326 1.09705,-1.2597 1.57109,-1.9777 l 0.62506,-0.9459 c 0.38343,-0.5801 0.73769,-1.1549 1.14876,-1.7189 0.75713,-1.0396 1.55061,-2.0535 2.4045,-3.0142 1.43236,-1.6124 3.05516,-3.1127 4.96719,-4.1307 1.51681,-0.8073 3.19541,-1.2596 4.91445,-1.2596 5.98335,0 9.339,4.1809 9.339,9.5351 0,4.9879 -3.21026,9.0952 -8.75542,9.0952 -3.16931,0 -5.94802,-0.864 -8.87518,-3.4083 l 1.35607,-1.6578 -2.89747,-0.4842 -2.89801,-0.4843 1.03152,2.7651 1.03256,2.7652 1.15234,-1.408 c 2.83656,2.5659 5.92909,4.2596 9.95229,4.2596 6.71181,0 11.08926,-5.1346 11.08926,-11.5892 0,-6.7478 -4.52284,-11.4419 -11.38106,-11.4419"
       id="path914" />
    <path
       id="text927"
       transform="translate(0,1042.5197)"
       d="M 129.58203 50.796875 L 129.58203 61.384766 L 130.55664 61.384766 L 130.66016 60.640625 L 130.70508 60.640625 C 131.34112 61.220566 132.09609 61.5625 132.76172 61.5625 C 134.40361 61.5625 135.86719 60.120812 135.86719 57.652344 C 135.86719 55.4218 134.87743 53.978516 133.01367 53.978516 C 132.21492 53.978516 131.41451 54.410293 130.76367 54.990234 L 130.79492 53.681641 L 130.79492 50.796875 L 129.58203 50.796875 z M 137.75781 50.796875 L 137.75781 59.927734 C 137.75781 60.983525 138.12588 61.5625 139.04297 61.5625 C 139.36839 61.5625 139.57557 61.517711 139.73828 61.443359 L 139.57617 60.521484 C 139.44305 60.551225 139.38451 60.550781 139.31055 60.550781 C 139.13305 60.550781 138.9707 60.402252 138.9707 60.015625 L 138.9707 50.796875 L 137.75781 50.796875 z M 178.77148 50.796875 L 178.77148 53.578125 L 178.83203 54.810547 C 178.19599 54.290087 177.64865 53.978516 176.82031 53.978516 C 175.17843 53.978516 173.69922 55.435651 173.69922 57.785156 C 173.69922 60.194143 174.86728 61.5625 176.67188 61.5625 C 177.51501 61.5625 178.28362 61.08731 178.8457 60.537109 L 178.89062 60.537109 L 178.99414 61.384766 L 180 61.384766 L 180 50.796875 L 178.77148 50.796875 z M 101.25 51.628906 L 101.25 52.669922 L 104.17969 52.669922 L 104.17969 61.384766 L 105.42188 61.384766 L 105.42188 52.669922 L 108.34961 52.669922 L 108.34961 51.628906 L 101.25 51.628906 z M 120.71875 53.978516 C 119.86083 53.978516 119.10758 54.513232 118.48633 55.197266 L 118.44141 55.197266 L 118.33789 54.15625 L 117.33203 54.15625 L 117.33203 61.384766 L 118.54492 61.384766 L 118.54492 56.150391 C 119.21055 55.406876 119.81711 55.035156 120.34961 55.035156 C 121.2667 55.035156 121.69531 55.613601 121.69531 56.966797 L 121.69531 61.384766 L 122.9082 61.384766 L 122.9082 56.150391 C 123.57383 55.406876 124.1508 55.035156 124.71289 55.035156 C 125.61519 55.035156 126.04492 55.613601 126.04492 56.966797 L 126.04492 61.384766 L 127.25781 61.384766 L 127.25781 56.804688 C 127.25781 54.960772 126.54754 53.978516 125.06836 53.978516 C 124.19564 53.978516 123.45555 54.543462 122.70117 55.361328 C 122.40534 54.498851 121.81334 53.978516 120.71875 53.978516 z M 144.23438 53.978516 C 142.59249 53.978516 141.00977 55.42078 141.00977 57.785156 C 141.00977 60.149532 142.53215 61.5625 144.45508 61.5625 C 145.43133 61.5625 146.20101 61.219857 146.82227 60.818359 L 146.39258 60.015625 C 145.86007 60.357642 145.28394 60.582031 144.60352 60.582031 C 143.22788 60.582031 142.29578 59.599999 142.20703 58.068359 L 147.05859 58.068359 C 147.08818 57.889916 147.10352 57.621936 147.10352 57.369141 C 147.10352 55.302171 146.06855 53.978516 144.23438 53.978516 z M 162.23242 53.978516 C 160.59054 53.978516 159.00781 55.42078 159.00781 57.785156 C 159.00781 60.149532 160.53215 61.5625 162.45508 61.5625 C 163.43133 61.5625 164.19906 61.219857 164.82031 60.818359 L 164.39258 60.015625 C 163.86007 60.357642 163.28198 60.582031 162.60156 60.582031 C 161.22593 60.582031 160.29383 59.599999 160.20508 58.068359 L 165.05664 58.068359 C 165.08622 57.889916 165.10156 57.621936 165.10156 57.369141 C 165.10156 55.302171 164.0666 53.978516 162.23242 53.978516 z M 169.57031 53.978516 C 167.92843 53.978516 166.3457 55.42078 166.3457 57.785156 C 166.3457 60.149532 167.87004 61.5625 169.79297 61.5625 C 170.76923 61.5625 171.53695 61.219857 172.1582 60.818359 L 171.73047 60.015625 C 171.19797 60.357642 170.61987 60.582031 169.93945 60.582031 C 168.56382 60.582031 167.63172 59.599999 167.54297 58.068359 L 172.39648 58.068359 C 172.42607 57.889916 172.43945 57.621936 172.43945 57.369141 C 172.43945 55.302171 171.40449 53.978516 169.57031 53.978516 z M 109.16797 54.15625 L 109.16797 58.736328 C 109.16797 60.580244 109.84754 61.5625 111.37109 61.5625 C 112.36214 61.5625 113.07265 61.042032 113.73828 60.253906 L 113.7832 60.253906 L 113.88672 61.384766 L 114.89258 61.384766 L 114.89258 54.15625 L 113.67969 54.15625 L 113.67969 59.287109 C 112.99927 60.134716 112.48178 60.505859 111.74219 60.505859 C 110.79551 60.505859 110.39453 59.927415 110.39453 58.574219 L 110.39453 54.15625 L 109.16797 54.15625 z M 148.10938 54.15625 L 150.10547 61.384766 L 151.52539 61.384766 L 152.53125 57.517578 C 152.72354 56.833545 152.87049 56.150519 153.0332 55.421875 L 153.09375 55.421875 C 153.27125 56.150519 153.40453 56.819873 153.58203 57.503906 L 154.61719 61.384766 L 156.0957 61.384766 L 158.01953 54.15625 L 156.86523 54.15625 L 155.81445 58.335938 C 155.66654 59.019971 155.5338 59.674587 155.37109 60.34375 L 155.3125 60.34375 C 155.14979 59.674587 154.98609 59.019971 154.80859 58.335938 L 153.68555 54.15625 L 152.50195 54.15625 L 151.39258 58.335938 C 151.21508 59.0051 151.06701 59.674587 150.9043 60.34375 L 150.8457 60.34375 C 150.71258 59.674587 150.57873 59.019971 150.41602 58.335938 L 149.35156 54.15625 L 148.10938 54.15625 z M 144.26367 54.945312 C 145.38785 54.945312 146.03906 55.734118 146.03906 57.191406 L 142.19336 57.191406 C 142.34128 55.763859 143.25783 54.945312 144.26367 54.945312 z M 162.26172 54.945312 C 163.38589 54.945312 164.03711 55.734118 164.03711 57.191406 L 160.19141 57.191406 C 160.33932 55.763859 161.25588 54.945312 162.26172 54.945312 z M 169.59961 54.945312 C 170.72378 54.945312 171.375 55.734118 171.375 57.191406 L 167.5293 57.191406 C 167.67721 55.763859 168.59377 54.945312 169.59961 54.945312 z M 132.7168 55.003906 C 134.07764 55.003906 134.60938 56.074895 134.60938 57.666016 C 134.60938 59.45045 133.73803 60.537109 132.55469 60.537109 C 132.08135 60.537109 131.43097 60.327544 130.79492 59.777344 L 130.79492 55.986328 C 131.47534 55.346906 132.11033 55.003906 132.7168 55.003906 z M 177.02734 55.003906 C 177.61901 55.003906 178.16502 55.213471 178.77148 55.763672 L 178.77148 59.541016 C 178.17981 60.210179 177.60313 60.537109 176.9375 60.537109 C 175.6802 60.537109 174.95508 59.496438 174.95508 57.771484 C 174.95508 56.120882 175.87359 55.003906 177.02734 55.003906 z "
       style="font-style:normal;font-weight:normal;font-size:44.49293518px;line-height:1.25;font-family:sans-serif;letter-spacing:0px;word-spacing:0px;fill:#35b9ab;fill-opacity:1;stroke:none;stroke-width:1.11232328" />
  </g>
</svg>
