<?xml version="1.0" encoding="UTF-8" standalone="no"?>
<!-- Created with Inkscape (http://www.inkscape.org/) -->
<svg
   xmlns:dc="http://purl.org/dc/elements/1.1/"
   xmlns:cc="http://creativecommons.org/ns#"
   xmlns:rdf="http://www.w3.org/1999/02/22-rdf-syntax-ns#"
   xmlns:svg="http://www.w3.org/2000/svg"
   xmlns="http://www.w3.org/2000/svg"
   xmlns:sodipodi="http://sodipodi.sourceforge.net/DTD/sodipodi-0.dtd"
   xmlns:inkscape="http://www.inkscape.org/namespaces/inkscape"
   width="600"
   height="600"
   id="svg7932"
   sodipodi:version="0.32"
   inkscape:version="0.46"
   version="1.0"
   sodipodi:docname="contrib-logo1.svg"
   inkscape:output_extension="org.inkscape.output.svg.inkscape">
  <defs
     id="defs7934">
    <inkscape:perspective
       sodipodi:type="inkscape:persp3d"
       inkscape:vp_x="0 : 526.18109 : 1"
       inkscape:vp_y="0 : 1000 : 0"
       inkscape:vp_z="744.09448 : 526.18109 : 1"
       inkscape:persp3d-origin="372.04724 : 350.78739 : 1"
       id="perspective7940" />
    <inkscape:perspective
       id="perspective7996"
       inkscape:persp3d-origin="100 : 66.666667 : 1"
       inkscape:vp_z="200 : 100 : 1"
       inkscape:vp_y="0 : 1000 : 0"
       inkscape:vp_x="0 : 100 : 1"
       sodipodi:type="inkscape:persp3d" />
  </defs>
  <sodipodi:namedview
     id="base"
     pagecolor="#ffffff"
     bordercolor="#666666"
     borderopacity="1.0"
     gridtolerance="10000"
     guidetolerance="10"
     objecttolerance="10"
     inkscape:pageopacity="0.0"
     inkscape:pageshadow="2"
     inkscape:zoom="0.35"
     inkscape:cx="227.85714"
     inkscape:cy="180"
     inkscape:document-units="px"
     inkscape:current-layer="layer1"
     showgrid="false"
     borderlayer="true"
     inkscape:showpageshadow="false"
     inkscape:window-width="879"
     inkscape:window-height="870"
     inkscape:window-x="1668"
     inkscape:window-y="94" />
  <metadata
     id="metadata7937">
    <rdf:RDF>
      <cc:Work
         rdf:about="">
        <dc:format>image/svg+xml</dc:format>
        <dc:type
           rdf:resource="http://purl.org/dc/dcmitype/StillImage" />
      </cc:Work>
    </rdf:RDF>
  </metadata>
  <g
     inkscape:label="Layer 1"
     inkscape:groupmode="layer"
     id="layer1">
    <g
       id="g7999"
       inkscape:label="Layer 1"
       transform="matrix(1.9817833,0,0,1.9817833,101.82167,101.82167)"
       style="fill:#4e9a06">
      <path
         id="path2445"
         d="M 100,30.15625 C 61.42932,30.15625 30.15625,61.425758 30.15625,100 C 30.15625,138.57424 61.429322,169.84375 100,169.84375 C 138.57068,169.84375 169.84374,138.57424 169.84375,100 C 169.84375,61.42576 138.57068,30.15625 100,30.15625 z M 100.33443,39.828902 C 133.56795,39.828902 160.53125,66.770045 160.53125,100 C 160.53125,133.23353 133.56439,160.1711 100.33443,160.1711 C 82.389609,160.1711 66.287227,152.30637 55.263985,139.84824 C 59.796476,136.33049 67.379614,137.1887 76.71875,138.25328 C 81.194275,138.76243 86.296203,139.34487 91.562155,139.46236 C 106.27405,139.54781 122.10349,136.86276 131.87345,132.59375 C 138.18974,129.82369 142.2338,127.99948 144.76174,125.69941 C 145.67323,124.95171 146.15189,123.70262 146.63968,122.4066 L 146.9741,121.53194 C 147.38356,120.48516 147.97116,118.23268 148.23463,117.00432 C 148.35213,116.46668 148.4098,115.88852 148.02883,115.58943 L 146.6654,115.84669 C 142.37858,118.41735 131.66827,123.31339 121.63484,123.51278 C 109.20165,123.77269 84.142747,110.99635 81.529351,109.64693 L 81.272099,109.33823 C 80.645455,107.84282 76.895331,98.94015 76.101347,97.067334 C 94.138736,108.9451 109.09321,115.51941 120.55439,116.54126 C 133.29735,117.6735 143.23739,110.71627 147.4886,107.74327 C 148.3182,107.17715 148.95227,106.73322 149.21219,106.63709 L 149.49517,106.17403 C 148.79019,101.69494 142.10444,80.020513 137.06992,74.81509 C 135.67421,73.387338 134.56456,71.99784 132.31077,70.673343 C 114.08824,60.052429 70.821318,53.655843 68.795407,53.360325 L 68.460981,53.463225 L 68.332355,53.746202 C 68.332355,53.746202 68.170081,62.730623 68.152279,63.727555 C 66.667557,63.236211 62.063794,61.728958 55.469786,59.920235 C 64.073519,49.274391 77.258819,39.828903 100.33443,39.828902 z M 116.23256,71.676623 C 116.53961,71.672015 116.84957,71.666386 117.15867,71.676623 C 127.36656,72.043352 135.38655,80.64108 135.03764,90.841851 C 134.85605,95.776676 132.77552,100.3362 129.17231,103.70442 C 125.55841,107.09044 120.86144,108.85532 115.89814,108.6951 C 105.70804,108.31413 97.68804,99.716403 98.019164,89.529869 C 98.193628,84.587921 100.28565,79.999105 103.91022,76.641575 C 107.2949,73.467184 111.62686,71.745742 116.23256,71.676623 z M 115.74378,77.130352 C 112.77085,77.311095 109.96536,78.518224 107.76899,80.577521 C 105.26598,82.927436 103.78906,86.109053 103.67869,89.555594 C 103.4437,96.676553 109.01582,102.66919 116.12966,102.93267 C 119.58688,103.03948 122.86633,101.82829 125.39071,99.485497 C 127.90797,97.124898 129.3742,93.914001 129.48101,90.481699 C 129.71956,83.350056 124.12172,77.379586 117.00432,77.130352 C 116.5735,77.11433 116.16849,77.104532 115.74378,77.130352 z M 119.1395,83.587362 C 122.30121,83.587362 124.85049,85.305483 124.85048,87.420407 C 124.85048,89.524655 122.30121,91.253451 119.1395,91.253453 C 115.96711,91.253453 113.4028,89.521088 113.4028,87.420407 C 113.4028,85.305485 115.96711,83.587364 119.1395,83.587362 z"
         style="font-size:20.48839951px;fill:#4e9a06;fill-opacity:1;fill-rule:evenodd;stroke:none;stroke-miterlimit:4;font-family:TrebuchetMS-Bold" />
    </g>
    <path
       sodipodi:type="arc"
       style="opacity:1;fill:none;fill-opacity:1;fill-rule:nonzero;stroke:#4e9a06;stroke-width:89.38825226;stroke-linecap:butt;stroke-linejoin:miter;marker:none;marker-start:none;marker-mid:none;marker-end:none;stroke-miterlimit:4;stroke-dasharray:none;stroke-dashoffset:0;stroke-opacity:1;visibility:visible;display:inline;overflow:visible;enable-background:accumulate"
       id="path8002"
       sodipodi:cx="291.42856"
       sodipodi:cy="317.14285"
       sodipodi:rx="197.14285"
       sodipodi:ry="197.14285"
       d="M 430.82961,456.5439 A 197.14285,197.14285 0 1 1 430.8296,177.7418"
       transform="matrix(1.1217254,0,0,1.1157131,-27.744277,-53.795992)"
       sodipodi:start="0.78539816"
       sodipodi:end="5.4977871"
       sodipodi:open="true" />
  </g>
</svg>
