<?xml version="1.0" encoding="UTF-8" standalone="no"?>
<!-- Created with Inkscape (http://www.inkscape.org/) -->

<svg
   xmlns:dc="http://purl.org/dc/elements/1.1/"
   xmlns:cc="http://creativecommons.org/ns#"
   xmlns:rdf="http://www.w3.org/1999/02/22-rdf-syntax-ns#"
   xmlns:svg="http://www.w3.org/2000/svg"
   xmlns="http://www.w3.org/2000/svg"
   xmlns:xlink="http://www.w3.org/1999/xlink"
   xmlns:sodipodi="http://sodipodi.sourceforge.net/DTD/sodipodi-0.dtd"
   xmlns:inkscape="http://www.inkscape.org/namespaces/inkscape"
   width="744.09448"
   height="1052.3622"
   id="svg4589"
   sodipodi:version="0.32"
   inkscape:version="0.47 r22583"
   version="1.0"
   sodipodi:docname="lizard-lounge2.svg"
   inkscape:output_extension="org.inkscape.output.svg.inkscape"
   inkscape:export-filename="/home/jimmac/gfx/novell/pdes.local/trunk/logos/openSUSE/geeko-button.png"
   inkscape:export-xdpi="36"
   inkscape:export-ydpi="36">
  <defs
     id="defs4591">
    <linearGradient
       inkscape:collect="always"
       id="linearGradient3886">
      <stop
         style="stop-color:#44aa00;stop-opacity:1;"
         offset="0"
         id="stop3888" />
      <stop
         style="stop-color:#7fff2a;stop-opacity:1"
         offset="1"
         id="stop3890" />
    </linearGradient>
    <linearGradient
       inkscape:collect="always"
       id="linearGradient3878">
      <stop
         style="stop-color:#000000;stop-opacity:1;"
         offset="0"
         id="stop3880" />
      <stop
         style="stop-color:#000000;stop-opacity:0;"
         offset="1"
         id="stop3882" />
    </linearGradient>
    <inkscape:perspective
       sodipodi:type="inkscape:persp3d"
       inkscape:vp_x="0 : 100 : 1"
       inkscape:vp_y="0 : 1000 : 0"
       inkscape:vp_z="200 : 100 : 1"
       inkscape:persp3d-origin="100 : 66.666667 : 1"
       id="perspective8" />
    <filter
       inkscape:collect="always"
       id="filter3872"
       color-interpolation-filters="sRGB">
      <feGaussianBlur
         inkscape:collect="always"
         stdDeviation="1.9084375"
         id="feGaussianBlur3874" />
    </filter>
    <linearGradient
       inkscape:collect="always"
       xlink:href="#linearGradient3878"
       id="linearGradient3884"
       x1="99.255814"
       y1="-1.51938"
       x2="103.26615"
       y2="214.53746"
       gradientUnits="userSpaceOnUse" />
    <filter
       inkscape:collect="always"
       id="filter3898"
       color-interpolation-filters="sRGB">
      <feGaussianBlur
         inkscape:collect="always"
         stdDeviation="0.84095309"
         id="feGaussianBlur3900" />
    </filter>
    <filter
       inkscape:collect="always"
       id="filter3878"
       color-interpolation-filters="sRGB">
      <feGaussianBlur
         inkscape:collect="always"
         stdDeviation="4.9479226"
         id="feGaussianBlur3880" />
    </filter>
    <filter
       inkscape:collect="always"
       id="filter3886"
       color-interpolation-filters="sRGB">
      <feGaussianBlur
         inkscape:collect="always"
         stdDeviation="1.3031921"
         id="feGaussianBlur3888" />
    </filter>
    <linearGradient
       inkscape:collect="always"
       xlink:href="#linearGradient3886"
       id="linearGradient3900"
       gradientUnits="userSpaceOnUse"
       x1="97.832886"
       y1="-7.0087075"
       x2="94.997147"
       y2="210.634" />
    <filter
       inkscape:collect="always"
       id="filter3936"
       color-interpolation-filters="sRGB">
      <feGaussianBlur
         inkscape:collect="always"
         stdDeviation="4.5204906"
         id="feGaussianBlur3938" />
    </filter>
    <filter
       inkscape:collect="always"
       id="filter3940"
       color-interpolation-filters="sRGB">
      <feGaussianBlur
         inkscape:collect="always"
         stdDeviation="1.7509136"
         id="feGaussianBlur3942" />
    </filter>
    <linearGradient
       inkscape:collect="always"
       xlink:href="#linearGradient3886"
       id="linearGradient3990"
       gradientUnits="userSpaceOnUse"
       x1="97.832886"
       y1="-7.0087075"
       x2="94.997147"
       y2="210.634" />
    <linearGradient
       inkscape:collect="always"
       xlink:href="#linearGradient3886"
       id="linearGradient4009"
       gradientUnits="userSpaceOnUse"
       x1="97.832886"
       y1="-7.0087075"
       x2="94.997147"
       y2="210.634" />
    <linearGradient
       inkscape:collect="always"
       xlink:href="#linearGradient3886"
       id="linearGradient4013"
       gradientUnits="userSpaceOnUse"
       x1="97.832886"
       y1="-7.0087075"
       x2="94.997147"
       y2="210.634"
       gradientTransform="matrix(1.4490391,-0.32426724,0.32426724,1.4490391,-785.66895,-50.116811)" />
    <filter
       inkscape:collect="always"
       id="filter4035"
       color-interpolation-filters="sRGB">
      <feGaussianBlur
         inkscape:collect="always"
         stdDeviation="8.5367719"
         id="feGaussianBlur4037" />
    </filter>
    <linearGradient
       inkscape:collect="always"
       xlink:href="#linearGradient3886"
       id="linearGradient4056"
       gradientUnits="userSpaceOnUse"
       x1="97.832886"
       y1="-7.0087075"
       x2="94.997147"
       y2="210.634" />
    <filter
       inkscape:collect="always"
       id="filter3810"
       color-interpolation-filters="sRGB">
      <feGaussianBlur
         inkscape:collect="always"
         stdDeviation="4.7697943"
         id="feGaussianBlur3812" />
    </filter>
    <linearGradient
       inkscape:collect="always"
       xlink:href="#linearGradient3886"
       id="linearGradient2914"
       gradientUnits="userSpaceOnUse"
       x1="97.832886"
       y1="-7.0087075"
       x2="94.997147"
       y2="210.634"
       gradientTransform="matrix(1.8583751,-0.41586881,0.41586881,1.8583751,42.947679,-679.4528)" />
  </defs>
  <sodipodi:namedview
     id="base"
     pagecolor="#000000"
     bordercolor="#d8d8d8"
     borderopacity="1"
     gridtolerance="10000"
     guidetolerance="10"
     objecttolerance="10"
     inkscape:pageopacity="1"
     inkscape:pageshadow="2"
     inkscape:zoom="1.21"
     inkscape:cx="377.83818"
     inkscape:cy="753.97346"
     inkscape:document-units="px"
     inkscape:current-layer="layer1"
     width="200px"
     height="200px"
     borderlayer="true"
     inkscape:showpageshadow="false"
     inkscape:window-width="1920"
     inkscape:window-height="1032"
     inkscape:window-x="-4"
     inkscape:window-y="-3"
     showgrid="false"
     showguides="true"
     inkscape:guide-bbox="true"
     inkscape:window-maximized="1" />
  <metadata
     id="metadata4594">
    <rdf:RDF>
      <cc:Work
         rdf:about="">
        <dc:format>image/svg+xml</dc:format>
        <dc:type
           rdf:resource="http://purl.org/dc/dcmitype/StillImage" />
        <dc:title></dc:title>
      </cc:Work>
    </rdf:RDF>
  </metadata>
  <g
     inkscape:label="Layer 1"
     inkscape:groupmode="layer"
     id="layer1"
     transform="translate(0,852.36221)">
    <path
       inkscape:connector-curvature="0"
       id="path3800"
       d="m -819.52291,-408.30106 c -132.45499,0 -240.00579,106.12279 -240.00579,236.98236 0,130.85958 107.5508,236.982369 240.00579,236.982369 132.455,0 239.98834,-106.122789 239.98834,-236.982369 0,-130.85957 -107.53334,-236.98236 -239.98834,-236.98236 z m 0,9.89174 c 127.18231,0 230.11407,101.64158 230.11407,227.09062 0,125.449045 -102.93176,227.108104 -230.11407,227.108104 -127.18232,0 -230.13159,-101.659059 -230.13159,-227.108104 0,-125.44904 102.94927,-227.09062 230.13159,-227.09062 z"
       style="font-size:medium;font-style:normal;font-variant:normal;font-weight:normal;font-stretch:normal;text-indent:0;text-align:start;text-decoration:none;line-height:normal;letter-spacing:normal;word-spacing:normal;text-transform:none;direction:ltr;block-progression:tb;writing-mode:lr-tb;text-anchor:start;color:#000000;fill:#e3e2db;fill-opacity:1;stroke:none;stroke-width:17.67186928;marker:none;visibility:visible;display:inline;overflow:visible;filter:url(#filter3810);enable-background:accumulate;font-family:Sans;-inkscape-font-specification:Sans"
       transform="matrix(1.2824879,0,0,1.2824879,1395.4999,-315.79925)" />
    <path
       style="font-size:medium;font-style:normal;font-variant:normal;font-weight:normal;font-stretch:normal;text-indent:0;text-align:start;text-decoration:none;line-height:normal;letter-spacing:normal;word-spacing:normal;text-transform:none;direction:ltr;block-progression:tb;writing-mode:lr-tb;text-anchor:start;color:#000000;fill:#ccffaa;fill-opacity:1;stroke:none;stroke-width:17.67186928;marker:none;visibility:visible;display:inline;overflow:visible;enable-background:accumulate;font-family:Sans;-inkscape-font-specification:Sans"
       d="m 344.47168,-839.44042 c -169.87192,0 -307.804517,136.1012 -307.804517,303.92701 0,167.82583 137.932597,303.92702 307.804517,303.92702 169.87194,0 307.78215,-136.10119 307.78215,-303.92702 0,-167.82581 -137.91021,-303.92701 -307.78215,-303.92701 z m 0,12.68604 c 163.10978,0 295.11851,130.35409 295.11851,291.24097 0,160.88688 -132.00873,291.2634 -295.11851,291.2634 -163.10978,0 -295.140975,-130.37652 -295.140975,-291.2634 0,-160.88688 132.031195,-291.24097 295.140975,-291.24097 z"
       id="path3026"
       inkscape:connector-curvature="0" />
    <path
       style="font-size:medium;font-style:normal;font-variant:normal;font-weight:normal;font-stretch:normal;text-indent:0;text-align:start;text-decoration:none;line-height:normal;letter-spacing:normal;word-spacing:normal;text-transform:none;direction:ltr;block-progression:tb;writing-mode:lr-tb;text-anchor:start;opacity:0.30769234;color:#000000;fill:#e2e3db;fill-opacity:1;stroke:none;stroke-width:7.30000019;marker:none;visibility:visible;display:inline;overflow:visible;filter:url(#filter4035);enable-background:accumulate;font-family:Sans;-inkscape-font-specification:Sans"
       d="m -207.74766,-75.500847 c -50.56511,0.502993 -99.24183,29.813964 -123.21875,74.1874996 -22.93816,40.4280764 -23.87894,92.4162254 -2.84375,133.7812474 -4.51775,4.52207 -3.07077,11.93572 -3.21875,17.8125 0.44687,5.99193 1.79834,11.87964 3.21875,17.65625 -8.36194,8.12402 -21.42412,10.57233 -32.375,7.5625 -6.96256,-4.83406 -5.4091,-14.91284 -7.4375,-22.15625 -1.72315,-12.01436 -0.24123,-24.35893 0.40625,-36.1875 -2.16396,-6.90098 -14.22917,-5.36587 -13.96875,2.125 -4.41878,20.93343 -2.08822,43.46673 6.625,62.90625 7.90372,11.10157 23.53628,9.35783 35.19627,6.85166 6.695,-1.32323 13.51118,-3.83279 18.83498,-7.91416 5.27755,5.47336 14.24865,3.16363 18.5625,-2.25 4.41138,-2.58946 10.18031,-2.49646 13.4375,1.84375 38.24741,30.99533 93.12533,39.84008 139.28125,22.1875 20.54781,-7.53916 39.29582,-19.93688 54.21875,-35.8125 36.540691,7.45239 73.359441,13.44315 110.0000008,20.375 -13.40408,-11.5903 -26.7970398,-23.01478 -40.2187498,-34.625 1.87796,-8.59844 3.73223,-17.73242 5.625,-26 2.44904,6.25091 8.99636,12.28749 16.1249998,9.28125 4.95436,-1.55267 8.70891001,-6.5593 10.75,-10.40625 2.03082,5.80947 9.5290502,9.58878 14.6875002,5.1875 1.76414,-1.66872 2.68992,-2.63337 4.53125,-0.5625 5.27073,2.24355 11.54507,-3.08686 10.02041,-8.68616 0.46038,-9.37537 2.39714,-18.97156 6.47959,-27.282587 2.56612,10.095627 2.50183,21.253047 6.375,30.749997 5.22249,4.79781 11.35084,-1.53394 14.71875,-5.375 1.21581,-1.01758 2.05166,-4.70447 3.4375,-1.75 4.05806,4.00496 10.3267,5.29654 15.75,3.65625 -5.83371,8.729 -6.72089,22.77909 2.96875,29.15625 4.54786,3.42001 10.71039,0.87998 13.1875,-3.75 8.444239,-10.73086 9.818729,-24.96528 9.874999,-38.21875 10.37687,11.88809 30.61207,6.77474 37.96875,-5.90625 3.2787,-4.237051 4.73684,-12.248344 -1.53125,-14.531247 -5.75989,-1.926355 -6.9307,5.471525 -10.03125,8.4375 -3.09135,4.403947 -11.7406,7.286897 -15.125,3.312497 11.31465,-8.388042 20.17349,-24.938411 12.5625,-38.531247 -5.66523,-8.382592 -18.28815,-4.650588 -23.65625,2.21875 -2.74346,2.770093 -4.754359,7.746957 -5.968749,10.3125 -0.63727,-4.670005 -6.22024,-7.485115 -9.65625,-6.3125 -5.73598,-9.225202 -19.78438,-5.676942 -25.21875,2 -7.76371,9.375053 -9.46787,22.163036 -9.3125,33.874997 -1.98439,3.53379 -1.62457,-6.304058 -2.6875,-7.812497 -1.81244,-7.25182 -2.47712,-15.484724 -7,-21.5 -6.00866,-4.262494 -12.50494,2.077196 -15.15625,7.28125 -1.14079,0.643047 -2.95885,7.409014 -3.125,3.65625 -0.16266,-5.835886 -5.52938,-12.676069 -11.875,-9.65625 -6.7264502,2.12468 -7.0091502,12.99446 0.125,14.78125 0.30608,7.715198 2.82417,15.727447 2.125,23.343747 -1.48817,1.43005 -3.76027,5.95204 -3.96875,1.34375 C 8.3254608,103.62055 8.6825608,91.270913 7.2523408,79.467903 c -3.10394,-6.675372 -15.1937,-2.859937 -13.09375,4.53125 0.40544,13.027527 0.30002,27.334297 -7.1562498,38.312497 -3.73108,-5.80655 -2.96198,-13.92512 -3.12596,-20.71829 -0.51474,-6.029137 2.33744,-12.734075 9.6e-4,-18.375457 1.4422,-7.694364 2.65225,-16.371041 5.35524,-23.715136 26.62148,-27.188579 53.14558,-54.4728398 79.83226,-81.597364 -50.62909,-9.128491 -101.27937,-18.154279 -151.9375,-27.125 13.99119,34.457319 27.86651,68.961788 41.8125,103.4375 -2.42446,9.502953 -4.05956,20.197599 -6.96875,28.96875 -5.46243,-0.649243 -10.93709,1.388648 -14.9375,5.09375 7.60129,-50.583988 -14.45915,-103.973752 -55.250001,-134.375 -25.38245,-19.398011 -57.40999,-30.068183 -89.53125,-29.40625 z m 1.6875,11.40625 c 50.04785,-0.909441 98.8401,29.721632 120.031251,74.9375 19.01295,39.090172 17.09256,87.392473 -5.25,124.562497 -2.32516,0.0432 -7.37485,0.78132 -7.84375,-1.0625 23.50658,-36.497625 25.46489,-85.625337 5.04452,-123.890246 -22.044311,-43.37714 -71.226191,-70.881171 -119.886471,-66.643609 -36.34749,3.057169 -73.14035,20.352843 -92.8768,52.0026076 -4.09631,6.2528697 -7.21482,12.9574051 -10.53125,19.6562504 14.10442,0.483179 28.18483,1.487218 42.21875,2.96875 -1.18338,-7.034766 -3.47309,-14.8150421 -4.0625,-21.3750004 38.0902,-1.813223 76.84904,-3.333498 114.40625,4.09375 12.82288,1.6012293 22.571,10.9995724 29.3374,21.2780504 8.1529,11.231438 15.33109,23.186817 21.6001,35.5657 -13.66813,16.304353 -33.65755,29.193326 -55.71875,28.1875 -1.83699,0.860334 -8.60797,-0.843698 -4.5,-1.875 23.41126,-1.325617 42.1489,-24.695813 38.34375,-47.875 -2.43312,-22.375842 -25.29067,-39.7196118 -47.5625,-36.1875004 -22.52173,2.4833318 -39.85228,25.2171634 -36.21875,47.5937504 1.81346,14.59796 12.04441,27.690088 25.625,33.28125 -0.14616,5.137148 -6.33084,0.73105 -9.47486,0.933425 -22.32459,-4.868781 -43.54942,-13.030123 -64.86889,-21.245925 9.25974,12.539543 17.88898,25.892867 27.46875,38 8.01574,4.005967 17.68138,4.617267 26.41808,6.914867 2.65833,0.6296 11.28115,1.87979 9.64442,2.21013 -2.44879,0.95245 -4.83046,3.69231 -6.71875,4.46875 -5.01651,-6.83443 -16.07055,-5.20362 -20.90625,1 -4.91529,-3.51504 -10.47536,1.86503 -10.875,6.84375 -1.01441,1.4995 -1.9404,4.55562 -3.3125,1.5625 -6.85735,-7.78164 -19.58986,-7.24364 -26.71875,-0.0937 -2.04231,1.11011 -3.32855,5.45123 -5.1875,2.0625 -6.58781,-3.94482 -12.79983,3.6461 -19.5625,3.03125 -5.77953,1.48546 -14.46396,-0.95788 -17.90625,5.15625 -2.24298,5.32399 3.4097,11.37714 8.9022,9.12889 3.6442,-0.0861 8.99454,-1.22873 11.7228,-1.03514 -3.12131,4.97893 -6.74005,9.66292 -10.4375,14.25 -6.25725,-7.47378 -12.22378,-15.62539 -16.28125,-24.1875 3.76063,-4.74621 3.66908,-15.50727 -3.96875,-15.96875 -2.05342,0.30551 -3.88788,2.00401 -3.90625,-1.5625 -15.85699,-43.170514 -6.63442,-94.417324 23.21875,-129.343747 24.53193,-29.645589 62.2053,-47.172401 100.59375,-47.34375 z m 0.96875,18.96875 c 46.07522,-0.76587 90.42458,29.547593 106.284401,72.875404 12.13939,31.466292 9.2436,68.245445 -7.940651,97.218343 -1.26455,-5.38366 -2.71691,-11.28893 -2.375,-16.625 4.94406,-4.5461 8.75684,-9.266124 9.09375,-16.249997 0.286891,-6.297828 3.243931,-15.269086 -3.0625,-19.53125 -2.79851,-3.359257 -6.0216,2.261764 -8.5625,-0.25 3.45731,-4.748136 10.28447,-8.063999 10.28125,-14.34375 -8.07545,-18.137681 -18.98554,-35.193615 -31.15625,-50.7187504 -8.60537,-10.6535697 -21.79964,-16.579202 -35.32585,-18.4070976 -38.28579,-6.621039 -78.27421,-4.764494 -116.42415,-3.030402 20.44369,-20.318534 50.41275,-30.271878 79.1875,-30.9375 z m 251.062501,30.34375 c -22.6065,23.1495415 -45.27767019,46.269389 -67.84375,69.4375 -2.49711,10.405913 -3.98223,21.535683 -7.09375,31.5625 -2.6214,0.683706 -6.11173,6.116108 -7.78125,1.65625 1.49141,-11.571051 5.76594,-23.604062 7.25,-35.25 -11.78394,-29.032511 -23.49408,-58.1075354 -35.25,-87.15625 36.90625,6.583333 73.8124998,13.166667 110.71875,19.75 z M -290.84141,-1.0320974 c 3.62845,7.1151294 -0.30776,7.6463509 -6.53125,6.1875 -3.28757,-0.6917131 2.95005,-6.2580535 4.12023,-8.86281 2.26474,-3.989455 1.53062,0.3678353 2.41102,2.67531 z m 112.5625,23.0937504 c 3.72486,-0.0396 4.72238,0.284243 0.78125,0.84375 -8.638,1.581629 -17.02487,11.692337 -11.375,20.15625 7.52878,10.428312 25.97213,6.711232 30.90625,-3.9375 2.5697,13.767565 -12.52738,26.415843 -25.65625,21.5 -13.71693,-3.646688 -18.45879,-23.040468 -8.125,-32.71875 3.54639,-3.612591 8.41812,-5.687589 13.46875,-5.84375 z m 6.3125,11.5625 c 1.32685,-0.486881 5.88908,1.783359 1.59821,0.424304 l -0.96651,-0.256597 -0.6317,-0.167707 z m 3.53125,0.90625 c -2.18619,3.02638 -7.90854,4.398125 -10.65625,2.1875 2.42949,-3.075414 7.20442,-3.753126 10.65625,-2.1875 z m 285.78125,36.125 c -0.23561,5.903006 -4.57581,11.75337 -8.0625,15.25 0.51238,-5.595618 3.14575,-12.741737 8.0625,-15.25 z m -287.8125,1.5625 c -1.41455,0.736685 -0.0516,-0.475496 0,0 z m -1.625,0.3125 c -1.14996,0.274116 -0.34897,-0.02451 0,0 z m 249.500001,3.8125 c 1.96126,1.238867 3.63264,3.417272 6.1875,3.25 1.47754,9.776265 0.97225,23.491227 -9.4375,28.156247 -6.62095,-0.059 -7.44028,-9.128311 -6.375,-14.156247 0.79642,-6.722967 3.7785,-13.558999 9.625,-17.25 z m -200.937501,6.34375 c -7.86811,7.11516 -18.80817,12.16468 -29.0625,15.40625 -6.42437,1.934677 -13.22128,1.921007 -19.90625,1.6875 -1.05101,-4.213676 5.8002,-1.206562 8.5,-2.3125 14.6385,-0.536127 29.03071,-6.448767 40.46875,-14.78125 z m -113.3125,1.625 c 13.34608,4.324751 26.85222,8.243315 40.65625,10.6875 0.35793,4.934591 -7.45779,0.117035 -10.71875,0.5625 -9.00905,-1.723698 -17.88278,-3.615379 -26.75,-5.90625 -0.0995,-0.87574 -5.3727,-6.262689 -3.1875,-5.34375 z m 184.343751,13.125 c 0.37592,4.775717 0.068,9.288847 -1.54669,13.966047 -0.98664,3.59405 -2.0113,13.6538 -3.60956,5.2527 -1.0605,-6.56658 -1.2235,-15.85287 5.1875,-19.843747 l -0.0312,0.625 z m -72.343751,1.6875 c -0.0508,3.868757 1.41535,8.267487 -3.28125,9.812497 -13.75467,11.00418 -29.83016,18.23369 -46.1875,24.28125 1.47739,-7.18507 2.2592,-14.4961 2.34375,-21.875 16.78279,1.29703 33.12915,-4.65271 47.125,-13.374997 l 0,1 0,0.15625 z m 85.218751,10.562497 c 1.37032,6.27291 0.57251,15.44651 -6.5,17.8125 1.41229,-6.01832 2.6967,-12.1371 4.1875,-18.09375 0.7216,0.22173 2.46731,-1.06329 2.3125,0.28125 z m -30.78125,8.25 c 0.28349,3.94947 4.25134,8.3899 -0.90625,10.46875 -1.29814,0.95193 -7.12806,5.83845 -4.125,1.375 1.84452,-3.84752 3.53199,-8.05861 5.03125,-11.84375 z m -123.531251,1.1875 c 1.09246,6.43594 3.54448,12.55252 5.03125,18.90625 -5.70083,1.45213 -11.96162,3.65308 -17.5625,4.28125 -2.45701,-9.17904 1.90097,-22.08942 12.34375,-23.6875 l 0.1875,0.5 z m 71.34375,1.3125 c 1.36868,6.52899 3.15054,12.95041 5.71875,19.09375 -27.38589,34.55068 -76.42244,50.07866 -118.71,37.2825 -4.9687,-1.52267 -11.14931,-3.43899 -15.13375,-5.75125 2.2933,-0.91885 3.8667,-5.70583 5.96875,-2.4375 4.41963,3.45709 10.07286,1.85773 15.03125,1.46875 5.30707,-2.10232 5.23663,-8.56948 3.90625,-13.15625 4.6389,0.1249 10.41223,-3.49724 13.1875,1.625 9.33963,9.37363 26.19641,5.06311 32,-5.6875 3.71181,5.79047 12.93733,9.4574 17.96875,3.09375 3.75215,-3.77159 8.86395,-11.20548 4.03125,-15.9375 0.27779,-1.70022 6.26431,-2.79908 8.5625,-4.46875 9.68742,-4.57348 18.84253,-9.75653 27.21875,-16.34375 l 0.20094,0.9796 0.0491,0.23915 z m -99.375,0.65625 c 1.25201,2.23061 -4.1401,5.00304 -3.125,8.09375 0.14578,2.83808 2.72808,4.66977 4.53125,6.3125 -0.16939,3.07529 0.0255,6.20468 0.6875,9.1875 -5.27338,1.51947 -9.26319,1.16402 -8.20418,-5.24388 -0.67988,-6.43911 -0.5241,-15.38076 6.11043,-18.34987 z m -38.5625,8.71875 c 3.17643,-0.45302 6.95731,3.88415 7.03125,5.25 -4.82266,-2.50994 -11.43343,-1.84884 -15.5,1.125 2.60486,-2.4571 4.71094,-5.73033 8.46875,-6.375 z m -17.71875,5.90625 c 1.57156,3.0008 5.91375,3.1543 8.375,1.15625 -5.68547,5.48 -6.60558,14.07649 -6.6875,21.53125 -1.67432,2.58488 -8.42666,6.36124 -3.9375,8.5 -5.44528,-0.037 -11.86736,0.088 -16.28125,-3.125 6.83983,-8.78381 14.37841,-17.92153 18.53125,-28.0625 z m 8.5,1.09375 c -0.22058,0.13335 0.22963,-0.19553 0,0 z m 207.187501,12.1875 c -9.71748,2.52215 -20.76587,5.94179 -29.65625,7.90625 3.33811,-3.51875 4.82255,-9.65355 10.6875,-9.0625 7.77359,-1.61758 15.84954,-4.13682 21.46875,-9.9375 -0.83333,3.69792 -1.66667,7.39583 -2.5,11.09375 z m 19.5625,4.75 c -2.39519,5.1738 5.34826,7.10259 7.87581,10.68759 9.79349,6.49926 -0.85083,3.22933 -6.64833,2.27616 -8.63833,-1.58167 -17.27665,-3.16333 -25.91498,-4.745 4.58149,-2.00587 11.86568,-1.41225 14.875,-4.9375 1.20697,-5.10496 2.27701,-10.37222 3.5625,-15.375 3.10485,0.27572 6.24404,-0.22461 9.125,-1.34375 -0.95833,4.47917 -1.91667,8.95833 -2.875,13.4375 z m -125.531251,-10.375 c -1.2653,2.98997 -2.84727,0.1555 0,0 z m -92.09375,3.28125 c 2.06717,0.72609 5.706,3.75283 1,3.4375 -5.17369,2.78496 -2.93143,-1.87916 -1,-3.4375 z m 152.3125,0.59375 c 1.93539,1.41841 7.00458,1.16447 7.1875,2.5625 -29.62449,38.46712 -81.2175,57.88012 -128.84375,48.34375 -16.36517,-3.06745 -32.22286,-9.36428 -46.125,-18.28125 2.95392,-0.8911 5.79164,-2.40883 7.875,-4.71875 38.14078,23.29864 89.25154,23.1763 127.47137,-0.11203 12.36869,-7.28499 23.23839,-16.97526 32.43488,-27.79422 z m -214.1875,4.03125 c 2.88058,4.18063 6.09453,8.16392 9.46875,12 -1.968,1.32943 -3.78879,7.05329 -5.78125,6 -2.70835,-5.76779 -3.7962,-12.33425 -4.25,-18.71875 l 0.5625,0.71875 z"
       id="path3951"
       inkscape:connector-curvature="0"
       transform="matrix(1.2824879,0,0,1.2824879,533.00796,-623.25145)" />
    <g
       id="g3944"
       transform="matrix(1.2577376,0.25074154,-0.25074154,1.2577376,1061.0077,-425.06035)">
      <path
         style="font-size:medium;font-style:normal;font-variant:normal;font-weight:normal;font-stretch:normal;text-indent:0;text-align:start;text-decoration:none;line-height:normal;letter-spacing:normal;word-spacing:normal;text-transform:none;direction:ltr;block-progression:tb;writing-mode:lr-tb;text-anchor:start;color:#000000;fill:#00d400;fill-opacity:1;stroke:none;stroke-width:7.30000019;marker:none;visibility:visible;display:inline;overflow:visible;filter:url(#filter3936);enable-background:accumulate;font-family:Sans;-inkscape-font-specification:Sans"
         d="m -374.40625,-104.1875 -6.90625,0.125 -133.375,2.6875 -6.59375,0.15625 3.625,5.5 55.9375,85.28125 -2.59375,99 -43.78052,21.92321 c 32.87265,0.40095 65.75478,-0.62157 98.62427,-1.14196 l 13.4375,-0.21875 -11.71875,-6.59375 -29.09375,-16.46875 1.3125,-96.4375 57.34375,-88.03125 z m -13.6875,7.5625 -54.125,83.125 -0.59375,0.90625 0,1.03125 -1.34375,99.6875 -0.0312,2.1875 1.875,1.0625 19.3125,10.90625 -54.8125,0.875 18.65625,-8.96875 2.03125,-0.96875 0.0625,-2.25 2.6875,-102.375 0.0312,-1.15625 -0.625,-0.9375 -52.96875,-80.6875 z"
         id="path3918"
         inkscape:connector-curvature="0"
         sodipodi:nodetypes="cccccccccccccccccccccccccccccccc" />
      <path
         sodipodi:nodetypes="cccccccccccccccccccccccccccccccc"
         inkscape:connector-curvature="0"
         id="path3902"
         d="m -374.40625,-104.1875 -6.90625,0.125 -133.375,2.6875 -6.59375,0.15625 3.625,5.5 55.9375,85.28125 -2.59375,99 -43.78052,21.92321 c 32.87265,0.40095 65.75478,-0.62157 98.62427,-1.14196 l 13.4375,-0.21875 -11.71875,-6.59375 -29.09375,-16.46875 1.3125,-96.4375 57.34375,-88.03125 z m -13.6875,7.5625 -54.125,83.125 -0.59375,0.90625 0,1.03125 -1.34375,99.6875 -0.0312,2.1875 1.875,1.0625 19.3125,10.90625 -54.8125,0.875 18.65625,-8.96875 2.03125,-0.96875 0.0625,-2.25 2.6875,-102.375 0.0312,-1.15625 -0.625,-0.9375 -52.96875,-80.6875 z"
         style="font-size:medium;font-style:normal;font-variant:normal;font-weight:normal;font-stretch:normal;text-indent:0;text-align:start;text-decoration:none;line-height:normal;letter-spacing:normal;word-spacing:normal;text-transform:none;direction:ltr;block-progression:tb;writing-mode:lr-tb;text-anchor:start;color:#000000;fill:#00d400;fill-opacity:1;stroke:none;stroke-width:7.30000019;marker:none;visibility:visible;display:inline;overflow:visible;enable-background:accumulate;font-family:Sans;-inkscape-font-specification:Sans" />
      <path
         inkscape:connector-curvature="0"
         id="path3908"
         d="m -381.21875,-102.08424 c -45.45832,0.91716 -90.91674,1.8305 -136.375,2.750002 19.37273,29.371424 38.64411,58.881481 57.96875,88.3125 -0.91519,33.603033 -1.7656,67.208529 -2.65625,100.8125 -12.45907,6.238106 -24.91654,12.479418 -37.375,18.718748 32.09898,0.20474 64.18831,-0.83094 96.28125,-1.28125 -11.83263,-6.63129 -23.63241,-13.339553 -35.4375,-20.031248 0.68315,-32.864828 0.50288,-65.971566 1.65625,-98.6875 19.68958,-30.217389 39.3626,-60.445601 59.0625,-90.656252 -1.04167,0.0208 -2.08333,0.0417 -3.125,0.0625 z m -5.125,6.531252 c -18.05338,28.024654 -36.75553,55.85432 -54.40625,84 -0.44354,33.552113 -0.92198,67.10399 -1.34375,100.65625 8.82552,5.04222 17.70295,10.033269 26.5625,15.031248 -23.01828,0.10128 -46.05934,1.33061 -69.0625,0.625 8.1721,-4.942129 17.02331,-8.599499 25.5625,-12.843748 0.7163,-34.746535 2.243,-69.76665 2.4375,-104.34375 -18.30763,-27.909431 -36.65455,-55.793207 -54.9375,-83.71875 42.41717,-0.827084 84.83274,-1.740695 127.25,-2.5625 -0.6875,1.052083 -1.375,2.104167 -2.0625,3.15625 z"
         style="font-size:medium;font-style:normal;font-variant:normal;font-weight:normal;font-stretch:normal;text-indent:0;text-align:start;text-decoration:none;line-height:normal;letter-spacing:normal;word-spacing:normal;text-transform:none;direction:ltr;block-progression:tb;writing-mode:lr-tb;text-anchor:start;color:#000000;fill:#ffffff;fill-opacity:1;stroke:none;stroke-width:7.30000019;marker:none;visibility:visible;display:inline;overflow:visible;filter:url(#filter3940);enable-background:accumulate;font-family:Sans;-inkscape-font-specification:Sans" />
    </g>
    <path
       style="font-size:20.48839951px;font-style:normal;font-variant:normal;font-weight:normal;font-stretch:normal;text-indent:0;text-align:start;text-decoration:none;line-height:normal;letter-spacing:normal;word-spacing:normal;text-transform:none;direction:ltr;block-progression:tb;writing-mode:lr-tb;text-anchor:start;color:#000000;fill:url(#linearGradient2914);fill-opacity:1;stroke:none;stroke-width:5;marker:none;visibility:visible;display:inline;overflow:visible;enable-background:accumulate;font-family:TrebuchetMS-Bold;-inkscape-font-specification:Sans"
       d="m 235.88095,-689.33116 c -58.11643,13.09405 -86.93225,45.0358 -102.73062,76.95863 l -3.23711,6.51773 7.26863,0.32486 c 17.19454,0.81838 29.30866,1.99392 33.22012,2.38415 l 6.42351,0.63594 -1.28741,-6.298 c -0.4206,-2.05071 -3.15869,-15.3051 -4.23911,-20.57818 6.84477,-0.48431 30.57722,-2.01511 61.5567,-2.06658 34.45034,-0.0572 74.73281,2.07522 99.03172,9.7934 5.5703,1.79143 8.44246,4.137 12.92013,7.04886 l -0.058,0.013 c 5.78498,3.80614 17.35328,18.81315 26.81179,33.69961 8.68772,13.67333 15.86683,26.98134 18.38004,32.53736 -0.62408,0.65187 -1.31277,1.35644 -2.07523,2.1719 l -0.045,0.071 c -8.86789,9.70478 -28.58515,31.11429 -58.7966,35.11124 -27.47463,3.62637 -67.59852,-4.02356 -118.39041,-23.26818 l -14.7318,-5.60674 9.15264,12.83153 c 2.979,4.16273 17.20376,24.1337 19.56019,27.45565 l 0.43333,0.57384 0.58155,0.4187 0.80777,0.61201 0.74969,0.625 0.90401,0.22458 c 3.67949,0.96499 22.88181,5.90065 45.09492,9.66693 22.2131,3.76629 47.15431,6.65267 64.10021,2.48676 23.64081,-5.78589 44.85126,-21.04262 56.03382,-30.83403 -0.10215,2.55211 -0.12081,5.32583 -0.30658,6.53274 l 0.013,0.058 -0.39026,2.34369 c -0.48638,3.45601 -1.11988,5.9932 -1.8616,6.94171 l -0.045,0.071 -0.10318,0.084 c -4.2449,6.04256 -12.89964,12.77889 -26.96626,23.10962 -20.85099,15.2701 -58.14578,30.66317 -93.96401,38.46833 -0.0198,0.004 -0.0383,0.009 -0.0581,0.013 -12.78801,2.55994 -25.57014,3.93202 -36.9011,5.14766 -11.84063,1.26763 -22.69052,2.38595 -32.11222,4.7468 -9.42169,2.36085 -17.61757,6.01209 -23.1862,12.75045 l -3.21518,3.89059 4.08389,2.98898 c 35.20538,25.46851 80.79677,36.31557 126.52123,26.08331 84.66892,-18.94728 138.11781,-103.04197 119.16799,-187.72218 -18.94781,-84.6713 -103.14758,-138.03319 -187.82533,-119.08393 -0.10147,0.0227 -0.18901,0.0421 -0.29037,0.065 l -2e-4,2.6e-4 z m 2.36972,9.2269 c 0.0977,-0.0219 0.19263,-0.0433 0.29037,-0.065 79.5565,-17.63735 158.3626,32.38919 176.16374,111.93638 17.82498,79.65371 -32.30812,158.52741 -111.95546,176.35096 -40.79402,9.12893 -81.26123,0.29219 -113.56536,-21.05487 3.57109,-2.53633 7.86964,-4.65256 13.75261,-6.1267 8.4248,-2.11105 18.98303,-3.25155 30.82158,-4.51896 11.34565,-1.21721 24.48186,-2.61897 37.84329,-5.29752 l 0.0581,-0.013 c 37.00643,-8.05608 74.9483,-23.50977 97.67304,-40.1521 14.00334,-10.28426 23.24414,-17.0276 28.96433,-25.08131 0.0399,-0.0562 0.10863,-0.0989 0.14814,-0.15512 l -0.0709,-0.045 c 2.80577,-3.70901 3.23094,-7.76392 3.71426,-11.1982 l 0.33219,-2.33069 c 0.54819,-3.56133 0.6878,-9.14295 0.65907,-12.58791 3.9e-4,-0.0157 -0.0134,-0.0425 -0.013,-0.058 -0.005,-0.88277 -0.0239,-1.95331 -0.4374,-3.31714 -0.42086,-1.38797 -1.52742,-3.37564 -3.53078,-4.3324 l -1.97006,-0.90076 -1.9997,0.87438 -3.22535,1.39257 -0.78705,0.2981 -0.59292,0.62054 c -8.57411,8.15466 -32.23235,25.93495 -55.49044,31.62717 -13.65028,3.35572 -38.53526,1.07921 -60.28558,-2.6086 -20.92229,-3.54743 -38.5353,-8.03949 -43.04161,-9.21169 -1.67406,-2.3572 -5.84312,-8.28638 -10.25241,-14.47589 44.7346,15.66913 81.36948,22.57383 108.7663,18.95773 l 0.058,-0.013 c 34.02064,-4.50089 55.65065,-28.38363 64.53051,-38.10188 0.0142,-0.0149 0.0447,0.002 0.058,-0.013 0.86186,-0.92196 1.61496,-1.74528 2.16539,-2.31405 0.55904,-0.57766 1.1845,-1.02796 0.53485,-0.60754 l 1.37997,-0.91864 0.57221,-1.53065 0.43697,-1.31743 0.54622,-1.64679 -0.60918,-1.63217 c -2.52657,-6.39496 -10.5874,-21.13144 -20.27702,-36.38162 -9.68962,-15.25019 -20.08776,-30.2056 -29.63023,-36.48392 l -0.013,-0.0581 c -4.00378,-2.60369 -8.13463,-5.86589 -15.17448,-8.12993 l -0.058,0.013 c -26.63098,-8.45915 -67.04737,-10.31199 -101.87893,-10.25412 -34.83157,0.0579 -63.83627,2.17722 -66.48773,2.37727 l -1.08433,0.0597 -0.92228,0.5113 -0.80613,0.48531 -1.84457,1.0226 -0.44225,2.11139 -0.13442,0.76187 -0.21158,0.96208 0.16286,1.00026 c 0,0 2.35625,11.2753 3.85532,18.59066 -4.12952,-0.38556 -11.01357,-0.86812 -19.83136,-1.41644 15.40399,-27.86408 41.28734,-54.00043 93.13624,-65.60323 l -5e-5,1e-4 z m 54.7432,60.68455 c -12.43161,2.97853 -23.22528,10.32261 -30.49378,20.97184 -0.0161,0.0232 -0.0291,0.0478 -0.045,0.0711 -7.77671,11.32221 -10.70425,25.15948 -8.17896,38.6637 5.29924,27.90637 32.40669,46.48332 60.34951,41.31816 l 0.058,-0.013 c 13.56271,-2.57863 25.32567,-10.28265 33.08113,-21.67281 7.73799,-11.33636 10.63924,-25.0833 8.13388,-38.59263 l -0.013,-0.0581 c -5.25896,-27.95282 -32.35877,-46.47393 -60.33651,-41.26008 -0.93049,0.17597 -1.80786,0.39266 -2.55527,0.57182 z m 2.25347,9.2529 c 0.76583,-0.18368 1.42326,-0.33964 2.03259,-0.45486 22.90443,-4.2684 44.94528,10.80495 49.24877,33.67921 2.05731,11.09347 -0.26254,22.1776 -6.61465,31.4836 -6.3678,9.35214 -15.86223,15.57281 -27.01948,17.69409 -22.84708,4.22322 -44.88634,-10.88185 -49.24877,-33.67921 -0.004,-0.0199 -0.009,-0.0382 -0.013,-0.0581 -2.05608,-11.07884 0.2892,-22.23503 6.67271,-31.4966 l 0.058,-0.013 -0.013,-0.0581 c 5.95501,-8.75519 14.6576,-14.64387 24.89673,-17.09709 l 1e-4,6e-5 z m -0.6323,4.53223 c -8.30967,2.39735 -15.50084,7.6003 -20.40756,14.81187 -5.56816,8.19551 -7.79327,18.21072 -5.92264,28.03569 3.83686,20.25999 23.45531,33.72989 43.72438,29.97588 l 0.058,-0.013 c 9.78907,-1.87516 18.36161,-7.40878 24.00816,-15.61762 5.61042,-8.24751 7.78178,-18.30887 5.90964,-28.09377 -3.83444,-20.29681 -23.56455,-33.68698 -43.82753,-29.89181 -1.11109,0.20579 -2.25997,0.4227 -3.54253,0.79275 l 8e-5,10e-6 z m 2.66008,9.16192 c 0.78902,-0.22764 1.57649,-0.3928 2.61334,-0.58482 l 0.058,-0.013 c 15.20717,-2.84824 29.80413,7.09207 32.68171,22.32394 1.39775,7.3054 -0.17853,14.71593 -4.4034,20.92666 -4.24363,6.16928 -10.52208,10.21671 -17.94653,11.63889 -15.19918,2.81504 -29.74279,-7.12502 -32.62363,-22.33693 l -0.013,-0.0581 c -1.39745,-7.33971 0.20801,-14.67448 4.41639,-20.86859 3.6753,-5.40172 9.0261,-9.24199 15.21704,-11.02808 l 8e-5,3e-5 z m 9.56685,4.8721 c -4.76043,1.06529 -8.85577,3.2626 -11.80936,6.36264 -2.95359,3.10003 -4.85395,7.46787 -3.84869,11.96007 1.00418,4.48731 4.58936,7.6293 8.5792,9.17895 3.98984,1.54964 8.62745,1.78927 13.39486,0.72241 4.75532,-1.06415 8.87176,-3.25976 11.80935,-6.36264 2.9376,-3.10287 4.79258,-7.46963 3.79062,-11.94707 -1.00276,-4.48122 -4.53871,-7.64018 -8.52113,-9.19194 -3.98241,-1.55176 -8.64477,-1.7854 -13.39485,-0.72242 z m 2.07934,9.29188 c 3.06699,-0.68634 5.98424,-0.42583 7.87536,0.31104 1.89113,0.73688 2.50209,1.64302 2.6694,2.39078 0.16227,0.72511 0.003,1.82302 -1.3958,3.3005 -1.39877,1.47747 -3.92989,2.95284 -6.99164,3.638 -3.07602,0.68835 -5.96452,0.43111 -7.87536,-0.31105 -1.91084,-0.74216 -2.56939,-1.67138 -2.72747,-2.37779 -0.16488,-0.73677 0.0444,-1.83414 1.45387,-3.31349 1.40946,-1.47934 3.90865,-2.94808 6.99164,-3.63799 z"
       id="path2445"
       inkscape:connector-curvature="0"
       sodipodi:nodetypes="ccccccccscccscccccccccccccsccccccccccscscccssscccssscsccccsccccssscccccccsccccsssccccccsccccsccccccccccccccsscccccccccccccsscccccccccccccccccccccccccccsssssssccsssssssc" />
    <path
       style="font-size:20.48839951px;font-style:normal;font-variant:normal;font-weight:normal;font-stretch:normal;text-indent:0;text-align:start;text-decoration:none;line-height:normal;letter-spacing:normal;word-spacing:normal;text-transform:none;direction:ltr;block-progression:tb;writing-mode:lr-tb;text-anchor:start;color:#000000;fill:#ffffff;fill-opacity:1;stroke:none;stroke-width:5;marker:none;visibility:visible;display:inline;overflow:visible;filter:url(#filter3898);enable-background:accumulate;font-family:TrebuchetMS-Bold;-inkscape-font-specification:Sans"
       d="M 97.1875,19.09375 C 75.17056,19.224005 53.052509,28.680062 39.625,46.5625 c 6.106577,1.666159 12.183016,3.483773 18.21875,5.46875 1.326571,-3.928965 -2.477553,-14.060832 2.5,-13.625 27.096351,4.719879 54.82707,9.458017 79.75,21.34375 12.85967,6.224883 16.23955,21.512022 20.90625,33.6875 1.56216,4.75215 2.99966,9.53981 4.03125,14.4375 -12.97005,10.04201 -29.94156,16.68507 -46.3463,11.82463 -18.860908,-4.71037 -35.786433,-14.81127 -51.9037,-25.35588 2.833033,6.07824 4.847916,12.75272 8.09375,18.53125 17.167794,7.97141 34.5712,17.48281 53.65625,18.53125 12.54601,-0.35113 24.42752,-5.11684 35.34375,-11.3125 -1.48362,6.23632 -2.76031,14.0134 -9.5625,16.53125 -27.82631,15.46011 -61.235178,17.29194 -92.28125,12.65625 -7.561117,-0.56372 -16.248769,-1.72669 -22.5625,3.28125 22.159918,26.17119 61.72217,35.09652 92.9504,20.85608 C 164.61984,159.9344 185.04003,123.95313 180.125,89.34375 176.07196,53.552627 145.23814,23.088709 109.44325,19.611677 105.37553,19.130884 101.28126,18.981165 97.1875,19.09375 z m 1.625,0.96875 c 35.89879,-1.201548 70.02935,24.837174 78.4375,59.6875 8.99156,33.1064 -6.23266,70.5716 -35.8125,87.90625 -29.15229,18.32433 -70.162269,14.29631 -95.020446,-9.54849 -2.376952,-2.56673 -8.702856,-6.24847 -1.854554,-6.98276 12.973707,-3.69181 26.53963,1.33714 39.717562,1.32997 25.746168,0.65403 52.796628,-3.21461 74.563688,-17.67372 3.7879,-3.48453 5.28189,-9.34012 5.46875,-14.28125 -2.80177,-1.87826 -6.34265,2.60773 -9.37857,3.13376 -12.9921,5.98416 -28.18498,9.33164 -42.05115,3.99585 C 99.87691,123.43138 86.478385,118.3237 75,111.28125 74.284275,107.69894 67.323181,96.751529 70.697117,97.964453 89.43236,109.31674 109.34885,121.81994 131.78125,122.25 c 12.654,-0.31823 24.82895,-6.32948 34.3125,-14.34375 C 162.36516,93.653518 158.46663,78.859255 150.03125,66.5 140.90976,55.830646 126.17553,53.093478 113.50078,48.702921 95.212787,43.785893 76.318418,39.486425 57.5625,37.21875 56.048575,41.129355 57.47284,46.380043 56.875,50.6875 51.685857,49.067837 46.49006,47.481593 41.25,46.03125 54.611106,29.117458 75.922114,20.118947 97.249688,20.100008 97.770616,20.087198 98.291541,20.073151 98.8125,20.0625 z M 120.15625,61.5 c -15.86712,0.32596 -27.895357,18.049469 -22.34375,32.84375 4.44081,15.06277 24.08273,22.38311 37.125,13.5625 13.97427,-7.975206 15.90356,-29.311454 3.8125,-39.75 C 133.74454,63.483949 127.00017,61.005632 120.15625,61.5 z m 1.15625,0.9375 c 15.2119,-0.777726 27.87513,15.146708 23.875,29.78125 -3.00493,14.34039 -20.4954,22.91585 -33.65625,16.21875 -13.826227,-5.9282 -18.558838,-25.483181 -8.71875,-36.96875 4.41771,-5.48292 11.28327,-9.04171 18.5,-9.03125 z m -0.65625,6.25 c -12.80717,0.145523 -21.213296,16.50476 -13.875,26.96875 6.70142,11.89064 26.03363,10.64847 31.125,-2.0625 5.63395,-11.736429 -4.35913,-25.944231 -17.25,-24.90625 z m 0.8125,0.96875 C 133.562,68.961666 142.61628,83.404038 136.625,94 c -5.09014,11.01439 -22.19983,12.04605 -28.5625,1.8125 -7.75988,-10.442359 0.40916,-26.319808 13.40625,-26.15625 z m 2.875,7.65625 c -4.45303,-0.449583 -10.14397,5.142559 -5.625,8.96875 4.22297,3.895994 14.35021,2.772847 14.46875,-3.96875 -0.65638,-3.841947 -5.44892,-5.284032 -8.84375,-5 z m 0.8125,0.96875 c 3.93508,-0.688909 9.83968,3.881036 5.59375,7.4375 -3.74895,2.9927 -12.36488,2.387725 -12.71875,-3.375 0.8295,-2.98714 4.36443,-4.011261 7.125,-4.0625 z"
       id="path3854"
       inkscape:connector-curvature="0"
       transform="matrix(1.8583751,-0.41586881,0.41586881,1.8583751,42.947679,-679.4528)"
       sodipodi:nodetypes="cccccccccccccccccccccccccccccccccccccccccccccccccccccccccccccccccc" />
    <g
       transform="matrix(1.2671236,-0.19792201,0.19792201,1.2671236,26.037039,-898.52015)"
       style="font-size:116.26525879px;font-style:normal;font-variant:normal;font-weight:normal;font-stretch:normal;text-align:start;line-height:125%;letter-spacing:0px;word-spacing:0px;writing-mode:lr-tb;text-anchor:start;fill:#ffffff;fill-opacity:1;stroke:none;font-family:Fineliner Script;-inkscape-font-specification:Fineliner Script"
       id="text3006">
      <g
         id="g3890"
         transform="translate(140.46255,26.030384)">
        <path
           d="m 323.23319,323.12947 c -11.99031,-0.67141 -20.24715,11.05198 -22.6209,21.70654 -1.34073,-4.6146 0.96226,-12.18991 -4.17375,-14.79006 -2.35472,-1.33224 -5.45805,2.24423 -5.21033,-2.079 -4.25066,-8.66163 -16.75219,-6.24719 -22.37308,-0.33174 -8.35911,7.86471 -12.1181,19.67373 -13.01917,30.70237 -1.91626,1.24602 -5.62759,8.72496 -5.13285,3.49979 -0.76118,-10.74349 -0.27015,-21.92097 -2.91937,-32.33795 -3.10699,-4.71517 -9.22881,-1.56018 -11.86956,1.87822 -3.62787,3.5154 -6.42961,7.62527 -8.89439,11.98974 -0.96774,-5.46755 1.50144,-13.55214 -3.67408,-17.17906 -4.94897,-2.23473 -10.99,2.35337 -8.77303,7.77042 0.86124,2.71304 5.00447,2.22628 3.48224,5.93784 0.0142,7.61687 0.0925,15.6525 -1.00399,22.94692 -2.36368,1.37097 -5.20254,5.11823 -7.53816,4.92693 -2.44654,-13.14239 -0.92949,-26.83917 0.58363,-39.98267 -1.12422,-5.41449 -10.68599,-4.50919 -9.90698,1.42179 -1.55839,13.17315 -4.18616,27.62307 -13.1366,37.77277 -2.87442,3.02857 -5.07866,-1.86342 -4.8795,-4.39949 -1.28399,-11.4177 2.38738,-22.81845 4.57266,-33.72965 -0.78078,-5.1825 -9.26769,-4.8148 -9.7373,0.37679 -3.21329,0.55286 -7.26551,3.67995 -9.90987,3.10155 -2.09574,-3.16381 -4.40772,-10.20301 -9.42802,-8.08308 -11.02118,-4.32996 -22.05551,4.62804 -25.01697,14.97486 -2.16054,7.24883 -1.87939,15.40347 -0.2584,22.51106 -5.04533,3.05746 -10.13157,6.55327 -16.3308,6.74807 -8.23363,0.44898 -19.900335,1.50392 -24.523105,-6.6138 -3.39002,-13.43436 -1.50323,-27.95759 0.77749,-41.62873 0.30157,-5.26036 3.54785,-9.99294 3.49876,-15.10982 -1.49478,-4.83162 -9.56218,-4.81521 -10.17727,0.5611 -7.522159,19.00201 -8.224342,40.39702 -3.958632,60.17245 3.945982,11.2704 17.848652,12.94954 28.217837,12.72597 9.41962,-0.18524 19.94856,-1.11359 27.15064,-7.77811 5.74923,8.40932 18.32926,9.45924 25.86696,2.87009 9.02583,-7.61039 10.55749,-20.98906 7.92081,-31.87826 3.65504,-2.69345 4.14046,-1.29569 2.89952,2.69855 -0.96254,10.5072 -2.88343,23.18558 4.69564,31.69816 7.06499,5.47413 16.26234,-1.06343 19.5881,-7.75747 1.55054,-3.13936 2.19646,-4.31192 2.34749,-0.0445 0.0402,5.23382 4.637,11.84166 10.41703,8.83852 2.12148,-0.38353 5.10863,-3.58094 5.95685,-3.30783 -0.55571,6.31446 9.90383,4.48874 9.31369,-1.10717 2.11476,-11.33696 6.99244,-24.04099 14.44034,-31.90368 1.17192,11.49204 0.28558,23.33099 1.23871,34.79552 3.1921,4.84511 9.05159,-0.0528 12.07311,-2.57388 2.4644,-1.03755 4.92326,-6.90405 6.36887,-2.70578 4.23382,7.7005 14.99729,8.91035 21.56277,3.49458 1.92605,-1.31249 -3.17197,3.17255 -3.8042,4.30827 -6.49948,6.71862 -11.8284,17.80293 -5.5514,26.42864 2.27056,3.79745 7.30381,5.96974 10.77658,2.28423 11.18862,-8.74954 14.94783,-23.67218 17.08474,-37.08895 2.20439,-5.13637 3.2879,-0.007 5.42934,1.8918 10.40264,11.3885 30.85839,5.62039 36.6207,-7.65895 2.09559,-3.65936 -2.32572,-9.39288 -5.84152,-5.53026 -4.40471,7.25067 -15.29504,13.65828 -22.76829,7.26073 -3.34345,-2.01095 -0.93808,-3.55116 1.59563,-4.74813 10.57166,-6.52638 20.43461,-19.21223 16.13268,-32.20866 -1.23538,-3.48277 -4.59752,-5.56201 -8.1813,-5.73758 z m -0.0304,9.10438 c 2.21468,2.02978 -0.66302,6.5765 -1.48156,8.87771 -3.29767,4.84774 -7.93945,9.0721 -12.74127,12.11633 0.35348,-8.32385 5.63055,-18.92126 14.22283,-20.99404 z M 22.057691,290.76231 c -5.64458,0.55102 -7.379231,7.70141 -9.50032,12.02162 -2.5956222,6.27923 -2.7741122,14.18152 -4.0494442,20.0528 -6.82399,-0.92876 -14.0980987,2.06205 -18.8317258,6.35742 -0.888771,-8.40153 -11.849917,-9.71647 -17.526866,-5.23634 -1.72111,1.15264 -2.758536,3.13983 -3.878692,0.5328 -3.738607,-3.01866 -7.43191,1.33334 -8.407506,4.82277 -1.691945,1.55545 -4.983467,7.16767 -6.114162,2.49253 -4.084947,-7.62657 -14.134807,-10.82991 -21.674841,-6.42194 -4.679221,1.90551 -12.19763,7.22799 -8.668566,12.97389 4.516152,3.65621 8.357021,-3.5007 12.46474,-4.4737 7.176166,-3.56629 12.343836,5.08908 13.153478,11.16367 0.784655,3.58189 0.02738,3.41975 -1.785911,0.70154 -4.91319,-6.82451 -16.244389,-7.16066 -20.701924,0.30884 -4.702598,6.7201 -5.946122,16.16449 -5.404881,23.66819 -8.478313,2.97676 -16.763902,-1.59733 -24.84523,-3.94403 -6.63162,-0.15062 2.10153,-4.48767 3.6009,-6.87194 8.79348,-8.37736 18.725617,-17.13542 22.580562,-28.92264 -1.045314,-4.98682 -7.463809,-3.65526 -10.80264,-2.31993 -7.759305,1.9164 -15.832732,-0.76584 -23.517372,0.31188 -4.72006,2.1282 -2.64859,9.93155 2.67603,8.96466 5.74076,0.38684 11.472553,0.82211 17.221704,0.53237 -8.953644,11.66606 -21.505144,20.80894 -31.527984,30.94259 -4.07414,-1.7773 -3.48168,-8.07027 -4.147,-11.82327 -0.90455,-8.41113 1.02219,-16.7576 2.24051,-24.9743 -0.13283,-5.55848 -7.95245,-5.40853 -9.23852,-0.58905 -3.68175,9.90093 -3.10423,21.13495 -2.02944,31.21704 -9.35365,7.76268 -23.13941,7.98945 -34.29459,4.51147 -9.03195,-3.96303 -6.23639,-15.69673 -6.99255,-23.67526 0.2164,-12.49513 2.56193,-25.17526 6.16258,-37.02375 -0.41561,-5.52258 -9.69906,-6.24473 -10.31529,-0.3777 -7.48837,18.99833 -8.20226,40.42196 -3.92776,60.17727 3.95719,11.28034 17.8055,12.96951 28.21303,12.75685 8.56161,-0.13766 17.64398,-1.03909 24.86788,-5.92065 2.67334,6.24345 11.08809,6.98199 15.59701,2.40459 10.14816,-5.36524 20.253924,3.16351 30.052626,5.23185 4.348236,0.0865 9.494281,-1.17483 12.18686,-4.51711 7.465842,5.25695 17.612804,0.73432 23.449597,-4.94029 1.525717,4.86962 6.991839,7.26766 11.53516,6.13493 4.578991,2.81835 8.909623,-2.84679 7.508172,-7.29312 0.921528,-10.17368 -0.525205,-21.01131 2.475174,-30.90505 1.911864,-3.80862 6.213702,-10.09404 11.078066,-7.94808 1.555612,3.77369 -2.484224,5.47622 -4.095405,7.995 -1.131378,2.92837 1.717707,5.72579 3.595405,6.95063 -3.152853,11.0148 -0.178152,26.35527 12.3458725,29.69859 8.6950043,2.76698 18.0425285,-1.87166 22.3648655,-9.53777 2.00574,5.59798 7.560354,13.00039 14.328588,9.51275 3.866746,-2.63886 8.481857,-6.77182 8.568285,-11.7244 -1.909507,-5.16949 -7.866739,-0.63723 -9.921509,1.9611 -2.785828,2.31146 -3.845124,-3.56231 -4.922954,-5.13375 -2.665314,-4.56903 -1.540144,-9.19239 0.575485,-13.7821 5.19515,-16.63835 7.766795,-35.16402 2.754739,-52.08682 -0.753491,-1.88365 -2.277378,-3.85792 -4.474236,-3.95665 z m 259.977599,41.58845 c 2.52286,0.94537 3.76604,5.60089 7.18065,3.84169 0.25007,11.31407 -2.0302,25.80477 -13.95702,30.42935 -6.68182,2.02195 -10.08827,-6.85129 -8.82229,-12.16348 1.16734,-8.8711 6.15463,-18.76526 14.86923,-22.09498 0.2474,-0.0108 0.48709,-0.0361 0.72943,-0.0126 z M 20.30746,310.06723 c 0.332801,7.41827 -0.465974,14.87367 -1.916038,22.18888 -0.913885,-7.89106 -0.0019,-15.80258 1.840712,-23.52906 l 0.05612,0.99842 0.01921,0.34176 z m 131.82065,22.3297 c 0.93041,1.29644 -1.18662,4.86224 -0.46083,7.20267 -0.6129,6.0351 6.69441,8.31248 10.8289,6.40416 1.43987,8.08828 -0.94128,20.38309 -10.59204,21.84583 -9.81735,0.39838 -13.09408,-12.03266 -11.7269,-19.89183 0.89406,-6.03932 4.19145,-16.11557 11.95087,-15.56083 z m 139.60462,31.42113 c 0.25928,2.47283 -7.23639,7.49254 -2.63681,2.90917 1.04808,-0.78163 3.30193,-6.88443 2.63681,-2.90917 z M -123.44243,311.462 c -5.96678,0.45333 -10.37087,9.54105 -6.26216,14.17212 5.79478,3.16628 10.49926,-4.293 10.08129,-9.46382 0.11499,-2.24547 -1.34069,-4.74302 -3.81913,-4.7083 z M 8.2556188,332.34925 c 1.5906,3.29584 0.605362,9.08887 1.606944,13.30874 0.8581752,5.10548 2.6848082,10.48866 -1.578505,14.65566 -3.250926,6.47564 -13.9283585,9.30019 -17.6596539,1.89106 -5.0389379,-10.86272 1.0891155,-26.99417 13.1977059,-29.8205 1.466665,-0.28391 2.953828,-0.2206 4.433509,-0.035 z M 288.39615,380.72443 c -1.72479,5.24873 -5.0972,13.20733 -8.42817,15.88967 -1.09626,-6.65165 4.34516,-12.14209 8.60278,-16.40009 l -0.17461,0.51042 z M -40.850211,341.98004 c -1.087404,8.13989 -0.683848,18.1639 -1.894654,25.29185 -4.340185,-3.92769 0.554054,-9.42918 0.3939,-14.26637 0.844064,-3.83575 -0.155919,-8.48368 0.21939,-11.73169 0.975069,-0.13368 1.973022,-1.6503 1.281364,0.70621 z m -21.859374,7.71899 c 4.190595,1.90659 5.919114,7.18931 7.522582,11.16975 -3.248825,4.28933 -8.789605,8.93138 -14.37594,8.00228 -1.46119,-5.46715 0.494353,-12.02216 3.032642,-16.98547 0.909689,-1.20175 2.178704,-2.42561 3.820716,-2.18656 z"
           id="path3868"
           inkscape:connector-curvature="0"
           style="fill:#ff5555;filter:url(#filter3878)" />
        <path
           style="fill:#ff2a2a"
           inkscape:connector-curvature="0"
           id="path3011"
           d="m 323.23319,323.12947 c -11.99031,-0.67141 -20.24715,11.05198 -22.6209,21.70654 -1.34073,-4.6146 0.96226,-12.18991 -4.17375,-14.79006 -2.35472,-1.33224 -5.45805,2.24423 -5.21033,-2.079 -4.25066,-8.66163 -16.75219,-6.24719 -22.37308,-0.33174 -8.35911,7.86471 -12.1181,19.67373 -13.01917,30.70237 -1.91626,1.24602 -5.62759,8.72496 -5.13285,3.49979 -0.76118,-10.74349 -0.27015,-21.92097 -2.91937,-32.33795 -3.10699,-4.71517 -9.22881,-1.56018 -11.86956,1.87822 -3.62787,3.5154 -6.42961,7.62527 -8.89439,11.98974 -0.96774,-5.46755 1.50144,-13.55214 -3.67408,-17.17906 -4.94897,-2.23473 -10.99,2.35337 -8.77303,7.77042 0.86124,2.71304 5.00447,2.22628 3.48224,5.93784 0.0142,7.61687 0.0925,15.6525 -1.00399,22.94692 -2.36368,1.37097 -5.20254,5.11823 -7.53816,4.92693 -2.44654,-13.14239 -0.92949,-26.83917 0.58363,-39.98267 -1.12422,-5.41449 -10.68599,-4.50919 -9.90698,1.42179 -1.55839,13.17315 -4.18616,27.62307 -13.1366,37.77277 -2.87442,3.02857 -5.07866,-1.86342 -4.8795,-4.39949 -1.28399,-11.4177 2.38738,-22.81845 4.57266,-33.72965 -0.78078,-5.1825 -9.26769,-4.8148 -9.7373,0.37679 -3.21329,0.55286 -7.26551,3.67995 -9.90987,3.10155 -2.09574,-3.16381 -4.40772,-10.20301 -9.42802,-8.08308 -11.02118,-4.32996 -22.05551,4.62804 -25.01697,14.97486 -2.16054,7.24883 -1.87939,15.40347 -0.2584,22.51106 -5.04533,3.05746 -10.13157,6.55327 -16.3308,6.74807 -8.23363,0.44898 -19.900338,1.50392 -24.523108,-6.6138 -3.39002,-13.43436 -1.50323,-27.95759 0.77749,-41.62873 0.30157,-5.26036 3.54785,-9.99294 3.49876,-15.10982 -1.49478,-4.83162 -9.56218,-4.81521 -10.17727,0.5611 -7.522159,19.00201 -8.224342,40.39702 -3.958632,60.17245 3.945982,11.2704 17.848652,12.94954 28.21784,12.72597 9.41962,-0.18524 19.94856,-1.11359 27.15064,-7.77811 5.74923,8.40932 18.32926,9.45924 25.86696,2.87009 9.02583,-7.61039 10.55749,-20.98906 7.92081,-31.87826 3.65504,-2.69345 4.14046,-1.29569 2.89952,2.69855 -0.96254,10.5072 -2.88343,23.18558 4.69564,31.69816 7.06499,5.47413 16.26234,-1.06343 19.5881,-7.75747 1.55054,-3.13936 2.19646,-4.31192 2.34749,-0.0445 0.0402,5.23382 4.637,11.84166 10.41703,8.83852 2.12148,-0.38353 5.10863,-3.58094 5.95685,-3.30783 -0.55571,6.31446 9.90383,4.48874 9.31369,-1.10717 2.11476,-11.33696 6.99244,-24.04099 14.44034,-31.90368 1.17192,11.49204 0.28558,23.33099 1.23871,34.79552 3.1921,4.84511 9.05159,-0.0528 12.07311,-2.57388 2.4644,-1.03755 4.92326,-6.90405 6.36887,-2.70578 4.23382,7.7005 14.99729,8.91035 21.56277,3.49458 1.92605,-1.31249 -3.17197,3.17255 -3.8042,4.30827 -6.49948,6.71862 -11.8284,17.80293 -5.5514,26.42864 2.27056,3.79745 7.30381,5.96974 10.77658,2.28423 11.18862,-8.74954 14.94783,-23.67218 17.08474,-37.08895 2.20439,-5.13637 3.2879,-0.007 5.42934,1.8918 10.40264,11.3885 30.85839,5.62039 36.6207,-7.65895 2.09559,-3.65936 -2.32572,-9.39288 -5.84152,-5.53026 -4.40471,7.25067 -15.29504,13.65828 -22.76829,7.26073 -3.34345,-2.01095 -0.93808,-3.55116 1.59563,-4.74813 10.57166,-6.52638 20.43461,-19.21223 16.13268,-32.20866 -1.23538,-3.48277 -4.59752,-5.56201 -8.1813,-5.73758 z m -0.0304,9.10438 c 2.21468,2.02978 -0.66302,6.5765 -1.48156,8.87771 -3.29767,4.84774 -7.93945,9.0721 -12.74127,12.11633 0.35348,-8.32385 5.63055,-18.92126 14.22283,-20.99404 z M 22.057688,290.76231 c -5.64458,0.55102 -7.379231,7.70141 -9.50032,12.02162 -2.5956214,6.27923 -2.7741114,14.18152 -4.0494434,20.0528 -6.8239901,-0.92876 -14.0980987,2.06205 -18.8317266,6.35742 -0.888771,-8.40153 -11.849917,-9.71647 -17.526866,-5.23634 -1.72111,1.15264 -2.758536,3.13983 -3.878692,0.5328 -3.738607,-3.01866 -7.43191,1.33334 -8.407506,4.82277 -1.691945,1.55545 -4.983467,7.16767 -6.114162,2.49253 -4.084947,-7.62657 -14.134807,-10.82991 -21.674841,-6.42194 -4.679221,1.90551 -12.19763,7.22799 -8.668566,12.97389 4.516152,3.65621 8.357021,-3.5007 12.46474,-4.4737 7.176166,-3.56629 12.343836,5.08908 13.153478,11.16367 0.784655,3.58189 0.02738,3.41975 -1.785911,0.70154 -4.91319,-6.82451 -16.244389,-7.16066 -20.701924,0.30884 -4.702598,6.7201 -5.946122,16.16449 -5.404881,23.66819 -8.478313,2.97676 -16.763902,-1.59733 -24.845227,-3.94403 -6.63162,-0.15062 2.10152,-4.48767 3.6009,-6.87194 8.793477,-8.37736 18.725614,-17.13542 22.580559,-28.92264 -1.045314,-4.98682 -7.463809,-3.65526 -10.80264,-2.31993 -7.759305,1.9164 -15.832729,-0.76584 -23.517369,0.31188 -4.72006,2.1282 -2.64859,9.93155 2.67603,8.96466 5.74075,0.38684 11.47255,0.82211 17.221701,0.53237 -8.953651,11.66606 -21.505141,20.80894 -31.527981,30.94259 -4.07414,-1.7773 -3.48168,-8.07027 -4.147,-11.82327 -0.90455,-8.41113 1.02219,-16.7576 2.24051,-24.9743 -0.13283,-5.55848 -7.95245,-5.40853 -9.23852,-0.58905 -3.68175,9.90093 -3.10423,21.13495 -2.02944,31.21704 -9.35365,7.76268 -23.13941,7.98945 -34.29459,4.51147 -9.03195,-3.96303 -6.23639,-15.69673 -6.99255,-23.67526 0.2164,-12.49513 2.56193,-25.17526 6.16258,-37.02375 -0.41561,-5.52258 -9.69906,-6.24473 -10.31529,-0.3777 -7.48837,18.99833 -8.20226,40.42196 -3.92776,60.17727 3.95719,11.28034 17.8055,12.96951 28.21303,12.75685 8.56161,-0.13766 17.64398,-1.03909 24.86788,-5.92065 2.67334,6.24345 11.08809,6.98199 15.59701,2.40459 10.14816,-5.36524 20.253921,3.16351 30.052623,5.23185 4.348236,0.0865 9.494281,-1.17483 12.18686,-4.51711 7.465842,5.25695 17.612804,0.73432 23.449597,-4.94029 1.525717,4.86962 6.991839,7.26766 11.53516,6.13493 4.578991,2.81835 8.909623,-2.84679 7.508172,-7.29312 0.921528,-10.17368 -0.525205,-21.01131 2.475174,-30.90505 1.911864,-3.80862 6.213702,-10.09404 11.078066,-7.94808 1.555612,3.77369 -2.484224,5.47622 -4.095405,7.995 -1.131378,2.92837 1.717707,5.72579 3.595405,6.95063 -3.152853,11.0148 -0.178152,26.35527 12.3458733,29.69859 8.6950042,2.76698 18.0425277,-1.87166 22.3648647,-9.53777 2.00574,5.59798 7.560354,13.00039 14.328588,9.51275 3.866746,-2.63886 8.481857,-6.77182 8.568285,-11.7244 -1.909507,-5.16949 -7.866739,-0.63723 -9.921509,1.9611 -2.785828,2.31146 -3.845124,-3.56231 -4.922954,-5.13375 -2.665314,-4.56903 -1.540144,-9.19239 0.575485,-13.7821 5.19515,-16.63835 7.766795,-35.16402 2.754739,-52.08682 -0.753491,-1.88365 -2.277378,-3.85792 -4.474236,-3.95665 z m 259.977602,41.58845 c 2.52286,0.94537 3.76604,5.60089 7.18065,3.84169 0.25007,11.31407 -2.0302,25.80477 -13.95702,30.42935 -6.68182,2.02195 -10.08827,-6.85129 -8.82229,-12.16348 1.16734,-8.8711 6.15463,-18.76526 14.86923,-22.09498 0.2474,-0.0108 0.48709,-0.0361 0.72943,-0.0126 z M 20.307457,310.06723 c 0.332801,7.41827 -0.465974,14.87367 -1.916038,22.18888 -0.913885,-7.89106 -0.0019,-15.80258 1.840712,-23.52906 l 0.05612,0.99842 0.01921,0.34176 z m 131.820653,22.3297 c 0.93041,1.29644 -1.18662,4.86224 -0.46083,7.20267 -0.6129,6.0351 6.69441,8.31248 10.8289,6.40416 1.43987,8.08828 -0.94128,20.38309 -10.59204,21.84583 -9.81735,0.39838 -13.09408,-12.03266 -11.7269,-19.89183 0.89406,-6.03932 4.19145,-16.11557 11.95087,-15.56083 z m 139.60462,31.42113 c 0.25928,2.47283 -7.23639,7.49254 -2.63681,2.90917 1.04808,-0.78163 3.30193,-6.88443 2.63681,-2.90917 z M -123.44243,311.462 c -5.96678,0.45333 -10.37087,9.54105 -6.26216,14.17212 5.79478,3.16628 10.49926,-4.293 10.08129,-9.46382 0.11499,-2.24547 -1.34069,-4.74302 -3.81913,-4.7083 z M 8.2556166,332.34925 c 1.5906,3.29584 0.605362,9.08887 1.606944,13.30874 0.8581744,5.10548 2.6848074,10.48866 -1.578505,14.65566 -3.250926,6.47564 -13.9283585,9.30019 -17.6596541,1.89106 -5.0389385,-10.86272 1.0891157,-26.99417 13.1977061,-29.8205 1.466665,-0.28391 2.953828,-0.2206 4.433509,-0.035 z M 288.39615,380.72443 c -1.72479,5.24873 -5.0972,13.20733 -8.42817,15.88967 -1.09626,-6.65165 4.34516,-12.14209 8.60278,-16.40009 l -0.17461,0.51042 z M -40.850214,341.98004 c -1.087404,8.13989 -0.683848,18.1639 -1.894654,25.29185 -4.340185,-3.92769 0.554054,-9.42918 0.3939,-14.26637 0.844064,-3.83575 -0.155919,-8.48368 0.21939,-11.73169 0.975069,-0.13368 1.973022,-1.6503 1.281364,0.70621 z m -21.859374,7.71899 c 4.190595,1.90659 5.919114,7.18931 7.522582,11.16975 -3.248825,4.28933 -8.789605,8.93138 -14.37594,8.00228 -1.46119,-5.46715 0.494353,-12.02216 3.032642,-16.98547 0.909689,-1.20175 2.178704,-2.42561 3.820716,-2.18656 z" />
        <path
           inkscape:connector-curvature="0"
           id="path3092"
           d="m 21.855859,292.80218 c -5.444843,2.21445 -6.485375,9.29616 -8.5625,14.1875 -1.481528,5.83595 -1.788855,12.03153 -3.09375,17.96875 -8.3459357,-1.64789 -16.5161097,2.4291 -22.15625,8.34375 1.107784,-5.33772 -3.020061,-10.75431 -8.625,-9.875 -4.543399,-0.88334 -6.974405,5.21945 -11.1875,4 -1.018885,-2.07831 -3.540114,-2.69555 -4.875,-0.46875 -2.118753,3.32951 -4.687915,9.70031 -9.625,8.25 -2.536176,-3.14601 -4.316404,-7.58181 -8.8125,-8.78125 -7.190559,-2.98412 -16.24278,1.09329 -20.09375,7.46875 -1.452066,2.58719 1.628716,4.78527 3.5625,2.46875 4.418507,-4.35059 12.460311,-8.01128 17.53125,-2.375 3.479125,3.86359 6.251722,9.6854 5,14.875 -4.152053,3.12738 -5.516406,-4.55687 -9.21875,-5.25 -6.568354,-3.515 -14.044172,1.26153 -15.875,7.96875 -2.619894,6.13374 -3.097595,12.93319 -2.53125,19.5625 -10.250396,4.27776 -20.782742,-1.67407 -30.499999,-4.3125 -3.15355,-4.20444 3.86917,-6.59368 5.78125,-9.4375 8.24799,-8.07718 18.56029,-16.47066 21.687499,-27.90625 -3.915188,-3.09097 -9.209316,1.56902 -13.65625,0.84375 -6.071473,0.65051 -13.039299,-2.10709 -18.562499,0.21875 -1.9502,3.15933 2.06951,5.62437 4.96451,4.50516 6.4376,0.53087 12.897839,0.59382 19.347989,0.27609 -9.870396,13.67709 -23.617379,23.60724 -35.374999,35.5 -7.58784,-2.81789 -6.03893,-12.61018 -6.78125,-19.03125 -0.4115,-7.25881 2.50677,-14.57659 2.0625,-21.59375 -3.21688,-2.81229 -6.16937,2.1578 -6.125,5.125 -2.28501,9.04099 -1.62312,18.52832 -0.65625,27.75 -10.50599,9.11399 -26.63024,9.86061 -39,4.5 -8.65683,-5.9194 -5.61953,-18.04975 -6.3125,-26.96875 0.25545,-12.00192 3.22185,-23.89907 5.90625,-35.3125 -1.75986,-3.1357 -6.87393,-1.75439 -6.6067,1.99672 -7.00706,18.88931 -8.03078,40.27186 -2.8308,59.59703 5.96887,10.35381 19.91917,9.95849 30.34375,9.5 7.36098,-0.29441 14.89351,-2.13349 20.9375,-6.59375 1.27808,6.41692 9.7912,8.21818 13.875,3.5 10.64005,-5.82943 21.514755,2.92622 31.781249,5 4.143609,-0.0499 8.683056,-1.45079 10.9375,-5.1875 7.946329,6.71051 18.945046,0.75045 24.78125,-5.875 0.501914,5.25807 5.562009,9.41519 10.875,7.625 3.427791,2.93302 6.685908,-2.25447 5.28125,-5.3125 1.561312,-12.12254 -2.202678,-26.61136 6,-36.8125 2.437082,-3.76352 10.015979,-6.8975 11.8125,-1.3125 1.175478,4.03626 -3.836201,6.08916 -4.59375,9.125 0.824172,3.28045 5.847027,3.88753 3.25,7.8125 -2.425794,9.90221 1.598572,23.8272 13.0937502,25.625 8.869221,1.86187 17.2315558,-4.6197 20.4687498,-12.625 2.031925,5.24131 5.089711,14.15418 12.3125,12.6875 3.506153,-2.20402 8.885475,-6.11435 7.84375,-10.5625 -4.306464,-0.57595 -7.621318,8.38882 -11.75,2.96875 -3.382333,-5.55972 -5.963754,-12.42546 -2.625,-18.71875 5.746806,-16.94982 8.79839,-36.24354 2.8125,-53.5625 -0.512012,-0.68889 -1.241296,-1.6124 -2.21875,-1.375 z m 0.4375,15.78125 c 0.321534,9.85726 0.05019,20.1772 -4.0625,29.28125 -3.746708,-10.01991 -2.260212,-21.51104 0.967223,-31.43902 2.146573,-6.62691 1.855746,-0.81015 3.095277,2.15777 z m 67.90625,-5 c -4.13151,0.89377 -3.21079,6.93934 -5.09375,9.90625 -4.940849,17.2772 -5.618957,36.64272 -0.53125,53.84375 6.83186,10.55495 21.453241,9.47163 32.468751,8.875 7.3869,-0.56229 15.28862,-2.82737 20.375,-8.4375 5.28287,10.6117 21.64274,10.65856 27.65625,0.71875 5.59826,-7.79186 5.98973,-18.37885 3.5625,-27.5625 2.10545,-3.0953 8.6945,-3.71787 7.71875,1.40625 -1.41013,10.69329 -4.14673,24.28968 4.21875,32.84375 7.4137,3.76593 14.54006,-4.12072 17.3125,-10.53125 3.0466,-3.29868 5.39663,2.02145 4.625,4.84375 0.2719,4.32577 4.9955,8.57679 9.03125,5.25 2.43801,-2.35126 8.12807,-5.0862 7.40625,0.4375 2.22776,2.05986 6.22665,-0.64258 5.38635,-3.76128 2.62313,-12.98761 7.97839,-25.81785 17.73865,-35.14497 1.92226,12.8722 0.44321,26.1159 1.875,38.90625 3.91874,1.80963 7.33587,-2.96964 10.34375,-4.9375 1.48738,-3.03688 6.57463,-4.99807 7.75,-0.6875 3.77335,6.81382 13.81308,7.28403 19.25,2.3125 3.27173,-1.72676 3.73078,3.62557 0.9375,4.71875 -6.76411,6.37344 -13.88428,16.62331 -8.84375,25.8125 1.40838,3.84744 6.8475,6.31884 9.5625,2.15625 10.78922,-9.12067 13.11682,-23.64395 16,-36.53125 1.63462,-4.18014 6.56663,-1.87462 7.5625,1.5625 9.31948,11.64033 30.67623,5.69702 34.34375,-7.9375 0.0582,-2.39811 -3.04801,-3.32959 -3.625,-0.59375 -5.21938,7.83736 -17.51814,13.00881 -25.28125,5.96875 -3.63342,-2.27839 -1.0332,-7.01228 2.46875,-7.75 10.11132,-6.17004 19.9414,-19.01123 14.5,-31.09375 -5.5867,-6.66599 -16.28989,-1.56825 -20.375,4.40625 -4.66438,5.65657 -6.0746,13.00104 -7.75,19.9375 -3.0938,-6.0462 -1.97201,-12.85461 -3.5625,-19.125 -1.41719,-3.60579 -7.68851,1.03122 -7.9375,-4.25 -1.79011,-6.28018 -11.09984,-5.69252 -15.625,-2.6875 -10.74136,7.20384 -14.90045,20.60354 -15.875,32.96875 -2.8242,1.53917 -5.05185,9.05116 -8.75,4.875 -1.51791,-11.27285 0.12334,-23.60766 -3.4375,-34.40625 -4.95154,-2.84596 -8.90197,3.8418 -11.875,6.90625 -2.99202,3.80599 -5.23467,8.09774 -7.65625,12.28125 -2.74071,-6.5576 0.73672,-14.41091 -2.9375,-20.5 -3.43041,-3.69726 -9.97107,2.90657 -5.5,5.78125 5.1207,2.55074 1.38188,9.01352 2.44725,13.31238 -0.60082,5.55847 0.82408,12.61381 -2.32225,17.09387 -2.62635,2.07731 -7.24269,7.09777 -10.04241,3.98286 -2.75096,-13.60798 -0.89081,-27.66782 0.26116,-41.26411 -2.02266,-2.87532 -7.10729,-0.76971 -5.86179,2.89998 -1.86894,13.77229 -4.42498,29.40808 -15.13821,39.13127 -5.2081,1.90227 -7.31156,-5.02981 -6.9375,-9 -0.84676,-10.94912 3.11829,-21.68492 4.5,-32.1875 -1.72631,-2.64204 -6.56871,-0.71486 -5.6875,2.5625 -4.65097,0.0749 -10.14149,6.34728 -13.84375,1.75 -1.6758,-3.01798 -3.66321,-8.33774 -7.9375,-6.5625 -11.76656,-4.52504 -23.15361,7.80012 -23.5625,18.9375 -0.76206,5.93411 -0.18126,11.87797 1.1875,17.65625 -7.38723,5.29226 -15.94223,8.92394 -25.21875,8.0625 -8.32997,0.65111 -20.136151,-2.34339 -20.656251,-12.375 -2.42075,-15.13808 -0.3659,-30.77461 3.23224,-45.50787 0.91242,-2.83099 4.03146,-8.91431 -1.16974,-9.30463 -0.22933,0.007 -0.46102,-0.0212 -0.6875,0.0312 z m -213.906249,9.90625 c -4.18956,0.859 -7.62733,7.74164 -4.09375,10.75 4.96666,0.68684 8.47051,-7.81691 4.8125,-10.78125 -0.24232,0.0113 -0.47863,-0.12057 -0.71875,0.0312 z m 448.375,17.3125 c 3.56054,4.45042 -0.69366,10.49214 -3.34375,14.25 -3.98651,4.86541 -9.05363,8.6457 -14.4375,11.96875 -0.45995,-11.18008 5.07884,-24.4161 16.96875,-27.03125 l 0.70711,0.70711 0.10539,0.10539 z M 6.1058592,330.14593 c 6.5436198,-0.88489 4.7912648,7.84606 5.3749998,11.96875 0.794974,6.46011 3.744253,14.50262 -1.7812498,19.8125 -3.956839,7.49035 -16.9843226,9.58371 -20.8750002,1 -5.877495,-12.66186 2.29399,-32.02709 17.2812502,-32.78125 z m 275.6250008,0.15625 c 3.95128,-0.12663 5.27635,7.48951 9.4375,2.65625 0.76298,12.65678 -1.08965,28.86868 -13.9375,34.96875 -6.95606,3.85292 -13.45411,-4.24652 -13,-10.8125 0.63803,-10.83471 6.2637,-23.67611 17.5,-26.8125 z m -130.34375,0.0312 c 5.10274,-0.10447 2.03559,5.80001 2.28125,8.75 -0.84513,5.55687 6.97694,7.08036 10.40625,3.875 2.35297,9.51784 0.38599,23.383 -10.375,26.53125 -9.48965,2.34928 -15.96466,-8.37354 -15.71875,-16.71875 -0.0125,-8.46451 3.04935,-21.6904 13.40625,-22.4375 z m -192.093751,8.3125 c 4.22205,1.10587 0.621065,6.65397 1.34375,9.8125 -0.413759,7.65272 -0.518901,15.30376 -1.84375,22.84375 -5.35553,-2.84008 -6.553006,-9.27261 -3.84375,-14.28125 1.874717,-5.66911 0.455989,-11.67699 1.125,-17.5 1.296411,0.22696 2.017483,-0.87027 3.21875,-0.875 z m -22.625,9 c 6.327595,0.98501 8.342423,8.39617 10.46875,13.5 -4.085236,5.7221 -10.75477,11.23403 -18.25,9.5 -2.055588,-7.35765 -0.296407,-16.27166 4.84375,-21.84375 0.838304,-0.6477 1.860275,-1.09948 2.9375,-1.15625 z m 355.125001,12.81255 c 4.08554,0.75821 1.54877,6.93981 -1.15625,8.53125 -1.8704,3.06598 -6.93182,0.64287 -4.1875,-2.3125 2.4624,-1.53302 2.39365,-5.7615 5.34375,-6.21875 z m -1.28125,20.375 c -2.46823,7.26445 -5.49089,15.17956 -12.09375,19.875 -3.03104,-10.14949 4.52286,-18.69872 11.78833,-24.6104 3.88286,-4.63987 1.04227,1.46226 0.58754,3.75252 l -0.27589,0.96119 -0.006,0.0217 z"
           style="opacity:0.85618729;fill:#ffaaaa;filter:url(#filter3886)" />
      </g>
    </g>
  </g>
</svg>
