<?xml version="1.0" encoding="utf-8"?>
<!-- Generator: Adobe Illustrator 15.0.2, SVG Export Plug-In . SVG Version: 6.00 Build 0)  -->
<!DOCTYPE svg PUBLIC "-//W3C//DTD SVG 1.1//EN" "http://www.w3.org/Graphics/SVG/1.1/DTD/svg11.dtd">
<svg version="1.1" xmlns="http://www.w3.org/2000/svg" xmlns:xlink="http://www.w3.org/1999/xlink" x="0px" y="0px" width="800px"
	 height="600px" viewBox="0 0 800 600" enable-background="new 0 0 800 600" xml:space="preserve">
<g id="Ebene_1">
	<rect x="212" y="151" fill-rule="evenodd" clip-rule="evenodd" fill="#3399CC" width="485" height="324"/>
</g>
<g id="Geeko_Body">
	<g opacity="0.2">
		<path fill-rule="evenodd" clip-rule="evenodd" fill="#FFFFFF" d="M506.315,278.163c0.459-0.303,0.796-0.554,0.938-0.61
			l0.153-0.239c-0.388-2.44-4.025-14.271-6.776-17.115c-0.758-0.775-1.365-1.539-2.594-2.258
			c-9.952-5.799-33.562-9.299-34.668-9.459l-0.188,0.052l-0.071,0.171c0,0-0.091,4.892-0.105,5.439
			c-2.411-0.81-19.94-6.472-36.372-7.042c-13.935-0.49-34.229-2.292-61.12,14.243l-0.795,0.495
			c-12.652,7.892-21.387,17.623-25.953,28.929c-1.432,3.558-3.358,11.586-1.449,19.14c0.822,3.302,2.355,6.62,4.422,9.59
			c4.672,6.711,12.512,11.164,20.953,11.916c11.919,1.066,20.944-4.287,24.154-14.311c2.207-6.916,0-17.064-8.461-22.241
			c-6.882-4.214-14.282-3.256-18.575-0.416c-3.724,2.469-5.833,6.306-5.796,10.52c0.086,7.475,6.525,11.448,11.155,11.46
			c1.345,0,2.696-0.234,4.219-0.73c0.542-0.165,1.052-0.37,1.614-0.718l0.176-0.103l0.111-0.074l-0.037,0.022
			c1.055-0.719,1.69-1.888,1.69-3.142c0-0.342-0.048-0.689-0.146-1.038c-0.547-1.893-2.417-3.038-4.355-2.685l-0.262,0.062
			l-0.354,0.108l-0.514,0.177c-1.066,0.262-1.864,0.285-2.035,0.291c-0.542-0.035-3.207-0.833-3.207-3.752v-0.04
			c0-1.072,0.43-1.824,0.667-2.235c0.829-1.3,3.099-2.576,6.166-2.309c4.025,0.348,6.927,2.412,8.849,6.306
			c1.784,3.62,1.317,8.073-1.203,11.335c-2.503,3.232-6.959,4.606-12.885,3.968c-5.976-0.661-11.027-4.1-13.857-9.453
			c-2.769-5.233-2.92-11.437-0.391-16.203c6.049-11.42,17.475-11.301,23.74-10.218c9.271,1.608,19.818,10.16,23.559,20.035
			c0.604,1.574,0.912,2.822,1.181,3.963l0.404,1.705l10.474,5.114l0.137,0.103l0.254-0.023l0.046-0.302
			c-0.065-0.234-0.217-0.45-0.459-3.381c-0.199-2.601-0.604-9.722,2.981-13.251c1.392-1.379,3.513-2.61,5.188-3.004
			c6.865-1.677,14.915-0.52,22.526,8.29c3.94,4.55,5.861,6.625,6.825,7.554l0.336,0.303l0.396,0.296
			c0.316,0.172,13.088,6.056,13.088,6.056l0.263-0.063l0.005-0.273c-0.085-0.097-8.096-10.45-6.67-18.975
			c1.123-6.79,6.527-6.175,14.002-5.331c2.44,0.285,5.218,0.604,8.094,0.668c8.03,0.051,16.68-1.432,22.011-3.764
			c3.449-1.499,5.65-2.497,7.029-3.751c0.496-0.411,0.753-1.078,1.021-1.796l0.188-0.474c0.223-0.582,0.551-1.808,0.695-2.48
			c0.058-0.296,0.092-0.609-0.119-0.775l-0.738,0.137c-2.341,1.409-8.193,4.077-13.664,4.191
			c-6.793,0.137-20.468-6.831-21.894-7.572l-0.137-0.159c-0.336-0.821-2.389-5.672-2.828-6.698
			c9.847,6.487,18.014,10.073,24.266,10.626C498.573,283.585,503.998,279.787,506.315,278.163z M479.319,268.221
			c0.1-2.697,1.229-5.2,3.201-7.036c1.973-1.842,4.547-2.794,7.246-2.708c5.565,0.199,9.938,4.897,9.747,10.456
			c-0.105,2.697-1.234,5.2-3.201,7.03c-1.973,1.852-4.541,2.804-7.252,2.713C483.501,278.471,479.134,273.785,479.319,268.221z"/>
		<path fill="#FFFFFF" d="M405.936,326.625c-4.438,0-6.879,3.752-6.879,6.346v3.33c0,3.82,3.121,6.187,6.015,6.187h10.16
			c1.28,0,1.548,0.838,1.548,1.545v2.149c0,0.228-0.046,2.292-1.548,2.292h-13.857c-1.377,0-2.372,0.958-2.372,2.269v0.594
			c0,1.306,0.995,2.258,2.372,2.258h14.61c3.819,0,6.283-2.657,6.283-6.773v-3.593c0-3.865-2.777-5.593-5.534-5.593h-9.997
			c-1.505,0-2.187-1.129-2.187-1.927v-1.984c0-1.249,0.835-1.973,2.295-1.973h11.066c1.357,0,2.378-0.975,2.378-2.264v-0.593
			c0-1.294-1.038-2.27-2.424-2.27H405.936z"/>
		<path fill="#FFFFFF" d="M447.479,326.625c-1.312,0-2.369,1.066-2.369,2.378v17.013c0,1.363-1.112,2.458-2.458,2.458h-7.723
			c-1.351,0-2.457-1.095-2.457-2.458v-17.013c0-1.312-1.066-2.378-2.377-2.378h-0.747c-1.331,0-2.378,1.05-2.378,2.378v17.657
			c0,4.111,3.235,7.093,7.691,7.093h8.259c4.45,0,7.683-2.981,7.683-7.093v-17.657c0-1.328-1.043-2.378-2.372-2.378H447.479z"/>
		<path fill="#FFFFFF" d="M462.266,326.625c-4.436,0-6.884,3.752-6.884,6.346v3.33c0,3.82,3.127,6.187,6.023,6.187h10.157
			c1.282,0,1.551,0.838,1.551,1.545v2.149c0,0.228-0.046,2.292-1.551,2.292h-13.863c-1.371,0-2.372,0.958-2.372,2.269v0.594
			c0,1.306,1.001,2.258,2.372,2.258h14.615c3.82,0,6.295-2.657,6.295-6.773v-3.593c0-3.865-2.785-5.593-5.542-5.593h-9.997
			c-1.509,0-2.189-1.129-2.189-1.927v-1.984c0-1.249,0.835-1.973,2.295-1.973h11.072c1.354,0,2.371-0.975,2.371-2.264v-0.593
			c0-1.294-1.037-2.27-2.429-2.27H462.266z"/>
		<path fill="#FFFFFF" d="M485.622,326.625c-1.317,0-2.312,0.976-2.312,2.27v22.441c0,1.288,0.972,2.258,2.26,2.258h17.883
			c1.377,0,2.372-0.952,2.372-2.258v-0.594c0-1.311-0.995-2.269-2.372-2.269c0,0-13.988,0-14.646,0c0-0.582,0-5.138,0-5.713
			c0.652,0,10.732,0,10.732,0c1.374,0,2.372-0.964,2.372-2.27v-0.593c0-1.312-0.998-2.264-2.372-2.264c0,0-10.08,0-10.732,0
			c0-0.587,0-5.297,0-5.884c0.652,0,13.902,0,13.902,0c1.372,0,2.372-0.946,2.372-2.264v-0.593c0-1.312-1-2.27-2.372-2.27H485.622z"
			/>
		<g>
			<path fill="#FFFFFF" d="M333.609,337.299c-2.241,0-4.065,1.744-4.065,3.894v8.461c0,2.184,1.765,3.963,3.929,3.963h5.473
				c2.164,0,3.929-1.779,3.929-3.963v-8.461c0-2.149-1.825-3.894-4.065-3.894H333.609z M332.426,349.317v-7.726
				c0-0.906,0.744-1.647,1.654-1.647h4.264c0.89,0,1.648,0.758,1.648,1.647v7.726c0,0.912-0.738,1.653-1.648,1.653h-4.296
				C333.136,350.971,332.426,350.246,332.426,349.317z"/>
			<path fill="#FFFFFF" d="M355.266,337.201c-1.578,0-2.768,0.564-3.723,1.026c-0.582,0.279-1.086,0.52-1.477,0.52
				c-0.177,0-0.328-0.08-0.408-0.211l-0.364-0.696c-0.091-0.183-0.456-0.541-0.907-0.541h-0.541c-0.52,0-0.936,0.467-0.936,1.037
				v21.461c0,0.673,0.531,1.203,1.203,1.203h0.468c0.667,0,1.209-0.536,1.209-1.203v-7.121c0-0.211,0.137-0.439,0.276-0.439
				c0.391,0,0.895,0.229,1.477,0.496c0.955,0.439,2.145,0.98,3.723,0.98h0.505c2.794,0,4.532-1.597,4.532-4.162v-8.192
				c0-2.526-1.775-4.157-4.532-4.157H355.266z M349.79,349.152v-7.39c0-1.021,0.798-1.818,1.818-1.818h3.997
				c1.021,0,1.818,0.798,1.818,1.818v7.39c0,1.003-0.818,1.818-1.818,1.818h-3.997C350.607,350.971,349.79,350.155,349.79,349.152z"
				/>
			<path fill="#FFFFFF" d="M368.399,337.299c-2.241,0-4.06,1.744-4.06,3.894v8.398c0,2.178,1.768,4.025,3.854,4.025h5.647
				c0.698,0,1.203-0.484,1.203-1.141v-0.37c0-0.661-0.505-1.135-1.203-1.135h-4.639c-1.3,0-1.986-0.639-1.986-1.854
				c0,0,0-2.115,0-2.457c0.379,0,8.369,0,8.369,0c1.346,0,2.142-0.821,2.142-2.212v-3.256c0-2.149-1.822-3.894-4.054-3.894H368.399z
				 M367.217,341.563c0-0.907,0.713-1.619,1.621-1.619h4.396c0.906,0,1.613,0.712,1.613,1.619c0,0,0,2.28,0,2.622
				c-0.364,0-7.258,0-7.631,0C367.217,343.844,367.217,341.563,367.217,341.563z"/>
			<path fill="#FFFFFF" d="M389.353,337.201c-1.573,0-2.76,0.564-3.718,1.021c-0.596,0.28-1.105,0.525-1.521,0.525
				c-0.183,0-0.257-0.023-0.399-0.269l-0.331-0.604c-0.19-0.382-0.513-0.575-0.949-0.575h-0.465c-0.562,0-0.972,0.438-0.972,1.037
				v14.077c0,0.667,0.527,1.203,1.206,1.203h0.465c0.667,0,1.211-0.542,1.211-1.203v-10.65c0-0.998,0.815-1.818,1.813-1.818h3.999
				c1.001,0,1.816,0.82,1.816,1.818v10.65c0,0.667,0.53,1.203,1.203,1.203h0.47c0.667,0,1.209-0.542,1.209-1.203v-11.055
				c0-2.526-1.776-4.157-4.535-4.157H389.353z"/>
		</g>
		<g>
			<path fill="#FFFFFF" d="M509.812,348.158c1.218,0,2.188,0.99,2.188,2.229c0,1.257-0.971,2.237-2.198,2.237
				c-1.218,0-2.208-0.98-2.208-2.237c0-1.238,0.99-2.229,2.208-2.229H509.812z M509.802,348.505c-0.98,0-1.782,0.842-1.782,1.882
				c0,1.06,0.802,1.891,1.792,1.891c0.99,0.011,1.782-0.831,1.782-1.881s-0.792-1.892-1.782-1.892H509.802z M509.386,351.684h-0.396
				v-2.485c0.208-0.03,0.406-0.06,0.703-0.06c0.377,0,0.624,0.079,0.772,0.188c0.149,0.108,0.229,0.276,0.229,0.515
				c0,0.326-0.218,0.524-0.485,0.604v0.021c0.218,0.039,0.366,0.237,0.416,0.604c0.06,0.387,0.118,0.535,0.158,0.614h-0.416
				c-0.06-0.079-0.119-0.307-0.168-0.634c-0.06-0.316-0.218-0.436-0.535-0.436h-0.277V351.684z M509.386,350.307h0.287
				c0.327,0,0.604-0.118,0.604-0.426c0-0.218-0.158-0.436-0.604-0.436c-0.129,0-0.218,0.01-0.287,0.021V350.307z"/>
		</g>
	</g>
</g>
<g id="Auge_1">
	<g opacity="0.2">
		<path fill-rule="evenodd" clip-rule="evenodd" fill="#FFFFFF" d="M489.682,261.452c-1.888-0.068-3.678,0.599-5.046,1.882
			s-2.175,3.021-2.232,4.903c-0.131,3.889,2.914,7.161,6.794,7.304c1.887,0.057,3.686-0.611,5.062-1.893
			c1.374-1.289,2.164-3.028,2.224-4.903C496.614,264.856,493.57,261.59,489.682,261.452z M490.833,269.155
			c-1.728,0-3.124-0.935-3.124-2.081c0-1.157,1.396-2.087,3.124-2.087s3.128,0.93,3.128,2.087
			C493.961,268.221,492.561,269.155,490.833,269.155z"/>
	</g>
</g>
<g id="Auge_2">
	<g opacity="0.2">
		<path fill-rule="evenodd" clip-rule="evenodd" fill="#FFFFFF" d="M482.403,268.745c0.06,1.875,0.85,3.614,2.224,4.903
			c1.377,1.281,3.176,1.949,5.062,1.893c3.88-0.143,6.925-3.415,6.794-7.304c-0.058-1.882-0.864-3.62-2.232-4.903
			s-3.158-1.95-5.046-1.882C485.316,261.59,482.272,264.856,482.403,268.745z M484.926,267.074c0-1.157,1.4-2.087,3.128-2.087
			s3.124,0.93,3.124,2.087c0,1.146-1.396,2.081-3.124,2.081S484.926,268.221,484.926,267.074z"/>
	</g>
</g>
</svg>
