<?xml version="1.0" encoding="UTF-8" standalone="no"?>
<!-- Generator: Adobe Illustrator 15.0.2, SVG Export Plug-In . SVG Version: 6.00 Build 0)  -->

<svg
   xmlns:dc="http://purl.org/dc/elements/1.1/"
   xmlns:cc="http://creativecommons.org/ns#"
   xmlns:rdf="http://www.w3.org/1999/02/22-rdf-syntax-ns#"
   xmlns:svg="http://www.w3.org/2000/svg"
   xmlns="http://www.w3.org/2000/svg"
   xmlns:sodipodi="http://sodipodi.sourceforge.net/DTD/sodipodi-0.dtd"
   xmlns:inkscape="http://www.inkscape.org/namespaces/inkscape"
   version="1.1"
   x="0px"
   y="0px"
   width="186"
   height="108"
   viewBox="0 0 186 108"
   enable-background="new 0 0 800 600"
   xml:space="preserve"
   id="svg2"
   inkscape:version="0.48.2 r9819"
   sodipodi:docname="geeko-animation.svg"><metadata
   id="metadata48"><rdf:RDF><cc:Work
       rdf:about=""><dc:format>image/svg+xml</dc:format><dc:type
         rdf:resource="http://purl.org/dc/dcmitype/StillImage" /></cc:Work></rdf:RDF></metadata><defs
   id="defs46">
	

		
		
		
		
		
		
		
	</defs><sodipodi:namedview
   pagecolor="#ffffff"
   bordercolor="#666666"
   borderopacity="1"
   objecttolerance="10"
   gridtolerance="10"
   guidetolerance="10"
   inkscape:pageopacity="0"
   inkscape:pageshadow="2"
   inkscape:window-width="1440"
   inkscape:window-height="833"
   id="namedview44"
   showgrid="false"
   inkscape:zoom="4.133855"
   inkscape:cx="92"
   inkscape:cy="38.793718"
   inkscape:window-x="-3"
   inkscape:window-y="-3"
   inkscape:window-maximized="1"
   inkscape:current-layer="svg2" />
<g
   id="Ebene_1"
   transform="matrix(0.39706204,0,0,0.33094807,-83.833025,-49.681814)"
   style="fill:#008000">
	<rect
   x="212"
   y="151"
   clip-rule="evenodd"
   width="485"
   height="324"
   id="rect5"
   style="fill:#008000;fill-rule:evenodd" />
</g><g
   id="Auge_1"
   transform="translate(-329.38437,-244.86918)"
   style="opacity:0.65;fill:#ffffff">
	<g
   id="g35">
		<path
   clip-rule="evenodd"
   d="m 489.682,261.452 c -1.888,-0.068 -3.678,0.599 -5.046,1.882 -1.368,1.283 -2.175,3.021 -2.232,4.903 -0.131,3.889 2.914,7.161 6.794,7.304 1.887,0.057 3.686,-0.611 5.062,-1.893 1.374,-1.289 2.164,-3.028 2.224,-4.903 0.13,-3.889 -2.914,-7.155 -6.802,-7.293 z m 1.151,7.703 c -1.728,0 -3.124,-0.935 -3.124,-2.081 0,-1.157 1.396,-2.087 3.124,-2.087 1.728,0 3.128,0.93 3.128,2.087 0,1.147 -1.4,2.081 -3.128,2.081 z"
   id="path37"
   inkscape:connector-curvature="0"
   style="fill:#ffffff;fill-rule:evenodd" />
	</g>
</g><g
   id="Auge_2"
   transform="translate(-329.38292,-244.91104)">
	<g
   id="g40"
   style="fill:#ffffff;opacity:0.65">
		<path
   clip-rule="evenodd"
   d="m 482.403,268.745 c 0.06,1.875 0.85,3.614 2.224,4.903 1.377,1.281 3.176,1.949 5.062,1.893 3.88,-0.143 6.925,-3.415 6.794,-7.304 -0.058,-1.882 -0.864,-3.62 -2.232,-4.903 -1.368,-1.283 -3.158,-1.95 -5.046,-1.882 -3.889,0.138 -6.933,3.404 -6.802,7.293 z m 2.523,-1.671 c 0,-1.157 1.4,-2.087 3.128,-2.087 1.728,0 3.124,0.93 3.124,2.087 0,1.146 -1.396,2.081 -3.124,2.081 -1.728,0 -3.128,-0.934 -3.128,-2.081 z"
   id="path42"
   inkscape:connector-curvature="0"
   style="fill:#ffffff;fill-rule:evenodd" />
	</g>
</g>



<g
   id="Geeko_Body"
   transform="translate(-2,-6)"><path
     style="opacity:0.65;fill:#ffffff;fill-rule:evenodd"
     inkscape:connector-curvature="0"
     id="Body"
     d="m 178.67224,38.707251 c 0.45873,-0.28255 0.79552,-0.516609 0.93744,-0.56883 l 0.15291,-0.222869 C 179.37482,35.640235 175.74,24.607743 172.99064,21.955693 172.2331,21.233 171.62646,20.520564 170.3982,19.850092 160.45216,14.442483 136.85629,11.178708 135.75095,11.029507 l -0.18788,0.04849 -0.0709,0.159459 c 0,0 -0.091,4.561825 -0.10494,5.071905 C 132.97761,15.554031 115.4591,10.274176 99.036935,9.7426474 85.110274,9.2857189 64.828421,7.605341 37.953518,23.024346 l -0.794525,0.461591 C 24.514567,30.845283 15.784795,39.91951 11.221528,50.462435 9.7903848,53.780296 7.8655379,61.266463 9.7733948,68.310622 c 0.8215082,3.079138 2.3535902,6.173196 4.4193542,8.942743 4.669203,6.258055 12.504511,10.410509 20.940458,11.111755 11.911866,0.994052 20.931463,-3.997658 24.139542,-13.34511 2.205679,-6.449219 0,-15.912301 -8.455936,-20.739891 -6.877881,-3.929584 -14.273451,-3.036242 -18.563881,-0.387922 -3.721771,2.302359 -5.829508,5.88039 -5.792531,9.809974 0.08595,6.970492 6.521095,10.675342 11.148323,10.686532 1.344195,0 2.694386,-0.218207 4.216475,-0.68073 0.541676,-0.153864 1.05137,-0.345028 1.613034,-0.66954 l 0.175894,-0.09605 0.110934,-0.06901 -0.03698,0.02052 c 1.054368,-0.670473 1.688989,-1.760573 1.688989,-2.929937 0,-0.318917 -0.04797,-0.642498 -0.145913,-0.967943 -0.546672,-1.765236 -2.415554,-2.832956 -4.352394,-2.503781 l -0.261842,0.05782 -0.353789,0.10071 -0.513692,0.165053 c -1.065362,0.244318 -1.862885,0.265765 -2.033782,0.27136 -0.541675,-0.03264 -3.20508,-0.776778 -3.20508,-3.498767 v -0.0373 c 0,-0.999648 0.429742,-1.700892 0.6666,-2.084153 0.828504,-1.212259 3.097145,-2.402138 6.16231,-2.15316 4.02259,0.324514 6.922853,2.249208 8.843703,5.88039 1.782932,3.375676 1.316211,7.528131 -1.20228,10.569969 -2.501502,3.013863 -6.954835,4.295128 -12.877287,3.700188 -5.972419,-0.616387 -11.020396,-3.823279 -13.848702,-8.81499 -2.767342,-4.87981 -2.918253,-10.665083 -0.390766,-15.109412 6.045379,-10.649231 17.46454,-10.538264 23.72579,-9.528358 9.26545,1.499471 19.806137,9.474272 23.544898,18.68278 0.603639,1.467766 0.911454,2.631535 1.180293,3.695526 l 0.403758,1.589924 10.467731,4.768842 0.136918,0.09605 0.253848,-0.02145 0.04597,-0.281618 c -0.06496,-0.218207 -0.21687,-0.419628 -0.458726,-3.152807 -0.198881,-2.42545 -0.603638,-9.065834 2.979216,-12.356651 1.391166,-1.285927 3.510897,-2.433844 5.184894,-2.801251 6.860891,-1.563815 14.906074,-0.484905 22.512514,7.730483 3.93765,4.242908 5.8575,6.17786 6.82092,7.044159 l 0.3358,0.28255 0.39577,0.276022 c 0.31581,0.160391 13.08016,5.647263 13.08016,5.647263 l 0.26284,-0.05875 0.005,-0.254575 c -0.0849,-0.09045 -8.09116,-9.744699 -6.66601,-17.694323 1.12233,-6.331723 6.52309,-5.758231 13.99362,-4.971195 2.43854,0.265764 5.21488,0.563234 8.08916,0.622914 8.02519,0.04756 16.67001,-1.33535 21.99783,-3.509957 3.44692,-1.397828 5.64661,-2.328469 7.02478,-3.497833 0.49571,-0.383261 0.75255,-1.005243 1.0204,-1.674784 l 0.18788,-0.442008 c 0.22286,-0.542719 0.55067,-1.685973 0.69459,-2.312617 0.0579,-0.276022 0.092,-0.567897 -0.11893,-0.722693 l -0.73756,0.127753 c -2.3396,1.313902 -8.18809,3.801831 -13.65582,3.908137 -6.78894,0.127754 -20.45575,-6.369956 -21.8809,-7.060944 l -0.13692,-0.148268 c -0.3358,-0.765589 -2.38757,-5.289181 -2.82631,-6.245933 9.84111,6.049174 18.00322,9.393144 24.25148,9.908821 6.95583,0.578154 12.37759,-2.963508 14.6932,-4.477899 z M 151.6924,29.436265 c 0.0999,-2.514972 1.22827,-4.849037 3.19909,-6.56112 1.97182,-1.717679 4.54427,-2.605426 7.24166,-2.52523 5.56167,0.185569 9.93205,4.566488 9.74116,9.750295 -0.10494,2.514971 -1.23326,4.849037 -3.19908,6.555525 -1.97181,1.727003 -4.53829,2.614749 -7.24766,2.529892 -5.55567,-0.191164 -9.92006,-4.560893 -9.73517,-9.749362 z"
     clip-rule="evenodd"
     inkscape:label="#path10" /><path
     inkscape:connector-curvature="0"
     style="opacity:0.65;fill:#ffffff;fill-opacity:1"
     id="path7"
     d="m 79.683258,82.031528 c -4.397868,0 -6.816794,3.370921 -6.816794,5.701456 v 2.991782 c 0,3.432013 3.092777,5.558604 5.960607,5.558604 h 10.068124 c 1.268425,0 1.534002,0.752887 1.534002,1.388079 v 1.930733 c 0,0.204842 -0.04558,2.059208 -1.534002,2.059208 H 75.163503 c -1.364548,0 -2.350551,0.8607 -2.350551,2.03854 v 0.53367 c 0,1.17336 0.986003,2.02867 2.350551,2.02867 h 14.477883 c 3.784465,0 6.226184,-2.38714 6.226184,-6.08509 v -3.228071 c 0,-3.472443 -2.751888,-5.024935 -5.483957,-5.024935 h -9.906598 c -1.491391,0 -2.167224,-1.014331 -2.167224,-1.731281 v -1.782491 c 0,-1.122143 0.82745,-1.772608 2.274247,-1.772608 h 10.965931 c 1.344729,0 2.356496,-0.875972 2.356496,-2.034052 v -0.532771 c 0,-1.162572 -1.028613,-2.039443 -2.40208,-2.039443 H 79.683258 z" /><path
     inkscape:connector-curvature="0"
     style="opacity:0.65;fill:#ffffff;fill-opacity:1"
     id="path9"
     d="m 120.85158,82.031528 c -1.30014,0 -2.34758,0.95773 -2.34758,2.136474 v 15.28504 c 0,1.224568 -1.10194,2.208348 -2.43577,2.208348 h -7.65316 c -1.33878,0 -2.43478,-0.98378 -2.43478,-2.208348 v -15.28504 c 0,-1.178744 -1.05636,-2.136474 -2.35551,-2.136474 h -0.74024 c -1.31897,0 -2.3565,0.943355 -2.3565,2.136474 v 15.863628 c 0,3.69346 3.20575,6.37259 7.62145,6.37259 h 8.18432 c 4.40976,0 7.61352,-2.67823 7.61352,-6.37259 V 84.168002 c 0,-1.193119 -1.03357,-2.136474 -2.35055,-2.136474 h -0.7452 z" /><path
     inkscape:connector-curvature="0"
     style="opacity:0.65;fill:#ffffff;fill-opacity:1"
     id="path11"
     d="m 135.50387,82.031528 c -4.39588,0 -6.82175,3.370921 -6.82175,5.701456 v 2.991782 c 0,3.432013 3.09873,5.558604 5.96854,5.558604 h 10.06515 c 1.27041,0 1.53697,0.752887 1.53697,1.388079 v 1.930733 c 0,0.204842 -0.0456,2.059208 -1.53697,2.059208 h -13.73764 c -1.3586,0 -2.35055,0.8607 -2.35055,2.03854 v 0.53367 c 0,1.17336 0.99195,2.02867 2.35055,2.02867 h 14.48284 c 3.78546,0 6.23807,-2.38714 6.23807,-6.08509 v -3.228071 c 0,-3.472443 -2.75981,-5.024935 -5.49188,-5.024935 h -9.9066 c -1.49535,0 -2.1692,-1.014331 -2.1692,-1.731281 v -1.782491 c 0,-1.122143 0.82745,-1.772608 2.27424,-1.772608 h 10.97188 c 1.34176,0 2.34956,-0.875972 2.34956,-2.034052 v -0.532771 c 0,-1.162572 -1.02762,-2.039443 -2.40704,-2.039443 h -11.81617 z" /><path
     inkscape:connector-curvature="0"
     style="opacity:0.65;fill:#ffffff;fill-opacity:1"
     id="path13"
     d="m 158.64966,82.031528 c -1.30509,0 -2.2911,0.876871 -2.2911,2.039443 v 20.161739 c 0,1.15718 0.96321,2.02866 2.23957,2.02866 h 17.72128 c 1.36455,0 2.35055,-0.85531 2.35055,-2.02866 v -0.53367 c 0,-1.17785 -0.986,-2.03855 -2.35055,-2.03855 0,0 -13.8615,0 -14.51355,0 0,-0.52289 0,-4.616147 0,-5.132746 0.6461,0 10.63495,0 10.63495,0 1.36157,0 2.35055,-0.866089 2.35055,-2.039443 v -0.53277 c 0,-1.178745 -0.98898,-2.034053 -2.35055,-2.034053 0,0 -9.98885,0 -10.63495,0 0,-0.52738 0,-4.758999 0,-5.286379 0.6461,0 13.77628,0 13.77628,0 1.35959,0 2.35055,-0.849918 2.35055,-2.034053 v -0.53277 c 0,-1.178744 -0.99096,-2.039443 -2.35055,-2.039443 h -16.93248 z" /><g
     transform="matrix(0.99095711,0,0,0.89843297,-478.80035,-271.67704)"
     style="opacity:0.65;fill:#ffffff;fill-opacity:1"
     id="g15"><path
       inkscape:connector-curvature="0"
       style="fill:#ffffff;fill-opacity:1"
       id="path17"
       d="m 491.254,404.369 c -2.241,0 -4.065,1.744 -4.065,3.894 v 8.461 c 0,2.184 1.765,3.963 3.929,3.963 h 5.473 c 2.164,0 3.929,-1.779 3.929,-3.963 v -8.461 c 0,-2.149 -1.825,-3.894 -4.065,-3.894 h -5.201 z m -1.184,12.019 v -7.726 c 0,-0.906 0.744,-1.647 1.654,-1.647 h 4.264 c 0.89,0 1.648,0.758 1.648,1.647 v 7.726 c 0,0.912 -0.738,1.653 -1.648,1.653 h -4.296 c -0.912,0 -1.622,-0.725 -1.622,-1.653 z" /><path
       inkscape:connector-curvature="0"
       style="fill:#ffffff;fill-opacity:1"
       id="path19"
       d="m 512.91,404.271 c -1.578,0 -2.768,0.564 -3.723,1.026 -0.582,0.279 -1.086,0.52 -1.477,0.52 -0.177,0 -0.328,-0.08 -0.408,-0.211 l -0.364,-0.696 c -0.091,-0.183 -0.456,-0.541 -0.907,-0.541 h -0.541 c -0.52,0 -0.936,0.467 -0.936,1.037 v 21.461 c 0,0.673 0.531,1.203 1.203,1.203 h 0.468 c 0.667,0 1.209,-0.536 1.209,-1.203 v -7.121 c 0,-0.211 0.137,-0.439 0.276,-0.439 0.391,0 0.895,0.229 1.477,0.496 0.955,0.439 2.145,0.98 3.723,0.98 h 0.505 c 2.794,0 4.532,-1.597 4.532,-4.162 v -8.192 c 0,-2.526 -1.775,-4.157 -4.532,-4.157 h -0.505 z m -5.475,11.952 v -7.39 c 0,-1.021 0.798,-1.818 1.818,-1.818 h 3.997 c 1.021,0 1.818,0.798 1.818,1.818 v 7.39 c 0,1.003 -0.818,1.818 -1.818,1.818 h -3.997 c -1.001,0 -1.818,-0.815 -1.818,-1.818 z" /><path
       inkscape:connector-curvature="0"
       style="fill:#ffffff;fill-opacity:1"
       id="path21"
       d="m 526.044,404.369 c -2.241,0 -4.06,1.744 -4.06,3.894 v 8.398 c 0,2.178 1.768,4.025 3.854,4.025 h 5.647 c 0.698,0 1.203,-0.484 1.203,-1.141 v -0.37 c 0,-0.661 -0.505,-1.135 -1.203,-1.135 h -4.639 c -1.3,0 -1.986,-0.639 -1.986,-1.854 0,0 0,-2.115 0,-2.457 0.379,0 8.369,0 8.369,0 1.346,0 2.142,-0.821 2.142,-2.212 v -3.256 c 0,-2.149 -1.822,-3.894 -4.054,-3.894 h -5.273 z m -1.183,4.265 c 0,-0.907 0.713,-1.619 1.621,-1.619 h 4.396 c 0.906,0 1.613,0.712 1.613,1.619 0,0 0,2.28 0,2.622 -0.364,0 -7.258,0 -7.631,0 10e-4,-0.342 10e-4,-2.622 10e-4,-2.622 z" /><path
       inkscape:connector-curvature="0"
       style="fill:#ffffff;fill-opacity:1"
       id="path23"
       d="m 546.997,404.271 c -1.573,0 -2.76,0.564 -3.718,1.021 -0.596,0.28 -1.105,0.525 -1.521,0.525 -0.183,0 -0.257,-0.023 -0.399,-0.269 l -0.331,-0.604 c -0.19,-0.382 -0.513,-0.575 -0.949,-0.575 h -0.465 c -0.562,0 -0.972,0.438 -0.972,1.037 v 14.077 c 0,0.667 0.527,1.203 1.206,1.203 h 0.465 c 0.667,0 1.211,-0.542 1.211,-1.203 v -10.65 c 0,-0.998 0.815,-1.818 1.813,-1.818 h 3.999 c 1.001,0 1.816,0.82 1.816,1.818 v 10.65 c 0,0.667 0.53,1.203 1.203,1.203 h 0.47 c 0.667,0 1.209,-0.542 1.209,-1.203 v -11.055 c 0,-2.526 -1.776,-4.157 -4.535,-4.157 h -0.502 z" /></g><g
     transform="matrix(0.99095711,0,0,0.89843297,-478.80035,-271.67704)"
     style="opacity:0.65;fill:#ffffff;fill-opacity:1"
     id="g25"><path
       inkscape:connector-curvature="0"
       style="fill:#ffffff;fill-opacity:1"
       id="path27"
       d="m 667.456,415.229 c 1.218,0 2.188,0.99 2.188,2.229 0,1.257 -0.971,2.237 -2.198,2.237 -1.218,0 -2.208,-0.98 -2.208,-2.237 0,-1.238 0.99,-2.229 2.208,-2.229 h 0.01 z m -0.01,0.346 c -0.98,0 -1.782,0.842 -1.782,1.882 0,1.06 0.802,1.891 1.792,1.891 0.99,0.011 1.782,-0.831 1.782,-1.881 0,-1.05 -0.792,-1.892 -1.782,-1.892 h -0.01 z m -0.416,3.179 h -0.396 v -2.485 c 0.208,-0.03 0.406,-0.06 0.703,-0.06 0.377,0 0.624,0.079 0.772,0.188 0.149,0.108 0.229,0.276 0.229,0.515 0,0.326 -0.218,0.524 -0.485,0.604 v 0.021 c 0.218,0.039 0.366,0.237 0.416,0.604 0.06,0.387 0.118,0.535 0.158,0.614 h -0.416 c -0.06,-0.079 -0.119,-0.307 -0.168,-0.634 -0.06,-0.316 -0.218,-0.436 -0.535,-0.436 h -0.277 v 1.069 z m 0,-1.377 h 0.287 c 0.327,0 0.604,-0.118 0.604,-0.426 0,-0.218 -0.158,-0.436 -0.604,-0.436 -0.129,0 -0.218,0.01 -0.287,0.021 v 0.841 z" /></g><g
     transform="translate(-333.49745,-231.19631)"
     id="g30"
     style="opacity:0.2;fill:#ffffff">
			<path
   style="fill:#ffffff"
   inkscape:connector-curvature="0"
   id="path32"
   d="m 509.812,348.158 c 1.218,0 2.188,0.99 2.188,2.229 0,1.257 -0.971,2.237 -2.198,2.237 -1.218,0 -2.208,-0.98 -2.208,-2.237 0,-1.238 0.99,-2.229 2.208,-2.229 h 0.01 z m -0.01,0.347 c -0.98,0 -1.782,0.842 -1.782,1.882 0,1.06 0.802,1.891 1.792,1.891 0.99,0.011 1.782,-0.831 1.782,-1.881 0,-1.05 -0.792,-1.892 -1.782,-1.892 h -0.01 z m -0.416,3.179 h -0.396 v -2.485 c 0.208,-0.03 0.406,-0.06 0.703,-0.06 0.377,0 0.624,0.079 0.772,0.188 0.149,0.108 0.229,0.276 0.229,0.515 0,0.326 -0.218,0.524 -0.485,0.604 v 0.021 c 0.218,0.039 0.366,0.237 0.416,0.604 0.06,0.387 0.118,0.535 0.158,0.614 h -0.416 c -0.06,-0.079 -0.119,-0.307 -0.168,-0.634 -0.06,-0.316 -0.218,-0.436 -0.535,-0.436 h -0.277 v 1.069 z m 0,-1.377 h 0.287 c 0.327,0 0.604,-0.118 0.604,-0.426 0,-0.218 -0.158,-0.436 -0.604,-0.436 -0.129,0 -0.218,0.01 -0.287,0.021 v 0.841 z" />
		</g></g></svg>