<?xml version="1.0" encoding="UTF-8" standalone="no"?>
<!-- Generator: Adobe Illustrator 15.0.2, SVG Export Plug-In . SVG Version: 6.00 Build 0)  -->

<svg
   xmlns:dc="http://purl.org/dc/elements/1.1/"
   xmlns:cc="http://creativecommons.org/ns#"
   xmlns:rdf="http://www.w3.org/1999/02/22-rdf-syntax-ns#"
   xmlns:svg="http://www.w3.org/2000/svg"
   xmlns="http://www.w3.org/2000/svg"
   xmlns:sodipodi="http://sodipodi.sourceforge.net/DTD/sodipodi-0.dtd"
   xmlns:inkscape="http://www.inkscape.org/namespaces/inkscape"
   version="1.1"
   x="0px"
   y="0px"
   width="184"
   height="92"
   viewBox="0 0 184 92"
   enable-background="new 0 0 800 600"
   xml:space="preserve"
   id="svg2"
   inkscape:version="0.48.2 r9819"
   sodipodi:docname="geeko-animation.svg"><metadata
   id="metadata48"><rdf:RDF><cc:Work
       rdf:about=""><dc:format>image/svg+xml</dc:format><dc:type
         rdf:resource="http://purl.org/dc/dcmitype/StillImage" /></cc:Work></rdf:RDF></metadata><defs
   id="defs46">
	

		
		
		
		
		
		
		
	</defs><sodipodi:namedview
   pagecolor="#ffffff"
   bordercolor="#666666"
   borderopacity="1"
   objecttolerance="10"
   gridtolerance="10"
   guidetolerance="10"
   inkscape:pageopacity="0"
   inkscape:pageshadow="2"
   inkscape:window-width="1440"
   inkscape:window-height="833"
   id="namedview44"
   showgrid="false"
   inkscape:zoom="1.5733333"
   inkscape:cx="85.035383"
   inkscape:cy="148.17699"
   inkscape:window-x="-3"
   inkscape:window-y="-3"
   inkscape:window-maximized="1"
   inkscape:current-layer="svg2" />
<g
   id="Ebene_1"
   transform="matrix(0.37871502,0,0,0.28190537,-80.287793,-41.905049)">
	<rect
   x="212"
   y="151"
   clip-rule="evenodd"
   width="485"
   height="324"
   id="rect5"
   style="fill:#3399cc;fill-rule:evenodd" />
</g>



<g
   id="g3764"><path
     style="opacity:0.2;fill:#ffffff;fill-rule:evenodd"
     inkscape:connector-curvature="0"
     id="Geeko_Body"
     d="m 172.81755,34.96669 c 0.459,-0.303 0.796,-0.554 0.938,-0.61 l 0.153,-0.239 c -0.388,-2.44 -4.025,-14.271 -6.776,-17.115 -0.758,-0.775 -1.365,-1.539 -2.594,-2.258 -9.952,-5.799 -33.562,-9.299 -34.668,-9.459 l -0.188,0.052 -0.071,0.171 c 0,0 -0.091,4.892 -0.105,5.439 -2.411,-0.81 -19.94,-6.472 -36.372,-7.042 -13.935,-0.49 -34.229,-2.292 -61.12,14.243 l -0.795,0.495 c -12.652,7.892 -21.387,17.623 -25.953,28.929 -1.432,3.558 -3.358,11.586 -1.449,19.14 0.822,3.302 2.355,6.62 4.422,9.59 4.672,6.711 12.512,11.164 20.953,11.916 11.919,1.066 20.944,-4.287 24.154,-14.311 2.207,-6.916 0,-17.064 -8.461,-22.241 -6.882,-4.214 -14.282,-3.256 -18.575,-0.416 -3.724,2.469 -5.833,6.306 -5.796,10.52 0.086,7.475 6.525,11.448 11.155,11.46 1.345,0 2.696,-0.234 4.219,-0.73 0.542,-0.165 1.052,-0.37 1.614,-0.718 l 0.176,-0.103 0.111,-0.074 -0.037,0.022 c 1.055,-0.719 1.69,-1.888 1.69,-3.142 0,-0.342 -0.048,-0.689 -0.146,-1.038 -0.547,-1.893 -2.417,-3.038 -4.355,-2.685 l -0.262,0.062 -0.354,0.108 -0.514,0.177 c -1.066,0.262 -1.864,0.285 -2.035,0.291 -0.542,-0.035 -3.207,-0.833 -3.207,-3.752 v -0.04 c 0,-1.072 0.43,-1.824 0.667,-2.235 0.829,-1.3 3.099,-2.576 6.166,-2.309 4.025,0.348 6.927,2.412 8.849,6.306 1.784,3.62 1.317,8.073 -1.203,11.335 -2.503,3.232 -6.959,4.606 -12.885,3.968 -5.976,-0.661 -11.027,-4.1 -13.857,-9.453 -2.769,-5.233 -2.92,-11.437 -0.391,-16.203 6.049,-11.42 17.475,-11.301 23.74,-10.218 9.271,1.608 19.818,10.16 23.559,20.035 0.604,1.574 0.912,2.822 1.181,3.963 l 0.404,1.705 10.474,5.114 0.137,0.103 0.254,-0.023 0.046,-0.302 c -0.065,-0.234 -0.217,-0.45 -0.459,-3.381 -0.199,-2.601 -0.604,-9.722 2.981,-13.251 1.392,-1.379 3.513,-2.61 5.188,-3.004 6.865,-1.677 14.915,-0.52 22.526,8.29 3.94,4.55 5.861,6.625 6.825,7.554 l 0.336,0.303 0.396,0.296 c 0.316,0.172 13.088,6.056 13.088,6.056 l 0.263,-0.063 0.005,-0.273 c -0.085,-0.097 -8.096,-10.45 -6.67,-18.975 1.123,-6.79 6.527,-6.175 14.002,-5.331 2.44,0.285 5.218,0.604 8.094,0.668 8.03,0.051 16.68,-1.432 22.011,-3.764 3.449,-1.499 5.65,-2.497 7.029,-3.751 0.496,-0.411 0.753,-1.078 1.021,-1.796 l 0.188,-0.474 c 0.223,-0.582 0.551,-1.808 0.695,-2.48 0.058,-0.296 0.092,-0.609 -0.119,-0.775 l -0.738,0.137 c -2.341,1.409 -8.193,4.077 -13.664,4.191 -6.793,0.137 -20.468,-6.831 -21.894,-7.572 l -0.137,-0.159 c -0.336,-0.821 -2.389,-5.672 -2.828,-6.698 9.847,6.487 18.014,10.073 24.266,10.626 6.96,0.62 12.385,-3.178 14.702,-4.802 z m -26.996,-9.942 c 0.1,-2.697 1.229,-5.2 3.201,-7.036 1.973,-1.842 4.547,-2.794 7.246,-2.708 5.565,0.199 9.938,4.897 9.747,10.456 -0.105,2.697 -1.234,5.2 -3.201,7.03 -1.973,1.852 -4.541,2.804 -7.252,2.713 -5.559,-0.205 -9.926,-4.891 -9.741,-10.455 z"
     clip-rule="evenodd"
     inkscape:label="#path10" /></g><g
   style="opacity:0.2"
   id="g30"
   transform="translate(-333.49745,-243.19631)">
			<path
   d="m 509.812,348.158 c 1.218,0 2.188,0.99 2.188,2.229 0,1.257 -0.971,2.237 -2.198,2.237 -1.218,0 -2.208,-0.98 -2.208,-2.237 0,-1.238 0.99,-2.229 2.208,-2.229 h 0.01 z m -0.01,0.347 c -0.98,0 -1.782,0.842 -1.782,1.882 0,1.06 0.802,1.891 1.792,1.891 0.99,0.011 1.782,-0.831 1.782,-1.881 0,-1.05 -0.792,-1.892 -1.782,-1.892 h -0.01 z m -0.416,3.179 h -0.396 v -2.485 c 0.208,-0.03 0.406,-0.06 0.703,-0.06 0.377,0 0.624,0.079 0.772,0.188 0.149,0.108 0.229,0.276 0.229,0.515 0,0.326 -0.218,0.524 -0.485,0.604 v 0.021 c 0.218,0.039 0.366,0.237 0.416,0.604 0.06,0.387 0.118,0.535 0.158,0.614 h -0.416 c -0.06,-0.079 -0.119,-0.307 -0.168,-0.634 -0.06,-0.316 -0.218,-0.436 -0.535,-0.436 h -0.277 v 1.069 z m 0,-1.377 h 0.287 c 0.327,0 0.604,-0.118 0.604,-0.426 0,-0.218 -0.158,-0.436 -0.604,-0.436 -0.129,0 -0.218,0.01 -0.287,0.021 v 0.841 z"
   id="path32"
   inkscape:connector-curvature="0"
   style="fill:#ffffff" />
		</g><g
   id="Auge_1"
   transform="translate(-333.49745,-243.19631)">
	<g
   id="g35"
   style="opacity:0.2">
		<path
   clip-rule="evenodd"
   d="m 489.682,261.452 c -1.888,-0.068 -3.678,0.599 -5.046,1.882 -1.368,1.283 -2.175,3.021 -2.232,4.903 -0.131,3.889 2.914,7.161 6.794,7.304 1.887,0.057 3.686,-0.611 5.062,-1.893 1.374,-1.289 2.164,-3.028 2.224,-4.903 0.13,-3.889 -2.914,-7.155 -6.802,-7.293 z m 1.151,7.703 c -1.728,0 -3.124,-0.935 -3.124,-2.081 0,-1.157 1.396,-2.087 3.124,-2.087 1.728,0 3.128,0.93 3.128,2.087 0,1.147 -1.4,2.081 -3.128,2.081 z"
   id="path37"
   inkscape:connector-curvature="0"
   style="fill:#ffffff;fill-rule:evenodd" />
	</g>
</g><g
   id="Auge_2"
   transform="translate(-333.49745,-243.19631)">
	<g
   id="g40"
   style="opacity:0.2">
		<path
   clip-rule="evenodd"
   d="m 482.403,268.745 c 0.06,1.875 0.85,3.614 2.224,4.903 1.377,1.281 3.176,1.949 5.062,1.893 3.88,-0.143 6.925,-3.415 6.794,-7.304 -0.058,-1.882 -0.864,-3.62 -2.232,-4.903 -1.368,-1.283 -3.158,-1.95 -5.046,-1.882 -3.889,0.138 -6.933,3.404 -6.802,7.293 z m 2.523,-1.671 c 0,-1.157 1.4,-2.087 3.128,-2.087 1.728,0 3.124,0.93 3.124,2.087 0,1.146 -1.396,2.081 -3.124,2.081 -1.728,0 -3.128,-0.934 -3.128,-2.081 z"
   id="path42"
   inkscape:connector-curvature="0"
   style="fill:#ffffff;fill-rule:evenodd" />
	</g>
</g></svg>