<?xml version="1.0" encoding="UTF-8" standalone="no"?>
<!-- Created with Inkscape (http://www.inkscape.org/) -->
<svg
   xmlns:dc="http://purl.org/dc/elements/1.1/"
   xmlns:cc="http://web.resource.org/cc/"
   xmlns:rdf="http://www.w3.org/1999/02/22-rdf-syntax-ns#"
   xmlns:svg="http://www.w3.org/2000/svg"
   xmlns="http://www.w3.org/2000/svg"
   xmlns:sodipodi="http://sodipodi.sourceforge.net/DTD/sodipodi-0.dtd"
   xmlns:inkscape="http://www.inkscape.org/namespaces/inkscape"
   width="60"
   height="60"
   id="svg4791"
   sodipodi:version="0.32"
   inkscape:version="0.45+devel"
   version="1.0"
   sodipodi:docname="suse.svg"
   inkscape:output_extension="org.inkscape.output.svg.inkscape">
  <defs
     id="defs4793">
    <filter
       inkscape:collect="always"
       id="filter5993">
      <feGaussianBlur
         inkscape:collect="always"
         stdDeviation="1.3020833"
         id="feGaussianBlur5995" />
    </filter>
  </defs>
  <sodipodi:namedview
     id="base"
     pagecolor="#6a6a6a"
     bordercolor="#666666"
     borderopacity="1.0"
     gridtolerance="10000"
     guidetolerance="10"
     objecttolerance="10"
     inkscape:pageopacity="0.75686275"
     inkscape:pageshadow="2"
     inkscape:zoom="1"
     inkscape:cx="86.714286"
     inkscape:cy="2.2857143"
     inkscape:document-units="px"
     inkscape:current-layer="layer1"
     borderlayer="true"
     inkscape:showpageshadow="false"
     width="60px"
     height="60px"
     inkscape:window-width="872"
     inkscape:window-height="623"
     inkscape:window-x="0"
     inkscape:window-y="25" />
  <metadata
     id="metadata4796">
    <rdf:RDF>
      <cc:Work
         rdf:about="">
        <dc:format>image/svg+xml</dc:format>
        <dc:type
           rdf:resource="http://purl.org/dc/dcmitype/StillImage" />
      </cc:Work>
    </rdf:RDF>
  </metadata>
  <g
     inkscape:label="Layer 1"
     inkscape:groupmode="layer"
     id="layer1"
     transform="translate(-180.21429,-326.86218)">
    <g
       id="g4806"
       transform="translate(0.5000042,-1.5000024)">
      <path
         id="path5914"
         d="M 32.15625,9.15625 C 19.647873,9.15625 9.5,19.302969 9.5,31.8125 C 9.5,44.322031 19.647873,54.468751 32.15625,54.46875 C 44.664627,54.46875 54.8125,44.322031 54.8125,31.8125 C 54.8125,19.302969 44.664627,9.15625 32.15625,9.15625 z M 32.235885,12.301845 L 32.275703,12.301845 C 43.035104,12.323153 51.786358,21.049267 51.786358,31.8125 C 51.786358,42.590049 43.012279,51.323152 32.235885,51.323155 C 26.416424,51.323155 21.197614,48.793376 17.622803,44.75324 C 19.092679,43.612442 21.562234,43.890369 24.590894,44.235611 C 26.042296,44.400726 27.701097,44.595682 29.408831,44.633787 C 34.179865,44.661499 39.300652,43.788427 42.469025,42.403998 C 44.517383,41.505676 45.830074,40.880299 46.649879,40.134391 C 46.94547,39.891914 47.088954,39.519425 47.247144,39.099132 L 47.366597,38.820409 C 47.499383,38.48094 47.719148,37.745509 47.804591,37.347155 C 47.842695,37.172802 47.848502,36.966333 47.724956,36.869343 L 47.286962,36.948978 C 45.896758,37.782639 42.417975,39.392831 39.164159,39.457491 C 35.132104,39.541781 26.991299,35.395711 26.143783,34.958095 L 26.064148,34.838642 C 25.860928,34.353687 24.649294,31.464225 24.391806,30.856876 C 30.241287,34.708805 35.088964,36.856497 38.8058,37.187884 C 42.93831,37.555064 46.147207,35.285151 47.525868,34.321013 C 47.794903,34.137423 47.999026,33.993829 48.083315,33.962654 L 48.202768,33.843201 C 47.974146,32.390645 45.813868,25.337984 44.181184,23.649879 C 43.728559,23.186863 43.359192,22.72561 42.628295,22.296079 C 36.718772,18.851743 22.699562,16.777625 22.042564,16.681788 L 21.923111,16.721606 L 21.883293,16.841059 C 21.883293,16.841059 21.809432,19.742988 21.803658,20.06629 C 21.322166,19.906948 19.840858,19.418507 17.702438,18.831942 C 21.267848,14.840296 26.465987,12.313447 32.235885,12.301845 z M 37.690905,22.654438 C 41.001301,22.773367 43.61744,25.557907 43.504284,28.865993 C 43.445396,30.466344 42.761549,31.914728 41.593036,33.00703 C 40.421061,34.105107 38.902315,34.691513 37.292728,34.639554 C 33.988106,34.516007 31.411786,31.731466 31.519167,28.427999 C 31.575745,26.825337 32.21516,25.335983 33.390598,24.247144 C 34.561418,23.149067 36.08709,22.601324 37.690905,22.654438 z M 37.651087,24.406415 C 36.533382,24.364848 35.478792,24.758082 34.664763,25.521309 C 33.853041,26.283381 33.386574,27.310292 33.35078,28.427999 C 33.274572,30.737308 35.065364,32.682682 37.372364,32.768124 C 38.493534,32.802765 39.579855,32.412992 40.398506,31.653229 C 41.214847,30.887693 41.677848,29.859628 41.712489,28.74654 C 41.789851,26.433766 39.959243,24.487241 37.651087,24.406415 z M 38.327988,26.516751 C 39.353321,26.516751 40.199417,27.065234 40.199418,27.751098 C 40.199418,28.433501 39.353322,28.985446 38.327988,28.985446 C 37.299191,28.985446 36.496375,28.432345 36.496375,27.751098 C 36.496375,27.065234 37.299192,26.51675 38.327988,26.516751 z"
         style="font-size:20.48839951px;opacity:0.33908045;fill:#000000;fill-opacity:1;fill-rule:evenodd;stroke:none;stroke-miterlimit:4;filter:url(#filter5993);font-family:TrebuchetMS-Bold"
         transform="matrix(0.8282897,0,0,0.8282897,183.0796,333.01221)" />
      <g
         transform="translate(-27.285713,97.362184)"
         id="g5901">
        <g
           id="g6036"
           inkscape:label="Layer 1"
           transform="matrix(0.8282897,0,0,0.8282897,210.36531,234.65004)"
           style="fill:#fefefe;fill-opacity:1">
          <path
             style="font-size:20.48839951px;fill:#fefefe;fill-opacity:1;fill-rule:evenodd;stroke:none;stroke-miterlimit:4;font-family:TrebuchetMS-Bold"
             d="M 32.15625,9.15625 C 19.647873,9.15625 9.5,19.302969 9.5,31.8125 C 9.5,44.322031 19.647873,54.468751 32.15625,54.46875 C 44.664627,54.46875 54.8125,44.322031 54.8125,31.8125 C 54.8125,19.302969 44.664627,9.15625 32.15625,9.15625 z M 32.235885,12.301845 L 32.275703,12.301845 C 43.035104,12.323153 51.786358,21.049267 51.786358,31.8125 C 51.786358,42.590049 43.012279,51.323152 32.235885,51.323155 C 26.416424,51.323155 21.197614,48.793376 17.622803,44.75324 C 19.092679,43.612442 21.562234,43.890369 24.590894,44.235611 C 26.042296,44.400726 27.701097,44.595682 29.408831,44.633787 C 34.179865,44.661499 39.300652,43.788427 42.469025,42.403998 C 44.517383,41.505676 45.830074,40.880299 46.649879,40.134391 C 46.94547,39.891914 47.088954,39.519425 47.247144,39.099132 L 47.366597,38.820409 C 47.499383,38.48094 47.719148,37.745509 47.804591,37.347155 C 47.842695,37.172802 47.848502,36.966333 47.724956,36.869343 L 47.286962,36.948978 C 45.896758,37.782639 42.417975,39.392831 39.164159,39.457491 C 35.132104,39.541781 26.991299,35.395711 26.143783,34.958095 L 26.064148,34.838642 C 25.860928,34.353687 24.649294,31.464225 24.391806,30.856876 C 30.241287,34.708805 35.088964,36.856497 38.8058,37.187884 C 42.93831,37.555064 46.147207,35.285151 47.525868,34.321013 C 47.794903,34.137423 47.999026,33.993829 48.083315,33.962654 L 48.202768,33.843201 C 47.974146,32.390645 45.813868,25.337984 44.181184,23.649879 C 43.728559,23.186863 43.359192,22.72561 42.628295,22.296079 C 36.718772,18.851743 22.699562,16.777625 22.042564,16.681788 L 21.923111,16.721606 L 21.883293,16.841059 C 21.883293,16.841059 21.809432,19.742988 21.803658,20.06629 C 21.322166,19.906948 19.840858,19.418507 17.702438,18.831942 C 21.267848,14.840296 26.465987,12.313447 32.235885,12.301845 z M 37.690905,22.654438 C 41.001301,22.773367 43.61744,25.557907 43.504284,28.865993 C 43.445396,30.466344 42.761549,31.914728 41.593036,33.00703 C 40.421061,34.105107 38.902315,34.691513 37.292728,34.639554 C 33.988106,34.516007 31.411786,31.731466 31.519167,28.427999 C 31.575745,26.825337 32.21516,25.335983 33.390598,24.247144 C 34.561418,23.149067 36.08709,22.601324 37.690905,22.654438 z M 37.651087,24.406415 C 36.533382,24.364848 35.478792,24.758082 34.664763,25.521309 C 33.853041,26.283381 33.386574,27.310292 33.35078,28.427999 C 33.274572,30.737308 35.065364,32.682682 37.372364,32.768124 C 38.493534,32.802765 39.579855,32.412992 40.398506,31.653229 C 41.214847,30.887693 41.677848,29.859628 41.712489,28.74654 C 41.789851,26.433766 39.959243,24.487241 37.651087,24.406415 z M 38.327988,26.516751 C 39.353321,26.516751 40.199417,27.065234 40.199418,27.751098 C 40.199418,28.433501 39.353322,28.985446 38.327988,28.985446 C 37.299191,28.985446 36.496375,28.432345 36.496375,27.751098 C 36.496375,27.065234 37.299192,26.51675 38.327988,26.516751 z"
             id="path2445" />
        </g>
        <path
           sodipodi:type="arc"
           style="opacity:0.39655175;color:#000000;fill:none;fill-opacity:1;fill-rule:evenodd;stroke:#ffffff;stroke-width:3.625;stroke-linecap:butt;stroke-linejoin:miter;marker:none;marker-start:none;marker-mid:none;marker-end:none;stroke-miterlimit:4;stroke-dasharray:3.625, 3.625;stroke-dashoffset:0;stroke-opacity:1;visibility:visible;display:inline;overflow:visible;enable-background:accumulate"
           id="path5514"
           sodipodi:cx="239"
           sodipodi:cy="262"
           sodipodi:rx="29"
           sodipodi:ry="29"
           d="M 268,262 A 29,29 0 1 1 210,262 A 29,29 0 1 1 268,262 z"
           transform="matrix(0.8275862,0,0,0.8275862,39.206897,44.172414)" />
      </g>
    </g>
  </g>
</svg>
