/* XPM */
static char * closeO_xpm[] = {
"32 48 4 1",
" 	c None",
".	c #EEEEEE",
"+	c #CC4444",
"@	c #333333",
"................................",
"................................",
"................................",
"................................",
"..............++++..............",
"............++++++++............",
"...........++++++++++...........",
"..........++++++++++++..........",
".........+++..++++..+++.........",
".........+++...++...+++.........",
"........+++++......+++++........",
"........++++++....++++++........",
"........++++++....++++++........",
"........+++++......+++++........",
".........+++...++...+++.........",
".........+++..++++..+++.........",
"..........++++++++++++..........",
"...........++++++++++...........",
"............++++++++............",
"..............++++..............",
"................................",
"................................",
"................................",
"................................",
"................................",
"................................",
"................................",
"................................",
"................................",
"................................",
"................................",
"................................",
"............@@....@@............",
"............@@@..@@@............",
".............@@@@@@.............",
"..............@@@@..............",
"..............@@@@..............",
".............@@@@@@.............",
"............@@@..@@@............",
"............@@....@@............",
"................................",
"................................",
"................................",
"................................",
"................................",
"................................",
"................................",
"................................"};
