/* XPM */
static char * frameIBL_xpm[] = {
"22 21 3 1",
" 	c None",
".	c #BBBBBB",
"+	c #EEEEEE",
".+++                  ",
".+++                  ",
".+++                  ",
".+++                  ",
".+++                  ",
".+++                  ",
".+++                  ",
".+++                  ",
".+++                  ",
".+++                  ",
".+++                  ",
".+++                  ",
".+++                  ",
".+++                  ",
".+++                  ",
".+++                  ",
".+++                  ",
" .++++++++++++++++++++",
" .++++++++++++++++++++",
"  ..++++++++++++++++++",
"    .................."};
