/* XPM */
static char * frameIBR_xpm[] = {
"22 21 3 1",
" 	c None",
".	c #EEEEEE",
"+	c #BBBBBB",
"                  ...+",
"                  ...+",
"                  ...+",
"                  ...+",
"                  ...+",
"                  ...+",
"                  ...+",
"                  ...+",
"                  ...+",
"                  ...+",
"                  ...+",
"                  ...+",
"                  ...+",
"                  ...+",
"                  ...+",
"                  ...+",
"                  ...+",
"....................+ ",
"....................+ ",
"..................++  ",
"++++++++++++++++++    "};
