/* XPM */
static char * frameITR_xpm[] = {
"22 21 3 1",
" 	c None",
".	c #BBBBBB",
"+	c #EEEEEE",
"..................    ",
"....................  ",
"++++++++++++++++++... ",
"++++++++++++++++++++. ",
"                  ++..",
"                  +++.",
"                  +++.",
"                  +++.",
"                  +++.",
"                  +++.",
"                  +++.",
"                  +++.",
"                  +++.",
"                  +++.",
"                  +++.",
"                  +++.",
"                  +++.",
"                  +++.",
"                  +++.",
"                  +++.",
"                  +++."};
