/* XPM */
static char * restoreA_xpm[] = {
"32 48 3 1",
" 	c None",
".	c #EEEEEE",
"+	c #333333",
"................................",
"................................",
"................................",
"................................",
"................................",
"................................",
"................................",
"................................",
"............++++++++............",
"............++++++++............",
"............++....++............",
"............++....++............",
"............++....++............",
"............++....++............",
"............++++++++............",
"............++++++++............",
"................................",
"................................",
"................................",
"................................",
"................................",
"................................",
"................................",
"................................",
"................................",
"................................",
"................................",
"................................",
"................................",
"................................",
"................................",
"................................",
"................................",
"................................",
"................................",
"................................",
"................................",
"................................",
"................................",
"................................",
"................................",
"................................",
"................................",
"................................",
"................................",
"................................",
"................................",
"................................"};
