/* XPM */
static char * menubg_xpm[] = {
"950 2 33 1",
" 	c None",
".	c #EBEBEB",
"+	c #ECECEC",
"@	c #ECEDED",
"#	c #EDEDED",
"$	c #EEEEEE",
"%	c #EFEFEF",
"&	c #EFF0F0",
"*	c #F0F0F0",
"=	c #F0F1F1",
"-	c #F1F1F1",
";	c #F1F2F2",
">	c #F2F2F2",
",	c #F2F3F3",
"'	c #F3F3F3",
")	c #F3F4F4",
"!	c #F4F4F4",
"~	c #F4F5F5",
"{	c #F5F5F5",
"]	c #F5F6F6",
"^	c #F6F6F6",
"/	c #F6F7F7",
"(	c #F7F8F8",
"_	c #F8F8F8",
":	c #F8F9F9",
"<	c #F9F9F9",
"[	c #F9FAFA",
"}	c #FAFBFB",
"|	c #FBFBFB",
"1	c #FBFCFC",
"2	c #FCFDFD",
"3	c #EEEFEF",
"4	c #F7F7F7",
"...++@##$$$%%&*=--;>>,')!!~{]]^//((_::<[[}}|112222222222222222222222222222222222222222222222222222222222222222222222222222222222222222222222222222222222222222222222222222222222222222222222222222222222222222222222222222222222222222222222222222222222222222222222222222222222222222222222222222222222222222222222222222222222222222222222222222222222222222222222222222222222222222222222222222222222222222222222222222222222222222222222222222222222222222222222222222222222222222222222222222222222222222222222222222222222222222222222222222222222222222222222222222222222222222222222222222222222222222222222222222222222222222222222222222222222222222222222222222222222222222222222222222222222222222222222222222222222222222222222222222222222222222222222222222222222222222222222222222222222222222222222222222222222222222222222222222222222222222222222222222222222222222222222222222222222222222222222222222222222222222222222222222222222222222222222222222222222222222",
"...++@##$$3%%&**--;>>,')!!~{]]^//4(_::<[[}}|112222222222222222222222222222222222222222222222222222222222222222222222222222222222222222222222222222222222222222222222222222222222222222222222222222222222222222222222222222222222222222222222222222222222222222222222222222222222222222222222222222222222222222222222222222222222222222222222222222222222222222222222222222222222222222222222222222222222222222222222222222222222222222222222222222222222222222222222222222222222222222222222222222222222222222222222222222222222222222222222222222222222222222222222222222222222222222222222222222222222222222222222222222222222222222222222222222222222222222222222222222222222222222222222222222222222222222222222222222222222222222222222222222222222222222222222222222222222222222222222222222222222222222222222222222222222222222222222222222222222222222222222222222222222222222222222222222222222222222222222222222222222222222222222222222222222222222222222222222222222222222"};
