<?xml version="1.0" encoding="UTF-8" standalone="no"?>
<!-- Created with Inkscape (http://www.inkscape.org/) -->
<svg
   xmlns:dc="http://purl.org/dc/elements/1.1/"
   xmlns:cc="http://web.resource.org/cc/"
   xmlns:rdf="http://www.w3.org/1999/02/22-rdf-syntax-ns#"
   xmlns:svg="http://www.w3.org/2000/svg"
   xmlns="http://www.w3.org/2000/svg"
   xmlns:xlink="http://www.w3.org/1999/xlink"
   xmlns:sodipodi="http://sodipodi.sourceforge.net/DTD/sodipodi-0.dtd"
   xmlns:inkscape="http://www.inkscape.org/namespaces/inkscape"
   width="800"
   height="600"
   id="svg6898"
   sodipodi:version="0.32"
   inkscape:version="0.45+devel"
   version="1.0"
   sodipodi:docname="background-verbose.svg"
   inkscape:output_extension="org.inkscape.output.svg.inkscape"
   inkscape:export-filename="/home/jimmac/gfx/novell/pdes.local/branches/openSUSE10.3/boot/mockup.png"
   inkscape:export-xdpi="90"
   inkscape:export-ydpi="90">
  <defs
     id="defs6900">
    <linearGradient
       inkscape:collect="always"
       id="linearGradient8052">
      <stop
         style="stop-color:#468a05;stop-opacity:1"
         offset="0"
         id="stop8054" />
      <stop
         style="stop-color:#305f03;stop-opacity:1"
         offset="1"
         id="stop8056" />
    </linearGradient>
    <linearGradient
       id="linearGradient8038">
      <stop
         id="stop8040"
         style="stop-color:#4e9a06;stop-opacity:1;"
         offset="0" />
      <stop
         id="stop8042"
         style="stop-color:#438505;stop-opacity:1"
         offset="1" />
    </linearGradient>
    <linearGradient
       inkscape:collect="always"
       id="linearGradient8000">
      <stop
         style="stop-color:#4e9a06;stop-opacity:1;"
         offset="0"
         id="stop8002" />
      <stop
         style="stop-color:#65c807;stop-opacity:1"
         offset="1"
         id="stop8004" />
    </linearGradient>
    <linearGradient
       inkscape:collect="always"
       xlink:href="#linearGradient8263"
       id="linearGradient9671"
       gradientUnits="userSpaceOnUse"
       x1="616.59711"
       y1="342.61313"
       x2="639.22455"
       y2="-248.52814" />
    <linearGradient
       inkscape:collect="always"
       xlink:href="#linearGradient8263"
       id="linearGradient9669"
       gradientUnits="userSpaceOnUse"
       x1="616.59711"
       y1="342.61313"
       x2="639.22455"
       y2="-248.52814" />
    <linearGradient
       inkscape:collect="always"
       xlink:href="#linearGradient8263"
       id="linearGradient9667"
       gradientUnits="userSpaceOnUse"
       x1="616.59711"
       y1="342.61313"
       x2="639.22455"
       y2="-248.52814" />
    <linearGradient
       inkscape:collect="always"
       xlink:href="#linearGradient8263"
       id="linearGradient9665"
       gradientUnits="userSpaceOnUse"
       x1="616.59711"
       y1="342.61313"
       x2="639.22455"
       y2="-248.52814" />
    <linearGradient
       inkscape:collect="always"
       xlink:href="#linearGradient8263"
       id="linearGradient9663"
       gradientUnits="userSpaceOnUse"
       x1="616.59711"
       y1="342.61313"
       x2="639.22455"
       y2="-248.52814" />
    <linearGradient
       inkscape:collect="always"
       xlink:href="#linearGradient8263"
       id="linearGradient9661"
       gradientUnits="userSpaceOnUse"
       x1="616.59711"
       y1="342.61313"
       x2="639.22455"
       y2="-248.52814" />
    <linearGradient
       inkscape:collect="always"
       xlink:href="#linearGradient8263"
       id="linearGradient9659"
       gradientUnits="userSpaceOnUse"
       x1="616.59711"
       y1="342.61313"
       x2="639.22455"
       y2="-248.52814" />
    <linearGradient
       inkscape:collect="always"
       xlink:href="#linearGradient8263"
       id="linearGradient9657"
       gradientUnits="userSpaceOnUse"
       x1="616.59711"
       y1="342.61313"
       x2="639.22455"
       y2="-248.52814" />
    <linearGradient
       inkscape:collect="always"
       xlink:href="#linearGradient8263"
       id="linearGradient9655"
       gradientUnits="userSpaceOnUse"
       x1="616.59711"
       y1="342.61313"
       x2="639.22455"
       y2="-248.52814" />
    <linearGradient
       inkscape:collect="always"
       xlink:href="#linearGradient8263"
       id="linearGradient9653"
       gradientUnits="userSpaceOnUse"
       x1="616.59711"
       y1="342.61313"
       x2="639.22455"
       y2="-248.52814" />
    <linearGradient
       inkscape:collect="always"
       xlink:href="#linearGradient8263"
       id="linearGradient9651"
       gradientUnits="userSpaceOnUse"
       x1="616.59711"
       y1="342.61313"
       x2="639.22455"
       y2="-248.52814" />
    <linearGradient
       inkscape:collect="always"
       xlink:href="#linearGradient8263"
       id="linearGradient9649"
       gradientUnits="userSpaceOnUse"
       x1="616.59711"
       y1="342.61313"
       x2="639.22455"
       y2="-248.52814" />
    <linearGradient
       inkscape:collect="always"
       xlink:href="#linearGradient8263"
       id="linearGradient9647"
       gradientUnits="userSpaceOnUse"
       x1="616.59711"
       y1="342.61313"
       x2="639.22455"
       y2="-248.52814" />
    <linearGradient
       id="linearGradient8263">
      <stop
         offset="0"
         style="stop-color:#4e9a06;stop-opacity:1;"
         id="stop8267" />
      <stop
         offset="1"
         style="stop-color:#234502;stop-opacity:1;"
         id="stop8265" />
    </linearGradient>
    <linearGradient
       inkscape:collect="always"
       xlink:href="#linearGradient8263"
       id="linearGradient7222"
       gradientUnits="userSpaceOnUse"
       x1="616.59711"
       y1="342.61313"
       x2="639.22455"
       y2="-248.52814" />
    <radialGradient
       r="38.670935"
       fy="-92.591293"
       fx="695.23529"
       cy="-92.591293"
       cx="695.23529"
       gradientTransform="matrix(1.4932927,0,0,1.2526157,-342.95448,17.844423)"
       gradientUnits="userSpaceOnUse"
       id="radialGradient6036"
       xlink:href="#linearGradient5975"
       inkscape:collect="always" />
    <radialGradient
       gradientUnits="userSpaceOnUse"
       gradientTransform="matrix(1.4932927,0,0,1.2526157,-342.95448,17.844423)"
       r="38.670935"
       fy="-92.591293"
       fx="695.23529"
       cy="-92.591293"
       cx="695.23529"
       id="radialGradient5981"
       xlink:href="#linearGradient5975"
       inkscape:collect="always" />
    <linearGradient
       y2="39.739437"
       x2="100"
       y1="166.72182"
       x1="100"
       gradientUnits="userSpaceOnUse"
       id="linearGradient5624"
       xlink:href="#linearGradient5681"
       inkscape:collect="always" />
    <linearGradient
       y2="164.39177"
       x2="98.727234"
       y1="42.150482"
       x1="98.727234"
       gradientUnits="userSpaceOnUse"
       id="linearGradient5622"
       xlink:href="#linearGradient5478"
       inkscape:collect="always" />
    <radialGradient
       gradientUnits="userSpaceOnUse"
       gradientTransform="matrix(1.3173077,0,0,0.2669041,238.88221,116.91987)"
       r="26"
       fy="187.76793"
       fx="164.25"
       cy="187.76793"
       cx="164.25"
       id="radialGradient5847"
       xlink:href="#linearGradient5841"
       inkscape:collect="always" />
    <radialGradient
       gradientUnits="userSpaceOnUse"
       gradientTransform="matrix(1,0,0,0.7980769,291,28.950721)"
       r="13"
       fy="146.19427"
       fx="98"
       cy="146.19427"
       cx="98"
       id="radialGradient5837"
       xlink:href="#linearGradient5831"
       inkscape:collect="always" />
    <linearGradient
       y2="153.70456"
       x2="148.27702"
       y1="18.832932"
       x1="60.836216"
       gradientUnits="userSpaceOnUse"
       id="linearGradient5789"
       xlink:href="#linearGradient5478"
       inkscape:collect="always" />
    <radialGradient
       r="83.063794"
       fy="81.171234"
       fx="40.807701"
       cy="81.171234"
       cx="40.807701"
       gradientTransform="matrix(1,0,0,1.0653546,286.5,-10.197379)"
       gradientUnits="userSpaceOnUse"
       id="radialGradient5787"
       xlink:href="#linearGradient5767"
       inkscape:collect="always" />
    <linearGradient
       gradientUnits="userSpaceOnUse"
       y2="21"
       x2="136"
       y1="127"
       x1="130"
       id="linearGradient5785"
       xlink:href="#linearGradient5779"
       inkscape:collect="always" />
    <radialGradient
       gradientUnits="userSpaceOnUse"
       gradientTransform="matrix(1,0,0,1.0653546,286.5,-10.197379)"
       r="83.063794"
       fy="81.171234"
       fx="40.807701"
       cy="81.171234"
       cx="40.807701"
       id="radialGradient5773"
       xlink:href="#linearGradient5767"
       inkscape:collect="always" />
    <radialGradient
       gradientUnits="userSpaceOnUse"
       gradientTransform="matrix(1.663279,0,0,1.0392343,182.16093,-6.8270227)"
       r="12.438205"
       fy="117.97007"
       fx="158.0618"
       cy="117.97007"
       cx="158.0618"
       id="radialGradient5761"
       xlink:href="#linearGradient5755"
       inkscape:collect="always" />
    <radialGradient
       gradientUnits="userSpaceOnUse"
       gradientTransform="matrix(1.3797726,0,0,0.5967372,246.83904,40.396617)"
       r="59.25"
       fy="38.506714"
       fx="105.75"
       cy="38.506714"
       cx="105.75"
       id="radialGradient5751"
       xlink:href="#linearGradient5745"
       inkscape:collect="always" />
    <radialGradient
       gradientUnits="userSpaceOnUse"
       gradientTransform="matrix(1.6080434,0,0,0.5936869,232.42811,45.383601)"
       r="59.25"
       fy="20.619284"
       fx="89.75"
       cy="20.619284"
       cx="89.75"
       id="radialGradient5741"
       xlink:href="#linearGradient5565"
       inkscape:collect="always" />
    <radialGradient
       r="102"
       fy="293.59906"
       fx="132"
       cy="293.59906"
       cx="132"
       gradientTransform="matrix(0.5168511,0,0,-0.2633953,350.77569,107.34721)"
       gradientUnits="userSpaceOnUse"
       id="radialGradient5733"
       xlink:href="#linearGradient5565"
       inkscape:collect="always" />
    <linearGradient
       gradientUnits="userSpaceOnUse"
       y2="39.739437"
       x2="100"
       y1="166.72182"
       x1="100"
       id="linearGradient5687"
       xlink:href="#linearGradient5681"
       inkscape:collect="always" />
    <clipPath
       id="clipPath5677"
       clipPathUnits="userSpaceOnUse">
      <path
         id="path5679"
         d="M 99.999999,30.15625 C 61.429321,30.15625 30.15625,61.425757 30.15625,100 C 30.15625,138.57424 61.429321,169.84375 99.999999,169.84375 C 138.57068,169.84375 169.84374,138.57424 169.84375,100 C 169.84375,61.425763 138.57068,30.15625 99.999999,30.15625 z M 100.33443,39.828904 C 133.56795,39.828904 160.53125,66.770043 160.53125,100 C 160.53125,133.23353 133.56439,160.1711 100.33443,160.1711 C 82.389612,160.1711 66.287228,152.30637 55.263983,139.84824 C 59.79648,136.33049 67.379614,137.1887 76.718752,138.25328 C 81.194274,138.76243 86.296201,139.34487 91.562158,139.46236 C 106.27405,139.54781 122.10349,136.86276 131.87345,132.59375 C 138.18974,129.82369 142.2338,127.99948 144.76174,125.69941 C 145.67323,124.95171 146.15189,123.70262 146.63968,122.4066 L 146.9741,121.53194 C 147.38356,120.48516 147.97116,118.23268 148.23463,117.00432 C 148.35213,116.46668 148.4098,115.88852 148.02883,115.58943 L 146.6654,115.84669 C 142.37858,118.41735 131.66827,123.31339 121.63484,123.51278 C 109.20165,123.77269 84.142746,110.99635 81.529349,109.64693 L 81.272099,109.33823 C 80.645458,107.84282 76.895333,98.940154 76.101346,97.067335 C 94.138737,108.9451 109.09321,115.51941 120.55439,116.54126 C 133.29735,117.6735 143.23739,110.71627 147.4886,107.74327 C 148.3182,107.17715 148.95227,106.73322 149.21219,106.63709 L 149.49517,106.17403 C 148.79019,101.69494 142.10444,80.020513 137.06992,74.815088 C 135.67421,73.387338 134.56456,71.997838 132.31077,70.673343 C 114.08824,60.052432 70.821318,53.655846 68.795405,53.360326 L 68.460982,53.463225 L 68.332357,53.746201 C 68.332357,53.746201 68.170082,62.730625 68.152279,63.727558 C 66.667554,63.236214 62.063798,61.728958 55.469788,59.920236 C 64.073522,49.274392 77.258818,39.828904 100.33443,39.828904 z M 116.23256,71.676625 C 116.53961,71.672018 116.84957,71.666388 117.15867,71.676625 C 127.36656,72.043352 135.38655,80.64108 135.03764,90.841854 C 134.85605,95.776678 132.77552,100.3362 129.17231,103.70442 C 125.55841,107.09044 120.86144,108.85532 115.89814,108.6951 C 105.70804,108.31413 97.688042,99.716405 98.019162,89.529869 C 98.193631,84.587923 100.28565,79.999104 103.91022,76.641573 C 107.2949,73.467187 111.62686,71.745746 116.23256,71.676625 z M 115.74378,77.130354 C 112.77085,77.311098 109.96536,78.518227 107.76899,80.577521 C 105.26598,82.927439 103.78906,86.109055 103.67869,89.555596 C 103.4437,96.676556 109.01582,102.66919 116.12966,102.93267 C 119.58688,103.03948 122.86633,101.82829 125.39071,99.4855 C 127.90797,97.124901 129.3742,93.914 129.48101,90.481698 C 129.71956,83.350057 124.12172,77.379587 117.00432,77.130354 C 116.5735,77.114333 116.16849,77.104534 115.74378,77.130354 z M 119.1395,83.587366 C 122.30121,83.587366 124.85049,85.305484 124.85048,87.420407 C 124.85048,89.524657 122.30121,91.253449 119.1395,91.253456 C 115.96711,91.253456 113.4028,89.521092 113.4028,87.420407 C 113.4028,85.305484 115.96711,83.587366 119.1395,83.587366 z"
         style="font-size:20.48839951px;fill:#4e9a06;fill-opacity:1;fill-rule:evenodd;stroke:none;stroke-width:3.36292505;stroke-miterlimit:4;stroke-dasharray:none;stroke-opacity:1;font-family:TrebuchetMS-Bold" />
    </clipPath>
    <radialGradient
       gradientUnits="userSpaceOnUse"
       gradientTransform="matrix(1.2083955,0,0,0.6158168,259.4918,53.946753)"
       r="102"
       fy="293.59906"
       fx="132"
       cy="293.59906"
       cx="132"
       id="radialGradient5571"
       xlink:href="#linearGradient5565"
       inkscape:collect="always" />
    <radialGradient
       gradientUnits="userSpaceOnUse"
       gradientTransform="matrix(1,0,0,0.9452303,287,2.9568298)"
       r="103.84375"
       fy="37.250149"
       fx="132.01065"
       cy="37.250149"
       cx="132.01065"
       id="radialGradient5526"
       xlink:href="#linearGradient5518"
       inkscape:collect="always" />
    <linearGradient
       gradientUnits="userSpaceOnUse"
       y2="164.39177"
       x2="98.727234"
       y1="42.150482"
       x1="98.727234"
       id="linearGradient5484"
       xlink:href="#linearGradient5478"
       inkscape:collect="always" />
    <linearGradient
       gradientTransform="translate(287,-4)"
       gradientUnits="userSpaceOnUse"
       y2="189.8972"
       x2="136.34358"
       y1="14.610992"
       x1="138.34358"
       id="linearGradient5476"
       xlink:href="#linearGradient5470"
       inkscape:collect="always" />
    <linearGradient
       id="linearGradient5470"
       inkscape:collect="always">
      <stop
         id="stop5472"
         offset="0"
         style="stop-color:#ffffff;stop-opacity:1;" />
      <stop
         id="stop5474"
         offset="1"
         style="stop-color:#ffffff;stop-opacity:0;" />
    </linearGradient>
    <linearGradient
       id="linearGradient5478">
      <stop
         id="stop5480"
         offset="0"
         style="stop-color:#3a7202;stop-opacity:1;" />
      <stop
         style="stop-color:#4e9c04;stop-opacity:1;"
         offset="0.69790977"
         id="stop5626" />
      <stop
         id="stop5628"
         offset="0.75"
         style="stop-color:#50a004;stop-opacity:1;" />
      <stop
         id="stop5482"
         offset="1"
         style="stop-color:#7bf508;stop-opacity:1;" />
    </linearGradient>
    <linearGradient
       id="linearGradient5518"
       inkscape:collect="always">
      <stop
         id="stop5520"
         offset="0"
         style="stop-color:#ffffff;stop-opacity:1;" />
      <stop
         id="stop5522"
         offset="1"
         style="stop-color:#ffffff;stop-opacity:0;" />
    </linearGradient>
    <linearGradient
       id="linearGradient5565"
       inkscape:collect="always">
      <stop
         id="stop5567"
         offset="0"
         style="stop-color:#8ae234;stop-opacity:1;" />
      <stop
         id="stop5569"
         offset="1"
         style="stop-color:#8ae234;stop-opacity:0;" />
    </linearGradient>
    <linearGradient
       id="linearGradient5681"
       inkscape:collect="always">
      <stop
         id="stop5683"
         offset="0"
         style="stop-color:#000000;stop-opacity:1;" />
      <stop
         id="stop5685"
         offset="1"
         style="stop-color:#000000;stop-opacity:0.48124999" />
    </linearGradient>
    <linearGradient
       id="linearGradient5745"
       inkscape:collect="always">
      <stop
         id="stop5747"
         offset="0"
         style="stop-color:#ffffff;stop-opacity:1;" />
      <stop
         id="stop5749"
         offset="1"
         style="stop-color:#ffffff;stop-opacity:0;" />
    </linearGradient>
    <linearGradient
       id="linearGradient5755"
       inkscape:collect="always">
      <stop
         id="stop5757"
         offset="0"
         style="stop-color:#ffffff;stop-opacity:1;" />
      <stop
         id="stop5759"
         offset="1"
         style="stop-color:#ffffff;stop-opacity:0;" />
    </linearGradient>
    <linearGradient
       id="linearGradient5767"
       inkscape:collect="always">
      <stop
         id="stop5769"
         offset="0"
         style="stop-color:#ffffff;stop-opacity:1;" />
      <stop
         id="stop5771"
         offset="1"
         style="stop-color:#ffffff;stop-opacity:0;" />
    </linearGradient>
    <linearGradient
       id="linearGradient5779"
       inkscape:collect="always">
      <stop
         id="stop5781"
         offset="0"
         style="stop-color:#73d216;stop-opacity:1;" />
      <stop
         id="stop5783"
         offset="1"
         style="stop-color:#73d216;stop-opacity:0;" />
    </linearGradient>
    <linearGradient
       id="linearGradient5831"
       inkscape:collect="always">
      <stop
         id="stop5833"
         offset="0"
         style="stop-color:#ffffff;stop-opacity:1;" />
      <stop
         id="stop5835"
         offset="1"
         style="stop-color:#ffffff;stop-opacity:0;" />
    </linearGradient>
    <linearGradient
       id="linearGradient5841"
       inkscape:collect="always">
      <stop
         id="stop5843"
         offset="0"
         style="stop-color:#ffffff;stop-opacity:1;" />
      <stop
         id="stop5845"
         offset="1"
         style="stop-color:#ffffff;stop-opacity:0;" />
    </linearGradient>
    <linearGradient
       id="linearGradient5975"
       inkscape:collect="always">
      <stop
         style="stop-color:#6eda08;stop-opacity:1"
         offset="0"
         id="stop5979" />
      <stop
         style="stop-color:#4e9a06;stop-opacity:1;"
         offset="1"
         id="stop5977" />
    </linearGradient>
    <linearGradient
       inkscape:collect="always"
       xlink:href="#linearGradient8000"
       id="linearGradient8006"
       x1="699.29016"
       y1="-101.02659"
       x2="699.29016"
       y2="-217.26512"
       gradientUnits="userSpaceOnUse" />
    <filter
       inkscape:collect="always"
       id="filter8032">
      <feGaussianBlur
         inkscape:collect="always"
         stdDeviation="1.4757608"
         id="feGaussianBlur8034" />
    </filter>
    <linearGradient
       inkscape:collect="always"
       xlink:href="#linearGradient8052"
       id="linearGradient8062"
       x1="-58.38364"
       y1="22.715664"
       x2="568.51141"
       y2="40.747856"
       gradientUnits="userSpaceOnUse" />
    <filter
       inkscape:collect="always"
       id="filter8108">
      <feGaussianBlur
         inkscape:collect="always"
         stdDeviation="1.3216923"
         id="feGaussianBlur8110" />
    </filter>
    <linearGradient
       inkscape:collect="always"
       xlink:href="#linearGradient8052"
       id="linearGradient8140"
       gradientUnits="userSpaceOnUse"
       x1="-58.38364"
       y1="22.715664"
       x2="568.51141"
       y2="40.747856" />
    <linearGradient
       inkscape:collect="always"
       xlink:href="#linearGradient8052"
       id="linearGradient8142"
       gradientUnits="userSpaceOnUse"
       x1="-58.38364"
       y1="22.715664"
       x2="568.51141"
       y2="40.747856" />
    <linearGradient
       inkscape:collect="always"
       xlink:href="#linearGradient8052"
       id="linearGradient8144"
       gradientUnits="userSpaceOnUse"
       x1="-58.38364"
       y1="22.715664"
       x2="568.51141"
       y2="40.747856" />
    <linearGradient
       inkscape:collect="always"
       xlink:href="#linearGradient8052"
       id="linearGradient8146"
       gradientUnits="userSpaceOnUse"
       x1="-58.38364"
       y1="22.715664"
       x2="568.51141"
       y2="40.747856" />
    <linearGradient
       inkscape:collect="always"
       xlink:href="#linearGradient8052"
       id="linearGradient8148"
       gradientUnits="userSpaceOnUse"
       x1="-58.38364"
       y1="22.715664"
       x2="568.51141"
       y2="40.747856" />
    <linearGradient
       inkscape:collect="always"
       xlink:href="#linearGradient8052"
       id="linearGradient8150"
       gradientUnits="userSpaceOnUse"
       x1="-58.38364"
       y1="22.715664"
       x2="568.51141"
       y2="40.747856" />
    <linearGradient
       inkscape:collect="always"
       xlink:href="#linearGradient8052"
       id="linearGradient8152"
       gradientUnits="userSpaceOnUse"
       x1="-58.38364"
       y1="22.715664"
       x2="568.51141"
       y2="40.747856" />
    <linearGradient
       inkscape:collect="always"
       xlink:href="#linearGradient8052"
       id="linearGradient8154"
       gradientUnits="userSpaceOnUse"
       x1="-58.38364"
       y1="22.715664"
       x2="568.51141"
       y2="40.747856" />
    <linearGradient
       inkscape:collect="always"
       xlink:href="#linearGradient8052"
       id="linearGradient8156"
       gradientUnits="userSpaceOnUse"
       x1="-58.38364"
       y1="22.715664"
       x2="568.51141"
       y2="40.747856" />
    <linearGradient
       inkscape:collect="always"
       xlink:href="#linearGradient8052"
       id="linearGradient8158"
       gradientUnits="userSpaceOnUse"
       x1="-58.38364"
       y1="22.715664"
       x2="568.51141"
       y2="40.747856" />
    <linearGradient
       inkscape:collect="always"
       xlink:href="#linearGradient8052"
       id="linearGradient8160"
       gradientUnits="userSpaceOnUse"
       x1="-58.38364"
       y1="22.715664"
       x2="568.51141"
       y2="40.747856" />
    <linearGradient
       inkscape:collect="always"
       xlink:href="#linearGradient8052"
       id="linearGradient8162"
       gradientUnits="userSpaceOnUse"
       x1="-58.38364"
       y1="22.715664"
       x2="568.51141"
       y2="40.747856" />
    <linearGradient
       inkscape:collect="always"
       xlink:href="#linearGradient8052"
       id="linearGradient8164"
       gradientUnits="userSpaceOnUse"
       x1="-58.38364"
       y1="22.715664"
       x2="568.51141"
       y2="40.747856" />
  </defs>
  <sodipodi:namedview
     id="base"
     pagecolor="#ffffff"
     bordercolor="#ededed"
     borderopacity="1"
     gridtolerance="10000"
     guidetolerance="10"
     objecttolerance="10"
     inkscape:pageopacity="0.0"
     inkscape:pageshadow="2"
     inkscape:zoom="1"
     inkscape:cx="450.69637"
     inkscape:cy="337.0116"
     inkscape:document-units="px"
     inkscape:current-layer="layer4"
     width="800px"
     height="600px"
     borderlayer="true"
     inkscape:showpageshadow="false"
     inkscape:window-width="1035"
     inkscape:window-height="965"
     inkscape:window-x="409"
     inkscape:window-y="121">
    <inkscape:grid
       type="xygrid"
       id="grid6906" />
  </sodipodi:namedview>
  <metadata
     id="metadata6903">
    <rdf:RDF>
      <cc:Work
         rdf:about="">
        <dc:format>image/svg+xml</dc:format>
        <dc:type
           rdf:resource="http://purl.org/dc/dcmitype/StillImage" />
      </cc:Work>
    </rdf:RDF>
  </metadata>
  <g
     inkscape:groupmode="layer"
     id="layer4"
     inkscape:label="bcg">
    <rect
       rx="0.90156513"
       style="opacity:1;color:#000000;fill:#0d0e0f;fill-opacity:1;fill-rule:evenodd;stroke:none;stroke-width:1;stroke-linecap:round;stroke-linejoin:miter;marker:none;marker-start:none;marker-mid:none;marker-end:none;stroke-miterlimit:4;stroke-dasharray:none;stroke-dashoffset:0;stroke-opacity:1;visibility:visible;display:inline;overflow:visible;enable-background:accumulate"
       ry="0.97199976"
       y="0"
       x="0"
       height="600"
       width="800"
       id="rect4580" />
    <g
       id="g9452"
       transform="matrix(0.8478715,0,-1.8350256e-2,-0.9127987,83.208038,207.07834)"
       style="fill:#050606;fill-opacity:1">
      <path
         id="path9454"
         d="M -439.92073,157.97916 C -276.05172,253.38216 -87.587706,287.84915 97.362894,315.63585 C 393.37813,354.19107 678.63987,280.00543 955.13607,181.89587 C 972.28334,174.30607 987.04543,167.80966 999.86134,162.19137 C 1124.2006,107.68308 1065.3511,135.83058 1224.2228,50.051221 C 1224.2228,50.051221 1157.5976,103.66132 1157.5976,103.66132 C 995.06477,190.34724 1060.3168,159.27586 924.3453,218.31366 C 913.63442,222.96424 901.67491,228.17397 888.25707,234.04445 C 609.61407,331.98677 322.84448,405.11407 24.905104,366.69592 C -167.34714,339.59831 -358.86883,302.52863 -536.84832,221.75407 C -536.84832,221.75407 -528.00668,215.93659 -515.66419,207.81567 C -487.14088,189.04834 -439.92073,157.97916 -439.92073,157.97916 C -439.92073,157.97916 -439.92073,157.97916 -439.92073,157.97916"
         style="opacity:1;color:#000000;fill:#050606;fill-opacity:1;fill-rule:nonzero;stroke:none;stroke-width:3;stroke-linecap:round;stroke-linejoin:round;marker:none;marker-start:none;marker-mid:none;marker-end:none;stroke-miterlimit:4;stroke-dasharray:none;stroke-dashoffset:0;stroke-opacity:1;visibility:visible;display:inline;overflow:visible;enable-background:accumulate" />
      <path
         id="path9456"
         d="M -411.44463,118.65209 C -249.14612,215.41814 -63.179357,253.63791 120.36331,283.59207 C 413.26289,325.8916 698.22328,260.46869 975.06474,171.59323 C 992.06197,164.71083 1006.8904,158.81721 1019.9488,153.71728 C 1144.5841,102.36935 1097.977,127.17324 1245.433,49.022999 C 1248.8989,48.829499 1186.7295,98.179597 1181.3254,99.008366 C 1028.7931,178.54607 1080.3685,151.19965 946.91587,205.53018 C 936.04379,209.80462 924.03775,214.5785 910.70716,219.94422 C 631.55076,309.64274 345.63619,372.18067 50.854077,329.21624 C -139.7309,299.27049 -329.08996,258.4704 -505.38657,176.29518 C -506.01196,175.91798 -498.5981,170.2491 -488.00024,162.48314 C -462.06995,145.42193 -411.44463,118.65209 -411.44463,118.65209 C -411.44463,118.65209 -411.44463,118.65209 -411.44463,118.65209"
         style="opacity:1;color:#000000;fill:#050606;fill-opacity:1;fill-rule:nonzero;stroke:none;stroke-width:3;stroke-linecap:round;stroke-linejoin:round;marker:none;marker-start:none;marker-mid:none;marker-end:none;stroke-miterlimit:4;stroke-dasharray:none;stroke-dashoffset:0;stroke-opacity:1;visibility:visible;display:inline;overflow:visible;enable-background:accumulate" />
      <path
         id="path9458"
         d="M -382.96852,79.325022 C -222.24052,177.45411 -38.771008,219.42668 143.36373,251.54829 C 433.14765,297.59213 717.80669,240.93196 994.99341,161.2906 C 1011.8406,155.1156 1026.7353,149.82477 1040.0362,145.24319 C 1164.9677,97.055619 1130.6029,118.5159 1266.6432,47.994777 C 1273.5749,47.607777 1215.8614,92.697874 1205.0533,94.355412 C 1062.5215,166.7449 1100.4202,143.12343 969.48645,192.7467 C 958.45316,196.645 946.40058,200.98303 933.15724,205.844 C 653.48745,287.2987 368.4279,339.24728 76.80305,291.73657 C -112.11466,258.94267 -299.31108,214.41217 -473.92482,130.83629 C -475.17561,130.08189 -469.18953,124.56161 -460.33629,117.15061 C -436.99903,101.79553 -382.96852,79.325022 -382.96852,79.325022 C -382.96852,79.325022 -382.96852,79.325022 -382.96852,79.325022"
         style="opacity:1;color:#000000;fill:#050606;fill-opacity:1;fill-rule:nonzero;stroke:none;stroke-width:3;stroke-linecap:round;stroke-linejoin:round;marker:none;marker-start:none;marker-mid:none;marker-end:none;stroke-miterlimit:4;stroke-dasharray:none;stroke-dashoffset:0;stroke-opacity:1;visibility:visible;display:inline;overflow:visible;enable-background:accumulate" />
      <path
         id="path9460"
         d="M -354.49242,39.997953 C -195.33493,139.49009 -14.362659,185.21544 166.36414,219.50451 C 453.03241,269.29267 737.3901,221.39522 1014.9221,150.98796 C 1031.6192,145.52036 1046.5803,140.83233 1060.1236,136.7691 C 1185.3512,91.741887 1163.2289,109.85856 1287.8534,46.966556 C 1298.251,46.386056 1244.9933,87.216151 1228.7811,89.702458 C 1096.2498,154.94372 1120.472,135.04722 992.05702,179.96322 C 980.86254,183.48538 968.76342,187.38756 955.60733,191.74377 C 675.42414,264.95467 391.21962,306.31388 102.75202,254.25689 C -84.498425,218.61485 -269.53221,170.35394 -442.46308,85.377397 C -444.33925,84.245796 -439.78095,78.874123 -432.67233,71.818084 C -411.92811,58.169118 -354.49242,39.997953 -354.49242,39.997953 C -354.49242,39.997953 -354.49242,39.997953 -354.49242,39.997953"
         style="opacity:1;color:#000000;fill:#050606;fill-opacity:1;fill-rule:nonzero;stroke:none;stroke-width:3;stroke-linecap:round;stroke-linejoin:round;marker:none;marker-start:none;marker-mid:none;marker-end:none;stroke-miterlimit:4;stroke-dasharray:none;stroke-dashoffset:0;stroke-opacity:1;visibility:visible;display:inline;overflow:visible;enable-background:accumulate" />
      <path
         id="path9462"
         d="M -326.01631,0.67088364 C -168.42933,101.52607 10.04569,151.0042 189.36456,187.46073 C 472.91717,240.9932 756.97351,201.85849 1034.8508,140.68532 C 1051.3979,135.92512 1066.4253,131.83989 1080.211,128.29501 C 1205.7348,86.428156 1195.8548,101.20122 1309.0636,45.938334 C 1322.927,45.164334 1274.1253,81.734428 1252.5089,85.049504 C 1129.9782,143.14255 1140.5237,126.97101 1014.6276,167.17974 C 1003.2719,170.32576 991.12626,173.79209 978.05741,177.64354 C 697.36082,242.61064 414.01133,273.38048 128.701,216.77721 C -56.882187,178.28703 -239.75334,126.29571 -411.00133,39.918506 C -413.50289,38.409705 -410.37237,33.186635 -405.00838,26.485556 C -386.85718,14.542711 -326.01631,0.67088364 -326.01631,0.67088364 C -326.01631,0.67088364 -326.01631,0.67088364 -326.01631,0.67088364"
         style="opacity:1;color:#000000;fill:#050606;fill-opacity:1;fill-rule:nonzero;stroke:none;stroke-width:3;stroke-linecap:round;stroke-linejoin:round;marker:none;marker-start:none;marker-mid:none;marker-end:none;stroke-miterlimit:4;stroke-dasharray:none;stroke-dashoffset:0;stroke-opacity:1;visibility:visible;display:inline;overflow:visible;enable-background:accumulate" />
      <path
         id="path9464"
         d="M -297.54021,-38.656185 C -141.52373,63.562046 34.454039,116.79297 212.36498,155.41695 C 492.80193,212.69373 776.55692,182.32175 1054.7794,130.38269 C 1071.1765,126.32989 1086.2702,122.84745 1100.2985,119.82092 C 1226.1184,81.114424 1228.4807,92.543883 1330.2738,44.910112 C 1347.6031,43.942612 1303.2572,76.252705 1276.2367,80.39655 C 1163.7065,131.34138 1160.5754,118.8948 1037.1982,154.39626 C 1025.6813,157.16614 1013.4891,160.19662 1000.5075,163.54332 C 719.29751,220.26661 436.80304,240.44708 154.64997,179.29753 C -29.265948,137.95922 -209.97446,82.23748 -379.53958,-5.5403854 C -382.66654,-7.4263869 -380.96379,-12.500853 -377.34443,-18.846972 C -361.78626,-29.083697 -297.54021,-38.656185 -297.54021,-38.656185 C -297.54021,-38.656185 -297.54021,-38.656185 -297.54021,-38.656185"
         style="opacity:1;color:#000000;fill:#050606;fill-opacity:1;fill-rule:nonzero;stroke:none;stroke-width:3;stroke-linecap:round;stroke-linejoin:round;marker:none;marker-start:none;marker-mid:none;marker-end:none;stroke-miterlimit:4;stroke-dasharray:none;stroke-dashoffset:0;stroke-opacity:1;visibility:visible;display:inline;overflow:visible;enable-background:accumulate" />
      <path
         id="path9466"
         d="M -269.0641,-77.983255 C -114.61813,25.598023 58.862388,82.58173 235.36539,123.37317 C 512.68669,184.39426 796.14032,162.78502 1074.7081,120.08005 C 1090.9551,116.73465 1106.1152,113.855 1120.3859,111.34684 C 1246.5019,75.800693 1261.1067,83.886544 1351.484,43.88189 C 1372.2791,42.72089 1332.3891,70.770982 1299.9646,75.743597 C 1197.4349,119.54021 1180.6271,110.81858 1059.7687,141.61278 C 1048.0907,144.00652 1035.8519,146.60114 1022.9576,149.44309 C 741.2342,197.92257 459.59475,207.51369 180.59894,141.81786 C -1.6497098,97.631397 -180.19559,38.17925 -348.07783,-50.999276 C -351.83018,-53.262478 -351.55522,-58.188341 -349.68048,-64.1795 C -336.71533,-72.710104 -269.0641,-77.983255 -269.0641,-77.983255 C -269.0641,-77.983255 -269.0641,-77.983255 -269.0641,-77.983255"
         style="opacity:1;color:#000000;fill:#050606;fill-opacity:1;fill-rule:nonzero;stroke:none;stroke-width:3;stroke-linecap:round;stroke-linejoin:round;marker:none;marker-start:none;marker-mid:none;marker-end:none;stroke-miterlimit:4;stroke-dasharray:none;stroke-dashoffset:0;stroke-opacity:1;visibility:visible;display:inline;overflow:visible;enable-background:accumulate" />
      <path
         id="path9468"
         d="M -240.588,-117.31032 C -87.712536,-12.365999 83.270737,48.370494 258.36581,91.329387 C 532.57145,156.09479 815.72373,143.24828 1094.6368,109.77741 C 1110.7337,107.13942 1125.9602,104.86256 1140.4733,102.87275 C 1266.8855,70.486961 1293.7326,75.229206 1372.6942,42.853669 C 1396.9552,41.499169 1361.521,65.289259 1323.6924,71.090643 C 1231.1633,107.73904 1200.6789,102.74237 1082.3393,128.8293 C 1070.5,130.8469 1058.2148,133.00567 1045.4077,135.34286 C 763.17089,175.57854 482.38647,174.58029 206.54791,104.33818 C 25.966529,57.303579 -150.41672,-5.8789799 -316.61608,-96.458167 C -320.99383,-99.09857 -322.14664,-103.87583 -322.01652,-109.51203 C -311.64441,-116.33651 -240.588,-117.31032 -240.588,-117.31032 C -240.588,-117.31032 -240.588,-117.31032 -240.588,-117.31032"
         style="opacity:1;color:#000000;fill:#050606;fill-opacity:1;fill-rule:nonzero;stroke:none;stroke-width:3;stroke-linecap:round;stroke-linejoin:round;marker:none;marker-start:none;marker-mid:none;marker-end:none;stroke-miterlimit:4;stroke-dasharray:none;stroke-dashoffset:0;stroke-opacity:1;visibility:visible;display:inline;overflow:visible;enable-background:accumulate" />
      <path
         id="path9470"
         d="M -212.11189,-156.63739 C -60.806938,-50.330022 107.67909,14.159257 281.36622,59.285606 C 552.45622,127.79533 835.30714,123.71154 1114.5654,99.474778 C 1130.5124,97.544179 1145.8051,95.870118 1160.5607,94.398657 C 1287.2691,65.17323 1326.3586,66.571867 1393.9043,41.825447 C 1421.6312,40.277447 1390.6529,59.807536 1347.4202,66.437689 C 1264.8916,95.937867 1220.7306,94.66616 1104.9099,116.04583 C 1092.9094,117.68728 1080.5776,119.4102 1067.8578,121.24264 C 785.10758,153.23451 505.17818,141.64689 232.49689,66.8585 C 53.582767,16.97576 -120.63784,-49.93721 -285.15433,-141.91706 C -290.15747,-144.93466 -292.73806,-149.56332 -294.35257,-154.84456 C -286.57348,-159.96292 -212.11189,-156.63739 -212.11189,-156.63739 C -212.11189,-156.63739 -212.11189,-156.63739 -212.11189,-156.63739"
         style="opacity:1;color:#000000;fill:#050606;fill-opacity:1;fill-rule:nonzero;stroke:none;stroke-width:3;stroke-linecap:round;stroke-linejoin:round;marker:none;marker-start:none;marker-mid:none;marker-end:none;stroke-miterlimit:4;stroke-dasharray:none;stroke-dashoffset:0;stroke-opacity:1;visibility:visible;display:inline;overflow:visible;enable-background:accumulate" />
      <path
         id="path9472"
         d="M -183.63579,-195.96446 C -33.90134,-88.294045 132.08743,-20.05198 304.36664,27.241826 C 572.34098,99.495857 854.89055,104.17481 1134.4941,89.172142 C 1150.291,87.948942 1165.6501,86.877676 1180.6482,85.924568 C 1307.6526,59.859499 1358.9845,57.914529 1415.1145,40.797225 C 1446.3073,39.055725 1419.7848,54.325814 1371.148,61.784735 C 1298.62,84.136695 1240.7823,86.589948 1127.4805,103.26235 C 1115.3188,104.52766 1102.9404,105.81473 1090.3078,107.14241 C 807.04427,130.89048 527.96989,108.71349 258.44586,29.378823 C 81.199005,-23.352059 -90.858968,-93.99544 -253.69259,-187.37595 C -259.32111,-190.77075 -263.32948,-195.2508 -266.68862,-200.17708 C -261.50256,-203.58933 -183.63579,-195.96446 -183.63579,-195.96446 C -183.63579,-195.96446 -183.63579,-195.96446 -183.63579,-195.96446"
         style="opacity:1;color:#000000;fill:#050606;fill-opacity:1;fill-rule:nonzero;stroke:none;stroke-width:3;stroke-linecap:round;stroke-linejoin:round;marker:none;marker-start:none;marker-mid:none;marker-end:none;stroke-miterlimit:4;stroke-dasharray:none;stroke-dashoffset:0;stroke-opacity:1;visibility:visible;display:inline;overflow:visible;enable-background:accumulate" />
      <path
         id="path9474"
         d="M -155.15968,-235.29153 C -6.9957427,-126.25807 156.49578,-54.263216 327.36706,-4.8019546 C 592.22574,71.196389 874.47396,84.638074 1154.4228,78.869505 C 1170.0696,78.353706 1185.495,77.885233 1200.7356,77.450479 C 1328.0362,54.545767 1391.6104,49.25719 1436.3247,39.769003 C 1470.9833,37.834003 1448.9168,48.844091 1394.8759,57.131781 C 1332.3483,72.335524 1260.8341,78.513736 1150.051,90.478869 C 1137.7281,91.368043 1125.3033,92.219261 1112.7579,93.042182 C 828.98096,108.54644 550.7616,75.780097 284.39483,-8.1008548 C 108.81524,-63.679878 -61.080095,-138.05367 -222.23084,-232.83484 C -228.48476,-236.60684 -233.92091,-240.93829 -239.02466,-245.50961 C -236.43163,-247.21573 -155.15968,-235.29153 -155.15968,-235.29153 C -155.15968,-235.29153 -155.15968,-235.29153 -155.15968,-235.29153"
         style="opacity:1;color:#000000;fill:#050606;fill-opacity:1;fill-rule:nonzero;stroke:none;stroke-width:3;stroke-linecap:round;stroke-linejoin:round;marker:none;marker-start:none;marker-mid:none;marker-end:none;stroke-miterlimit:4;stroke-dasharray:none;stroke-dashoffset:0;stroke-opacity:1;visibility:visible;display:inline;overflow:visible;enable-background:accumulate" />
      <path
         id="path9476"
         d="M -124.68358,-286.6186 C 21.909855,-176.22209 180.90413,-88.474453 350.36747,-36.845735 C 612.1105,42.896921 894.05737,65.101338 1174.3515,68.566869 C 1189.8483,68.75847 1205.34,68.892791 1220.823,68.97639 C 1348.4197,49.232036 1424.2364,40.599852 1457.5349,38.740781 C 1495.6594,36.612282 1478.0487,43.362368 1418.6037,52.478827 C 1366.0767,60.534353 1280.8858,70.437523 1172.6216,77.69539 C 1160.1375,78.208423 1147.6661,78.62379 1135.208,78.941955 C 850.91764,86.202411 573.55332,42.8467 310.3438,-45.580532 C 136.43148,-104.0077 -31.301221,-182.1119 -190.76909,-278.29373 C -197.6484,-282.44294 -204.51233,-286.62578 -211.36071,-290.84214 C -211.36071,-290.84214 -137.68358,-291.6186 -137.68358,-291.6186 C -137.68358,-291.6186 -127.68358,-295.6186 -127.68358,-295.6186"
         style="opacity:1;color:#000000;fill:#050606;fill-opacity:1;fill-rule:nonzero;stroke:none;stroke-width:3;stroke-linecap:round;stroke-linejoin:round;marker:none;marker-start:none;marker-mid:none;marker-end:none;stroke-miterlimit:4;stroke-dasharray:none;stroke-dashoffset:0;stroke-opacity:1;visibility:visible;display:inline;overflow:visible;enable-background:accumulate"
         sodipodi:nodetypes="csscsscsssccc" />
    </g>
  </g>
  <g
     inkscape:label="Layer 1"
     inkscape:groupmode="layer"
     id="layer1" />
</svg>
