<?xml version="1.0" encoding="UTF-8" standalone="no"?>
<!-- Created with Inkscape (http://www.inkscape.org/) -->

<svg
   xmlns:dc="http://purl.org/dc/elements/1.1/"
   xmlns:cc="http://creativecommons.org/ns#"
   xmlns:rdf="http://www.w3.org/1999/02/22-rdf-syntax-ns#"
   xmlns:svg="http://www.w3.org/2000/svg"
   xmlns="http://www.w3.org/2000/svg"
   xmlns:sodipodi="http://sodipodi.sourceforge.net/DTD/sodipodi-0.dtd"
   xmlns:inkscape="http://www.inkscape.org/namespaces/inkscape"
   width="187.83249"
   height="87.045418"
   viewBox="0 0 187.83249 87.045418"
   id="svg3700"
   version="1.1"
   inkscape:version="0.91 r13725"
   sodipodi:docname="distributor.svg">
  <defs
     id="defs3702" />
  <sodipodi:namedview
     id="base"
     pagecolor="#000000"
     bordercolor="#666666"
     borderopacity="1.0"
     inkscape:pageopacity="0.0"
     inkscape:pageshadow="2"
     inkscape:zoom="3.1709677"
     inkscape:cx="127"
     inkscape:cy="27"
     inkscape:document-units="px"
     inkscape:current-layer="layer1"
     showgrid="false"
     units="px"
     width="640px"
     inkscape:showpageshadow="false"
     showborder="true"
     inkscape:window-width="1366"
     inkscape:window-height="704"
     inkscape:window-x="0"
     inkscape:window-y="27"
     inkscape:window-maximized="1"
     fit-margin-top="0"
     fit-margin-left="0"
     fit-margin-right="0"
     fit-margin-bottom="0" />
  <metadata
     id="metadata3705">
    <rdf:RDF>
      <cc:Work
         rdf:about="">
        <dc:format>image/svg+xml</dc:format>
        <dc:type
           rdf:resource="http://purl.org/dc/dcmitype/StillImage" />
        <dc:title />
      </cc:Work>
    </rdf:RDF>
  </metadata>
  <g
     inkscape:label="Calque 1"
     inkscape:groupmode="layer"
     id="layer1"
     transform="translate(-220.36947,-934.55378)">
    <g
       id="g36490"
       transform="matrix(2.1430496,0,0,-2.1430496,-573.73174,1751.811)">
      <path
         inkscape:connector-curvature="0"
         id="path35667"
         style="fill:#ffffff;fill-opacity:1;fill-rule:nonzero;stroke:none"
         d="m 397.6348,351.4166 c -0.057,0.008 -6.185,0.898 -6.244,0.907 -1.076,0.17 -1.619,0.698 -1.619,1.573 0,0.875 0.751,1.369 1.372,1.369 l 10.123,0 0,3.781 -10.1,0 c -3.206,0 -5.419,-2.436 -5.419,-5.15 0,-2.375 1.426,-4.833 4.689,-5.337 0.057,-0.009 6.186,-0.898 6.245,-0.907 1.075,-0.168 1.62,-0.699 1.62,-1.573 0,-0.874 -0.753,-1.368 -1.376,-1.368 l -7.396,0 0,-0.004 c -1.499,-0.045 -3.076,-1.193 -3.076,-3.443 l 0,-0.335 10.453,0 c 3.204,0 5.417,2.436 5.417,5.15 0,2.375 -1.424,4.834 -4.689,5.337 m 53.718,3.849 c 1.5,0.044 3.077,1.196 3.077,3.447 l 0,0.334 -10.95,0 c -3.206,0 -5.418,-2.436 -5.418,-5.15 l 0,-7.817 c 0,-2.714 2.212,-5.15 5.418,-5.15 l 10.95,0 0,0.335 c 0,2.25 -1.577,3.398 -3.076,3.443 l 0,0.004 -7.896,0 c -0.62,0 -1.374,0.494 -1.374,1.368 0,0.874 0.574,1.573 1.621,1.573 l 3.42,0 c 3.012,0.02 4.747,1.865 5.292,3.972 l -8.229,0 c -1.481,0 -2.103,-1.174 -2.103,-1.174 l 0,3.446 c 0,0.875 0.751,1.369 1.373,1.369 l 7.895,0 z m 5.492,-12.885 c 0,-0.1 -0.072,-0.171 -0.205,-0.171 l -0.265,0 0,0.346 0.259,0 c 0.13,0 0.211,-0.059 0.211,-0.175 m 0.266,0.016 c 0,0.244 -0.183,0.389 -0.468,0.389 l -0.531,0 0,-1.178 0.263,0 0,0.379 0.209,0 0.254,-0.379 0.307,0 -0.291,0.422 c 0.152,0.054 0.257,0.174 0.257,0.367 m 0.457,-0.23 c 0,-0.544 -0.43,-0.988 -0.997,-0.988 -0.565,0 -0.989,0.438 -0.989,0.982 0,0.545 0.427,0.987 0.996,0.987 0.565,0 0.99,-0.437 0.99,-0.981 m 0.258,10e-4 c 0,0.674 -0.547,1.23 -1.248,1.23 -0.702,0 -1.256,-0.562 -1.256,-1.237 0,-0.676 0.548,-1.231 1.249,-1.231 0.702,0 1.255,0.563 1.255,1.238 m -42.439,16.886 0,-10.777 c 0,-2.252 -1.825,-4.076 -4.074,-4.076 -2.252,0 -4.076,1.824 -4.076,4.076 l 0,10.777 -3.925,0 0,-10.551 c 0,-4.419 3.582,-8.001 8.001,-8.001 4.417,0 7.998,3.582 7.998,8.001 l 0,10.551 -3.924,0 z m 21.642,-12.974 c 0,-2.714 -2.212,-5.15 -5.417,-5.15 l -10.099,0 0,3.782 10.12,0 c 0.621,0 1.374,0.494 1.374,1.368 0,0.874 -0.544,1.405 -1.621,1.573 -0.057,0.009 -6.185,0.898 -6.243,0.907 -3.265,0.504 -4.689,2.962 -4.689,5.337 0,2.714 2.212,5.15 5.418,5.15 l 10.1,0 0,-3.781 -10.122,0 c -0.621,0 -1.374,-0.494 -1.374,-1.369 0,-0.875 0.547,-1.403 1.62,-1.573 0.059,-0.009 6.187,-0.899 6.244,-0.907 3.264,-0.503 4.689,-2.962 4.689,-5.337" />
      <path
         inkscape:connector-curvature="0"
         id="path35671"
         style="fill:#4cbe51;fill-opacity:1;fill-rule:nonzero;stroke:none"
         d="m 412.5642,374.6478 c 0.028,0.792 0.36,1.526 0.94,2.065 0.577,0.542 1.333,0.821 2.125,0.795 1.636,-0.059 2.917,-1.436 2.863,-3.07 -0.03,-0.79 -0.361,-1.523 -0.941,-2.064 -0.576,-0.542 -1.332,-0.821 -2.126,-0.794 -1.633,0.059 -2.915,1.435 -2.861,3.068 m -4.759,5.731 c 0,0 -0.026,-1.438 -0.029,-1.598 -0.708,0.236 -5.855,1.898 -10.679,2.067 -4.091,0.144 -9.677,0.339 -17.572,-4.513 l -0.233,-0.146 c -3.713,-2.317 -6.277,-5.173 -7.617,-8.493 -0.421,-1.045 -0.987,-3.402 -0.427,-5.618 0.242,-0.971 0.693,-1.944 1.3,-2.816 1.371,-1.969 3.672,-3.277 6.15,-3.498 3.498,-0.312 6.149,1.26 7.09,4.201 0.65,2.031 0,5.009 -2.483,6.529 -2.019,1.238 -4.194,0.955 -5.452,0.123 -1.094,-0.725 -1.714,-1.851 -1.703,-3.089 0.025,-2.194 1.915,-3.361 3.274,-3.363 0.395,0 0.792,0.067 1.24,0.214 0.159,0.049 0.308,0.108 0.473,0.21 l 0.052,0.033 0.033,0.019 -0.013,-0.005 c 0.31,0.208 0.5,0.552 0.5,0.919 0,0.102 -0.017,0.204 -0.045,0.308 -0.16,0.553 -0.708,0.891 -1.278,0.786 l -0.076,-0.015 -0.105,-0.035 -0.151,-0.05 c -0.312,-0.079 -0.548,-0.085 -0.597,-0.085 -0.161,0.01 -0.944,0.244 -0.944,1.103 l 0,0.009 c 0.003,0.315 0.129,0.535 0.198,0.656 0.243,0.381 0.909,0.756 1.81,0.677 1.181,-0.102 2.033,-0.707 2.597,-1.849 0.525,-1.064 0.387,-2.37 -0.352,-3.328 -0.736,-0.951 -2.043,-1.353 -3.783,-1.165 -1.754,0.193 -3.237,1.202 -4.068,2.775 -0.812,1.534 -0.857,3.357 -0.116,4.756 1.777,3.351 5.13,3.318 6.969,3 2.612,-0.452 6.575,-2.795 8.062,-8.22 l 3.616,0 c -0.447,1.384 -0.705,5.387 3.366,5.387 4.463,0 5.027,-3.143 6.291,-5.387 l 3.831,0 c -1.008,1.443 -1.716,3.049 -1.492,4.399 0.33,1.993 1.918,1.814 4.112,1.564 0.716,-0.081 1.533,-0.175 2.378,-0.194 2.355,-0.015 4.491,0.419 6.056,1.103 1.013,0.443 1.659,0.735 2.064,1.102 0.146,0.12 0.222,0.318 0.299,0.527 l 0.054,0.14 c 0.067,0.169 0.153,0.532 0.203,0.726 0.104,0.4 -0.25,0.188 -0.25,0.188 -0.685,-0.412 -2.405,-1.197 -4.012,-1.229 -1.992,-0.04 -6.006,2.004 -6.425,2.222 l -0.04,0.047 c -0.101,0.24 -0.703,1.665 -0.831,1.966 2.891,-1.904 5.287,-2.956 7.122,-3.119 2.043,-0.182 3.636,0.933 4.316,1.408 0.072,0.049 0.343,0.231 0.279,0.45 -0.267,0.928 -1.183,4.036 -1.946,4.825 -0.223,0.229 -0.401,0.452 -0.763,0.663 -2.921,1.702 -9.851,2.73 -10.176,2.777 0,0 -0.08,0.02 -0.077,-0.064" />
      <path
         inkscape:connector-curvature="0"
         id="path35675"
         style="fill:#4cbe51;fill-opacity:1;fill-rule:nonzero;stroke:none"
         d="m 415.9442,374.373 c -0.509,0 -0.917,0.275 -0.917,0.612 0,0.338 0.408,0.612 0.917,0.612 0.507,0 0.918,-0.274 0.918,-0.612 0,-0.337 -0.411,-0.612 -0.918,-0.612 m -0.34,2.261 c -0.552,0.022 -1.077,-0.175 -1.479,-0.552 -0.403,-0.377 -0.639,-0.887 -0.656,-1.44 -0.037,-1.141 0.856,-2.101 1.995,-2.143 0.554,-0.017 1.079,0.18 1.484,0.554 0.405,0.379 0.638,0.89 0.654,1.44 0.039,1.143 -0.856,2.102 -1.998,2.141" />
    </g>
  </g>
</svg>
