<?xml version="1.0" encoding="UTF-8" standalone="no"?>
<!-- Created with Inkscape (http://www.inkscape.org/) -->

<svg
   xmlns:dc="http://purl.org/dc/elements/1.1/"
   xmlns:cc="http://creativecommons.org/ns#"
   xmlns:rdf="http://www.w3.org/1999/02/22-rdf-syntax-ns#"
   xmlns:svg="http://www.w3.org/2000/svg"
   xmlns="http://www.w3.org/2000/svg"
   xmlns:sodipodi="http://sodipodi.sourceforge.net/DTD/sodipodi-0.dtd"
   xmlns:inkscape="http://www.inkscape.org/namespaces/inkscape"
   width="187.83249"
   height="87.045418"
   viewBox="0 0 187.83249 87.045418"
   id="svg3700"
   version="1.1"
   inkscape:version="0.91 r13725"
   sodipodi:docname="distributor.svg">
  <defs
     id="defs3702" />
  <sodipodi:namedview
     id="base"
     pagecolor="#000000"
     bordercolor="#666666"
     borderopacity="1.0"
     inkscape:pageopacity="0.0"
     inkscape:pageshadow="2"
     inkscape:zoom="0.35"
     inkscape:cx="154.63053"
     inkscape:cy="483.52275"
     inkscape:document-units="px"
     inkscape:current-layer="layer1"
     showgrid="false"
     units="px"
     width="640px"
     inkscape:showpageshadow="false"
     showborder="true"
     inkscape:window-width="1366"
     inkscape:window-height="704"
     inkscape:window-x="0"
     inkscape:window-y="27"
     inkscape:window-maximized="1"
     fit-margin-top="0"
     fit-margin-left="0"
     fit-margin-right="0"
     fit-margin-bottom="0" />
  <metadata
     id="metadata3705">
    <rdf:RDF>
      <cc:Work
         rdf:about="">
        <dc:format>image/svg+xml</dc:format>
        <dc:type
           rdf:resource="http://purl.org/dc/dcmitype/StillImage" />
        <dc:title></dc:title>
      </cc:Work>
    </rdf:RDF>
  </metadata>
  <g
     inkscape:label="Calque 1"
     inkscape:groupmode="layer"
     id="layer1"
     transform="translate(-220.36947,-934.55378)">
    <g
       transform="translate(-67.797045,864.5542)"
       id="g262">
      <g
         id="g264">
        <path
           style="fill:#ffffff"
           inkscape:connector-curvature="0"
           d="m 430.398,145.021 c 0,5.85 -4.769,11.103 -11.672,11.103 -0.212,0 -21.757,0 -21.757,0 l 0,-8.15 21.801,0 c 1.336,0 2.959,-1.062 2.959,-2.953 0,-1.878 -1.172,-3.023 -3.494,-3.389 -0.125,-0.021 -13.328,-1.933 -13.446,-1.955 -7.034,-1.083 -10.106,-6.378 -10.106,-11.489 0,-5.85 4.77,-11.102 11.678,-11.102 0.21,0 21.76,0 21.76,0 l 0,8.141 -21.812,0 c -1.334,0 -2.953,1.069 -2.953,2.961 0,1.876 1.172,3.017 3.488,3.383 0.127,0.021 13.33,1.933 13.449,1.953 7.034,1.085 10.105,6.385 10.105,11.497 z m -46.631,-27.95 0,23.219 c 0,4.85 -3.928,8.781 -8.774,8.781 -4.854,0 -8.784,-3.931 -8.784,-8.781 l 0,-23.219 -8.453,0 0,22.733 c 0,9.521 7.716,17.241 17.237,17.241 9.516,0 17.231,-7.72 17.231,-17.241 l 0,-22.733 -8.457,0 z m 92.232,36.129 c 0,-1.597 -1.303,-2.919 -2.963,-2.919 -1.666,0 -2.979,1.328 -2.979,2.931 0,1.603 1.307,2.919 2.963,2.919 1.663,0 2.979,-1.336 2.979,-2.931 z m -0.619,0 c 0,1.286 -1.02,2.334 -2.359,2.334 -1.344,0 -2.346,-1.034 -2.346,-2.322 0,-1.293 1.012,-2.34 2.361,-2.34 1.338,0 2.344,1.04 2.344,2.328 z m -1.084,-0.551 c 0,-0.575 -0.426,-0.92 -1.107,-0.92 l -1.25,0 0,2.792 0.619,0 0,-0.9 0.49,0 0.607,0.9 0.725,0 -0.688,-1 c 0.358,-0.125 0.604,-0.414 0.604,-0.872 z m -0.629,0.044 c 0,0.231 -0.168,0.406 -0.487,0.406 l -0.622,0 0,-0.828 0.613,0 c 0.303,0 0.496,0.141 0.496,0.422 z m -12.412,-27.465 c 3.232,-0.09 6.635,-2.572 6.635,-7.425 0,-0.203 0,-0.45 0,-0.716 l -23.596,0 c -6.908,0 -11.672,5.251 -11.672,11.102 l 0,0 c 0,0 0,16.749 0,16.833 0,5.85 4.77,11.103 11.672,11.103 0.214,0 23.596,0 23.596,0 0,-0.269 0,-0.514 0,-0.725 0,-4.852 -3.402,-7.327 -6.635,-7.418 l 0,-0.006 -17.006,0 c -1.335,0 -2.963,-1.062 -2.963,-2.953 0,-1.878 1.237,-3.389 3.496,-3.389 2.25,0 7.234,0 7.369,0 6.484,-0.042 10.225,-4.014 11.4,-8.558 l -17.729,0 c -3.19,0 -4.537,2.531 -4.537,2.531 l 0,-7.417 c 0,-1.892 1.619,-2.961 2.963,-2.961 l 17.007,0 z m -115.734,8.296 c -0.125,-0.02 -13.322,-1.933 -13.456,-1.953 -2.312,-0.366 -3.488,-1.506 -3.488,-3.383 0,-1.892 1.625,-2.961 2.957,-2.961 l 21.815,0 0,-8.141 c 0,0 -21.554,0 -21.763,0 -6.906,0 -11.675,5.251 -11.675,11.102 0,5.111 3.071,10.406 10.1,11.489 0.125,0.022 13.331,1.934 13.456,1.955 2.322,0.366 3.488,1.511 3.488,3.389 0,1.891 -1.622,2.953 -2.966,2.953 l -15.935,0 0,0.006 c -3.225,0.092 -6.628,2.567 -6.628,7.418 0,0.211 0,0.457 0,0.725 0,0 22.443,0 22.528,0 6.906,0 11.662,-5.253 11.662,-11.103 0.001,-5.111 -3.064,-10.411 -10.095,-11.496 z"
           id="path266" />
      </g>
      <g
         id="g268">
        <path
           style="fill:#7ac143"
           inkscape:connector-curvature="0"
           d="m 367.43,71.125 c 0,0 -0.057,3.1 -0.057,3.444 -1.521,-0.509 -12.612,-4.091 -23.016,-4.457 -8.809,-0.306 -20.844,-0.728 -37.849,9.729 l -0.503,0.312 c -8.007,4.994 -13.529,11.145 -16.413,18.3 -0.913,2.25 -2.124,7.328 -0.922,12.103 0.522,2.091 1.497,4.181 2.806,6.066 2.95,4.24 7.906,7.059 13.244,7.537 7.538,0.669 13.247,-2.712 15.282,-9.048 1.394,-4.379 0,-10.792 -5.351,-14.07 -4.353,-2.664 -9.041,-2.059 -11.753,-0.266 -2.353,1.567 -3.688,3.986 -3.666,6.658 0.05,4.724 4.126,7.236 7.052,7.246 0.854,0 1.713,-0.147 2.673,-0.459 0.344,-0.109 0.662,-0.233 1.021,-0.459 l 0.112,-0.069 0.072,-0.042 -0.028,0.014 c 0.666,-0.453 1.072,-1.188 1.072,-1.981 0,-0.219 -0.031,-0.438 -0.094,-0.659 -0.347,-1.199 -1.528,-1.922 -2.757,-1.691 l -0.162,0.028 -0.225,0.07 -0.328,0.111 c -0.668,0.17 -1.178,0.181 -1.288,0.181 -0.341,-0.021 -2.038,-0.525 -2.038,-2.373 l 0,-0.021 c 0.016,-0.675 0.281,-1.153 0.434,-1.414 0.522,-0.823 1.963,-1.63 3.897,-1.455 2.547,0.217 4.378,1.519 5.597,3.978 1.125,2.294 0.841,5.109 -0.759,7.172 -1.585,2.047 -4.4,2.919 -8.147,2.511 -3.781,-0.414 -6.978,-2.587 -8.769,-5.977 -1.747,-3.305 -1.847,-7.231 -0.244,-10.25 3.827,-7.219 11.053,-7.145 15.009,-6.461 5.635,0.974 14.169,6.023 17.375,17.702 l 7.787,0 c -0.965,-2.973 -1.516,-11.6 7.25,-11.6 9.619,0 10.828,6.772 13.557,11.6 l 8.25,0 c -2.166,-3.103 -3.693,-6.562 -3.209,-9.47 0.712,-4.295 4.126,-3.908 8.853,-3.374 1.546,0.181 3.31,0.378 5.119,0.42 5.088,0.03 9.684,-0.901 13.059,-2.376 2.182,-0.953 3.569,-1.582 4.444,-2.375 0.315,-0.256 0.478,-0.685 0.647,-1.131 l 0.118,-0.303 c 0.141,-0.366 0.321,-1.145 0.433,-1.565 0.224,-0.864 -0.542,-0.405 -0.542,-0.405 -1.472,0.889 -5.179,2.577 -8.644,2.646 -4.287,0.09 -12.938,-4.316 -13.838,-4.783 l -0.087,-0.103 c -0.223,-0.516 -1.516,-3.589 -1.791,-4.237 6.225,4.104 11.388,6.37 15.341,6.72 4.402,0.394 7.834,-2.013 9.297,-3.031 0.162,-0.108 0.744,-0.5 0.604,-0.969 -0.572,-2 -2.545,-8.7 -4.191,-10.398 -0.479,-0.495 -0.862,-0.974 -1.641,-1.425 -6.293,-3.667 -21.227,-5.886 -21.928,-5.986 0.004,-0.003 -0.168,-0.047 -0.165,0.135 z m 10.253,12.346 c 0.065,-1.703 0.781,-3.284 2.035,-4.447 1.24,-1.168 2.868,-1.77 4.568,-1.714 3.531,0.126 6.291,3.095 6.175,6.617 -0.065,1.703 -0.784,3.281 -2.024,4.445 -1.244,1.164 -2.879,1.77 -4.585,1.711 -3.525,-0.127 -6.279,-3.09 -6.169,-6.612 z"
           id="path270" />
        <path
           style="fill:#7ac143"
           inkscape:connector-curvature="0"
           d="m 384.235,79.195 c -1.189,-0.052 -2.314,0.376 -3.184,1.189 -0.872,0.81 -1.379,1.91 -1.416,3.103 -0.078,2.457 1.844,4.528 4.301,4.614 1.193,0.038 2.324,-0.386 3.196,-1.19 0.872,-0.82 1.372,-1.92 1.415,-3.105 0.077,-2.463 -1.852,-4.528 -4.312,-4.611 z m 0.733,4.873 c -1.088,0 -1.973,-0.597 -1.973,-1.32 0,-0.73 0.885,-1.32 1.973,-1.32 1.094,0 1.98,0.59 1.98,1.32 0,0.723 -0.886,1.32 -1.98,1.32 z"
           id="path272" />
      </g>
    </g>
  </g>
</svg>
