<?xml version="1.0" encoding="utf-8"?>
<!-- Generator: Adobe Illustrator 24.3.0, SVG Export Plug-In . SVG Version: 6.00 Build 0)  -->
<svg version="1.1" id="Layer_1" xmlns="http://www.w3.org/2000/svg" xmlns:xlink="http://www.w3.org/1999/xlink" x="0px" y="0px"
	 viewBox="0 0 270 90" style="enable-background:new 0 0 270 90;" xml:space="preserve">
<style type="text/css">
	.st0{fill:#FFFFFF;}
	.st1{fill:#30BA78;}
</style>
<g id="Layer_1_1_">
	<g>
		<path class="st0" d="M249.16588,63.0358c-4.17325,0-7.56902-3.39449-7.56902-7.56773V33.03419
			c0-4.17324,3.39577-7.57027,7.56902-7.57027h17.22017c1.34915,0,2.44681,1.09762,2.44681,2.44551
			s-1.09766,2.44424-2.44681,2.44424h-17.22017c-1.4762,0-2.67673,1.20306-2.67673,2.68053v8.82924h16.88863
			c1.27802,0,2.3172,1.04045,2.3172,2.31847c0,1.27802-1.03918,2.3172-2.3172,2.3172h-16.88863v8.96898
			c0,1.47746,1.20053,2.67672,2.67673,2.67672h17.22017c1.34915,0,2.44681,1.09889,2.44681,2.44677
			c0,1.34916-1.09766,2.44424-2.44681,2.44424H249.16588z M171.94884,63.52998c-4.96599,0-8.79114-1.26022-11.37004-3.74765
			c-2.57635-2.48235-3.88231-6.21731-3.88231-11.10197V27.81034c0-1.56386,1.27039-2.83552,2.83298-2.83552
			c1.56384,0,2.83551,1.27167,2.83551,2.83552v20.12175c0,3.65493,0.78764,6.39516,2.34134,8.14068
			c1.56133,1.75822,3.99666,2.64877,7.24252,2.64877c3.2433,0,5.6812-0.89054,7.24249-2.64877
			c1.55243-1.74679,2.33881-4.48576,2.33881-8.14068V27.81034c0-1.56386,1.27293-2.83552,2.83679-2.83552
			s2.83551,1.27167,2.83551,2.83552v20.87002c0,4.88213-1.3085,8.61708-3.88612,11.10197
			C180.73741,62.26976,176.91479,63.52998,171.94884,63.52998 M214.54002,63.52998c-6.39388,0-11.26584-1.81666-14.47485-5.39917
			c-0.92867-1.03664-0.87022-2.63606,0.13466-3.63968l0.01016-0.01143l0.01018-0.01017
			c0.50943-0.50562,1.18527-0.78256,1.90431-0.78256c0.76096,0,1.47748,0.32395,1.96912,0.89309
			c0.89435,1.03283,1.91702,1.87383,3.04385,2.49759c1.96529,1.09127,4.43747,1.64389,7.34669,1.64389
			c2.76056,0,4.96342-0.48656,6.54759-1.44825c1.6312-0.98582,2.45949-2.4074,2.45949-4.2266
			c0-1.47112-0.74953-2.67164-2.22827-3.56345c-1.4381-0.86514-3.86455-1.60831-7.4191-2.27527
			c-3.45293-0.64409-6.23634-1.44952-8.27406-2.39469c-2.01485-0.93247-3.49486-2.09742-4.40065-3.46944
			c-0.90579-1.36187-1.36441-3.05276-1.36441-5.02568c0-2.08217,0.5844-4.00555,1.73663-5.71423
			c1.15479-1.71249,2.84824-3.09341,5.03456-4.1021c2.1978-1.01377,4.79955-1.52702,7.73416-1.52702
			c3.43007,0,6.39642,0.62758,8.81781,1.86748c1.6261,0.83084,3.09848,1.97673,4.38031,3.40466
			c0.97821,1.09381,0.88673,2.78724-0.20706,3.77434c-0.49292,0.44337-1.12939,0.68728-1.79001,0.68728
			c-0.83717,0-1.61212-0.38112-2.1228-1.043c-0.72668-0.94517-1.54482-1.71503-2.43536-2.28671
			c-1.64641-1.05824-3.86072-1.59435-6.58444-1.59435c-2.68816,0-4.81099,0.54881-6.30878,1.63119
			c-1.52319,1.10143-2.29688,2.53952-2.29688,4.27106c0,1.62484,0.75717,2.92953,2.25243,3.87724
			c1.45204,0.92358,3.96616,1.69851,7.6846,2.36674c3.37416,0.60598,6.08772,1.38346,8.06699,2.30704
			c1.95642,0.91087,3.40085,2.0593,4.29013,3.41227c0.88545,1.34789,1.33391,3.04768,1.33391,5.05235
			c0,2.15459-0.61995,4.07415-1.84207,5.70534c-1.23228,1.64008-2.98286,2.91555-5.19972,3.79086
			C220.11072,63.08154,217.4848,63.52998,214.54002,63.52998 M129.63966,63.54015c-6.39644,0-11.26586-1.81793-14.47614-5.40045
			c-0.92867-1.03537-0.86896-2.63479,0.13465-3.63968l0.01525-0.01524c0.5107-0.50816,1.18909-0.78764,1.91068-0.78764
			c0.76224,0,1.48,0.32522,1.96783,0.89309c0.89182,1.03156,1.91449,1.87256,3.04259,2.49759
			c1.96658,1.09254,4.43876,1.64516,7.34795,1.64516c2.75931,0,4.96216-0.48656,6.54889-1.44825
			c1.63118-0.98583,2.45821-2.4074,2.45821-4.22533c0-1.47366-0.75079-2.67164-2.22826-3.56345
			c-1.43938-0.86768-3.8671-1.61213-7.42038-2.27909c-3.45166-0.64281-6.23509-1.44952-8.27407-2.39215
			c-2.01357-0.93374-3.49612-2.10123-4.40064-3.46944c-0.90452-1.36313-1.36314-3.05402-1.36314-5.02568
			c0-2.08344,0.58438-4.00428,1.73536-5.71296c1.15479-1.71503,2.84949-3.09468,5.03584-4.10337
			c2.19524-1.0125,4.797-1.52701,7.73415-1.52701c3.43007,0,6.39771,0.62885,8.81654,1.86748
			c1.62863,0.83211,3.10101,1.978,4.37903,3.40466c0.98074,1.09381,0.88675,2.7847-0.20453,3.77307
			c-0.4929,0.44337-1.12936,0.68728-1.79126,0.68728c-0.83719,0-1.61084-0.37985-2.12155-1.04172
			c-0.72285-0.9439-1.54478-1.71503-2.43533-2.28798c-1.64771-1.05951-3.86201-1.59561-6.58444-1.59561
			c-2.68944,0-4.81099,0.55008-6.31133,1.63245c-1.52193,1.10525-2.29433,2.54206-2.29433,4.27107
			c0,1.62483,0.75716,2.92953,2.25113,3.87851c1.45334,0.92358,3.96617,1.69725,7.68715,2.36674
			c3.37036,0.60344,6.08517,1.37965,8.06827,2.30577c1.95642,0.91468,3.39703,2.06312,4.28632,3.411
			c0.88673,1.34662,1.33644,3.04641,1.33644,5.05489c0,2.15586-0.61995,4.07415-1.8446,5.7028
			c-1.23228,1.64135-2.98161,2.91809-5.20099,3.79339C135.20778,63.09297,132.58188,63.54015,129.63966,63.54015"/>
		<path class="st1" d="M92.44126,38.24026c-0.60597-0.62503-1.60323-0.62503-2.20794,0
			c-0.68094,0.67839-0.59962,1.84969,0.24392,2.40993c0.51577,0.34174,1.20432,0.34174,1.71883,0
			C93.03708,40.08996,93.11965,38.91866,92.44126,38.24026 M90.42262,32.93129c-4.17198-0.97693-7.91964,2.772-6.94017,6.94143
			c0.49673,2.12283,2.18381,3.80864,4.30917,4.30663c4.17197,0.98074,7.92217-2.77073,6.94016-6.9427
			C94.23124,35.11255,92.54543,33.42801,90.42262,32.93129 M62.87922,56.41705c-2.71865-1.00488-3.76926-0.80289-7.24506-0.75461
			c-2.40867,0.03049-2.49633-0.05209-5.24545-0.05209c-0.8499,0-1.16241,4.07161,1.91067,4.91769
			c1.34534,0.36969,2.79868,0.60344,3.81118,1.63754c0.44844,0.45734,0.69999,1.14844-0.33538,1.14844h-7.62999
			c-1.33518,0-2.59541,0.03049-3.61554-0.83338c-1.54099-1.30215-2.26003-3.09341-3.03115-4.87069
			c-0.80035-1.84842-1.66295-3.66889-2.67672-5.4106c-2.01484-3.46309-4.67886-6.59588-8.25247-8.51036
			c-4.46162-2.39342-12.03444-3.57997-18.03069,1.02521c-6.31894,4.85163-4.96597,13.94003,0.56152,18.3864
			c2.18253,1.75695,5.02821,2.49124,7.82562,2.32609c5.4665-0.31633,9.49746-4.34475,8.49639-9.30309
			c-0.33411-1.65913-1.30215-3.23061-2.76056-4.08686c-1.03664-0.60598-2.26638-0.82067-3.4669-0.82322
			c-1.29072-0.00381-2.66401,0.2617-3.59267,1.15987c-1.09762,1.06332-1.27548,2.94223-0.39764,4.19357
			c0.48529,0.69364,1.27548,1.27929,1.14209,2.18254c-0.09147,0.61106-0.59582,1.06585-1.19798,1.20052
			c-1.02521,0.22867-1.96403-0.35571-2.65639-1.06968c-1.77601-1.82936-2.33244-4.7411-1.35424-7.09768
			c1.27801-3.08579,4.83257-4.78303,8.1699-4.67251c4.30282,0.14482,8.35919,2.98288,10.12249,6.90967
			c1.76458,3.92933,1.23609,8.75047-1.19544,12.30503c-5.40298,7.89677-18.74592,6.96429-24.94544,0.3049
			C3.40066,62.45142,1.288,58.39759,1.584,50.84765c0.20835-5.33438,3.28651-10.59,7.21076-14.28684
			c6.39389-6.02548,14.81406-10.14536,23.38286-11.92138c5.20353-1.07602,10.57602-1.32756,15.85831-0.80035
			c4.65853,0.46242,9.28912,1.31613,13.76598,2.70213c2.22319,0.69237,4.40954,1.51558,6.52348,2.48616
			c1.86494,0.85624,4.30917,1.78998,5.76124,3.26872c0-2.67799-0.10417-5.62022-0.10417-7.66936
			c0-0.78129,0.82194-1.30978,1.52573-0.97566c3.02989,1.40633,10.20762,4.79701,14.99319,6.98589
			c6.41549,2.9308,6.86901,9.84555,7.09261,15.97647c0.00508,0.1372,0.01144,0.27822-0.04955,0.40017
			c-0.20199,0.4205-1.2831,0.30616-1.67946,0.31125c-0.76732,0.00762-1.92464,0.00254-2.69197,0.03811
			c-1.53082,0.06606-3.02226,0.03811-4.55436-0.03811c-2.8317-0.1372-5.5694-1.39997-7.40257-2.93334
			c-0.18295-0.15498-0.77494-0.32268-1.05316-0.03303c-0.28964,0.29855-0.19056,0.76605-0.0343,0.92612
			c1.05189,1.06078,2.19143,1.74679,3.51772,2.43154c1.68455,0.86514,3.52154,1.08492,5.38393,1.1929
			c1.99452,0.11815,4.00301,0.08766,5.99371-0.11561c1.66168-0.17023,2.09107-0.28456,0.45099,0.93374
			c-1.44063,1.07094-3.11119,1.8408-4.80589,2.40993c-2.43153,0.8283-4.99773,1.23609-7.56011,1.30723
			c-1.5537,0.04193-3.10738-0.03811-4.64837-0.23883c-0.79781-0.09909-1.58926-0.24392-2.38962-0.32522
			c-0.64917-0.06606-1.32248-0.18675-1.9691-0.047c-0.5882,0.12831-1.13066,0.44591-1.50034,0.92485
			c-0.50689,0.66188-0.68221,2.47854-0.38875,3.26618c0.56534,1.52574,1.80904,2.41248,3.12263,3.19504
			c1.42284,0.84608,3.29414,1.13573,3.65874,2.75294c0.07495,0.33793-2.94985,0.34682-3.29286,0.34174h-4.02587
			c0,0-2.18762,0.05209-3.04005-0.25789c-0.02668-0.00763-0.04955-0.02033-0.0775-0.0343
			c-0.46242-0.249-0.66314-0.86895-0.82066-1.339c-0.22486-0.66187-0.61868-1.32375-1.09762-2.00849
			C65.72997,58.376,64.33254,56.9557,62.87922,56.41705 M93.36484,38.55278c0,2.36039-1.91067,4.27106-4.26979,4.27106
			c-2.35785,0-4.26852-1.91067-4.26852-4.27106c0-2.35658,1.91068-4.26725,4.26852-4.26725
			C91.45417,34.28553,93.36484,36.1962,93.36484,38.55278"/>
	</g>
</g>
</svg>
