<?xml version="1.0" encoding="UTF-8" standalone="no"?>
<!-- Created with Inkscape (http://www.inkscape.org/) -->
<svg
   xmlns:dc="http://purl.org/dc/elements/1.1/"
   xmlns:cc="http://creativecommons.org/ns#"
   xmlns:rdf="http://www.w3.org/1999/02/22-rdf-syntax-ns#"
   xmlns:svg="http://www.w3.org/2000/svg"
   xmlns="http://www.w3.org/2000/svg"
   xmlns:xlink="http://www.w3.org/1999/xlink"
   xmlns:sodipodi="http://sodipodi.sourceforge.net/DTD/sodipodi-0.dtd"
   xmlns:inkscape="http://www.inkscape.org/namespaces/inkscape"
   width="48px"
   height="48px"
   id="svg2293"
   sodipodi:version="0.32"
   inkscape:version="0.45+devel"
   sodipodi:docbase="/home/jimmac/gfx/ximian/tango-icon-theme/scalable/apps"
   sodipodi:docname="suse-help.svg"
   inkscape:output_extension="org.inkscape.output.svg.inkscape">
  <defs
     id="defs3">
    <linearGradient
       id="linearGradient3924">
      <stop
         style="stop-color:#85d72a;stop-opacity:1.0000000;"
         offset="0.0000000"
         id="stop3926" />
      <stop
         style="stop-color:#3e6514;stop-opacity:1.0000000;"
         offset="1.0000000"
         id="stop3928" />
    </linearGradient>
    <linearGradient
       id="linearGradient3942">
      <stop
         style="stop-color:#b3b3b3;stop-opacity:1.0000000;"
         offset="0.0000000"
         id="stop3944" />
      <stop
         style="stop-color:#535353;stop-opacity:1.0000000;"
         offset="1.0000000"
         id="stop3946" />
    </linearGradient>
    <linearGradient
       id="linearGradient3914">
      <stop
         style="stop-color:#ffffff;stop-opacity:1;"
         offset="0"
         id="stop3916" />
      <stop
         style="stop-color:#ffffff;stop-opacity:1.0000000;"
         offset="0.28787878"
         id="stop4076" />
      <stop
         style="stop-color:#cdcdcd;stop-opacity:1.0000000;"
         offset="0.61157024"
         id="stop4074" />
      <stop
         style="stop-color:#ffffff;stop-opacity:1.0000000;"
         offset="1.0000000"
         id="stop3918" />
    </linearGradient>
    <linearGradient
       inkscape:collect="always"
       id="linearGradient3223">
      <stop
         style="stop-color:#000000;stop-opacity:1;"
         offset="0"
         id="stop3225" />
      <stop
         style="stop-color:#000000;stop-opacity:0;"
         offset="1"
         id="stop3227" />
    </linearGradient>
    <linearGradient
       inkscape:collect="always"
       id="linearGradient3640">
      <stop
         style="stop-color:#ffffff;stop-opacity:1;"
         offset="0"
         id="stop3642" />
      <stop
         style="stop-color:#ffffff;stop-opacity:0;"
         offset="1"
         id="stop3644" />
    </linearGradient>
    <radialGradient
       gradientUnits="userSpaceOnUse"
       fy="18.3291"
       fx="18.1523"
       r="3.5495"
       cy="18.3291"
       cx="18.1523"
       id="aigrd1">
      <stop
         id="stop1852"
         style="stop-color:#3C3C3C"
         offset="0" />
      <stop
         id="stop1854"
         style="stop-color:#3E3E3E"
         offset="0.3633" />
      <stop
         id="stop1856"
         style="stop-color:#454545"
         offset="0.4942" />
      <stop
         id="stop1858"
         style="stop-color:#505050"
         offset="0.5875" />
      <stop
         id="stop1860"
         style="stop-color:#616161"
         offset="0.6629" />
      <stop
         id="stop1862"
         style="stop-color:#777777"
         offset="0.7276" />
      <stop
         id="stop1864"
         style="stop-color:#939393"
         offset="0.7848" />
      <stop
         id="stop1866"
         style="stop-color:#B2B2B2"
         offset="0.8353" />
      <stop
         id="stop1868"
         style="stop-color:#D2D2D2"
         offset="0.8764" />
      <stop
         id="stop1870"
         style="stop-color:#CECECE"
         offset="0.8998" />
      <stop
         id="stop1872"
         style="stop-color:#C3C3C3"
         offset="0.9223" />
      <stop
         id="stop1874"
         style="stop-color:#AFAFAF"
         offset="0.9446" />
      <stop
         id="stop1876"
         style="stop-color:#949494"
         offset="0.9666" />
      <stop
         id="stop1878"
         style="stop-color:#717171"
         offset="0.9884" />
      <stop
         id="stop1880"
         style="stop-color:#5B5B5B"
         offset="1" />
    </radialGradient>
    <radialGradient
       gradientUnits="userSpaceOnUse"
       fy="18.3291"
       fx="5.7334"
       r="3.5495"
       cy="18.3291"
       cx="5.7334"
       id="aigrd2">
      <stop
         id="stop1887"
         style="stop-color:#3C3C3C"
         offset="0" />
      <stop
         id="stop1889"
         style="stop-color:#3E3E3E"
         offset="0.3633" />
      <stop
         id="stop1891"
         style="stop-color:#454545"
         offset="0.4942" />
      <stop
         id="stop1893"
         style="stop-color:#505050"
         offset="0.5875" />
      <stop
         id="stop1895"
         style="stop-color:#616161"
         offset="0.6629" />
      <stop
         id="stop1897"
         style="stop-color:#777777"
         offset="0.7276" />
      <stop
         id="stop1899"
         style="stop-color:#939393"
         offset="0.7848" />
      <stop
         id="stop1901"
         style="stop-color:#B2B2B2"
         offset="0.8353" />
      <stop
         id="stop1903"
         style="stop-color:#D2D2D2"
         offset="0.8764" />
      <stop
         id="stop1905"
         style="stop-color:#CECECE"
         offset="0.8998" />
      <stop
         id="stop1907"
         style="stop-color:#C3C3C3"
         offset="0.9223" />
      <stop
         id="stop1909"
         style="stop-color:#AFAFAF"
         offset="0.9446" />
      <stop
         id="stop1911"
         style="stop-color:#949494"
         offset="0.9666" />
      <stop
         id="stop1913"
         style="stop-color:#717171"
         offset="0.9884" />
      <stop
         id="stop1915"
         style="stop-color:#5B5B5B"
         offset="1" />
    </radialGradient>
    <radialGradient
       gradientUnits="userSpaceOnUse"
       fy="5.6528"
       fx="5.7334"
       r="3.5497"
       cy="5.6528"
       cx="5.7334"
       id="aigrd3">
      <stop
         id="stop1922"
         style="stop-color:#3C3C3C"
         offset="0" />
      <stop
         id="stop1924"
         style="stop-color:#3E3E3E"
         offset="0.3633" />
      <stop
         id="stop1926"
         style="stop-color:#454545"
         offset="0.4942" />
      <stop
         id="stop1928"
         style="stop-color:#505050"
         offset="0.5875" />
      <stop
         id="stop1930"
         style="stop-color:#616161"
         offset="0.6629" />
      <stop
         id="stop1932"
         style="stop-color:#777777"
         offset="0.7276" />
      <stop
         id="stop1934"
         style="stop-color:#939393"
         offset="0.7848" />
      <stop
         id="stop1936"
         style="stop-color:#B2B2B2"
         offset="0.8353" />
      <stop
         id="stop1938"
         style="stop-color:#D2D2D2"
         offset="0.8764" />
      <stop
         id="stop1940"
         style="stop-color:#CECECE"
         offset="0.8998" />
      <stop
         id="stop1942"
         style="stop-color:#C3C3C3"
         offset="0.9223" />
      <stop
         id="stop1944"
         style="stop-color:#AFAFAF"
         offset="0.9446" />
      <stop
         id="stop1946"
         style="stop-color:#949494"
         offset="0.9666" />
      <stop
         id="stop1948"
         style="stop-color:#717171"
         offset="0.9884" />
      <stop
         id="stop1950"
         style="stop-color:#5B5B5B"
         offset="1" />
    </radialGradient>
    <radialGradient
       gradientUnits="userSpaceOnUse"
       fy="5.6528"
       fx="18.1523"
       r="3.5497"
       cy="5.6528"
       cx="18.1523"
       id="aigrd4">
      <stop
         id="stop1957"
         style="stop-color:#3C3C3C"
         offset="0" />
      <stop
         id="stop1959"
         style="stop-color:#3E3E3E"
         offset="0.3633" />
      <stop
         id="stop1961"
         style="stop-color:#454545"
         offset="0.4942" />
      <stop
         id="stop1963"
         style="stop-color:#505050"
         offset="0.5875" />
      <stop
         id="stop1965"
         style="stop-color:#616161"
         offset="0.6629" />
      <stop
         id="stop1967"
         style="stop-color:#777777"
         offset="0.7276" />
      <stop
         id="stop1969"
         style="stop-color:#939393"
         offset="0.7848" />
      <stop
         id="stop1971"
         style="stop-color:#B2B2B2"
         offset="0.8353" />
      <stop
         id="stop1973"
         style="stop-color:#D2D2D2"
         offset="0.8764" />
      <stop
         id="stop1975"
         style="stop-color:#CECECE"
         offset="0.8998" />
      <stop
         id="stop1977"
         style="stop-color:#C3C3C3"
         offset="0.9223" />
      <stop
         id="stop1979"
         style="stop-color:#AFAFAF"
         offset="0.9446" />
      <stop
         id="stop1981"
         style="stop-color:#949494"
         offset="0.9666" />
      <stop
         id="stop1983"
         style="stop-color:#717171"
         offset="0.9884" />
      <stop
         id="stop1985"
         style="stop-color:#5B5B5B"
         offset="1" />
    </radialGradient>
    <radialGradient
       gradientUnits="userSpaceOnUse"
       fy="11.3452"
       fx="11.5034"
       r="9.2994"
       cy="11.3452"
       cx="11.5034"
       id="aigrd5">
      <stop
         id="stop1990"
         style="stop-color:#C5C5C5"
         offset="0" />
      <stop
         id="stop1992"
         style="stop-color:#C8C8C8"
         offset="0.237" />
      <stop
         id="stop1994"
         style="stop-color:#D1D1D1"
         offset="0.4082" />
      <stop
         id="stop1996"
         style="stop-color:#E1E1E1"
         offset="0.5587" />
      <stop
         id="stop1998"
         style="stop-color:#F7F7F7"
         offset="0.6964" />
      <stop
         id="stop2000"
         style="stop-color:#FFFFFF"
         offset="0.736" />
      <stop
         id="stop2002"
         style="stop-color:#FCFCFC"
         offset="0.8191" />
      <stop
         id="stop2004"
         style="stop-color:#F2F2F2"
         offset="0.8812" />
      <stop
         id="stop2006"
         style="stop-color:#E2E2E2"
         offset="0.9364" />
      <stop
         id="stop2008"
         style="stop-color:#CCCCCC"
         offset="0.9875" />
      <stop
         id="stop2010"
         style="stop-color:#C5C5C5"
         offset="1" />
    </radialGradient>
    <radialGradient
       gradientUnits="userSpaceOnUse"
       gradientTransform="matrix(0 1 -1 0 -17.6563 -25.5215)"
       fy="-29.6997"
       fx="37.6357"
       r="12.8245"
       cy="-29.6997"
       cx="37.6357"
       id="aigrd8">
      <stop
         id="stop2061"
         style="stop-color:#210101;stop-opacity:1.0000000;"
         offset="0.0000000" />
      <stop
         offset="0.5"
         style="stop-color:#ff3d4b;stop-opacity:1;"
         id="stop3650" />
      <stop
         id="stop2079"
         style="stop-color:#830000;stop-opacity:1.0000000;"
         offset="1.0000000" />
    </radialGradient>
    <linearGradient
       y2="13.170511"
       x2="15.759552"
       y1="30.840612"
       x1="27.426350"
       gradientUnits="userSpaceOnUse"
       id="linearGradient1686"
       xlink:href="#linearGradient3640"
       inkscape:collect="always" />
    <linearGradient
       y2="38.755962"
       x2="25.253563"
       y1="9.1388483"
       x1="15.737945"
       gradientUnits="userSpaceOnUse"
       id="linearGradient1689"
       xlink:href="#linearGradient3640"
       inkscape:collect="always"
       gradientTransform="matrix(0.9305525,0,0,0.9305525,1.6529685,1.6707376)" />
    <radialGradient
       r="12.824500"
       fy="11.569979"
       fx="10.700002"
       cy="11.569979"
       cx="10.700002"
       gradientTransform="matrix(1.995477,0.000000,0.000000,1.995477,-0.986150,-0.730286)"
       gradientUnits="userSpaceOnUse"
       id="radialGradient1692"
       xlink:href="#aigrd8"
       inkscape:collect="always" />
    <radialGradient
       r="12.8245"
       fy="-29.515648"
       fx="36.221504"
       cy="-29.515648"
       cx="36.221504"
       gradientTransform="matrix(0.000000,1.975946,-1.975946,0.000000,-34.26077,-51.01487)"
       gradientUnits="userSpaceOnUse"
       id="radialGradient1695"
       xlink:href="#aigrd8"
       inkscape:collect="always" />
    <radialGradient
       r="12.826500"
       fy="-56.636044"
       fx="-1.3652747"
       cy="-56.636044"
       cx="-1.3652747"
       gradientTransform="matrix(-2.020236,0.000000,0.000000,-2.018756,20.05238,-90.97701)"
       gradientUnits="userSpaceOnUse"
       id="radialGradient1698"
       xlink:href="#aigrd8"
       inkscape:collect="always" />
    <radialGradient
       r="12.822400"
       fy="-14.617684"
       fx="-30.104782"
       cy="-14.617684"
       cx="-30.104782"
       gradientTransform="matrix(0.000000,-1.995477,1.995477,0.000000,51.97981,-36.71606)"
       gradientUnits="userSpaceOnUse"
       id="radialGradient1701"
       xlink:href="#aigrd8"
       inkscape:collect="always" />
    <radialGradient
       r="9.2994"
       fy="11.676833"
       fx="11.586308"
       cy="11.676833"
       cx="11.586308"
       gradientTransform="matrix(2.132196,0.000000,0.000000,2.132196,-1.997869,-1.742005)"
       gradientUnits="userSpaceOnUse"
       id="radialGradient1704"
       xlink:href="#aigrd5"
       inkscape:collect="always" />
    <radialGradient
       r="3.5497"
       fy="5.6528"
       fx="18.1523"
       cy="5.6528"
       cx="18.1523"
       gradientTransform="matrix(2.132196,0.000000,0.000000,2.132196,-4.832515,1.092641)"
       gradientUnits="userSpaceOnUse"
       id="radialGradient1707"
       xlink:href="#aigrd4"
       inkscape:collect="always" />
    <radialGradient
       r="3.5497"
       fy="5.6528"
       fx="5.7334"
       cy="5.6528"
       cx="5.7334"
       gradientTransform="matrix(2.132196,0.000000,0.000000,2.132196,0.836777,1.092641)"
       gradientUnits="userSpaceOnUse"
       id="radialGradient1710"
       xlink:href="#aigrd3"
       inkscape:collect="always" />
    <radialGradient
       r="3.5495"
       fy="18.3291"
       fx="5.7334"
       cy="18.3291"
       cx="5.7334"
       gradientTransform="matrix(2.132196,0.000000,0.000000,2.132196,0.836777,-4.576651)"
       gradientUnits="userSpaceOnUse"
       id="radialGradient1713"
       xlink:href="#aigrd2"
       inkscape:collect="always" />
    <radialGradient
       r="3.5495"
       fy="18.3291"
       fx="18.1523"
       cy="18.3291"
       cx="18.1523"
       gradientTransform="matrix(2.132196,0.000000,0.000000,2.132196,-4.832515,-4.576651)"
       gradientUnits="userSpaceOnUse"
       id="radialGradient1722"
       xlink:href="#aigrd1"
       inkscape:collect="always" />
    <radialGradient
       inkscape:collect="always"
       xlink:href="#linearGradient3223"
       id="radialGradient3229"
       cx="25.000000"
       cy="39.750000"
       fx="25.000000"
       fy="39.750000"
       r="19.750000"
       gradientTransform="matrix(1.000000,0.000000,0.000000,0.329114,-3.243935e-16,26.66772)"
       gradientUnits="userSpaceOnUse" />
    <radialGradient
       inkscape:collect="always"
       xlink:href="#linearGradient3914"
       id="radialGradient5933"
       gradientUnits="userSpaceOnUse"
       gradientTransform="matrix(0.6669172,0,0,0.6669455,7.5062192,9.51823)"
       cx="14.408731"
       cy="14.344230"
       fx="14.988920"
       fy="14.493366"
       r="40.769005" />
    <radialGradient
       inkscape:collect="always"
       xlink:href="#linearGradient3942"
       id="radialGradient5935"
       gradientUnits="userSpaceOnUse"
       gradientTransform="matrix(0.6669172,0,0,0.6669455,7.5062192,9.51823)"
       cx="17.813034"
       cy="17.258253"
       fx="17.813034"
       fy="17.258253"
       r="34.872005" />
    <radialGradient
       inkscape:collect="always"
       xlink:href="#linearGradient3924"
       id="radialGradient5937"
       gradientUnits="userSpaceOnUse"
       gradientTransform="scale(0.999987,1.000013)"
       cx="16.105524"
       cy="14.753099"
       fx="16.105524"
       fy="14.753099"
       r="48.359806" />
    <filter
       inkscape:collect="always"
       id="filter6536">
      <feGaussianBlur
         inkscape:collect="always"
         stdDeviation="0.59480038"
         id="feGaussianBlur6538" />
    </filter>
    <linearGradient
       inkscape:collect="always"
       xlink:href="#linearGradient3640"
       id="linearGradient6542"
       gradientUnits="userSpaceOnUse"
       gradientTransform="matrix(0.9492893,0,0,-0.9710298,1.3320015,47.168179)"
       x1="15.737945"
       y1="9.1388483"
       x2="25.253563"
       y2="38.755962" />
    <linearGradient
       inkscape:collect="always"
       xlink:href="#linearGradient3640"
       id="linearGradient6935"
       gradientUnits="userSpaceOnUse"
       gradientTransform="matrix(0.8366616,0,0,-0.8558962,4.0127302,44.398345)"
       x1="15.737945"
       y1="9.1388483"
       x2="25.253563"
       y2="38.755962" />
    <filter
       inkscape:collect="always"
       id="filter6969">
      <feGaussianBlur
         inkscape:collect="always"
         stdDeviation="0.63291076"
         id="feGaussianBlur6971" />
    </filter>
  </defs>
  <sodipodi:namedview
     id="base"
     pagecolor="#ffffff"
     bordercolor="#666666"
     borderopacity="0.26666667"
     inkscape:pageopacity="0.0"
     inkscape:pageshadow="2"
     inkscape:zoom="1"
     inkscape:cx="38.408017"
     inkscape:cy="31.335678"
     inkscape:current-layer="layer1"
     showgrid="false"
     inkscape:grid-bbox="true"
     inkscape:document-units="px"
     inkscape:window-width="641"
     inkscape:window-height="656"
     inkscape:window-x="524"
     inkscape:window-y="114"
     inkscape:showpageshadow="false">
    <inkscape:grid
       type="xygrid"
       id="grid5931" />
  </sodipodi:namedview>
  <metadata
     id="metadata4">
    <rdf:RDF>
      <cc:Work
         rdf:about="">
        <dc:format>image/svg+xml</dc:format>
        <dc:type
           rdf:resource="http://purl.org/dc/dcmitype/StillImage" />
        <dc:title>SUSE Help</dc:title>
        <dc:date></dc:date>
        <dc:creator>
          <cc:Agent>
            <dc:title>Jakub Steiner</dc:title>
          </cc:Agent>
        </dc:creator>
        <dc:source>http://jimmac.musichall.cz</dc:source>
        <dc:subject>
          <rdf:Bag>
            <rdf:li>help</rdf:li>
            <rdf:li>browser</rdf:li>
            <rdf:li>documentation</rdf:li>
            <rdf:li>docs</rdf:li>
            <rdf:li>man</rdf:li>
            <rdf:li>info</rdf:li>
          </rdf:Bag>
        </dc:subject>
        <cc:license
           rdf:resource="http://creativecommons.org/licenses/by-sa/3.0/" />
      </cc:Work>
      <cc:License
         rdf:about="http://creativecommons.org/licenses/by-sa/3.0/">
        <cc:permits
           rdf:resource="http://creativecommons.org/ns#Reproduction" />
        <cc:permits
           rdf:resource="http://creativecommons.org/ns#Distribution" />
        <cc:requires
           rdf:resource="http://creativecommons.org/ns#Notice" />
        <cc:requires
           rdf:resource="http://creativecommons.org/ns#Attribution" />
        <cc:permits
           rdf:resource="http://creativecommons.org/ns#DerivativeWorks" />
        <cc:requires
           rdf:resource="http://creativecommons.org/ns#ShareAlike" />
      </cc:License>
    </rdf:RDF>
  </metadata>
  <g
     id="layer1"
     inkscape:label="Layer 1"
     inkscape:groupmode="layer">
    <path
       sodipodi:type="arc"
       style="opacity:0.41764703;color:#000000;fill:url(#radialGradient3229);fill-opacity:1.0000000;fill-rule:nonzero;stroke:none;stroke-width:1.0000000;stroke-linecap:butt;stroke-linejoin:miter;marker:none;marker-start:none;marker-mid:none;marker-end:none;stroke-miterlimit:4.0000000;stroke-dasharray:none;stroke-dashoffset:0.0000000;stroke-opacity:1.0000000;visibility:visible;display:block;overflow:visible"
       id="path3221"
       sodipodi:cx="25.000000"
       sodipodi:cy="39.750000"
       sodipodi:rx="19.750000"
       sodipodi:ry="6.5000000"
       d="M 44.750000 39.750000 A 19.750000 6.5000000 0 1 1  5.2500000,39.750000 A 19.750000 6.5000000 0 1 1  44.750000 39.750000 z"
       transform="matrix(1.202532,0.000000,0.000000,1.202532,-5.313291,-8.550633)" />
    <path
       id="path1882"
       d="M 34.186675,26.766633 C 29.922284,26.766633 26.297550,30.391367 26.297550,34.655758 C 26.297550,38.920151 29.922284,42.544884 34.186675,42.544884 C 38.451067,42.544884 42.075801,38.920151 42.075801,34.655758 C 42.075801,30.391367 38.451067,26.766633 34.186675,26.766633 z M 34.186675,40.839128 C 30.775161,40.839128 28.003307,38.067273 28.003307,34.655758 C 28.003307,31.244245 30.775161,28.472390 34.186675,28.472390 C 37.598190,28.472390 40.370044,31.244245 40.370044,34.655758 C 40.370044,38.067273 37.598190,40.839128 34.186675,40.839128 z "
       style="fill:url(#radialGradient1722);fill-rule:nonzero;stroke:none;stroke-width:0.85650003;stroke-miterlimit:4.0000000" />
    <path
       id="path1917"
       d="M 13.416735,26.766633 C 9.1523425,26.766633 5.5276090,30.391367 5.5276090,34.655758 C 5.5276090,38.920151 9.1523425,42.544884 13.416735,42.544884 C 17.681128,42.544884 21.305861,38.920151 21.305861,34.655758 C 21.305861,30.391367 17.681128,26.766633 13.416735,26.766633 L 13.416735,26.766633 z M 13.416735,40.839128 C 10.005221,40.839128 7.2333659,38.067273 7.2333659,34.655758 C 7.2333659,31.244245 10.005221,28.472390 13.416735,28.472390 C 16.828249,28.472390 19.600104,31.244245 19.600104,34.655758 C 19.600104,38.067273 16.828249,40.839128 13.416735,40.839128 L 13.416735,40.839128 z "
       style="fill:url(#radialGradient1713);fill-rule:nonzero;stroke:none;stroke-width:0.85650003;stroke-miterlimit:4.0000000" />
    <path
       id="path1952"
       d="M 13.416735,5.3570338 C 9.1523425,5.3570338 5.5276090,8.9817672 5.5276090,13.246160 C 5.5276090,17.510551 9.1523425,21.135285 13.416735,21.135285 C 17.681128,21.135285 21.305861,17.510551 21.305861,13.246160 C 21.305861,8.9817672 17.681128,5.3570338 13.416735,5.3570338 L 13.416735,5.3570338 z M 13.416735,19.429528 C 10.005221,19.429528 7.2333659,16.657673 7.2333659,13.246160 C 7.2333659,9.8346457 10.005221,7.0627906 13.416735,7.0627906 C 16.828249,7.0627906 19.600104,9.8346457 19.600104,13.246160 C 19.600104,16.657673 16.615030,19.429528 13.416735,19.429528 z "
       style="fill:url(#radialGradient1710);fill-rule:nonzero;stroke:none;stroke-width:0.85650003;stroke-miterlimit:4.0000000" />
    <path
       id="path1987"
       d="M 34.186675,21.348504 C 38.451067,21.348504 42.075801,17.723772 42.075801,13.459379 C 42.075801,9.1949869 38.451067,5.5702534 34.186675,5.5702534 C 29.922284,5.5702534 26.297550,9.1949869 26.297550,13.459379 C 26.297550,17.723772 29.922284,21.348504 34.186675,21.348504 z M 34.186675,7.2760103 C 37.598190,7.2760103 40.370044,10.047865 40.370044,13.459379 C 40.370044,16.870893 37.598190,19.642748 34.186675,19.642748 C 30.775161,19.642748 28.003307,16.870893 28.003307,13.459379 C 28.003307,10.047865 30.775161,7.2760103 34.186675,7.2760103 L 34.186675,7.2760103 z "
       style="fill:url(#radialGradient1707);fill-rule:nonzero;stroke:none;stroke-width:0.85650003;stroke-miterlimit:4.0000000" />
    <path
       id="path2012"
       d="M 4.8251594,24.057569 C 4.8251594,34.505330 13.353944,43.034115 23.801705,43.034115 C 34.249466,43.034115 42.778251,34.505330 42.778251,24.057569 C 42.778251,13.609807 34.249466,5.0810234 23.801705,5.0810234 C 13.353944,5.0810234 4.8251594,13.609807 4.8251594,24.057569 L 4.8251594,24.057569 z M 16.339018,24.057569 C 16.339018,20.006396 19.750533,16.594882 23.801705,16.594882 C 27.852877,16.594882 31.264392,20.006396 31.264392,24.057569 C 31.264392,28.108741 27.852877,31.520255 23.801705,31.520255 C 19.750533,31.520255 16.339018,28.108741 16.339018,24.057569 z "
       style="fill:url(#radialGradient1704);fill-rule:nonzero;stroke:#606060;stroke-width:0.85650003;stroke-miterlimit:4.0000000;stroke-opacity:1.0000000" />
    <path
       id="path2033"
       d="M 7.3948557,32.881604 L 16.742349,27.493815 C 17.740088,29.289745 18.475779,29.931686 20.134661,30.979877 L 15.576313,40.663966 C 12.583096,39.466680 8.5921421,35.475725 7.3948557,32.881604 L 7.3948557,32.881604 z "
       style="fill:url(#radialGradient1701);fill-opacity:1.0000000;fill-rule:nonzero;stroke:none;stroke-width:0.85650003;stroke-miterlimit:4.0000000"
       sodipodi:nodetypes="cccccc" />
    <path
       id="path2058"
       d="M 32.767135,40.481938 L 27.343750,31.056288 C 28.974462,30.140660 29.813807,29.270657 30.809401,27.593153 L 40.646053,32.205040 C 39.433912,35.233175 35.393441,39.270686 32.767135,40.481938 L 32.767135,40.481938 z "
       style="fill:url(#radialGradient1698);fill-opacity:1.0000000;fill-rule:nonzero;stroke:none;stroke-width:0.85650003;stroke-miterlimit:4.0000000"
       sodipodi:nodetypes="cccccc" />
    <path
       id="path2081"
       d="M 40.146055,15.221815 L 30.859108,20.556869 C 29.839885,18.841018 28.987006,18.113139 27.500000,17.197760 L 32.044676,7.5156250 C 35.008595,8.7011927 38.960487,12.455490 40.146055,15.221815 z "
       style="fill:url(#radialGradient1695);fill-rule:nonzero;stroke:none;stroke-width:0.85650002999999986;stroke-miterlimit:4"
       sodipodi:nodetypes="ccccc" />
    <path
       id="path2098"
       d="M 14.977670,7.6507197 L 20.365458,17.029463 C 18.569529,18.027202 17.771338,18.762893 16.879397,20.390525 L 7.1953078,15.832177 C 8.3925943,12.838960 12.184001,8.8480061 14.977670,7.6507197 z "
       style="fill:url(#radialGradient1692);fill-opacity:1;fill-rule:nonzero;stroke:none;stroke-width:0.85650002999999986;stroke-miterlimit:4"
       sodipodi:nodetypes="ccccc" />
    <path
       style="opacity:0.86144577;fill:none;fill-rule:nonzero;stroke:url(#linearGradient1689);stroke-width:1.01138616;stroke-miterlimit:4;stroke-opacity:1;filter:url(#filter6536)"
       d="M 7.0524922,24.057567 C 7.0524922,33.279041 14.580227,40.806778 23.801703,40.806778 C 33.023178,40.806778 40.550914,33.279041 40.550914,24.057567 C 40.550914,14.83609 33.023178,7.3083555 23.801703,7.3083555 C 14.580227,7.3083555 7.0524922,14.83609 7.0524922,24.057567 L 7.0524922,24.057567 z"
       id="path3636"
       sodipodi:nodetypes="cccccc"
       transform="matrix(0.9776109,0,0,1,0.1578991,0)" />
    <path
       sodipodi:nodetypes="cccccc"
       id="path3638"
       d="M 15.466663,24.057573 C 15.466663,28.646533 19.212754,32.392623 23.801713,32.392623 C 28.390673,32.392623 32.136764,28.646533 32.136764,24.057573 C 32.136764,19.468613 28.390673,15.722523 23.801713,15.722523 C 19.212754,15.722523 15.466663,19.468613 15.466663,24.057573 L 15.466663,24.057573 z "
       style="color:#000000;fill:none;fill-opacity:1.0000000;fill-rule:nonzero;stroke:url(#linearGradient1686);stroke-width:1.0000000;stroke-linecap:butt;stroke-linejoin:miter;stroke-miterlimit:4.0000000;stroke-dashoffset:0.0000000;stroke-opacity:1.0000000;marker:none;marker-start:none;marker-mid:none;marker-end:none;visibility:visible;display:inline;overflow:visible" />
    <g
       id="g5925"
       transform="matrix(0.8985585,0,0,0.8985585,3.3938124,1.5637632)">
      <path
         style="font-size:20.48839951px;fill:url(#radialGradient5933);fill-opacity:1;fill-rule:nonzero;stroke:url(#radialGradient5935);stroke-width:1.11289346;stroke-miterlimit:4;stroke-opacity:1;font-family:TrebuchetMS-Bold"
         id="path2441"
         d="M 37.016092,24.99939 C 37.016092,32.74146 30.738435,39.0167 22.999395,39.0167 C 15.258542,39.0167 8.983908,32.74146 8.983908,24.99939 C 8.983908,17.25793 15.259147,10.9833 22.999395,10.9833 C 30.738435,10.9833 37.016092,17.25854 37.016092,24.99939 z" />
      <g
         transform="matrix(0.6819425,0,0,0.6819428,7.1577235,9.16975)"
         id="g4175">
        <path
           id="path2445"
           d="M 40.993146,23.215177 C 40.993146,33.033002 33.033042,40.993107 23.216123,40.993107 C 13.399204,40.993107 5.4391021,33.033002 5.4391021,23.215177 C 5.4391021,13.397352 13.399204,5.4381566 23.216123,5.4381566 C 33.033042,5.4381566 40.993146,13.397352 40.993146,23.215177 z"
           style="font-size:20.48839951px;fill:url(#radialGradient5937);fill-opacity:1;fill-rule:evenodd;stroke:none;stroke-miterlimit:4;font-family:TrebuchetMS-Bold" />
        <path
           style="font-size:20.48839951px;fill:#ffffff;fill-rule:nonzero;stroke:none;stroke-miterlimit:4;font-family:TrebuchetMS-Bold"
           id="path2447"
           d="M 23.304931,7.8985032 C 18.763938,7.8985032 14.686015,9.8767464 11.881311,13.016746 C 13.559602,13.477098 14.731325,13.858611 15.109213,13.983667 C 15.113744,13.72993 15.155429,11.445387 15.155429,11.445387 L 15.188959,11.368359 L 15.276861,11.342986 C 15.792491,11.418201 26.802882,13.051182 31.440839,15.754392 C 32.014467,16.0915 32.298109,16.44492 32.653342,16.808308 C 33.934716,18.13318 35.631131,23.650156 35.81056,24.790162 L 35.740782,24.903437 C 35.674629,24.927905 35.514231,25.042993 35.303085,25.187079 C 34.221076,25.943761 31.690952,27.713579 28.447644,27.425406 C 25.53057,27.165325 21.723603,25.493377 17.132769,22.470277 C 17.334852,22.946941 18.291805,25.212453 18.451297,25.593059 L 18.515637,25.668274 C 19.180792,26.011726 25.558663,29.263189 28.723131,29.197036 C 31.276816,29.146289 34.0054,27.900257 35.09647,27.245977 L 35.439922,27.182543 C 35.536886,27.258664 35.523293,27.407282 35.493388,27.544119 C 35.426329,27.856759 35.274993,28.430387 35.170779,28.696811 L 35.08469,28.920644 C 34.96054,29.250503 34.840014,29.565862 34.608026,29.756165 C 33.96462,30.341573 32.93789,30.804644 31.330282,31.509672 C 28.843656,32.596211 24.811044,33.283115 21.066605,33.261366 C 19.726327,33.231461 18.429548,33.081937 17.290448,32.95235 C 14.913473,32.681395 12.985975,32.463906 11.832376,33.359236 C 14.637986,36.530047 18.736751,38.531854 23.304025,38.531854 C 31.761636,38.531854 38.620702,31.674601 38.620702,23.216083 C 38.620702,14.758472 31.762542,7.9003156 23.304025,7.9003156 L 23.304931,7.8985032 z M 29.544152,20.015367 C 29.544152,19.477082 28.889872,19.041197 28.085162,19.041197 C 27.277734,19.041197 26.627985,19.477082 26.627985,20.015367 C 26.627985,20.550028 27.277734,20.986819 28.085162,20.986819 C 28.889872,20.986819 29.544152,20.550935 29.544152,20.015367 z M 30.639754,24.161255 C 31.556834,23.303985 32.085151,22.140418 32.131368,20.884418 C 32.220176,18.288141 30.183027,16.100562 27.584937,16.007223 C 26.326218,15.965537 25.127309,16.409578 24.208417,17.271379 C 23.285901,18.12593 22.759395,19.293122 22.714991,20.550935 C 22.630714,23.143587 24.666051,25.329354 27.25961,25.426317 C 28.522859,25.467097 29.719956,25.023056 30.639754,24.161255 L 30.639754,24.161255 z M 24.153139,20.558184 C 24.181231,19.680978 24.5564,18.869924 25.193462,18.271829 C 25.832337,17.672827 26.66967,17.361093 27.546876,17.393716 C 29.35838,17.457151 30.77931,18.980481 30.718594,20.79561 C 30.691408,21.669192 30.321676,22.481151 29.680989,23.081965 C 29.03849,23.678248 28.202063,23.989983 27.322138,23.962796 C 25.51154,23.895737 24.092423,22.370594 24.152233,20.558184 L 24.153139,20.558184 z" />
      </g>
    </g>
    <path
       sodipodi:nodetypes="cccccc"
       id="path6540"
       d="M 6.8402451,23.807566 C 6.8402451,14.184975 14.519552,6.3297957 23.926703,6.3297957 C 33.333853,6.3297957 41.013161,14.184975 41.013161,23.807566 C 41.013161,33.430159 33.333853,41.285336 23.926703,41.285336 C 14.519552,41.285336 6.8402451,33.430159 6.8402451,23.807566 L 6.8402451,23.807566 z"
       style="opacity:0.20481928;fill:none;fill-rule:nonzero;stroke:url(#linearGradient6542);stroke-width:1.00000011999999994;stroke-miterlimit:4;stroke-opacity:1" />
    <path
       style="opacity:1;fill:none;fill-rule:nonzero;stroke:url(#linearGradient6935);stroke-width:1.0852077;stroke-miterlimit:4;stroke-opacity:1;filter:url(#filter6969)"
       d="M 8.8674527,23.807566 C 8.8674527,15.325912 15.635655,8.4021111 23.926702,8.4021111 C 32.217749,8.4021111 38.985953,15.325912 38.985953,23.807566 C 38.985953,32.289223 32.217749,39.213023 23.926702,39.213023 C 15.635655,39.213023 8.8674527,32.289223 8.8674527,23.807566 L 8.8674527,23.807566 z"
       id="path6933"
       sodipodi:nodetypes="cccccc"
       transform="matrix(0.9214827,0,0,0.9214827,1.878659,1.8693048)" />
  </g>
</svg>
